<?xml version="1.0" encoding="UTF-8" standalone="no"?>
<!DOCTYPE svg PUBLIC "-//W3C//DTD SVG 1.1//EN"
 "http://www.w3.org/Graphics/SVG/1.1/DTD/svg11.dtd">
<!-- Generated by graphviz version 2.43.0 (0)
 -->
<!-- Title: MamiferoDomestico Pages: 1 -->
<svg width="868pt" height="1882pt"
 viewBox="0.00 0.00 868.00 1882.00" xmlns="http://www.w3.org/2000/svg" xmlns:xlink="http://www.w3.org/1999/xlink">
<g id="graph0" class="graph" transform="scale(1 1) rotate(0) translate(4 1878)">
<title>MamiferoDomestico</title>
<polygon fill="white" stroke="transparent" points="-4,4 -4,-1878 864,-1878 864,4 -4,4"/>
<!-- Node1 -->
<g id="node1" class="node">
<title>Node1</title>
<g id="a_node1"><a xlink:title="Implementação de animal com Classe e Categoria.">
<polygon fill="#bfbfbf" stroke="black" points="1.5,-0.5 1.5,-134.5 270.5,-134.5 270.5,-0.5 1.5,-0.5"/>
<text text-anchor="middle" x="136" y="-114.5" font-family="Helvetica,sans-Serif" font-size="20.00">MamiferoDomestico</text>
<polyline fill="none" stroke="black" points="1.5,-104.5 270.5,-104.5 "/>
<text text-anchor="middle" x="136" y="-84.5" font-family="Helvetica,sans-Serif" font-size="20.00"> </text>
<polyline fill="none" stroke="black" points="1.5,-74.5 270.5,-74.5 "/>
<text text-anchor="start" x="9.5" y="-54.5" font-family="Helvetica,sans-Serif" font-size="20.00">+ MamiferoDomestico()</text>
<text text-anchor="start" x="9.5" y="-32.5" font-family="Helvetica,sans-Serif" font-size="20.00">+ MamiferoDomestico()</text>
<text text-anchor="start" x="9.5" y="-10.5" font-family="Helvetica,sans-Serif" font-size="20.00">+ ~MamiferoDomestico()</text>
</a>
</g>
</g>
<!-- Node2 -->
<g id="node2" class="node">
<title>Node2</title>
<g id="a_node2"><a xlink:href="classMamifero.html" target="_top" xlink:title="Classificação base para Mamiferos.">
<polygon fill="white" stroke="black" points="132.5,-172.5 132.5,-372.5 311.5,-372.5 311.5,-172.5 132.5,-172.5"/>
<text text-anchor="middle" x="222" y="-352.5" font-family="Helvetica,sans-Serif" font-size="20.00">Mamifero</text>
<polyline fill="none" stroke="black" points="132.5,-342.5 311.5,-342.5 "/>
<text text-anchor="middle" x="222" y="-322.5" font-family="Helvetica,sans-Serif" font-size="20.00"> </text>
<polyline fill="none" stroke="black" points="132.5,-312.5 311.5,-312.5 "/>
<text text-anchor="start" x="140.5" y="-292.5" font-family="Helvetica,sans-Serif" font-size="20.00">+ Mamifero()</text>
<text text-anchor="start" x="140.5" y="-270.5" font-family="Helvetica,sans-Serif" font-size="20.00">+ Mamifero()</text>
<text text-anchor="start" x="140.5" y="-248.5" font-family="Helvetica,sans-Serif" font-size="20.00">+ ~Mamifero()</text>
<text text-anchor="start" x="140.5" y="-226.5" font-family="Helvetica,sans-Serif" font-size="20.00">+ getGestacao()</text>
<text text-anchor="start" x="140.5" y="-204.5" font-family="Helvetica,sans-Serif" font-size="20.00">+ setGestacao()</text>
<text text-anchor="start" x="140.5" y="-182.5" font-family="Helvetica,sans-Serif" font-size="20.00">+ setGestacao()</text>
</a>
</g>
</g>
<!-- Node2&#45;&gt;Node1 -->
<g id="edge1" class="edge">
<title>Node2&#45;&gt;Node1</title>
<path fill="none" stroke="midnightblue" d="M176.07,-163.09C171.98,-153.43 167.92,-143.84 164.04,-134.69"/>
<polygon fill="none" stroke="midnightblue" points="172.88,-164.54 180.01,-172.38 179.33,-161.81 172.88,-164.54"/>
</g>
<!-- Node3 -->
<g id="node3" class="node">
<title>Node3</title>
<g id="a_node3"><a xlink:href="classAnimal.html" target="_top" xlink:title="Implementação base para o cadastro de animais.">
<polygon fill="white" stroke="black" points="353.5,-610.5 353.5,-920.5 576.5,-920.5 576.5,-610.5 353.5,-610.5"/>
<text text-anchor="middle" x="465" y="-900.5" font-family="Helvetica,sans-Serif" font-size="20.00">Animal</text>
<polyline fill="none" stroke="black" points="353.5,-890.5 576.5,-890.5 "/>
<text text-anchor="middle" x="465" y="-870.5" font-family="Helvetica,sans-Serif" font-size="20.00"> </text>
<polyline fill="none" stroke="black" points="353.5,-860.5 576.5,-860.5 "/>
<text text-anchor="start" x="361.5" y="-840.5" font-family="Helvetica,sans-Serif" font-size="20.00">+ Animal()</text>
<text text-anchor="start" x="361.5" y="-818.5" font-family="Helvetica,sans-Serif" font-size="20.00">+ Animal()</text>
<text text-anchor="start" x="361.5" y="-796.5" font-family="Helvetica,sans-Serif" font-size="20.00">+ ~Animal()</text>
<text text-anchor="start" x="361.5" y="-774.5" font-family="Helvetica,sans-Serif" font-size="20.00">+ getNome()</text>
<text text-anchor="start" x="361.5" y="-752.5" font-family="Helvetica,sans-Serif" font-size="20.00">+ getEspecie()</text>
<text text-anchor="start" x="361.5" y="-730.5" font-family="Helvetica,sans-Serif" font-size="20.00">+ getAmeacadoPor()</text>
<text text-anchor="start" x="361.5" y="-708.5" font-family="Helvetica,sans-Serif" font-size="20.00">+ getVeterinario()</text>
<text text-anchor="start" x="361.5" y="-686.5" font-family="Helvetica,sans-Serif" font-size="20.00">+ getTratador()</text>
<text text-anchor="start" x="361.5" y="-664.5" font-family="Helvetica,sans-Serif" font-size="20.00">+ getPerigoso()</text>
<text text-anchor="start" x="361.5" y="-642.5" font-family="Helvetica,sans-Serif" font-size="20.00">+ setNome()</text>
<text text-anchor="start" x="361.5" y="-620.5" font-family="Helvetica,sans-Serif" font-size="20.00">e 15 mais...</text>
</a>
</g>
</g>
<!-- Node3&#45;&gt;Node2 -->
<g id="edge2" class="edge">
<title>Node3&#45;&gt;Node2</title>
<path fill="none" stroke="midnightblue" d="M384.25,-601.33C346.83,-525.73 303.58,-438.34 271.15,-372.81"/>
<polygon fill="none" stroke="midnightblue" points="381.21,-603.08 388.78,-610.49 387.48,-599.98 381.21,-603.08"/>
</g>
<!-- Node4 -->
<g id="node4" class="node">
<title>Node4</title>
<g id="a_node4"><a xlink:href="classTratador.html" target="_top" xlink:title="Implementação dos tratadores.">
<polygon fill="white" stroke="black" points="241,-979.5 241,-1201.5 441,-1201.5 441,-979.5 241,-979.5"/>
<text text-anchor="middle" x="341" y="-1181.5" font-family="Helvetica,sans-Serif" font-size="20.00">Tratador</text>
<polyline fill="none" stroke="black" points="241,-1171.5 441,-1171.5 "/>
<text text-anchor="middle" x="341" y="-1151.5" font-family="Helvetica,sans-Serif" font-size="20.00"> </text>
<polyline fill="none" stroke="black" points="241,-1141.5 441,-1141.5 "/>
<text text-anchor="start" x="249" y="-1121.5" font-family="Helvetica,sans-Serif" font-size="20.00">+ Tratador()</text>
<text text-anchor="start" x="249" y="-1099.5" font-family="Helvetica,sans-Serif" font-size="20.00">+ Tratador()</text>
<text text-anchor="start" x="249" y="-1077.5" font-family="Helvetica,sans-Serif" font-size="20.00">+ ~Tratador()</text>
<text text-anchor="start" x="249" y="-1055.5" font-family="Helvetica,sans-Serif" font-size="20.00">+ getUniforme()</text>
<text text-anchor="start" x="249" y="-1033.5" font-family="Helvetica,sans-Serif" font-size="20.00">+ setUniforme()</text>
<text text-anchor="start" x="249" y="-1011.5" font-family="Helvetica,sans-Serif" font-size="20.00">+ setUniforme()</text>
<text text-anchor="start" x="249" y="-989.5" font-family="Helvetica,sans-Serif" font-size="20.00">+ printOutDados()</text>
</a>
</g>
</g>
<!-- Node4&#45;&gt;Node3 -->
<g id="edge3" class="edge">
<title>Node4&#45;&gt;Node3</title>
<path fill="none" stroke="#404040" d="M383.33,-979.25C389.17,-964.02 395.27,-948.13 401.4,-932.17"/>
<polygon fill="none" stroke="#404040" points="401.56,-931.76 399.97,-924.72 405.86,-920.56 407.44,-927.59 401.56,-931.76"/>
<text text-anchor="middle" x="446.5" y="-945" font-family="Helvetica,sans-Serif" font-size="20.00"> #tratador</text>
</g>
<!-- Node5 -->
<g id="node5" class="node">
<title>Node5</title>
<g id="a_node5"><a xlink:href="classPessoa.html" target="_top" xlink:title="Classe base dos funcionarios.">
<polygon fill="white" stroke="black" points="350,-1304.5 350,-1680.5 550,-1680.5 550,-1304.5 350,-1304.5"/>
<text text-anchor="middle" x="450" y="-1660.5" font-family="Helvetica,sans-Serif" font-size="20.00">Pessoa</text>
<polyline fill="none" stroke="black" points="350,-1650.5 550,-1650.5 "/>
<text text-anchor="middle" x="450" y="-1630.5" font-family="Helvetica,sans-Serif" font-size="20.00"> </text>
<polyline fill="none" stroke="black" points="350,-1620.5 550,-1620.5 "/>
<text text-anchor="start" x="358" y="-1600.5" font-family="Helvetica,sans-Serif" font-size="20.00">+ Pessoa()</text>
<text text-anchor="start" x="358" y="-1578.5" font-family="Helvetica,sans-Serif" font-size="20.00">+ Pessoa()</text>
<text text-anchor="start" x="358" y="-1556.5" font-family="Helvetica,sans-Serif" font-size="20.00">+ ~Pessoa()</text>
<text text-anchor="start" x="358" y="-1534.5" font-family="Helvetica,sans-Serif" font-size="20.00">+ getNome()</text>
<text text-anchor="start" x="358" y="-1512.5" font-family="Helvetica,sans-Serif" font-size="20.00">+ setNome()</text>
<text text-anchor="start" x="358" y="-1490.5" font-family="Helvetica,sans-Serif" font-size="20.00">+ setNome()</text>
<text text-anchor="start" x="358" y="-1468.5" font-family="Helvetica,sans-Serif" font-size="20.00">+ getTelefone()</text>
<text text-anchor="start" x="358" y="-1446.5" font-family="Helvetica,sans-Serif" font-size="20.00">+ setTelefone()</text>
<text text-anchor="start" x="358" y="-1424.5" font-family="Helvetica,sans-Serif" font-size="20.00">+ setTelefone()</text>
<text text-anchor="start" x="358" y="-1402.5" font-family="Helvetica,sans-Serif" font-size="20.00">+ getEmail()</text>
<text text-anchor="start" x="358" y="-1380.5" font-family="Helvetica,sans-Serif" font-size="20.00">+ setEmail()</text>
<text text-anchor="start" x="358" y="-1358.5" font-family="Helvetica,sans-Serif" font-size="20.00">+ setEmail()</text>
<text text-anchor="start" x="358" y="-1336.5" font-family="Helvetica,sans-Serif" font-size="20.00">+ printOutDados()</text>
<text text-anchor="start" x="358" y="-1314.5" font-family="Helvetica,sans-Serif" font-size="20.00">+ operator==()</text>
</a>
</g>
</g>
<!-- Node5&#45;&gt;Node4 -->
<g id="edge4" class="edge">
<title>Node5&#45;&gt;Node4</title>
<path fill="none" stroke="midnightblue" d="M415.82,-1294.33C409.98,-1269.12 403.38,-1243.81 396,-1220 394.13,-1213.97 392.08,-1207.85 389.89,-1201.7"/>
<polygon fill="none" stroke="midnightblue" points="412.47,-1295.4 418.11,-1304.37 419.3,-1293.84 412.47,-1295.4"/>
</g>
<!-- Node9 -->
<g id="node9" class="node">
<title>Node9</title>
<g id="a_node9"><a xlink:href="classVeterinario.html" target="_top" xlink:title="Implementação dos veterinarios.">
<polygon fill="white" stroke="black" points="459,-979.5 459,-1201.5 659,-1201.5 659,-979.5 459,-979.5"/>
<text text-anchor="middle" x="559" y="-1181.5" font-family="Helvetica,sans-Serif" font-size="20.00">Veterinario</text>
<polyline fill="none" stroke="black" points="459,-1171.5 659,-1171.5 "/>
<text text-anchor="middle" x="559" y="-1151.5" font-family="Helvetica,sans-Serif" font-size="20.00"> </text>
<polyline fill="none" stroke="black" points="459,-1141.5 659,-1141.5 "/>
<text text-anchor="start" x="467" y="-1121.5" font-family="Helvetica,sans-Serif" font-size="20.00">+ Veterinario()</text>
<text text-anchor="start" x="467" y="-1099.5" font-family="Helvetica,sans-Serif" font-size="20.00">+ Veterinario()</text>
<text text-anchor="start" x="467" y="-1077.5" font-family="Helvetica,sans-Serif" font-size="20.00">+ ~Veterinario()</text>
<text text-anchor="start" x="467" y="-1055.5" font-family="Helvetica,sans-Serif" font-size="20.00">+ getCRMV()</text>
<text text-anchor="start" x="467" y="-1033.5" font-family="Helvetica,sans-Serif" font-size="20.00">+ setCRMV()</text>
<text text-anchor="start" x="467" y="-1011.5" font-family="Helvetica,sans-Serif" font-size="20.00">+ setCRMV()</text>
<text text-anchor="start" x="467" y="-989.5" font-family="Helvetica,sans-Serif" font-size="20.00">+ printOutDados()</text>
</a>
</g>
</g>
<!-- Node5&#45;&gt;Node9 -->
<g id="edge10" class="edge">
<title>Node5&#45;&gt;Node9</title>
<path fill="none" stroke="midnightblue" d="M503.69,-1294.48C512.39,-1262.55 521.12,-1230.51 528.99,-1201.63"/>
<polygon fill="none" stroke="midnightblue" points="500.24,-1293.81 500.99,-1304.38 507,-1295.65 500.24,-1293.81"/>
</g>
<!-- Node6 -->
<g id="node6" class="node">
<title>Node6</title>
<g id="a_node6"><a xlink:title=" ">
<polygon fill="white" stroke="#bfbfbf" points="549,-1783.5 549,-1873.5 623,-1873.5 623,-1783.5 549,-1783.5"/>
<text text-anchor="middle" x="586" y="-1853.5" font-family="Helvetica,sans-Serif" font-size="20.00">string</text>
<polyline fill="none" stroke="#bfbfbf" points="549,-1843.5 623,-1843.5 "/>
<text text-anchor="middle" x="586" y="-1823.5" font-family="Helvetica,sans-Serif" font-size="20.00"> </text>
<polyline fill="none" stroke="#bfbfbf" points="549,-1813.5 623,-1813.5 "/>
<text text-anchor="middle" x="586" y="-1793.5" font-family="Helvetica,sans-Serif" font-size="20.00"> </text>
</a>
</g>
</g>
<!-- Node6&#45;&gt;Node3 -->
<g id="edge8" class="edge">
<title>Node6&#45;&gt;Node3</title>
<path fill="none" stroke="#404040" d="M613.67,-1783.21C629.63,-1755.08 648.24,-1717.26 657,-1681 730.3,-1377.69 720.28,-1286.63 668,-979 659.16,-926.96 624.31,-882.28 585.92,-847.5"/>
<polygon fill="none" stroke="#404040" points="585.64,-847.26 578.49,-846.3 576.63,-839.33 583.77,-840.29 585.64,-847.26"/>
<text text-anchor="middle" x="784" y="-1270" font-family="Helvetica,sans-Serif" font-size="20.00"> #especie</text>
<text text-anchor="middle" x="784" y="-1248" font-family="Helvetica,sans-Serif" font-size="20.00">#ameacadoPor</text>
<text text-anchor="middle" x="784" y="-1226" font-family="Helvetica,sans-Serif" font-size="20.00">#nome</text>
</g>
<!-- Node6&#45;&gt;Node5 -->
<g id="edge5" class="edge">
<title>Node6&#45;&gt;Node5</title>
<path fill="none" stroke="#404040" d="M548.92,-1816.74C523.68,-1807.36 491.9,-1791.08 475,-1765 460.88,-1743.21 451.67,-1718.29 445.9,-1692.59"/>
<polygon fill="none" stroke="#404040" points="445.88,-1692.5 440.77,-1687.41 443.49,-1680.74 448.6,-1685.82 445.88,-1692.5"/>
<text text-anchor="middle" x="523.5" y="-1749" font-family="Helvetica,sans-Serif" font-size="20.00"> #email</text>
<text text-anchor="middle" x="523.5" y="-1727" font-family="Helvetica,sans-Serif" font-size="20.00">#nome</text>
<text text-anchor="middle" x="523.5" y="-1705" font-family="Helvetica,sans-Serif" font-size="20.00">#telefone</text>
</g>
<!-- Node6&#45;&gt;Node9 -->
<g id="edge11" class="edge">
<title>Node6&#45;&gt;Node9</title>
<path fill="none" stroke="#404040" d="M584.38,-1783.39C580.33,-1672.83 569.61,-1380.77 563.48,-1213.58"/>
<polygon fill="none" stroke="#404040" points="563.48,-1213.51 559.26,-1207.66 563.04,-1201.52 567.25,-1207.37 563.48,-1213.51"/>
<text text-anchor="middle" x="616.5" y="-1487.5" font-family="Helvetica,sans-Serif" font-size="20.00"> &#45;CRMV</text>
</g>
<!-- Node7 -->
<g id="node7" class="node">
<title>Node7</title>
<g id="a_node7"><a xlink:title=" ">
<polygon fill="white" stroke="#bfbfbf" points="224.5,-1447.5 224.5,-1537.5 331.5,-1537.5 331.5,-1447.5 224.5,-1447.5"/>
<text text-anchor="middle" x="278" y="-1517.5" font-family="Helvetica,sans-Serif" font-size="20.00">Uniforme</text>
<polyline fill="none" stroke="#bfbfbf" points="224.5,-1507.5 331.5,-1507.5 "/>
<text text-anchor="middle" x="278" y="-1487.5" font-family="Helvetica,sans-Serif" font-size="20.00"> </text>
<polyline fill="none" stroke="#bfbfbf" points="224.5,-1477.5 331.5,-1477.5 "/>
<text text-anchor="middle" x="278" y="-1457.5" font-family="Helvetica,sans-Serif" font-size="20.00"> </text>
</a>
</g>
</g>
<!-- Node7&#45;&gt;Node4 -->
<g id="edge6" class="edge">
<title>Node7&#45;&gt;Node4</title>
<path fill="none" stroke="#404040" d="M276.38,-1447.24C275.33,-1393.05 276.51,-1298.78 293,-1220 293.46,-1217.82 293.94,-1215.63 294.46,-1213.43"/>
<polygon fill="none" stroke="#404040" points="294.5,-1213.25 292.1,-1206.45 297.46,-1201.62 299.86,-1208.42 294.5,-1213.25"/>
<text text-anchor="middle" x="344.5" y="-1248" font-family="Helvetica,sans-Serif" font-size="20.00"> &#45;uniforme</text>
</g>
<!-- Node8 -->
<g id="node8" class="node">
<title>Node8</title>
<g id="a_node8"><a xlink:title=" ">
<polygon fill="white" stroke="#bfbfbf" points="163.5,-1045.5 163.5,-1135.5 222.5,-1135.5 222.5,-1045.5 163.5,-1045.5"/>
<text text-anchor="middle" x="193" y="-1115.5" font-family="Helvetica,sans-Serif" font-size="20.00">bool</text>
<polyline fill="none" stroke="#bfbfbf" points="163.5,-1105.5 222.5,-1105.5 "/>
<text text-anchor="middle" x="193" y="-1085.5" font-family="Helvetica,sans-Serif" font-size="20.00"> </text>
<polyline fill="none" stroke="#bfbfbf" points="163.5,-1075.5 222.5,-1075.5 "/>
<text text-anchor="middle" x="193" y="-1055.5" font-family="Helvetica,sans-Serif" font-size="20.00"> </text>
</a>
</g>
</g>
<!-- Node8&#45;&gt;Node2 -->
<g id="edge12" class="edge">
<title>Node8&#45;&gt;Node2</title>
<path fill="none" stroke="#404040" d="M199.22,-1045.29C202.43,-1020.55 206.08,-989.12 208,-961 221.88,-758.1 223.48,-520.79 223.01,-384.72"/>
<polygon fill="none" stroke="#404040" points="223.01,-384.68 218.98,-378.7 222.96,-372.68 226.98,-378.67 223.01,-384.68"/>
<text text-anchor="middle" x="277.5" y="-760.5" font-family="Helvetica,sans-Serif" font-size="20.00"> #gestacao</text>
</g>
<!-- Node8&#45;&gt;Node3 -->
<g id="edge7" class="edge">
<title>Node8&#45;&gt;Node3</title>
<path fill="none" stroke="#404040" d="M202.93,-1045.36C209.08,-1024.09 218.44,-998.94 232,-979 247.23,-956.6 254.24,-952.02 278,-939 302.79,-925.41 315.46,-936.65 339,-921 340.53,-919.98 342.05,-918.94 343.57,-917.87"/>
<polygon fill="none" stroke="#404040" points="343.79,-917.71 346.2,-910.91 353.4,-910.53 350.99,-917.32 343.79,-917.71"/>
<text text-anchor="middle" x="332.5" y="-945" font-family="Helvetica,sans-Serif" font-size="20.00"> #perigoso</text>
</g>
<!-- Node10 -->
<g id="node10" class="node">
<title>Node10</title>
<g id="a_node10"><a xlink:href="classDomestico.html" target="_top" xlink:title="Umas das definições de categoria para Animal.">
<polygon fill="white" stroke="black" points="0,-391.5 0,-591.5 188,-591.5 188,-391.5 0,-391.5"/>
<text text-anchor="middle" x="94" y="-571.5" font-family="Helvetica,sans-Serif" font-size="20.00">Domestico</text>
<polyline fill="none" stroke="black" points="0,-561.5 188,-561.5 "/>
<text text-anchor="middle" x="94" y="-541.5" font-family="Helvetica,sans-Serif" font-size="20.00"> </text>
<polyline fill="none" stroke="black" points="0,-531.5 188,-531.5 "/>
<text text-anchor="start" x="8" y="-511.5" font-family="Helvetica,sans-Serif" font-size="20.00">+ Domestico()</text>
<text text-anchor="start" x="8" y="-489.5" font-family="Helvetica,sans-Serif" font-size="20.00">+ Domestico()</text>
<text text-anchor="start" x="8" y="-467.5" font-family="Helvetica,sans-Serif" font-size="20.00">+ ~Domestico()</text>
<text text-anchor="start" x="8" y="-445.5" font-family="Helvetica,sans-Serif" font-size="20.00">+ getAdestrado()</text>
<text text-anchor="start" x="8" y="-423.5" font-family="Helvetica,sans-Serif" font-size="20.00">+ setAdestrado()</text>
<text text-anchor="start" x="8" y="-401.5" font-family="Helvetica,sans-Serif" font-size="20.00">+ setAdestrado()</text>
</a>
</g>
</g>
<!-- Node8&#45;&gt;Node10 -->
<g id="edge14" class="edge">
<title>Node8&#45;&gt;Node10</title>
<path fill="none" stroke="#404040" d="M163.31,-1065.32C137.03,-1041.84 100.52,-1003.58 85,-961 42.62,-844.7 53.79,-701.15 69.84,-603.82"/>
<polygon fill="none" stroke="#404040" points="69.85,-603.72 66.92,-597.13 71.87,-591.89 74.8,-598.47 69.85,-603.72"/>
<text text-anchor="middle" x="146.5" y="-945" font-family="Helvetica,sans-Serif" font-size="20.00"> #adestrado</text>
</g>
<!-- Node9&#45;&gt;Node3 -->
<g id="edge9" class="edge">
<title>Node9&#45;&gt;Node3</title>
<path fill="none" stroke="#404040" d="M526.91,-979.25C522.48,-964.02 517.86,-948.13 513.21,-932.17"/>
<polygon fill="none" stroke="#404040" points="513.19,-932.08 507.67,-927.44 509.83,-920.56 515.35,-925.2 513.19,-932.08"/>
<text text-anchor="middle" x="585" y="-945" font-family="Helvetica,sans-Serif" font-size="20.00"> #veterinario</text>
</g>
<!-- Node10&#45;&gt;Node1 -->
<g id="edge13" class="edge">
<title>Node10&#45;&gt;Node1</title>
<path fill="none" stroke="midnightblue" d="M103.01,-381.31C108.33,-319.78 115.47,-241.55 123,-172 124.31,-159.94 125.82,-147.1 127.34,-134.72"/>
<polygon fill="none" stroke="midnightblue" points="99.51,-381.16 102.14,-391.42 106.49,-381.76 99.51,-381.16"/>
</g>
</g>
</svg>
