<?xml version="1.0" encoding="UTF-8" standalone="no"?>
<!DOCTYPE svg PUBLIC "-//W3C//DTD SVG 1.1//EN"
 "http://www.w3.org/Graphics/SVG/1.1/DTD/svg11.dtd">
<!-- Generated by graphviz version 2.43.0 (0)
 -->
<!-- Title: AnfibioDomestico Pages: 1 -->
<svg width="877pt" height="1640pt"
 viewBox="0.00 0.00 877.00 1640.00" xmlns="http://www.w3.org/2000/svg" xmlns:xlink="http://www.w3.org/1999/xlink">
<g id="graph0" class="graph" transform="scale(1 1) rotate(0) translate(4 1636)">
<title>AnfibioDomestico</title>
<polygon fill="white" stroke="transparent" points="-4,4 -4,-1636 873,-1636 873,4 -4,4"/>
<!-- Node1 -->
<g id="node1" class="node">
<title>Node1</title>
<g id="a_node1"><a xlink:title="Implementação de animal com Classe e Categoria.">
<polygon fill="#bfbfbf" stroke="black" points="15.5,-0.5 15.5,-112.5 260.5,-112.5 260.5,-0.5 15.5,-0.5"/>
<text text-anchor="middle" x="138" y="-92.5" font-family="Helvetica,sans-Serif" font-size="20.00">AnfibioDomestico</text>
<polyline fill="none" stroke="black" points="15.5,-82.5 260.5,-82.5 "/>
<text text-anchor="middle" x="138" y="-62.5" font-family="Helvetica,sans-Serif" font-size="20.00"> </text>
<polyline fill="none" stroke="black" points="15.5,-52.5 260.5,-52.5 "/>
<text text-anchor="start" x="23.5" y="-32.5" font-family="Helvetica,sans-Serif" font-size="20.00">+ AnfibioDomestico()</text>
<text text-anchor="start" x="23.5" y="-10.5" font-family="Helvetica,sans-Serif" font-size="20.00">+ ~AnfibioDomestico()</text>
</a>
</g>
</g>
<!-- Node2 -->
<g id="node2" class="node">
<title>Node2</title>
<g id="a_node2"><a xlink:href="classAnfibio.html" target="_top" xlink:title="Classificação base para Anfibios.">
<polygon fill="white" stroke="black" points="142,-150.5 142,-306.5 292,-306.5 292,-150.5 142,-150.5"/>
<text text-anchor="middle" x="217" y="-286.5" font-family="Helvetica,sans-Serif" font-size="20.00">Anfibio</text>
<polyline fill="none" stroke="black" points="142,-276.5 292,-276.5 "/>
<text text-anchor="middle" x="217" y="-256.5" font-family="Helvetica,sans-Serif" font-size="20.00"> </text>
<polyline fill="none" stroke="black" points="142,-246.5 292,-246.5 "/>
<text text-anchor="start" x="150" y="-226.5" font-family="Helvetica,sans-Serif" font-size="20.00">+ Anfibio()</text>
<text text-anchor="start" x="150" y="-204.5" font-family="Helvetica,sans-Serif" font-size="20.00">+ ~Anfibio()</text>
<text text-anchor="start" x="150" y="-182.5" font-family="Helvetica,sans-Serif" font-size="20.00">+ getCauda()</text>
<text text-anchor="start" x="150" y="-160.5" font-family="Helvetica,sans-Serif" font-size="20.00">+ getPata()</text>
</a>
</g>
</g>
<!-- Node2&#45;&gt;Node1 -->
<g id="edge1" class="edge">
<title>Node2&#45;&gt;Node1</title>
<path fill="none" stroke="midnightblue" d="M176.92,-141.24C172.44,-131.62 167.98,-122.02 163.76,-112.93"/>
<polygon fill="none" stroke="midnightblue" points="173.81,-142.86 181.2,-150.46 180.16,-139.91 173.81,-142.86"/>
</g>
<!-- Node3 -->
<g id="node3" class="node">
<title>Node3</title>
<g id="a_node3"><a xlink:href="classAnimal.html" target="_top" xlink:title="Implementação base para o cadastro de animais.">
<polygon fill="white" stroke="black" points="313.5,-500.5 313.5,-854.5 536.5,-854.5 536.5,-500.5 313.5,-500.5"/>
<text text-anchor="middle" x="425" y="-834.5" font-family="Helvetica,sans-Serif" font-size="20.00">Animal</text>
<polyline fill="none" stroke="black" points="313.5,-824.5 536.5,-824.5 "/>
<text text-anchor="middle" x="425" y="-804.5" font-family="Helvetica,sans-Serif" font-size="20.00"> </text>
<polyline fill="none" stroke="black" points="313.5,-794.5 536.5,-794.5 "/>
<text text-anchor="start" x="321.5" y="-774.5" font-family="Helvetica,sans-Serif" font-size="20.00">+ Animal()</text>
<text text-anchor="start" x="321.5" y="-752.5" font-family="Helvetica,sans-Serif" font-size="20.00">+ Animal()</text>
<text text-anchor="start" x="321.5" y="-730.5" font-family="Helvetica,sans-Serif" font-size="20.00">+ ~Animal()</text>
<text text-anchor="start" x="321.5" y="-708.5" font-family="Helvetica,sans-Serif" font-size="20.00">+ getNome()</text>
<text text-anchor="start" x="321.5" y="-686.5" font-family="Helvetica,sans-Serif" font-size="20.00">+ getEspecie()</text>
<text text-anchor="start" x="321.5" y="-664.5" font-family="Helvetica,sans-Serif" font-size="20.00">+ getAmeacadoPor()</text>
<text text-anchor="start" x="321.5" y="-642.5" font-family="Helvetica,sans-Serif" font-size="20.00">+ getVeterinario()</text>
<text text-anchor="start" x="321.5" y="-620.5" font-family="Helvetica,sans-Serif" font-size="20.00">+ getTratador()</text>
<text text-anchor="start" x="321.5" y="-598.5" font-family="Helvetica,sans-Serif" font-size="20.00">+ getPerigoso()</text>
<text text-anchor="start" x="321.5" y="-576.5" font-family="Helvetica,sans-Serif" font-size="20.00">+ getClassificacao()</text>
<text text-anchor="start" x="321.5" y="-554.5" font-family="Helvetica,sans-Serif" font-size="20.00">+ getClasse()</text>
<text text-anchor="start" x="321.5" y="-532.5" font-family="Helvetica,sans-Serif" font-size="20.00">+ printOutDados()</text>
<text text-anchor="start" x="321.5" y="-510.5" font-family="Helvetica,sans-Serif" font-size="20.00">+ operator==()</text>
</a>
</g>
</g>
<!-- Node3&#45;&gt;Node2 -->
<g id="edge2" class="edge">
<title>Node3&#45;&gt;Node2</title>
<path fill="none" stroke="midnightblue" d="M338.86,-491.39C308.79,-426.75 276.66,-357.71 252.94,-306.74"/>
<polygon fill="none" stroke="midnightblue" points="335.7,-492.89 343.09,-500.48 342.05,-489.93 335.7,-492.89"/>
</g>
<!-- Node4 -->
<g id="node4" class="node">
<title>Node4</title>
<g id="a_node4"><a xlink:href="classTratador.html" target="_top" xlink:title="Implementação dos tratadores.">
<polygon fill="white" stroke="black" points="250,-913.5 250,-1091.5 450,-1091.5 450,-913.5 250,-913.5"/>
<text text-anchor="middle" x="350" y="-1071.5" font-family="Helvetica,sans-Serif" font-size="20.00">Tratador</text>
<polyline fill="none" stroke="black" points="250,-1061.5 450,-1061.5 "/>
<text text-anchor="middle" x="350" y="-1041.5" font-family="Helvetica,sans-Serif" font-size="20.00"> </text>
<polyline fill="none" stroke="black" points="250,-1031.5 450,-1031.5 "/>
<text text-anchor="start" x="258" y="-1011.5" font-family="Helvetica,sans-Serif" font-size="20.00">+ Tratador()</text>
<text text-anchor="start" x="258" y="-989.5" font-family="Helvetica,sans-Serif" font-size="20.00">+ Tratador()</text>
<text text-anchor="start" x="258" y="-967.5" font-family="Helvetica,sans-Serif" font-size="20.00">+ ~Tratador()</text>
<text text-anchor="start" x="258" y="-945.5" font-family="Helvetica,sans-Serif" font-size="20.00">+ getUniforme()</text>
<text text-anchor="start" x="258" y="-923.5" font-family="Helvetica,sans-Serif" font-size="20.00">+ printOutDados()</text>
</a>
</g>
</g>
<!-- Node4&#45;&gt;Node3 -->
<g id="edge3" class="edge">
<title>Node4&#45;&gt;Node3</title>
<path fill="none" stroke="#404040" d="M370.49,-913.24C373.93,-898.43 377.61,-882.59 381.38,-866.38"/>
<polygon fill="none" stroke="#404040" points="381.41,-866.21 378.88,-859.46 384.13,-854.52 386.67,-861.27 381.41,-866.21"/>
<text text-anchor="middle" x="429.5" y="-879" font-family="Helvetica,sans-Serif" font-size="20.00"> #tratador</text>
</g>
<!-- Node5 -->
<g id="node5" class="node">
<title>Node5</title>
<g id="a_node5"><a xlink:href="classPessoa.html" target="_top" xlink:title="Classe base dos funcionarios.">
<polygon fill="white" stroke="black" points="359,-1194.5 359,-1438.5 559,-1438.5 559,-1194.5 359,-1194.5"/>
<text text-anchor="middle" x="459" y="-1418.5" font-family="Helvetica,sans-Serif" font-size="20.00">Pessoa</text>
<polyline fill="none" stroke="black" points="359,-1408.5 559,-1408.5 "/>
<text text-anchor="middle" x="459" y="-1388.5" font-family="Helvetica,sans-Serif" font-size="20.00"> </text>
<polyline fill="none" stroke="black" points="359,-1378.5 559,-1378.5 "/>
<text text-anchor="start" x="367" y="-1358.5" font-family="Helvetica,sans-Serif" font-size="20.00">+ Pessoa()</text>
<text text-anchor="start" x="367" y="-1336.5" font-family="Helvetica,sans-Serif" font-size="20.00">+ Pessoa()</text>
<text text-anchor="start" x="367" y="-1314.5" font-family="Helvetica,sans-Serif" font-size="20.00">+ ~Pessoa()</text>
<text text-anchor="start" x="367" y="-1292.5" font-family="Helvetica,sans-Serif" font-size="20.00">+ getNome()</text>
<text text-anchor="start" x="367" y="-1270.5" font-family="Helvetica,sans-Serif" font-size="20.00">+ getTelefone()</text>
<text text-anchor="start" x="367" y="-1248.5" font-family="Helvetica,sans-Serif" font-size="20.00">+ getEmail()</text>
<text text-anchor="start" x="367" y="-1226.5" font-family="Helvetica,sans-Serif" font-size="20.00">+ printOutDados()</text>
<text text-anchor="start" x="367" y="-1204.5" font-family="Helvetica,sans-Serif" font-size="20.00">+ operator==()</text>
</a>
</g>
</g>
<!-- Node5&#45;&gt;Node4 -->
<g id="edge4" class="edge">
<title>Node5&#45;&gt;Node4</title>
<path fill="none" stroke="midnightblue" d="M429.16,-1184.38C422.17,-1159.37 414.08,-1133.64 405,-1110 402.69,-1103.98 400.13,-1097.85 397.41,-1091.74"/>
<polygon fill="none" stroke="midnightblue" points="425.86,-1185.57 431.88,-1194.29 432.61,-1183.72 425.86,-1185.57"/>
</g>
<!-- Node9 -->
<g id="node9" class="node">
<title>Node9</title>
<g id="a_node9"><a xlink:href="classVeterinario.html" target="_top" xlink:title="Implementação dos veterinarios.">
<polygon fill="white" stroke="black" points="468,-913.5 468,-1091.5 668,-1091.5 668,-913.5 468,-913.5"/>
<text text-anchor="middle" x="568" y="-1071.5" font-family="Helvetica,sans-Serif" font-size="20.00">Veterinario</text>
<polyline fill="none" stroke="black" points="468,-1061.5 668,-1061.5 "/>
<text text-anchor="middle" x="568" y="-1041.5" font-family="Helvetica,sans-Serif" font-size="20.00"> </text>
<polyline fill="none" stroke="black" points="468,-1031.5 668,-1031.5 "/>
<text text-anchor="start" x="476" y="-1011.5" font-family="Helvetica,sans-Serif" font-size="20.00">+ Veterinario()</text>
<text text-anchor="start" x="476" y="-989.5" font-family="Helvetica,sans-Serif" font-size="20.00">+ Veterinario()</text>
<text text-anchor="start" x="476" y="-967.5" font-family="Helvetica,sans-Serif" font-size="20.00">+ ~Veterinario()</text>
<text text-anchor="start" x="476" y="-945.5" font-family="Helvetica,sans-Serif" font-size="20.00">+ getCRMV()</text>
<text text-anchor="start" x="476" y="-923.5" font-family="Helvetica,sans-Serif" font-size="20.00">+ printOutDados()</text>
</a>
</g>
</g>
<!-- Node5&#45;&gt;Node9 -->
<g id="edge10" class="edge">
<title>Node5&#45;&gt;Node9</title>
<path fill="none" stroke="midnightblue" d="M504.68,-1184.73C515.65,-1153.34 527.11,-1120.55 537.21,-1091.62"/>
<polygon fill="none" stroke="midnightblue" points="501.29,-1183.83 501.3,-1194.43 507.9,-1186.14 501.29,-1183.83"/>
</g>
<!-- Node6 -->
<g id="node6" class="node">
<title>Node6</title>
<g id="a_node6"><a xlink:title=" ">
<polygon fill="white" stroke="#bfbfbf" points="558,-1541.5 558,-1631.5 632,-1631.5 632,-1541.5 558,-1541.5"/>
<text text-anchor="middle" x="595" y="-1611.5" font-family="Helvetica,sans-Serif" font-size="20.00">string</text>
<polyline fill="none" stroke="#bfbfbf" points="558,-1601.5 632,-1601.5 "/>
<text text-anchor="middle" x="595" y="-1581.5" font-family="Helvetica,sans-Serif" font-size="20.00"> </text>
<polyline fill="none" stroke="#bfbfbf" points="558,-1571.5 632,-1571.5 "/>
<text text-anchor="middle" x="595" y="-1551.5" font-family="Helvetica,sans-Serif" font-size="20.00"> </text>
</a>
</g>
</g>
<!-- Node6&#45;&gt;Node3 -->
<g id="edge8" class="edge">
<title>Node6&#45;&gt;Node3</title>
<path fill="none" stroke="#404040" d="M621.95,-1541.44C637.68,-1513.25 656.12,-1475.28 665,-1439 720.62,-1211.87 743.46,-1137.2 677,-913 656.77,-844.77 600.83,-789.27 546.78,-749.43"/>
<polygon fill="none" stroke="#404040" points="546.45,-749.19 539.25,-748.92 536.72,-742.17 543.93,-742.43 546.45,-749.19"/>
<text text-anchor="middle" x="793" y="-1160" font-family="Helvetica,sans-Serif" font-size="20.00"> #especie</text>
<text text-anchor="middle" x="793" y="-1138" font-family="Helvetica,sans-Serif" font-size="20.00">#ameacadoPor</text>
<text text-anchor="middle" x="793" y="-1116" font-family="Helvetica,sans-Serif" font-size="20.00">#nome</text>
</g>
<!-- Node6&#45;&gt;Node5 -->
<g id="edge5" class="edge">
<title>Node6&#45;&gt;Node5</title>
<path fill="none" stroke="#404040" d="M557.88,-1574.48C532.8,-1565.02 501.21,-1548.74 484,-1523 469.77,-1501.72 461.52,-1476.38 457.03,-1450.88"/>
<polygon fill="none" stroke="#404040" points="456.99,-1450.63 452.13,-1445.31 455.17,-1438.77 460.03,-1444.09 456.99,-1450.63"/>
<text text-anchor="middle" x="532.5" y="-1507" font-family="Helvetica,sans-Serif" font-size="20.00"> #email</text>
<text text-anchor="middle" x="532.5" y="-1485" font-family="Helvetica,sans-Serif" font-size="20.00">#nome</text>
<text text-anchor="middle" x="532.5" y="-1463" font-family="Helvetica,sans-Serif" font-size="20.00">#telefone</text>
</g>
<!-- Node6&#45;&gt;Node9 -->
<g id="edge11" class="edge">
<title>Node6&#45;&gt;Node9</title>
<path fill="none" stroke="#404040" d="M592.95,-1541.28C588.65,-1448.57 578.59,-1231.87 572.65,-1103.64"/>
<polygon fill="none" stroke="#404040" points="572.64,-1103.5 568.37,-1097.69 572.08,-1091.51 576.36,-1097.32 572.64,-1103.5"/>
<text text-anchor="middle" x="624.5" y="-1311.5" font-family="Helvetica,sans-Serif" font-size="20.00"> &#45;CRMV</text>
</g>
<!-- Node7 -->
<g id="node7" class="node">
<title>Node7</title>
<g id="a_node7"><a xlink:title=" ">
<polygon fill="white" stroke="#bfbfbf" points="233.5,-1271.5 233.5,-1361.5 340.5,-1361.5 340.5,-1271.5 233.5,-1271.5"/>
<text text-anchor="middle" x="287" y="-1341.5" font-family="Helvetica,sans-Serif" font-size="20.00">Uniforme</text>
<polyline fill="none" stroke="#bfbfbf" points="233.5,-1331.5 340.5,-1331.5 "/>
<text text-anchor="middle" x="287" y="-1311.5" font-family="Helvetica,sans-Serif" font-size="20.00"> </text>
<polyline fill="none" stroke="#bfbfbf" points="233.5,-1301.5 340.5,-1301.5 "/>
<text text-anchor="middle" x="287" y="-1281.5" font-family="Helvetica,sans-Serif" font-size="20.00"> </text>
</a>
</g>
</g>
<!-- Node7&#45;&gt;Node4 -->
<g id="edge6" class="edge">
<title>Node7&#45;&gt;Node4</title>
<path fill="none" stroke="#404040" d="M285.81,-1271.5C285.69,-1229.4 288.21,-1164.44 302,-1110 302.58,-1107.71 303.2,-1105.42 303.87,-1103.11"/>
<polygon fill="none" stroke="#404040" points="303.9,-1103.01 301.9,-1096.09 307.52,-1091.57 309.53,-1098.5 303.9,-1103.01"/>
<text text-anchor="middle" x="353.5" y="-1138" font-family="Helvetica,sans-Serif" font-size="20.00"> &#45;uniforme</text>
</g>
<!-- Node8 -->
<g id="node8" class="node">
<title>Node8</title>
<g id="a_node8"><a xlink:title=" ">
<polygon fill="white" stroke="#bfbfbf" points="172.5,-957.5 172.5,-1047.5 231.5,-1047.5 231.5,-957.5 172.5,-957.5"/>
<text text-anchor="middle" x="202" y="-1027.5" font-family="Helvetica,sans-Serif" font-size="20.00">bool</text>
<polyline fill="none" stroke="#bfbfbf" points="172.5,-1017.5 231.5,-1017.5 "/>
<text text-anchor="middle" x="202" y="-997.5" font-family="Helvetica,sans-Serif" font-size="20.00"> </text>
<polyline fill="none" stroke="#bfbfbf" points="172.5,-987.5 231.5,-987.5 "/>
<text text-anchor="middle" x="202" y="-967.5" font-family="Helvetica,sans-Serif" font-size="20.00"> </text>
</a>
</g>
</g>
<!-- Node8&#45;&gt;Node2 -->
<g id="edge12" class="edge">
<title>Node8&#45;&gt;Node2</title>
<path fill="none" stroke="#404040" d="M202.86,-957.22C205.26,-833.83 212.05,-484.35 215.27,-318.7"/>
<polygon fill="none" stroke="#404040" points="215.27,-318.61 211.39,-312.54 215.5,-306.61 219.38,-312.69 215.27,-318.61"/>
<text text-anchor="middle" x="250" y="-683.5" font-family="Helvetica,sans-Serif" font-size="20.00"> #pata</text>
<text text-anchor="middle" x="250" y="-661.5" font-family="Helvetica,sans-Serif" font-size="20.00">#cauda</text>
</g>
<!-- Node8&#45;&gt;Node3 -->
<g id="edge7" class="edge">
<title>Node8&#45;&gt;Node3</title>
<path fill="none" stroke="#404040" d="M220.49,-957.48C226.74,-943.17 233.93,-927.3 241,-913 249.99,-894.81 248.37,-887.06 263,-873 275.89,-860.6 285.4,-866.62 299,-855 300.82,-853.44 302.64,-851.85 304.43,-850.23"/>
<polygon fill="none" stroke="#404040" points="304.56,-850.11 306.2,-843.08 313.31,-841.89 311.68,-848.92 304.56,-850.11"/>
<text text-anchor="middle" x="317.5" y="-879" font-family="Helvetica,sans-Serif" font-size="20.00"> #perigoso</text>
</g>
<!-- Node10 -->
<g id="node10" class="node">
<title>Node10</title>
<g id="a_node10"><a xlink:href="classDomestico.html" target="_top" xlink:title="Umas das definições de categoria para Animal.">
<polygon fill="white" stroke="black" points="0,-325.5 0,-481.5 188,-481.5 188,-325.5 0,-325.5"/>
<text text-anchor="middle" x="94" y="-461.5" font-family="Helvetica,sans-Serif" font-size="20.00">Domestico</text>
<polyline fill="none" stroke="black" points="0,-451.5 188,-451.5 "/>
<text text-anchor="middle" x="94" y="-431.5" font-family="Helvetica,sans-Serif" font-size="20.00"> </text>
<polyline fill="none" stroke="black" points="0,-421.5 188,-421.5 "/>
<text text-anchor="start" x="8" y="-401.5" font-family="Helvetica,sans-Serif" font-size="20.00">+ Domestico()</text>
<text text-anchor="start" x="8" y="-379.5" font-family="Helvetica,sans-Serif" font-size="20.00">+ Domestico()</text>
<text text-anchor="start" x="8" y="-357.5" font-family="Helvetica,sans-Serif" font-size="20.00">+ ~Domestico()</text>
<text text-anchor="start" x="8" y="-335.5" font-family="Helvetica,sans-Serif" font-size="20.00">+ getAdestrado()</text>
</a>
</g>
</g>
<!-- Node8&#45;&gt;Node10 -->
<g id="edge14" class="edge">
<title>Node8&#45;&gt;Node10</title>
<path fill="none" stroke="#404040" d="M172.36,-985.74C142.69,-968.1 98.84,-936.47 80,-895 21.01,-765.19 45.14,-595.45 68.92,-493.49"/>
<polygon fill="none" stroke="#404040" points="68.94,-493.37 66.45,-486.6 71.73,-481.7 74.23,-488.46 68.94,-493.37"/>
<text text-anchor="middle" x="141.5" y="-879" font-family="Helvetica,sans-Serif" font-size="20.00"> #adestrado</text>
</g>
<!-- Node9&#45;&gt;Node3 -->
<g id="edge9" class="edge">
<title>Node9&#45;&gt;Node3</title>
<path fill="none" stroke="#404040" d="M528.92,-913.24C522.31,-898.29 515.22,-882.28 507.97,-865.9"/>
<polygon fill="none" stroke="#404040" points="507.78,-865.49 501.7,-861.62 502.93,-854.52 509.01,-858.38 507.78,-865.49"/>
<text text-anchor="middle" x="582" y="-879" font-family="Helvetica,sans-Serif" font-size="20.00"> #veterinario</text>
</g>
<!-- Node10&#45;&gt;Node1 -->
<g id="edge13" class="edge">
<title>Node10&#45;&gt;Node1</title>
<path fill="none" stroke="midnightblue" d="M105.15,-315.05C113.27,-251.41 124.01,-167.18 130.96,-112.67"/>
<polygon fill="none" stroke="midnightblue" points="101.67,-314.71 103.87,-325.08 108.61,-315.6 101.67,-314.71"/>
</g>
</g>
</svg>
