<?xml version="1.0" encoding="UTF-8" standalone="no"?>
<!DOCTYPE svg PUBLIC "-//W3C//DTD SVG 1.1//EN"
 "http://www.w3.org/Graphics/SVG/1.1/DTD/svg11.dtd">
<!-- Generated by graphviz version 2.43.0 (0)
 -->
<!-- Title: ReptilNativo Pages: 1 -->
<svg width="725pt" height="1992pt"
 viewBox="0.00 0.00 724.79 1992.00" xmlns="http://www.w3.org/2000/svg" xmlns:xlink="http://www.w3.org/1999/xlink">
<g id="graph0" class="graph" transform="scale(1 1) rotate(0) translate(4 1988)">
<title>ReptilNativo</title>
<polygon fill="white" stroke="transparent" points="-4,4 -4,-1988 720.79,-1988 720.79,4 -4,4"/>
<!-- Node1 -->
<g id="node1" class="node">
<title>Node1</title>
<g id="a_node1"><a xlink:title="Implementação de animal com Classe e Categoria.">
<polygon fill="#bfbfbf" stroke="black" points="420.79,-0.5 420.79,-134.5 610.79,-134.5 610.79,-0.5 420.79,-0.5"/>
<text text-anchor="middle" x="515.79" y="-114.5" font-family="Helvetica,sans-Serif" font-size="20.00">ReptilNativo</text>
<polyline fill="none" stroke="black" points="420.79,-104.5 610.79,-104.5 "/>
<text text-anchor="middle" x="515.79" y="-84.5" font-family="Helvetica,sans-Serif" font-size="20.00"> </text>
<polyline fill="none" stroke="black" points="420.79,-74.5 610.79,-74.5 "/>
<text text-anchor="start" x="428.79" y="-54.5" font-family="Helvetica,sans-Serif" font-size="20.00">+ ReptilNativo()</text>
<text text-anchor="start" x="428.79" y="-32.5" font-family="Helvetica,sans-Serif" font-size="20.00">+ ReptilNativo()</text>
<text text-anchor="start" x="428.79" y="-10.5" font-family="Helvetica,sans-Serif" font-size="20.00">+ ~ReptilNativo()</text>
</a>
</g>
</g>
<!-- Node2 -->
<g id="node2" class="node">
<title>Node2</title>
<g id="a_node2"><a xlink:href="classReptil.html" target="_top" xlink:title="Classificação base para Repteis.">
<polygon fill="white" stroke="black" points="314.29,-172.5 314.29,-372.5 441.29,-372.5 441.29,-172.5 314.29,-172.5"/>
<text text-anchor="middle" x="377.79" y="-352.5" font-family="Helvetica,sans-Serif" font-size="20.00">Reptil</text>
<polyline fill="none" stroke="black" points="314.29,-342.5 441.29,-342.5 "/>
<text text-anchor="middle" x="377.79" y="-322.5" font-family="Helvetica,sans-Serif" font-size="20.00"> </text>
<polyline fill="none" stroke="black" points="314.29,-312.5 441.29,-312.5 "/>
<text text-anchor="start" x="322.29" y="-292.5" font-family="Helvetica,sans-Serif" font-size="20.00">+ Reptil()</text>
<text text-anchor="start" x="322.29" y="-270.5" font-family="Helvetica,sans-Serif" font-size="20.00">+ Reptil()</text>
<text text-anchor="start" x="322.29" y="-248.5" font-family="Helvetica,sans-Serif" font-size="20.00">+ ~Reptil()</text>
<text text-anchor="start" x="322.29" y="-226.5" font-family="Helvetica,sans-Serif" font-size="20.00">+ getPele()</text>
<text text-anchor="start" x="322.29" y="-204.5" font-family="Helvetica,sans-Serif" font-size="20.00">+ setPele()</text>
<text text-anchor="start" x="322.29" y="-182.5" font-family="Helvetica,sans-Serif" font-size="20.00">+ setPele()</text>
</a>
</g>
</g>
<!-- Node2&#45;&gt;Node1 -->
<g id="edge1" class="edge">
<title>Node2&#45;&gt;Node1</title>
<path fill="none" stroke="midnightblue" d="M447.19,-169.41C455.24,-157.57 463.28,-145.74 470.87,-134.57"/>
<polygon fill="none" stroke="midnightblue" points="444.06,-167.78 441.33,-178.02 449.85,-171.72 444.06,-167.78"/>
</g>
<!-- Node3 -->
<g id="node3" class="node">
<title>Node3</title>
<g id="a_node3"><a xlink:href="classAnimal.html" target="_top" xlink:title="Implementação base para o cadastro de animais.">
<polygon fill="white" stroke="black" points="266.29,-431.5 266.29,-807.5 489.29,-807.5 489.29,-431.5 266.29,-431.5"/>
<text text-anchor="middle" x="377.79" y="-787.5" font-family="Helvetica,sans-Serif" font-size="20.00">Animal</text>
<polyline fill="none" stroke="black" points="266.29,-777.5 489.29,-777.5 "/>
<text text-anchor="middle" x="377.79" y="-757.5" font-family="Helvetica,sans-Serif" font-size="20.00"> </text>
<polyline fill="none" stroke="black" points="266.29,-747.5 489.29,-747.5 "/>
<text text-anchor="start" x="274.29" y="-727.5" font-family="Helvetica,sans-Serif" font-size="20.00">+ Animal()</text>
<text text-anchor="start" x="274.29" y="-705.5" font-family="Helvetica,sans-Serif" font-size="20.00">+ Animal()</text>
<text text-anchor="start" x="274.29" y="-683.5" font-family="Helvetica,sans-Serif" font-size="20.00">+ ~Animal()</text>
<text text-anchor="start" x="274.29" y="-661.5" font-family="Helvetica,sans-Serif" font-size="20.00">+ getNome()</text>
<text text-anchor="start" x="274.29" y="-639.5" font-family="Helvetica,sans-Serif" font-size="20.00">+ getEspecie()</text>
<text text-anchor="start" x="274.29" y="-617.5" font-family="Helvetica,sans-Serif" font-size="20.00">+ getAmeacadoPor()</text>
<text text-anchor="start" x="274.29" y="-595.5" font-family="Helvetica,sans-Serif" font-size="20.00">+ getVeterinario()</text>
<text text-anchor="start" x="274.29" y="-573.5" font-family="Helvetica,sans-Serif" font-size="20.00">+ getTratador()</text>
<text text-anchor="start" x="274.29" y="-551.5" font-family="Helvetica,sans-Serif" font-size="20.00">+ getPerigoso()</text>
<text text-anchor="start" x="274.29" y="-529.5" font-family="Helvetica,sans-Serif" font-size="20.00">+ setNome()</text>
<text text-anchor="start" x="274.29" y="-507.5" font-family="Helvetica,sans-Serif" font-size="20.00">e 13 mais...</text>
<text text-anchor="start" x="274.29" y="-485.5" font-family="Helvetica,sans-Serif" font-size="20.00">+ getClassificacao()</text>
<text text-anchor="start" x="274.29" y="-463.5" font-family="Helvetica,sans-Serif" font-size="20.00">+ getClasse()</text>
<text text-anchor="start" x="274.29" y="-441.5" font-family="Helvetica,sans-Serif" font-size="20.00">+ printOutDetails()</text>
</a>
</g>
</g>
<!-- Node3&#45;&gt;Node2 -->
<g id="edge2" class="edge">
<title>Node3&#45;&gt;Node2</title>
<path fill="none" stroke="midnightblue" d="M377.79,-421.02C377.79,-404.46 377.79,-388.22 377.79,-372.91"/>
<polygon fill="none" stroke="midnightblue" points="374.29,-421.36 377.79,-431.36 381.29,-421.36 374.29,-421.36"/>
</g>
<!-- Node4 -->
<g id="node4" class="node">
<title>Node4</title>
<g id="a_node4"><a xlink:href="classTratador.html" target="_top" xlink:title="Implementação dos tratadores.">
<polygon fill="white" stroke="black" points="97.79,-866.5 97.79,-1088.5 297.79,-1088.5 297.79,-866.5 97.79,-866.5"/>
<text text-anchor="middle" x="197.79" y="-1068.5" font-family="Helvetica,sans-Serif" font-size="20.00">Tratador</text>
<polyline fill="none" stroke="black" points="97.79,-1058.5 297.79,-1058.5 "/>
<text text-anchor="middle" x="197.79" y="-1038.5" font-family="Helvetica,sans-Serif" font-size="20.00"> </text>
<polyline fill="none" stroke="black" points="97.79,-1028.5 297.79,-1028.5 "/>
<text text-anchor="start" x="105.79" y="-1008.5" font-family="Helvetica,sans-Serif" font-size="20.00">+ Tratador()</text>
<text text-anchor="start" x="105.79" y="-986.5" font-family="Helvetica,sans-Serif" font-size="20.00">+ Tratador()</text>
<text text-anchor="start" x="105.79" y="-964.5" font-family="Helvetica,sans-Serif" font-size="20.00">+ ~Tratador()</text>
<text text-anchor="start" x="105.79" y="-942.5" font-family="Helvetica,sans-Serif" font-size="20.00">+ getUniforme()</text>
<text text-anchor="start" x="105.79" y="-920.5" font-family="Helvetica,sans-Serif" font-size="20.00">+ setUniforme()</text>
<text text-anchor="start" x="105.79" y="-898.5" font-family="Helvetica,sans-Serif" font-size="20.00">+ setUniforme()</text>
<text text-anchor="start" x="105.79" y="-876.5" font-family="Helvetica,sans-Serif" font-size="20.00">+ printOutDados()</text>
</a>
</g>
</g>
<!-- Node4&#45;&gt;Node3 -->
<g id="edge3" class="edge">
<title>Node4&#45;&gt;Node3</title>
<path fill="none" stroke="#404040" d="M250,-866.13C256.59,-852.57 263.29,-838.94 269.79,-826 271.02,-823.55 272.26,-821.08 273.51,-818.6"/>
<polygon fill="none" stroke="#404040" points="273.62,-818.37 272.77,-811.21 279.04,-807.67 279.9,-814.83 273.62,-818.37"/>
<text text-anchor="middle" x="321.29" y="-832" font-family="Helvetica,sans-Serif" font-size="20.00"> #tratador</text>
</g>
<!-- Node5 -->
<g id="node5" class="node">
<title>Node5</title>
<g id="a_node5"><a xlink:href="classPessoa.html" target="_top" xlink:title="Classe base dos funcionarios.">
<polygon fill="white" stroke="black" points="276.79,-1392.5 276.79,-1790.5 476.79,-1790.5 476.79,-1392.5 276.79,-1392.5"/>
<text text-anchor="middle" x="376.79" y="-1770.5" font-family="Helvetica,sans-Serif" font-size="20.00">Pessoa</text>
<polyline fill="none" stroke="black" points="276.79,-1760.5 476.79,-1760.5 "/>
<text text-anchor="middle" x="376.79" y="-1740.5" font-family="Helvetica,sans-Serif" font-size="20.00"> </text>
<polyline fill="none" stroke="black" points="276.79,-1730.5 476.79,-1730.5 "/>
<text text-anchor="start" x="284.79" y="-1710.5" font-family="Helvetica,sans-Serif" font-size="20.00">+ Pessoa()</text>
<text text-anchor="start" x="284.79" y="-1688.5" font-family="Helvetica,sans-Serif" font-size="20.00">+ Pessoa()</text>
<text text-anchor="start" x="284.79" y="-1666.5" font-family="Helvetica,sans-Serif" font-size="20.00">+ ~Pessoa()</text>
<text text-anchor="start" x="284.79" y="-1644.5" font-family="Helvetica,sans-Serif" font-size="20.00">+ getNome()</text>
<text text-anchor="start" x="284.79" y="-1622.5" font-family="Helvetica,sans-Serif" font-size="20.00">+ setNome()</text>
<text text-anchor="start" x="284.79" y="-1600.5" font-family="Helvetica,sans-Serif" font-size="20.00">+ setNome()</text>
<text text-anchor="start" x="284.79" y="-1578.5" font-family="Helvetica,sans-Serif" font-size="20.00">+ getTelefone()</text>
<text text-anchor="start" x="284.79" y="-1556.5" font-family="Helvetica,sans-Serif" font-size="20.00">+ setTelefone()</text>
<text text-anchor="start" x="284.79" y="-1534.5" font-family="Helvetica,sans-Serif" font-size="20.00">+ setTelefone()</text>
<text text-anchor="start" x="284.79" y="-1512.5" font-family="Helvetica,sans-Serif" font-size="20.00">+ getEmail()</text>
<text text-anchor="start" x="284.79" y="-1490.5" font-family="Helvetica,sans-Serif" font-size="20.00">+ setEmail()</text>
<text text-anchor="start" x="284.79" y="-1468.5" font-family="Helvetica,sans-Serif" font-size="20.00">+ setEmail()</text>
<text text-anchor="start" x="284.79" y="-1446.5" font-family="Helvetica,sans-Serif" font-size="20.00">+ printOutDados()</text>
<text text-anchor="start" x="284.79" y="-1424.5" font-family="Helvetica,sans-Serif" font-size="20.00">+ operator==()</text>
<text text-anchor="start" x="284.79" y="-1402.5" font-family="Helvetica,sans-Serif" font-size="20.00">+ operator==()</text>
</a>
</g>
</g>
<!-- Node5&#45;&gt;Node4 -->
<g id="edge4" class="edge">
<title>Node5&#45;&gt;Node4</title>
<path fill="none" stroke="midnightblue" d="M374.09,-1382.34C366.42,-1294.16 348.63,-1192.31 309.79,-1107 306.35,-1099.46 302.33,-1092.03 297.89,-1084.78"/>
<polygon fill="none" stroke="midnightblue" points="370.61,-1382.79 374.93,-1392.47 377.59,-1382.21 370.61,-1382.79"/>
</g>
<!-- Node9 -->
<g id="node9" class="node">
<title>Node9</title>
<g id="a_node9"><a xlink:href="classVeterinario.html" target="_top" xlink:title="Implementação dos veterinarios.">
<polygon fill="white" stroke="black" points="315.79,-866.5 315.79,-1088.5 515.79,-1088.5 515.79,-866.5 315.79,-866.5"/>
<text text-anchor="middle" x="415.79" y="-1068.5" font-family="Helvetica,sans-Serif" font-size="20.00">Veterinario</text>
<polyline fill="none" stroke="black" points="315.79,-1058.5 515.79,-1058.5 "/>
<text text-anchor="middle" x="415.79" y="-1038.5" font-family="Helvetica,sans-Serif" font-size="20.00"> </text>
<polyline fill="none" stroke="black" points="315.79,-1028.5 515.79,-1028.5 "/>
<text text-anchor="start" x="323.79" y="-1008.5" font-family="Helvetica,sans-Serif" font-size="20.00">+ Veterinario()</text>
<text text-anchor="start" x="323.79" y="-986.5" font-family="Helvetica,sans-Serif" font-size="20.00">+ Veterinario()</text>
<text text-anchor="start" x="323.79" y="-964.5" font-family="Helvetica,sans-Serif" font-size="20.00">+ ~Veterinario()</text>
<text text-anchor="start" x="323.79" y="-942.5" font-family="Helvetica,sans-Serif" font-size="20.00">+ getCRMV()</text>
<text text-anchor="start" x="323.79" y="-920.5" font-family="Helvetica,sans-Serif" font-size="20.00">+ setCRMV()</text>
<text text-anchor="start" x="323.79" y="-898.5" font-family="Helvetica,sans-Serif" font-size="20.00">+ setCRMV()</text>
<text text-anchor="start" x="323.79" y="-876.5" font-family="Helvetica,sans-Serif" font-size="20.00">+ printOutDados()</text>
</a>
</g>
</g>
<!-- Node5&#45;&gt;Node9 -->
<g id="edge10" class="edge">
<title>Node5&#45;&gt;Node9</title>
<path fill="none" stroke="midnightblue" d="M390.06,-1382.13C396.34,-1283.66 403.57,-1170.13 408.77,-1088.6"/>
<polygon fill="none" stroke="midnightblue" points="386.56,-1382.02 389.42,-1392.22 393.55,-1382.47 386.56,-1382.02"/>
</g>
<!-- Node6 -->
<g id="node6" class="node">
<title>Node6</title>
<g id="a_node6"><a xlink:title=" ">
<polygon fill="white" stroke="#bfbfbf" points="419.79,-1893.5 419.79,-1983.5 493.79,-1983.5 493.79,-1893.5 419.79,-1893.5"/>
<text text-anchor="middle" x="456.79" y="-1963.5" font-family="Helvetica,sans-Serif" font-size="20.00">string</text>
<polyline fill="none" stroke="#bfbfbf" points="419.79,-1953.5 493.79,-1953.5 "/>
<text text-anchor="middle" x="456.79" y="-1933.5" font-family="Helvetica,sans-Serif" font-size="20.00"> </text>
<polyline fill="none" stroke="#bfbfbf" points="419.79,-1923.5 493.79,-1923.5 "/>
<text text-anchor="middle" x="456.79" y="-1903.5" font-family="Helvetica,sans-Serif" font-size="20.00"> </text>
</a>
</g>
</g>
<!-- Node6&#45;&gt;Node3 -->
<g id="edge8" class="edge">
<title>Node6&#45;&gt;Node3</title>
<path fill="none" stroke="#404040" d="M419.72,-1931.14C353.33,-1917.72 214.31,-1880.11 141.79,-1791 21.61,-1643.34 65.71,-1563.12 43.79,-1374 17.68,-1148.85 -59.22,-1037.67 88.79,-866 140.36,-806.17 194.63,-856.75 256.79,-808 256.89,-807.92 256.99,-807.84 257.09,-807.76"/>
<polygon fill="none" stroke="#404040" points="256.99,-807.84 259.04,-800.92 266.21,-800.15 264.16,-807.07 256.99,-807.84"/>
<text text-anchor="middle" x="119.79" y="-1257.5" font-family="Helvetica,sans-Serif" font-size="20.00"> #especie</text>
<text text-anchor="middle" x="119.79" y="-1235.5" font-family="Helvetica,sans-Serif" font-size="20.00">#ameacadoPor</text>
<text text-anchor="middle" x="119.79" y="-1213.5" font-family="Helvetica,sans-Serif" font-size="20.00">#nome</text>
</g>
<!-- Node6&#45;&gt;Node5 -->
<g id="edge5" class="edge">
<title>Node6&#45;&gt;Node5</title>
<path fill="none" stroke="#404040" d="M419.59,-1902.89C412.55,-1894.45 406.06,-1884.96 401.79,-1875 392.03,-1852.24 385.14,-1827.53 380.37,-1802.5"/>
<polygon fill="none" stroke="#404040" points="380.36,-1802.41 375.37,-1797.2 378.26,-1790.59 383.25,-1795.8 380.36,-1802.41"/>
<text text-anchor="middle" x="450.29" y="-1859" font-family="Helvetica,sans-Serif" font-size="20.00"> #email</text>
<text text-anchor="middle" x="450.29" y="-1837" font-family="Helvetica,sans-Serif" font-size="20.00">#nome</text>
<text text-anchor="middle" x="450.29" y="-1815" font-family="Helvetica,sans-Serif" font-size="20.00">#telefone</text>
</g>
<!-- Node6&#45;&gt;Node9 -->
<g id="edge11" class="edge">
<title>Node6&#45;&gt;Node9</title>
<path fill="none" stroke="#404040" d="M490.9,-1893.37C494.12,-1887.45 496.88,-1881.25 498.79,-1875 507.34,-1846.94 499.24,-1838.33 498.79,-1809 495.9,-1623.6 504.19,-1576.51 485.79,-1392 475.93,-1293.25 456.73,-1182.44 440.93,-1100.41"/>
<polygon fill="none" stroke="#404040" points="440.9,-1100.3 435.84,-1095.17 438.62,-1088.52 443.69,-1093.64 440.9,-1100.3"/>
<text text-anchor="middle" x="535.29" y="-1586.5" font-family="Helvetica,sans-Serif" font-size="20.00"> &#45;CRMV</text>
</g>
<!-- Node11 -->
<g id="node11" class="node">
<title>Node11</title>
<g id="a_node11"><a xlink:href="classNativo.html" target="_top" xlink:title="Umas das definições de categoria para Animal.">
<polygon fill="white" stroke="black" points="554.79,-1107.5 554.79,-1373.5 716.79,-1373.5 716.79,-1107.5 554.79,-1107.5"/>
<text text-anchor="middle" x="635.79" y="-1353.5" font-family="Helvetica,sans-Serif" font-size="20.00">Nativo</text>
<polyline fill="none" stroke="black" points="554.79,-1343.5 716.79,-1343.5 "/>
<text text-anchor="middle" x="635.79" y="-1323.5" font-family="Helvetica,sans-Serif" font-size="20.00"> </text>
<polyline fill="none" stroke="black" points="554.79,-1313.5 716.79,-1313.5 "/>
<text text-anchor="start" x="562.79" y="-1293.5" font-family="Helvetica,sans-Serif" font-size="20.00">+ Nativo()</text>
<text text-anchor="start" x="562.79" y="-1271.5" font-family="Helvetica,sans-Serif" font-size="20.00">+ Nativo()</text>
<text text-anchor="start" x="562.79" y="-1249.5" font-family="Helvetica,sans-Serif" font-size="20.00">+ ~Nativo()</text>
<text text-anchor="start" x="562.79" y="-1227.5" font-family="Helvetica,sans-Serif" font-size="20.00">+ getRegiao()</text>
<text text-anchor="start" x="562.79" y="-1205.5" font-family="Helvetica,sans-Serif" font-size="20.00">+ setRegiao()</text>
<text text-anchor="start" x="562.79" y="-1183.5" font-family="Helvetica,sans-Serif" font-size="20.00">+ setRegiao()</text>
<text text-anchor="start" x="562.79" y="-1161.5" font-family="Helvetica,sans-Serif" font-size="20.00">+ getLicenca()</text>
<text text-anchor="start" x="562.79" y="-1139.5" font-family="Helvetica,sans-Serif" font-size="20.00">+ setLicenca()</text>
<text text-anchor="start" x="562.79" y="-1117.5" font-family="Helvetica,sans-Serif" font-size="20.00">+ setLicenca()</text>
</a>
</g>
</g>
<!-- Node6&#45;&gt;Node11 -->
<g id="edge14" class="edge">
<title>Node6&#45;&gt;Node11</title>
<path fill="none" stroke="#404040" d="M494.03,-1910.07C526.38,-1883.7 570.91,-1840.61 589.79,-1791 639.54,-1660.21 647.47,-1499.62 645.12,-1385.91"/>
<polygon fill="none" stroke="#404040" points="645.12,-1385.67 640.97,-1379.77 644.83,-1373.67 648.97,-1379.57 645.12,-1385.67"/>
<text text-anchor="middle" x="626.29" y="-1848" font-family="Helvetica,sans-Serif" font-size="20.00"> #licenca</text>
<text text-anchor="middle" x="626.29" y="-1826" font-family="Helvetica,sans-Serif" font-size="20.00">#regiao</text>
</g>
<!-- Node7 -->
<g id="node7" class="node">
<title>Node7</title>
<g id="a_node7"><a xlink:title=" ">
<polygon fill="white" stroke="#bfbfbf" points="151.29,-1546.5 151.29,-1636.5 258.29,-1636.5 258.29,-1546.5 151.29,-1546.5"/>
<text text-anchor="middle" x="204.79" y="-1616.5" font-family="Helvetica,sans-Serif" font-size="20.00">Uniforme</text>
<polyline fill="none" stroke="#bfbfbf" points="151.29,-1606.5 258.29,-1606.5 "/>
<text text-anchor="middle" x="204.79" y="-1586.5" font-family="Helvetica,sans-Serif" font-size="20.00"> </text>
<polyline fill="none" stroke="#bfbfbf" points="151.29,-1576.5 258.29,-1576.5 "/>
<text text-anchor="middle" x="204.79" y="-1556.5" font-family="Helvetica,sans-Serif" font-size="20.00"> </text>
</a>
</g>
</g>
<!-- Node7&#45;&gt;Node4 -->
<g id="edge6" class="edge">
<title>Node7&#45;&gt;Node4</title>
<path fill="none" stroke="#404040" d="M204.28,-1546.49C203.23,-1454.37 200.76,-1238.43 199.19,-1100.93"/>
<polygon fill="none" stroke="#404040" points="199.18,-1100.7 195.11,-1094.75 199.05,-1088.7 203.11,-1094.65 199.18,-1100.7"/>
<text text-anchor="middle" x="254.29" y="-1235.5" font-family="Helvetica,sans-Serif" font-size="20.00"> &#45;uniforme</text>
</g>
<!-- Node8 -->
<g id="node8" class="node">
<title>Node8</title>
<g id="a_node8"><a xlink:title=" ">
<polygon fill="white" stroke="#bfbfbf" points="534.29,-932.5 534.29,-1022.5 593.29,-1022.5 593.29,-932.5 534.29,-932.5"/>
<text text-anchor="middle" x="563.79" y="-1002.5" font-family="Helvetica,sans-Serif" font-size="20.00">bool</text>
<polyline fill="none" stroke="#bfbfbf" points="534.29,-992.5 593.29,-992.5 "/>
<text text-anchor="middle" x="563.79" y="-972.5" font-family="Helvetica,sans-Serif" font-size="20.00"> </text>
<polyline fill="none" stroke="#bfbfbf" points="534.29,-962.5 593.29,-962.5 "/>
<text text-anchor="middle" x="563.79" y="-942.5" font-family="Helvetica,sans-Serif" font-size="20.00"> </text>
</a>
</g>
</g>
<!-- Node8&#45;&gt;Node3 -->
<g id="edge7" class="edge">
<title>Node8&#45;&gt;Node3</title>
<path fill="none" stroke="#404040" d="M548.64,-932.26C541.58,-911.99 532.95,-887.71 524.79,-866 518.04,-848.08 517.53,-843.04 508.79,-826 504.51,-817.66 499.99,-809.23 495.31,-800.78"/>
<polygon fill="none" stroke="#404040" points="495.17,-800.53 488.74,-797.26 489.29,-790.07 495.71,-793.34 495.17,-800.53"/>
<text text-anchor="middle" x="573.29" y="-832" font-family="Helvetica,sans-Serif" font-size="20.00"> #perigoso</text>
</g>
<!-- Node9&#45;&gt;Node3 -->
<g id="edge9" class="edge">
<title>Node9&#45;&gt;Node3</title>
<path fill="none" stroke="#404040" d="M381.93,-866.18C380.71,-860.06 379.64,-853.97 378.79,-848 377.47,-838.79 376.38,-829.35 375.5,-819.8"/>
<polygon fill="none" stroke="#404040" points="375.48,-819.61 371,-813.96 374.48,-807.65 378.97,-813.3 375.48,-819.61"/>
<text text-anchor="middle" x="443.79" y="-832" font-family="Helvetica,sans-Serif" font-size="20.00"> #veterinario</text>
</g>
<!-- Node10 -->
<g id="node10" class="node">
<title>Node10</title>
<g id="a_node10"><a xlink:title=" ">
<polygon fill="white" stroke="#bfbfbf" points="191.29,-574.5 191.29,-664.5 248.29,-664.5 248.29,-574.5 191.29,-574.5"/>
<text text-anchor="middle" x="219.79" y="-644.5" font-family="Helvetica,sans-Serif" font-size="20.00">Pele</text>
<polyline fill="none" stroke="#bfbfbf" points="191.29,-634.5 248.29,-634.5 "/>
<text text-anchor="middle" x="219.79" y="-614.5" font-family="Helvetica,sans-Serif" font-size="20.00"> </text>
<polyline fill="none" stroke="#bfbfbf" points="191.29,-604.5 248.29,-604.5 "/>
<text text-anchor="middle" x="219.79" y="-584.5" font-family="Helvetica,sans-Serif" font-size="20.00"> </text>
</a>
</g>
</g>
<!-- Node10&#45;&gt;Node2 -->
<g id="edge12" class="edge">
<title>Node10&#45;&gt;Node2</title>
<path fill="none" stroke="#404040" d="M222.77,-574.33C226.73,-535.19 235.86,-477.25 256.79,-431 269.46,-402.99 287.99,-375.38 306.75,-351.3"/>
<polygon fill="none" stroke="#404040" points="306.75,-351.3 307.35,-344.11 314.22,-341.9 313.61,-349.09 306.75,-351.3"/>
<text text-anchor="middle" x="310.29" y="-397" font-family="Helvetica,sans-Serif" font-size="20.00"> #pele</text>
</g>
<!-- Node11&#45;&gt;Node1 -->
<g id="edge13" class="edge">
<title>Node11&#45;&gt;Node1</title>
<path fill="none" stroke="midnightblue" d="M645.82,-1096.9C650.38,-1020.21 654.79,-923.98 654.79,-838 654.79,-838 654.79,-838 654.79,-271.5 654.79,-219.6 623.47,-171.24 590.57,-134.75"/>
<polygon fill="none" stroke="midnightblue" points="642.31,-1096.92 645.2,-1107.11 649.3,-1097.34 642.31,-1096.92"/>
</g>
</g>
</svg>
