<?xml version="1.0" encoding="UTF-8" standalone="no"?>
<!DOCTYPE svg PUBLIC "-//W3C//DTD SVG 1.1//EN"
 "http://www.w3.org/Graphics/SVG/1.1/DTD/svg11.dtd">
<!-- Generated by graphviz version 2.43.0 (0)
 -->
<!-- Title: Reptil Pages: 1 -->
<!--zoomable 1355 -->
<svg id="main" version="1.1" xmlns="http://www.w3.org/2000/svg" xmlns:xlink="http://www.w3.org/1999/xlink" xml:space="preserve" onload="init(evt)">
<style type="text/css"><![CDATA[
.edge:hover path { stroke: red; }
.edge:hover polygon { stroke: red; fill: red; }
]]></style>
<script type="text/javascript"><![CDATA[
var edges = document.getElementsByTagName('g');
if (edges && edges.length) {
  for (var i=0;i<edges.length;i++) {
    if (edges[i].id.substr(0,4)=='edge') {
      edges[i].setAttribute('class','edge');
    }
  }
}
]]></script>
        <defs>
                <circle id="rim" cx="0" cy="0" r="7"/>
                <circle id="rim2" cx="0" cy="0" r="3.5"/>
                <g id="zoomPlus">
                        <use xlink:href="#rim" fill="#404040">
                                <set attributeName="fill" to="#808080" begin="zoomplus.mouseover" end="zoomplus.mouseout"/>
                        </use>
                        <path d="M-4,0h8M0,-4v8" fill="none" stroke="white" stroke-width="1.5" pointer-events="none"/>
                </g>
                <g id="zoomMin">
                        <use xlink:href="#rim" fill="#404040">
                                <set attributeName="fill" to="#808080" begin="zoomminus.mouseover" end="zoomminus.mouseout"/>
                        </use>
                        <path d="M-4,0h8" fill="none" stroke="white" stroke-width="1.5" pointer-events="none"/>
                </g>
                <g id="dirArrow">
                        <path fill="none" stroke="white" stroke-width="1.5" d="M0,-3.0v7 M-2.5,-0.5L0,-3.0L2.5,-0.5"/>
                </g>
               <g id="resetDef">
                       <use xlink:href="#rim2" fill="#404040">
                               <set attributeName="fill" to="#808080" begin="reset.mouseover" end="reset.mouseout"/>
                       </use>
               </g>
        </defs>

<script type="text/javascript">
var viewWidth = 591;
var viewHeight = 1355;
var sectionId = 'dynsection-1';
</script>
<script xlink:href="svgpan.js"/>
<svg id="graph" class="graph">
<g id="viewport">
<title>Reptil</title>
<polygon fill="white" stroke="transparent" points="-4,4 -4,-1351 587.04,-1351 587.04,4 -4,4"/>
<!-- Node1 -->
<g id="node1" class="node">
<title>Node1</title>
<g id="a_node1"><a xlink:title="Classificação base para Repteis.">
<polygon fill="#bfbfbf" stroke="black" points="299.54,-0.5 299.54,-156.5 426.54,-156.5 426.54,-0.5 299.54,-0.5"/>
<text text-anchor="middle" x="363.04" y="-136.5" font-family="Helvetica,sans-Serif" font-size="20.00">Reptil</text>
<polyline fill="none" stroke="black" points="299.54,-126.5 426.54,-126.5 "/>
<text text-anchor="middle" x="363.04" y="-106.5" font-family="Helvetica,sans-Serif" font-size="20.00"> </text>
<polyline fill="none" stroke="black" points="299.54,-96.5 426.54,-96.5 "/>
<text text-anchor="start" x="307.54" y="-76.5" font-family="Helvetica,sans-Serif" font-size="20.00">+ Reptil()</text>
<text text-anchor="start" x="307.54" y="-54.5" font-family="Helvetica,sans-Serif" font-size="20.00">+ Reptil()</text>
<text text-anchor="start" x="307.54" y="-32.5" font-family="Helvetica,sans-Serif" font-size="20.00">+ ~Reptil()</text>
<text text-anchor="start" x="307.54" y="-10.5" font-family="Helvetica,sans-Serif" font-size="20.00">+ getPele()</text>
</a>
</g>
</g>
<!-- Node2 -->
<g id="node2" class="node">
<title>Node2</title>
<g id="a_node2"><a xlink:href="classAnimal.html" target="_top" xlink:title="Implementação base para o cadastro de animais.">
<polygon fill="white" stroke="black" points="172.54,-215.5 172.54,-569.5 395.54,-569.5 395.54,-215.5 172.54,-215.5"/>
<text text-anchor="middle" x="284.04" y="-549.5" font-family="Helvetica,sans-Serif" font-size="20.00">Animal</text>
<polyline fill="none" stroke="black" points="172.54,-539.5 395.54,-539.5 "/>
<text text-anchor="middle" x="284.04" y="-519.5" font-family="Helvetica,sans-Serif" font-size="20.00"> </text>
<polyline fill="none" stroke="black" points="172.54,-509.5 395.54,-509.5 "/>
<text text-anchor="start" x="180.54" y="-489.5" font-family="Helvetica,sans-Serif" font-size="20.00">+ Animal()</text>
<text text-anchor="start" x="180.54" y="-467.5" font-family="Helvetica,sans-Serif" font-size="20.00">+ Animal()</text>
<text text-anchor="start" x="180.54" y="-445.5" font-family="Helvetica,sans-Serif" font-size="20.00">+ ~Animal()</text>
<text text-anchor="start" x="180.54" y="-423.5" font-family="Helvetica,sans-Serif" font-size="20.00">+ getNome()</text>
<text text-anchor="start" x="180.54" y="-401.5" font-family="Helvetica,sans-Serif" font-size="20.00">+ getEspecie()</text>
<text text-anchor="start" x="180.54" y="-379.5" font-family="Helvetica,sans-Serif" font-size="20.00">+ getAmeacadoPor()</text>
<text text-anchor="start" x="180.54" y="-357.5" font-family="Helvetica,sans-Serif" font-size="20.00">+ getVeterinario()</text>
<text text-anchor="start" x="180.54" y="-335.5" font-family="Helvetica,sans-Serif" font-size="20.00">+ getTratador()</text>
<text text-anchor="start" x="180.54" y="-313.5" font-family="Helvetica,sans-Serif" font-size="20.00">+ getPerigoso()</text>
<text text-anchor="start" x="180.54" y="-291.5" font-family="Helvetica,sans-Serif" font-size="20.00">+ getClassificacao()</text>
<text text-anchor="start" x="180.54" y="-269.5" font-family="Helvetica,sans-Serif" font-size="20.00">+ getClasse()</text>
<text text-anchor="start" x="180.54" y="-247.5" font-family="Helvetica,sans-Serif" font-size="20.00">+ printOutDados()</text>
<text text-anchor="start" x="180.54" y="-225.5" font-family="Helvetica,sans-Serif" font-size="20.00">+ operator==()</text>
</a>
</g>
</g>
<!-- Node2&#45;&gt;Node1 -->
<g id="edge1" class="edge">
<title>Node2&#45;&gt;Node1</title>
<path fill="none" stroke="midnightblue" d="M331.17,-205.35C335.49,-188.29 339.68,-171.74 343.53,-156.55"/>
<polygon fill="none" stroke="midnightblue" points="327.68,-204.89 328.62,-215.44 334.47,-206.61 327.68,-204.89"/>
</g>
<!-- Node3 -->
<g id="node3" class="node">
<title>Node3</title>
<g id="a_node3"><a xlink:href="classTratador.html" target="_top" xlink:title="Implementação dos tratadores.">
<polygon fill="white" stroke="black" points="277.04,-628.5 277.04,-806.5 477.04,-806.5 477.04,-628.5 277.04,-628.5"/>
<text text-anchor="middle" x="377.04" y="-786.5" font-family="Helvetica,sans-Serif" font-size="20.00">Tratador</text>
<polyline fill="none" stroke="black" points="277.04,-776.5 477.04,-776.5 "/>
<text text-anchor="middle" x="377.04" y="-756.5" font-family="Helvetica,sans-Serif" font-size="20.00"> </text>
<polyline fill="none" stroke="black" points="277.04,-746.5 477.04,-746.5 "/>
<text text-anchor="start" x="285.04" y="-726.5" font-family="Helvetica,sans-Serif" font-size="20.00">+ Tratador()</text>
<text text-anchor="start" x="285.04" y="-704.5" font-family="Helvetica,sans-Serif" font-size="20.00">+ Tratador()</text>
<text text-anchor="start" x="285.04" y="-682.5" font-family="Helvetica,sans-Serif" font-size="20.00">+ ~Tratador()</text>
<text text-anchor="start" x="285.04" y="-660.5" font-family="Helvetica,sans-Serif" font-size="20.00">+ getUniforme()</text>
<text text-anchor="start" x="285.04" y="-638.5" font-family="Helvetica,sans-Serif" font-size="20.00">+ printOutDados()</text>
</a>
</g>
</g>
<!-- Node3&#45;&gt;Node2 -->
<g id="edge2" class="edge">
<title>Node3&#45;&gt;Node2</title>
<path fill="none" stroke="#404040" d="M351.63,-628.24C347.36,-613.43 342.8,-597.59 338.13,-581.38"/>
<polygon fill="none" stroke="#404040" points="338.04,-581.05 332.54,-576.39 334.72,-569.52 340.22,-574.18 338.04,-581.05"/>
<text text-anchor="middle" x="396.54" y="-594" font-family="Helvetica,sans-Serif" font-size="20.00"> #tratador</text>
</g>
<!-- Node4 -->
<g id="node4" class="node">
<title>Node4</title>
<g id="a_node4"><a xlink:href="classPessoa.html" target="_top" xlink:title="Classe base dos funcionarios.">
<polygon fill="white" stroke="black" points="250.04,-909.5 250.04,-1153.5 450.04,-1153.5 450.04,-909.5 250.04,-909.5"/>
<text text-anchor="middle" x="350.04" y="-1133.5" font-family="Helvetica,sans-Serif" font-size="20.00">Pessoa</text>
<polyline fill="none" stroke="black" points="250.04,-1123.5 450.04,-1123.5 "/>
<text text-anchor="middle" x="350.04" y="-1103.5" font-family="Helvetica,sans-Serif" font-size="20.00"> </text>
<polyline fill="none" stroke="black" points="250.04,-1093.5 450.04,-1093.5 "/>
<text text-anchor="start" x="258.04" y="-1073.5" font-family="Helvetica,sans-Serif" font-size="20.00">+ Pessoa()</text>
<text text-anchor="start" x="258.04" y="-1051.5" font-family="Helvetica,sans-Serif" font-size="20.00">+ Pessoa()</text>
<text text-anchor="start" x="258.04" y="-1029.5" font-family="Helvetica,sans-Serif" font-size="20.00">+ ~Pessoa()</text>
<text text-anchor="start" x="258.04" y="-1007.5" font-family="Helvetica,sans-Serif" font-size="20.00">+ getNome()</text>
<text text-anchor="start" x="258.04" y="-985.5" font-family="Helvetica,sans-Serif" font-size="20.00">+ getTelefone()</text>
<text text-anchor="start" x="258.04" y="-963.5" font-family="Helvetica,sans-Serif" font-size="20.00">+ getEmail()</text>
<text text-anchor="start" x="258.04" y="-941.5" font-family="Helvetica,sans-Serif" font-size="20.00">+ printOutDados()</text>
<text text-anchor="start" x="258.04" y="-919.5" font-family="Helvetica,sans-Serif" font-size="20.00">+ operator==()</text>
</a>
</g>
</g>
<!-- Node4&#45;&gt;Node3 -->
<g id="edge3" class="edge">
<title>Node4&#45;&gt;Node3</title>
<path fill="none" stroke="midnightblue" d="M361.39,-899.33C364.1,-868.06 366.92,-835.42 369.41,-806.62"/>
<polygon fill="none" stroke="midnightblue" points="357.89,-899.16 360.52,-909.43 364.87,-899.77 357.89,-899.16"/>
</g>
<!-- Node8 -->
<g id="node8" class="node">
<title>Node8</title>
<g id="a_node8"><a xlink:href="classVeterinario.html" target="_top" xlink:title="Implementação dos veterinarios.">
<polygon fill="white" stroke="black" points="59.04,-628.5 59.04,-806.5 259.04,-806.5 259.04,-628.5 59.04,-628.5"/>
<text text-anchor="middle" x="159.04" y="-786.5" font-family="Helvetica,sans-Serif" font-size="20.00">Veterinario</text>
<polyline fill="none" stroke="black" points="59.04,-776.5 259.04,-776.5 "/>
<text text-anchor="middle" x="159.04" y="-756.5" font-family="Helvetica,sans-Serif" font-size="20.00"> </text>
<polyline fill="none" stroke="black" points="59.04,-746.5 259.04,-746.5 "/>
<text text-anchor="start" x="67.04" y="-726.5" font-family="Helvetica,sans-Serif" font-size="20.00">+ Veterinario()</text>
<text text-anchor="start" x="67.04" y="-704.5" font-family="Helvetica,sans-Serif" font-size="20.00">+ Veterinario()</text>
<text text-anchor="start" x="67.04" y="-682.5" font-family="Helvetica,sans-Serif" font-size="20.00">+ ~Veterinario()</text>
<text text-anchor="start" x="67.04" y="-660.5" font-family="Helvetica,sans-Serif" font-size="20.00">+ getCRMV()</text>
<text text-anchor="start" x="67.04" y="-638.5" font-family="Helvetica,sans-Serif" font-size="20.00">+ printOutDados()</text>
</a>
</g>
</g>
<!-- Node4&#45;&gt;Node8 -->
<g id="edge9" class="edge">
<title>Node4&#45;&gt;Node8</title>
<path fill="none" stroke="midnightblue" d="M270.48,-900.55C251.12,-868.91 230.85,-835.8 212.99,-806.62"/>
<polygon fill="none" stroke="midnightblue" points="267.71,-902.72 275.92,-909.43 273.68,-899.07 267.71,-902.72"/>
</g>
<!-- Node5 -->
<g id="node5" class="node">
<title>Node5</title>
<g id="a_node5"><a xlink:title=" ">
<polygon fill="white" stroke="#bfbfbf" points="122.04,-1256.5 122.04,-1346.5 196.04,-1346.5 196.04,-1256.5 122.04,-1256.5"/>
<text text-anchor="middle" x="159.04" y="-1326.5" font-family="Helvetica,sans-Serif" font-size="20.00">string</text>
<polyline fill="none" stroke="#bfbfbf" points="122.04,-1316.5 196.04,-1316.5 "/>
<text text-anchor="middle" x="159.04" y="-1296.5" font-family="Helvetica,sans-Serif" font-size="20.00"> </text>
<polyline fill="none" stroke="#bfbfbf" points="122.04,-1286.5 196.04,-1286.5 "/>
<text text-anchor="middle" x="159.04" y="-1266.5" font-family="Helvetica,sans-Serif" font-size="20.00"> </text>
</a>
</g>
</g>
<!-- Node5&#45;&gt;Node2 -->
<g id="edge7" class="edge">
<title>Node5&#45;&gt;Node2</title>
<path fill="none" stroke="#404040" d="M130.42,-1256.3C80.29,-1173.86 -16.37,-990.02 3.04,-825 13.56,-735.6 6.16,-706.59 50.04,-628 78.77,-576.55 121.99,-528.72 163.49,-489.85"/>
<polygon fill="none" stroke="#404040" points="163.51,-489.84 165.2,-482.83 172.32,-481.7 170.63,-488.71 163.51,-489.84"/>
<text text-anchor="middle" x="79.04" y="-875" font-family="Helvetica,sans-Serif" font-size="20.00"> #especie</text>
<text text-anchor="middle" x="79.04" y="-853" font-family="Helvetica,sans-Serif" font-size="20.00">#ameacadoPor</text>
<text text-anchor="middle" x="79.04" y="-831" font-family="Helvetica,sans-Serif" font-size="20.00">#nome</text>
</g>
<!-- Node5&#45;&gt;Node4 -->
<g id="edge4" class="edge">
<title>Node5&#45;&gt;Node4</title>
<path fill="none" stroke="#404040" d="M190.58,-1256.25C208.81,-1230.67 232.78,-1197.03 256.59,-1163.62"/>
<polygon fill="none" stroke="#404040" points="256.67,-1163.51 256.89,-1156.3 263.63,-1153.74 263.41,-1160.95 256.67,-1163.51"/>
<text text-anchor="middle" x="297.54" y="-1222" font-family="Helvetica,sans-Serif" font-size="20.00"> #email</text>
<text text-anchor="middle" x="297.54" y="-1200" font-family="Helvetica,sans-Serif" font-size="20.00">#nome</text>
<text text-anchor="middle" x="297.54" y="-1178" font-family="Helvetica,sans-Serif" font-size="20.00">#telefone</text>
</g>
<!-- Node5&#45;&gt;Node8 -->
<g id="edge10" class="edge">
<title>Node5&#45;&gt;Node8</title>
<path fill="none" stroke="#404040" d="M159.04,-1256.28C159.04,-1163.57 159.04,-946.87 159.04,-818.64"/>
<polygon fill="none" stroke="#404040" points="159.04,-818.51 155.04,-812.51 159.04,-806.51 163.04,-812.51 159.04,-818.51"/>
<text text-anchor="middle" x="195.54" y="-1026.5" font-family="Helvetica,sans-Serif" font-size="20.00"> &#45;CRMV</text>
</g>
<!-- Node6 -->
<g id="node6" class="node">
<title>Node6</title>
<g id="a_node6"><a xlink:title=" ">
<polygon fill="white" stroke="#bfbfbf" points="468.54,-986.5 468.54,-1076.5 575.54,-1076.5 575.54,-986.5 468.54,-986.5"/>
<text text-anchor="middle" x="522.04" y="-1056.5" font-family="Helvetica,sans-Serif" font-size="20.00">Uniforme</text>
<polyline fill="none" stroke="#bfbfbf" points="468.54,-1046.5 575.54,-1046.5 "/>
<text text-anchor="middle" x="522.04" y="-1026.5" font-family="Helvetica,sans-Serif" font-size="20.00"> </text>
<polyline fill="none" stroke="#bfbfbf" points="468.54,-1016.5 575.54,-1016.5 "/>
<text text-anchor="middle" x="522.04" y="-996.5" font-family="Helvetica,sans-Serif" font-size="20.00"> </text>
</a>
</g>
</g>
<!-- Node6&#45;&gt;Node3 -->
<g id="edge5" class="edge">
<title>Node6&#45;&gt;Node3</title>
<path fill="none" stroke="#404040" d="M501.57,-986.46C481.3,-942.84 449.56,-874.53 423.19,-817.81"/>
<polygon fill="none" stroke="#404040" points="423.05,-817.51 416.9,-813.75 418,-806.62 424.15,-810.38 423.05,-817.51"/>
<text text-anchor="middle" x="504.54" y="-853" font-family="Helvetica,sans-Serif" font-size="20.00"> &#45;uniforme</text>
</g>
<!-- Node7 -->
<g id="node7" class="node">
<title>Node7</title>
<g id="a_node7"><a xlink:title=" ">
<polygon fill="white" stroke="#bfbfbf" points="495.54,-672.5 495.54,-762.5 554.54,-762.5 554.54,-672.5 495.54,-672.5"/>
<text text-anchor="middle" x="525.04" y="-742.5" font-family="Helvetica,sans-Serif" font-size="20.00">bool</text>
<polyline fill="none" stroke="#bfbfbf" points="495.54,-732.5 554.54,-732.5 "/>
<text text-anchor="middle" x="525.04" y="-712.5" font-family="Helvetica,sans-Serif" font-size="20.00"> </text>
<polyline fill="none" stroke="#bfbfbf" points="495.54,-702.5 554.54,-702.5 "/>
<text text-anchor="middle" x="525.04" y="-682.5" font-family="Helvetica,sans-Serif" font-size="20.00"> </text>
</a>
</g>
</g>
<!-- Node7&#45;&gt;Node2 -->
<g id="edge6" class="edge">
<title>Node7&#45;&gt;Node2</title>
<path fill="none" stroke="#404040" d="M508.6,-672.46C502.38,-657.85 494.69,-641.8 486.04,-628 473.65,-608.23 471.13,-601.41 452.04,-588 435.95,-576.69 425.22,-581.99 405.8,-570.24"/>
<polygon fill="none" stroke="#404040" points="405.67,-570.15 398.46,-569.96 395.86,-563.24 403.07,-563.42 405.67,-570.15"/>
<text text-anchor="middle" x="528.54" y="-594" font-family="Helvetica,sans-Serif" font-size="20.00"> #perigoso</text>
</g>
<!-- Node8&#45;&gt;Node2 -->
<g id="edge8" class="edge">
<title>Node8&#45;&gt;Node2</title>
<path fill="none" stroke="#404040" d="M192.55,-628.33C197.72,-614.82 203.01,-601.03 208.04,-588 208.94,-585.65 209.86,-583.29 210.77,-580.92"/>
<polygon fill="none" stroke="#404040" points="210.78,-580.92 209.21,-573.88 215.11,-569.73 216.67,-576.76 210.78,-580.92"/>
<text text-anchor="middle" x="273.04" y="-594" font-family="Helvetica,sans-Serif" font-size="20.00"> #veterinario</text>
</g>
<!-- Node9 -->
<g id="node9" class="node">
<title>Node9</title>
<g id="a_node9"><a xlink:title=" ">
<polygon fill="white" stroke="#bfbfbf" points="413.54,-347.5 413.54,-437.5 470.54,-437.5 470.54,-347.5 413.54,-347.5"/>
<text text-anchor="middle" x="442.04" y="-417.5" font-family="Helvetica,sans-Serif" font-size="20.00">Pele</text>
<polyline fill="none" stroke="#bfbfbf" points="413.54,-407.5 470.54,-407.5 "/>
<text text-anchor="middle" x="442.04" y="-387.5" font-family="Helvetica,sans-Serif" font-size="20.00"> </text>
<polyline fill="none" stroke="#bfbfbf" points="413.54,-377.5 470.54,-377.5 "/>
<text text-anchor="middle" x="442.04" y="-357.5" font-family="Helvetica,sans-Serif" font-size="20.00"> </text>
</a>
</g>
</g>
<!-- Node9&#45;&gt;Node1 -->
<g id="edge11" class="edge">
<title>Node9&#45;&gt;Node1</title>
<path fill="none" stroke="#404040" d="M433.58,-347.38C426.46,-311.54 415.61,-259.76 404.04,-215 400.12,-199.83 395.61,-183.81 391.04,-168.31"/>
<polygon fill="none" stroke="#404040" points="390.98,-168.08 385.43,-163.47 387.55,-156.58 393.1,-161.19 390.98,-168.08"/>
<text text-anchor="middle" x="432.54" y="-181" font-family="Helvetica,sans-Serif" font-size="20.00"> #pele</text>
</g>
</g>
</svg>
        <g id="navigator" transform="translate(0 0)" fill="#404254">
                <rect fill="#f2f5e9" fill-opacity="0.5" stroke="#606060" stroke-width=".5" x="0" y="0" width="60" height="60"/>
                <use id="zoomplus" xlink:href="#zoomPlus" x="17" y="9" onmousedown="handleZoom(evt,'in')"/>
                <use id="zoomminus" xlink:href="#zoomMin" x="42" y="9" onmousedown="handleZoom(evt,'out')"/>
                <use id="reset" xlink:href="#resetDef" x="30" y="36" onmousedown="handleReset()"/>
                <g id="arrowUp" xlink:href="#dirArrow" transform="translate(30 24)" onmousedown="handlePan(0,-1)">
                  <use xlink:href="#rim" fill="#404040">
                        <set attributeName="fill" to="#808080" begin="arrowUp.mouseover" end="arrowUp.mouseout"/>
                  </use>
                  <path fill="none" stroke="white" stroke-width="1.5" d="M0,-3.0v7 M-2.5,-0.5L0,-3.0L2.5,-0.5"/>
                </g>
                <g id="arrowRight" xlink:href="#dirArrow" transform="rotate(90) translate(36 -43)" onmousedown="handlePan(1,0)">
                  <use xlink:href="#rim" fill="#404040">
                        <set attributeName="fill" to="#808080" begin="arrowRight.mouseover" end="arrowRight.mouseout"/>
                  </use>
                  <path fill="none" stroke="white" stroke-width="1.5" d="M0,-3.0v7 M-2.5,-0.5L0,-3.0L2.5,-0.5"/>
                </g>
                <g id="arrowDown" xlink:href="#dirArrow" transform="rotate(180) translate(-30 -48)" onmousedown="handlePan(0,1)">
                  <use xlink:href="#rim" fill="#404040">
                        <set attributeName="fill" to="#808080" begin="arrowDown.mouseover" end="arrowDown.mouseout"/>
                  </use>
                  <path fill="none" stroke="white" stroke-width="1.5" d="M0,-3.0v7 M-2.5,-0.5L0,-3.0L2.5,-0.5"/>
                </g>
                <g id="arrowLeft" xlink:href="#dirArrow" transform="rotate(270) translate(-36 17)" onmousedown="handlePan(-1,0)">
                  <use xlink:href="#rim" fill="#404040">
                        <set attributeName="fill" to="#808080" begin="arrowLeft.mouseover" end="arrowLeft.mouseout"/>
                  </use>
                  <path fill="none" stroke="white" stroke-width="1.5" d="M0,-3.0v7 M-2.5,-0.5L0,-3.0L2.5,-0.5"/>
                </g>
        </g>
        <svg viewBox="0 0 15 15" width="100%" height="30px" preserveAspectRatio="xMaxYMin meet">
         <g id="arrow_out" transform="scale(0.3 0.3)">
          <a xlink:href="classReptil__coll__graph_org.svg" target="_base">
           <rect id="button" ry="5" rx="5" y="6" x="6" height="38" width="38"
                fill="#f2f5e9" fill-opacity="0.5" stroke="#606060" stroke-width="1.0"/>
           <path id="arrow"
             d="M 11.500037,31.436501 C 11.940474,20.09759 22.043105,11.32322 32.158766,21.979434 L 37.068811,17.246167 C 37.068811,17.246167 37.088388,32 37.088388,32 L 22.160133,31.978069 C 22.160133,31.978069 26.997745,27.140456 26.997745,27.140456 C 18.528582,18.264221 13.291696,25.230495 11.500037,31.436501 z"
             style="fill:#404040;"/>
          </a>
         </g>
        </svg>
</svg>
