<?xml version="1.0" encoding="UTF-8" standalone="no"?>
<!DOCTYPE svg PUBLIC "-//W3C//DTD SVG 1.1//EN"
 "http://www.w3.org/Graphics/SVG/1.1/DTD/svg11.dtd">
<!-- Generated by graphviz version 2.43.0 (0)
 -->
<!-- Title: Reptil Pages: 1 -->
<svg width="767pt" height="837pt"
 viewBox="0.00 0.00 767.00 837.00" xmlns="http://www.w3.org/2000/svg" xmlns:xlink="http://www.w3.org/1999/xlink">
<g id="graph0" class="graph" transform="scale(1 1) rotate(0) translate(4 833)">
<title>Reptil</title>
<polygon fill="white" stroke="transparent" points="-4,4 -4,-833 763,-833 763,4 -4,4"/>
<!-- Node1 -->
<g id="node1" class="node">
<title>Node1</title>
<g id="a_node1"><a xlink:title="Classificação base para Repteis.">
<polygon fill="#bfbfbf" stroke="black" points="404,-0.5 404,-200.5 531,-200.5 531,-0.5 404,-0.5"/>
<text text-anchor="middle" x="467.5" y="-180.5" font-family="Helvetica,sans-Serif" font-size="20.00">Reptil</text>
<polyline fill="none" stroke="black" points="404,-170.5 531,-170.5 "/>
<text text-anchor="middle" x="467.5" y="-150.5" font-family="Helvetica,sans-Serif" font-size="20.00"> </text>
<polyline fill="none" stroke="black" points="404,-140.5 531,-140.5 "/>
<text text-anchor="start" x="412" y="-120.5" font-family="Helvetica,sans-Serif" font-size="20.00">+ Reptil()</text>
<text text-anchor="start" x="412" y="-98.5" font-family="Helvetica,sans-Serif" font-size="20.00">+ Reptil()</text>
<text text-anchor="start" x="412" y="-76.5" font-family="Helvetica,sans-Serif" font-size="20.00">+ ~Reptil()</text>
<text text-anchor="start" x="412" y="-54.5" font-family="Helvetica,sans-Serif" font-size="20.00">+ getPele()</text>
<text text-anchor="start" x="412" y="-32.5" font-family="Helvetica,sans-Serif" font-size="20.00">+ setPele()</text>
<text text-anchor="start" x="412" y="-10.5" font-family="Helvetica,sans-Serif" font-size="20.00">+ setPele()</text>
</a>
</g>
</g>
<!-- Node2 -->
<g id="node2" class="node">
<title>Node2</title>
<g id="a_node2"><a xlink:href="classAnimal.html" target="_top" xlink:title="Implementação base para o cadastro de animais.">
<polygon fill="white" stroke="black" points="277,-259.5 277,-635.5 500,-635.5 500,-259.5 277,-259.5"/>
<text text-anchor="middle" x="388.5" y="-615.5" font-family="Helvetica,sans-Serif" font-size="20.00">Animal</text>
<polyline fill="none" stroke="black" points="277,-605.5 500,-605.5 "/>
<text text-anchor="middle" x="388.5" y="-585.5" font-family="Helvetica,sans-Serif" font-size="20.00"> </text>
<polyline fill="none" stroke="black" points="277,-575.5 500,-575.5 "/>
<text text-anchor="start" x="285" y="-555.5" font-family="Helvetica,sans-Serif" font-size="20.00">+ Animal()</text>
<text text-anchor="start" x="285" y="-533.5" font-family="Helvetica,sans-Serif" font-size="20.00">+ Animal()</text>
<text text-anchor="start" x="285" y="-511.5" font-family="Helvetica,sans-Serif" font-size="20.00">+ ~Animal()</text>
<text text-anchor="start" x="285" y="-489.5" font-family="Helvetica,sans-Serif" font-size="20.00">+ getNome()</text>
<text text-anchor="start" x="285" y="-467.5" font-family="Helvetica,sans-Serif" font-size="20.00">+ getEspecie()</text>
<text text-anchor="start" x="285" y="-445.5" font-family="Helvetica,sans-Serif" font-size="20.00">+ getAmeacadoPor()</text>
<text text-anchor="start" x="285" y="-423.5" font-family="Helvetica,sans-Serif" font-size="20.00">+ getVeterinario()</text>
<text text-anchor="start" x="285" y="-401.5" font-family="Helvetica,sans-Serif" font-size="20.00">+ getTratador()</text>
<text text-anchor="start" x="285" y="-379.5" font-family="Helvetica,sans-Serif" font-size="20.00">+ getPerigoso()</text>
<text text-anchor="start" x="285" y="-357.5" font-family="Helvetica,sans-Serif" font-size="20.00">+ setNome()</text>
<text text-anchor="start" x="285" y="-335.5" font-family="Helvetica,sans-Serif" font-size="20.00">e 13 mais...</text>
<text text-anchor="start" x="285" y="-313.5" font-family="Helvetica,sans-Serif" font-size="20.00">+ getClassificacao()</text>
<text text-anchor="start" x="285" y="-291.5" font-family="Helvetica,sans-Serif" font-size="20.00">+ getClasse()</text>
<text text-anchor="start" x="285" y="-269.5" font-family="Helvetica,sans-Serif" font-size="20.00">+ printOutDetails()</text>
</a>
</g>
</g>
<!-- Node2&#45;&gt;Node1 -->
<g id="edge1" class="edge">
<title>Node2&#45;&gt;Node1</title>
<path fill="none" stroke="midnightblue" d="M433.61,-249.48C437.44,-232.77 441.2,-216.36 444.74,-200.91"/>
<polygon fill="none" stroke="midnightblue" points="430.17,-248.83 431.35,-259.36 437,-250.39 430.17,-248.83"/>
</g>
<!-- Node3 -->
<g id="node3" class="node">
<title>Node3</title>
<g id="a_node3"><a xlink:title=" ">
<polygon fill="white" stroke="#bfbfbf" points="0,-738.5 0,-828.5 275,-828.5 275,-738.5 0,-738.5"/>
<text text-anchor="middle" x="137.5" y="-808.5" font-family="Helvetica,sans-Serif" font-size="20.00">shared_ptr&lt; Veterinario &gt;</text>
<polyline fill="none" stroke="#bfbfbf" points="0,-798.5 275,-798.5 "/>
<text text-anchor="middle" x="137.5" y="-778.5" font-family="Helvetica,sans-Serif" font-size="20.00"> </text>
<polyline fill="none" stroke="#bfbfbf" points="0,-768.5 275,-768.5 "/>
<text text-anchor="middle" x="137.5" y="-748.5" font-family="Helvetica,sans-Serif" font-size="20.00"> </text>
</a>
</g>
</g>
<!-- Node3&#45;&gt;Node2 -->
<g id="edge2" class="edge">
<title>Node3&#45;&gt;Node2</title>
<path fill="none" stroke="#404040" d="M148.92,-738.42C156.81,-712.57 168.9,-679.99 185.5,-654 208.35,-618.23 238.28,-583.64 268.11,-553.37"/>
<polygon fill="none" stroke="#404040" points="268.46,-553.03 269.87,-545.96 276.94,-544.54 275.53,-551.61 268.46,-553.03"/>
<text text-anchor="middle" x="250.5" y="-682" font-family="Helvetica,sans-Serif" font-size="20.00"> #veterinario</text>
</g>
<!-- Node4 -->
<g id="node4" class="node">
<title>Node4</title>
<g id="a_node4"><a xlink:title=" ">
<polygon fill="white" stroke="#bfbfbf" points="293,-738.5 293,-828.5 352,-828.5 352,-738.5 293,-738.5"/>
<text text-anchor="middle" x="322.5" y="-808.5" font-family="Helvetica,sans-Serif" font-size="20.00">bool</text>
<polyline fill="none" stroke="#bfbfbf" points="293,-798.5 352,-798.5 "/>
<text text-anchor="middle" x="322.5" y="-778.5" font-family="Helvetica,sans-Serif" font-size="20.00"> </text>
<polyline fill="none" stroke="#bfbfbf" points="293,-768.5 352,-768.5 "/>
<text text-anchor="middle" x="322.5" y="-748.5" font-family="Helvetica,sans-Serif" font-size="20.00"> </text>
</a>
</g>
</g>
<!-- Node4&#45;&gt;Node2 -->
<g id="edge3" class="edge">
<title>Node4&#45;&gt;Node2</title>
<path fill="none" stroke="#404040" d="M319.61,-738.22C318.79,-713.33 319.1,-681.76 323.5,-654 323.85,-651.81 324.21,-649.61 324.6,-647.4"/>
<polygon fill="none" stroke="#404040" points="324.61,-647.33 321.78,-640.7 326.81,-635.54 329.64,-642.17 324.61,-647.33"/>
<text text-anchor="middle" x="378" y="-682" font-family="Helvetica,sans-Serif" font-size="20.00"> #perigoso</text>
</g>
<!-- Node5 -->
<g id="node5" class="node">
<title>Node5</title>
<g id="a_node5"><a xlink:title=" ">
<polygon fill="white" stroke="#bfbfbf" points="417.5,-738.5 417.5,-828.5 491.5,-828.5 491.5,-738.5 417.5,-738.5"/>
<text text-anchor="middle" x="454.5" y="-808.5" font-family="Helvetica,sans-Serif" font-size="20.00">string</text>
<polyline fill="none" stroke="#bfbfbf" points="417.5,-798.5 491.5,-798.5 "/>
<text text-anchor="middle" x="454.5" y="-778.5" font-family="Helvetica,sans-Serif" font-size="20.00"> </text>
<polyline fill="none" stroke="#bfbfbf" points="417.5,-768.5 491.5,-768.5 "/>
<text text-anchor="middle" x="454.5" y="-748.5" font-family="Helvetica,sans-Serif" font-size="20.00"> </text>
</a>
</g>
</g>
<!-- Node5&#45;&gt;Node2 -->
<g id="edge4" class="edge">
<title>Node5&#45;&gt;Node2</title>
<path fill="none" stroke="#404040" d="M447.41,-738.41C443.31,-713.57 437.89,-682 432.5,-654 432.1,-651.94 431.7,-649.86 431.3,-647.78"/>
<polygon fill="none" stroke="#404040" points="431.25,-647.53 426.16,-642.41 428.93,-635.75 434.01,-640.87 431.25,-647.53"/>
<text text-anchor="middle" x="520.5" y="-704" font-family="Helvetica,sans-Serif" font-size="20.00"> #especie</text>
<text text-anchor="middle" x="520.5" y="-682" font-family="Helvetica,sans-Serif" font-size="20.00">#ameacadoPor</text>
<text text-anchor="middle" x="520.5" y="-660" font-family="Helvetica,sans-Serif" font-size="20.00">#nome</text>
</g>
<!-- Node6 -->
<g id="node6" class="node">
<title>Node6</title>
<g id="a_node6"><a xlink:title=" ">
<polygon fill="white" stroke="#bfbfbf" points="510,-738.5 510,-828.5 759,-828.5 759,-738.5 510,-738.5"/>
<text text-anchor="middle" x="634.5" y="-808.5" font-family="Helvetica,sans-Serif" font-size="20.00">shared_ptr&lt; Tratador &gt;</text>
<polyline fill="none" stroke="#bfbfbf" points="510,-798.5 759,-798.5 "/>
<text text-anchor="middle" x="634.5" y="-778.5" font-family="Helvetica,sans-Serif" font-size="20.00"> </text>
<polyline fill="none" stroke="#bfbfbf" points="510,-768.5 759,-768.5 "/>
<text text-anchor="middle" x="634.5" y="-748.5" font-family="Helvetica,sans-Serif" font-size="20.00"> </text>
</a>
</g>
</g>
<!-- Node6&#45;&gt;Node2 -->
<g id="edge5" class="edge">
<title>Node6&#45;&gt;Node2</title>
<path fill="none" stroke="#404040" d="M634.19,-738.41C631.57,-710.38 623.41,-675.45 600.5,-654 572.7,-627.97 547.64,-654.07 510.76,-636.16"/>
<polygon fill="none" stroke="#404040" points="510.38,-635.93 503.18,-636.34 500.03,-629.86 507.23,-629.45 510.38,-635.93"/>
<text text-anchor="middle" x="682" y="-682" font-family="Helvetica,sans-Serif" font-size="20.00"> #tratador</text>
</g>
<!-- Node7 -->
<g id="node7" class="node">
<title>Node7</title>
<g id="a_node7"><a xlink:title=" ">
<polygon fill="white" stroke="#bfbfbf" points="518,-402.5 518,-492.5 575,-492.5 575,-402.5 518,-402.5"/>
<text text-anchor="middle" x="546.5" y="-472.5" font-family="Helvetica,sans-Serif" font-size="20.00">Pele</text>
<polyline fill="none" stroke="#bfbfbf" points="518,-462.5 575,-462.5 "/>
<text text-anchor="middle" x="546.5" y="-442.5" font-family="Helvetica,sans-Serif" font-size="20.00"> </text>
<polyline fill="none" stroke="#bfbfbf" points="518,-432.5 575,-432.5 "/>
<text text-anchor="middle" x="546.5" y="-412.5" font-family="Helvetica,sans-Serif" font-size="20.00"> </text>
</a>
</g>
</g>
<!-- Node7&#45;&gt;Node1 -->
<g id="edge6" class="edge">
<title>Node7&#45;&gt;Node1</title>
<path fill="none" stroke="#404040" d="M538.27,-402.41C530.99,-364.32 519.8,-307.86 508.5,-259 505.02,-243.97 501.17,-228.19 497.25,-212.67"/>
<polygon fill="none" stroke="#404040" points="497.2,-212.49 491.85,-207.66 494.24,-200.86 499.6,-205.69 497.2,-212.49"/>
<text text-anchor="middle" x="536" y="-225" font-family="Helvetica,sans-Serif" font-size="20.00"> #pele</text>
</g>
</g>
</svg>
