<?xml version="1.0" encoding="UTF-8" standalone="no"?>
<!DOCTYPE svg PUBLIC "-//W3C//DTD SVG 1.1//EN"
 "http://www.w3.org/Graphics/SVG/1.1/DTD/svg11.dtd">
<!-- Generated by graphviz version 2.43.0 (0)
 -->
<!-- Title: MapeadorAnimal Pages: 1 -->
<svg width="313pt" height="270pt"
 viewBox="0.00 0.00 313.00 270.00" xmlns="http://www.w3.org/2000/svg" xmlns:xlink="http://www.w3.org/1999/xlink">
<g id="graph0" class="graph" transform="scale(1 1) rotate(0) translate(4 266)">
<title>MapeadorAnimal</title>
<polygon fill="white" stroke="transparent" points="-4,4 -4,-266 309,-266 309,4 -4,4"/>
<!-- Node1 -->
<g id="node1" class="node">
<title>Node1</title>
<g id="a_node1"><a xlink:title="Mapeador de animais.">
<polygon fill="#bfbfbf" stroke="black" points="42,-0.5 42,-90.5 263,-90.5 263,-0.5 42,-0.5"/>
<text text-anchor="middle" x="152.5" y="-70.5" font-family="Helvetica,sans-Serif" font-size="20.00">MapeadorAnimal</text>
<polyline fill="none" stroke="black" points="42,-60.5 263,-60.5 "/>
<text text-anchor="middle" x="152.5" y="-40.5" font-family="Helvetica,sans-Serif" font-size="20.00"> </text>
<polyline fill="none" stroke="black" points="42,-30.5 263,-30.5 "/>
<text text-anchor="start" x="50" y="-10.5" font-family="Helvetica,sans-Serif" font-size="20.00">+ MapeadorAnimal()</text>
</a>
</g>
</g>
<!-- Node2 -->
<g id="node2" class="node">
<title>Node2</title>
<g id="a_node2"><a xlink:title=" ">
<polygon fill="white" stroke="#bfbfbf" points="0,-149.5 0,-261.5 305,-261.5 305,-149.5 0,-149.5"/>
<text text-anchor="start" x="8" y="-241.5" font-family="Helvetica,sans-Serif" font-size="20.00">map&lt; string, std::function</text>
<text text-anchor="middle" x="152.5" y="-219.5" font-family="Helvetica,sans-Serif" font-size="20.00">&lt; shared_ptr&lt; Animal &gt;)&gt; &gt;</text>
<polyline fill="none" stroke="#bfbfbf" points="0,-209.5 305,-209.5 "/>
<text text-anchor="middle" x="152.5" y="-189.5" font-family="Helvetica,sans-Serif" font-size="20.00"> </text>
<polyline fill="none" stroke="#bfbfbf" points="0,-179.5 305,-179.5 "/>
<text text-anchor="middle" x="152.5" y="-159.5" font-family="Helvetica,sans-Serif" font-size="20.00"> </text>
</a>
</g>
</g>
<!-- Node2&#45;&gt;Node1 -->
<g id="edge1" class="edge">
<title>Node2&#45;&gt;Node1</title>
<path fill="none" stroke="#404040" d="M152.5,-149.24C152.5,-134.22 152.5,-117.94 152.5,-102.87"/>
<polygon fill="none" stroke="#404040" points="152.5,-102.54 148.5,-96.54 152.5,-90.54 156.5,-96.54 152.5,-102.54"/>
<text text-anchor="middle" x="191" y="-115" font-family="Helvetica,sans-Serif" font-size="20.00"> +aMap</text>
</g>
</g>
</svg>
