<?xml version="1.0" encoding="UTF-8" standalone="no"?>
<!DOCTYPE svg PUBLIC "-//W3C//DTD SVG 1.1//EN"
 "http://www.w3.org/Graphics/SVG/1.1/DTD/svg11.dtd">
<!-- Generated by graphviz version 2.40.1 (20161225.0304)
 -->
<!-- Title: ReptilExotico Pages: 1 -->
<svg width="604pt" height="1505pt"
 viewBox="0.00 0.00 604.47 1505.00" xmlns="http://www.w3.org/2000/svg" xmlns:xlink="http://www.w3.org/1999/xlink">
<g id="graph0" class="graph" transform="scale(1 1) rotate(0) translate(4 1501)">
<title>ReptilExotico</title>
<polygon fill="#ffffff" stroke="transparent" points="-4,4 -4,-1501 600.4682,-1501 600.4682,4 -4,4"/>
<!-- Node4 -->
<g id="node1" class="node">
<title>Node4</title>
<polygon fill="#bfbfbf" stroke="#000000" points="177.4682,-.5 177.4682,-112.5 339.4682,-112.5 339.4682,-.5 177.4682,-.5"/>
<text text-anchor="middle" x="258.4682" y="-92.5" font-family="Helvetica,sans-Serif" font-size="20.00" fill="#000000">ReptilExotico</text>
<polyline fill="none" stroke="#000000" points="177.4682,-82.5 339.4682,-82.5 "/>
<text text-anchor="middle" x="258.4682" y="-62.5" font-family="Helvetica,sans-Serif" font-size="20.00" fill="#000000"> </text>
<polyline fill="none" stroke="#000000" points="177.4682,-52.5 339.4682,-52.5 "/>
<text text-anchor="start" x="185.4682" y="-32.5" font-family="Helvetica,sans-Serif" font-size="20.00" fill="#000000">+ ReptilExotico()</text>
<text text-anchor="start" x="185.4682" y="-10.5" font-family="Helvetica,sans-Serif" font-size="20.00" fill="#000000">+ ~ReptilExotico()</text>
</g>
<!-- Node5 -->
<g id="node2" class="node">
<title>Node5</title>
<g id="a_node2"><a xlink:href="classReptil.html" target="_top" xlink:title="Classificação base para Repteis. ">
<polygon fill="#ffffff" stroke="#000000" points="142.4682,-150.5 142.4682,-306.5 248.4682,-306.5 248.4682,-150.5 142.4682,-150.5"/>
<text text-anchor="middle" x="195.4682" y="-286.5" font-family="Helvetica,sans-Serif" font-size="20.00" fill="#000000">Reptil</text>
<polyline fill="none" stroke="#000000" points="142.4682,-276.5 248.4682,-276.5 "/>
<text text-anchor="middle" x="195.4682" y="-256.5" font-family="Helvetica,sans-Serif" font-size="20.00" fill="#000000"> </text>
<polyline fill="none" stroke="#000000" points="142.4682,-246.5 248.4682,-246.5 "/>
<text text-anchor="start" x="150.4682" y="-226.5" font-family="Helvetica,sans-Serif" font-size="20.00" fill="#000000">+ Reptil()</text>
<text text-anchor="start" x="150.4682" y="-204.5" font-family="Helvetica,sans-Serif" font-size="20.00" fill="#000000">+ Reptil()</text>
<text text-anchor="start" x="150.4682" y="-182.5" font-family="Helvetica,sans-Serif" font-size="20.00" fill="#000000">+ ~Reptil()</text>
<text text-anchor="start" x="150.4682" y="-160.5" font-family="Helvetica,sans-Serif" font-size="20.00" fill="#000000">+ getPele()</text>
</a>
</g>
</g>
<!-- Node5&#45;&gt;Node4 -->
<g id="edge1" class="edge">
<title>Node5&#45;&gt;Node4</title>
<path fill="none" stroke="#191970" d="M227.6063,-140.758C231.1046,-131.207 234.5924,-121.6847 237.8971,-112.6626"/>
<polygon fill="none" stroke="#191970" points="224.2638,-139.7073 224.1109,-150.301 230.8368,-142.1148 224.2638,-139.7073"/>
</g>
<!-- Node6 -->
<g id="node3" class="node">
<title>Node6</title>
<polygon fill="#ffffff" stroke="#bfbfbf" points="163.9682,-497.5 163.9682,-587.5 216.9682,-587.5 216.9682,-497.5 163.9682,-497.5"/>
<text text-anchor="middle" x="190.4682" y="-567.5" font-family="Helvetica,sans-Serif" font-size="20.00" fill="#000000">Pele</text>
<polyline fill="none" stroke="#bfbfbf" points="163.9682,-557.5 216.9682,-557.5 "/>
<text text-anchor="middle" x="190.4682" y="-537.5" font-family="Helvetica,sans-Serif" font-size="20.00" fill="#000000"> </text>
<polyline fill="none" stroke="#bfbfbf" points="163.9682,-527.5 216.9682,-527.5 "/>
<text text-anchor="middle" x="190.4682" y="-507.5" font-family="Helvetica,sans-Serif" font-size="20.00" fill="#000000"> </text>
</g>
<!-- Node6&#45;&gt;Node5 -->
<g id="edge2" class="edge">
<title>Node6&#45;&gt;Node5</title>
<path fill="none" stroke="#404040" d="M191.1899,-497.177C191.9297,-450.7195 193.1002,-377.2126 194.03,-318.82"/>
<polygon fill="none" stroke="#404040" points="194.0334,-318.6027 190.1295,-312.5398 194.2245,-306.6042 198.1285,-312.6672 194.0334,-318.6027"/>
<text text-anchor="middle" x="219.4682" y="-331" font-family="Helvetica,sans-Serif" font-size="20.00" fill="#000000"> #pele</text>
</g>
<!-- Node7 -->
<g id="node4" class="node">
<title>Node7</title>
<g id="a_node4"><a xlink:href="classExotico.html" target="_top" xlink:title="Umas das definições de categoria para Animal. ">
<polygon fill="#ffffff" stroke="#000000" points="270.4682,-150.5 270.4682,-306.5 384.4682,-306.5 384.4682,-150.5 270.4682,-150.5"/>
<text text-anchor="middle" x="327.4682" y="-286.5" font-family="Helvetica,sans-Serif" font-size="20.00" fill="#000000">Exotico</text>
<polyline fill="none" stroke="#000000" points="270.4682,-276.5 384.4682,-276.5 "/>
<text text-anchor="middle" x="327.4682" y="-256.5" font-family="Helvetica,sans-Serif" font-size="20.00" fill="#000000"> </text>
<polyline fill="none" stroke="#000000" points="270.4682,-246.5 384.4682,-246.5 "/>
<text text-anchor="start" x="278.4682" y="-226.5" font-family="Helvetica,sans-Serif" font-size="20.00" fill="#000000">+ Exotico()</text>
<text text-anchor="start" x="278.4682" y="-204.5" font-family="Helvetica,sans-Serif" font-size="20.00" fill="#000000">+ Exotico()</text>
<text text-anchor="start" x="278.4682" y="-182.5" font-family="Helvetica,sans-Serif" font-size="20.00" fill="#000000">+ ~Exotico()</text>
<text text-anchor="start" x="278.4682" y="-160.5" font-family="Helvetica,sans-Serif" font-size="20.00" fill="#000000">+ getLocal()</text>
</a>
</g>
</g>
<!-- Node7&#45;&gt;Node4 -->
<g id="edge3" class="edge">
<title>Node7&#45;&gt;Node4</title>
<path fill="none" stroke="#191970" d="M292.2694,-140.758C288.4379,-131.207 284.6179,-121.6847 280.9986,-112.6626"/>
<polygon fill="none" stroke="#191970" points="289.1261,-142.3231 296.0977,-150.301 295.6228,-139.7168 289.1261,-142.3231"/>
</g>
<!-- Node8 -->
<g id="node5" class="node">
<title>Node8</title>
<g id="a_node5"><a xlink:href="classAnimal.html" target="_top" xlink:title="Implementação base para o cadastro de animais. ">
<polygon fill="#ffffff" stroke="#000000" points="234.9682,-365.5 234.9682,-719.5 419.9682,-719.5 419.9682,-365.5 234.9682,-365.5"/>
<text text-anchor="middle" x="327.4682" y="-699.5" font-family="Helvetica,sans-Serif" font-size="20.00" fill="#000000">Animal</text>
<polyline fill="none" stroke="#000000" points="234.9682,-689.5 419.9682,-689.5 "/>
<text text-anchor="middle" x="327.4682" y="-669.5" font-family="Helvetica,sans-Serif" font-size="20.00" fill="#000000"> </text>
<polyline fill="none" stroke="#000000" points="234.9682,-659.5 419.9682,-659.5 "/>
<text text-anchor="start" x="242.9682" y="-639.5" font-family="Helvetica,sans-Serif" font-size="20.00" fill="#000000">+ Animal()</text>
<text text-anchor="start" x="242.9682" y="-617.5" font-family="Helvetica,sans-Serif" font-size="20.00" fill="#000000">+ Animal()</text>
<text text-anchor="start" x="242.9682" y="-595.5" font-family="Helvetica,sans-Serif" font-size="20.00" fill="#000000">+ ~Animal()</text>
<text text-anchor="start" x="242.9682" y="-573.5" font-family="Helvetica,sans-Serif" font-size="20.00" fill="#000000">+ getNome()</text>
<text text-anchor="start" x="242.9682" y="-551.5" font-family="Helvetica,sans-Serif" font-size="20.00" fill="#000000">+ getEspecie()</text>
<text text-anchor="start" x="242.9682" y="-529.5" font-family="Helvetica,sans-Serif" font-size="20.00" fill="#000000">+ getAmeacadoPor()</text>
<text text-anchor="start" x="242.9682" y="-507.5" font-family="Helvetica,sans-Serif" font-size="20.00" fill="#000000">+ getVeterinario()</text>
<text text-anchor="start" x="242.9682" y="-485.5" font-family="Helvetica,sans-Serif" font-size="20.00" fill="#000000">+ getTratador()</text>
<text text-anchor="start" x="242.9682" y="-463.5" font-family="Helvetica,sans-Serif" font-size="20.00" fill="#000000">+ getPerigoso()</text>
<text text-anchor="start" x="242.9682" y="-441.5" font-family="Helvetica,sans-Serif" font-size="20.00" fill="#000000">+ getClassificacao()</text>
<text text-anchor="start" x="242.9682" y="-419.5" font-family="Helvetica,sans-Serif" font-size="20.00" fill="#000000">+ getClasse()</text>
<text text-anchor="start" x="242.9682" y="-397.5" font-family="Helvetica,sans-Serif" font-size="20.00" fill="#000000">+ printOutDados()</text>
<text text-anchor="start" x="242.9682" y="-375.5" font-family="Helvetica,sans-Serif" font-size="20.00" fill="#000000">+ operator==()</text>
</a>
</g>
</g>
<!-- Node8&#45;&gt;Node7 -->
<g id="edge4" class="edge">
<title>Node8&#45;&gt;Node7</title>
<path fill="none" stroke="#191970" d="M327.4682,-355.2905C327.4682,-338.3558 327.4682,-321.9083 327.4682,-306.777"/>
<polygon fill="none" stroke="#191970" points="323.9683,-355.3115 327.4682,-365.3115 330.9683,-355.3116 323.9683,-355.3115"/>
</g>
<!-- Node9 -->
<g id="node6" class="node">
<title>Node9</title>
<g id="a_node6"><a xlink:href="classTratador.html" target="_top" xlink:title="Implementação dos tratadores. ">
<polygon fill="#ffffff" stroke="#000000" points="245.4682,-778.5 245.4682,-956.5 409.4682,-956.5 409.4682,-778.5 245.4682,-778.5"/>
<text text-anchor="middle" x="327.4682" y="-936.5" font-family="Helvetica,sans-Serif" font-size="20.00" fill="#000000">Tratador</text>
<polyline fill="none" stroke="#000000" points="245.4682,-926.5 409.4682,-926.5 "/>
<text text-anchor="middle" x="327.4682" y="-906.5" font-family="Helvetica,sans-Serif" font-size="20.00" fill="#000000"> </text>
<polyline fill="none" stroke="#000000" points="245.4682,-896.5 409.4682,-896.5 "/>
<text text-anchor="start" x="253.4682" y="-876.5" font-family="Helvetica,sans-Serif" font-size="20.00" fill="#000000">+ Tratador()</text>
<text text-anchor="start" x="253.4682" y="-854.5" font-family="Helvetica,sans-Serif" font-size="20.00" fill="#000000">+ Tratador()</text>
<text text-anchor="start" x="253.4682" y="-832.5" font-family="Helvetica,sans-Serif" font-size="20.00" fill="#000000">+ ~Tratador()</text>
<text text-anchor="start" x="253.4682" y="-810.5" font-family="Helvetica,sans-Serif" font-size="20.00" fill="#000000">+ getUniforme()</text>
<text text-anchor="start" x="253.4682" y="-788.5" font-family="Helvetica,sans-Serif" font-size="20.00" fill="#000000">+ printOutDados()</text>
</a>
</g>
</g>
<!-- Node9&#45;&gt;Node8 -->
<g id="edge5" class="edge">
<title>Node9&#45;&gt;Node8</title>
<path fill="none" stroke="#404040" d="M327.4682,-778.2624C327.4682,-763.5874 327.4682,-747.9041 327.4682,-731.8617"/>
<polygon fill="none" stroke="#404040" points="327.4683,-731.5346 323.4683,-725.5346 327.4682,-719.5346 331.4683,-725.5346 327.4683,-731.5346"/>
<text text-anchor="middle" x="367.9682" y="-744" font-family="Helvetica,sans-Serif" font-size="20.00" fill="#000000"> #tratador</text>
</g>
<!-- Node10 -->
<g id="node7" class="node">
<title>Node10</title>
<g id="a_node7"><a xlink:href="classPessoa.html" target="_top" xlink:title="Classe base dos funcionarios. ">
<polygon fill="#ffffff" stroke="#000000" points="229.4682,-1059.5 229.4682,-1303.5 393.4682,-1303.5 393.4682,-1059.5 229.4682,-1059.5"/>
<text text-anchor="middle" x="311.4682" y="-1283.5" font-family="Helvetica,sans-Serif" font-size="20.00" fill="#000000">Pessoa</text>
<polyline fill="none" stroke="#000000" points="229.4682,-1273.5 393.4682,-1273.5 "/>
<text text-anchor="middle" x="311.4682" y="-1253.5" font-family="Helvetica,sans-Serif" font-size="20.00" fill="#000000"> </text>
<polyline fill="none" stroke="#000000" points="229.4682,-1243.5 393.4682,-1243.5 "/>
<text text-anchor="start" x="237.4682" y="-1223.5" font-family="Helvetica,sans-Serif" font-size="20.00" fill="#000000">+ Pessoa()</text>
<text text-anchor="start" x="237.4682" y="-1201.5" font-family="Helvetica,sans-Serif" font-size="20.00" fill="#000000">+ Pessoa()</text>
<text text-anchor="start" x="237.4682" y="-1179.5" font-family="Helvetica,sans-Serif" font-size="20.00" fill="#000000">+ ~Pessoa()</text>
<text text-anchor="start" x="237.4682" y="-1157.5" font-family="Helvetica,sans-Serif" font-size="20.00" fill="#000000">+ getNome()</text>
<text text-anchor="start" x="237.4682" y="-1135.5" font-family="Helvetica,sans-Serif" font-size="20.00" fill="#000000">+ getTelefone()</text>
<text text-anchor="start" x="237.4682" y="-1113.5" font-family="Helvetica,sans-Serif" font-size="20.00" fill="#000000">+ getEmail()</text>
<text text-anchor="start" x="237.4682" y="-1091.5" font-family="Helvetica,sans-Serif" font-size="20.00" fill="#000000">+ printOutDados()</text>
<text text-anchor="start" x="237.4682" y="-1069.5" font-family="Helvetica,sans-Serif" font-size="20.00" fill="#000000">+ operator==()</text>
</a>
</g>
</g>
<!-- Node10&#45;&gt;Node9 -->
<g id="edge6" class="edge">
<title>Node10&#45;&gt;Node9</title>
<path fill="none" stroke="#191970" d="M318.2121,-1049.152C319.7974,-1018.0404 321.4502,-985.6041 322.9131,-956.8956"/>
<polygon fill="none" stroke="#191970" points="314.7136,-1049.0351 317.7001,-1059.2003 321.7045,-1049.3914 314.7136,-1049.0351"/>
</g>
<!-- Node14 -->
<g id="node11" class="node">
<title>Node14</title>
<g id="a_node11"><a xlink:href="classVeterinario.html" target="_top" xlink:title="Implementação dos veterinarios. ">
<polygon fill="#ffffff" stroke="#000000" points="63.4682,-778.5 63.4682,-956.5 227.4682,-956.5 227.4682,-778.5 63.4682,-778.5"/>
<text text-anchor="middle" x="145.4682" y="-936.5" font-family="Helvetica,sans-Serif" font-size="20.00" fill="#000000">Veterinario</text>
<polyline fill="none" stroke="#000000" points="63.4682,-926.5 227.4682,-926.5 "/>
<text text-anchor="middle" x="145.4682" y="-906.5" font-family="Helvetica,sans-Serif" font-size="20.00" fill="#000000"> </text>
<polyline fill="none" stroke="#000000" points="63.4682,-896.5 227.4682,-896.5 "/>
<text text-anchor="start" x="71.4682" y="-876.5" font-family="Helvetica,sans-Serif" font-size="20.00" fill="#000000">+ Veterinario()</text>
<text text-anchor="start" x="71.4682" y="-854.5" font-family="Helvetica,sans-Serif" font-size="20.00" fill="#000000">+ Veterinario()</text>
<text text-anchor="start" x="71.4682" y="-832.5" font-family="Helvetica,sans-Serif" font-size="20.00" fill="#000000">+ ~Veterinario()</text>
<text text-anchor="start" x="71.4682" y="-810.5" font-family="Helvetica,sans-Serif" font-size="20.00" fill="#000000">+ getCRMV()</text>
<text text-anchor="start" x="71.4682" y="-788.5" font-family="Helvetica,sans-Serif" font-size="20.00" fill="#000000">+ printOutDados()</text>
</a>
</g>
</g>
<!-- Node10&#45;&gt;Node14 -->
<g id="edge12" class="edge">
<title>Node10&#45;&gt;Node14</title>
<path fill="none" stroke="#191970" d="M241.9279,-1049.9598C225.3504,-1018.6023 208.0368,-985.8526 192.7283,-956.8956"/>
<polygon fill="none" stroke="#191970" points="239.045,-1051.9955 246.813,-1059.2003 245.2334,-1048.7238 239.045,-1051.9955"/>
</g>
<!-- Node11 -->
<g id="node8" class="node">
<title>Node11</title>
<polygon fill="#ffffff" stroke="#bfbfbf" points="196.4682,-1406.5 196.4682,-1496.5 260.4682,-1496.5 260.4682,-1406.5 196.4682,-1406.5"/>
<text text-anchor="middle" x="228.4682" y="-1476.5" font-family="Helvetica,sans-Serif" font-size="20.00" fill="#000000">string</text>
<polyline fill="none" stroke="#bfbfbf" points="196.4682,-1466.5 260.4682,-1466.5 "/>
<text text-anchor="middle" x="228.4682" y="-1446.5" font-family="Helvetica,sans-Serif" font-size="20.00" fill="#000000"> </text>
<polyline fill="none" stroke="#bfbfbf" points="196.4682,-1436.5 260.4682,-1436.5 "/>
<text text-anchor="middle" x="228.4682" y="-1416.5" font-family="Helvetica,sans-Serif" font-size="20.00" fill="#000000"> </text>
</g>
<!-- Node11&#45;&gt;Node7 -->
<g id="edge14" class="edge">
<title>Node11&#45;&gt;Node7</title>
<path fill="none" stroke="#404040" d="M260.8894,-1444.0123C320.2638,-1428.5665 446.4136,-1387.407 512.4682,-1304 547.3352,-1259.9736 543.4682,-1237.6607 543.4682,-1181.5 543.4682,-1181.5 543.4682,-1181.5 543.4682,-542.5 543.4682,-435.4472 457.1916,-338.2893 393.6927,-281.279"/>
<polygon fill="none" stroke="#404040" points="393.4968,-281.1061 386.3517,-280.1325 384.5022,-273.1626 391.6474,-274.1361 393.4968,-281.1061"/>
<text text-anchor="middle" x="569.9682" y="-862.5" font-family="Helvetica,sans-Serif" font-size="20.00" fill="#000000"> #local</text>
</g>
<!-- Node11&#45;&gt;Node8 -->
<g id="edge10" class="edge">
<title>Node11&#45;&gt;Node8</title>
<path fill="none" stroke="#404040" d="M196.1816,-1428.1532C182.6089,-1417.1324 167.4544,-1403.0917 156.4682,-1388 41.4454,-1229.9927 -18.2953,-1168.9893 5.4682,-975 16.4385,-885.4461 -6.6202,-844.3962 54.4682,-778 108.8058,-718.9413 163.4775,-770.9671 225.4682,-720 225.5669,-719.9189 225.6655,-719.8376 225.764,-719.7563"/>
<polygon fill="none" stroke="#404040" points="225.7145,-719.8 227.5622,-712.8296 234.707,-711.8542 232.8594,-718.8246 225.7145,-719.8"/>
<text text-anchor="middle" x="66.9682" y="-1025" font-family="Helvetica,sans-Serif" font-size="20.00" fill="#000000"> #especie</text>
<text text-anchor="middle" x="66.9682" y="-1003" font-family="Helvetica,sans-Serif" font-size="20.00" fill="#000000">#ameacadoPor</text>
<text text-anchor="middle" x="66.9682" y="-981" font-family="Helvetica,sans-Serif" font-size="20.00" fill="#000000">#nome</text>
</g>
<!-- Node11&#45;&gt;Node10 -->
<g id="edge7" class="edge">
<title>Node11&#45;&gt;Node10</title>
<path fill="none" stroke="#404040" d="M242.3606,-1406.3081C250.1215,-1381.0618 260.2398,-1348.1466 270.3297,-1315.3241"/>
<polygon fill="none" stroke="#404040" points="270.3674,-1315.2012 268.3071,-1308.2907 273.8935,-1303.731 275.9539,-1310.6415 270.3674,-1315.2012"/>
<text text-anchor="middle" x="305.9682" y="-1372" font-family="Helvetica,sans-Serif" font-size="20.00" fill="#000000"> #email</text>
<text text-anchor="middle" x="305.9682" y="-1350" font-family="Helvetica,sans-Serif" font-size="20.00" fill="#000000">#nome</text>
<text text-anchor="middle" x="305.9682" y="-1328" font-family="Helvetica,sans-Serif" font-size="20.00" fill="#000000">#telefone</text>
</g>
<!-- Node11&#45;&gt;Node14 -->
<g id="edge13" class="edge">
<title>Node11&#45;&gt;Node14</title>
<path fill="none" stroke="#404040" d="M199.223,-1406.3991C182.6577,-1378.2001 163.4918,-1340.4301 154.4682,-1304 126.6784,-1191.8066 128.8021,-1058.3944 135.0628,-968.8505"/>
<polygon fill="none" stroke="#404040" points="135.0697,-968.7549 131.5206,-962.4777 135.9498,-956.7872 139.499,-963.0644 135.0697,-968.7549"/>
<text text-anchor="middle" x="187.4682" y="-1176.5" font-family="Helvetica,sans-Serif" font-size="20.00" fill="#000000"> &#45;CRMV</text>
</g>
<!-- Node12 -->
<g id="node9" class="node">
<title>Node12</title>
<polygon fill="#ffffff" stroke="#bfbfbf" points="411.4682,-1136.5 411.4682,-1226.5 503.4682,-1226.5 503.4682,-1136.5 411.4682,-1136.5"/>
<text text-anchor="middle" x="457.4682" y="-1206.5" font-family="Helvetica,sans-Serif" font-size="20.00" fill="#000000">Uniforme</text>
<polyline fill="none" stroke="#bfbfbf" points="411.4682,-1196.5 503.4682,-1196.5 "/>
<text text-anchor="middle" x="457.4682" y="-1176.5" font-family="Helvetica,sans-Serif" font-size="20.00" fill="#000000"> </text>
<polyline fill="none" stroke="#bfbfbf" points="411.4682,-1166.5 503.4682,-1166.5 "/>
<text text-anchor="middle" x="457.4682" y="-1146.5" font-family="Helvetica,sans-Serif" font-size="20.00" fill="#000000"> </text>
</g>
<!-- Node12&#45;&gt;Node9 -->
<g id="edge8" class="edge">
<title>Node12&#45;&gt;Node9</title>
<path fill="none" stroke="#404040" d="M438.704,-1136.177C420.5431,-1092.3115 392.3981,-1024.3307 368.9637,-967.7275"/>
<polygon fill="none" stroke="#404040" points="368.9343,-967.6564 362.9434,-963.6428 364.344,-956.569 370.3349,-960.5826 368.9343,-967.6564"/>
<text text-anchor="middle" x="437.4682" y="-1003" font-family="Helvetica,sans-Serif" font-size="20.00" fill="#000000"> &#45;uniforme</text>
</g>
<!-- Node13 -->
<g id="node10" class="node">
<title>Node13</title>
<polygon fill="#ffffff" stroke="#bfbfbf" points="427.9682,-822.5 427.9682,-912.5 478.9682,-912.5 478.9682,-822.5 427.9682,-822.5"/>
<text text-anchor="middle" x="453.4682" y="-892.5" font-family="Helvetica,sans-Serif" font-size="20.00" fill="#000000">bool</text>
<polyline fill="none" stroke="#bfbfbf" points="427.9682,-882.5 478.9682,-882.5 "/>
<text text-anchor="middle" x="453.4682" y="-862.5" font-family="Helvetica,sans-Serif" font-size="20.00" fill="#000000"> </text>
<polyline fill="none" stroke="#bfbfbf" points="427.9682,-852.5 478.9682,-852.5 "/>
<text text-anchor="middle" x="453.4682" y="-832.5" font-family="Helvetica,sans-Serif" font-size="20.00" fill="#000000"> </text>
</g>
<!-- Node13&#45;&gt;Node8 -->
<g id="edge9" class="edge">
<title>Node13&#45;&gt;Node8</title>
<path fill="none" stroke="#404040" d="M440.4605,-822.46C432.9054,-797.3798 422.8491,-765.7158 412.4682,-738 411.5808,-735.6307 410.6802,-733.2486 409.7677,-730.856"/>
<polygon fill="none" stroke="#404040" points="409.7402,-730.7846 403.8467,-726.6293 405.4156,-719.5909 411.3092,-723.7463 409.7402,-730.7846"/>
<text text-anchor="middle" x="462.4682" y="-744" font-family="Helvetica,sans-Serif" font-size="20.00" fill="#000000"> #perigoso</text>
</g>
<!-- Node14&#45;&gt;Node8 -->
<g id="edge11" class="edge">
<title>Node14&#45;&gt;Node8</title>
<path fill="none" stroke="#404040" d="M195.4413,-778.2624C205.974,-759.454 217.4342,-738.9894 229.0567,-718.2349"/>
<polygon fill="none" stroke="#404040" points="229.0944,-718.1674 228.5361,-710.9779 234.9577,-707.6973 235.5161,-714.8868 229.0944,-718.1674"/>
<text text-anchor="middle" x="265.9682" y="-744" font-family="Helvetica,sans-Serif" font-size="20.00" fill="#000000"> #veterinario</text>
</g>
</g>
</svg>
