<?xml version="1.0" encoding="UTF-8" standalone="no"?>
<!DOCTYPE svg PUBLIC "-//W3C//DTD SVG 1.1//EN"
 "http://www.w3.org/Graphics/SVG/1.1/DTD/svg11.dtd">
<!-- Generated by graphviz version 2.40.1 (20161225.0304)
 -->
<!-- Title: ReptilDomestico Pages: 1 -->
<!--zoomable 1505 -->
<svg id="main" version="1.1" xmlns="http://www.w3.org/2000/svg" xmlns:xlink="http://www.w3.org/1999/xlink" xml:space="preserve" onload="init(evt)">
<style type="text/css"><![CDATA[
.edge:hover path { stroke: red; }
.edge:hover polygon { stroke: red; fill: red; }
]]></style>
<script type="text/javascript"><![CDATA[
var edges = document.getElementsByTagName('g');
if (edges && edges.length) {
  for (var i=0;i<edges.length;i++) {
    if (edges[i].id.substr(0,4)=='edge') {
      edges[i].setAttribute('class','edge');
    }
  }
}
]]></script>
        <defs>
                <circle id="rim" cx="0" cy="0" r="7"/>
                <circle id="rim2" cx="0" cy="0" r="3.5"/>
                <g id="zoomPlus">
                        <use xlink:href="#rim" fill="#404040">
                                <set attributeName="fill" to="#808080" begin="zoomplus.mouseover" end="zoomplus.mouseout"/>
                        </use>
                        <path d="M-4,0h8M0,-4v8" fill="none" stroke="white" stroke-width="1.5" pointer-events="none"/>
                </g>
                <g id="zoomMin">
                        <use xlink:href="#rim" fill="#404040">
                                <set attributeName="fill" to="#808080" begin="zoomminus.mouseover" end="zoomminus.mouseout"/>
                        </use>
                        <path d="M-4,0h8" fill="none" stroke="white" stroke-width="1.5" pointer-events="none"/>
                </g>
                <g id="dirArrow">
                        <path fill="none" stroke="white" stroke-width="1.5" d="M0,-3.0v7 M-2.5,-0.5L0,-3.0L2.5,-0.5"/>
                </g>
               <g id="resetDef">
                       <use xlink:href="#rim2" fill="#404040">
                               <set attributeName="fill" to="#808080" begin="reset.mouseover" end="reset.mouseout"/>
                       </use>
               </g>
        </defs>

<script type="text/javascript">
var viewWidth = 767;
var viewHeight = 1505;
var sectionId = 'dynsection-1';
</script>
<script xlink:href="svgpan.js"/>
<svg id="graph" class="graph">
<g id="viewport">
<title>ReptilDomestico</title>
<polygon fill="#ffffff" stroke="transparent" points="-4,4 -4,-1501 763,-1501 763,4 -4,4"/>
<!-- Node4 -->
<g id="node1" class="node">
<title>Node4</title>
<polygon fill="#bfbfbf" stroke="#000000" points="33,-.5 33,-112.5 221,-112.5 221,-.5 33,-.5"/>
<text text-anchor="middle" x="127" y="-92.5" font-family="Helvetica,sans-Serif" font-size="20.00" fill="#000000">ReptilDomestico</text>
<polyline fill="none" stroke="#000000" points="33,-82.5 221,-82.5 "/>
<text text-anchor="middle" x="127" y="-62.5" font-family="Helvetica,sans-Serif" font-size="20.00" fill="#000000"> </text>
<polyline fill="none" stroke="#000000" points="33,-52.5 221,-52.5 "/>
<text text-anchor="start" x="41" y="-32.5" font-family="Helvetica,sans-Serif" font-size="20.00" fill="#000000">+ ReptilDomestico()</text>
<text text-anchor="start" x="41" y="-10.5" font-family="Helvetica,sans-Serif" font-size="20.00" fill="#000000">+ ~ReptilDomestico()</text>
</g>
<!-- Node5 -->
<g id="node2" class="node">
<title>Node5</title>
<g id="a_node2"><a xlink:href="classReptil.html" target="_top" xlink:title="Classificação base para Repteis. ">
<polygon fill="#ffffff" stroke="#000000" points="0,-150.5 0,-306.5 106,-306.5 106,-150.5 0,-150.5"/>
<text text-anchor="middle" x="53" y="-286.5" font-family="Helvetica,sans-Serif" font-size="20.00" fill="#000000">Reptil</text>
<polyline fill="none" stroke="#000000" points="0,-276.5 106,-276.5 "/>
<text text-anchor="middle" x="53" y="-256.5" font-family="Helvetica,sans-Serif" font-size="20.00" fill="#000000"> </text>
<polyline fill="none" stroke="#000000" points="0,-246.5 106,-246.5 "/>
<text text-anchor="start" x="8" y="-226.5" font-family="Helvetica,sans-Serif" font-size="20.00" fill="#000000">+ Reptil()</text>
<text text-anchor="start" x="8" y="-204.5" font-family="Helvetica,sans-Serif" font-size="20.00" fill="#000000">+ Reptil()</text>
<text text-anchor="start" x="8" y="-182.5" font-family="Helvetica,sans-Serif" font-size="20.00" fill="#000000">+ ~Reptil()</text>
<text text-anchor="start" x="8" y="-160.5" font-family="Helvetica,sans-Serif" font-size="20.00" fill="#000000">+ getPele()</text>
</a>
</g>
</g>
<!-- Node5&#45;&gt;Node4 -->
<g id="edge1" class="edge">
<title>Node5&#45;&gt;Node4</title>
<path fill="none" stroke="#191970" d="M90.6211,-141.0564C94.7732,-131.4055 98.915,-121.7787 102.837,-112.6626"/>
<polygon fill="none" stroke="#191970" points="87.3808,-139.7318 86.6438,-150.301 93.811,-142.4983 87.3808,-139.7318"/>
</g>
<!-- Node6 -->
<g id="node3" class="node">
<title>Node6</title>
<polygon fill="#ffffff" stroke="#bfbfbf" points="26.5,-497.5 26.5,-587.5 79.5,-587.5 79.5,-497.5 26.5,-497.5"/>
<text text-anchor="middle" x="53" y="-567.5" font-family="Helvetica,sans-Serif" font-size="20.00" fill="#000000">Pele</text>
<polyline fill="none" stroke="#bfbfbf" points="26.5,-557.5 79.5,-557.5 "/>
<text text-anchor="middle" x="53" y="-537.5" font-family="Helvetica,sans-Serif" font-size="20.00" fill="#000000"> </text>
<polyline fill="none" stroke="#bfbfbf" points="26.5,-527.5 79.5,-527.5 "/>
<text text-anchor="middle" x="53" y="-507.5" font-family="Helvetica,sans-Serif" font-size="20.00" fill="#000000"> </text>
</g>
<!-- Node6&#45;&gt;Node5 -->
<g id="edge2" class="edge">
<title>Node6&#45;&gt;Node5</title>
<path fill="none" stroke="#404040" d="M53,-497.177C53,-450.7195 53,-377.2126 53,-318.82"/>
<polygon fill="none" stroke="#404040" points="53.0001,-318.6042 49,-312.6043 53,-306.6042 57,-312.6042 53.0001,-318.6042"/>
<text text-anchor="middle" x="78" y="-331" font-family="Helvetica,sans-Serif" font-size="20.00" fill="#000000"> #pele</text>
</g>
<!-- Node7 -->
<g id="node4" class="node">
<title>Node7</title>
<g id="a_node4"><a xlink:href="classDomestico.html" target="_top" xlink:title="Umas das definições de categoria para Animal. ">
<polygon fill="#ffffff" stroke="#000000" points="124.5,-150.5 124.5,-306.5 279.5,-306.5 279.5,-150.5 124.5,-150.5"/>
<text text-anchor="middle" x="202" y="-286.5" font-family="Helvetica,sans-Serif" font-size="20.00" fill="#000000">Domestico</text>
<polyline fill="none" stroke="#000000" points="124.5,-276.5 279.5,-276.5 "/>
<text text-anchor="middle" x="202" y="-256.5" font-family="Helvetica,sans-Serif" font-size="20.00" fill="#000000"> </text>
<polyline fill="none" stroke="#000000" points="124.5,-246.5 279.5,-246.5 "/>
<text text-anchor="start" x="132.5" y="-226.5" font-family="Helvetica,sans-Serif" font-size="20.00" fill="#000000">+ Domestico()</text>
<text text-anchor="start" x="132.5" y="-204.5" font-family="Helvetica,sans-Serif" font-size="20.00" fill="#000000">+ Domestico()</text>
<text text-anchor="start" x="132.5" y="-182.5" font-family="Helvetica,sans-Serif" font-size="20.00" fill="#000000">+ ~Domestico()</text>
<text text-anchor="start" x="132.5" y="-160.5" font-family="Helvetica,sans-Serif" font-size="20.00" fill="#000000">+ getAdestrado()</text>
</a>
</g>
</g>
<!-- Node7&#45;&gt;Node4 -->
<g id="edge3" class="edge">
<title>Node7&#45;&gt;Node4</title>
<path fill="none" stroke="#191970" d="M163.8705,-141.0564C159.6623,-131.4055 155.4646,-121.7787 151.4895,-112.6626"/>
<polygon fill="none" stroke="#191970" points="160.6963,-142.5335 167.9016,-150.301 167.1128,-139.7356 160.6963,-142.5335"/>
</g>
<!-- Node8 -->
<g id="node5" class="node">
<title>Node8</title>
<g id="a_node5"><a xlink:href="classAnimal.html" target="_top" xlink:title="Implementação base para o cadastro de animais. ">
<polygon fill="#ffffff" stroke="#000000" points="290.5,-365.5 290.5,-719.5 475.5,-719.5 475.5,-365.5 290.5,-365.5"/>
<text text-anchor="middle" x="383" y="-699.5" font-family="Helvetica,sans-Serif" font-size="20.00" fill="#000000">Animal</text>
<polyline fill="none" stroke="#000000" points="290.5,-689.5 475.5,-689.5 "/>
<text text-anchor="middle" x="383" y="-669.5" font-family="Helvetica,sans-Serif" font-size="20.00" fill="#000000"> </text>
<polyline fill="none" stroke="#000000" points="290.5,-659.5 475.5,-659.5 "/>
<text text-anchor="start" x="298.5" y="-639.5" font-family="Helvetica,sans-Serif" font-size="20.00" fill="#000000">+ Animal()</text>
<text text-anchor="start" x="298.5" y="-617.5" font-family="Helvetica,sans-Serif" font-size="20.00" fill="#000000">+ Animal()</text>
<text text-anchor="start" x="298.5" y="-595.5" font-family="Helvetica,sans-Serif" font-size="20.00" fill="#000000">+ ~Animal()</text>
<text text-anchor="start" x="298.5" y="-573.5" font-family="Helvetica,sans-Serif" font-size="20.00" fill="#000000">+ getNome()</text>
<text text-anchor="start" x="298.5" y="-551.5" font-family="Helvetica,sans-Serif" font-size="20.00" fill="#000000">+ getEspecie()</text>
<text text-anchor="start" x="298.5" y="-529.5" font-family="Helvetica,sans-Serif" font-size="20.00" fill="#000000">+ getAmeacadoPor()</text>
<text text-anchor="start" x="298.5" y="-507.5" font-family="Helvetica,sans-Serif" font-size="20.00" fill="#000000">+ getVeterinario()</text>
<text text-anchor="start" x="298.5" y="-485.5" font-family="Helvetica,sans-Serif" font-size="20.00" fill="#000000">+ getTratador()</text>
<text text-anchor="start" x="298.5" y="-463.5" font-family="Helvetica,sans-Serif" font-size="20.00" fill="#000000">+ getPerigoso()</text>
<text text-anchor="start" x="298.5" y="-441.5" font-family="Helvetica,sans-Serif" font-size="20.00" fill="#000000">+ getClassificacao()</text>
<text text-anchor="start" x="298.5" y="-419.5" font-family="Helvetica,sans-Serif" font-size="20.00" fill="#000000">+ getClasse()</text>
<text text-anchor="start" x="298.5" y="-397.5" font-family="Helvetica,sans-Serif" font-size="20.00" fill="#000000">+ printOutDados()</text>
<text text-anchor="start" x="298.5" y="-375.5" font-family="Helvetica,sans-Serif" font-size="20.00" fill="#000000">+ operator==()</text>
</a>
</g>
</g>
<!-- Node8&#45;&gt;Node7 -->
<g id="edge4" class="edge">
<title>Node8&#45;&gt;Node7</title>
<path fill="none" stroke="#191970" d="M285.2709,-372.9589C271.9631,-349.8725 258.8651,-327.15 247.1379,-306.8055"/>
<polygon fill="none" stroke="#191970" points="282.3527,-374.9048 290.3791,-381.8206 288.4173,-371.409 282.3527,-374.9048"/>
</g>
<!-- Node9 -->
<g id="node6" class="node">
<title>Node9</title>
<g id="a_node6"><a xlink:href="classTratador.html" target="_top" xlink:title="Implementação dos tratadores. ">
<polygon fill="#ffffff" stroke="#000000" points="401,-778.5 401,-956.5 565,-956.5 565,-778.5 401,-778.5"/>
<text text-anchor="middle" x="483" y="-936.5" font-family="Helvetica,sans-Serif" font-size="20.00" fill="#000000">Tratador</text>
<polyline fill="none" stroke="#000000" points="401,-926.5 565,-926.5 "/>
<text text-anchor="middle" x="483" y="-906.5" font-family="Helvetica,sans-Serif" font-size="20.00" fill="#000000"> </text>
<polyline fill="none" stroke="#000000" points="401,-896.5 565,-896.5 "/>
<text text-anchor="start" x="409" y="-876.5" font-family="Helvetica,sans-Serif" font-size="20.00" fill="#000000">+ Tratador()</text>
<text text-anchor="start" x="409" y="-854.5" font-family="Helvetica,sans-Serif" font-size="20.00" fill="#000000">+ Tratador()</text>
<text text-anchor="start" x="409" y="-832.5" font-family="Helvetica,sans-Serif" font-size="20.00" fill="#000000">+ ~Tratador()</text>
<text text-anchor="start" x="409" y="-810.5" font-family="Helvetica,sans-Serif" font-size="20.00" fill="#000000">+ getUniforme()</text>
<text text-anchor="start" x="409" y="-788.5" font-family="Helvetica,sans-Serif" font-size="20.00" fill="#000000">+ printOutDados()</text>
</a>
</g>
</g>
<!-- Node9&#45;&gt;Node8 -->
<g id="edge5" class="edge">
<title>Node9&#45;&gt;Node8</title>
<path fill="none" stroke="#404040" d="M455.5423,-778.2624C450.9826,-763.4435 446.1066,-747.5965 441.1199,-731.3897"/>
<polygon fill="none" stroke="#404040" points="441.0013,-731.0039 435.4136,-726.4456 437.4722,-719.5346 443.0598,-724.0929 441.0013,-731.0039"/>
<text text-anchor="middle" x="487.5" y="-744" font-family="Helvetica,sans-Serif" font-size="20.00" fill="#000000"> #tratador</text>
</g>
<!-- Node10 -->
<g id="node7" class="node">
<title>Node10</title>
<g id="a_node7"><a xlink:href="classPessoa.html" target="_top" xlink:title="Classe base dos funcionarios. ">
<polygon fill="#ffffff" stroke="#000000" points="275,-1059.5 275,-1303.5 439,-1303.5 439,-1059.5 275,-1059.5"/>
<text text-anchor="middle" x="357" y="-1283.5" font-family="Helvetica,sans-Serif" font-size="20.00" fill="#000000">Pessoa</text>
<polyline fill="none" stroke="#000000" points="275,-1273.5 439,-1273.5 "/>
<text text-anchor="middle" x="357" y="-1253.5" font-family="Helvetica,sans-Serif" font-size="20.00" fill="#000000"> </text>
<polyline fill="none" stroke="#000000" points="275,-1243.5 439,-1243.5 "/>
<text text-anchor="start" x="283" y="-1223.5" font-family="Helvetica,sans-Serif" font-size="20.00" fill="#000000">+ Pessoa()</text>
<text text-anchor="start" x="283" y="-1201.5" font-family="Helvetica,sans-Serif" font-size="20.00" fill="#000000">+ Pessoa()</text>
<text text-anchor="start" x="283" y="-1179.5" font-family="Helvetica,sans-Serif" font-size="20.00" fill="#000000">+ ~Pessoa()</text>
<text text-anchor="start" x="283" y="-1157.5" font-family="Helvetica,sans-Serif" font-size="20.00" fill="#000000">+ getNome()</text>
<text text-anchor="start" x="283" y="-1135.5" font-family="Helvetica,sans-Serif" font-size="20.00" fill="#000000">+ getTelefone()</text>
<text text-anchor="start" x="283" y="-1113.5" font-family="Helvetica,sans-Serif" font-size="20.00" fill="#000000">+ getEmail()</text>
<text text-anchor="start" x="283" y="-1091.5" font-family="Helvetica,sans-Serif" font-size="20.00" fill="#000000">+ printOutDados()</text>
<text text-anchor="start" x="283" y="-1069.5" font-family="Helvetica,sans-Serif" font-size="20.00" fill="#000000">+ operator==()</text>
</a>
</g>
</g>
<!-- Node10&#45;&gt;Node9 -->
<g id="edge6" class="edge">
<title>Node10&#45;&gt;Node9</title>
<path fill="none" stroke="#191970" d="M409.9457,-1049.556C422.4794,-1018.3213 435.558,-985.7284 447.1279,-956.8956"/>
<polygon fill="none" stroke="#191970" points="406.5516,-1048.6161 406.0757,-1059.2003 413.0481,-1051.2231 406.5516,-1048.6161"/>
</g>
<!-- Node14 -->
<g id="node11" class="node">
<title>Node14</title>
<g id="a_node11"><a xlink:href="classVeterinario.html" target="_top" xlink:title="Implementação dos veterinarios. ">
<polygon fill="#ffffff" stroke="#000000" points="219,-778.5 219,-956.5 383,-956.5 383,-778.5 219,-778.5"/>
<text text-anchor="middle" x="301" y="-936.5" font-family="Helvetica,sans-Serif" font-size="20.00" fill="#000000">Veterinario</text>
<polyline fill="none" stroke="#000000" points="219,-926.5 383,-926.5 "/>
<text text-anchor="middle" x="301" y="-906.5" font-family="Helvetica,sans-Serif" font-size="20.00" fill="#000000"> </text>
<polyline fill="none" stroke="#000000" points="219,-896.5 383,-896.5 "/>
<text text-anchor="start" x="227" y="-876.5" font-family="Helvetica,sans-Serif" font-size="20.00" fill="#000000">+ Veterinario()</text>
<text text-anchor="start" x="227" y="-854.5" font-family="Helvetica,sans-Serif" font-size="20.00" fill="#000000">+ Veterinario()</text>
<text text-anchor="start" x="227" y="-832.5" font-family="Helvetica,sans-Serif" font-size="20.00" fill="#000000">+ ~Veterinario()</text>
<text text-anchor="start" x="227" y="-810.5" font-family="Helvetica,sans-Serif" font-size="20.00" fill="#000000">+ getCRMV()</text>
<text text-anchor="start" x="227" y="-788.5" font-family="Helvetica,sans-Serif" font-size="20.00" fill="#000000">+ printOutDados()</text>
</a>
</g>
</g>
<!-- Node10&#45;&gt;Node14 -->
<g id="edge12" class="edge">
<title>Node10&#45;&gt;Node14</title>
<path fill="none" stroke="#191970" d="M333.3965,-1049.152C327.848,-1018.0404 322.0631,-985.6041 316.9432,-956.8956"/>
<polygon fill="none" stroke="#191970" points="329.9871,-1049.9702 335.1886,-1059.2003 336.8784,-1048.7411 329.9871,-1049.9702"/>
</g>
<!-- Node11 -->
<g id="node8" class="node">
<title>Node11</title>
<polygon fill="#ffffff" stroke="#bfbfbf" points="325,-1406.5 325,-1496.5 389,-1496.5 389,-1406.5 325,-1406.5"/>
<text text-anchor="middle" x="357" y="-1476.5" font-family="Helvetica,sans-Serif" font-size="20.00" fill="#000000">string</text>
<polyline fill="none" stroke="#bfbfbf" points="325,-1466.5 389,-1466.5 "/>
<text text-anchor="middle" x="357" y="-1446.5" font-family="Helvetica,sans-Serif" font-size="20.00" fill="#000000"> </text>
<polyline fill="none" stroke="#bfbfbf" points="325,-1436.5 389,-1436.5 "/>
<text text-anchor="middle" x="357" y="-1416.5" font-family="Helvetica,sans-Serif" font-size="20.00" fill="#000000"> </text>
</g>
<!-- Node11&#45;&gt;Node8 -->
<g id="edge10" class="edge">
<title>Node11&#45;&gt;Node8</title>
<path fill="none" stroke="#404040" d="M389.0902,-1438.7031C435.7738,-1418.16 520.884,-1372.9933 558,-1304 668.8061,-1098.0276 652.1563,-998.4409 574,-778 555.3562,-725.4149 519.4126,-676.0064 483.6891,-636.1571"/>
<polygon fill="none" stroke="#404040" points="483.6815,-636.1488 476.6829,-634.4111 475.5951,-627.2825 482.5937,-629.0202 483.6815,-636.1488"/>
<text text-anchor="middle" x="697.5" y="-1025" font-family="Helvetica,sans-Serif" font-size="20.00" fill="#000000"> #especie</text>
<text text-anchor="middle" x="697.5" y="-1003" font-family="Helvetica,sans-Serif" font-size="20.00" fill="#000000">#ameacadoPor</text>
<text text-anchor="middle" x="697.5" y="-981" font-family="Helvetica,sans-Serif" font-size="20.00" fill="#000000">#nome</text>
</g>
<!-- Node11&#45;&gt;Node10 -->
<g id="edge7" class="edge">
<title>Node11&#45;&gt;Node10</title>
<path fill="none" stroke="#404040" d="M357,-1406.3081C357,-1381.172 357,-1348.4339 357,-1315.7541"/>
<polygon fill="none" stroke="#404040" points="357.0001,-1315.731 353,-1309.731 357,-1303.731 361,-1309.7309 357.0001,-1315.731"/>
<text text-anchor="middle" x="395.5" y="-1372" font-family="Helvetica,sans-Serif" font-size="20.00" fill="#000000"> #email</text>
<text text-anchor="middle" x="395.5" y="-1350" font-family="Helvetica,sans-Serif" font-size="20.00" fill="#000000">#nome</text>
<text text-anchor="middle" x="395.5" y="-1328" font-family="Helvetica,sans-Serif" font-size="20.00" fill="#000000">#telefone</text>
</g>
<!-- Node11&#45;&gt;Node14 -->
<g id="edge13" class="edge">
<title>Node11&#45;&gt;Node14</title>
<path fill="none" stroke="#404040" d="M324.9666,-1432.9277C286.9124,-1408.7894 225.3919,-1362.6955 200,-1304 156.7664,-1204.0618 173.8346,-1164.6984 200,-1059 207.7285,-1027.7796 221.5746,-996.035 236.5853,-967.6047"/>
<polygon fill="none" stroke="#404040" points="236.6772,-967.4345 236.0125,-960.254 242.3849,-956.8787 243.0496,-964.0592 236.6772,-967.4345"/>
<text text-anchor="middle" x="233" y="-1176.5" font-family="Helvetica,sans-Serif" font-size="20.00" fill="#000000"> &#45;CRMV</text>
</g>
<!-- Node12 -->
<g id="node9" class="node">
<title>Node12</title>
<polygon fill="#ffffff" stroke="#bfbfbf" points="457,-1136.5 457,-1226.5 549,-1226.5 549,-1136.5 457,-1136.5"/>
<text text-anchor="middle" x="503" y="-1206.5" font-family="Helvetica,sans-Serif" font-size="20.00" fill="#000000">Uniforme</text>
<polyline fill="none" stroke="#bfbfbf" points="457,-1196.5 549,-1196.5 "/>
<text text-anchor="middle" x="503" y="-1176.5" font-family="Helvetica,sans-Serif" font-size="20.00" fill="#000000"> </text>
<polyline fill="none" stroke="#bfbfbf" points="457,-1166.5 549,-1166.5 "/>
<text text-anchor="middle" x="503" y="-1146.5" font-family="Helvetica,sans-Serif" font-size="20.00" fill="#000000"> </text>
</g>
<!-- Node12&#45;&gt;Node9 -->
<g id="edge8" class="edge">
<title>Node12&#45;&gt;Node9</title>
<path fill="none" stroke="#404040" d="M496.8089,-1136.353C493.2991,-1108.8494 489.1839,-1072.9632 487,-1041 485.4084,-1017.7063 484.4139,-992.617 483.8008,-968.9536"/>
<polygon fill="none" stroke="#404040" points="483.7954,-968.7229 479.6557,-962.8185 483.5138,-956.7263 487.6535,-962.6307 483.7954,-968.7229"/>
<text text-anchor="middle" x="529" y="-1003" font-family="Helvetica,sans-Serif" font-size="20.00" fill="#000000"> &#45;uniforme</text>
</g>
<!-- Node13 -->
<g id="node10" class="node">
<title>Node13</title>
<polygon fill="#ffffff" stroke="#bfbfbf" points="149.5,-822.5 149.5,-912.5 200.5,-912.5 200.5,-822.5 149.5,-822.5"/>
<text text-anchor="middle" x="175" y="-892.5" font-family="Helvetica,sans-Serif" font-size="20.00" fill="#000000">bool</text>
<polyline fill="none" stroke="#bfbfbf" points="149.5,-882.5 200.5,-882.5 "/>
<text text-anchor="middle" x="175" y="-862.5" font-family="Helvetica,sans-Serif" font-size="20.00" fill="#000000"> </text>
<polyline fill="none" stroke="#bfbfbf" points="149.5,-852.5 200.5,-852.5 "/>
<text text-anchor="middle" x="175" y="-832.5" font-family="Helvetica,sans-Serif" font-size="20.00" fill="#000000"> </text>
</g>
<!-- Node13&#45;&gt;Node7 -->
<g id="edge14" class="edge">
<title>Node13&#45;&gt;Node7</title>
<path fill="none" stroke="#404040" d="M174.3282,-822.384C173.3642,-734.3194 172.8705,-533.4058 185,-365 186.0762,-350.058 187.6457,-334.2427 189.4022,-318.8792"/>
<polygon fill="none" stroke="#404040" points="189.4355,-318.5972 186.168,-312.1688 190.8451,-306.6802 194.1126,-313.1086 189.4355,-318.5972"/>
<text text-anchor="middle" x="233.5" y="-537.5" font-family="Helvetica,sans-Serif" font-size="20.00" fill="#000000"> #adestrado</text>
</g>
<!-- Node13&#45;&gt;Node8 -->
<g id="edge9" class="edge">
<title>Node13&#45;&gt;Node8</title>
<path fill="none" stroke="#404040" d="M190.1004,-822.332C195.6215,-807.8203 202.4006,-791.9092 210,-778 220.5283,-758.7301 222.1789,-752.1146 239,-738 253.0087,-726.2452 262.5022,-732.3381 276,-720 277.996,-718.1755 279.9671,-716.3051 281.9129,-714.3931"/>
<polygon fill="none" stroke="#404040" points="281.9312,-714.3742 283.2341,-707.2817 290.2821,-705.7565 288.9792,-712.849 281.9312,-714.3742"/>
<text text-anchor="middle" x="282" y="-744" font-family="Helvetica,sans-Serif" font-size="20.00" fill="#000000"> #perigoso</text>
</g>
<!-- Node14&#45;&gt;Node8 -->
<g id="edge11" class="edge">
<title>Node14&#45;&gt;Node8</title>
<path fill="none" stroke="#404040" d="M323.5153,-778.2624C327.2542,-763.4435 331.2526,-747.5965 335.3417,-731.3897"/>
<polygon fill="none" stroke="#404040" points="335.397,-731.17 332.9865,-724.3737 338.3328,-719.5346 340.7434,-726.3309 335.397,-731.17"/>
<text text-anchor="middle" x="383.5" y="-744" font-family="Helvetica,sans-Serif" font-size="20.00" fill="#000000"> #veterinario</text>
</g>
</g>
</svg>
        <g id="navigator" transform="translate(0 0)" fill="#404254">
                <rect fill="#f2f5e9" fill-opacity="0.5" stroke="#606060" stroke-width=".5" x="0" y="0" width="60" height="60"/>
                <use id="zoomplus" xlink:href="#zoomPlus" x="17" y="9" onmousedown="handleZoom(evt,'in')"/>
                <use id="zoomminus" xlink:href="#zoomMin" x="42" y="9" onmousedown="handleZoom(evt,'out')"/>
                <use id="reset" xlink:href="#resetDef" x="30" y="36" onmousedown="handleReset()"/>
                <g id="arrowUp" xlink:href="#dirArrow" transform="translate(30 24)" onmousedown="handlePan(0,-1)">
                  <use xlink:href="#rim" fill="#404040">
                        <set attributeName="fill" to="#808080" begin="arrowUp.mouseover" end="arrowUp.mouseout"/>
                  </use>
                  <path fill="none" stroke="white" stroke-width="1.5" d="M0,-3.0v7 M-2.5,-0.5L0,-3.0L2.5,-0.5"/>
                </g>
                <g id="arrowRight" xlink:href="#dirArrow" transform="rotate(90) translate(36 -43)" onmousedown="handlePan(1,0)">
                  <use xlink:href="#rim" fill="#404040">
                        <set attributeName="fill" to="#808080" begin="arrowRight.mouseover" end="arrowRight.mouseout"/>
                  </use>
                  <path fill="none" stroke="white" stroke-width="1.5" d="M0,-3.0v7 M-2.5,-0.5L0,-3.0L2.5,-0.5"/>
                </g>
                <g id="arrowDown" xlink:href="#dirArrow" transform="rotate(180) translate(-30 -48)" onmousedown="handlePan(0,1)">
                  <use xlink:href="#rim" fill="#404040">
                        <set attributeName="fill" to="#808080" begin="arrowDown.mouseover" end="arrowDown.mouseout"/>
                  </use>
                  <path fill="none" stroke="white" stroke-width="1.5" d="M0,-3.0v7 M-2.5,-0.5L0,-3.0L2.5,-0.5"/>
                </g>
                <g id="arrowLeft" xlink:href="#dirArrow" transform="rotate(270) translate(-36 17)" onmousedown="handlePan(-1,0)">
                  <use xlink:href="#rim" fill="#404040">
                        <set attributeName="fill" to="#808080" begin="arrowLeft.mouseover" end="arrowLeft.mouseout"/>
                  </use>
                  <path fill="none" stroke="white" stroke-width="1.5" d="M0,-3.0v7 M-2.5,-0.5L0,-3.0L2.5,-0.5"/>
                </g>
        </g>
        <svg viewBox="0 0 15 15" width="100%" height="30px" preserveAspectRatio="xMaxYMin meet">
         <g id="arrow_out" transform="scale(0.3 0.3)">
          <a xlink:href="classReptilDomestico__coll__graph_org.svg" target="_base">
           <rect id="button" ry="5" rx="5" y="6" x="6" height="38" width="38"
                fill="#f2f5e9" fill-opacity="0.5" stroke="#606060" stroke-width="1.0"/>
           <path id="arrow"
             d="M 11.500037,31.436501 C 11.940474,20.09759 22.043105,11.32322 32.158766,21.979434 L 37.068811,17.246167 C 37.068811,17.246167 37.088388,32 37.088388,32 L 22.160133,31.978069 C 22.160133,31.978069 26.997745,27.140456 26.997745,27.140456 C 18.528582,18.264221 13.291696,25.230495 11.500037,31.436501 z"
             style="fill:#404040;"/>
          </a>
         </g>
        </svg>
</svg>
