<?xml version="1.0" encoding="UTF-8" standalone="no"?>
<!DOCTYPE svg PUBLIC "-//W3C//DTD SVG 1.1//EN"
 "http://www.w3.org/Graphics/SVG/1.1/DTD/svg11.dtd">
<!-- Generated by graphviz version 2.43.0 (0)
 -->
<!-- Title: Reptil Pages: 1 -->
<svg width="664pt" height="903pt"
 viewBox="0.00 0.00 664.00 903.00" xmlns="http://www.w3.org/2000/svg" xmlns:xlink="http://www.w3.org/1999/xlink">
<g id="graph0" class="graph" transform="scale(1 1) rotate(0) translate(4 899)">
<title>Reptil</title>
<polygon fill="white" stroke="transparent" points="-4,4 -4,-899 660,-899 660,4 -4,4"/>
<!-- Node1 -->
<g id="node1" class="node">
<title>Node1</title>
<g id="a_node1"><a xlink:title="Classificação base para Repteis.">
<polygon fill="#bfbfbf" stroke="black" points="285.5,-171.5 285.5,-371.5 412.5,-371.5 412.5,-171.5 285.5,-171.5"/>
<text text-anchor="middle" x="349" y="-351.5" font-family="Helvetica,sans-Serif" font-size="20.00">Reptil</text>
<polyline fill="none" stroke="black" points="285.5,-341.5 412.5,-341.5 "/>
<text text-anchor="start" x="293.5" y="-321.5" font-family="Helvetica,sans-Serif" font-size="20.00"># pele</text>
<polyline fill="none" stroke="black" points="285.5,-311.5 412.5,-311.5 "/>
<text text-anchor="start" x="293.5" y="-291.5" font-family="Helvetica,sans-Serif" font-size="20.00">+ Reptil()</text>
<text text-anchor="start" x="293.5" y="-269.5" font-family="Helvetica,sans-Serif" font-size="20.00">+ Reptil()</text>
<text text-anchor="start" x="293.5" y="-247.5" font-family="Helvetica,sans-Serif" font-size="20.00">+ ~Reptil()</text>
<text text-anchor="start" x="293.5" y="-225.5" font-family="Helvetica,sans-Serif" font-size="20.00">+ getPele()</text>
<text text-anchor="start" x="293.5" y="-203.5" font-family="Helvetica,sans-Serif" font-size="20.00">+ setPele()</text>
<text text-anchor="start" x="293.5" y="-181.5" font-family="Helvetica,sans-Serif" font-size="20.00">+ setPele()</text>
</a>
</g>
</g>
<!-- Node3 -->
<g id="node3" class="node">
<title>Node3</title>
<g id="a_node3"><a xlink:href="classReptilDomestico.html" target="_top" xlink:title="Implementação de animal com Classe e Categoria.">
<polygon fill="white" stroke="black" points="0,-0.5 0,-134.5 232,-134.5 232,-0.5 0,-0.5"/>
<text text-anchor="middle" x="116" y="-114.5" font-family="Helvetica,sans-Serif" font-size="20.00">ReptilDomestico</text>
<polyline fill="none" stroke="black" points="0,-104.5 232,-104.5 "/>
<text text-anchor="middle" x="116" y="-84.5" font-family="Helvetica,sans-Serif" font-size="20.00"> </text>
<polyline fill="none" stroke="black" points="0,-74.5 232,-74.5 "/>
<text text-anchor="start" x="8" y="-54.5" font-family="Helvetica,sans-Serif" font-size="20.00">+ ReptilDomestico()</text>
<text text-anchor="start" x="8" y="-32.5" font-family="Helvetica,sans-Serif" font-size="20.00">+ ReptilDomestico()</text>
<text text-anchor="start" x="8" y="-10.5" font-family="Helvetica,sans-Serif" font-size="20.00">+ ~ReptilDomestico()</text>
</a>
</g>
</g>
<!-- Node1&#45;&gt;Node3 -->
<g id="edge2" class="edge">
<title>Node1&#45;&gt;Node3</title>
<path fill="none" stroke="midnightblue" d="M277.47,-208.49C250.53,-185.13 219.8,-158.49 192.43,-134.76"/>
<polygon fill="none" stroke="midnightblue" points="275.48,-211.4 285.33,-215.3 280.07,-206.11 275.48,-211.4"/>
</g>
<!-- Node4 -->
<g id="node4" class="node">
<title>Node4</title>
<g id="a_node4"><a xlink:href="classReptilExotico.html" target="_top" xlink:title="Implementação de animal com Classe e Categoria.">
<polygon fill="white" stroke="black" points="250,-0.5 250,-134.5 448,-134.5 448,-0.5 250,-0.5"/>
<text text-anchor="middle" x="349" y="-114.5" font-family="Helvetica,sans-Serif" font-size="20.00">ReptilExotico</text>
<polyline fill="none" stroke="black" points="250,-104.5 448,-104.5 "/>
<text text-anchor="middle" x="349" y="-84.5" font-family="Helvetica,sans-Serif" font-size="20.00"> </text>
<polyline fill="none" stroke="black" points="250,-74.5 448,-74.5 "/>
<text text-anchor="start" x="258" y="-54.5" font-family="Helvetica,sans-Serif" font-size="20.00">+ ReptilExotico()</text>
<text text-anchor="start" x="258" y="-32.5" font-family="Helvetica,sans-Serif" font-size="20.00">+ ReptilExotico()</text>
<text text-anchor="start" x="258" y="-10.5" font-family="Helvetica,sans-Serif" font-size="20.00">+ ~ReptilExotico()</text>
</a>
</g>
</g>
<!-- Node1&#45;&gt;Node4 -->
<g id="edge3" class="edge">
<title>Node1&#45;&gt;Node4</title>
<path fill="none" stroke="midnightblue" d="M349,-161.05C349,-152.02 349,-143.07 349,-134.51"/>
<polygon fill="none" stroke="midnightblue" points="345.5,-161.28 349,-171.28 352.5,-161.28 345.5,-161.28"/>
</g>
<!-- Node5 -->
<g id="node5" class="node">
<title>Node5</title>
<g id="a_node5"><a xlink:href="classReptilNativo.html" target="_top" xlink:title="Implementação de animal com Classe e Categoria.">
<polygon fill="white" stroke="black" points="466,-0.5 466,-134.5 656,-134.5 656,-0.5 466,-0.5"/>
<text text-anchor="middle" x="561" y="-114.5" font-family="Helvetica,sans-Serif" font-size="20.00">ReptilNativo</text>
<polyline fill="none" stroke="black" points="466,-104.5 656,-104.5 "/>
<text text-anchor="middle" x="561" y="-84.5" font-family="Helvetica,sans-Serif" font-size="20.00"> </text>
<polyline fill="none" stroke="black" points="466,-74.5 656,-74.5 "/>
<text text-anchor="start" x="474" y="-54.5" font-family="Helvetica,sans-Serif" font-size="20.00">+ ReptilNativo()</text>
<text text-anchor="start" x="474" y="-32.5" font-family="Helvetica,sans-Serif" font-size="20.00">+ ReptilNativo()</text>
<text text-anchor="start" x="474" y="-10.5" font-family="Helvetica,sans-Serif" font-size="20.00">+ ~ReptilNativo()</text>
</a>
</g>
</g>
<!-- Node1&#45;&gt;Node5 -->
<g id="edge4" class="edge">
<title>Node1&#45;&gt;Node5</title>
<path fill="none" stroke="midnightblue" d="M420,-202.85C443.05,-180.89 468.58,-156.56 491.52,-134.7"/>
<polygon fill="none" stroke="midnightblue" points="417.43,-200.46 412.61,-209.89 422.26,-205.53 417.43,-200.46"/>
</g>
<!-- Node2 -->
<g id="node2" class="node">
<title>Node2</title>
<g id="a_node2"><a xlink:href="classAnimal.html" target="_top" xlink:title="Implementação base para o cadastro de animais.">
<polygon fill="white" stroke="black" points="237.5,-408.5 237.5,-894.5 460.5,-894.5 460.5,-408.5 237.5,-408.5"/>
<text text-anchor="middle" x="349" y="-874.5" font-family="Helvetica,sans-Serif" font-size="20.00">Animal</text>
<polyline fill="none" stroke="black" points="237.5,-864.5 460.5,-864.5 "/>
<text text-anchor="start" x="245.5" y="-844.5" font-family="Helvetica,sans-Serif" font-size="20.00"># nome</text>
<text text-anchor="start" x="245.5" y="-822.5" font-family="Helvetica,sans-Serif" font-size="20.00"># especie</text>
<text text-anchor="start" x="245.5" y="-800.5" font-family="Helvetica,sans-Serif" font-size="20.00"># ameacadoPor</text>
<text text-anchor="start" x="245.5" y="-778.5" font-family="Helvetica,sans-Serif" font-size="20.00"># veterinario</text>
<text text-anchor="start" x="245.5" y="-756.5" font-family="Helvetica,sans-Serif" font-size="20.00"># tratador</text>
<text text-anchor="start" x="245.5" y="-734.5" font-family="Helvetica,sans-Serif" font-size="20.00"># perigoso</text>
<polyline fill="none" stroke="black" points="237.5,-724.5 460.5,-724.5 "/>
<text text-anchor="start" x="245.5" y="-704.5" font-family="Helvetica,sans-Serif" font-size="20.00">+ Animal()</text>
<text text-anchor="start" x="245.5" y="-682.5" font-family="Helvetica,sans-Serif" font-size="20.00">+ Animal()</text>
<text text-anchor="start" x="245.5" y="-660.5" font-family="Helvetica,sans-Serif" font-size="20.00">+ ~Animal()</text>
<text text-anchor="start" x="245.5" y="-638.5" font-family="Helvetica,sans-Serif" font-size="20.00">+ getNome()</text>
<text text-anchor="start" x="245.5" y="-616.5" font-family="Helvetica,sans-Serif" font-size="20.00">+ getEspecie()</text>
<text text-anchor="start" x="245.5" y="-594.5" font-family="Helvetica,sans-Serif" font-size="20.00">+ getAmeacadoPor()</text>
<text text-anchor="start" x="245.5" y="-572.5" font-family="Helvetica,sans-Serif" font-size="20.00">+ getVeterinario()</text>
<text text-anchor="start" x="245.5" y="-550.5" font-family="Helvetica,sans-Serif" font-size="20.00">+ getTratador()</text>
<text text-anchor="start" x="245.5" y="-528.5" font-family="Helvetica,sans-Serif" font-size="20.00">+ getPerigoso()</text>
<text text-anchor="start" x="245.5" y="-506.5" font-family="Helvetica,sans-Serif" font-size="20.00">+ setNome()</text>
<text text-anchor="start" x="245.5" y="-484.5" font-family="Helvetica,sans-Serif" font-size="20.00">e 13 mais...</text>
<text text-anchor="start" x="245.5" y="-462.5" font-family="Helvetica,sans-Serif" font-size="20.00">+ getClassificacao()</text>
<text text-anchor="start" x="245.5" y="-440.5" font-family="Helvetica,sans-Serif" font-size="20.00">+ getClasse()</text>
<text text-anchor="start" x="245.5" y="-418.5" font-family="Helvetica,sans-Serif" font-size="20.00">+ printOutDetails()</text>
</a>
</g>
</g>
<!-- Node2&#45;&gt;Node1 -->
<g id="edge1" class="edge">
<title>Node2&#45;&gt;Node1</title>
<path fill="none" stroke="midnightblue" d="M349,-398.4C349,-389.22 349,-380.28 349,-371.65"/>
<polygon fill="none" stroke="midnightblue" points="345.5,-398.43 349,-408.43 352.5,-398.43 345.5,-398.43"/>
</g>
</g>
</svg>
