<?xml version="1.0" encoding="UTF-8" standalone="no"?>
<!DOCTYPE svg PUBLIC "-//W3C//DTD SVG 1.1//EN"
 "http://www.w3.org/Graphics/SVG/1.1/DTD/svg11.dtd">
<!-- Generated by graphviz version 2.43.0 (0)
 -->
<!-- Title: Anfibio Pages: 1 -->
<svg width="729pt" height="1576pt"
 viewBox="0.00 0.00 729.35 1576.00" xmlns="http://www.w3.org/2000/svg" xmlns:xlink="http://www.w3.org/1999/xlink">
<g id="graph0" class="graph" transform="scale(1 1) rotate(0) translate(4 1572)">
<title>Anfibio</title>
<polygon fill="white" stroke="transparent" points="-4,4 -4,-1572 725.35,-1572 725.35,4 -4,4"/>
<!-- Node1 -->
<g id="node1" class="node">
<title>Node1</title>
<g id="a_node1"><a xlink:title="Classificação base para Anfibios.">
<polygon fill="#bfbfbf" stroke="black" points="504.35,-0.5 504.35,-266.5 654.35,-266.5 654.35,-0.5 504.35,-0.5"/>
<text text-anchor="middle" x="579.35" y="-246.5" font-family="Helvetica,sans-Serif" font-size="20.00">Anfibio</text>
<polyline fill="none" stroke="black" points="504.35,-236.5 654.35,-236.5 "/>
<text text-anchor="middle" x="579.35" y="-216.5" font-family="Helvetica,sans-Serif" font-size="20.00"> </text>
<polyline fill="none" stroke="black" points="504.35,-206.5 654.35,-206.5 "/>
<text text-anchor="start" x="512.35" y="-186.5" font-family="Helvetica,sans-Serif" font-size="20.00">+ Anfibio()</text>
<text text-anchor="start" x="512.35" y="-164.5" font-family="Helvetica,sans-Serif" font-size="20.00">+ Anfibio()</text>
<text text-anchor="start" x="512.35" y="-142.5" font-family="Helvetica,sans-Serif" font-size="20.00">+ ~Anfibio()</text>
<text text-anchor="start" x="512.35" y="-120.5" font-family="Helvetica,sans-Serif" font-size="20.00">+ getCauda()</text>
<text text-anchor="start" x="512.35" y="-98.5" font-family="Helvetica,sans-Serif" font-size="20.00">+ setCauda()</text>
<text text-anchor="start" x="512.35" y="-76.5" font-family="Helvetica,sans-Serif" font-size="20.00">+ setCauda()</text>
<text text-anchor="start" x="512.35" y="-54.5" font-family="Helvetica,sans-Serif" font-size="20.00">+ getPata()</text>
<text text-anchor="start" x="512.35" y="-32.5" font-family="Helvetica,sans-Serif" font-size="20.00">+ setPata()</text>
<text text-anchor="start" x="512.35" y="-10.5" font-family="Helvetica,sans-Serif" font-size="20.00">+ setPata()</text>
</a>
</g>
</g>
<!-- Node2 -->
<g id="node2" class="node">
<title>Node2</title>
<g id="a_node2"><a xlink:href="classAnimal.html" target="_top" xlink:title="Implementação base para o cadastro de animais.">
<polygon fill="white" stroke="black" points="389.85,-304.5 389.85,-614.5 612.85,-614.5 612.85,-304.5 389.85,-304.5"/>
<text text-anchor="middle" x="501.35" y="-594.5" font-family="Helvetica,sans-Serif" font-size="20.00">Animal</text>
<polyline fill="none" stroke="black" points="389.85,-584.5 612.85,-584.5 "/>
<text text-anchor="middle" x="501.35" y="-564.5" font-family="Helvetica,sans-Serif" font-size="20.00"> </text>
<polyline fill="none" stroke="black" points="389.85,-554.5 612.85,-554.5 "/>
<text text-anchor="start" x="397.85" y="-534.5" font-family="Helvetica,sans-Serif" font-size="20.00">+ Animal()</text>
<text text-anchor="start" x="397.85" y="-512.5" font-family="Helvetica,sans-Serif" font-size="20.00">+ Animal()</text>
<text text-anchor="start" x="397.85" y="-490.5" font-family="Helvetica,sans-Serif" font-size="20.00">+ ~Animal()</text>
<text text-anchor="start" x="397.85" y="-468.5" font-family="Helvetica,sans-Serif" font-size="20.00">+ getNome()</text>
<text text-anchor="start" x="397.85" y="-446.5" font-family="Helvetica,sans-Serif" font-size="20.00">+ getEspecie()</text>
<text text-anchor="start" x="397.85" y="-424.5" font-family="Helvetica,sans-Serif" font-size="20.00">+ getAmeacadoPor()</text>
<text text-anchor="start" x="397.85" y="-402.5" font-family="Helvetica,sans-Serif" font-size="20.00">+ getVeterinario()</text>
<text text-anchor="start" x="397.85" y="-380.5" font-family="Helvetica,sans-Serif" font-size="20.00">+ getTratador()</text>
<text text-anchor="start" x="397.85" y="-358.5" font-family="Helvetica,sans-Serif" font-size="20.00">+ getPerigoso()</text>
<text text-anchor="start" x="397.85" y="-336.5" font-family="Helvetica,sans-Serif" font-size="20.00">+ setNome()</text>
<text text-anchor="start" x="397.85" y="-314.5" font-family="Helvetica,sans-Serif" font-size="20.00">e 15 mais...</text>
</a>
</g>
</g>
<!-- Node2&#45;&gt;Node1 -->
<g id="edge1" class="edge">
<title>Node2&#45;&gt;Node1</title>
<path fill="none" stroke="midnightblue" d="M540.93,-294.08C543.15,-284.86 545.37,-275.64 547.56,-266.56"/>
<polygon fill="none" stroke="midnightblue" points="537.46,-293.55 538.52,-304.09 544.27,-295.19 537.46,-293.55"/>
</g>
<!-- Node3 -->
<g id="node3" class="node">
<title>Node3</title>
<g id="a_node3"><a xlink:href="classTratador.html" target="_top" xlink:title="Implementação dos tratadores.">
<polygon fill="white" stroke="black" points="273.35,-673.5 273.35,-895.5 473.35,-895.5 473.35,-673.5 273.35,-673.5"/>
<text text-anchor="middle" x="373.35" y="-875.5" font-family="Helvetica,sans-Serif" font-size="20.00">Tratador</text>
<polyline fill="none" stroke="black" points="273.35,-865.5 473.35,-865.5 "/>
<text text-anchor="middle" x="373.35" y="-845.5" font-family="Helvetica,sans-Serif" font-size="20.00"> </text>
<polyline fill="none" stroke="black" points="273.35,-835.5 473.35,-835.5 "/>
<text text-anchor="start" x="281.35" y="-815.5" font-family="Helvetica,sans-Serif" font-size="20.00">+ Tratador()</text>
<text text-anchor="start" x="281.35" y="-793.5" font-family="Helvetica,sans-Serif" font-size="20.00">+ Tratador()</text>
<text text-anchor="start" x="281.35" y="-771.5" font-family="Helvetica,sans-Serif" font-size="20.00">+ ~Tratador()</text>
<text text-anchor="start" x="281.35" y="-749.5" font-family="Helvetica,sans-Serif" font-size="20.00">+ getUniforme()</text>
<text text-anchor="start" x="281.35" y="-727.5" font-family="Helvetica,sans-Serif" font-size="20.00">+ setUniforme()</text>
<text text-anchor="start" x="281.35" y="-705.5" font-family="Helvetica,sans-Serif" font-size="20.00">+ setUniforme()</text>
<text text-anchor="start" x="281.35" y="-683.5" font-family="Helvetica,sans-Serif" font-size="20.00">+ printOutDados()</text>
</a>
</g>
</g>
<!-- Node3&#45;&gt;Node2 -->
<g id="edge2" class="edge">
<title>Node3&#45;&gt;Node2</title>
<path fill="none" stroke="#404040" d="M374.72,-673.22C376.83,-659.45 379.92,-645.74 384.35,-633 385.19,-630.6 386.06,-628.2 386.98,-625.8"/>
<polygon fill="none" stroke="#404040" points="387.01,-625.72 385.58,-618.65 391.55,-614.61 392.98,-621.67 387.01,-625.72"/>
<text text-anchor="middle" x="435.85" y="-639" font-family="Helvetica,sans-Serif" font-size="20.00"> #tratador</text>
</g>
<!-- Node4 -->
<g id="node4" class="node">
<title>Node4</title>
<g id="a_node4"><a xlink:href="classPessoa.html" target="_top" xlink:title="Classe base dos funcionarios.">
<polygon fill="white" stroke="black" points="125.35,-998.5 125.35,-1374.5 325.35,-1374.5 325.35,-998.5 125.35,-998.5"/>
<text text-anchor="middle" x="225.35" y="-1354.5" font-family="Helvetica,sans-Serif" font-size="20.00">Pessoa</text>
<polyline fill="none" stroke="black" points="125.35,-1344.5 325.35,-1344.5 "/>
<text text-anchor="middle" x="225.35" y="-1324.5" font-family="Helvetica,sans-Serif" font-size="20.00"> </text>
<polyline fill="none" stroke="black" points="125.35,-1314.5 325.35,-1314.5 "/>
<text text-anchor="start" x="133.35" y="-1294.5" font-family="Helvetica,sans-Serif" font-size="20.00">+ Pessoa()</text>
<text text-anchor="start" x="133.35" y="-1272.5" font-family="Helvetica,sans-Serif" font-size="20.00">+ Pessoa()</text>
<text text-anchor="start" x="133.35" y="-1250.5" font-family="Helvetica,sans-Serif" font-size="20.00">+ ~Pessoa()</text>
<text text-anchor="start" x="133.35" y="-1228.5" font-family="Helvetica,sans-Serif" font-size="20.00">+ getNome()</text>
<text text-anchor="start" x="133.35" y="-1206.5" font-family="Helvetica,sans-Serif" font-size="20.00">+ setNome()</text>
<text text-anchor="start" x="133.35" y="-1184.5" font-family="Helvetica,sans-Serif" font-size="20.00">+ setNome()</text>
<text text-anchor="start" x="133.35" y="-1162.5" font-family="Helvetica,sans-Serif" font-size="20.00">+ getTelefone()</text>
<text text-anchor="start" x="133.35" y="-1140.5" font-family="Helvetica,sans-Serif" font-size="20.00">+ setTelefone()</text>
<text text-anchor="start" x="133.35" y="-1118.5" font-family="Helvetica,sans-Serif" font-size="20.00">+ setTelefone()</text>
<text text-anchor="start" x="133.35" y="-1096.5" font-family="Helvetica,sans-Serif" font-size="20.00">+ getEmail()</text>
<text text-anchor="start" x="133.35" y="-1074.5" font-family="Helvetica,sans-Serif" font-size="20.00">+ setEmail()</text>
<text text-anchor="start" x="133.35" y="-1052.5" font-family="Helvetica,sans-Serif" font-size="20.00">+ setEmail()</text>
<text text-anchor="start" x="133.35" y="-1030.5" font-family="Helvetica,sans-Serif" font-size="20.00">+ printOutDados()</text>
<text text-anchor="start" x="133.35" y="-1008.5" font-family="Helvetica,sans-Serif" font-size="20.00">+ operator==()</text>
</a>
</g>
</g>
<!-- Node4&#45;&gt;Node3 -->
<g id="edge3" class="edge">
<title>Node4&#45;&gt;Node3</title>
<path fill="none" stroke="midnightblue" d="M298.1,-988.89C309.96,-956.82 321.87,-924.63 332.6,-895.63"/>
<polygon fill="none" stroke="midnightblue" points="294.77,-987.79 294.58,-998.38 301.34,-990.22 294.77,-987.79"/>
</g>
<!-- Node8 -->
<g id="node8" class="node">
<title>Node8</title>
<g id="a_node8"><a xlink:href="classVeterinario.html" target="_top" xlink:title="Implementação dos veterinarios.">
<polygon fill="white" stroke="black" points="55.35,-673.5 55.35,-895.5 255.35,-895.5 255.35,-673.5 55.35,-673.5"/>
<text text-anchor="middle" x="155.35" y="-875.5" font-family="Helvetica,sans-Serif" font-size="20.00">Veterinario</text>
<polyline fill="none" stroke="black" points="55.35,-865.5 255.35,-865.5 "/>
<text text-anchor="middle" x="155.35" y="-845.5" font-family="Helvetica,sans-Serif" font-size="20.00"> </text>
<polyline fill="none" stroke="black" points="55.35,-835.5 255.35,-835.5 "/>
<text text-anchor="start" x="63.35" y="-815.5" font-family="Helvetica,sans-Serif" font-size="20.00">+ Veterinario()</text>
<text text-anchor="start" x="63.35" y="-793.5" font-family="Helvetica,sans-Serif" font-size="20.00">+ Veterinario()</text>
<text text-anchor="start" x="63.35" y="-771.5" font-family="Helvetica,sans-Serif" font-size="20.00">+ ~Veterinario()</text>
<text text-anchor="start" x="63.35" y="-749.5" font-family="Helvetica,sans-Serif" font-size="20.00">+ getCRMV()</text>
<text text-anchor="start" x="63.35" y="-727.5" font-family="Helvetica,sans-Serif" font-size="20.00">+ setCRMV()</text>
<text text-anchor="start" x="63.35" y="-705.5" font-family="Helvetica,sans-Serif" font-size="20.00">+ setCRMV()</text>
<text text-anchor="start" x="63.35" y="-683.5" font-family="Helvetica,sans-Serif" font-size="20.00">+ printOutDados()</text>
</a>
</g>
</g>
<!-- Node4&#45;&gt;Node8 -->
<g id="edge9" class="edge">
<title>Node4&#45;&gt;Node8</title>
<path fill="none" stroke="midnightblue" d="M190.87,-988.48C185.28,-956.55 179.68,-924.51 174.62,-895.63"/>
<polygon fill="none" stroke="midnightblue" points="187.43,-989.14 192.61,-998.38 194.33,-987.93 187.43,-989.14"/>
</g>
<!-- Node5 -->
<g id="node5" class="node">
<title>Node5</title>
<g id="a_node5"><a xlink:title=" ">
<polygon fill="white" stroke="#bfbfbf" points="188.35,-1477.5 188.35,-1567.5 262.35,-1567.5 262.35,-1477.5 188.35,-1477.5"/>
<text text-anchor="middle" x="225.35" y="-1547.5" font-family="Helvetica,sans-Serif" font-size="20.00">string</text>
<polyline fill="none" stroke="#bfbfbf" points="188.35,-1537.5 262.35,-1537.5 "/>
<text text-anchor="middle" x="225.35" y="-1517.5" font-family="Helvetica,sans-Serif" font-size="20.00"> </text>
<polyline fill="none" stroke="#bfbfbf" points="188.35,-1507.5 262.35,-1507.5 "/>
<text text-anchor="middle" x="225.35" y="-1487.5" font-family="Helvetica,sans-Serif" font-size="20.00"> </text>
</a>
</g>
</g>
<!-- Node5&#45;&gt;Node2 -->
<g id="edge7" class="edge">
<title>Node5&#45;&gt;Node2</title>
<path fill="none" stroke="#404040" d="M262.56,-1510.43C316.72,-1492.12 415.57,-1449.89 459.35,-1375 531.01,-1252.42 523.1,-855.45 511.78,-626.84"/>
<polygon fill="none" stroke="#404040" points="511.78,-626.72 507.48,-620.92 511.17,-614.73 515.47,-620.52 511.78,-626.72"/>
<text text-anchor="middle" x="595.35" y="-964" font-family="Helvetica,sans-Serif" font-size="20.00"> #especie</text>
<text text-anchor="middle" x="595.35" y="-942" font-family="Helvetica,sans-Serif" font-size="20.00">#ameacadoPor</text>
<text text-anchor="middle" x="595.35" y="-920" font-family="Helvetica,sans-Serif" font-size="20.00">#nome</text>
</g>
<!-- Node5&#45;&gt;Node4 -->
<g id="edge4" class="edge">
<title>Node5&#45;&gt;Node4</title>
<path fill="none" stroke="#404040" d="M225.35,-1477.49C225.35,-1453.09 225.35,-1420.83 225.35,-1386.7"/>
<polygon fill="none" stroke="#404040" points="225.35,-1386.56 221.35,-1380.56 225.35,-1374.56 229.35,-1380.56 225.35,-1386.56"/>
<text text-anchor="middle" x="273.85" y="-1443" font-family="Helvetica,sans-Serif" font-size="20.00"> #email</text>
<text text-anchor="middle" x="273.85" y="-1421" font-family="Helvetica,sans-Serif" font-size="20.00">#nome</text>
<text text-anchor="middle" x="273.85" y="-1399" font-family="Helvetica,sans-Serif" font-size="20.00">#telefone</text>
</g>
<!-- Node5&#45;&gt;Node8 -->
<g id="edge10" class="edge">
<title>Node5&#45;&gt;Node8</title>
<path fill="none" stroke="#404040" d="M188,-1504.27C144.03,-1481.65 73.22,-1437.38 43.35,-1375 -29,-1223.87 3.11,-1160.65 43.35,-998 51.03,-966.95 64.17,-935.43 78.79,-906.51"/>
<polygon fill="none" stroke="#404040" points="78.95,-906.21 78.15,-899.05 84.46,-895.56 85.26,-902.73 78.95,-906.21"/>
<text text-anchor="middle" x="79.85" y="-1181.5" font-family="Helvetica,sans-Serif" font-size="20.00"> &#45;CRMV</text>
</g>
<!-- Node6 -->
<g id="node6" class="node">
<title>Node6</title>
<g id="a_node6"><a xlink:title=" ">
<polygon fill="white" stroke="#bfbfbf" points="343.85,-1141.5 343.85,-1231.5 450.85,-1231.5 450.85,-1141.5 343.85,-1141.5"/>
<text text-anchor="middle" x="397.35" y="-1211.5" font-family="Helvetica,sans-Serif" font-size="20.00">Uniforme</text>
<polyline fill="none" stroke="#bfbfbf" points="343.85,-1201.5 450.85,-1201.5 "/>
<text text-anchor="middle" x="397.35" y="-1181.5" font-family="Helvetica,sans-Serif" font-size="20.00"> </text>
<polyline fill="none" stroke="#bfbfbf" points="343.85,-1171.5 450.85,-1171.5 "/>
<text text-anchor="middle" x="397.35" y="-1151.5" font-family="Helvetica,sans-Serif" font-size="20.00"> </text>
</a>
</g>
</g>
<!-- Node6&#45;&gt;Node3 -->
<g id="edge5" class="edge">
<title>Node6&#45;&gt;Node3</title>
<path fill="none" stroke="#404040" d="M391.74,-1141.49C386.71,-1099.94 379.63,-1035.85 376.35,-980 374.98,-956.64 374.13,-931.67 373.62,-907.69"/>
<polygon fill="none" stroke="#404040" points="373.62,-907.62 369.51,-901.7 373.39,-895.62 377.51,-901.55 373.62,-907.62"/>
<text text-anchor="middle" x="427.85" y="-942" font-family="Helvetica,sans-Serif" font-size="20.00"> &#45;uniforme</text>
</g>
<!-- Node7 -->
<g id="node7" class="node">
<title>Node7</title>
<g id="a_node7"><a xlink:title=" ">
<polygon fill="white" stroke="#bfbfbf" points="578.85,-739.5 578.85,-829.5 637.85,-829.5 637.85,-739.5 578.85,-739.5"/>
<text text-anchor="middle" x="608.35" y="-809.5" font-family="Helvetica,sans-Serif" font-size="20.00">bool</text>
<polyline fill="none" stroke="#bfbfbf" points="578.85,-799.5 637.85,-799.5 "/>
<text text-anchor="middle" x="608.35" y="-779.5" font-family="Helvetica,sans-Serif" font-size="20.00"> </text>
<polyline fill="none" stroke="#bfbfbf" points="578.85,-769.5 637.85,-769.5 "/>
<text text-anchor="middle" x="608.35" y="-749.5" font-family="Helvetica,sans-Serif" font-size="20.00"> </text>
</a>
</g>
</g>
<!-- Node7&#45;&gt;Node1 -->
<g id="edge11" class="edge">
<title>Node7&#45;&gt;Node1</title>
<path fill="none" stroke="#404040" d="M623.98,-739.24C631.8,-714.75 640.42,-683.58 644.35,-655 645.68,-645.31 644.69,-642.77 644.35,-633 639.24,-486.51 644.17,-448.79 621.35,-304 620.05,-295.76 618.55,-287.33 616.89,-278.84"/>
<polygon fill="none" stroke="#404040" points="616.84,-278.59 611.73,-273.51 614.47,-266.83 619.58,-271.92 616.84,-278.59"/>
<text text-anchor="middle" x="682.35" y="-465.5" font-family="Helvetica,sans-Serif" font-size="20.00"> #pata</text>
<text text-anchor="middle" x="682.35" y="-443.5" font-family="Helvetica,sans-Serif" font-size="20.00">#cauda</text>
</g>
<!-- Node7&#45;&gt;Node2 -->
<g id="edge6" class="edge">
<title>Node7&#45;&gt;Node2</title>
<path fill="none" stroke="#404040" d="M578.72,-740.12C563.57,-716.03 546.11,-684.94 535.35,-655 532.06,-645.83 529.07,-636.29 526.37,-626.59"/>
<polygon fill="none" stroke="#404040" points="526.29,-626.28 520.89,-621.5 523.22,-614.68 528.62,-619.45 526.29,-626.28"/>
<text text-anchor="middle" x="589.85" y="-639" font-family="Helvetica,sans-Serif" font-size="20.00"> #perigoso</text>
</g>
<!-- Node8&#45;&gt;Node2 -->
<g id="edge8" class="edge">
<title>Node8&#45;&gt;Node2</title>
<path fill="none" stroke="#404040" d="M213.38,-673.34C223.11,-659.03 233.84,-645.16 245.35,-633 283.99,-592.22 333.9,-555.91 379.39,-527.26"/>
<polygon fill="none" stroke="#404040" points="379.43,-527.23 382.42,-520.66 389.62,-520.89 386.64,-527.45 379.43,-527.23"/>
<text text-anchor="middle" x="310.35" y="-639" font-family="Helvetica,sans-Serif" font-size="20.00"> #veterinario</text>
</g>
</g>
</svg>
