<?xml version="1.0" encoding="UTF-8" standalone="no"?>
<!DOCTYPE svg PUBLIC "-//W3C//DTD SVG 1.1//EN"
 "http://www.w3.org/Graphics/SVG/1.1/DTD/svg11.dtd">
<!-- Generated by graphviz version 2.43.0 (0)
 -->
<!-- Title: ReptilNativo Pages: 1 -->
<svg width="725pt" height="1904pt"
 viewBox="0.00 0.00 725.26 1904.00" xmlns="http://www.w3.org/2000/svg" xmlns:xlink="http://www.w3.org/1999/xlink">
<g id="graph0" class="graph" transform="scale(1 1) rotate(0) translate(4 1900)">
<title>ReptilNativo</title>
<polygon fill="white" stroke="transparent" points="-4,4 -4,-1900 721.26,-1900 721.26,4 -4,4"/>
<!-- Node1 -->
<g id="node1" class="node">
<title>Node1</title>
<g id="a_node1"><a xlink:title="Implementação de animal com Classe e Categoria.">
<polygon fill="#bfbfbf" stroke="black" points="421.26,-0.5 421.26,-134.5 611.26,-134.5 611.26,-0.5 421.26,-0.5"/>
<text text-anchor="middle" x="516.26" y="-114.5" font-family="Helvetica,sans-Serif" font-size="20.00">ReptilNativo</text>
<polyline fill="none" stroke="black" points="421.26,-104.5 611.26,-104.5 "/>
<text text-anchor="middle" x="516.26" y="-84.5" font-family="Helvetica,sans-Serif" font-size="20.00"> </text>
<polyline fill="none" stroke="black" points="421.26,-74.5 611.26,-74.5 "/>
<text text-anchor="start" x="429.26" y="-54.5" font-family="Helvetica,sans-Serif" font-size="20.00">+ ReptilNativo()</text>
<text text-anchor="start" x="429.26" y="-32.5" font-family="Helvetica,sans-Serif" font-size="20.00">+ ReptilNativo()</text>
<text text-anchor="start" x="429.26" y="-10.5" font-family="Helvetica,sans-Serif" font-size="20.00">+ ~ReptilNativo()</text>
</a>
</g>
</g>
<!-- Node2 -->
<g id="node2" class="node">
<title>Node2</title>
<g id="a_node2"><a xlink:href="classReptil.html" target="_top" xlink:title="Classificação base para Repteis.">
<polygon fill="white" stroke="black" points="314.76,-172.5 314.76,-372.5 441.76,-372.5 441.76,-172.5 314.76,-172.5"/>
<text text-anchor="middle" x="378.26" y="-352.5" font-family="Helvetica,sans-Serif" font-size="20.00">Reptil</text>
<polyline fill="none" stroke="black" points="314.76,-342.5 441.76,-342.5 "/>
<text text-anchor="middle" x="378.26" y="-322.5" font-family="Helvetica,sans-Serif" font-size="20.00"> </text>
<polyline fill="none" stroke="black" points="314.76,-312.5 441.76,-312.5 "/>
<text text-anchor="start" x="322.76" y="-292.5" font-family="Helvetica,sans-Serif" font-size="20.00">+ Reptil()</text>
<text text-anchor="start" x="322.76" y="-270.5" font-family="Helvetica,sans-Serif" font-size="20.00">+ Reptil()</text>
<text text-anchor="start" x="322.76" y="-248.5" font-family="Helvetica,sans-Serif" font-size="20.00">+ ~Reptil()</text>
<text text-anchor="start" x="322.76" y="-226.5" font-family="Helvetica,sans-Serif" font-size="20.00">+ getPele()</text>
<text text-anchor="start" x="322.76" y="-204.5" font-family="Helvetica,sans-Serif" font-size="20.00">+ setPele()</text>
<text text-anchor="start" x="322.76" y="-182.5" font-family="Helvetica,sans-Serif" font-size="20.00">+ setPele()</text>
</a>
</g>
</g>
<!-- Node2&#45;&gt;Node1 -->
<g id="edge1" class="edge">
<title>Node2&#45;&gt;Node1</title>
<path fill="none" stroke="midnightblue" d="M447.67,-169.41C455.71,-157.57 463.76,-145.74 471.35,-134.57"/>
<polygon fill="none" stroke="midnightblue" points="444.54,-167.78 441.81,-178.02 450.33,-171.72 444.54,-167.78"/>
</g>
<!-- Node3 -->
<g id="node3" class="node">
<title>Node3</title>
<g id="a_node3"><a xlink:href="classAnimal.html" target="_top" xlink:title="Implementação base para o cadastro de animais.">
<polygon fill="white" stroke="black" points="266.76,-431.5 266.76,-741.5 489.76,-741.5 489.76,-431.5 266.76,-431.5"/>
<text text-anchor="middle" x="378.26" y="-721.5" font-family="Helvetica,sans-Serif" font-size="20.00">Animal</text>
<polyline fill="none" stroke="black" points="266.76,-711.5 489.76,-711.5 "/>
<text text-anchor="middle" x="378.26" y="-691.5" font-family="Helvetica,sans-Serif" font-size="20.00"> </text>
<polyline fill="none" stroke="black" points="266.76,-681.5 489.76,-681.5 "/>
<text text-anchor="start" x="274.76" y="-661.5" font-family="Helvetica,sans-Serif" font-size="20.00">+ Animal()</text>
<text text-anchor="start" x="274.76" y="-639.5" font-family="Helvetica,sans-Serif" font-size="20.00">+ Animal()</text>
<text text-anchor="start" x="274.76" y="-617.5" font-family="Helvetica,sans-Serif" font-size="20.00">+ ~Animal()</text>
<text text-anchor="start" x="274.76" y="-595.5" font-family="Helvetica,sans-Serif" font-size="20.00">+ getNome()</text>
<text text-anchor="start" x="274.76" y="-573.5" font-family="Helvetica,sans-Serif" font-size="20.00">+ getEspecie()</text>
<text text-anchor="start" x="274.76" y="-551.5" font-family="Helvetica,sans-Serif" font-size="20.00">+ getAmeacadoPor()</text>
<text text-anchor="start" x="274.76" y="-529.5" font-family="Helvetica,sans-Serif" font-size="20.00">+ getVeterinario()</text>
<text text-anchor="start" x="274.76" y="-507.5" font-family="Helvetica,sans-Serif" font-size="20.00">+ getTratador()</text>
<text text-anchor="start" x="274.76" y="-485.5" font-family="Helvetica,sans-Serif" font-size="20.00">+ getPerigoso()</text>
<text text-anchor="start" x="274.76" y="-463.5" font-family="Helvetica,sans-Serif" font-size="20.00">+ setNome()</text>
<text text-anchor="start" x="274.76" y="-441.5" font-family="Helvetica,sans-Serif" font-size="20.00">e 15 mais...</text>
</a>
</g>
</g>
<!-- Node3&#45;&gt;Node2 -->
<g id="edge2" class="edge">
<title>Node3&#45;&gt;Node2</title>
<path fill="none" stroke="midnightblue" d="M378.26,-421.04C378.26,-404.53 378.26,-388.15 378.26,-372.64"/>
<polygon fill="none" stroke="midnightblue" points="374.76,-421.33 378.26,-431.33 381.76,-421.33 374.76,-421.33"/>
</g>
<!-- Node4 -->
<g id="node4" class="node">
<title>Node4</title>
<g id="a_node4"><a xlink:href="classTratador.html" target="_top" xlink:title="Implementação dos tratadores.">
<polygon fill="white" stroke="black" points="98.26,-800.5 98.26,-1022.5 298.26,-1022.5 298.26,-800.5 98.26,-800.5"/>
<text text-anchor="middle" x="198.26" y="-1002.5" font-family="Helvetica,sans-Serif" font-size="20.00">Tratador</text>
<polyline fill="none" stroke="black" points="98.26,-992.5 298.26,-992.5 "/>
<text text-anchor="middle" x="198.26" y="-972.5" font-family="Helvetica,sans-Serif" font-size="20.00"> </text>
<polyline fill="none" stroke="black" points="98.26,-962.5 298.26,-962.5 "/>
<text text-anchor="start" x="106.26" y="-942.5" font-family="Helvetica,sans-Serif" font-size="20.00">+ Tratador()</text>
<text text-anchor="start" x="106.26" y="-920.5" font-family="Helvetica,sans-Serif" font-size="20.00">+ Tratador()</text>
<text text-anchor="start" x="106.26" y="-898.5" font-family="Helvetica,sans-Serif" font-size="20.00">+ ~Tratador()</text>
<text text-anchor="start" x="106.26" y="-876.5" font-family="Helvetica,sans-Serif" font-size="20.00">+ getUniforme()</text>
<text text-anchor="start" x="106.26" y="-854.5" font-family="Helvetica,sans-Serif" font-size="20.00">+ setUniforme()</text>
<text text-anchor="start" x="106.26" y="-832.5" font-family="Helvetica,sans-Serif" font-size="20.00">+ setUniforme()</text>
<text text-anchor="start" x="106.26" y="-810.5" font-family="Helvetica,sans-Serif" font-size="20.00">+ printOutDados()</text>
</a>
</g>
</g>
<!-- Node4&#45;&gt;Node3 -->
<g id="edge3" class="edge">
<title>Node4&#45;&gt;Node3</title>
<path fill="none" stroke="#404040" d="M249.14,-800.44C256.01,-786.7 263.15,-772.94 270.26,-760 271.66,-757.45 273.09,-754.89 274.53,-752.32"/>
<polygon fill="none" stroke="#404040" points="274.63,-752.13 274.11,-744.94 280.55,-741.69 281.07,-748.88 274.63,-752.13"/>
<text text-anchor="middle" x="321.76" y="-766" font-family="Helvetica,sans-Serif" font-size="20.00"> #tratador</text>
</g>
<!-- Node5 -->
<g id="node5" class="node">
<title>Node5</title>
<g id="a_node5"><a xlink:href="classPessoa.html" target="_top" xlink:title="Classe base dos funcionarios.">
<polygon fill="white" stroke="black" points="277.26,-1326.5 277.26,-1702.5 477.26,-1702.5 477.26,-1326.5 277.26,-1326.5"/>
<text text-anchor="middle" x="377.26" y="-1682.5" font-family="Helvetica,sans-Serif" font-size="20.00">Pessoa</text>
<polyline fill="none" stroke="black" points="277.26,-1672.5 477.26,-1672.5 "/>
<text text-anchor="middle" x="377.26" y="-1652.5" font-family="Helvetica,sans-Serif" font-size="20.00"> </text>
<polyline fill="none" stroke="black" points="277.26,-1642.5 477.26,-1642.5 "/>
<text text-anchor="start" x="285.26" y="-1622.5" font-family="Helvetica,sans-Serif" font-size="20.00">+ Pessoa()</text>
<text text-anchor="start" x="285.26" y="-1600.5" font-family="Helvetica,sans-Serif" font-size="20.00">+ Pessoa()</text>
<text text-anchor="start" x="285.26" y="-1578.5" font-family="Helvetica,sans-Serif" font-size="20.00">+ ~Pessoa()</text>
<text text-anchor="start" x="285.26" y="-1556.5" font-family="Helvetica,sans-Serif" font-size="20.00">+ getNome()</text>
<text text-anchor="start" x="285.26" y="-1534.5" font-family="Helvetica,sans-Serif" font-size="20.00">+ setNome()</text>
<text text-anchor="start" x="285.26" y="-1512.5" font-family="Helvetica,sans-Serif" font-size="20.00">+ setNome()</text>
<text text-anchor="start" x="285.26" y="-1490.5" font-family="Helvetica,sans-Serif" font-size="20.00">+ getTelefone()</text>
<text text-anchor="start" x="285.26" y="-1468.5" font-family="Helvetica,sans-Serif" font-size="20.00">+ setTelefone()</text>
<text text-anchor="start" x="285.26" y="-1446.5" font-family="Helvetica,sans-Serif" font-size="20.00">+ setTelefone()</text>
<text text-anchor="start" x="285.26" y="-1424.5" font-family="Helvetica,sans-Serif" font-size="20.00">+ getEmail()</text>
<text text-anchor="start" x="285.26" y="-1402.5" font-family="Helvetica,sans-Serif" font-size="20.00">+ setEmail()</text>
<text text-anchor="start" x="285.26" y="-1380.5" font-family="Helvetica,sans-Serif" font-size="20.00">+ setEmail()</text>
<text text-anchor="start" x="285.26" y="-1358.5" font-family="Helvetica,sans-Serif" font-size="20.00">+ printOutDados()</text>
<text text-anchor="start" x="285.26" y="-1336.5" font-family="Helvetica,sans-Serif" font-size="20.00">+ operator==()</text>
</a>
</g>
</g>
<!-- Node5&#45;&gt;Node4 -->
<g id="edge4" class="edge">
<title>Node5&#45;&gt;Node4</title>
<path fill="none" stroke="midnightblue" d="M374.4,-1316.22C366.89,-1228.65 349.29,-1126.34 310.26,-1041 306.82,-1033.46 302.79,-1026.04 298.34,-1018.79"/>
<polygon fill="none" stroke="midnightblue" points="370.92,-1316.59 375.22,-1326.27 377.89,-1316.02 370.92,-1316.59"/>
</g>
<!-- Node9 -->
<g id="node9" class="node">
<title>Node9</title>
<g id="a_node9"><a xlink:href="classVeterinario.html" target="_top" xlink:title="Implementação dos veterinarios.">
<polygon fill="white" stroke="black" points="316.26,-800.5 316.26,-1022.5 516.26,-1022.5 516.26,-800.5 316.26,-800.5"/>
<text text-anchor="middle" x="416.26" y="-1002.5" font-family="Helvetica,sans-Serif" font-size="20.00">Veterinario</text>
<polyline fill="none" stroke="black" points="316.26,-992.5 516.26,-992.5 "/>
<text text-anchor="middle" x="416.26" y="-972.5" font-family="Helvetica,sans-Serif" font-size="20.00"> </text>
<polyline fill="none" stroke="black" points="316.26,-962.5 516.26,-962.5 "/>
<text text-anchor="start" x="324.26" y="-942.5" font-family="Helvetica,sans-Serif" font-size="20.00">+ Veterinario()</text>
<text text-anchor="start" x="324.26" y="-920.5" font-family="Helvetica,sans-Serif" font-size="20.00">+ Veterinario()</text>
<text text-anchor="start" x="324.26" y="-898.5" font-family="Helvetica,sans-Serif" font-size="20.00">+ ~Veterinario()</text>
<text text-anchor="start" x="324.26" y="-876.5" font-family="Helvetica,sans-Serif" font-size="20.00">+ getCRMV()</text>
<text text-anchor="start" x="324.26" y="-854.5" font-family="Helvetica,sans-Serif" font-size="20.00">+ setCRMV()</text>
<text text-anchor="start" x="324.26" y="-832.5" font-family="Helvetica,sans-Serif" font-size="20.00">+ setCRMV()</text>
<text text-anchor="start" x="324.26" y="-810.5" font-family="Helvetica,sans-Serif" font-size="20.00">+ printOutDados()</text>
</a>
</g>
</g>
<!-- Node5&#45;&gt;Node9 -->
<g id="edge10" class="edge">
<title>Node5&#45;&gt;Node9</title>
<path fill="none" stroke="midnightblue" d="M390.06,-1316.24C396.39,-1218.8 403.78,-1104.87 409.1,-1022.92"/>
<polygon fill="none" stroke="midnightblue" points="386.57,-1316.02 389.42,-1326.22 393.56,-1316.47 386.57,-1316.02"/>
</g>
<!-- Node6 -->
<g id="node6" class="node">
<title>Node6</title>
<g id="a_node6"><a xlink:title=" ">
<polygon fill="white" stroke="#bfbfbf" points="420.26,-1805.5 420.26,-1895.5 494.26,-1895.5 494.26,-1805.5 420.26,-1805.5"/>
<text text-anchor="middle" x="457.26" y="-1875.5" font-family="Helvetica,sans-Serif" font-size="20.00">string</text>
<polyline fill="none" stroke="#bfbfbf" points="420.26,-1865.5 494.26,-1865.5 "/>
<text text-anchor="middle" x="457.26" y="-1845.5" font-family="Helvetica,sans-Serif" font-size="20.00"> </text>
<polyline fill="none" stroke="#bfbfbf" points="420.26,-1835.5 494.26,-1835.5 "/>
<text text-anchor="middle" x="457.26" y="-1815.5" font-family="Helvetica,sans-Serif" font-size="20.00"> </text>
</a>
</g>
</g>
<!-- Node6&#45;&gt;Node3 -->
<g id="edge8" class="edge">
<title>Node6&#45;&gt;Node3</title>
<path fill="none" stroke="#404040" d="M420.04,-1843C353.72,-1829.39 215.24,-1791.55 142.26,-1703 27.22,-1563.42 66.2,-1487.54 44.26,-1308 16.77,-1083.01 -58.74,-971.67 89.26,-800 138.42,-742.98 188.06,-783.62 256.47,-741.68"/>
<polygon fill="none" stroke="#404040" points="256.71,-741.52 259.49,-734.86 266.7,-734.87 263.93,-741.52 256.71,-741.52"/>
<text text-anchor="middle" x="120.26" y="-1191.5" font-family="Helvetica,sans-Serif" font-size="20.00"> #especie</text>
<text text-anchor="middle" x="120.26" y="-1169.5" font-family="Helvetica,sans-Serif" font-size="20.00">#ameacadoPor</text>
<text text-anchor="middle" x="120.26" y="-1147.5" font-family="Helvetica,sans-Serif" font-size="20.00">#nome</text>
</g>
<!-- Node6&#45;&gt;Node5 -->
<g id="edge5" class="edge">
<title>Node6&#45;&gt;Node5</title>
<path fill="none" stroke="#404040" d="M420.09,-1814.88C413.05,-1806.44 406.55,-1796.96 402.26,-1787 392.48,-1764.29 385.65,-1739.55 380.98,-1714.55"/>
<polygon fill="none" stroke="#404040" points="380.96,-1714.48 376,-1709.26 378.91,-1702.66 383.88,-1707.89 380.96,-1714.48"/>
<text text-anchor="middle" x="450.76" y="-1771" font-family="Helvetica,sans-Serif" font-size="20.00"> #email</text>
<text text-anchor="middle" x="450.76" y="-1749" font-family="Helvetica,sans-Serif" font-size="20.00">#nome</text>
<text text-anchor="middle" x="450.76" y="-1727" font-family="Helvetica,sans-Serif" font-size="20.00">#telefone</text>
</g>
<!-- Node6&#45;&gt;Node9 -->
<g id="edge11" class="edge">
<title>Node6&#45;&gt;Node9</title>
<path fill="none" stroke="#404040" d="M491.38,-1805.37C494.59,-1799.45 497.36,-1793.25 499.26,-1787 507.82,-1758.94 499.75,-1750.33 499.26,-1721 496.37,-1545.37 503.85,-1500.77 486.26,-1326 476.33,-1227.26 457.13,-1116.45 441.35,-1034.41"/>
<polygon fill="none" stroke="#404040" points="441.33,-1034.3 436.26,-1029.17 439.05,-1022.52 444.11,-1027.65 441.33,-1034.3"/>
<text text-anchor="middle" x="535.76" y="-1509.5" font-family="Helvetica,sans-Serif" font-size="20.00"> &#45;CRMV</text>
</g>
<!-- Node11 -->
<g id="node11" class="node">
<title>Node11</title>
<g id="a_node11"><a xlink:href="classNativo.html" target="_top" xlink:title="Umas das definições de categoria para Animal.">
<polygon fill="white" stroke="black" points="555.26,-1041.5 555.26,-1307.5 717.26,-1307.5 717.26,-1041.5 555.26,-1041.5"/>
<text text-anchor="middle" x="636.26" y="-1287.5" font-family="Helvetica,sans-Serif" font-size="20.00">Nativo</text>
<polyline fill="none" stroke="black" points="555.26,-1277.5 717.26,-1277.5 "/>
<text text-anchor="middle" x="636.26" y="-1257.5" font-family="Helvetica,sans-Serif" font-size="20.00"> </text>
<polyline fill="none" stroke="black" points="555.26,-1247.5 717.26,-1247.5 "/>
<text text-anchor="start" x="563.26" y="-1227.5" font-family="Helvetica,sans-Serif" font-size="20.00">+ Nativo()</text>
<text text-anchor="start" x="563.26" y="-1205.5" font-family="Helvetica,sans-Serif" font-size="20.00">+ Nativo()</text>
<text text-anchor="start" x="563.26" y="-1183.5" font-family="Helvetica,sans-Serif" font-size="20.00">+ ~Nativo()</text>
<text text-anchor="start" x="563.26" y="-1161.5" font-family="Helvetica,sans-Serif" font-size="20.00">+ getRegiao()</text>
<text text-anchor="start" x="563.26" y="-1139.5" font-family="Helvetica,sans-Serif" font-size="20.00">+ setRegiao()</text>
<text text-anchor="start" x="563.26" y="-1117.5" font-family="Helvetica,sans-Serif" font-size="20.00">+ setRegiao()</text>
<text text-anchor="start" x="563.26" y="-1095.5" font-family="Helvetica,sans-Serif" font-size="20.00">+ getLicenca()</text>
<text text-anchor="start" x="563.26" y="-1073.5" font-family="Helvetica,sans-Serif" font-size="20.00">+ setLicenca()</text>
<text text-anchor="start" x="563.26" y="-1051.5" font-family="Helvetica,sans-Serif" font-size="20.00">+ setLicenca()</text>
</a>
</g>
</g>
<!-- Node6&#45;&gt;Node11 -->
<g id="edge14" class="edge">
<title>Node6&#45;&gt;Node11</title>
<path fill="none" stroke="#404040" d="M494.47,-1822.05C526.79,-1795.67 571.31,-1752.57 590.26,-1703 637.46,-1579.58 646.16,-1428.46 644.71,-1319.65"/>
<polygon fill="none" stroke="#404040" points="644.71,-1319.6 640.61,-1313.67 644.51,-1307.6 648.61,-1313.53 644.71,-1319.6"/>
<text text-anchor="middle" x="626.76" y="-1760" font-family="Helvetica,sans-Serif" font-size="20.00"> #licenca</text>
<text text-anchor="middle" x="626.76" y="-1738" font-family="Helvetica,sans-Serif" font-size="20.00">#regiao</text>
</g>
<!-- Node7 -->
<g id="node7" class="node">
<title>Node7</title>
<g id="a_node7"><a xlink:title=" ">
<polygon fill="white" stroke="#bfbfbf" points="151.76,-1469.5 151.76,-1559.5 258.76,-1559.5 258.76,-1469.5 151.76,-1469.5"/>
<text text-anchor="middle" x="205.26" y="-1539.5" font-family="Helvetica,sans-Serif" font-size="20.00">Uniforme</text>
<polyline fill="none" stroke="#bfbfbf" points="151.76,-1529.5 258.76,-1529.5 "/>
<text text-anchor="middle" x="205.26" y="-1509.5" font-family="Helvetica,sans-Serif" font-size="20.00"> </text>
<polyline fill="none" stroke="#bfbfbf" points="151.76,-1499.5 258.76,-1499.5 "/>
<text text-anchor="middle" x="205.26" y="-1479.5" font-family="Helvetica,sans-Serif" font-size="20.00"> </text>
</a>
</g>
</g>
<!-- Node7&#45;&gt;Node4 -->
<g id="edge6" class="edge">
<title>Node7&#45;&gt;Node4</title>
<path fill="none" stroke="#404040" d="M204.75,-1469.31C203.69,-1378.81 201.26,-1169.62 199.69,-1034.98"/>
<polygon fill="none" stroke="#404040" points="199.69,-1034.59 195.62,-1028.64 199.55,-1022.59 203.62,-1028.55 199.69,-1034.59"/>
<text text-anchor="middle" x="254.76" y="-1169.5" font-family="Helvetica,sans-Serif" font-size="20.00"> &#45;uniforme</text>
</g>
<!-- Node8 -->
<g id="node8" class="node">
<title>Node8</title>
<g id="a_node8"><a xlink:title=" ">
<polygon fill="white" stroke="#bfbfbf" points="534.76,-866.5 534.76,-956.5 593.76,-956.5 593.76,-866.5 534.76,-866.5"/>
<text text-anchor="middle" x="564.26" y="-936.5" font-family="Helvetica,sans-Serif" font-size="20.00">bool</text>
<polyline fill="none" stroke="#bfbfbf" points="534.76,-926.5 593.76,-926.5 "/>
<text text-anchor="middle" x="564.26" y="-906.5" font-family="Helvetica,sans-Serif" font-size="20.00"> </text>
<polyline fill="none" stroke="#bfbfbf" points="534.76,-896.5 593.76,-896.5 "/>
<text text-anchor="middle" x="564.26" y="-876.5" font-family="Helvetica,sans-Serif" font-size="20.00"> </text>
</a>
</g>
</g>
<!-- Node8&#45;&gt;Node3 -->
<g id="edge7" class="edge">
<title>Node8&#45;&gt;Node3</title>
<path fill="none" stroke="#404040" d="M549.12,-866.26C542.06,-845.99 533.43,-821.71 525.26,-800 518.52,-782.08 518.69,-776.66 509.26,-760 505.28,-752.96 501.04,-745.89 496.62,-738.84"/>
<polygon fill="none" stroke="#404040" points="496.49,-738.64 489.89,-735.74 490.02,-728.53 496.63,-731.43 496.49,-738.64"/>
<text text-anchor="middle" x="573.76" y="-766" font-family="Helvetica,sans-Serif" font-size="20.00"> #perigoso</text>
</g>
<!-- Node9&#45;&gt;Node3 -->
<g id="edge9" class="edge">
<title>Node9&#45;&gt;Node3</title>
<path fill="none" stroke="#404040" d="M382.41,-800.18C381.19,-794.06 380.12,-787.97 379.26,-782 377.95,-772.83 376.9,-763.4 376.08,-753.86"/>
<polygon fill="none" stroke="#404040" points="376.07,-753.7 371.63,-748.02 375.16,-741.73 379.6,-747.42 376.07,-753.7"/>
<text text-anchor="middle" x="444.26" y="-766" font-family="Helvetica,sans-Serif" font-size="20.00"> #veterinario</text>
</g>
<!-- Node10 -->
<g id="node10" class="node">
<title>Node10</title>
<g id="a_node10"><a xlink:title=" ">
<polygon fill="white" stroke="#bfbfbf" points="191.76,-541.5 191.76,-631.5 248.76,-631.5 248.76,-541.5 191.76,-541.5"/>
<text text-anchor="middle" x="220.26" y="-611.5" font-family="Helvetica,sans-Serif" font-size="20.00">Pele</text>
<polyline fill="none" stroke="#bfbfbf" points="191.76,-601.5 248.76,-601.5 "/>
<text text-anchor="middle" x="220.26" y="-581.5" font-family="Helvetica,sans-Serif" font-size="20.00"> </text>
<polyline fill="none" stroke="#bfbfbf" points="191.76,-571.5 248.76,-571.5 "/>
<text text-anchor="middle" x="220.26" y="-551.5" font-family="Helvetica,sans-Serif" font-size="20.00"> </text>
</a>
</g>
</g>
<!-- Node10&#45;&gt;Node2 -->
<g id="edge12" class="edge">
<title>Node10&#45;&gt;Node2</title>
<path fill="none" stroke="#404040" d="M225.82,-541.23C231,-509.41 240.52,-466.1 257.26,-431 270.25,-403.78 288.48,-376.78 306.86,-353.02"/>
<polygon fill="none" stroke="#404040" points="307.02,-352.82 307.6,-345.63 314.45,-343.4 313.88,-350.59 307.02,-352.82"/>
<text text-anchor="middle" x="311.76" y="-397" font-family="Helvetica,sans-Serif" font-size="20.00"> #pele</text>
</g>
<!-- Node11&#45;&gt;Node1 -->
<g id="edge13" class="edge">
<title>Node11&#45;&gt;Node1</title>
<path fill="none" stroke="midnightblue" d="M646.3,-1030.9C650.86,-954.21 655.26,-857.98 655.26,-772 655.26,-772 655.26,-772 655.26,-271.5 655.26,-219.6 623.95,-171.24 591.05,-134.75"/>
<polygon fill="none" stroke="midnightblue" points="642.79,-1030.92 645.68,-1041.11 649.78,-1031.34 642.79,-1030.92"/>
</g>
</g>
</svg>
