<?xml version="1.0" encoding="UTF-8" standalone="no"?>
<!DOCTYPE svg PUBLIC "-//W3C//DTD SVG 1.1//EN"
 "http://www.w3.org/Graphics/SVG/1.1/DTD/svg11.dtd">
<!-- Generated by graphviz version 2.43.0 (0)
 -->
<!-- Title: AnfibioNativo Pages: 1 -->
<svg width="375pt" height="859pt"
 viewBox="0.00 0.00 374.50 859.00" xmlns="http://www.w3.org/2000/svg" xmlns:xlink="http://www.w3.org/1999/xlink">
<g id="graph0" class="graph" transform="scale(1 1) rotate(0) translate(4 855)">
<title>AnfibioNativo</title>
<polygon fill="white" stroke="transparent" points="-4,4 -4,-855 370.5,-855 370.5,4 -4,4"/>
<!-- Node1 -->
<g id="node1" class="node">
<title>Node1</title>
<g id="a_node1"><a xlink:title="Implementação de animal com Classe e Categoria.">
<polygon fill="#bfbfbf" stroke="black" points="97,-0.5 97,-112.5 300,-112.5 300,-0.5 97,-0.5"/>
<text text-anchor="middle" x="198.5" y="-92.5" font-family="Helvetica,sans-Serif" font-size="20.00">AnfibioNativo</text>
<polyline fill="none" stroke="black" points="97,-82.5 300,-82.5 "/>
<text text-anchor="middle" x="198.5" y="-62.5" font-family="Helvetica,sans-Serif" font-size="20.00"> </text>
<polyline fill="none" stroke="black" points="97,-52.5 300,-52.5 "/>
<text text-anchor="start" x="105" y="-32.5" font-family="Helvetica,sans-Serif" font-size="20.00">+ AnfibioNativo()</text>
<text text-anchor="start" x="105" y="-10.5" font-family="Helvetica,sans-Serif" font-size="20.00">+ ~AnfibioNativo()</text>
</a>
</g>
</g>
<!-- Node2 -->
<g id="node2" class="node">
<title>Node2</title>
<g id="a_node2"><a xlink:href="classAnfibio.html" target="_top" xlink:title="Classificação base para Anfibios.">
<polygon fill="white" stroke="black" points="36.5,-160.5 36.5,-338.5 186.5,-338.5 186.5,-160.5 36.5,-160.5"/>
<text text-anchor="middle" x="111.5" y="-318.5" font-family="Helvetica,sans-Serif" font-size="20.00">Anfibio</text>
<polyline fill="none" stroke="black" points="36.5,-308.5 186.5,-308.5 "/>
<text text-anchor="start" x="44.5" y="-288.5" font-family="Helvetica,sans-Serif" font-size="20.00"># cauda</text>
<text text-anchor="start" x="44.5" y="-266.5" font-family="Helvetica,sans-Serif" font-size="20.00"># pata</text>
<polyline fill="none" stroke="black" points="36.5,-256.5 186.5,-256.5 "/>
<text text-anchor="start" x="44.5" y="-236.5" font-family="Helvetica,sans-Serif" font-size="20.00">+ Anfibio()</text>
<text text-anchor="start" x="44.5" y="-214.5" font-family="Helvetica,sans-Serif" font-size="20.00">+ ~Anfibio()</text>
<text text-anchor="start" x="44.5" y="-192.5" font-family="Helvetica,sans-Serif" font-size="20.00">+ getCauda()</text>
<text text-anchor="start" x="44.5" y="-170.5" font-family="Helvetica,sans-Serif" font-size="20.00">+ getPata()</text>
</a>
</g>
</g>
<!-- Node2&#45;&gt;Node1 -->
<g id="edge1" class="edge">
<title>Node2&#45;&gt;Node1</title>
<path fill="none" stroke="midnightblue" d="M155.85,-151.12C161.87,-137.91 167.87,-124.74 173.39,-112.63"/>
<polygon fill="none" stroke="midnightblue" points="152.65,-149.72 151.69,-160.27 159.02,-152.62 152.65,-149.72"/>
</g>
<!-- Node3 -->
<g id="node3" class="node">
<title>Node3</title>
<g id="a_node3"><a xlink:href="classAnimal.html" target="_top" xlink:title="Implementação base para o cadastro de animais.">
<polygon fill="white" stroke="black" points="0,-386.5 0,-850.5 223,-850.5 223,-386.5 0,-386.5"/>
<text text-anchor="middle" x="111.5" y="-830.5" font-family="Helvetica,sans-Serif" font-size="20.00">Animal</text>
<polyline fill="none" stroke="black" points="0,-820.5 223,-820.5 "/>
<text text-anchor="start" x="8" y="-800.5" font-family="Helvetica,sans-Serif" font-size="20.00"># nome</text>
<text text-anchor="start" x="8" y="-778.5" font-family="Helvetica,sans-Serif" font-size="20.00"># especie</text>
<text text-anchor="start" x="8" y="-756.5" font-family="Helvetica,sans-Serif" font-size="20.00"># ameacadoPor</text>
<text text-anchor="start" x="8" y="-734.5" font-family="Helvetica,sans-Serif" font-size="20.00"># veterinario</text>
<text text-anchor="start" x="8" y="-712.5" font-family="Helvetica,sans-Serif" font-size="20.00"># tratador</text>
<text text-anchor="start" x="8" y="-690.5" font-family="Helvetica,sans-Serif" font-size="20.00"># perigoso</text>
<polyline fill="none" stroke="black" points="0,-680.5 223,-680.5 "/>
<text text-anchor="start" x="8" y="-660.5" font-family="Helvetica,sans-Serif" font-size="20.00">+ Animal()</text>
<text text-anchor="start" x="8" y="-638.5" font-family="Helvetica,sans-Serif" font-size="20.00">+ Animal()</text>
<text text-anchor="start" x="8" y="-616.5" font-family="Helvetica,sans-Serif" font-size="20.00">+ ~Animal()</text>
<text text-anchor="start" x="8" y="-594.5" font-family="Helvetica,sans-Serif" font-size="20.00">+ getNome()</text>
<text text-anchor="start" x="8" y="-572.5" font-family="Helvetica,sans-Serif" font-size="20.00">+ getEspecie()</text>
<text text-anchor="start" x="8" y="-550.5" font-family="Helvetica,sans-Serif" font-size="20.00">+ getAmeacadoPor()</text>
<text text-anchor="start" x="8" y="-528.5" font-family="Helvetica,sans-Serif" font-size="20.00">+ getVeterinario()</text>
<text text-anchor="start" x="8" y="-506.5" font-family="Helvetica,sans-Serif" font-size="20.00">+ getTratador()</text>
<text text-anchor="start" x="8" y="-484.5" font-family="Helvetica,sans-Serif" font-size="20.00">+ getPerigoso()</text>
<text text-anchor="start" x="8" y="-462.5" font-family="Helvetica,sans-Serif" font-size="20.00">+ getClassificacao()</text>
<text text-anchor="start" x="8" y="-440.5" font-family="Helvetica,sans-Serif" font-size="20.00">+ getClasse()</text>
<text text-anchor="start" x="8" y="-418.5" font-family="Helvetica,sans-Serif" font-size="20.00">+ printOutDados()</text>
<text text-anchor="start" x="8" y="-396.5" font-family="Helvetica,sans-Serif" font-size="20.00">+ operator==()</text>
</a>
</g>
</g>
<!-- Node3&#45;&gt;Node2 -->
<g id="edge2" class="edge">
<title>Node3&#45;&gt;Node2</title>
<path fill="none" stroke="midnightblue" d="M111.5,-376.32C111.5,-363.27 111.5,-350.65 111.5,-338.77"/>
<polygon fill="none" stroke="midnightblue" points="108,-376.38 111.5,-386.38 115,-376.38 108,-376.38"/>
</g>
<!-- Node4 -->
<g id="node4" class="node">
<title>Node4</title>
<g id="a_node4"><a xlink:href="classNativo.html" target="_top" xlink:title="Umas das definições de categoria para Animal.">
<polygon fill="white" stroke="black" points="204.5,-149.5 204.5,-349.5 366.5,-349.5 366.5,-149.5 204.5,-149.5"/>
<text text-anchor="middle" x="285.5" y="-329.5" font-family="Helvetica,sans-Serif" font-size="20.00">Nativo</text>
<polyline fill="none" stroke="black" points="204.5,-319.5 366.5,-319.5 "/>
<text text-anchor="start" x="212.5" y="-299.5" font-family="Helvetica,sans-Serif" font-size="20.00"># regiao</text>
<text text-anchor="start" x="212.5" y="-277.5" font-family="Helvetica,sans-Serif" font-size="20.00"># licenca</text>
<polyline fill="none" stroke="black" points="204.5,-267.5 366.5,-267.5 "/>
<text text-anchor="start" x="212.5" y="-247.5" font-family="Helvetica,sans-Serif" font-size="20.00">+ Nativo()</text>
<text text-anchor="start" x="212.5" y="-225.5" font-family="Helvetica,sans-Serif" font-size="20.00">+ Nativo()</text>
<text text-anchor="start" x="212.5" y="-203.5" font-family="Helvetica,sans-Serif" font-size="20.00">+ ~Nativo()</text>
<text text-anchor="start" x="212.5" y="-181.5" font-family="Helvetica,sans-Serif" font-size="20.00">+ getRegiao()</text>
<text text-anchor="start" x="212.5" y="-159.5" font-family="Helvetica,sans-Serif" font-size="20.00">+ getLicenca()</text>
</a>
</g>
</g>
<!-- Node4&#45;&gt;Node1 -->
<g id="edge3" class="edge">
<title>Node4&#45;&gt;Node1</title>
<path fill="none" stroke="midnightblue" d="M236.07,-139.99C231.83,-130.66 227.65,-121.5 223.72,-112.87"/>
<polygon fill="none" stroke="midnightblue" points="233.01,-141.71 240.34,-149.36 239.38,-138.81 233.01,-141.71"/>
</g>
</g>
</svg>
