<?xml version="1.0" encoding="UTF-8" standalone="no"?>
<!DOCTYPE svg PUBLIC "-//W3C//DTD SVG 1.1//EN"
 "http://www.w3.org/Graphics/SVG/1.1/DTD/svg11.dtd">
<!-- Generated by graphviz version 2.43.0 (0)
 -->
<!-- Title: AveNativa Pages: 1 -->
<svg width="754pt" height="1597pt"
 viewBox="0.00 0.00 754.16 1597.00" xmlns="http://www.w3.org/2000/svg" xmlns:xlink="http://www.w3.org/1999/xlink">
<g id="graph0" class="graph" transform="scale(1 1) rotate(0) translate(4 1593)">
<title>AveNativa</title>
<polygon fill="white" stroke="transparent" points="-4,4 -4,-1593 750.16,-1593 750.16,4 -4,4"/>
<!-- Node1 -->
<g id="node1" class="node">
<title>Node1</title>
<g id="a_node1"><a xlink:title="Implementação de animal com Classe e Categoria.">
<polygon fill="#bfbfbf" stroke="black" points="534.66,-0.5 534.66,-112.5 705.66,-112.5 705.66,-0.5 534.66,-0.5"/>
<text text-anchor="middle" x="620.16" y="-92.5" font-family="Helvetica,sans-Serif" font-size="20.00">AveNativa</text>
<polyline fill="none" stroke="black" points="534.66,-82.5 705.66,-82.5 "/>
<text text-anchor="middle" x="620.16" y="-62.5" font-family="Helvetica,sans-Serif" font-size="20.00"> </text>
<polyline fill="none" stroke="black" points="534.66,-52.5 705.66,-52.5 "/>
<text text-anchor="start" x="542.66" y="-32.5" font-family="Helvetica,sans-Serif" font-size="20.00">+ AveNativa()</text>
<text text-anchor="start" x="542.66" y="-10.5" font-family="Helvetica,sans-Serif" font-size="20.00">+ ~AveNativa()</text>
</a>
</g>
</g>
<!-- Node2 -->
<g id="node2" class="node">
<title>Node2</title>
<g id="a_node2"><a xlink:href="classAve.html" target="_top" xlink:title="Classificação base para Aves.">
<polygon fill="white" stroke="black" points="515.16,-150.5 515.16,-306.5 637.16,-306.5 637.16,-150.5 515.16,-150.5"/>
<text text-anchor="middle" x="576.16" y="-286.5" font-family="Helvetica,sans-Serif" font-size="20.00">Ave</text>
<polyline fill="none" stroke="black" points="515.16,-276.5 637.16,-276.5 "/>
<text text-anchor="middle" x="576.16" y="-256.5" font-family="Helvetica,sans-Serif" font-size="20.00"> </text>
<polyline fill="none" stroke="black" points="515.16,-246.5 637.16,-246.5 "/>
<text text-anchor="start" x="523.16" y="-226.5" font-family="Helvetica,sans-Serif" font-size="20.00">+ Ave()</text>
<text text-anchor="start" x="523.16" y="-204.5" font-family="Helvetica,sans-Serif" font-size="20.00">+ Ave()</text>
<text text-anchor="start" x="523.16" y="-182.5" font-family="Helvetica,sans-Serif" font-size="20.00">+ ~Ave()</text>
<text text-anchor="start" x="523.16" y="-160.5" font-family="Helvetica,sans-Serif" font-size="20.00">+ getVoa()</text>
</a>
</g>
</g>
<!-- Node2&#45;&gt;Node1 -->
<g id="edge1" class="edge">
<title>Node2&#45;&gt;Node1</title>
<path fill="none" stroke="midnightblue" d="M598.64,-140.65C601.08,-131.22 603.51,-121.83 605.81,-112.93"/>
<polygon fill="none" stroke="midnightblue" points="595.22,-139.9 596.1,-150.46 601.99,-141.65 595.22,-139.9"/>
</g>
<!-- Node3 -->
<g id="node3" class="node">
<title>Node3</title>
<g id="a_node3"><a xlink:href="classAnimal.html" target="_top" xlink:title="Implementação base para o cadastro de animais.">
<polygon fill="white" stroke="black" points="215.66,-344.5 215.66,-698.5 438.66,-698.5 438.66,-344.5 215.66,-344.5"/>
<text text-anchor="middle" x="327.16" y="-678.5" font-family="Helvetica,sans-Serif" font-size="20.00">Animal</text>
<polyline fill="none" stroke="black" points="215.66,-668.5 438.66,-668.5 "/>
<text text-anchor="middle" x="327.16" y="-648.5" font-family="Helvetica,sans-Serif" font-size="20.00"> </text>
<polyline fill="none" stroke="black" points="215.66,-638.5 438.66,-638.5 "/>
<text text-anchor="start" x="223.66" y="-618.5" font-family="Helvetica,sans-Serif" font-size="20.00">+ Animal()</text>
<text text-anchor="start" x="223.66" y="-596.5" font-family="Helvetica,sans-Serif" font-size="20.00">+ Animal()</text>
<text text-anchor="start" x="223.66" y="-574.5" font-family="Helvetica,sans-Serif" font-size="20.00">+ ~Animal()</text>
<text text-anchor="start" x="223.66" y="-552.5" font-family="Helvetica,sans-Serif" font-size="20.00">+ getNome()</text>
<text text-anchor="start" x="223.66" y="-530.5" font-family="Helvetica,sans-Serif" font-size="20.00">+ getEspecie()</text>
<text text-anchor="start" x="223.66" y="-508.5" font-family="Helvetica,sans-Serif" font-size="20.00">+ getAmeacadoPor()</text>
<text text-anchor="start" x="223.66" y="-486.5" font-family="Helvetica,sans-Serif" font-size="20.00">+ getVeterinario()</text>
<text text-anchor="start" x="223.66" y="-464.5" font-family="Helvetica,sans-Serif" font-size="20.00">+ getTratador()</text>
<text text-anchor="start" x="223.66" y="-442.5" font-family="Helvetica,sans-Serif" font-size="20.00">+ getPerigoso()</text>
<text text-anchor="start" x="223.66" y="-420.5" font-family="Helvetica,sans-Serif" font-size="20.00">+ getClassificacao()</text>
<text text-anchor="start" x="223.66" y="-398.5" font-family="Helvetica,sans-Serif" font-size="20.00">+ getClasse()</text>
<text text-anchor="start" x="223.66" y="-376.5" font-family="Helvetica,sans-Serif" font-size="20.00">+ printOutDados()</text>
<text text-anchor="start" x="223.66" y="-354.5" font-family="Helvetica,sans-Serif" font-size="20.00">+ operator==()</text>
</a>
</g>
</g>
<!-- Node3&#45;&gt;Node2 -->
<g id="edge2" class="edge">
<title>Node3&#45;&gt;Node2</title>
<path fill="none" stroke="midnightblue" d="M445.66,-382.01C469.62,-354.01 493.87,-325.66 514.87,-301.13"/>
<polygon fill="none" stroke="midnightblue" points="442.75,-380.02 438.91,-389.9 448.07,-384.57 442.75,-380.02"/>
</g>
<!-- Node4 -->
<g id="node4" class="node">
<title>Node4</title>
<g id="a_node4"><a xlink:href="classTratador.html" target="_top" xlink:title="Implementação dos tratadores.">
<polygon fill="white" stroke="black" points="292.16,-757.5 292.16,-935.5 492.16,-935.5 492.16,-757.5 292.16,-757.5"/>
<text text-anchor="middle" x="392.16" y="-915.5" font-family="Helvetica,sans-Serif" font-size="20.00">Tratador</text>
<polyline fill="none" stroke="black" points="292.16,-905.5 492.16,-905.5 "/>
<text text-anchor="middle" x="392.16" y="-885.5" font-family="Helvetica,sans-Serif" font-size="20.00"> </text>
<polyline fill="none" stroke="black" points="292.16,-875.5 492.16,-875.5 "/>
<text text-anchor="start" x="300.16" y="-855.5" font-family="Helvetica,sans-Serif" font-size="20.00">+ Tratador()</text>
<text text-anchor="start" x="300.16" y="-833.5" font-family="Helvetica,sans-Serif" font-size="20.00">+ Tratador()</text>
<text text-anchor="start" x="300.16" y="-811.5" font-family="Helvetica,sans-Serif" font-size="20.00">+ ~Tratador()</text>
<text text-anchor="start" x="300.16" y="-789.5" font-family="Helvetica,sans-Serif" font-size="20.00">+ getUniforme()</text>
<text text-anchor="start" x="300.16" y="-767.5" font-family="Helvetica,sans-Serif" font-size="20.00">+ printOutDados()</text>
</a>
</g>
</g>
<!-- Node4&#45;&gt;Node3 -->
<g id="edge3" class="edge">
<title>Node4&#45;&gt;Node3</title>
<path fill="none" stroke="#404040" d="M334.54,-757.31C332.04,-751.26 329.87,-745.13 328.16,-739 325.61,-729.9 323.56,-720.5 321.92,-710.95"/>
<polygon fill="none" stroke="#404040" points="321.87,-710.64 317.01,-705.31 320.06,-698.78 324.92,-704.11 321.87,-710.64"/>
<text text-anchor="middle" x="379.66" y="-723" font-family="Helvetica,sans-Serif" font-size="20.00"> #tratador</text>
</g>
<!-- Node5 -->
<g id="node5" class="node">
<title>Node5</title>
<g id="a_node5"><a xlink:href="classPessoa.html" target="_top" xlink:title="Classe base dos funcionarios.">
<polygon fill="white" stroke="black" points="265.16,-1151.5 265.16,-1395.5 465.16,-1395.5 465.16,-1151.5 265.16,-1151.5"/>
<text text-anchor="middle" x="365.16" y="-1375.5" font-family="Helvetica,sans-Serif" font-size="20.00">Pessoa</text>
<polyline fill="none" stroke="black" points="265.16,-1365.5 465.16,-1365.5 "/>
<text text-anchor="middle" x="365.16" y="-1345.5" font-family="Helvetica,sans-Serif" font-size="20.00"> </text>
<polyline fill="none" stroke="black" points="265.16,-1335.5 465.16,-1335.5 "/>
<text text-anchor="start" x="273.16" y="-1315.5" font-family="Helvetica,sans-Serif" font-size="20.00">+ Pessoa()</text>
<text text-anchor="start" x="273.16" y="-1293.5" font-family="Helvetica,sans-Serif" font-size="20.00">+ Pessoa()</text>
<text text-anchor="start" x="273.16" y="-1271.5" font-family="Helvetica,sans-Serif" font-size="20.00">+ ~Pessoa()</text>
<text text-anchor="start" x="273.16" y="-1249.5" font-family="Helvetica,sans-Serif" font-size="20.00">+ getNome()</text>
<text text-anchor="start" x="273.16" y="-1227.5" font-family="Helvetica,sans-Serif" font-size="20.00">+ getTelefone()</text>
<text text-anchor="start" x="273.16" y="-1205.5" font-family="Helvetica,sans-Serif" font-size="20.00">+ getEmail()</text>
<text text-anchor="start" x="273.16" y="-1183.5" font-family="Helvetica,sans-Serif" font-size="20.00">+ printOutDados()</text>
<text text-anchor="start" x="273.16" y="-1161.5" font-family="Helvetica,sans-Serif" font-size="20.00">+ operator==()</text>
</a>
</g>
</g>
<!-- Node5&#45;&gt;Node4 -->
<g id="edge4" class="edge">
<title>Node5&#45;&gt;Node4</title>
<path fill="none" stroke="midnightblue" d="M373.51,-1141.11C377.74,-1074.39 382.78,-995.12 386.55,-935.78"/>
<polygon fill="none" stroke="midnightblue" points="370,-1141.08 372.86,-1151.28 376.99,-1141.52 370,-1141.08"/>
</g>
<!-- Node9 -->
<g id="node9" class="node">
<title>Node9</title>
<g id="a_node9"><a xlink:href="classVeterinario.html" target="_top" xlink:title="Implementação dos veterinarios.">
<polygon fill="white" stroke="black" points="74.16,-757.5 74.16,-935.5 274.16,-935.5 274.16,-757.5 74.16,-757.5"/>
<text text-anchor="middle" x="174.16" y="-915.5" font-family="Helvetica,sans-Serif" font-size="20.00">Veterinario</text>
<polyline fill="none" stroke="black" points="74.16,-905.5 274.16,-905.5 "/>
<text text-anchor="middle" x="174.16" y="-885.5" font-family="Helvetica,sans-Serif" font-size="20.00"> </text>
<polyline fill="none" stroke="black" points="74.16,-875.5 274.16,-875.5 "/>
<text text-anchor="start" x="82.16" y="-855.5" font-family="Helvetica,sans-Serif" font-size="20.00">+ Veterinario()</text>
<text text-anchor="start" x="82.16" y="-833.5" font-family="Helvetica,sans-Serif" font-size="20.00">+ Veterinario()</text>
<text text-anchor="start" x="82.16" y="-811.5" font-family="Helvetica,sans-Serif" font-size="20.00">+ ~Veterinario()</text>
<text text-anchor="start" x="82.16" y="-789.5" font-family="Helvetica,sans-Serif" font-size="20.00">+ getCRMV()</text>
<text text-anchor="start" x="82.16" y="-767.5" font-family="Helvetica,sans-Serif" font-size="20.00">+ printOutDados()</text>
</a>
</g>
</g>
<!-- Node5&#45;&gt;Node9 -->
<g id="edge10" class="edge">
<title>Node5&#45;&gt;Node9</title>
<path fill="none" stroke="midnightblue" d="M306.48,-1141.93C276.42,-1075.04 240.61,-995.37 213.83,-935.78"/>
<polygon fill="none" stroke="midnightblue" points="303.39,-1143.59 310.68,-1151.28 309.77,-1140.72 303.39,-1143.59"/>
</g>
<!-- Node6 -->
<g id="node6" class="node">
<title>Node6</title>
<g id="a_node6"><a xlink:title=" ">
<polygon fill="white" stroke="#bfbfbf" points="232.16,-1498.5 232.16,-1588.5 306.16,-1588.5 306.16,-1498.5 232.16,-1498.5"/>
<text text-anchor="middle" x="269.16" y="-1568.5" font-family="Helvetica,sans-Serif" font-size="20.00">string</text>
<polyline fill="none" stroke="#bfbfbf" points="232.16,-1558.5 306.16,-1558.5 "/>
<text text-anchor="middle" x="269.16" y="-1538.5" font-family="Helvetica,sans-Serif" font-size="20.00"> </text>
<polyline fill="none" stroke="#bfbfbf" points="232.16,-1528.5 306.16,-1528.5 "/>
<text text-anchor="middle" x="269.16" y="-1508.5" font-family="Helvetica,sans-Serif" font-size="20.00"> </text>
</a>
</g>
</g>
<!-- Node6&#45;&gt;Node3 -->
<g id="edge8" class="edge">
<title>Node6&#45;&gt;Node3</title>
<path fill="none" stroke="#404040" d="M231.82,-1519.83C216.33,-1509.14 199.02,-1495.35 186.16,-1480 27.84,-1291.04 -23.3,-1198.24 10.16,-954 22.49,-863.94 17.14,-834.19 65.16,-757 101.21,-699.05 155.73,-647 205.73,-606.74"/>
<polygon fill="none" stroke="#404040" points="205.94,-606.57 208.15,-599.7 215.33,-599.1 213.13,-605.97 205.94,-606.57"/>
<text text-anchor="middle" x="86.16" y="-1060.5" font-family="Helvetica,sans-Serif" font-size="20.00"> #especie</text>
<text text-anchor="middle" x="86.16" y="-1038.5" font-family="Helvetica,sans-Serif" font-size="20.00">#ameacadoPor</text>
<text text-anchor="middle" x="86.16" y="-1016.5" font-family="Helvetica,sans-Serif" font-size="20.00">#nome</text>
</g>
<!-- Node6&#45;&gt;Node5 -->
<g id="edge5" class="edge">
<title>Node6&#45;&gt;Node5</title>
<path fill="none" stroke="#404040" d="M285.01,-1498.25C294.01,-1473.11 305.81,-1440.18 317.57,-1407.34"/>
<polygon fill="none" stroke="#404040" points="317.68,-1407.04 315.94,-1400.04 321.73,-1395.74 323.47,-1402.74 317.68,-1407.04"/>
<text text-anchor="middle" x="363.66" y="-1464" font-family="Helvetica,sans-Serif" font-size="20.00"> #email</text>
<text text-anchor="middle" x="363.66" y="-1442" font-family="Helvetica,sans-Serif" font-size="20.00">#nome</text>
<text text-anchor="middle" x="363.66" y="-1420" font-family="Helvetica,sans-Serif" font-size="20.00">#telefone</text>
</g>
<!-- Node6&#45;&gt;Node9 -->
<g id="edge11" class="edge">
<title>Node6&#45;&gt;Node9</title>
<path fill="none" stroke="#404040" d="M235.14,-1498.43C215.87,-1470.69 193.6,-1433.2 183.16,-1396 160.34,-1314.69 164.82,-1082.82 169.72,-948.01"/>
<polygon fill="none" stroke="#404040" points="169.73,-947.66 165.96,-941.52 170.18,-935.67 173.96,-941.82 169.73,-947.66"/>
<text text-anchor="middle" x="219.66" y="-1268.5" font-family="Helvetica,sans-Serif" font-size="20.00"> &#45;CRMV</text>
</g>
<!-- Node10 -->
<g id="node10" class="node">
<title>Node10</title>
<g id="a_node10"><a xlink:href="classNativo.html" target="_top" xlink:title="Umas das definições de categoria para Animal.">
<polygon fill="white" stroke="black" points="584.16,-954.5 584.16,-1132.5 746.16,-1132.5 746.16,-954.5 584.16,-954.5"/>
<text text-anchor="middle" x="665.16" y="-1112.5" font-family="Helvetica,sans-Serif" font-size="20.00">Nativo</text>
<polyline fill="none" stroke="black" points="584.16,-1102.5 746.16,-1102.5 "/>
<text text-anchor="middle" x="665.16" y="-1082.5" font-family="Helvetica,sans-Serif" font-size="20.00"> </text>
<polyline fill="none" stroke="black" points="584.16,-1072.5 746.16,-1072.5 "/>
<text text-anchor="start" x="592.16" y="-1052.5" font-family="Helvetica,sans-Serif" font-size="20.00">+ Nativo()</text>
<text text-anchor="start" x="592.16" y="-1030.5" font-family="Helvetica,sans-Serif" font-size="20.00">+ Nativo()</text>
<text text-anchor="start" x="592.16" y="-1008.5" font-family="Helvetica,sans-Serif" font-size="20.00">+ ~Nativo()</text>
<text text-anchor="start" x="592.16" y="-986.5" font-family="Helvetica,sans-Serif" font-size="20.00">+ getRegiao()</text>
<text text-anchor="start" x="592.16" y="-964.5" font-family="Helvetica,sans-Serif" font-size="20.00">+ getLicenca()</text>
</a>
</g>
</g>
<!-- Node6&#45;&gt;Node10 -->
<g id="edge14" class="edge">
<title>Node6&#45;&gt;Node10</title>
<path fill="none" stroke="#404040" d="M306.29,-1537.48C375.72,-1526.01 524.89,-1491.1 599.16,-1396 654.75,-1324.81 668.48,-1221.03 669.96,-1144.69"/>
<polygon fill="none" stroke="#404040" points="669.96,-1144.68 666.03,-1138.63 670.1,-1132.68 674.03,-1138.72 669.96,-1144.68"/>
<text text-anchor="middle" x="627.66" y="-1453" font-family="Helvetica,sans-Serif" font-size="20.00"> #licenca</text>
<text text-anchor="middle" x="627.66" y="-1431" font-family="Helvetica,sans-Serif" font-size="20.00">#regiao</text>
</g>
<!-- Node7 -->
<g id="node7" class="node">
<title>Node7</title>
<g id="a_node7"><a xlink:title=" ">
<polygon fill="white" stroke="#bfbfbf" points="483.66,-1228.5 483.66,-1318.5 590.66,-1318.5 590.66,-1228.5 483.66,-1228.5"/>
<text text-anchor="middle" x="537.16" y="-1298.5" font-family="Helvetica,sans-Serif" font-size="20.00">Uniforme</text>
<polyline fill="none" stroke="#bfbfbf" points="483.66,-1288.5 590.66,-1288.5 "/>
<text text-anchor="middle" x="537.16" y="-1268.5" font-family="Helvetica,sans-Serif" font-size="20.00"> </text>
<polyline fill="none" stroke="#bfbfbf" points="483.66,-1258.5 590.66,-1258.5 "/>
<text text-anchor="middle" x="537.16" y="-1238.5" font-family="Helvetica,sans-Serif" font-size="20.00"> </text>
</a>
</g>
</g>
<!-- Node7&#45;&gt;Node4 -->
<g id="edge6" class="edge">
<title>Node7&#45;&gt;Node4</title>
<path fill="none" stroke="#404040" d="M514.34,-1228.37C500.92,-1201.31 484.27,-1165.7 472.16,-1133 449.76,-1072.51 430.12,-1002.84 415.91,-947.46"/>
<polygon fill="none" stroke="#404040" points="415.83,-947.14 410.47,-942.31 412.87,-935.51 418.22,-940.34 415.83,-947.14"/>
<text text-anchor="middle" x="523.66" y="-1038.5" font-family="Helvetica,sans-Serif" font-size="20.00"> &#45;uniforme</text>
</g>
<!-- Node8 -->
<g id="node8" class="node">
<title>Node8</title>
<g id="a_node8"><a xlink:title=" ">
<polygon fill="white" stroke="#bfbfbf" points="529.66,-801.5 529.66,-891.5 588.66,-891.5 588.66,-801.5 529.66,-801.5"/>
<text text-anchor="middle" x="559.16" y="-871.5" font-family="Helvetica,sans-Serif" font-size="20.00">bool</text>
<polyline fill="none" stroke="#bfbfbf" points="529.66,-861.5 588.66,-861.5 "/>
<text text-anchor="middle" x="559.16" y="-841.5" font-family="Helvetica,sans-Serif" font-size="20.00"> </text>
<polyline fill="none" stroke="#bfbfbf" points="529.66,-831.5 588.66,-831.5 "/>
<text text-anchor="middle" x="559.16" y="-811.5" font-family="Helvetica,sans-Serif" font-size="20.00"> </text>
</a>
</g>
</g>
<!-- Node8&#45;&gt;Node2 -->
<g id="edge12" class="edge">
<title>Node8&#45;&gt;Node2</title>
<path fill="none" stroke="#404040" d="M560.93,-801.46C561.67,-782.28 562.51,-759.53 563.16,-739 567.8,-591.76 571.9,-420.55 574.2,-318.82"/>
<polygon fill="none" stroke="#404040" points="574.21,-318.76 570.34,-312.67 574.48,-306.76 578.34,-312.85 574.21,-318.76"/>
<text text-anchor="middle" x="603.66" y="-516.5" font-family="Helvetica,sans-Serif" font-size="20.00"> #voa</text>
</g>
<!-- Node8&#45;&gt;Node3 -->
<g id="edge7" class="edge">
<title>Node8&#45;&gt;Node3</title>
<path fill="none" stroke="#404040" d="M537.56,-801.17C528.16,-785.52 515.89,-768.87 501.16,-757 483.74,-742.97 471.22,-753.46 454.16,-739 443.25,-729.76 433.05,-719.32 423.56,-708.16"/>
<polygon fill="none" stroke="#404040" points="423.35,-707.91 416.46,-705.8 415.75,-698.62 422.65,-700.73 423.35,-707.91"/>
<text text-anchor="middle" x="508.66" y="-723" font-family="Helvetica,sans-Serif" font-size="20.00"> #perigoso</text>
</g>
<!-- Node9&#45;&gt;Node3 -->
<g id="edge9" class="edge">
<title>Node9&#45;&gt;Node3</title>
<path fill="none" stroke="#404040" d="M179.32,-757.34C181.78,-743.55 185.26,-729.69 190.16,-717 195.53,-703.09 202.12,-689.24 209.46,-675.7"/>
<polygon fill="none" stroke="#404040" points="209.64,-675.39 209.08,-668.2 215.5,-664.92 216.06,-672.11 209.64,-675.39"/>
<text text-anchor="middle" x="255.16" y="-723" font-family="Helvetica,sans-Serif" font-size="20.00"> #veterinario</text>
</g>
<!-- Node10&#45;&gt;Node1 -->
<g id="edge13" class="edge">
<title>Node10&#45;&gt;Node1</title>
<path fill="none" stroke="midnightblue" d="M665.16,-944.2C665.16,-882.42 665.16,-801.05 665.16,-729 665.16,-729 665.16,-729 665.16,-227.5 665.16,-188.27 653.82,-145.59 642.53,-112.81"/>
<polygon fill="none" stroke="midnightblue" points="661.66,-944.33 665.16,-954.33 668.66,-944.33 661.66,-944.33"/>
</g>
</g>
</svg>
