<?xml version="1.0" encoding="UTF-8" standalone="no"?>
<!DOCTYPE svg PUBLIC "-//W3C//DTD SVG 1.1//EN"
 "http://www.w3.org/Graphics/SVG/1.1/DTD/svg11.dtd">
<!-- Generated by graphviz version 2.43.0 (0)
 -->
<!-- Title: AveExotica Pages: 1 -->
<!--zoomable 903 -->
<svg id="main" version="1.1" xmlns="http://www.w3.org/2000/svg" xmlns:xlink="http://www.w3.org/1999/xlink" xml:space="preserve" onload="init(evt)">
<style type="text/css"><![CDATA[
.edge:hover path { stroke: red; }
.edge:hover polygon { stroke: red; fill: red; }
]]></style>
<script type="text/javascript"><![CDATA[
var edges = document.getElementsByTagName('g');
if (edges && edges.length) {
  for (var i=0;i<edges.length;i++) {
    if (edges[i].id.substr(0,4)=='edge') {
      edges[i].setAttribute('class','edge');
    }
  }
}
]]></script>
        <defs>
                <circle id="rim" cx="0" cy="0" r="7"/>
                <circle id="rim2" cx="0" cy="0" r="3.5"/>
                <g id="zoomPlus">
                        <use xlink:href="#rim" fill="#404040">
                                <set attributeName="fill" to="#808080" begin="zoomplus.mouseover" end="zoomplus.mouseout"/>
                        </use>
                        <path d="M-4,0h8M0,-4v8" fill="none" stroke="white" stroke-width="1.5" pointer-events="none"/>
                </g>
                <g id="zoomMin">
                        <use xlink:href="#rim" fill="#404040">
                                <set attributeName="fill" to="#808080" begin="zoomminus.mouseover" end="zoomminus.mouseout"/>
                        </use>
                        <path d="M-4,0h8" fill="none" stroke="white" stroke-width="1.5" pointer-events="none"/>
                </g>
                <g id="dirArrow">
                        <path fill="none" stroke="white" stroke-width="1.5" d="M0,-3.0v7 M-2.5,-0.5L0,-3.0L2.5,-0.5"/>
                </g>
               <g id="resetDef">
                       <use xlink:href="#rim2" fill="#404040">
                               <set attributeName="fill" to="#808080" begin="reset.mouseover" end="reset.mouseout"/>
                       </use>
               </g>
        </defs>

<script type="text/javascript">
var viewWidth = 342;
var viewHeight = 903;
var sectionId = 'dynsection-0';
</script>
<script xlink:href="svgpan.js"/>
<svg id="graph" class="graph">
<g id="viewport">
<title>AveExotica</title>
<polygon fill="white" stroke="transparent" points="-4,4 -4,-899 338,-899 338,4 -4,4"/>
<!-- Node1 -->
<g id="node1" class="node">
<title>Node1</title>
<g id="a_node1"><a xlink:title="Implementação de animal com Classe e Categoria.">
<polygon fill="#bfbfbf" stroke="black" points="97,-0.5 97,-134.5 276,-134.5 276,-0.5 97,-0.5"/>
<text text-anchor="middle" x="186.5" y="-114.5" font-family="Helvetica,sans-Serif" font-size="20.00">AveExotica</text>
<polyline fill="none" stroke="black" points="97,-104.5 276,-104.5 "/>
<text text-anchor="middle" x="186.5" y="-84.5" font-family="Helvetica,sans-Serif" font-size="20.00"> </text>
<polyline fill="none" stroke="black" points="97,-74.5 276,-74.5 "/>
<text text-anchor="start" x="105" y="-54.5" font-family="Helvetica,sans-Serif" font-size="20.00">+ AveExotica()</text>
<text text-anchor="start" x="105" y="-32.5" font-family="Helvetica,sans-Serif" font-size="20.00">+ AveExotica()</text>
<text text-anchor="start" x="105" y="-10.5" font-family="Helvetica,sans-Serif" font-size="20.00">+ ~AveExotica()</text>
</a>
</g>
</g>
<!-- Node2 -->
<g id="node2" class="node">
<title>Node2</title>
<g id="a_node2"><a xlink:href="classAve.html" target="_top" xlink:title="Classificação base para Aves.">
<polygon fill="white" stroke="black" points="50.5,-171.5 50.5,-371.5 172.5,-371.5 172.5,-171.5 50.5,-171.5"/>
<text text-anchor="middle" x="111.5" y="-351.5" font-family="Helvetica,sans-Serif" font-size="20.00">Ave</text>
<polyline fill="none" stroke="black" points="50.5,-341.5 172.5,-341.5 "/>
<text text-anchor="start" x="58.5" y="-321.5" font-family="Helvetica,sans-Serif" font-size="20.00"># voa</text>
<polyline fill="none" stroke="black" points="50.5,-311.5 172.5,-311.5 "/>
<text text-anchor="start" x="58.5" y="-291.5" font-family="Helvetica,sans-Serif" font-size="20.00">+ Ave()</text>
<text text-anchor="start" x="58.5" y="-269.5" font-family="Helvetica,sans-Serif" font-size="20.00">+ Ave()</text>
<text text-anchor="start" x="58.5" y="-247.5" font-family="Helvetica,sans-Serif" font-size="20.00">+ ~Ave()</text>
<text text-anchor="start" x="58.5" y="-225.5" font-family="Helvetica,sans-Serif" font-size="20.00">+ getVoa()</text>
<text text-anchor="start" x="58.5" y="-203.5" font-family="Helvetica,sans-Serif" font-size="20.00">+ setVoa()</text>
<text text-anchor="start" x="58.5" y="-181.5" font-family="Helvetica,sans-Serif" font-size="20.00">+ setVoa()</text>
</a>
</g>
</g>
<!-- Node2&#45;&gt;Node1 -->
<g id="edge1" class="edge">
<title>Node2&#45;&gt;Node1</title>
<path fill="none" stroke="midnightblue" d="M151.92,-161.63C155.35,-152.4 158.74,-143.26 161.99,-134.51"/>
<polygon fill="none" stroke="midnightblue" points="148.54,-160.68 148.34,-171.28 155.1,-163.12 148.54,-160.68"/>
</g>
<!-- Node3 -->
<g id="node3" class="node">
<title>Node3</title>
<g id="a_node3"><a xlink:href="classAnimal.html" target="_top" xlink:title="Implementação base para o cadastro de animais.">
<polygon fill="white" stroke="black" points="0,-408.5 0,-894.5 223,-894.5 223,-408.5 0,-408.5"/>
<text text-anchor="middle" x="111.5" y="-874.5" font-family="Helvetica,sans-Serif" font-size="20.00">Animal</text>
<polyline fill="none" stroke="black" points="0,-864.5 223,-864.5 "/>
<text text-anchor="start" x="8" y="-844.5" font-family="Helvetica,sans-Serif" font-size="20.00"># nome</text>
<text text-anchor="start" x="8" y="-822.5" font-family="Helvetica,sans-Serif" font-size="20.00"># especie</text>
<text text-anchor="start" x="8" y="-800.5" font-family="Helvetica,sans-Serif" font-size="20.00"># ameacadoPor</text>
<text text-anchor="start" x="8" y="-778.5" font-family="Helvetica,sans-Serif" font-size="20.00"># veterinario</text>
<text text-anchor="start" x="8" y="-756.5" font-family="Helvetica,sans-Serif" font-size="20.00"># tratador</text>
<text text-anchor="start" x="8" y="-734.5" font-family="Helvetica,sans-Serif" font-size="20.00"># perigoso</text>
<polyline fill="none" stroke="black" points="0,-724.5 223,-724.5 "/>
<text text-anchor="start" x="8" y="-704.5" font-family="Helvetica,sans-Serif" font-size="20.00">+ Animal()</text>
<text text-anchor="start" x="8" y="-682.5" font-family="Helvetica,sans-Serif" font-size="20.00">+ Animal()</text>
<text text-anchor="start" x="8" y="-660.5" font-family="Helvetica,sans-Serif" font-size="20.00">+ ~Animal()</text>
<text text-anchor="start" x="8" y="-638.5" font-family="Helvetica,sans-Serif" font-size="20.00">+ getNome()</text>
<text text-anchor="start" x="8" y="-616.5" font-family="Helvetica,sans-Serif" font-size="20.00">+ getEspecie()</text>
<text text-anchor="start" x="8" y="-594.5" font-family="Helvetica,sans-Serif" font-size="20.00">+ getAmeacadoPor()</text>
<text text-anchor="start" x="8" y="-572.5" font-family="Helvetica,sans-Serif" font-size="20.00">+ getVeterinario()</text>
<text text-anchor="start" x="8" y="-550.5" font-family="Helvetica,sans-Serif" font-size="20.00">+ getTratador()</text>
<text text-anchor="start" x="8" y="-528.5" font-family="Helvetica,sans-Serif" font-size="20.00">+ getPerigoso()</text>
<text text-anchor="start" x="8" y="-506.5" font-family="Helvetica,sans-Serif" font-size="20.00">+ setNome()</text>
<text text-anchor="start" x="8" y="-484.5" font-family="Helvetica,sans-Serif" font-size="20.00">e 13 mais...</text>
<text text-anchor="start" x="8" y="-462.5" font-family="Helvetica,sans-Serif" font-size="20.00">+ getClassificacao()</text>
<text text-anchor="start" x="8" y="-440.5" font-family="Helvetica,sans-Serif" font-size="20.00">+ getClasse()</text>
<text text-anchor="start" x="8" y="-418.5" font-family="Helvetica,sans-Serif" font-size="20.00">+ printOutDetails()</text>
</a>
</g>
</g>
<!-- Node3&#45;&gt;Node2 -->
<g id="edge2" class="edge">
<title>Node3&#45;&gt;Node2</title>
<path fill="none" stroke="midnightblue" d="M111.5,-398.4C111.5,-389.22 111.5,-380.28 111.5,-371.65"/>
<polygon fill="none" stroke="midnightblue" points="108,-398.43 111.5,-408.43 115,-398.43 108,-398.43"/>
</g>
<!-- Node4 -->
<g id="node4" class="node">
<title>Node4</title>
<g id="a_node4"><a xlink:href="classExotico.html" target="_top" xlink:title="Umas das definições de categoria para Animal.">
<polygon fill="white" stroke="black" points="191,-171.5 191,-371.5 334,-371.5 334,-171.5 191,-171.5"/>
<text text-anchor="middle" x="262.5" y="-351.5" font-family="Helvetica,sans-Serif" font-size="20.00">Exotico</text>
<polyline fill="none" stroke="black" points="191,-341.5 334,-341.5 "/>
<text text-anchor="start" x="199" y="-321.5" font-family="Helvetica,sans-Serif" font-size="20.00"># local</text>
<polyline fill="none" stroke="black" points="191,-311.5 334,-311.5 "/>
<text text-anchor="start" x="199" y="-291.5" font-family="Helvetica,sans-Serif" font-size="20.00">+ Exotico()</text>
<text text-anchor="start" x="199" y="-269.5" font-family="Helvetica,sans-Serif" font-size="20.00">+ Exotico()</text>
<text text-anchor="start" x="199" y="-247.5" font-family="Helvetica,sans-Serif" font-size="20.00">+ ~Exotico()</text>
<text text-anchor="start" x="199" y="-225.5" font-family="Helvetica,sans-Serif" font-size="20.00">+ getLocal()</text>
<text text-anchor="start" x="199" y="-203.5" font-family="Helvetica,sans-Serif" font-size="20.00">+ setLocal()</text>
<text text-anchor="start" x="199" y="-181.5" font-family="Helvetica,sans-Serif" font-size="20.00">+ setLocal()</text>
</a>
</g>
</g>
<!-- Node4&#45;&gt;Node1 -->
<g id="edge3" class="edge">
<title>Node4&#45;&gt;Node1</title>
<path fill="none" stroke="midnightblue" d="M221.54,-161.63C218.07,-152.4 214.63,-143.26 211.34,-134.51"/>
<polygon fill="none" stroke="midnightblue" points="218.37,-163.15 225.17,-171.28 224.92,-160.68 218.37,-163.15"/>
</g>
</g>
</svg>
        <g id="navigator" transform="translate(0 0)" fill="#404254">
                <rect fill="#f2f5e9" fill-opacity="0.5" stroke="#606060" stroke-width=".5" x="0" y="0" width="60" height="60"/>
                <use id="zoomplus" xlink:href="#zoomPlus" x="17" y="9" onmousedown="handleZoom(evt,'in')"/>
                <use id="zoomminus" xlink:href="#zoomMin" x="42" y="9" onmousedown="handleZoom(evt,'out')"/>
                <use id="reset" xlink:href="#resetDef" x="30" y="36" onmousedown="handleReset()"/>
                <g id="arrowUp" xlink:href="#dirArrow" transform="translate(30 24)" onmousedown="handlePan(0,-1)">
                  <use xlink:href="#rim" fill="#404040">
                        <set attributeName="fill" to="#808080" begin="arrowUp.mouseover" end="arrowUp.mouseout"/>
                  </use>
                  <path fill="none" stroke="white" stroke-width="1.5" d="M0,-3.0v7 M-2.5,-0.5L0,-3.0L2.5,-0.5"/>
                </g>
                <g id="arrowRight" xlink:href="#dirArrow" transform="rotate(90) translate(36 -43)" onmousedown="handlePan(1,0)">
                  <use xlink:href="#rim" fill="#404040">
                        <set attributeName="fill" to="#808080" begin="arrowRight.mouseover" end="arrowRight.mouseout"/>
                  </use>
                  <path fill="none" stroke="white" stroke-width="1.5" d="M0,-3.0v7 M-2.5,-0.5L0,-3.0L2.5,-0.5"/>
                </g>
                <g id="arrowDown" xlink:href="#dirArrow" transform="rotate(180) translate(-30 -48)" onmousedown="handlePan(0,1)">
                  <use xlink:href="#rim" fill="#404040">
                        <set attributeName="fill" to="#808080" begin="arrowDown.mouseover" end="arrowDown.mouseout"/>
                  </use>
                  <path fill="none" stroke="white" stroke-width="1.5" d="M0,-3.0v7 M-2.5,-0.5L0,-3.0L2.5,-0.5"/>
                </g>
                <g id="arrowLeft" xlink:href="#dirArrow" transform="rotate(270) translate(-36 17)" onmousedown="handlePan(-1,0)">
                  <use xlink:href="#rim" fill="#404040">
                        <set attributeName="fill" to="#808080" begin="arrowLeft.mouseover" end="arrowLeft.mouseout"/>
                  </use>
                  <path fill="none" stroke="white" stroke-width="1.5" d="M0,-3.0v7 M-2.5,-0.5L0,-3.0L2.5,-0.5"/>
                </g>
        </g>
        <svg viewBox="0 0 15 15" width="100%" height="30px" preserveAspectRatio="xMaxYMin meet">
         <g id="arrow_out" transform="scale(0.3 0.3)">
          <a xlink:href="classAveExotica__inherit__graph_org.svg" target="_base">
           <rect id="button" ry="5" rx="5" y="6" x="6" height="38" width="38"
                fill="#f2f5e9" fill-opacity="0.5" stroke="#606060" stroke-width="1.0"/>
           <path id="arrow"
             d="M 11.500037,31.436501 C 11.940474,20.09759 22.043105,11.32322 32.158766,21.979434 L 37.068811,17.246167 C 37.068811,17.246167 37.088388,32 37.088388,32 L 22.160133,31.978069 C 22.160133,31.978069 26.997745,27.140456 26.997745,27.140456 C 18.528582,18.264221 13.291696,25.230495 11.500037,31.436501 z"
             style="fill:#404040;"/>
          </a>
         </g>
        </svg>
</svg>
