<?xml version="1.0" encoding="UTF-8" standalone="no"?>
<!DOCTYPE svg PUBLIC "-//W3C//DTD SVG 1.1//EN"
 "http://www.w3.org/Graphics/SVG/1.1/DTD/svg11.dtd">
<!-- Generated by graphviz version 2.43.0 (0)
 -->
<!-- Title: AveExotica Pages: 1 -->
<!--zoomable 1817 -->
<svg id="main" version="1.1" xmlns="http://www.w3.org/2000/svg" xmlns:xlink="http://www.w3.org/1999/xlink" xml:space="preserve" onload="init(evt)">
<style type="text/css"><![CDATA[
.edge:hover path { stroke: red; }
.edge:hover polygon { stroke: red; fill: red; }
]]></style>
<script type="text/javascript"><![CDATA[
var edges = document.getElementsByTagName('g');
if (edges && edges.length) {
  for (var i=0;i<edges.length;i++) {
    if (edges[i].id.substr(0,4)=='edge') {
      edges[i].setAttribute('class','edge');
    }
  }
}
]]></script>
        <defs>
                <circle id="rim" cx="0" cy="0" r="7"/>
                <circle id="rim2" cx="0" cy="0" r="3.5"/>
                <g id="zoomPlus">
                        <use xlink:href="#rim" fill="#404040">
                                <set attributeName="fill" to="#808080" begin="zoomplus.mouseover" end="zoomplus.mouseout"/>
                        </use>
                        <path d="M-4,0h8M0,-4v8" fill="none" stroke="white" stroke-width="1.5" pointer-events="none"/>
                </g>
                <g id="zoomMin">
                        <use xlink:href="#rim" fill="#404040">
                                <set attributeName="fill" to="#808080" begin="zoomminus.mouseover" end="zoomminus.mouseout"/>
                        </use>
                        <path d="M-4,0h8" fill="none" stroke="white" stroke-width="1.5" pointer-events="none"/>
                </g>
                <g id="dirArrow">
                        <path fill="none" stroke="white" stroke-width="1.5" d="M0,-3.0v7 M-2.5,-0.5L0,-3.0L2.5,-0.5"/>
                </g>
               <g id="resetDef">
                       <use xlink:href="#rim2" fill="#404040">
                               <set attributeName="fill" to="#808080" begin="reset.mouseover" end="reset.mouseout"/>
                       </use>
               </g>
        </defs>

<script type="text/javascript">
var viewWidth = 753;
var viewHeight = 1817;
var sectionId = 'dynsection-1';
</script>
<script xlink:href="svgpan.js"/>
<svg id="graph" class="graph">
<g id="viewport">
<title>AveExotica</title>
<polygon fill="white" stroke="transparent" points="-4,4 -4,-1813 748.75,-1813 748.75,4 -4,4"/>
<!-- Node1 -->
<g id="node1" class="node">
<title>Node1</title>
<g id="a_node1"><a xlink:title="Implementação de animal com Classe e Categoria.">
<polygon fill="#bfbfbf" stroke="black" points="538.75,-0.5 538.75,-134.5 717.75,-134.5 717.75,-0.5 538.75,-0.5"/>
<text text-anchor="middle" x="628.25" y="-114.5" font-family="Helvetica,sans-Serif" font-size="20.00">AveExotica</text>
<polyline fill="none" stroke="black" points="538.75,-104.5 717.75,-104.5 "/>
<text text-anchor="middle" x="628.25" y="-84.5" font-family="Helvetica,sans-Serif" font-size="20.00"> </text>
<polyline fill="none" stroke="black" points="538.75,-74.5 717.75,-74.5 "/>
<text text-anchor="start" x="546.75" y="-54.5" font-family="Helvetica,sans-Serif" font-size="20.00">+ AveExotica()</text>
<text text-anchor="start" x="546.75" y="-32.5" font-family="Helvetica,sans-Serif" font-size="20.00">+ AveExotica()</text>
<text text-anchor="start" x="546.75" y="-10.5" font-family="Helvetica,sans-Serif" font-size="20.00">+ ~AveExotica()</text>
</a>
</g>
</g>
<!-- Node2 -->
<g id="node2" class="node">
<title>Node2</title>
<g id="a_node2"><a xlink:href="classAve.html" target="_top" xlink:title="Classificação base para Aves.">
<polygon fill="white" stroke="black" points="523.25,-172.5 523.25,-372.5 645.25,-372.5 645.25,-172.5 523.25,-172.5"/>
<text text-anchor="middle" x="584.25" y="-352.5" font-family="Helvetica,sans-Serif" font-size="20.00">Ave</text>
<polyline fill="none" stroke="black" points="523.25,-342.5 645.25,-342.5 "/>
<text text-anchor="middle" x="584.25" y="-322.5" font-family="Helvetica,sans-Serif" font-size="20.00"> </text>
<polyline fill="none" stroke="black" points="523.25,-312.5 645.25,-312.5 "/>
<text text-anchor="start" x="531.25" y="-292.5" font-family="Helvetica,sans-Serif" font-size="20.00">+ Ave()</text>
<text text-anchor="start" x="531.25" y="-270.5" font-family="Helvetica,sans-Serif" font-size="20.00">+ Ave()</text>
<text text-anchor="start" x="531.25" y="-248.5" font-family="Helvetica,sans-Serif" font-size="20.00">+ ~Ave()</text>
<text text-anchor="start" x="531.25" y="-226.5" font-family="Helvetica,sans-Serif" font-size="20.00">+ getVoa()</text>
<text text-anchor="start" x="531.25" y="-204.5" font-family="Helvetica,sans-Serif" font-size="20.00">+ setVoa()</text>
<text text-anchor="start" x="531.25" y="-182.5" font-family="Helvetica,sans-Serif" font-size="20.00">+ setVoa()</text>
</a>
</g>
</g>
<!-- Node2&#45;&gt;Node1 -->
<g id="edge1" class="edge">
<title>Node2&#45;&gt;Node1</title>
<path fill="none" stroke="midnightblue" d="M607.88,-162.5C609.93,-153.03 611.96,-143.65 613.91,-134.69"/>
<polygon fill="none" stroke="midnightblue" points="604.44,-161.86 605.74,-172.38 611.28,-163.35 604.44,-161.86"/>
</g>
<!-- Node3 -->
<g id="node3" class="node">
<title>Node3</title>
<g id="a_node3"><a xlink:href="classAnimal.html" target="_top" xlink:title="Implementação base para o cadastro de animais.">
<polygon fill="white" stroke="black" points="223.75,-410.5 223.75,-720.5 446.75,-720.5 446.75,-410.5 223.75,-410.5"/>
<text text-anchor="middle" x="335.25" y="-700.5" font-family="Helvetica,sans-Serif" font-size="20.00">Animal</text>
<polyline fill="none" stroke="black" points="223.75,-690.5 446.75,-690.5 "/>
<text text-anchor="middle" x="335.25" y="-670.5" font-family="Helvetica,sans-Serif" font-size="20.00"> </text>
<polyline fill="none" stroke="black" points="223.75,-660.5 446.75,-660.5 "/>
<text text-anchor="start" x="231.75" y="-640.5" font-family="Helvetica,sans-Serif" font-size="20.00">+ Animal()</text>
<text text-anchor="start" x="231.75" y="-618.5" font-family="Helvetica,sans-Serif" font-size="20.00">+ Animal()</text>
<text text-anchor="start" x="231.75" y="-596.5" font-family="Helvetica,sans-Serif" font-size="20.00">+ ~Animal()</text>
<text text-anchor="start" x="231.75" y="-574.5" font-family="Helvetica,sans-Serif" font-size="20.00">+ getNome()</text>
<text text-anchor="start" x="231.75" y="-552.5" font-family="Helvetica,sans-Serif" font-size="20.00">+ getEspecie()</text>
<text text-anchor="start" x="231.75" y="-530.5" font-family="Helvetica,sans-Serif" font-size="20.00">+ getAmeacadoPor()</text>
<text text-anchor="start" x="231.75" y="-508.5" font-family="Helvetica,sans-Serif" font-size="20.00">+ getVeterinario()</text>
<text text-anchor="start" x="231.75" y="-486.5" font-family="Helvetica,sans-Serif" font-size="20.00">+ getTratador()</text>
<text text-anchor="start" x="231.75" y="-464.5" font-family="Helvetica,sans-Serif" font-size="20.00">+ getPerigoso()</text>
<text text-anchor="start" x="231.75" y="-442.5" font-family="Helvetica,sans-Serif" font-size="20.00">+ setNome()</text>
<text text-anchor="start" x="231.75" y="-420.5" font-family="Helvetica,sans-Serif" font-size="20.00">e 15 mais...</text>
</a>
</g>
</g>
<!-- Node3&#45;&gt;Node2 -->
<g id="edge2" class="edge">
<title>Node3&#45;&gt;Node2</title>
<path fill="none" stroke="midnightblue" d="M453.75,-426.01C477.71,-398.01 501.97,-369.66 522.96,-345.13"/>
<polygon fill="none" stroke="midnightblue" points="450.85,-424.02 447.01,-433.9 456.17,-428.57 450.85,-424.02"/>
</g>
<!-- Node4 -->
<g id="node4" class="node">
<title>Node4</title>
<g id="a_node4"><a xlink:href="classTratador.html" target="_top" xlink:title="Implementação dos tratadores.">
<polygon fill="white" stroke="black" points="300.25,-779.5 300.25,-1001.5 500.25,-1001.5 500.25,-779.5 300.25,-779.5"/>
<text text-anchor="middle" x="400.25" y="-981.5" font-family="Helvetica,sans-Serif" font-size="20.00">Tratador</text>
<polyline fill="none" stroke="black" points="300.25,-971.5 500.25,-971.5 "/>
<text text-anchor="middle" x="400.25" y="-951.5" font-family="Helvetica,sans-Serif" font-size="20.00"> </text>
<polyline fill="none" stroke="black" points="300.25,-941.5 500.25,-941.5 "/>
<text text-anchor="start" x="308.25" y="-921.5" font-family="Helvetica,sans-Serif" font-size="20.00">+ Tratador()</text>
<text text-anchor="start" x="308.25" y="-899.5" font-family="Helvetica,sans-Serif" font-size="20.00">+ Tratador()</text>
<text text-anchor="start" x="308.25" y="-877.5" font-family="Helvetica,sans-Serif" font-size="20.00">+ ~Tratador()</text>
<text text-anchor="start" x="308.25" y="-855.5" font-family="Helvetica,sans-Serif" font-size="20.00">+ getUniforme()</text>
<text text-anchor="start" x="308.25" y="-833.5" font-family="Helvetica,sans-Serif" font-size="20.00">+ setUniforme()</text>
<text text-anchor="start" x="308.25" y="-811.5" font-family="Helvetica,sans-Serif" font-size="20.00">+ setUniforme()</text>
<text text-anchor="start" x="308.25" y="-789.5" font-family="Helvetica,sans-Serif" font-size="20.00">+ printOutDados()</text>
</a>
</g>
</g>
<!-- Node4&#45;&gt;Node3 -->
<g id="edge3" class="edge">
<title>Node4&#45;&gt;Node3</title>
<path fill="none" stroke="#404040" d="M341.49,-779.24C339.47,-773.16 337.7,-767.06 336.25,-761 334.08,-751.88 332.37,-742.44 331.04,-732.87"/>
<polygon fill="none" stroke="#404040" points="331.01,-732.61 326.32,-727.13 329.56,-720.7 334.26,-726.17 331.01,-732.61"/>
<text text-anchor="middle" x="387.75" y="-745" font-family="Helvetica,sans-Serif" font-size="20.00"> #tratador</text>
</g>
<!-- Node5 -->
<g id="node5" class="node">
<title>Node5</title>
<g id="a_node5"><a xlink:href="classPessoa.html" target="_top" xlink:title="Classe base dos funcionarios.">
<polygon fill="white" stroke="black" points="273.25,-1239.5 273.25,-1615.5 473.25,-1615.5 473.25,-1239.5 273.25,-1239.5"/>
<text text-anchor="middle" x="373.25" y="-1595.5" font-family="Helvetica,sans-Serif" font-size="20.00">Pessoa</text>
<polyline fill="none" stroke="black" points="273.25,-1585.5 473.25,-1585.5 "/>
<text text-anchor="middle" x="373.25" y="-1565.5" font-family="Helvetica,sans-Serif" font-size="20.00"> </text>
<polyline fill="none" stroke="black" points="273.25,-1555.5 473.25,-1555.5 "/>
<text text-anchor="start" x="281.25" y="-1535.5" font-family="Helvetica,sans-Serif" font-size="20.00">+ Pessoa()</text>
<text text-anchor="start" x="281.25" y="-1513.5" font-family="Helvetica,sans-Serif" font-size="20.00">+ Pessoa()</text>
<text text-anchor="start" x="281.25" y="-1491.5" font-family="Helvetica,sans-Serif" font-size="20.00">+ ~Pessoa()</text>
<text text-anchor="start" x="281.25" y="-1469.5" font-family="Helvetica,sans-Serif" font-size="20.00">+ getNome()</text>
<text text-anchor="start" x="281.25" y="-1447.5" font-family="Helvetica,sans-Serif" font-size="20.00">+ setNome()</text>
<text text-anchor="start" x="281.25" y="-1425.5" font-family="Helvetica,sans-Serif" font-size="20.00">+ setNome()</text>
<text text-anchor="start" x="281.25" y="-1403.5" font-family="Helvetica,sans-Serif" font-size="20.00">+ getTelefone()</text>
<text text-anchor="start" x="281.25" y="-1381.5" font-family="Helvetica,sans-Serif" font-size="20.00">+ setTelefone()</text>
<text text-anchor="start" x="281.25" y="-1359.5" font-family="Helvetica,sans-Serif" font-size="20.00">+ setTelefone()</text>
<text text-anchor="start" x="281.25" y="-1337.5" font-family="Helvetica,sans-Serif" font-size="20.00">+ getEmail()</text>
<text text-anchor="start" x="281.25" y="-1315.5" font-family="Helvetica,sans-Serif" font-size="20.00">+ setEmail()</text>
<text text-anchor="start" x="281.25" y="-1293.5" font-family="Helvetica,sans-Serif" font-size="20.00">+ setEmail()</text>
<text text-anchor="start" x="281.25" y="-1271.5" font-family="Helvetica,sans-Serif" font-size="20.00">+ printOutDados()</text>
<text text-anchor="start" x="281.25" y="-1249.5" font-family="Helvetica,sans-Serif" font-size="20.00">+ operator==()</text>
</a>
</g>
</g>
<!-- Node5&#45;&gt;Node4 -->
<g id="edge4" class="edge">
<title>Node5&#45;&gt;Node4</title>
<path fill="none" stroke="midnightblue" d="M383.22,-1229.09C387.09,-1152.3 391.38,-1067.23 394.69,-1001.69"/>
<polygon fill="none" stroke="midnightblue" points="379.71,-1229.22 382.7,-1239.38 386.7,-1229.57 379.71,-1229.22"/>
</g>
<!-- Node9 -->
<g id="node9" class="node">
<title>Node9</title>
<g id="a_node9"><a xlink:href="classVeterinario.html" target="_top" xlink:title="Implementação dos veterinarios.">
<polygon fill="white" stroke="black" points="82.25,-779.5 82.25,-1001.5 282.25,-1001.5 282.25,-779.5 82.25,-779.5"/>
<text text-anchor="middle" x="182.25" y="-981.5" font-family="Helvetica,sans-Serif" font-size="20.00">Veterinario</text>
<polyline fill="none" stroke="black" points="82.25,-971.5 282.25,-971.5 "/>
<text text-anchor="middle" x="182.25" y="-951.5" font-family="Helvetica,sans-Serif" font-size="20.00"> </text>
<polyline fill="none" stroke="black" points="82.25,-941.5 282.25,-941.5 "/>
<text text-anchor="start" x="90.25" y="-921.5" font-family="Helvetica,sans-Serif" font-size="20.00">+ Veterinario()</text>
<text text-anchor="start" x="90.25" y="-899.5" font-family="Helvetica,sans-Serif" font-size="20.00">+ Veterinario()</text>
<text text-anchor="start" x="90.25" y="-877.5" font-family="Helvetica,sans-Serif" font-size="20.00">+ ~Veterinario()</text>
<text text-anchor="start" x="90.25" y="-855.5" font-family="Helvetica,sans-Serif" font-size="20.00">+ getCRMV()</text>
<text text-anchor="start" x="90.25" y="-833.5" font-family="Helvetica,sans-Serif" font-size="20.00">+ setCRMV()</text>
<text text-anchor="start" x="90.25" y="-811.5" font-family="Helvetica,sans-Serif" font-size="20.00">+ setCRMV()</text>
<text text-anchor="start" x="90.25" y="-789.5" font-family="Helvetica,sans-Serif" font-size="20.00">+ printOutDados()</text>
</a>
</g>
</g>
<!-- Node5&#45;&gt;Node9 -->
<g id="edge10" class="edge">
<title>Node5&#45;&gt;Node9</title>
<path fill="none" stroke="midnightblue" d="M302.94,-1229.56C275.49,-1152.65 245.04,-1067.36 221.59,-1001.69"/>
<polygon fill="none" stroke="midnightblue" points="299.79,-1231.14 306.45,-1239.38 306.38,-1228.79 299.79,-1231.14"/>
</g>
<!-- Node6 -->
<g id="node6" class="node">
<title>Node6</title>
<g id="a_node6"><a xlink:title=" ">
<polygon fill="white" stroke="#bfbfbf" points="240.25,-1718.5 240.25,-1808.5 314.25,-1808.5 314.25,-1718.5 240.25,-1718.5"/>
<text text-anchor="middle" x="277.25" y="-1788.5" font-family="Helvetica,sans-Serif" font-size="20.00">string</text>
<polyline fill="none" stroke="#bfbfbf" points="240.25,-1778.5 314.25,-1778.5 "/>
<text text-anchor="middle" x="277.25" y="-1758.5" font-family="Helvetica,sans-Serif" font-size="20.00"> </text>
<polyline fill="none" stroke="#bfbfbf" points="240.25,-1748.5 314.25,-1748.5 "/>
<text text-anchor="middle" x="277.25" y="-1728.5" font-family="Helvetica,sans-Serif" font-size="20.00"> </text>
</a>
</g>
</g>
<!-- Node6&#45;&gt;Node3 -->
<g id="edge8" class="edge">
<title>Node6&#45;&gt;Node3</title>
<path fill="none" stroke="#404040" d="M239.92,-1741.06C224.07,-1730.41 206.47,-1716.32 194.25,-1700 6.95,-1449.69 -23.19,-1330.38 14.25,-1020 27.46,-910.52 14.24,-872.15 73.25,-779 108.44,-723.46 163.15,-675.76 213.5,-639.72"/>
<polygon fill="none" stroke="#404040" points="213.69,-639.58 216.29,-632.85 223.5,-632.66 220.9,-639.39 213.69,-639.58"/>
<text text-anchor="middle" x="90.25" y="-1137.5" font-family="Helvetica,sans-Serif" font-size="20.00"> #especie</text>
<text text-anchor="middle" x="90.25" y="-1115.5" font-family="Helvetica,sans-Serif" font-size="20.00">#ameacadoPor</text>
<text text-anchor="middle" x="90.25" y="-1093.5" font-family="Helvetica,sans-Serif" font-size="20.00">#nome</text>
</g>
<!-- Node6&#45;&gt;Node5 -->
<g id="edge5" class="edge">
<title>Node6&#45;&gt;Node5</title>
<path fill="none" stroke="#404040" d="M289.9,-1718.49C296.95,-1693.98 306.27,-1661.54 316.13,-1627.25"/>
<polygon fill="none" stroke="#404040" points="316.17,-1627.09 313.99,-1620.22 319.49,-1615.56 321.68,-1622.43 316.17,-1627.09"/>
<text text-anchor="middle" x="362.75" y="-1684" font-family="Helvetica,sans-Serif" font-size="20.00"> #email</text>
<text text-anchor="middle" x="362.75" y="-1662" font-family="Helvetica,sans-Serif" font-size="20.00">#nome</text>
<text text-anchor="middle" x="362.75" y="-1640" font-family="Helvetica,sans-Serif" font-size="20.00">#telefone</text>
</g>
<!-- Node6&#45;&gt;Node9 -->
<g id="edge11" class="edge">
<title>Node6&#45;&gt;Node9</title>
<path fill="none" stroke="#404040" d="M243.18,-1718.45C223.9,-1690.71 201.62,-1653.22 191.25,-1616 160.73,-1506.41 168.85,-1190 176.24,-1013.74"/>
<polygon fill="none" stroke="#404040" points="176.25,-1013.54 172.51,-1007.38 176.76,-1001.56 180.5,-1007.72 176.25,-1013.54"/>
<text text-anchor="middle" x="227.75" y="-1422.5" font-family="Helvetica,sans-Serif" font-size="20.00"> &#45;CRMV</text>
</g>
<!-- Node10 -->
<g id="node10" class="node">
<title>Node10</title>
<g id="a_node10"><a xlink:href="classExotico.html" target="_top" xlink:title="Umas das definições de categoria para Animal.">
<polygon fill="white" stroke="black" points="601.75,-1020.5 601.75,-1220.5 744.75,-1220.5 744.75,-1020.5 601.75,-1020.5"/>
<text text-anchor="middle" x="673.25" y="-1200.5" font-family="Helvetica,sans-Serif" font-size="20.00">Exotico</text>
<polyline fill="none" stroke="black" points="601.75,-1190.5 744.75,-1190.5 "/>
<text text-anchor="middle" x="673.25" y="-1170.5" font-family="Helvetica,sans-Serif" font-size="20.00"> </text>
<polyline fill="none" stroke="black" points="601.75,-1160.5 744.75,-1160.5 "/>
<text text-anchor="start" x="609.75" y="-1140.5" font-family="Helvetica,sans-Serif" font-size="20.00">+ Exotico()</text>
<text text-anchor="start" x="609.75" y="-1118.5" font-family="Helvetica,sans-Serif" font-size="20.00">+ Exotico()</text>
<text text-anchor="start" x="609.75" y="-1096.5" font-family="Helvetica,sans-Serif" font-size="20.00">+ ~Exotico()</text>
<text text-anchor="start" x="609.75" y="-1074.5" font-family="Helvetica,sans-Serif" font-size="20.00">+ getLocal()</text>
<text text-anchor="start" x="609.75" y="-1052.5" font-family="Helvetica,sans-Serif" font-size="20.00">+ setLocal()</text>
<text text-anchor="start" x="609.75" y="-1030.5" font-family="Helvetica,sans-Serif" font-size="20.00">+ setLocal()</text>
</a>
</g>
</g>
<!-- Node6&#45;&gt;Node10 -->
<g id="edge14" class="edge">
<title>Node6&#45;&gt;Node10</title>
<path fill="none" stroke="#404040" d="M314.47,-1757.8C384.38,-1746.84 534.82,-1712.71 607.25,-1616 689.87,-1505.69 695.28,-1341.47 687.55,-1232.97"/>
<polygon fill="none" stroke="#404040" points="687.52,-1232.64 683.07,-1226.97 686.6,-1220.68 691.05,-1226.35 687.52,-1232.64"/>
<text text-anchor="middle" x="624.75" y="-1662" font-family="Helvetica,sans-Serif" font-size="20.00"> #local</text>
</g>
<!-- Node7 -->
<g id="node7" class="node">
<title>Node7</title>
<g id="a_node7"><a xlink:title=" ">
<polygon fill="white" stroke="#bfbfbf" points="491.75,-1382.5 491.75,-1472.5 598.75,-1472.5 598.75,-1382.5 491.75,-1382.5"/>
<text text-anchor="middle" x="545.25" y="-1452.5" font-family="Helvetica,sans-Serif" font-size="20.00">Uniforme</text>
<polyline fill="none" stroke="#bfbfbf" points="491.75,-1442.5 598.75,-1442.5 "/>
<text text-anchor="middle" x="545.25" y="-1422.5" font-family="Helvetica,sans-Serif" font-size="20.00"> </text>
<polyline fill="none" stroke="#bfbfbf" points="491.75,-1412.5 598.75,-1412.5 "/>
<text text-anchor="middle" x="545.25" y="-1392.5" font-family="Helvetica,sans-Serif" font-size="20.00"> </text>
</a>
</g>
</g>
<!-- Node7&#45;&gt;Node4 -->
<g id="edge6" class="edge">
<title>Node7&#45;&gt;Node4</title>
<path fill="none" stroke="#404040" d="M533.21,-1382.41C521.85,-1340.8 504.36,-1276.67 489.25,-1221 470.63,-1152.37 449.91,-1075.67 433.15,-1013.55"/>
<polygon fill="none" stroke="#404040" points="433.09,-1013.31 427.66,-1008.56 429.96,-1001.73 435.38,-1006.48 433.09,-1013.31"/>
<text text-anchor="middle" x="540.75" y="-1115.5" font-family="Helvetica,sans-Serif" font-size="20.00"> &#45;uniforme</text>
</g>
<!-- Node8 -->
<g id="node8" class="node">
<title>Node8</title>
<g id="a_node8"><a xlink:title=" ">
<polygon fill="white" stroke="#bfbfbf" points="537.75,-845.5 537.75,-935.5 596.75,-935.5 596.75,-845.5 537.75,-845.5"/>
<text text-anchor="middle" x="567.25" y="-915.5" font-family="Helvetica,sans-Serif" font-size="20.00">bool</text>
<polyline fill="none" stroke="#bfbfbf" points="537.75,-905.5 596.75,-905.5 "/>
<text text-anchor="middle" x="567.25" y="-885.5" font-family="Helvetica,sans-Serif" font-size="20.00"> </text>
<polyline fill="none" stroke="#bfbfbf" points="537.75,-875.5 596.75,-875.5 "/>
<text text-anchor="middle" x="567.25" y="-855.5" font-family="Helvetica,sans-Serif" font-size="20.00"> </text>
</a>
</g>
</g>
<!-- Node8&#45;&gt;Node2 -->
<g id="edge12" class="edge">
<title>Node8&#45;&gt;Node2</title>
<path fill="none" stroke="#404040" d="M568.67,-845.49C569.46,-820.68 570.44,-789.11 571.25,-761 574.98,-632.03 578.88,-483.85 581.42,-385.04"/>
<polygon fill="none" stroke="#404040" points="581.42,-384.94 577.58,-378.83 581.73,-372.94 585.58,-379.04 581.42,-384.94"/>
<text text-anchor="middle" x="610.75" y="-560.5" font-family="Helvetica,sans-Serif" font-size="20.00"> #voa</text>
</g>
<!-- Node8&#45;&gt;Node3 -->
<g id="edge7" class="edge">
<title>Node8&#45;&gt;Node3</title>
<path fill="none" stroke="#404040" d="M552.68,-845.35C543.34,-822.9 529.17,-796.7 509.25,-779 492.53,-764.14 479.66,-775.05 462.25,-761 454.6,-754.83 445.26,-743.95 435.15,-730.39"/>
<polygon fill="none" stroke="#404040" points="435.09,-730.3 428.33,-727.8 428.04,-720.59 434.8,-723.1 435.09,-730.3"/>
<text text-anchor="middle" x="516.75" y="-745" font-family="Helvetica,sans-Serif" font-size="20.00"> #perigoso</text>
</g>
<!-- Node9&#45;&gt;Node3 -->
<g id="edge9" class="edge">
<title>Node9&#45;&gt;Node3</title>
<path fill="none" stroke="#404040" d="M186.68,-779.19C189.34,-765.36 193.08,-751.64 198.25,-739 203.52,-726.14 210.05,-713.46 217.37,-701.16"/>
<polygon fill="none" stroke="#404040" points="217.39,-701.13 217.15,-693.92 223.71,-690.93 223.95,-698.13 217.39,-701.13"/>
<text text-anchor="middle" x="263.25" y="-745" font-family="Helvetica,sans-Serif" font-size="20.00"> #veterinario</text>
</g>
<!-- Node10&#45;&gt;Node1 -->
<g id="edge13" class="edge">
<title>Node10&#45;&gt;Node1</title>
<path fill="none" stroke="midnightblue" d="M673.25,-1010.01C673.25,-936.71 673.25,-838.07 673.25,-751 673.25,-751 673.25,-751 673.25,-271.5 673.25,-225.11 661.92,-174.15 650.62,-134.89"/>
<polygon fill="none" stroke="midnightblue" points="669.75,-1010.18 673.25,-1020.18 676.75,-1010.18 669.75,-1010.18"/>
</g>
</g>
</svg>
        <g id="navigator" transform="translate(0 0)" fill="#404254">
                <rect fill="#f2f5e9" fill-opacity="0.5" stroke="#606060" stroke-width=".5" x="0" y="0" width="60" height="60"/>
                <use id="zoomplus" xlink:href="#zoomPlus" x="17" y="9" onmousedown="handleZoom(evt,'in')"/>
                <use id="zoomminus" xlink:href="#zoomMin" x="42" y="9" onmousedown="handleZoom(evt,'out')"/>
                <use id="reset" xlink:href="#resetDef" x="30" y="36" onmousedown="handleReset()"/>
                <g id="arrowUp" xlink:href="#dirArrow" transform="translate(30 24)" onmousedown="handlePan(0,-1)">
                  <use xlink:href="#rim" fill="#404040">
                        <set attributeName="fill" to="#808080" begin="arrowUp.mouseover" end="arrowUp.mouseout"/>
                  </use>
                  <path fill="none" stroke="white" stroke-width="1.5" d="M0,-3.0v7 M-2.5,-0.5L0,-3.0L2.5,-0.5"/>
                </g>
                <g id="arrowRight" xlink:href="#dirArrow" transform="rotate(90) translate(36 -43)" onmousedown="handlePan(1,0)">
                  <use xlink:href="#rim" fill="#404040">
                        <set attributeName="fill" to="#808080" begin="arrowRight.mouseover" end="arrowRight.mouseout"/>
                  </use>
                  <path fill="none" stroke="white" stroke-width="1.5" d="M0,-3.0v7 M-2.5,-0.5L0,-3.0L2.5,-0.5"/>
                </g>
                <g id="arrowDown" xlink:href="#dirArrow" transform="rotate(180) translate(-30 -48)" onmousedown="handlePan(0,1)">
                  <use xlink:href="#rim" fill="#404040">
                        <set attributeName="fill" to="#808080" begin="arrowDown.mouseover" end="arrowDown.mouseout"/>
                  </use>
                  <path fill="none" stroke="white" stroke-width="1.5" d="M0,-3.0v7 M-2.5,-0.5L0,-3.0L2.5,-0.5"/>
                </g>
                <g id="arrowLeft" xlink:href="#dirArrow" transform="rotate(270) translate(-36 17)" onmousedown="handlePan(-1,0)">
                  <use xlink:href="#rim" fill="#404040">
                        <set attributeName="fill" to="#808080" begin="arrowLeft.mouseover" end="arrowLeft.mouseout"/>
                  </use>
                  <path fill="none" stroke="white" stroke-width="1.5" d="M0,-3.0v7 M-2.5,-0.5L0,-3.0L2.5,-0.5"/>
                </g>
        </g>
        <svg viewBox="0 0 15 15" width="100%" height="30px" preserveAspectRatio="xMaxYMin meet">
         <g id="arrow_out" transform="scale(0.3 0.3)">
          <a xlink:href="classAveExotica__coll__graph_org.svg" target="_base">
           <rect id="button" ry="5" rx="5" y="6" x="6" height="38" width="38"
                fill="#f2f5e9" fill-opacity="0.5" stroke="#606060" stroke-width="1.0"/>
           <path id="arrow"
             d="M 11.500037,31.436501 C 11.940474,20.09759 22.043105,11.32322 32.158766,21.979434 L 37.068811,17.246167 C 37.068811,17.246167 37.088388,32 37.088388,32 L 22.160133,31.978069 C 22.160133,31.978069 26.997745,27.140456 26.997745,27.140456 C 18.528582,18.264221 13.291696,25.230495 11.500037,31.436501 z"
             style="fill:#404040;"/>
          </a>
         </g>
        </svg>
</svg>
