<?xml version="1.0" encoding="UTF-8" standalone="no"?>
<!DOCTYPE svg PUBLIC "-//W3C//DTD SVG 1.1//EN"
 "http://www.w3.org/Graphics/SVG/1.1/DTD/svg11.dtd">
<!-- Generated by graphviz version 2.43.0 (0)
 -->
<!-- Title: ReptilExotico Pages: 1 -->
<svg width="912pt" height="1188pt"
 viewBox="0.00 0.00 912.00 1188.00" xmlns="http://www.w3.org/2000/svg" xmlns:xlink="http://www.w3.org/1999/xlink">
<g id="graph0" class="graph" transform="scale(1 1) rotate(0) translate(4 1184)">
<title>ReptilExotico</title>
<polygon fill="white" stroke="transparent" points="-4,4 -4,-1184 908,-1184 908,4 -4,4"/>
<!-- Node1 -->
<g id="node1" class="node">
<title>Node1</title>
<g id="a_node1"><a xlink:title="Implementação de animal com Classe e Categoria.">
<polygon fill="#bfbfbf" stroke="black" points="5.5,-0.5 5.5,-134.5 203.5,-134.5 203.5,-0.5 5.5,-0.5"/>
<text text-anchor="middle" x="104.5" y="-114.5" font-family="Helvetica,sans-Serif" font-size="20.00">ReptilExotico</text>
<polyline fill="none" stroke="black" points="5.5,-104.5 203.5,-104.5 "/>
<text text-anchor="middle" x="104.5" y="-84.5" font-family="Helvetica,sans-Serif" font-size="20.00"> </text>
<polyline fill="none" stroke="black" points="5.5,-74.5 203.5,-74.5 "/>
<text text-anchor="start" x="13.5" y="-54.5" font-family="Helvetica,sans-Serif" font-size="20.00">+ ReptilExotico()</text>
<text text-anchor="start" x="13.5" y="-32.5" font-family="Helvetica,sans-Serif" font-size="20.00">+ ReptilExotico()</text>
<text text-anchor="start" x="13.5" y="-10.5" font-family="Helvetica,sans-Serif" font-size="20.00">+ ~ReptilExotico()</text>
</a>
</g>
</g>
<!-- Node2 -->
<g id="node2" class="node">
<title>Node2</title>
<g id="a_node2"><a xlink:href="classReptil.html" target="_top" xlink:title="Classificação base para Repteis.">
<polygon fill="white" stroke="black" points="106,-172.5 106,-372.5 233,-372.5 233,-172.5 106,-172.5"/>
<text text-anchor="middle" x="169.5" y="-352.5" font-family="Helvetica,sans-Serif" font-size="20.00">Reptil</text>
<polyline fill="none" stroke="black" points="106,-342.5 233,-342.5 "/>
<text text-anchor="middle" x="169.5" y="-322.5" font-family="Helvetica,sans-Serif" font-size="20.00"> </text>
<polyline fill="none" stroke="black" points="106,-312.5 233,-312.5 "/>
<text text-anchor="start" x="114" y="-292.5" font-family="Helvetica,sans-Serif" font-size="20.00">+ Reptil()</text>
<text text-anchor="start" x="114" y="-270.5" font-family="Helvetica,sans-Serif" font-size="20.00">+ Reptil()</text>
<text text-anchor="start" x="114" y="-248.5" font-family="Helvetica,sans-Serif" font-size="20.00">+ ~Reptil()</text>
<text text-anchor="start" x="114" y="-226.5" font-family="Helvetica,sans-Serif" font-size="20.00">+ getPele()</text>
<text text-anchor="start" x="114" y="-204.5" font-family="Helvetica,sans-Serif" font-size="20.00">+ setPele()</text>
<text text-anchor="start" x="114" y="-182.5" font-family="Helvetica,sans-Serif" font-size="20.00">+ setPele()</text>
</a>
</g>
</g>
<!-- Node2&#45;&gt;Node1 -->
<g id="edge1" class="edge">
<title>Node2&#45;&gt;Node1</title>
<path fill="none" stroke="midnightblue" d="M134.69,-162.8C131.63,-153.23 128.59,-143.75 125.69,-134.69"/>
<polygon fill="none" stroke="midnightblue" points="131.38,-163.92 137.76,-172.38 138.05,-161.79 131.38,-163.92"/>
</g>
<!-- Node3 -->
<g id="node3" class="node">
<title>Node3</title>
<g id="a_node3"><a xlink:href="classAnimal.html" target="_top" xlink:title="Implementação base para o cadastro de animais.">
<polygon fill="white" stroke="black" points="223,-610.5 223,-986.5 446,-986.5 446,-610.5 223,-610.5"/>
<text text-anchor="middle" x="334.5" y="-966.5" font-family="Helvetica,sans-Serif" font-size="20.00">Animal</text>
<polyline fill="none" stroke="black" points="223,-956.5 446,-956.5 "/>
<text text-anchor="middle" x="334.5" y="-936.5" font-family="Helvetica,sans-Serif" font-size="20.00"> </text>
<polyline fill="none" stroke="black" points="223,-926.5 446,-926.5 "/>
<text text-anchor="start" x="231" y="-906.5" font-family="Helvetica,sans-Serif" font-size="20.00">+ Animal()</text>
<text text-anchor="start" x="231" y="-884.5" font-family="Helvetica,sans-Serif" font-size="20.00">+ Animal()</text>
<text text-anchor="start" x="231" y="-862.5" font-family="Helvetica,sans-Serif" font-size="20.00">+ ~Animal()</text>
<text text-anchor="start" x="231" y="-840.5" font-family="Helvetica,sans-Serif" font-size="20.00">+ getNome()</text>
<text text-anchor="start" x="231" y="-818.5" font-family="Helvetica,sans-Serif" font-size="20.00">+ getEspecie()</text>
<text text-anchor="start" x="231" y="-796.5" font-family="Helvetica,sans-Serif" font-size="20.00">+ getAmeacadoPor()</text>
<text text-anchor="start" x="231" y="-774.5" font-family="Helvetica,sans-Serif" font-size="20.00">+ getVeterinario()</text>
<text text-anchor="start" x="231" y="-752.5" font-family="Helvetica,sans-Serif" font-size="20.00">+ getTratador()</text>
<text text-anchor="start" x="231" y="-730.5" font-family="Helvetica,sans-Serif" font-size="20.00">+ getPerigoso()</text>
<text text-anchor="start" x="231" y="-708.5" font-family="Helvetica,sans-Serif" font-size="20.00">+ setNome()</text>
<text text-anchor="start" x="231" y="-686.5" font-family="Helvetica,sans-Serif" font-size="20.00">e 13 mais...</text>
<text text-anchor="start" x="231" y="-664.5" font-family="Helvetica,sans-Serif" font-size="20.00">+ getClassificacao()</text>
<text text-anchor="start" x="231" y="-642.5" font-family="Helvetica,sans-Serif" font-size="20.00">+ getClasse()</text>
<text text-anchor="start" x="231" y="-620.5" font-family="Helvetica,sans-Serif" font-size="20.00">+ printOutDetails()</text>
</a>
</g>
</g>
<!-- Node3&#45;&gt;Node2 -->
<g id="edge2" class="edge">
<title>Node3&#45;&gt;Node2</title>
<path fill="none" stroke="midnightblue" d="M300.35,-600.32C285.39,-532.61 265.07,-457.23 238.5,-391 236.08,-384.96 233.38,-378.87 230.49,-372.79"/>
<polygon fill="none" stroke="midnightblue" points="296.97,-601.23 302.52,-610.25 303.81,-599.74 296.97,-601.23"/>
</g>
<!-- Node4 -->
<g id="node4" class="node">
<title>Node4</title>
<g id="a_node4"><a xlink:title=" ">
<polygon fill="white" stroke="#bfbfbf" points="629,-1089.5 629,-1179.5 904,-1179.5 904,-1089.5 629,-1089.5"/>
<text text-anchor="middle" x="766.5" y="-1159.5" font-family="Helvetica,sans-Serif" font-size="20.00">shared_ptr&lt; Veterinario &gt;</text>
<polyline fill="none" stroke="#bfbfbf" points="629,-1149.5 904,-1149.5 "/>
<text text-anchor="middle" x="766.5" y="-1129.5" font-family="Helvetica,sans-Serif" font-size="20.00"> </text>
<polyline fill="none" stroke="#bfbfbf" points="629,-1119.5 904,-1119.5 "/>
<text text-anchor="middle" x="766.5" y="-1099.5" font-family="Helvetica,sans-Serif" font-size="20.00"> </text>
</a>
</g>
</g>
<!-- Node4&#45;&gt;Node3 -->
<g id="edge3" class="edge">
<title>Node4&#45;&gt;Node3</title>
<path fill="none" stroke="#404040" d="M709.58,-1089.49C645.27,-1039.77 538.75,-957.41 455.62,-893.15"/>
<polygon fill="none" stroke="#404040" points="455.61,-893.14 448.42,-892.63 446.12,-885.8 453.31,-886.3 455.61,-893.14"/>
<text text-anchor="middle" x="748.5" y="-1033" font-family="Helvetica,sans-Serif" font-size="20.00"> #veterinario</text>
</g>
<!-- Node5 -->
<g id="node5" class="node">
<title>Node5</title>
<g id="a_node5"><a xlink:title=" ">
<polygon fill="white" stroke="#bfbfbf" points="285,-1089.5 285,-1179.5 344,-1179.5 344,-1089.5 285,-1089.5"/>
<text text-anchor="middle" x="314.5" y="-1159.5" font-family="Helvetica,sans-Serif" font-size="20.00">bool</text>
<polyline fill="none" stroke="#bfbfbf" points="285,-1149.5 344,-1149.5 "/>
<text text-anchor="middle" x="314.5" y="-1129.5" font-family="Helvetica,sans-Serif" font-size="20.00"> </text>
<polyline fill="none" stroke="#bfbfbf" points="285,-1119.5 344,-1119.5 "/>
<text text-anchor="middle" x="314.5" y="-1099.5" font-family="Helvetica,sans-Serif" font-size="20.00"> </text>
</a>
</g>
</g>
<!-- Node5&#45;&gt;Node3 -->
<g id="edge4" class="edge">
<title>Node5&#45;&gt;Node3</title>
<path fill="none" stroke="#404040" d="M317.14,-1089.49C318.6,-1065.09 320.53,-1032.83 322.57,-998.7"/>
<polygon fill="none" stroke="#404040" points="322.58,-998.54 318.95,-992.31 323.3,-986.56 326.93,-992.78 322.58,-998.54"/>
<text text-anchor="middle" x="376" y="-1033" font-family="Helvetica,sans-Serif" font-size="20.00"> #perigoso</text>
</g>
<!-- Node6 -->
<g id="node6" class="node">
<title>Node6</title>
<g id="a_node6"><a xlink:title=" ">
<polygon fill="white" stroke="#bfbfbf" points="76.5,-1089.5 76.5,-1179.5 150.5,-1179.5 150.5,-1089.5 76.5,-1089.5"/>
<text text-anchor="middle" x="113.5" y="-1159.5" font-family="Helvetica,sans-Serif" font-size="20.00">string</text>
<polyline fill="none" stroke="#bfbfbf" points="76.5,-1149.5 150.5,-1149.5 "/>
<text text-anchor="middle" x="113.5" y="-1129.5" font-family="Helvetica,sans-Serif" font-size="20.00"> </text>
<polyline fill="none" stroke="#bfbfbf" points="76.5,-1119.5 150.5,-1119.5 "/>
<text text-anchor="middle" x="113.5" y="-1099.5" font-family="Helvetica,sans-Serif" font-size="20.00"> </text>
</a>
</g>
</g>
<!-- Node6&#45;&gt;Node3 -->
<g id="edge5" class="edge">
<title>Node6&#45;&gt;Node3</title>
<path fill="none" stroke="#404040" d="M130.51,-1089.49C132.88,-1083.29 135.26,-1076.99 137.5,-1071 148.43,-1041.76 139.7,-1027.34 161.5,-1005 176.83,-989.29 190.35,-1000.71 207.5,-987 209.62,-985.3 211.72,-983.56 213.8,-981.78"/>
<polygon fill="none" stroke="#404040" points="213.84,-981.75 215.62,-974.76 222.76,-973.72 220.97,-980.71 213.84,-981.75"/>
<text text-anchor="middle" x="237.5" y="-1055" font-family="Helvetica,sans-Serif" font-size="20.00"> #especie</text>
<text text-anchor="middle" x="237.5" y="-1033" font-family="Helvetica,sans-Serif" font-size="20.00">#ameacadoPor</text>
<text text-anchor="middle" x="237.5" y="-1011" font-family="Helvetica,sans-Serif" font-size="20.00">#nome</text>
</g>
<!-- Node9 -->
<g id="node9" class="node">
<title>Node9</title>
<g id="a_node9"><a xlink:href="classExotico.html" target="_top" xlink:title="Umas das definições de categoria para Animal.">
<polygon fill="white" stroke="black" points="0,-391.5 0,-591.5 143,-591.5 143,-391.5 0,-391.5"/>
<text text-anchor="middle" x="71.5" y="-571.5" font-family="Helvetica,sans-Serif" font-size="20.00">Exotico</text>
<polyline fill="none" stroke="black" points="0,-561.5 143,-561.5 "/>
<text text-anchor="middle" x="71.5" y="-541.5" font-family="Helvetica,sans-Serif" font-size="20.00"> </text>
<polyline fill="none" stroke="black" points="0,-531.5 143,-531.5 "/>
<text text-anchor="start" x="8" y="-511.5" font-family="Helvetica,sans-Serif" font-size="20.00">+ Exotico()</text>
<text text-anchor="start" x="8" y="-489.5" font-family="Helvetica,sans-Serif" font-size="20.00">+ Exotico()</text>
<text text-anchor="start" x="8" y="-467.5" font-family="Helvetica,sans-Serif" font-size="20.00">+ ~Exotico()</text>
<text text-anchor="start" x="8" y="-445.5" font-family="Helvetica,sans-Serif" font-size="20.00">+ getLocal()</text>
<text text-anchor="start" x="8" y="-423.5" font-family="Helvetica,sans-Serif" font-size="20.00">+ setLocal()</text>
<text text-anchor="start" x="8" y="-401.5" font-family="Helvetica,sans-Serif" font-size="20.00">+ setLocal()</text>
</a>
</g>
</g>
<!-- Node6&#45;&gt;Node9 -->
<g id="edge9" class="edge">
<title>Node6&#45;&gt;Node9</title>
<path fill="none" stroke="#404040" d="M76.3,-1093.79C71.46,-1086.66 67.24,-1078.95 64.5,-1071 54.93,-1043.27 64.3,-1034.33 64.5,-1005 65.44,-866.77 67.82,-707.58 69.54,-603.77"/>
<polygon fill="none" stroke="#404040" points="69.54,-603.7 65.64,-597.63 69.74,-591.7 73.64,-597.77 69.54,-603.7"/>
<text text-anchor="middle" x="99" y="-1033" font-family="Helvetica,sans-Serif" font-size="20.00"> #local</text>
</g>
<!-- Node7 -->
<g id="node7" class="node">
<title>Node7</title>
<g id="a_node7"><a xlink:title=" ">
<polygon fill="white" stroke="#bfbfbf" points="362,-1089.5 362,-1179.5 611,-1179.5 611,-1089.5 362,-1089.5"/>
<text text-anchor="middle" x="486.5" y="-1159.5" font-family="Helvetica,sans-Serif" font-size="20.00">shared_ptr&lt; Tratador &gt;</text>
<polyline fill="none" stroke="#bfbfbf" points="362,-1149.5 611,-1149.5 "/>
<text text-anchor="middle" x="486.5" y="-1129.5" font-family="Helvetica,sans-Serif" font-size="20.00"> </text>
<polyline fill="none" stroke="#bfbfbf" points="362,-1119.5 611,-1119.5 "/>
<text text-anchor="middle" x="486.5" y="-1099.5" font-family="Helvetica,sans-Serif" font-size="20.00"> </text>
</a>
</g>
</g>
<!-- Node7&#45;&gt;Node3 -->
<g id="edge6" class="edge">
<title>Node7&#45;&gt;Node3</title>
<path fill="none" stroke="#404040" d="M469.55,-1089.47C459.72,-1064.52 446.88,-1032.81 434.5,-1005 433.4,-1002.53 432.29,-1000.05 431.17,-997.56"/>
<polygon fill="none" stroke="#404040" points="431.14,-997.5 425.02,-993.68 426.19,-986.57 432.31,-990.38 431.14,-997.5"/>
<text text-anchor="middle" x="512" y="-1033" font-family="Helvetica,sans-Serif" font-size="20.00"> #tratador</text>
</g>
<!-- Node8 -->
<g id="node8" class="node">
<title>Node8</title>
<g id="a_node8"><a xlink:title=" ">
<polygon fill="white" stroke="#bfbfbf" points="141,-753.5 141,-843.5 198,-843.5 198,-753.5 141,-753.5"/>
<text text-anchor="middle" x="169.5" y="-823.5" font-family="Helvetica,sans-Serif" font-size="20.00">Pele</text>
<polyline fill="none" stroke="#bfbfbf" points="141,-813.5 198,-813.5 "/>
<text text-anchor="middle" x="169.5" y="-793.5" font-family="Helvetica,sans-Serif" font-size="20.00"> </text>
<polyline fill="none" stroke="#bfbfbf" points="141,-783.5 198,-783.5 "/>
<text text-anchor="middle" x="169.5" y="-763.5" font-family="Helvetica,sans-Serif" font-size="20.00"> </text>
</a>
</g>
</g>
<!-- Node8&#45;&gt;Node2 -->
<g id="edge7" class="edge">
<title>Node8&#45;&gt;Node2</title>
<path fill="none" stroke="#404040" d="M169.5,-753.28C169.5,-672.69 169.5,-499.69 169.5,-384.97"/>
<polygon fill="none" stroke="#404040" points="169.5,-384.67 165.5,-378.67 169.5,-372.67 173.5,-378.67 169.5,-384.67"/>
<text text-anchor="middle" x="202" y="-486.5" font-family="Helvetica,sans-Serif" font-size="20.00"> #pele</text>
</g>
<!-- Node9&#45;&gt;Node1 -->
<g id="edge8" class="edge">
<title>Node9&#45;&gt;Node1</title>
<path fill="none" stroke="midnightblue" d="M80.07,-380.93C86.17,-302.84 94.18,-200.43 99.34,-134.54"/>
<polygon fill="none" stroke="midnightblue" points="76.55,-381.05 79.26,-391.29 83.53,-381.6 76.55,-381.05"/>
</g>
</g>
</svg>
