<?xml version="1.0" encoding="UTF-8" standalone="no"?>
<!DOCTYPE svg PUBLIC "-//W3C//DTD SVG 1.1//EN"
 "http://www.w3.org/Graphics/SVG/1.1/DTD/svg11.dtd">
<!-- Generated by graphviz version 2.43.0 (0)
 -->
<!-- Title: MamiferoDomestico Pages: 1 -->
<svg width="852pt" height="1618pt"
 viewBox="0.00 0.00 852.00 1618.00" xmlns="http://www.w3.org/2000/svg" xmlns:xlink="http://www.w3.org/1999/xlink">
<g id="graph0" class="graph" transform="scale(1 1) rotate(0) translate(4 1614)">
<title>MamiferoDomestico</title>
<polygon fill="white" stroke="transparent" points="-4,4 -4,-1614 848,-1614 848,4 -4,4"/>
<!-- Node1 -->
<g id="node1" class="node">
<title>Node1</title>
<g id="a_node1"><a xlink:title="Implementação de animal com Classe e Categoria.">
<polygon fill="#bfbfbf" stroke="black" points="1.5,-0.5 1.5,-112.5 270.5,-112.5 270.5,-0.5 1.5,-0.5"/>
<text text-anchor="middle" x="136" y="-92.5" font-family="Helvetica,sans-Serif" font-size="20.00">MamiferoDomestico</text>
<polyline fill="none" stroke="black" points="1.5,-82.5 270.5,-82.5 "/>
<text text-anchor="middle" x="136" y="-62.5" font-family="Helvetica,sans-Serif" font-size="20.00"> </text>
<polyline fill="none" stroke="black" points="1.5,-52.5 270.5,-52.5 "/>
<text text-anchor="start" x="9.5" y="-32.5" font-family="Helvetica,sans-Serif" font-size="20.00">+ MamiferoDomestico()</text>
<text text-anchor="start" x="9.5" y="-10.5" font-family="Helvetica,sans-Serif" font-size="20.00">+ ~MamiferoDomestico()</text>
</a>
</g>
</g>
<!-- Node2 -->
<g id="node2" class="node">
<title>Node2</title>
<g id="a_node2"><a xlink:href="classMamifero.html" target="_top" xlink:title="Classificação base para Mamiferos.">
<polygon fill="white" stroke="black" points="132.5,-150.5 132.5,-284.5 311.5,-284.5 311.5,-150.5 132.5,-150.5"/>
<text text-anchor="middle" x="222" y="-264.5" font-family="Helvetica,sans-Serif" font-size="20.00">Mamifero</text>
<polyline fill="none" stroke="black" points="132.5,-254.5 311.5,-254.5 "/>
<text text-anchor="middle" x="222" y="-234.5" font-family="Helvetica,sans-Serif" font-size="20.00"> </text>
<polyline fill="none" stroke="black" points="132.5,-224.5 311.5,-224.5 "/>
<text text-anchor="start" x="140.5" y="-204.5" font-family="Helvetica,sans-Serif" font-size="20.00">+ Mamifero()</text>
<text text-anchor="start" x="140.5" y="-182.5" font-family="Helvetica,sans-Serif" font-size="20.00">+ ~Mamifero()</text>
<text text-anchor="start" x="140.5" y="-160.5" font-family="Helvetica,sans-Serif" font-size="20.00">+ getGestacao()</text>
</a>
</g>
</g>
<!-- Node2&#45;&gt;Node1 -->
<g id="edge1" class="edge">
<title>Node2&#45;&gt;Node1</title>
<path fill="none" stroke="midnightblue" d="M181.51,-141.63C176.29,-131.99 171.02,-122.25 166.01,-112.99"/>
<polygon fill="none" stroke="midnightblue" points="178.44,-143.32 186.28,-150.45 184.6,-139.99 178.44,-143.32"/>
</g>
<!-- Node3 -->
<g id="node3" class="node">
<title>Node3</title>
<g id="a_node3"><a xlink:href="classAnimal.html" target="_top" xlink:title="Implementação base para o cadastro de animais.">
<polygon fill="white" stroke="black" points="353.5,-478.5 353.5,-832.5 576.5,-832.5 576.5,-478.5 353.5,-478.5"/>
<text text-anchor="middle" x="465" y="-812.5" font-family="Helvetica,sans-Serif" font-size="20.00">Animal</text>
<polyline fill="none" stroke="black" points="353.5,-802.5 576.5,-802.5 "/>
<text text-anchor="middle" x="465" y="-782.5" font-family="Helvetica,sans-Serif" font-size="20.00"> </text>
<polyline fill="none" stroke="black" points="353.5,-772.5 576.5,-772.5 "/>
<text text-anchor="start" x="361.5" y="-752.5" font-family="Helvetica,sans-Serif" font-size="20.00">+ Animal()</text>
<text text-anchor="start" x="361.5" y="-730.5" font-family="Helvetica,sans-Serif" font-size="20.00">+ Animal()</text>
<text text-anchor="start" x="361.5" y="-708.5" font-family="Helvetica,sans-Serif" font-size="20.00">+ ~Animal()</text>
<text text-anchor="start" x="361.5" y="-686.5" font-family="Helvetica,sans-Serif" font-size="20.00">+ getNome()</text>
<text text-anchor="start" x="361.5" y="-664.5" font-family="Helvetica,sans-Serif" font-size="20.00">+ getEspecie()</text>
<text text-anchor="start" x="361.5" y="-642.5" font-family="Helvetica,sans-Serif" font-size="20.00">+ getAmeacadoPor()</text>
<text text-anchor="start" x="361.5" y="-620.5" font-family="Helvetica,sans-Serif" font-size="20.00">+ getVeterinario()</text>
<text text-anchor="start" x="361.5" y="-598.5" font-family="Helvetica,sans-Serif" font-size="20.00">+ getTratador()</text>
<text text-anchor="start" x="361.5" y="-576.5" font-family="Helvetica,sans-Serif" font-size="20.00">+ getPerigoso()</text>
<text text-anchor="start" x="361.5" y="-554.5" font-family="Helvetica,sans-Serif" font-size="20.00">+ getClassificacao()</text>
<text text-anchor="start" x="361.5" y="-532.5" font-family="Helvetica,sans-Serif" font-size="20.00">+ getClasse()</text>
<text text-anchor="start" x="361.5" y="-510.5" font-family="Helvetica,sans-Serif" font-size="20.00">+ printOutDados()</text>
<text text-anchor="start" x="361.5" y="-488.5" font-family="Helvetica,sans-Serif" font-size="20.00">+ operator==()</text>
</a>
</g>
</g>
<!-- Node3&#45;&gt;Node2 -->
<g id="edge2" class="edge">
<title>Node3&#45;&gt;Node2</title>
<path fill="none" stroke="midnightblue" d="M361.94,-469.58C325.27,-403.8 286.31,-333.9 258.84,-284.6"/>
<polygon fill="none" stroke="midnightblue" points="358.94,-471.39 366.86,-478.42 365.05,-467.98 358.94,-471.39"/>
</g>
<!-- Node4 -->
<g id="node4" class="node">
<title>Node4</title>
<g id="a_node4"><a xlink:href="classTratador.html" target="_top" xlink:title="Implementação dos tratadores.">
<polygon fill="white" stroke="black" points="241,-891.5 241,-1069.5 441,-1069.5 441,-891.5 241,-891.5"/>
<text text-anchor="middle" x="341" y="-1049.5" font-family="Helvetica,sans-Serif" font-size="20.00">Tratador</text>
<polyline fill="none" stroke="black" points="241,-1039.5 441,-1039.5 "/>
<text text-anchor="middle" x="341" y="-1019.5" font-family="Helvetica,sans-Serif" font-size="20.00"> </text>
<polyline fill="none" stroke="black" points="241,-1009.5 441,-1009.5 "/>
<text text-anchor="start" x="249" y="-989.5" font-family="Helvetica,sans-Serif" font-size="20.00">+ Tratador()</text>
<text text-anchor="start" x="249" y="-967.5" font-family="Helvetica,sans-Serif" font-size="20.00">+ Tratador()</text>
<text text-anchor="start" x="249" y="-945.5" font-family="Helvetica,sans-Serif" font-size="20.00">+ ~Tratador()</text>
<text text-anchor="start" x="249" y="-923.5" font-family="Helvetica,sans-Serif" font-size="20.00">+ getUniforme()</text>
<text text-anchor="start" x="249" y="-901.5" font-family="Helvetica,sans-Serif" font-size="20.00">+ printOutDados()</text>
</a>
</g>
</g>
<!-- Node4&#45;&gt;Node3 -->
<g id="edge3" class="edge">
<title>Node4&#45;&gt;Node3</title>
<path fill="none" stroke="#404040" d="M374.88,-891.24C380.62,-876.29 386.77,-860.28 393.06,-843.9"/>
<polygon fill="none" stroke="#404040" points="393.13,-843.72 391.54,-836.68 397.43,-832.52 399.01,-839.55 393.13,-843.72"/>
<text text-anchor="middle" x="439.5" y="-857" font-family="Helvetica,sans-Serif" font-size="20.00"> #tratador</text>
</g>
<!-- Node5 -->
<g id="node5" class="node">
<title>Node5</title>
<g id="a_node5"><a xlink:href="classPessoa.html" target="_top" xlink:title="Classe base dos funcionarios.">
<polygon fill="white" stroke="black" points="350,-1172.5 350,-1416.5 550,-1416.5 550,-1172.5 350,-1172.5"/>
<text text-anchor="middle" x="450" y="-1396.5" font-family="Helvetica,sans-Serif" font-size="20.00">Pessoa</text>
<polyline fill="none" stroke="black" points="350,-1386.5 550,-1386.5 "/>
<text text-anchor="middle" x="450" y="-1366.5" font-family="Helvetica,sans-Serif" font-size="20.00"> </text>
<polyline fill="none" stroke="black" points="350,-1356.5 550,-1356.5 "/>
<text text-anchor="start" x="358" y="-1336.5" font-family="Helvetica,sans-Serif" font-size="20.00">+ Pessoa()</text>
<text text-anchor="start" x="358" y="-1314.5" font-family="Helvetica,sans-Serif" font-size="20.00">+ Pessoa()</text>
<text text-anchor="start" x="358" y="-1292.5" font-family="Helvetica,sans-Serif" font-size="20.00">+ ~Pessoa()</text>
<text text-anchor="start" x="358" y="-1270.5" font-family="Helvetica,sans-Serif" font-size="20.00">+ getNome()</text>
<text text-anchor="start" x="358" y="-1248.5" font-family="Helvetica,sans-Serif" font-size="20.00">+ getTelefone()</text>
<text text-anchor="start" x="358" y="-1226.5" font-family="Helvetica,sans-Serif" font-size="20.00">+ getEmail()</text>
<text text-anchor="start" x="358" y="-1204.5" font-family="Helvetica,sans-Serif" font-size="20.00">+ printOutDados()</text>
<text text-anchor="start" x="358" y="-1182.5" font-family="Helvetica,sans-Serif" font-size="20.00">+ operator==()</text>
</a>
</g>
</g>
<!-- Node5&#45;&gt;Node4 -->
<g id="edge4" class="edge">
<title>Node5&#45;&gt;Node4</title>
<path fill="none" stroke="midnightblue" d="M420.16,-1162.38C413.17,-1137.37 405.08,-1111.64 396,-1088 393.69,-1081.98 391.13,-1075.85 388.41,-1069.74"/>
<polygon fill="none" stroke="midnightblue" points="416.86,-1163.57 422.88,-1172.29 423.61,-1161.72 416.86,-1163.57"/>
</g>
<!-- Node9 -->
<g id="node9" class="node">
<title>Node9</title>
<g id="a_node9"><a xlink:href="classVeterinario.html" target="_top" xlink:title="Implementação dos veterinarios.">
<polygon fill="white" stroke="black" points="459,-891.5 459,-1069.5 659,-1069.5 659,-891.5 459,-891.5"/>
<text text-anchor="middle" x="559" y="-1049.5" font-family="Helvetica,sans-Serif" font-size="20.00">Veterinario</text>
<polyline fill="none" stroke="black" points="459,-1039.5 659,-1039.5 "/>
<text text-anchor="middle" x="559" y="-1019.5" font-family="Helvetica,sans-Serif" font-size="20.00"> </text>
<polyline fill="none" stroke="black" points="459,-1009.5 659,-1009.5 "/>
<text text-anchor="start" x="467" y="-989.5" font-family="Helvetica,sans-Serif" font-size="20.00">+ Veterinario()</text>
<text text-anchor="start" x="467" y="-967.5" font-family="Helvetica,sans-Serif" font-size="20.00">+ Veterinario()</text>
<text text-anchor="start" x="467" y="-945.5" font-family="Helvetica,sans-Serif" font-size="20.00">+ ~Veterinario()</text>
<text text-anchor="start" x="467" y="-923.5" font-family="Helvetica,sans-Serif" font-size="20.00">+ getCRMV()</text>
<text text-anchor="start" x="467" y="-901.5" font-family="Helvetica,sans-Serif" font-size="20.00">+ printOutDados()</text>
</a>
</g>
</g>
<!-- Node5&#45;&gt;Node9 -->
<g id="edge10" class="edge">
<title>Node5&#45;&gt;Node9</title>
<path fill="none" stroke="midnightblue" d="M495.68,-1162.73C506.65,-1131.34 518.11,-1098.55 528.21,-1069.62"/>
<polygon fill="none" stroke="midnightblue" points="492.29,-1161.83 492.3,-1172.43 498.9,-1164.14 492.29,-1161.83"/>
</g>
<!-- Node6 -->
<g id="node6" class="node">
<title>Node6</title>
<g id="a_node6"><a xlink:title=" ">
<polygon fill="white" stroke="#bfbfbf" points="549,-1519.5 549,-1609.5 623,-1609.5 623,-1519.5 549,-1519.5"/>
<text text-anchor="middle" x="586" y="-1589.5" font-family="Helvetica,sans-Serif" font-size="20.00">string</text>
<polyline fill="none" stroke="#bfbfbf" points="549,-1579.5 623,-1579.5 "/>
<text text-anchor="middle" x="586" y="-1559.5" font-family="Helvetica,sans-Serif" font-size="20.00"> </text>
<polyline fill="none" stroke="#bfbfbf" points="549,-1549.5 623,-1549.5 "/>
<text text-anchor="middle" x="586" y="-1529.5" font-family="Helvetica,sans-Serif" font-size="20.00"> </text>
</a>
</g>
</g>
<!-- Node6&#45;&gt;Node3 -->
<g id="edge8" class="edge">
<title>Node6&#45;&gt;Node3</title>
<path fill="none" stroke="#404040" d="M612.95,-1519.44C628.68,-1491.25 647.12,-1453.28 656,-1417 711.62,-1189.87 693.82,-1123.41 668,-891 665.99,-872.89 667.78,-866.97 659,-851 640,-816.44 613.03,-783.91 585.22,-755.71"/>
<polygon fill="none" stroke="#404040" points="585.08,-755.57 578,-754.17 576.57,-747.1 583.65,-748.5 585.08,-755.57"/>
<text text-anchor="middle" x="768" y="-1138" font-family="Helvetica,sans-Serif" font-size="20.00"> #especie</text>
<text text-anchor="middle" x="768" y="-1116" font-family="Helvetica,sans-Serif" font-size="20.00">#ameacadoPor</text>
<text text-anchor="middle" x="768" y="-1094" font-family="Helvetica,sans-Serif" font-size="20.00">#nome</text>
</g>
<!-- Node6&#45;&gt;Node5 -->
<g id="edge5" class="edge">
<title>Node6&#45;&gt;Node5</title>
<path fill="none" stroke="#404040" d="M548.88,-1552.48C523.8,-1543.02 492.21,-1526.74 475,-1501 460.77,-1479.72 452.52,-1454.38 448.03,-1428.88"/>
<polygon fill="none" stroke="#404040" points="447.99,-1428.63 443.13,-1423.31 446.17,-1416.77 451.03,-1422.09 447.99,-1428.63"/>
<text text-anchor="middle" x="523.5" y="-1485" font-family="Helvetica,sans-Serif" font-size="20.00"> #email</text>
<text text-anchor="middle" x="523.5" y="-1463" font-family="Helvetica,sans-Serif" font-size="20.00">#nome</text>
<text text-anchor="middle" x="523.5" y="-1441" font-family="Helvetica,sans-Serif" font-size="20.00">#telefone</text>
</g>
<!-- Node6&#45;&gt;Node9 -->
<g id="edge11" class="edge">
<title>Node6&#45;&gt;Node9</title>
<path fill="none" stroke="#404040" d="M583.95,-1519.28C579.65,-1426.57 569.59,-1209.87 563.65,-1081.64"/>
<polygon fill="none" stroke="#404040" points="563.64,-1081.5 559.37,-1075.69 563.08,-1069.51 567.36,-1075.32 563.64,-1081.5"/>
<text text-anchor="middle" x="615.5" y="-1289.5" font-family="Helvetica,sans-Serif" font-size="20.00"> &#45;CRMV</text>
</g>
<!-- Node7 -->
<g id="node7" class="node">
<title>Node7</title>
<g id="a_node7"><a xlink:title=" ">
<polygon fill="white" stroke="#bfbfbf" points="224.5,-1249.5 224.5,-1339.5 331.5,-1339.5 331.5,-1249.5 224.5,-1249.5"/>
<text text-anchor="middle" x="278" y="-1319.5" font-family="Helvetica,sans-Serif" font-size="20.00">Uniforme</text>
<polyline fill="none" stroke="#bfbfbf" points="224.5,-1309.5 331.5,-1309.5 "/>
<text text-anchor="middle" x="278" y="-1289.5" font-family="Helvetica,sans-Serif" font-size="20.00"> </text>
<polyline fill="none" stroke="#bfbfbf" points="224.5,-1279.5 331.5,-1279.5 "/>
<text text-anchor="middle" x="278" y="-1259.5" font-family="Helvetica,sans-Serif" font-size="20.00"> </text>
</a>
</g>
</g>
<!-- Node7&#45;&gt;Node4 -->
<g id="edge6" class="edge">
<title>Node7&#45;&gt;Node4</title>
<path fill="none" stroke="#404040" d="M276.81,-1249.5C276.69,-1207.4 279.21,-1142.44 293,-1088 293.58,-1085.71 294.2,-1083.42 294.87,-1081.11"/>
<polygon fill="none" stroke="#404040" points="294.9,-1081.01 292.9,-1074.09 298.52,-1069.57 300.53,-1076.5 294.9,-1081.01"/>
<text text-anchor="middle" x="344.5" y="-1116" font-family="Helvetica,sans-Serif" font-size="20.00"> &#45;uniforme</text>
</g>
<!-- Node8 -->
<g id="node8" class="node">
<title>Node8</title>
<g id="a_node8"><a xlink:title=" ">
<polygon fill="white" stroke="#bfbfbf" points="163.5,-935.5 163.5,-1025.5 222.5,-1025.5 222.5,-935.5 163.5,-935.5"/>
<text text-anchor="middle" x="193" y="-1005.5" font-family="Helvetica,sans-Serif" font-size="20.00">bool</text>
<polyline fill="none" stroke="#bfbfbf" points="163.5,-995.5 222.5,-995.5 "/>
<text text-anchor="middle" x="193" y="-975.5" font-family="Helvetica,sans-Serif" font-size="20.00"> </text>
<polyline fill="none" stroke="#bfbfbf" points="163.5,-965.5 222.5,-965.5 "/>
<text text-anchor="middle" x="193" y="-945.5" font-family="Helvetica,sans-Serif" font-size="20.00"> </text>
</a>
</g>
</g>
<!-- Node8&#45;&gt;Node2 -->
<g id="edge12" class="edge">
<title>Node8&#45;&gt;Node2</title>
<path fill="none" stroke="#404040" d="M200.42,-935.33C203.32,-916.22 206.34,-893.57 208,-873 224.78,-665.45 224.71,-419.76 223.32,-296.82"/>
<polygon fill="none" stroke="#404040" points="223.31,-296.59 219.24,-290.64 223.17,-284.59 227.24,-290.54 223.31,-296.59"/>
<text text-anchor="middle" x="279.5" y="-650.5" font-family="Helvetica,sans-Serif" font-size="20.00"> #gestacao</text>
</g>
<!-- Node8&#45;&gt;Node3 -->
<g id="edge7" class="edge">
<title>Node8&#45;&gt;Node3</title>
<path fill="none" stroke="#404040" d="M208.9,-935.11C215.08,-920.47 222.89,-904.5 232,-891 245.89,-870.42 249.56,-863.52 271,-851 298,-835.24 313.28,-850.78 339,-833 340.55,-831.93 342.08,-830.83 343.61,-829.71"/>
<polygon fill="none" stroke="#404040" points="344.03,-829.38 346.29,-822.53 353.48,-821.99 351.22,-828.83 344.03,-829.38"/>
<text text-anchor="middle" x="325.5" y="-857" font-family="Helvetica,sans-Serif" font-size="20.00"> #perigoso</text>
</g>
<!-- Node10 -->
<g id="node10" class="node">
<title>Node10</title>
<g id="a_node10"><a xlink:href="classDomestico.html" target="_top" xlink:title="Umas das definições de categoria para Animal.">
<polygon fill="white" stroke="black" points="0,-303.5 0,-459.5 188,-459.5 188,-303.5 0,-303.5"/>
<text text-anchor="middle" x="94" y="-439.5" font-family="Helvetica,sans-Serif" font-size="20.00">Domestico</text>
<polyline fill="none" stroke="black" points="0,-429.5 188,-429.5 "/>
<text text-anchor="middle" x="94" y="-409.5" font-family="Helvetica,sans-Serif" font-size="20.00"> </text>
<polyline fill="none" stroke="black" points="0,-399.5 188,-399.5 "/>
<text text-anchor="start" x="8" y="-379.5" font-family="Helvetica,sans-Serif" font-size="20.00">+ Domestico()</text>
<text text-anchor="start" x="8" y="-357.5" font-family="Helvetica,sans-Serif" font-size="20.00">+ Domestico()</text>
<text text-anchor="start" x="8" y="-335.5" font-family="Helvetica,sans-Serif" font-size="20.00">+ ~Domestico()</text>
<text text-anchor="start" x="8" y="-313.5" font-family="Helvetica,sans-Serif" font-size="20.00">+ getAdestrado()</text>
</a>
</g>
</g>
<!-- Node8&#45;&gt;Node10 -->
<g id="edge14" class="edge">
<title>Node8&#45;&gt;Node10</title>
<path fill="none" stroke="#404040" d="M163.44,-960.61C137.26,-941.95 100.8,-910.78 85,-873 30.12,-741.81 50.66,-573.1 71.58,-471.62"/>
<polygon fill="none" stroke="#404040" points="71.64,-471.32 68.97,-464.63 74.12,-459.58 76.79,-466.28 71.64,-471.32"/>
<text text-anchor="middle" x="146.5" y="-857" font-family="Helvetica,sans-Serif" font-size="20.00"> #adestrado</text>
</g>
<!-- Node9&#45;&gt;Node3 -->
<g id="edge9" class="edge">
<title>Node9&#45;&gt;Node3</title>
<path fill="none" stroke="#404040" d="M533.31,-891.24C529.01,-876.43 524.39,-860.59 519.68,-844.38"/>
<polygon fill="none" stroke="#404040" points="519.58,-844.04 514.06,-839.4 516.22,-832.52 521.74,-837.16 519.58,-844.04"/>
<text text-anchor="middle" x="590" y="-857" font-family="Helvetica,sans-Serif" font-size="20.00"> #veterinario</text>
</g>
<!-- Node10&#45;&gt;Node1 -->
<g id="edge13" class="edge">
<title>Node10&#45;&gt;Node1</title>
<path fill="none" stroke="midnightblue" d="M104.68,-293.19C110.04,-250.07 116.7,-197.28 123,-150 124.61,-137.94 126.39,-125.01 128.1,-112.75"/>
<polygon fill="none" stroke="midnightblue" points="101.18,-293.01 103.42,-303.37 108.12,-293.87 101.18,-293.01"/>
</g>
</g>
</svg>
