<?xml version="1.0" encoding="UTF-8" standalone="no"?>
<!DOCTYPE svg PUBLIC "-//W3C//DTD SVG 1.1//EN"
 "http://www.w3.org/Graphics/SVG/1.1/DTD/svg11.dtd">
<!-- Generated by graphviz version 2.43.0 (0)
 -->
<!-- Title: Domestico Pages: 1 -->
<!--zoomable 380 -->
<svg id="main" version="1.1" xmlns="http://www.w3.org/2000/svg" xmlns:xlink="http://www.w3.org/1999/xlink" xml:space="preserve" onload="init(evt)">
<style type="text/css"><![CDATA[
.edge:hover path { stroke: red; }
.edge:hover polygon { stroke: red; fill: red; }
]]></style>
<script type="text/javascript"><![CDATA[
var edges = document.getElementsByTagName('g');
if (edges && edges.length) {
  for (var i=0;i<edges.length;i++) {
    if (edges[i].id.substr(0,4)=='edge') {
      edges[i].setAttribute('class','edge');
    }
  }
}
]]></script>
        <defs>
                <circle id="rim" cx="0" cy="0" r="7"/>
                <circle id="rim2" cx="0" cy="0" r="3.5"/>
                <g id="zoomPlus">
                        <use xlink:href="#rim" fill="#404040">
                                <set attributeName="fill" to="#808080" begin="zoomplus.mouseover" end="zoomplus.mouseout"/>
                        </use>
                        <path d="M-4,0h8M0,-4v8" fill="none" stroke="white" stroke-width="1.5" pointer-events="none"/>
                </g>
                <g id="zoomMin">
                        <use xlink:href="#rim" fill="#404040">
                                <set attributeName="fill" to="#808080" begin="zoomminus.mouseover" end="zoomminus.mouseout"/>
                        </use>
                        <path d="M-4,0h8" fill="none" stroke="white" stroke-width="1.5" pointer-events="none"/>
                </g>
                <g id="dirArrow">
                        <path fill="none" stroke="white" stroke-width="1.5" d="M0,-3.0v7 M-2.5,-0.5L0,-3.0L2.5,-0.5"/>
                </g>
               <g id="resetDef">
                       <use xlink:href="#rim2" fill="#404040">
                               <set attributeName="fill" to="#808080" begin="reset.mouseover" end="reset.mouseout"/>
                       </use>
               </g>
        </defs>

<script type="text/javascript">
var viewWidth = 1022;
var viewHeight = 380;
var sectionId = 'dynsection-0';
</script>
<script xlink:href="svgpan.js"/>
<svg id="graph" class="graph">
<g id="viewport">
<title>Domestico</title>
<polygon fill="white" stroke="transparent" points="-4,4 -4,-376 1017.5,-376 1017.5,4 -4,4"/>
<!-- Node1 -->
<g id="node1" class="node">
<title>Node1</title>
<g id="a_node1"><a xlink:title="Umas das definições de categoria para Animal.">
<polygon fill="#bfbfbf" stroke="black" points="404.5,-171.5 404.5,-371.5 592.5,-371.5 592.5,-171.5 404.5,-171.5"/>
<text text-anchor="middle" x="498.5" y="-351.5" font-family="Helvetica,sans-Serif" font-size="20.00">Domestico</text>
<polyline fill="none" stroke="black" points="404.5,-341.5 592.5,-341.5 "/>
<text text-anchor="start" x="412.5" y="-321.5" font-family="Helvetica,sans-Serif" font-size="20.00"># adestrado</text>
<polyline fill="none" stroke="black" points="404.5,-311.5 592.5,-311.5 "/>
<text text-anchor="start" x="412.5" y="-291.5" font-family="Helvetica,sans-Serif" font-size="20.00">+ Domestico()</text>
<text text-anchor="start" x="412.5" y="-269.5" font-family="Helvetica,sans-Serif" font-size="20.00">+ Domestico()</text>
<text text-anchor="start" x="412.5" y="-247.5" font-family="Helvetica,sans-Serif" font-size="20.00">+ ~Domestico()</text>
<text text-anchor="start" x="412.5" y="-225.5" font-family="Helvetica,sans-Serif" font-size="20.00">+ getAdestrado()</text>
<text text-anchor="start" x="412.5" y="-203.5" font-family="Helvetica,sans-Serif" font-size="20.00">+ setAdestrado()</text>
<text text-anchor="start" x="412.5" y="-181.5" font-family="Helvetica,sans-Serif" font-size="20.00">+ setAdestrado()</text>
</a>
</g>
</g>
<!-- Node2 -->
<g id="node2" class="node">
<title>Node2</title>
<g id="a_node2"><a xlink:href="classAnfibioDomestico.html" target="_top" xlink:title="Implementação de animal com Classe e Categoria.">
<polygon fill="white" stroke="black" points="0,-0.5 0,-134.5 245,-134.5 245,-0.5 0,-0.5"/>
<text text-anchor="middle" x="122.5" y="-114.5" font-family="Helvetica,sans-Serif" font-size="20.00">AnfibioDomestico</text>
<polyline fill="none" stroke="black" points="0,-104.5 245,-104.5 "/>
<text text-anchor="middle" x="122.5" y="-84.5" font-family="Helvetica,sans-Serif" font-size="20.00"> </text>
<polyline fill="none" stroke="black" points="0,-74.5 245,-74.5 "/>
<text text-anchor="start" x="8" y="-54.5" font-family="Helvetica,sans-Serif" font-size="20.00">+ AnfibioDomestico()</text>
<text text-anchor="start" x="8" y="-32.5" font-family="Helvetica,sans-Serif" font-size="20.00">+ AnfibioDomestico()</text>
<text text-anchor="start" x="8" y="-10.5" font-family="Helvetica,sans-Serif" font-size="20.00">+ ~AnfibioDomestico()</text>
</a>
</g>
</g>
<!-- Node1&#45;&gt;Node2 -->
<g id="edge1" class="edge">
<title>Node1&#45;&gt;Node2</title>
<path fill="none" stroke="midnightblue" d="M395.24,-215.02C348.78,-190.07 293.59,-160.42 245.06,-134.34"/>
<polygon fill="none" stroke="midnightblue" points="393.64,-218.14 404.1,-219.79 396.95,-211.97 393.64,-218.14"/>
</g>
<!-- Node3 -->
<g id="node3" class="node">
<title>Node3</title>
<g id="a_node3"><a xlink:href="classAveDomestica.html" target="_top" xlink:title="Implementação de animal com Classe e Categoria.">
<polygon fill="white" stroke="black" points="263,-0.5 263,-134.5 476,-134.5 476,-0.5 263,-0.5"/>
<text text-anchor="middle" x="369.5" y="-114.5" font-family="Helvetica,sans-Serif" font-size="20.00">AveDomestica</text>
<polyline fill="none" stroke="black" points="263,-104.5 476,-104.5 "/>
<text text-anchor="middle" x="369.5" y="-84.5" font-family="Helvetica,sans-Serif" font-size="20.00"> </text>
<polyline fill="none" stroke="black" points="263,-74.5 476,-74.5 "/>
<text text-anchor="start" x="271" y="-54.5" font-family="Helvetica,sans-Serif" font-size="20.00">+ AveDomestica()</text>
<text text-anchor="start" x="271" y="-32.5" font-family="Helvetica,sans-Serif" font-size="20.00">+ AveDomestica()</text>
<text text-anchor="start" x="271" y="-10.5" font-family="Helvetica,sans-Serif" font-size="20.00">+ ~AveDomestica()</text>
</a>
</g>
</g>
<!-- Node1&#45;&gt;Node3 -->
<g id="edge2" class="edge">
<title>Node1&#45;&gt;Node3</title>
<path fill="none" stroke="midnightblue" d="M429.72,-162.8C423.57,-153.17 417.48,-143.63 411.66,-134.51"/>
<polygon fill="none" stroke="midnightblue" points="426.8,-164.73 435.13,-171.28 432.7,-160.96 426.8,-164.73"/>
</g>
<!-- Node4 -->
<g id="node4" class="node">
<title>Node4</title>
<g id="a_node4"><a xlink:href="classMamiferoDomestico.html" target="_top" xlink:title="Implementação de animal com Classe e Categoria.">
<polygon fill="white" stroke="black" points="494,-0.5 494,-134.5 763,-134.5 763,-0.5 494,-0.5"/>
<text text-anchor="middle" x="628.5" y="-114.5" font-family="Helvetica,sans-Serif" font-size="20.00">MamiferoDomestico</text>
<polyline fill="none" stroke="black" points="494,-104.5 763,-104.5 "/>
<text text-anchor="middle" x="628.5" y="-84.5" font-family="Helvetica,sans-Serif" font-size="20.00"> </text>
<polyline fill="none" stroke="black" points="494,-74.5 763,-74.5 "/>
<text text-anchor="start" x="502" y="-54.5" font-family="Helvetica,sans-Serif" font-size="20.00">+ MamiferoDomestico()</text>
<text text-anchor="start" x="502" y="-32.5" font-family="Helvetica,sans-Serif" font-size="20.00">+ MamiferoDomestico()</text>
<text text-anchor="start" x="502" y="-10.5" font-family="Helvetica,sans-Serif" font-size="20.00">+ ~MamiferoDomestico()</text>
</a>
</g>
</g>
<!-- Node1&#45;&gt;Node4 -->
<g id="edge3" class="edge">
<title>Node1&#45;&gt;Node4</title>
<path fill="none" stroke="midnightblue" d="M567.81,-162.8C574.01,-153.17 580.15,-143.63 586.02,-134.51"/>
<polygon fill="none" stroke="midnightblue" points="564.83,-160.97 562.36,-171.28 570.71,-164.76 564.83,-160.97"/>
</g>
<!-- Node5 -->
<g id="node5" class="node">
<title>Node5</title>
<g id="a_node5"><a xlink:href="classReptilDomestico.html" target="_top" xlink:title="Implementação de animal com Classe e Categoria.">
<polygon fill="white" stroke="black" points="781.5,-0.5 781.5,-134.5 1013.5,-134.5 1013.5,-0.5 781.5,-0.5"/>
<text text-anchor="middle" x="897.5" y="-114.5" font-family="Helvetica,sans-Serif" font-size="20.00">ReptilDomestico</text>
<polyline fill="none" stroke="black" points="781.5,-104.5 1013.5,-104.5 "/>
<text text-anchor="middle" x="897.5" y="-84.5" font-family="Helvetica,sans-Serif" font-size="20.00"> </text>
<polyline fill="none" stroke="black" points="781.5,-74.5 1013.5,-74.5 "/>
<text text-anchor="start" x="789.5" y="-54.5" font-family="Helvetica,sans-Serif" font-size="20.00">+ ReptilDomestico()</text>
<text text-anchor="start" x="789.5" y="-32.5" font-family="Helvetica,sans-Serif" font-size="20.00">+ ReptilDomestico()</text>
<text text-anchor="start" x="789.5" y="-10.5" font-family="Helvetica,sans-Serif" font-size="20.00">+ ~ReptilDomestico()</text>
</a>
</g>
</g>
<!-- Node1&#45;&gt;Node5 -->
<g id="edge4" class="edge">
<title>Node1&#45;&gt;Node5</title>
<path fill="none" stroke="midnightblue" d="M601.83,-220.3C653.3,-195.06 716.38,-163.8 772.5,-135 775.45,-133.49 778.44,-131.94 781.45,-130.39"/>
<polygon fill="none" stroke="midnightblue" points="600.13,-217.24 592.69,-224.78 603.21,-223.52 600.13,-217.24"/>
</g>
</g>
</svg>
        <g id="navigator" transform="translate(0 0)" fill="#404254">
                <rect fill="#f2f5e9" fill-opacity="0.5" stroke="#606060" stroke-width=".5" x="0" y="0" width="60" height="60"/>
                <use id="zoomplus" xlink:href="#zoomPlus" x="17" y="9" onmousedown="handleZoom(evt,'in')"/>
                <use id="zoomminus" xlink:href="#zoomMin" x="42" y="9" onmousedown="handleZoom(evt,'out')"/>
                <use id="reset" xlink:href="#resetDef" x="30" y="36" onmousedown="handleReset()"/>
                <g id="arrowUp" xlink:href="#dirArrow" transform="translate(30 24)" onmousedown="handlePan(0,-1)">
                  <use xlink:href="#rim" fill="#404040">
                        <set attributeName="fill" to="#808080" begin="arrowUp.mouseover" end="arrowUp.mouseout"/>
                  </use>
                  <path fill="none" stroke="white" stroke-width="1.5" d="M0,-3.0v7 M-2.5,-0.5L0,-3.0L2.5,-0.5"/>
                </g>
                <g id="arrowRight" xlink:href="#dirArrow" transform="rotate(90) translate(36 -43)" onmousedown="handlePan(1,0)">
                  <use xlink:href="#rim" fill="#404040">
                        <set attributeName="fill" to="#808080" begin="arrowRight.mouseover" end="arrowRight.mouseout"/>
                  </use>
                  <path fill="none" stroke="white" stroke-width="1.5" d="M0,-3.0v7 M-2.5,-0.5L0,-3.0L2.5,-0.5"/>
                </g>
                <g id="arrowDown" xlink:href="#dirArrow" transform="rotate(180) translate(-30 -48)" onmousedown="handlePan(0,1)">
                  <use xlink:href="#rim" fill="#404040">
                        <set attributeName="fill" to="#808080" begin="arrowDown.mouseover" end="arrowDown.mouseout"/>
                  </use>
                  <path fill="none" stroke="white" stroke-width="1.5" d="M0,-3.0v7 M-2.5,-0.5L0,-3.0L2.5,-0.5"/>
                </g>
                <g id="arrowLeft" xlink:href="#dirArrow" transform="rotate(270) translate(-36 17)" onmousedown="handlePan(-1,0)">
                  <use xlink:href="#rim" fill="#404040">
                        <set attributeName="fill" to="#808080" begin="arrowLeft.mouseover" end="arrowLeft.mouseout"/>
                  </use>
                  <path fill="none" stroke="white" stroke-width="1.5" d="M0,-3.0v7 M-2.5,-0.5L0,-3.0L2.5,-0.5"/>
                </g>
        </g>
        <svg viewBox="0 0 15 15" width="100%" height="30px" preserveAspectRatio="xMaxYMin meet">
         <g id="arrow_out" transform="scale(0.3 0.3)">
          <a xlink:href="classDomestico__inherit__graph_org.svg" target="_base">
           <rect id="button" ry="5" rx="5" y="6" x="6" height="38" width="38"
                fill="#f2f5e9" fill-opacity="0.5" stroke="#606060" stroke-width="1.0"/>
           <path id="arrow"
             d="M 11.500037,31.436501 C 11.940474,20.09759 22.043105,11.32322 32.158766,21.979434 L 37.068811,17.246167 C 37.068811,17.246167 37.088388,32 37.088388,32 L 22.160133,31.978069 C 22.160133,31.978069 26.997745,27.140456 26.997745,27.140456 C 18.528582,18.264221 13.291696,25.230495 11.500037,31.436501 z"
             style="fill:#404040;"/>
          </a>
         </g>
        </svg>
</svg>
