<?xml version="1.0" encoding="UTF-8" standalone="no"?>
<!DOCTYPE svg PUBLIC "-//W3C//DTD SVG 1.1//EN"
 "http://www.w3.org/Graphics/SVG/1.1/DTD/svg11.dtd">
<!-- Generated by graphviz version 2.43.0 (0)
 -->
<!-- Title: AnfibioNativo Pages: 1 -->
<svg width="776pt" height="2037pt"
 viewBox="0.00 0.00 776.20 2037.00" xmlns="http://www.w3.org/2000/svg" xmlns:xlink="http://www.w3.org/1999/xlink">
<g id="graph0" class="graph" transform="scale(1 1) rotate(0) translate(4 2033)">
<title>AnfibioNativo</title>
<polygon fill="white" stroke="transparent" points="-4,4 -4,-2033 772.2,-2033 772.2,4 -4,4"/>
<!-- Node1 -->
<g id="node1" class="node">
<title>Node1</title>
<g id="a_node1"><a xlink:title="Implementação de animal com Classe e Categoria.">
<polygon fill="#bfbfbf" stroke="black" points="532.7,-0.5 532.7,-134.5 735.7,-134.5 735.7,-0.5 532.7,-0.5"/>
<text text-anchor="middle" x="634.2" y="-114.5" font-family="Helvetica,sans-Serif" font-size="20.00">AnfibioNativo</text>
<polyline fill="none" stroke="black" points="532.7,-104.5 735.7,-104.5 "/>
<text text-anchor="middle" x="634.2" y="-84.5" font-family="Helvetica,sans-Serif" font-size="20.00"> </text>
<polyline fill="none" stroke="black" points="532.7,-74.5 735.7,-74.5 "/>
<text text-anchor="start" x="540.7" y="-54.5" font-family="Helvetica,sans-Serif" font-size="20.00">+ AnfibioNativo()</text>
<text text-anchor="start" x="540.7" y="-32.5" font-family="Helvetica,sans-Serif" font-size="20.00">+ AnfibioNativo()</text>
<text text-anchor="start" x="540.7" y="-10.5" font-family="Helvetica,sans-Serif" font-size="20.00">+ ~AnfibioNativo()</text>
</a>
</g>
</g>
<!-- Node2 -->
<g id="node2" class="node">
<title>Node2</title>
<g id="a_node2"><a xlink:href="classAnfibio.html" target="_top" xlink:title="Classificação base para Anfibios.">
<polygon fill="white" stroke="black" points="506.2,-172.5 506.2,-438.5 656.2,-438.5 656.2,-172.5 506.2,-172.5"/>
<text text-anchor="middle" x="581.2" y="-418.5" font-family="Helvetica,sans-Serif" font-size="20.00">Anfibio</text>
<polyline fill="none" stroke="black" points="506.2,-408.5 656.2,-408.5 "/>
<text text-anchor="middle" x="581.2" y="-388.5" font-family="Helvetica,sans-Serif" font-size="20.00"> </text>
<polyline fill="none" stroke="black" points="506.2,-378.5 656.2,-378.5 "/>
<text text-anchor="start" x="514.2" y="-358.5" font-family="Helvetica,sans-Serif" font-size="20.00">+ Anfibio()</text>
<text text-anchor="start" x="514.2" y="-336.5" font-family="Helvetica,sans-Serif" font-size="20.00">+ Anfibio()</text>
<text text-anchor="start" x="514.2" y="-314.5" font-family="Helvetica,sans-Serif" font-size="20.00">+ ~Anfibio()</text>
<text text-anchor="start" x="514.2" y="-292.5" font-family="Helvetica,sans-Serif" font-size="20.00">+ getCauda()</text>
<text text-anchor="start" x="514.2" y="-270.5" font-family="Helvetica,sans-Serif" font-size="20.00">+ setCauda()</text>
<text text-anchor="start" x="514.2" y="-248.5" font-family="Helvetica,sans-Serif" font-size="20.00">+ setCauda()</text>
<text text-anchor="start" x="514.2" y="-226.5" font-family="Helvetica,sans-Serif" font-size="20.00">+ getPata()</text>
<text text-anchor="start" x="514.2" y="-204.5" font-family="Helvetica,sans-Serif" font-size="20.00">+ setPata()</text>
<text text-anchor="start" x="514.2" y="-182.5" font-family="Helvetica,sans-Serif" font-size="20.00">+ setPata()</text>
</a>
</g>
</g>
<!-- Node2&#45;&gt;Node1 -->
<g id="edge1" class="edge">
<title>Node2&#45;&gt;Node1</title>
<path fill="none" stroke="midnightblue" d="M613.14,-162.31C615.29,-152.74 617.39,-143.39 619.38,-134.53"/>
<polygon fill="none" stroke="midnightblue" points="609.66,-161.83 610.88,-172.36 616.49,-163.37 609.66,-161.83"/>
</g>
<!-- Node3 -->
<g id="node3" class="node">
<title>Node3</title>
<g id="a_node3"><a xlink:href="classAnimal.html" target="_top" xlink:title="Implementação base para o cadastro de animais.">
<polygon fill="white" stroke="black" points="219.7,-476.5 219.7,-852.5 442.7,-852.5 442.7,-476.5 219.7,-476.5"/>
<text text-anchor="middle" x="331.2" y="-832.5" font-family="Helvetica,sans-Serif" font-size="20.00">Animal</text>
<polyline fill="none" stroke="black" points="219.7,-822.5 442.7,-822.5 "/>
<text text-anchor="middle" x="331.2" y="-802.5" font-family="Helvetica,sans-Serif" font-size="20.00"> </text>
<polyline fill="none" stroke="black" points="219.7,-792.5 442.7,-792.5 "/>
<text text-anchor="start" x="227.7" y="-772.5" font-family="Helvetica,sans-Serif" font-size="20.00">+ Animal()</text>
<text text-anchor="start" x="227.7" y="-750.5" font-family="Helvetica,sans-Serif" font-size="20.00">+ Animal()</text>
<text text-anchor="start" x="227.7" y="-728.5" font-family="Helvetica,sans-Serif" font-size="20.00">+ ~Animal()</text>
<text text-anchor="start" x="227.7" y="-706.5" font-family="Helvetica,sans-Serif" font-size="20.00">+ getNome()</text>
<text text-anchor="start" x="227.7" y="-684.5" font-family="Helvetica,sans-Serif" font-size="20.00">+ getEspecie()</text>
<text text-anchor="start" x="227.7" y="-662.5" font-family="Helvetica,sans-Serif" font-size="20.00">+ getAmeacadoPor()</text>
<text text-anchor="start" x="227.7" y="-640.5" font-family="Helvetica,sans-Serif" font-size="20.00">+ getVeterinario()</text>
<text text-anchor="start" x="227.7" y="-618.5" font-family="Helvetica,sans-Serif" font-size="20.00">+ getTratador()</text>
<text text-anchor="start" x="227.7" y="-596.5" font-family="Helvetica,sans-Serif" font-size="20.00">+ getPerigoso()</text>
<text text-anchor="start" x="227.7" y="-574.5" font-family="Helvetica,sans-Serif" font-size="20.00">+ setNome()</text>
<text text-anchor="start" x="227.7" y="-552.5" font-family="Helvetica,sans-Serif" font-size="20.00">e 13 mais...</text>
<text text-anchor="start" x="227.7" y="-530.5" font-family="Helvetica,sans-Serif" font-size="20.00">+ getClassificacao()</text>
<text text-anchor="start" x="227.7" y="-508.5" font-family="Helvetica,sans-Serif" font-size="20.00">+ getClasse()</text>
<text text-anchor="start" x="227.7" y="-486.5" font-family="Helvetica,sans-Serif" font-size="20.00">+ printOutDetails()</text>
</a>
</g>
</g>
<!-- Node3&#45;&gt;Node2 -->
<g id="edge2" class="edge">
<title>Node3&#45;&gt;Node2</title>
<path fill="none" stroke="midnightblue" d="M448.64,-495.8C468.19,-467.89 487.98,-439.62 506.1,-413.74"/>
<polygon fill="none" stroke="midnightblue" points="445.73,-493.86 442.86,-504.06 451.46,-497.87 445.73,-493.86"/>
</g>
<!-- Node4 -->
<g id="node4" class="node">
<title>Node4</title>
<g id="a_node4"><a xlink:href="classTratador.html" target="_top" xlink:title="Implementação dos tratadores.">
<polygon fill="white" stroke="black" points="296.2,-911.5 296.2,-1133.5 496.2,-1133.5 496.2,-911.5 296.2,-911.5"/>
<text text-anchor="middle" x="396.2" y="-1113.5" font-family="Helvetica,sans-Serif" font-size="20.00">Tratador</text>
<polyline fill="none" stroke="black" points="296.2,-1103.5 496.2,-1103.5 "/>
<text text-anchor="middle" x="396.2" y="-1083.5" font-family="Helvetica,sans-Serif" font-size="20.00"> </text>
<polyline fill="none" stroke="black" points="296.2,-1073.5 496.2,-1073.5 "/>
<text text-anchor="start" x="304.2" y="-1053.5" font-family="Helvetica,sans-Serif" font-size="20.00">+ Tratador()</text>
<text text-anchor="start" x="304.2" y="-1031.5" font-family="Helvetica,sans-Serif" font-size="20.00">+ Tratador()</text>
<text text-anchor="start" x="304.2" y="-1009.5" font-family="Helvetica,sans-Serif" font-size="20.00">+ ~Tratador()</text>
<text text-anchor="start" x="304.2" y="-987.5" font-family="Helvetica,sans-Serif" font-size="20.00">+ getUniforme()</text>
<text text-anchor="start" x="304.2" y="-965.5" font-family="Helvetica,sans-Serif" font-size="20.00">+ setUniforme()</text>
<text text-anchor="start" x="304.2" y="-943.5" font-family="Helvetica,sans-Serif" font-size="20.00">+ setUniforme()</text>
<text text-anchor="start" x="304.2" y="-921.5" font-family="Helvetica,sans-Serif" font-size="20.00">+ printOutDados()</text>
</a>
</g>
</g>
<!-- Node4&#45;&gt;Node3 -->
<g id="edge3" class="edge">
<title>Node4&#45;&gt;Node3</title>
<path fill="none" stroke="#404040" d="M337.43,-911.24C335.41,-905.17 333.64,-899.06 332.2,-893 330,-883.71 328.2,-874.15 326.75,-864.45"/>
<polygon fill="none" stroke="#404040" points="326.75,-864.44 321.99,-859.03 325.15,-852.55 329.92,-857.97 326.75,-864.44"/>
<text text-anchor="middle" x="383.7" y="-877" font-family="Helvetica,sans-Serif" font-size="20.00"> #tratador</text>
</g>
<!-- Node5 -->
<g id="node5" class="node">
<title>Node5</title>
<g id="a_node5"><a xlink:href="classPessoa.html" target="_top" xlink:title="Classe base dos funcionarios.">
<polygon fill="white" stroke="black" points="269.2,-1437.5 269.2,-1835.5 469.2,-1835.5 469.2,-1437.5 269.2,-1437.5"/>
<text text-anchor="middle" x="369.2" y="-1815.5" font-family="Helvetica,sans-Serif" font-size="20.00">Pessoa</text>
<polyline fill="none" stroke="black" points="269.2,-1805.5 469.2,-1805.5 "/>
<text text-anchor="middle" x="369.2" y="-1785.5" font-family="Helvetica,sans-Serif" font-size="20.00"> </text>
<polyline fill="none" stroke="black" points="269.2,-1775.5 469.2,-1775.5 "/>
<text text-anchor="start" x="277.2" y="-1755.5" font-family="Helvetica,sans-Serif" font-size="20.00">+ Pessoa()</text>
<text text-anchor="start" x="277.2" y="-1733.5" font-family="Helvetica,sans-Serif" font-size="20.00">+ Pessoa()</text>
<text text-anchor="start" x="277.2" y="-1711.5" font-family="Helvetica,sans-Serif" font-size="20.00">+ ~Pessoa()</text>
<text text-anchor="start" x="277.2" y="-1689.5" font-family="Helvetica,sans-Serif" font-size="20.00">+ getNome()</text>
<text text-anchor="start" x="277.2" y="-1667.5" font-family="Helvetica,sans-Serif" font-size="20.00">+ setNome()</text>
<text text-anchor="start" x="277.2" y="-1645.5" font-family="Helvetica,sans-Serif" font-size="20.00">+ setNome()</text>
<text text-anchor="start" x="277.2" y="-1623.5" font-family="Helvetica,sans-Serif" font-size="20.00">+ getTelefone()</text>
<text text-anchor="start" x="277.2" y="-1601.5" font-family="Helvetica,sans-Serif" font-size="20.00">+ setTelefone()</text>
<text text-anchor="start" x="277.2" y="-1579.5" font-family="Helvetica,sans-Serif" font-size="20.00">+ setTelefone()</text>
<text text-anchor="start" x="277.2" y="-1557.5" font-family="Helvetica,sans-Serif" font-size="20.00">+ getEmail()</text>
<text text-anchor="start" x="277.2" y="-1535.5" font-family="Helvetica,sans-Serif" font-size="20.00">+ setEmail()</text>
<text text-anchor="start" x="277.2" y="-1513.5" font-family="Helvetica,sans-Serif" font-size="20.00">+ setEmail()</text>
<text text-anchor="start" x="277.2" y="-1491.5" font-family="Helvetica,sans-Serif" font-size="20.00">+ printOutDados()</text>
<text text-anchor="start" x="277.2" y="-1469.5" font-family="Helvetica,sans-Serif" font-size="20.00">+ operator==()</text>
<text text-anchor="start" x="277.2" y="-1447.5" font-family="Helvetica,sans-Serif" font-size="20.00">+ operator==()</text>
</a>
</g>
</g>
<!-- Node5&#45;&gt;Node4 -->
<g id="edge4" class="edge">
<title>Node5&#45;&gt;Node4</title>
<path fill="none" stroke="midnightblue" d="M378.4,-1427.13C382.74,-1328.66 387.75,-1215.13 391.35,-1133.6"/>
<polygon fill="none" stroke="midnightblue" points="374.9,-1427.08 377.95,-1437.22 381.89,-1427.39 374.9,-1427.08"/>
</g>
<!-- Node9 -->
<g id="node9" class="node">
<title>Node9</title>
<g id="a_node9"><a xlink:href="classVeterinario.html" target="_top" xlink:title="Implementação dos veterinarios.">
<polygon fill="white" stroke="black" points="78.2,-911.5 78.2,-1133.5 278.2,-1133.5 278.2,-911.5 78.2,-911.5"/>
<text text-anchor="middle" x="178.2" y="-1113.5" font-family="Helvetica,sans-Serif" font-size="20.00">Veterinario</text>
<polyline fill="none" stroke="black" points="78.2,-1103.5 278.2,-1103.5 "/>
<text text-anchor="middle" x="178.2" y="-1083.5" font-family="Helvetica,sans-Serif" font-size="20.00"> </text>
<polyline fill="none" stroke="black" points="78.2,-1073.5 278.2,-1073.5 "/>
<text text-anchor="start" x="86.2" y="-1053.5" font-family="Helvetica,sans-Serif" font-size="20.00">+ Veterinario()</text>
<text text-anchor="start" x="86.2" y="-1031.5" font-family="Helvetica,sans-Serif" font-size="20.00">+ Veterinario()</text>
<text text-anchor="start" x="86.2" y="-1009.5" font-family="Helvetica,sans-Serif" font-size="20.00">+ ~Veterinario()</text>
<text text-anchor="start" x="86.2" y="-987.5" font-family="Helvetica,sans-Serif" font-size="20.00">+ getCRMV()</text>
<text text-anchor="start" x="86.2" y="-965.5" font-family="Helvetica,sans-Serif" font-size="20.00">+ setCRMV()</text>
<text text-anchor="start" x="86.2" y="-943.5" font-family="Helvetica,sans-Serif" font-size="20.00">+ setCRMV()</text>
<text text-anchor="start" x="86.2" y="-921.5" font-family="Helvetica,sans-Serif" font-size="20.00">+ printOutDados()</text>
</a>
</g>
</g>
<!-- Node5&#45;&gt;Node9 -->
<g id="edge10" class="edge">
<title>Node5&#45;&gt;Node9</title>
<path fill="none" stroke="midnightblue" d="M304.27,-1427.43C273.52,-1328.89 238.04,-1215.21 212.57,-1133.6"/>
<polygon fill="none" stroke="midnightblue" points="301,-1428.72 307.32,-1437.22 307.69,-1426.64 301,-1428.72"/>
</g>
<!-- Node6 -->
<g id="node6" class="node">
<title>Node6</title>
<g id="a_node6"><a xlink:title=" ">
<polygon fill="white" stroke="#bfbfbf" points="236.2,-1938.5 236.2,-2028.5 310.2,-2028.5 310.2,-1938.5 236.2,-1938.5"/>
<text text-anchor="middle" x="273.2" y="-2008.5" font-family="Helvetica,sans-Serif" font-size="20.00">string</text>
<polyline fill="none" stroke="#bfbfbf" points="236.2,-1998.5 310.2,-1998.5 "/>
<text text-anchor="middle" x="273.2" y="-1978.5" font-family="Helvetica,sans-Serif" font-size="20.00"> </text>
<polyline fill="none" stroke="#bfbfbf" points="236.2,-1968.5 310.2,-1968.5 "/>
<text text-anchor="middle" x="273.2" y="-1948.5" font-family="Helvetica,sans-Serif" font-size="20.00"> </text>
</a>
</g>
</g>
<!-- Node6&#45;&gt;Node3 -->
<g id="edge8" class="edge">
<title>Node6&#45;&gt;Node3</title>
<path fill="none" stroke="#404040" d="M236.08,-1961.5C220.07,-1950.85 202.29,-1936.64 190.2,-1920 -15.32,-1636.96 -18.2,-1499.89 18.2,-1152 29.6,-1043.11 15.45,-1006.38 69.2,-911 103.92,-849.4 159.32,-794.18 210.25,-751.79"/>
<polygon fill="none" stroke="#404040" points="210.43,-751.65 212.52,-744.75 219.7,-744.03 217.6,-750.93 210.43,-751.65"/>
<text text-anchor="middle" x="94.2" y="-1302.5" font-family="Helvetica,sans-Serif" font-size="20.00"> #especie</text>
<text text-anchor="middle" x="94.2" y="-1280.5" font-family="Helvetica,sans-Serif" font-size="20.00">#ameacadoPor</text>
<text text-anchor="middle" x="94.2" y="-1258.5" font-family="Helvetica,sans-Serif" font-size="20.00">#nome</text>
</g>
<!-- Node6&#45;&gt;Node5 -->
<g id="edge5" class="edge">
<title>Node6&#45;&gt;Node5</title>
<path fill="none" stroke="#404040" d="M285.46,-1938.46C292.25,-1914.06 301.24,-1881.75 310.81,-1847.36"/>
<polygon fill="none" stroke="#404040" points="310.86,-1847.18 308.61,-1840.33 314.07,-1835.62 316.32,-1842.47 310.86,-1847.18"/>
<text text-anchor="middle" x="355.7" y="-1904" font-family="Helvetica,sans-Serif" font-size="20.00"> #email</text>
<text text-anchor="middle" x="355.7" y="-1882" font-family="Helvetica,sans-Serif" font-size="20.00">#nome</text>
<text text-anchor="middle" x="355.7" y="-1860" font-family="Helvetica,sans-Serif" font-size="20.00">#telefone</text>
</g>
<!-- Node6&#45;&gt;Node9 -->
<g id="edge11" class="edge">
<title>Node6&#45;&gt;Node9</title>
<path fill="none" stroke="#404040" d="M239.11,-1938.45C219.82,-1910.72 197.55,-1873.23 187.2,-1836 169.3,-1771.54 172.99,-1356.5 176.1,-1145.82"/>
<polygon fill="none" stroke="#404040" points="176.1,-1145.78 172.19,-1139.72 176.28,-1133.78 180.19,-1139.84 176.1,-1145.78"/>
<text text-anchor="middle" x="223.7" y="-1631.5" font-family="Helvetica,sans-Serif" font-size="20.00"> &#45;CRMV</text>
</g>
<!-- Node10 -->
<g id="node10" class="node">
<title>Node10</title>
<g id="a_node10"><a xlink:href="classNativo.html" target="_top" xlink:title="Umas das definições de categoria para Animal.">
<polygon fill="white" stroke="black" points="606.2,-1152.5 606.2,-1418.5 768.2,-1418.5 768.2,-1152.5 606.2,-1152.5"/>
<text text-anchor="middle" x="687.2" y="-1398.5" font-family="Helvetica,sans-Serif" font-size="20.00">Nativo</text>
<polyline fill="none" stroke="black" points="606.2,-1388.5 768.2,-1388.5 "/>
<text text-anchor="middle" x="687.2" y="-1368.5" font-family="Helvetica,sans-Serif" font-size="20.00"> </text>
<polyline fill="none" stroke="black" points="606.2,-1358.5 768.2,-1358.5 "/>
<text text-anchor="start" x="614.2" y="-1338.5" font-family="Helvetica,sans-Serif" font-size="20.00">+ Nativo()</text>
<text text-anchor="start" x="614.2" y="-1316.5" font-family="Helvetica,sans-Serif" font-size="20.00">+ Nativo()</text>
<text text-anchor="start" x="614.2" y="-1294.5" font-family="Helvetica,sans-Serif" font-size="20.00">+ ~Nativo()</text>
<text text-anchor="start" x="614.2" y="-1272.5" font-family="Helvetica,sans-Serif" font-size="20.00">+ getRegiao()</text>
<text text-anchor="start" x="614.2" y="-1250.5" font-family="Helvetica,sans-Serif" font-size="20.00">+ setRegiao()</text>
<text text-anchor="start" x="614.2" y="-1228.5" font-family="Helvetica,sans-Serif" font-size="20.00">+ setRegiao()</text>
<text text-anchor="start" x="614.2" y="-1206.5" font-family="Helvetica,sans-Serif" font-size="20.00">+ getLicenca()</text>
<text text-anchor="start" x="614.2" y="-1184.5" font-family="Helvetica,sans-Serif" font-size="20.00">+ setLicenca()</text>
<text text-anchor="start" x="614.2" y="-1162.5" font-family="Helvetica,sans-Serif" font-size="20.00">+ setLicenca()</text>
</a>
</g>
</g>
<!-- Node6&#45;&gt;Node10 -->
<g id="edge14" class="edge">
<title>Node6&#45;&gt;Node10</title>
<path fill="none" stroke="#404040" d="M310.25,-1977.67C379.88,-1966.5 529.86,-1932.01 603.2,-1836 691.35,-1720.61 704.9,-1551.05 701.09,-1430.85"/>
<polygon fill="none" stroke="#404040" points="701.08,-1430.63 696.86,-1424.79 700.64,-1418.64 704.86,-1424.49 701.08,-1430.63"/>
<text text-anchor="middle" x="632.7" y="-1893" font-family="Helvetica,sans-Serif" font-size="20.00"> #licenca</text>
<text text-anchor="middle" x="632.7" y="-1871" font-family="Helvetica,sans-Serif" font-size="20.00">#regiao</text>
</g>
<!-- Node7 -->
<g id="node7" class="node">
<title>Node7</title>
<g id="a_node7"><a xlink:title=" ">
<polygon fill="white" stroke="#bfbfbf" points="487.7,-1591.5 487.7,-1681.5 594.7,-1681.5 594.7,-1591.5 487.7,-1591.5"/>
<text text-anchor="middle" x="541.2" y="-1661.5" font-family="Helvetica,sans-Serif" font-size="20.00">Uniforme</text>
<polyline fill="none" stroke="#bfbfbf" points="487.7,-1651.5 594.7,-1651.5 "/>
<text text-anchor="middle" x="541.2" y="-1631.5" font-family="Helvetica,sans-Serif" font-size="20.00"> </text>
<polyline fill="none" stroke="#bfbfbf" points="487.7,-1621.5 594.7,-1621.5 "/>
<text text-anchor="middle" x="541.2" y="-1601.5" font-family="Helvetica,sans-Serif" font-size="20.00"> </text>
</a>
</g>
</g>
<!-- Node7&#45;&gt;Node4 -->
<g id="edge6" class="edge">
<title>Node7&#45;&gt;Node4</title>
<path fill="none" stroke="#404040" d="M530.78,-1591.49C508.93,-1499.28 457.69,-1282.99 425.11,-1145.52"/>
<polygon fill="none" stroke="#404040" points="425.08,-1145.38 419.81,-1140.46 422.31,-1133.7 427.59,-1138.62 425.08,-1145.38"/>
<text text-anchor="middle" x="537.7" y="-1280.5" font-family="Helvetica,sans-Serif" font-size="20.00"> &#45;uniforme</text>
</g>
<!-- Node8 -->
<g id="node8" class="node">
<title>Node8</title>
<g id="a_node8"><a xlink:title=" ">
<polygon fill="white" stroke="#bfbfbf" points="533.7,-977.5 533.7,-1067.5 592.7,-1067.5 592.7,-977.5 533.7,-977.5"/>
<text text-anchor="middle" x="563.2" y="-1047.5" font-family="Helvetica,sans-Serif" font-size="20.00">bool</text>
<polyline fill="none" stroke="#bfbfbf" points="533.7,-1037.5 592.7,-1037.5 "/>
<text text-anchor="middle" x="563.2" y="-1017.5" font-family="Helvetica,sans-Serif" font-size="20.00"> </text>
<polyline fill="none" stroke="#bfbfbf" points="533.7,-1007.5 592.7,-1007.5 "/>
<text text-anchor="middle" x="563.2" y="-987.5" font-family="Helvetica,sans-Serif" font-size="20.00"> </text>
</a>
</g>
</g>
<!-- Node8&#45;&gt;Node2 -->
<g id="edge12" class="edge">
<title>Node8&#45;&gt;Node2</title>
<path fill="none" stroke="#404040" d="M564.65,-977.49C565.45,-952.68 566.43,-921.11 567.2,-893 571.35,-742.15 575.39,-569.46 578.05,-450.73"/>
<polygon fill="none" stroke="#404040" points="578.05,-450.69 574.19,-444.61 578.32,-438.7 582.19,-444.78 578.05,-450.69"/>
<text text-anchor="middle" x="617.2" y="-670.5" font-family="Helvetica,sans-Serif" font-size="20.00"> #pata</text>
<text text-anchor="middle" x="617.2" y="-648.5" font-family="Helvetica,sans-Serif" font-size="20.00">#cauda</text>
</g>
<!-- Node8&#45;&gt;Node3 -->
<g id="edge7" class="edge">
<title>Node8&#45;&gt;Node3</title>
<path fill="none" stroke="#404040" d="M548.64,-977.35C539.29,-954.9 525.12,-928.7 505.2,-911 488.49,-896.14 475.11,-907.64 458.2,-893 447.45,-883.69 437.42,-873.23 428.11,-862.05"/>
<polygon fill="none" stroke="#404040" points="427.95,-861.86 421.08,-859.68 420.45,-852.5 427.32,-854.68 427.95,-861.86"/>
<text text-anchor="middle" x="512.7" y="-877" font-family="Helvetica,sans-Serif" font-size="20.00"> #perigoso</text>
</g>
<!-- Node9&#45;&gt;Node3 -->
<g id="edge9" class="edge">
<title>Node9&#45;&gt;Node3</title>
<path fill="none" stroke="#404040" d="M184.56,-911.19C187.13,-897.42 190.58,-883.73 195.2,-871 200.42,-856.66 206.81,-842.33 213.97,-828.28"/>
<polygon fill="none" stroke="#404040" points="214,-828.22 213.25,-821.05 219.58,-817.6 220.33,-824.77 214,-828.22"/>
<text text-anchor="middle" x="260.2" y="-877" font-family="Helvetica,sans-Serif" font-size="20.00"> #veterinario</text>
</g>
<!-- Node10&#45;&gt;Node1 -->
<g id="edge13" class="edge">
<title>Node10&#45;&gt;Node1</title>
<path fill="none" stroke="midnightblue" d="M687.2,-1142.27C687.2,-1065.49 687.2,-969.06 687.2,-883 687.2,-883 687.2,-883 687.2,-304.5 687.2,-246.13 671.58,-181.57 657.3,-134.75"/>
<polygon fill="none" stroke="midnightblue" points="683.7,-1142.49 687.2,-1152.49 690.7,-1142.49 683.7,-1142.49"/>
</g>
</g>
</svg>
