<?xml version="1.0" encoding="UTF-8" standalone="no"?>
<!DOCTYPE svg PUBLIC "-//W3C//DTD SVG 1.1//EN"
 "http://www.w3.org/Graphics/SVG/1.1/DTD/svg11.dtd">
<!-- Generated by graphviz version 2.43.0 (0)
 -->
<!-- Title: ReptilDomestico Pages: 1 -->
<!--zoomable 1882 -->
<svg id="main" version="1.1" xmlns="http://www.w3.org/2000/svg" xmlns:xlink="http://www.w3.org/1999/xlink" xml:space="preserve" onload="init(evt)">
<style type="text/css"><![CDATA[
.edge:hover path { stroke: red; }
.edge:hover polygon { stroke: red; fill: red; }
]]></style>
<script type="text/javascript"><![CDATA[
var edges = document.getElementsByTagName('g');
if (edges && edges.length) {
  for (var i=0;i<edges.length;i++) {
    if (edges[i].id.substr(0,4)=='edge') {
      edges[i].setAttribute('class','edge');
    }
  }
}
]]></script>
        <defs>
                <circle id="rim" cx="0" cy="0" r="7"/>
                <circle id="rim2" cx="0" cy="0" r="3.5"/>
                <g id="zoomPlus">
                        <use xlink:href="#rim" fill="#404040">
                                <set attributeName="fill" to="#808080" begin="zoomplus.mouseover" end="zoomplus.mouseout"/>
                        </use>
                        <path d="M-4,0h8M0,-4v8" fill="none" stroke="white" stroke-width="1.5" pointer-events="none"/>
                </g>
                <g id="zoomMin">
                        <use xlink:href="#rim" fill="#404040">
                                <set attributeName="fill" to="#808080" begin="zoomminus.mouseover" end="zoomminus.mouseout"/>
                        </use>
                        <path d="M-4,0h8" fill="none" stroke="white" stroke-width="1.5" pointer-events="none"/>
                </g>
                <g id="dirArrow">
                        <path fill="none" stroke="white" stroke-width="1.5" d="M0,-3.0v7 M-2.5,-0.5L0,-3.0L2.5,-0.5"/>
                </g>
               <g id="resetDef">
                       <use xlink:href="#rim2" fill="#404040">
                               <set attributeName="fill" to="#808080" begin="reset.mouseover" end="reset.mouseout"/>
                       </use>
               </g>
        </defs>

<script type="text/javascript">
var viewWidth = 793;
var viewHeight = 1882;
var sectionId = 'dynsection-1';
</script>
<script xlink:href="svgpan.js"/>
<svg id="graph" class="graph">
<g id="viewport">
<title>ReptilDomestico</title>
<polygon fill="white" stroke="transparent" points="-4,4 -4,-1878 789.35,-1878 789.35,4 -4,4"/>
<!-- Node1 -->
<g id="node1" class="node">
<title>Node1</title>
<g id="a_node1"><a xlink:title="Implementação de animal com Classe e Categoria.">
<polygon fill="#bfbfbf" stroke="black" points="493.35,-0.5 493.35,-134.5 725.35,-134.5 725.35,-0.5 493.35,-0.5"/>
<text text-anchor="middle" x="609.35" y="-114.5" font-family="Helvetica,sans-Serif" font-size="20.00">ReptilDomestico</text>
<polyline fill="none" stroke="black" points="493.35,-104.5 725.35,-104.5 "/>
<text text-anchor="middle" x="609.35" y="-84.5" font-family="Helvetica,sans-Serif" font-size="20.00"> </text>
<polyline fill="none" stroke="black" points="493.35,-74.5 725.35,-74.5 "/>
<text text-anchor="start" x="501.35" y="-54.5" font-family="Helvetica,sans-Serif" font-size="20.00">+ ReptilDomestico()</text>
<text text-anchor="start" x="501.35" y="-32.5" font-family="Helvetica,sans-Serif" font-size="20.00">+ ReptilDomestico()</text>
<text text-anchor="start" x="501.35" y="-10.5" font-family="Helvetica,sans-Serif" font-size="20.00">+ ~ReptilDomestico()</text>
</a>
</g>
</g>
<!-- Node2 -->
<g id="node2" class="node">
<title>Node2</title>
<g id="a_node2"><a xlink:href="classReptil.html" target="_top" xlink:title="Classificação base para Repteis.">
<polygon fill="white" stroke="black" points="463.85,-172.5 463.85,-372.5 590.85,-372.5 590.85,-172.5 463.85,-172.5"/>
<text text-anchor="middle" x="527.35" y="-352.5" font-family="Helvetica,sans-Serif" font-size="20.00">Reptil</text>
<polyline fill="none" stroke="black" points="463.85,-342.5 590.85,-342.5 "/>
<text text-anchor="middle" x="527.35" y="-322.5" font-family="Helvetica,sans-Serif" font-size="20.00"> </text>
<polyline fill="none" stroke="black" points="463.85,-312.5 590.85,-312.5 "/>
<text text-anchor="start" x="471.85" y="-292.5" font-family="Helvetica,sans-Serif" font-size="20.00">+ Reptil()</text>
<text text-anchor="start" x="471.85" y="-270.5" font-family="Helvetica,sans-Serif" font-size="20.00">+ Reptil()</text>
<text text-anchor="start" x="471.85" y="-248.5" font-family="Helvetica,sans-Serif" font-size="20.00">+ ~Reptil()</text>
<text text-anchor="start" x="471.85" y="-226.5" font-family="Helvetica,sans-Serif" font-size="20.00">+ getPele()</text>
<text text-anchor="start" x="471.85" y="-204.5" font-family="Helvetica,sans-Serif" font-size="20.00">+ setPele()</text>
<text text-anchor="start" x="471.85" y="-182.5" font-family="Helvetica,sans-Serif" font-size="20.00">+ setPele()</text>
</a>
</g>
</g>
<!-- Node2&#45;&gt;Node1 -->
<g id="edge1" class="edge">
<title>Node2&#45;&gt;Node1</title>
<path fill="none" stroke="midnightblue" d="M571.14,-163.09C575.05,-153.43 578.92,-143.84 582.61,-134.69"/>
<polygon fill="none" stroke="midnightblue" points="567.89,-161.8 567.39,-172.38 574.38,-164.42 567.89,-161.8"/>
</g>
<!-- Node3 -->
<g id="node3" class="node">
<title>Node3</title>
<g id="a_node3"><a xlink:href="classAnimal.html" target="_top" xlink:title="Implementação base para o cadastro de animais.">
<polygon fill="white" stroke="black" points="261.85,-610.5 261.85,-920.5 484.85,-920.5 484.85,-610.5 261.85,-610.5"/>
<text text-anchor="middle" x="373.35" y="-900.5" font-family="Helvetica,sans-Serif" font-size="20.00">Animal</text>
<polyline fill="none" stroke="black" points="261.85,-890.5 484.85,-890.5 "/>
<text text-anchor="middle" x="373.35" y="-870.5" font-family="Helvetica,sans-Serif" font-size="20.00"> </text>
<polyline fill="none" stroke="black" points="261.85,-860.5 484.85,-860.5 "/>
<text text-anchor="start" x="269.85" y="-840.5" font-family="Helvetica,sans-Serif" font-size="20.00">+ Animal()</text>
<text text-anchor="start" x="269.85" y="-818.5" font-family="Helvetica,sans-Serif" font-size="20.00">+ Animal()</text>
<text text-anchor="start" x="269.85" y="-796.5" font-family="Helvetica,sans-Serif" font-size="20.00">+ ~Animal()</text>
<text text-anchor="start" x="269.85" y="-774.5" font-family="Helvetica,sans-Serif" font-size="20.00">+ getNome()</text>
<text text-anchor="start" x="269.85" y="-752.5" font-family="Helvetica,sans-Serif" font-size="20.00">+ getEspecie()</text>
<text text-anchor="start" x="269.85" y="-730.5" font-family="Helvetica,sans-Serif" font-size="20.00">+ getAmeacadoPor()</text>
<text text-anchor="start" x="269.85" y="-708.5" font-family="Helvetica,sans-Serif" font-size="20.00">+ getVeterinario()</text>
<text text-anchor="start" x="269.85" y="-686.5" font-family="Helvetica,sans-Serif" font-size="20.00">+ getTratador()</text>
<text text-anchor="start" x="269.85" y="-664.5" font-family="Helvetica,sans-Serif" font-size="20.00">+ getPerigoso()</text>
<text text-anchor="start" x="269.85" y="-642.5" font-family="Helvetica,sans-Serif" font-size="20.00">+ setNome()</text>
<text text-anchor="start" x="269.85" y="-620.5" font-family="Helvetica,sans-Serif" font-size="20.00">e 15 mais...</text>
</a>
</g>
</g>
<!-- Node3&#45;&gt;Node2 -->
<g id="edge2" class="edge">
<title>Node3&#45;&gt;Node2</title>
<path fill="none" stroke="midnightblue" d="M424.67,-600.87C448.35,-525.37 475.69,-438.21 496.2,-372.81"/>
<polygon fill="none" stroke="midnightblue" points="421.31,-599.9 421.66,-610.49 427.99,-602 421.31,-599.9"/>
</g>
<!-- Node4 -->
<g id="node4" class="node">
<title>Node4</title>
<g id="a_node4"><a xlink:href="classTratador.html" target="_top" xlink:title="Implementação dos tratadores.">
<polygon fill="white" stroke="black" points="273.35,-979.5 273.35,-1201.5 473.35,-1201.5 473.35,-979.5 273.35,-979.5"/>
<text text-anchor="middle" x="373.35" y="-1181.5" font-family="Helvetica,sans-Serif" font-size="20.00">Tratador</text>
<polyline fill="none" stroke="black" points="273.35,-1171.5 473.35,-1171.5 "/>
<text text-anchor="middle" x="373.35" y="-1151.5" font-family="Helvetica,sans-Serif" font-size="20.00"> </text>
<polyline fill="none" stroke="black" points="273.35,-1141.5 473.35,-1141.5 "/>
<text text-anchor="start" x="281.35" y="-1121.5" font-family="Helvetica,sans-Serif" font-size="20.00">+ Tratador()</text>
<text text-anchor="start" x="281.35" y="-1099.5" font-family="Helvetica,sans-Serif" font-size="20.00">+ Tratador()</text>
<text text-anchor="start" x="281.35" y="-1077.5" font-family="Helvetica,sans-Serif" font-size="20.00">+ ~Tratador()</text>
<text text-anchor="start" x="281.35" y="-1055.5" font-family="Helvetica,sans-Serif" font-size="20.00">+ getUniforme()</text>
<text text-anchor="start" x="281.35" y="-1033.5" font-family="Helvetica,sans-Serif" font-size="20.00">+ setUniforme()</text>
<text text-anchor="start" x="281.35" y="-1011.5" font-family="Helvetica,sans-Serif" font-size="20.00">+ setUniforme()</text>
<text text-anchor="start" x="281.35" y="-989.5" font-family="Helvetica,sans-Serif" font-size="20.00">+ printOutDados()</text>
</a>
</g>
</g>
<!-- Node4&#45;&gt;Node3 -->
<g id="edge3" class="edge">
<title>Node4&#45;&gt;Node3</title>
<path fill="none" stroke="#404040" d="M373.35,-979.25C373.35,-964.17 373.35,-948.43 373.35,-932.64"/>
<polygon fill="none" stroke="#404040" points="373.35,-932.56 369.35,-926.56 373.35,-920.56 377.35,-926.56 373.35,-932.56"/>
<text text-anchor="middle" x="424.85" y="-945" font-family="Helvetica,sans-Serif" font-size="20.00"> #tratador</text>
</g>
<!-- Node5 -->
<g id="node5" class="node">
<title>Node5</title>
<g id="a_node5"><a xlink:href="classPessoa.html" target="_top" xlink:title="Classe base dos funcionarios.">
<polygon fill="white" stroke="black" points="125.35,-1304.5 125.35,-1680.5 325.35,-1680.5 325.35,-1304.5 125.35,-1304.5"/>
<text text-anchor="middle" x="225.35" y="-1660.5" font-family="Helvetica,sans-Serif" font-size="20.00">Pessoa</text>
<polyline fill="none" stroke="black" points="125.35,-1650.5 325.35,-1650.5 "/>
<text text-anchor="middle" x="225.35" y="-1630.5" font-family="Helvetica,sans-Serif" font-size="20.00"> </text>
<polyline fill="none" stroke="black" points="125.35,-1620.5 325.35,-1620.5 "/>
<text text-anchor="start" x="133.35" y="-1600.5" font-family="Helvetica,sans-Serif" font-size="20.00">+ Pessoa()</text>
<text text-anchor="start" x="133.35" y="-1578.5" font-family="Helvetica,sans-Serif" font-size="20.00">+ Pessoa()</text>
<text text-anchor="start" x="133.35" y="-1556.5" font-family="Helvetica,sans-Serif" font-size="20.00">+ ~Pessoa()</text>
<text text-anchor="start" x="133.35" y="-1534.5" font-family="Helvetica,sans-Serif" font-size="20.00">+ getNome()</text>
<text text-anchor="start" x="133.35" y="-1512.5" font-family="Helvetica,sans-Serif" font-size="20.00">+ setNome()</text>
<text text-anchor="start" x="133.35" y="-1490.5" font-family="Helvetica,sans-Serif" font-size="20.00">+ setNome()</text>
<text text-anchor="start" x="133.35" y="-1468.5" font-family="Helvetica,sans-Serif" font-size="20.00">+ getTelefone()</text>
<text text-anchor="start" x="133.35" y="-1446.5" font-family="Helvetica,sans-Serif" font-size="20.00">+ setTelefone()</text>
<text text-anchor="start" x="133.35" y="-1424.5" font-family="Helvetica,sans-Serif" font-size="20.00">+ setTelefone()</text>
<text text-anchor="start" x="133.35" y="-1402.5" font-family="Helvetica,sans-Serif" font-size="20.00">+ getEmail()</text>
<text text-anchor="start" x="133.35" y="-1380.5" font-family="Helvetica,sans-Serif" font-size="20.00">+ setEmail()</text>
<text text-anchor="start" x="133.35" y="-1358.5" font-family="Helvetica,sans-Serif" font-size="20.00">+ setEmail()</text>
<text text-anchor="start" x="133.35" y="-1336.5" font-family="Helvetica,sans-Serif" font-size="20.00">+ printOutDados()</text>
<text text-anchor="start" x="133.35" y="-1314.5" font-family="Helvetica,sans-Serif" font-size="20.00">+ operator==()</text>
</a>
</g>
</g>
<!-- Node5&#45;&gt;Node4 -->
<g id="edge4" class="edge">
<title>Node5&#45;&gt;Node4</title>
<path fill="none" stroke="midnightblue" d="M298.1,-1294.89C309.96,-1262.82 321.87,-1230.63 332.6,-1201.63"/>
<polygon fill="none" stroke="midnightblue" points="294.77,-1293.79 294.58,-1304.38 301.34,-1296.22 294.77,-1293.79"/>
</g>
<!-- Node9 -->
<g id="node9" class="node">
<title>Node9</title>
<g id="a_node9"><a xlink:href="classVeterinario.html" target="_top" xlink:title="Implementação dos veterinarios.">
<polygon fill="white" stroke="black" points="55.35,-979.5 55.35,-1201.5 255.35,-1201.5 255.35,-979.5 55.35,-979.5"/>
<text text-anchor="middle" x="155.35" y="-1181.5" font-family="Helvetica,sans-Serif" font-size="20.00">Veterinario</text>
<polyline fill="none" stroke="black" points="55.35,-1171.5 255.35,-1171.5 "/>
<text text-anchor="middle" x="155.35" y="-1151.5" font-family="Helvetica,sans-Serif" font-size="20.00"> </text>
<polyline fill="none" stroke="black" points="55.35,-1141.5 255.35,-1141.5 "/>
<text text-anchor="start" x="63.35" y="-1121.5" font-family="Helvetica,sans-Serif" font-size="20.00">+ Veterinario()</text>
<text text-anchor="start" x="63.35" y="-1099.5" font-family="Helvetica,sans-Serif" font-size="20.00">+ Veterinario()</text>
<text text-anchor="start" x="63.35" y="-1077.5" font-family="Helvetica,sans-Serif" font-size="20.00">+ ~Veterinario()</text>
<text text-anchor="start" x="63.35" y="-1055.5" font-family="Helvetica,sans-Serif" font-size="20.00">+ getCRMV()</text>
<text text-anchor="start" x="63.35" y="-1033.5" font-family="Helvetica,sans-Serif" font-size="20.00">+ setCRMV()</text>
<text text-anchor="start" x="63.35" y="-1011.5" font-family="Helvetica,sans-Serif" font-size="20.00">+ setCRMV()</text>
<text text-anchor="start" x="63.35" y="-989.5" font-family="Helvetica,sans-Serif" font-size="20.00">+ printOutDados()</text>
</a>
</g>
</g>
<!-- Node5&#45;&gt;Node9 -->
<g id="edge10" class="edge">
<title>Node5&#45;&gt;Node9</title>
<path fill="none" stroke="midnightblue" d="M190.87,-1294.48C185.28,-1262.55 179.68,-1230.51 174.62,-1201.63"/>
<polygon fill="none" stroke="midnightblue" points="187.43,-1295.14 192.61,-1304.38 194.33,-1293.93 187.43,-1295.14"/>
</g>
<!-- Node6 -->
<g id="node6" class="node">
<title>Node6</title>
<g id="a_node6"><a xlink:title=" ">
<polygon fill="white" stroke="#bfbfbf" points="188.35,-1783.5 188.35,-1873.5 262.35,-1873.5 262.35,-1783.5 188.35,-1783.5"/>
<text text-anchor="middle" x="225.35" y="-1853.5" font-family="Helvetica,sans-Serif" font-size="20.00">string</text>
<polyline fill="none" stroke="#bfbfbf" points="188.35,-1843.5 262.35,-1843.5 "/>
<text text-anchor="middle" x="225.35" y="-1823.5" font-family="Helvetica,sans-Serif" font-size="20.00"> </text>
<polyline fill="none" stroke="#bfbfbf" points="188.35,-1813.5 262.35,-1813.5 "/>
<text text-anchor="middle" x="225.35" y="-1793.5" font-family="Helvetica,sans-Serif" font-size="20.00"> </text>
</a>
</g>
</g>
<!-- Node6&#45;&gt;Node3 -->
<g id="edge8" class="edge">
<title>Node6&#45;&gt;Node3</title>
<path fill="none" stroke="#404040" d="M262.56,-1816.43C316.72,-1798.12 415.57,-1755.89 459.35,-1681 625.86,-1396.19 578.66,-1253.92 480.35,-939 479.63,-936.7 478.88,-934.4 478.08,-932.09"/>
<polygon fill="none" stroke="#404040" points="478,-931.86 472.17,-927.62 473.84,-920.61 479.67,-924.85 478,-931.86"/>
<text text-anchor="middle" x="642.35" y="-1270" font-family="Helvetica,sans-Serif" font-size="20.00"> #especie</text>
<text text-anchor="middle" x="642.35" y="-1248" font-family="Helvetica,sans-Serif" font-size="20.00">#ameacadoPor</text>
<text text-anchor="middle" x="642.35" y="-1226" font-family="Helvetica,sans-Serif" font-size="20.00">#nome</text>
</g>
<!-- Node6&#45;&gt;Node5 -->
<g id="edge5" class="edge">
<title>Node6&#45;&gt;Node5</title>
<path fill="none" stroke="#404040" d="M225.35,-1783.49C225.35,-1759.09 225.35,-1726.83 225.35,-1692.7"/>
<polygon fill="none" stroke="#404040" points="225.35,-1692.56 221.35,-1686.56 225.35,-1680.56 229.35,-1686.56 225.35,-1692.56"/>
<text text-anchor="middle" x="273.85" y="-1749" font-family="Helvetica,sans-Serif" font-size="20.00"> #email</text>
<text text-anchor="middle" x="273.85" y="-1727" font-family="Helvetica,sans-Serif" font-size="20.00">#nome</text>
<text text-anchor="middle" x="273.85" y="-1705" font-family="Helvetica,sans-Serif" font-size="20.00">#telefone</text>
</g>
<!-- Node6&#45;&gt;Node9 -->
<g id="edge11" class="edge">
<title>Node6&#45;&gt;Node9</title>
<path fill="none" stroke="#404040" d="M188,-1810.27C144.03,-1787.65 73.22,-1743.38 43.35,-1681 -29,-1529.87 3.11,-1466.65 43.35,-1304 51.03,-1272.95 64.17,-1241.43 78.79,-1212.51"/>
<polygon fill="none" stroke="#404040" points="78.95,-1212.21 78.15,-1205.05 84.46,-1201.56 85.26,-1208.73 78.95,-1212.21"/>
<text text-anchor="middle" x="79.85" y="-1487.5" font-family="Helvetica,sans-Serif" font-size="20.00"> &#45;CRMV</text>
</g>
<!-- Node7 -->
<g id="node7" class="node">
<title>Node7</title>
<g id="a_node7"><a xlink:title=" ">
<polygon fill="white" stroke="#bfbfbf" points="343.85,-1447.5 343.85,-1537.5 450.85,-1537.5 450.85,-1447.5 343.85,-1447.5"/>
<text text-anchor="middle" x="397.35" y="-1517.5" font-family="Helvetica,sans-Serif" font-size="20.00">Uniforme</text>
<polyline fill="none" stroke="#bfbfbf" points="343.85,-1507.5 450.85,-1507.5 "/>
<text text-anchor="middle" x="397.35" y="-1487.5" font-family="Helvetica,sans-Serif" font-size="20.00"> </text>
<polyline fill="none" stroke="#bfbfbf" points="343.85,-1477.5 450.85,-1477.5 "/>
<text text-anchor="middle" x="397.35" y="-1457.5" font-family="Helvetica,sans-Serif" font-size="20.00"> </text>
</a>
</g>
</g>
<!-- Node7&#45;&gt;Node4 -->
<g id="edge6" class="edge">
<title>Node7&#45;&gt;Node4</title>
<path fill="none" stroke="#404040" d="M391.74,-1447.49C386.71,-1405.94 379.63,-1341.85 376.35,-1286 374.98,-1262.64 374.13,-1237.67 373.62,-1213.69"/>
<polygon fill="none" stroke="#404040" points="373.62,-1213.62 369.51,-1207.7 373.39,-1201.62 377.51,-1207.55 373.62,-1213.62"/>
<text text-anchor="middle" x="427.85" y="-1248" font-family="Helvetica,sans-Serif" font-size="20.00"> &#45;uniforme</text>
</g>
<!-- Node8 -->
<g id="node8" class="node">
<title>Node8</title>
<g id="a_node8"><a xlink:title=" ">
<polygon fill="white" stroke="#bfbfbf" points="582.85,-1045.5 582.85,-1135.5 641.85,-1135.5 641.85,-1045.5 582.85,-1045.5"/>
<text text-anchor="middle" x="612.35" y="-1115.5" font-family="Helvetica,sans-Serif" font-size="20.00">bool</text>
<polyline fill="none" stroke="#bfbfbf" points="582.85,-1105.5 641.85,-1105.5 "/>
<text text-anchor="middle" x="612.35" y="-1085.5" font-family="Helvetica,sans-Serif" font-size="20.00"> </text>
<polyline fill="none" stroke="#bfbfbf" points="582.85,-1075.5 641.85,-1075.5 "/>
<text text-anchor="middle" x="612.35" y="-1055.5" font-family="Helvetica,sans-Serif" font-size="20.00"> </text>
</a>
</g>
</g>
<!-- Node8&#45;&gt;Node3 -->
<g id="edge7" class="edge">
<title>Node8&#45;&gt;Node3</title>
<path fill="none" stroke="#404040" d="M588.47,-1045.34C570.48,-1014.03 544.06,-971.91 515.35,-939 507.27,-929.74 502.85,-929.88 494.35,-921 494.06,-920.7 493.78,-920.4 493.49,-920.1"/>
<polygon fill="none" stroke="#404040" points="493.36,-919.96 486.34,-918.31 485.17,-911.19 492.19,-912.85 493.36,-919.96"/>
<text text-anchor="middle" x="584.85" y="-945" font-family="Helvetica,sans-Serif" font-size="20.00"> #perigoso</text>
</g>
<!-- Node11 -->
<g id="node11" class="node">
<title>Node11</title>
<g id="a_node11"><a xlink:href="classDomestico.html" target="_top" xlink:title="Umas das definições de categoria para Animal.">
<polygon fill="white" stroke="black" points="597.35,-391.5 597.35,-591.5 785.35,-591.5 785.35,-391.5 597.35,-391.5"/>
<text text-anchor="middle" x="691.35" y="-571.5" font-family="Helvetica,sans-Serif" font-size="20.00">Domestico</text>
<polyline fill="none" stroke="black" points="597.35,-561.5 785.35,-561.5 "/>
<text text-anchor="middle" x="691.35" y="-541.5" font-family="Helvetica,sans-Serif" font-size="20.00"> </text>
<polyline fill="none" stroke="black" points="597.35,-531.5 785.35,-531.5 "/>
<text text-anchor="start" x="605.35" y="-511.5" font-family="Helvetica,sans-Serif" font-size="20.00">+ Domestico()</text>
<text text-anchor="start" x="605.35" y="-489.5" font-family="Helvetica,sans-Serif" font-size="20.00">+ Domestico()</text>
<text text-anchor="start" x="605.35" y="-467.5" font-family="Helvetica,sans-Serif" font-size="20.00">+ ~Domestico()</text>
<text text-anchor="start" x="605.35" y="-445.5" font-family="Helvetica,sans-Serif" font-size="20.00">+ getAdestrado()</text>
<text text-anchor="start" x="605.35" y="-423.5" font-family="Helvetica,sans-Serif" font-size="20.00">+ setAdestrado()</text>
<text text-anchor="start" x="605.35" y="-401.5" font-family="Helvetica,sans-Serif" font-size="20.00">+ setAdestrado()</text>
</a>
</g>
</g>
<!-- Node8&#45;&gt;Node11 -->
<g id="edge14" class="edge">
<title>Node8&#45;&gt;Node11</title>
<path fill="none" stroke="#404040" d="M624.52,-1045.5C630.95,-1020.83 638.5,-989.39 643.35,-961 664.11,-839.66 677.05,-699 684.19,-603.71"/>
<polygon fill="none" stroke="#404040" points="684.19,-603.7 680.65,-597.42 685.08,-591.74 688.62,-598.01 684.19,-603.7"/>
<text text-anchor="middle" x="706.85" y="-945" font-family="Helvetica,sans-Serif" font-size="20.00"> #adestrado</text>
</g>
<!-- Node9&#45;&gt;Node3 -->
<g id="edge9" class="edge">
<title>Node9&#45;&gt;Node3</title>
<path fill="none" stroke="#404040" d="M214.24,-979.42C222.36,-965.62 230.84,-951.85 239.35,-939 244.23,-931.63 249.32,-924.18 254.56,-916.72"/>
<polygon fill="none" stroke="#404040" points="254.58,-916.69 254.79,-909.48 261.53,-906.91 261.32,-914.11 254.58,-916.69"/>
<text text-anchor="middle" x="304.35" y="-945" font-family="Helvetica,sans-Serif" font-size="20.00"> #veterinario</text>
</g>
<!-- Node10 -->
<g id="node10" class="node">
<title>Node10</title>
<g id="a_node10"><a xlink:title=" ">
<polygon fill="white" stroke="#bfbfbf" points="502.85,-720.5 502.85,-810.5 559.85,-810.5 559.85,-720.5 502.85,-720.5"/>
<text text-anchor="middle" x="531.35" y="-790.5" font-family="Helvetica,sans-Serif" font-size="20.00">Pele</text>
<polyline fill="none" stroke="#bfbfbf" points="502.85,-780.5 559.85,-780.5 "/>
<text text-anchor="middle" x="531.35" y="-760.5" font-family="Helvetica,sans-Serif" font-size="20.00"> </text>
<polyline fill="none" stroke="#bfbfbf" points="502.85,-750.5 559.85,-750.5 "/>
<text text-anchor="middle" x="531.35" y="-730.5" font-family="Helvetica,sans-Serif" font-size="20.00"> </text>
</a>
</g>
</g>
<!-- Node10&#45;&gt;Node2 -->
<g id="edge12" class="edge">
<title>Node10&#45;&gt;Node2</title>
<path fill="none" stroke="#404040" d="M528.73,-720.2C526.81,-685.37 524.36,-635.61 523.35,-592 521.28,-502.69 521.83,-480.32 523.35,-391 523.39,-388.93 523.42,-386.84 523.47,-384.74"/>
<polygon fill="none" stroke="#404040" points="523.47,-384.54 519.61,-378.45 523.74,-372.54 527.6,-378.63 523.47,-384.54"/>
<text text-anchor="middle" x="555.85" y="-486.5" font-family="Helvetica,sans-Serif" font-size="20.00"> #pele</text>
</g>
<!-- Node11&#45;&gt;Node1 -->
<g id="edge13" class="edge">
<title>Node11&#45;&gt;Node1</title>
<path fill="none" stroke="midnightblue" d="M670.15,-381.41C654.97,-303.26 635.01,-200.56 622.18,-134.54"/>
<polygon fill="none" stroke="midnightblue" points="666.73,-382.14 672.07,-391.29 673.6,-380.81 666.73,-382.14"/>
</g>
</g>
</svg>
        <g id="navigator" transform="translate(0 0)" fill="#404254">
                <rect fill="#f2f5e9" fill-opacity="0.5" stroke="#606060" stroke-width=".5" x="0" y="0" width="60" height="60"/>
                <use id="zoomplus" xlink:href="#zoomPlus" x="17" y="9" onmousedown="handleZoom(evt,'in')"/>
                <use id="zoomminus" xlink:href="#zoomMin" x="42" y="9" onmousedown="handleZoom(evt,'out')"/>
                <use id="reset" xlink:href="#resetDef" x="30" y="36" onmousedown="handleReset()"/>
                <g id="arrowUp" xlink:href="#dirArrow" transform="translate(30 24)" onmousedown="handlePan(0,-1)">
                  <use xlink:href="#rim" fill="#404040">
                        <set attributeName="fill" to="#808080" begin="arrowUp.mouseover" end="arrowUp.mouseout"/>
                  </use>
                  <path fill="none" stroke="white" stroke-width="1.5" d="M0,-3.0v7 M-2.5,-0.5L0,-3.0L2.5,-0.5"/>
                </g>
                <g id="arrowRight" xlink:href="#dirArrow" transform="rotate(90) translate(36 -43)" onmousedown="handlePan(1,0)">
                  <use xlink:href="#rim" fill="#404040">
                        <set attributeName="fill" to="#808080" begin="arrowRight.mouseover" end="arrowRight.mouseout"/>
                  </use>
                  <path fill="none" stroke="white" stroke-width="1.5" d="M0,-3.0v7 M-2.5,-0.5L0,-3.0L2.5,-0.5"/>
                </g>
                <g id="arrowDown" xlink:href="#dirArrow" transform="rotate(180) translate(-30 -48)" onmousedown="handlePan(0,1)">
                  <use xlink:href="#rim" fill="#404040">
                        <set attributeName="fill" to="#808080" begin="arrowDown.mouseover" end="arrowDown.mouseout"/>
                  </use>
                  <path fill="none" stroke="white" stroke-width="1.5" d="M0,-3.0v7 M-2.5,-0.5L0,-3.0L2.5,-0.5"/>
                </g>
                <g id="arrowLeft" xlink:href="#dirArrow" transform="rotate(270) translate(-36 17)" onmousedown="handlePan(-1,0)">
                  <use xlink:href="#rim" fill="#404040">
                        <set attributeName="fill" to="#808080" begin="arrowLeft.mouseover" end="arrowLeft.mouseout"/>
                  </use>
                  <path fill="none" stroke="white" stroke-width="1.5" d="M0,-3.0v7 M-2.5,-0.5L0,-3.0L2.5,-0.5"/>
                </g>
        </g>
        <svg viewBox="0 0 15 15" width="100%" height="30px" preserveAspectRatio="xMaxYMin meet">
         <g id="arrow_out" transform="scale(0.3 0.3)">
          <a xlink:href="classReptilDomestico__coll__graph_org.svg" target="_base">
           <rect id="button" ry="5" rx="5" y="6" x="6" height="38" width="38"
                fill="#f2f5e9" fill-opacity="0.5" stroke="#606060" stroke-width="1.0"/>
           <path id="arrow"
             d="M 11.500037,31.436501 C 11.940474,20.09759 22.043105,11.32322 32.158766,21.979434 L 37.068811,17.246167 C 37.068811,17.246167 37.088388,32 37.088388,32 L 22.160133,31.978069 C 22.160133,31.978069 26.997745,27.140456 26.997745,27.140456 C 18.528582,18.264221 13.291696,25.230495 11.500037,31.436501 z"
             style="fill:#404040;"/>
          </a>
         </g>
        </svg>
</svg>
