<?xml version="1.0" encoding="UTF-8" standalone="no"?>
<!DOCTYPE svg PUBLIC "-//W3C//DTD SVG 1.1//EN"
 "http://www.w3.org/Graphics/SVG/1.1/DTD/svg11.dtd">
<!-- Generated by graphviz version 2.43.0 (0)
 -->
<!-- Title: AveExotica Pages: 1 -->
<svg width="754pt" height="1905pt"
 viewBox="0.00 0.00 753.59 1905.00" xmlns="http://www.w3.org/2000/svg" xmlns:xlink="http://www.w3.org/1999/xlink">
<g id="graph0" class="graph" transform="scale(1 1) rotate(0) translate(4 1901)">
<title>AveExotica</title>
<polygon fill="white" stroke="transparent" points="-4,4 -4,-1901 749.59,-1901 749.59,4 -4,4"/>
<!-- Node1 -->
<g id="node1" class="node">
<title>Node1</title>
<g id="a_node1"><a xlink:title="Implementação de animal com Classe e Categoria.">
<polygon fill="#bfbfbf" stroke="black" points="539.59,-0.5 539.59,-134.5 718.59,-134.5 718.59,-0.5 539.59,-0.5"/>
<text text-anchor="middle" x="629.09" y="-114.5" font-family="Helvetica,sans-Serif" font-size="20.00">AveExotica</text>
<polyline fill="none" stroke="black" points="539.59,-104.5 718.59,-104.5 "/>
<text text-anchor="middle" x="629.09" y="-84.5" font-family="Helvetica,sans-Serif" font-size="20.00"> </text>
<polyline fill="none" stroke="black" points="539.59,-74.5 718.59,-74.5 "/>
<text text-anchor="start" x="547.59" y="-54.5" font-family="Helvetica,sans-Serif" font-size="20.00">+ AveExotica()</text>
<text text-anchor="start" x="547.59" y="-32.5" font-family="Helvetica,sans-Serif" font-size="20.00">+ AveExotica()</text>
<text text-anchor="start" x="547.59" y="-10.5" font-family="Helvetica,sans-Serif" font-size="20.00">+ ~AveExotica()</text>
</a>
</g>
</g>
<!-- Node2 -->
<g id="node2" class="node">
<title>Node2</title>
<g id="a_node2"><a xlink:href="classAve.html" target="_top" xlink:title="Classificação base para Aves.">
<polygon fill="white" stroke="black" points="524.09,-172.5 524.09,-372.5 646.09,-372.5 646.09,-172.5 524.09,-172.5"/>
<text text-anchor="middle" x="585.09" y="-352.5" font-family="Helvetica,sans-Serif" font-size="20.00">Ave</text>
<polyline fill="none" stroke="black" points="524.09,-342.5 646.09,-342.5 "/>
<text text-anchor="middle" x="585.09" y="-322.5" font-family="Helvetica,sans-Serif" font-size="20.00"> </text>
<polyline fill="none" stroke="black" points="524.09,-312.5 646.09,-312.5 "/>
<text text-anchor="start" x="532.09" y="-292.5" font-family="Helvetica,sans-Serif" font-size="20.00">+ Ave()</text>
<text text-anchor="start" x="532.09" y="-270.5" font-family="Helvetica,sans-Serif" font-size="20.00">+ Ave()</text>
<text text-anchor="start" x="532.09" y="-248.5" font-family="Helvetica,sans-Serif" font-size="20.00">+ ~Ave()</text>
<text text-anchor="start" x="532.09" y="-226.5" font-family="Helvetica,sans-Serif" font-size="20.00">+ getVoa()</text>
<text text-anchor="start" x="532.09" y="-204.5" font-family="Helvetica,sans-Serif" font-size="20.00">+ setVoa()</text>
<text text-anchor="start" x="532.09" y="-182.5" font-family="Helvetica,sans-Serif" font-size="20.00">+ setVoa()</text>
</a>
</g>
</g>
<!-- Node2&#45;&gt;Node1 -->
<g id="edge1" class="edge">
<title>Node2&#45;&gt;Node1</title>
<path fill="none" stroke="midnightblue" d="M608.72,-162.5C610.77,-153.03 612.8,-143.65 614.74,-134.69"/>
<polygon fill="none" stroke="midnightblue" points="605.27,-161.86 606.57,-172.38 612.11,-163.35 605.27,-161.86"/>
</g>
<!-- Node3 -->
<g id="node3" class="node">
<title>Node3</title>
<g id="a_node3"><a xlink:href="classAnimal.html" target="_top" xlink:title="Implementação base para o cadastro de animais.">
<polygon fill="white" stroke="black" points="224.59,-410.5 224.59,-786.5 447.59,-786.5 447.59,-410.5 224.59,-410.5"/>
<text text-anchor="middle" x="336.09" y="-766.5" font-family="Helvetica,sans-Serif" font-size="20.00">Animal</text>
<polyline fill="none" stroke="black" points="224.59,-756.5 447.59,-756.5 "/>
<text text-anchor="middle" x="336.09" y="-736.5" font-family="Helvetica,sans-Serif" font-size="20.00"> </text>
<polyline fill="none" stroke="black" points="224.59,-726.5 447.59,-726.5 "/>
<text text-anchor="start" x="232.59" y="-706.5" font-family="Helvetica,sans-Serif" font-size="20.00">+ Animal()</text>
<text text-anchor="start" x="232.59" y="-684.5" font-family="Helvetica,sans-Serif" font-size="20.00">+ Animal()</text>
<text text-anchor="start" x="232.59" y="-662.5" font-family="Helvetica,sans-Serif" font-size="20.00">+ ~Animal()</text>
<text text-anchor="start" x="232.59" y="-640.5" font-family="Helvetica,sans-Serif" font-size="20.00">+ getNome()</text>
<text text-anchor="start" x="232.59" y="-618.5" font-family="Helvetica,sans-Serif" font-size="20.00">+ getEspecie()</text>
<text text-anchor="start" x="232.59" y="-596.5" font-family="Helvetica,sans-Serif" font-size="20.00">+ getAmeacadoPor()</text>
<text text-anchor="start" x="232.59" y="-574.5" font-family="Helvetica,sans-Serif" font-size="20.00">+ getVeterinario()</text>
<text text-anchor="start" x="232.59" y="-552.5" font-family="Helvetica,sans-Serif" font-size="20.00">+ getTratador()</text>
<text text-anchor="start" x="232.59" y="-530.5" font-family="Helvetica,sans-Serif" font-size="20.00">+ getPerigoso()</text>
<text text-anchor="start" x="232.59" y="-508.5" font-family="Helvetica,sans-Serif" font-size="20.00">+ setNome()</text>
<text text-anchor="start" x="232.59" y="-486.5" font-family="Helvetica,sans-Serif" font-size="20.00">e 13 mais...</text>
<text text-anchor="start" x="232.59" y="-464.5" font-family="Helvetica,sans-Serif" font-size="20.00">+ getClassificacao()</text>
<text text-anchor="start" x="232.59" y="-442.5" font-family="Helvetica,sans-Serif" font-size="20.00">+ getClasse()</text>
<text text-anchor="start" x="232.59" y="-420.5" font-family="Helvetica,sans-Serif" font-size="20.00">+ printOutDetails()</text>
</a>
</g>
</g>
<!-- Node3&#45;&gt;Node2 -->
<g id="edge2" class="edge">
<title>Node3&#45;&gt;Node2</title>
<path fill="none" stroke="midnightblue" d="M453.98,-444.11C478.13,-412.67 502.63,-380.8 523.8,-353.25"/>
<polygon fill="none" stroke="midnightblue" points="451.16,-442.02 447.84,-452.09 456.71,-446.29 451.16,-442.02"/>
</g>
<!-- Node4 -->
<g id="node4" class="node">
<title>Node4</title>
<g id="a_node4"><a xlink:href="classTratador.html" target="_top" xlink:title="Implementação dos tratadores.">
<polygon fill="white" stroke="black" points="301.09,-845.5 301.09,-1067.5 501.09,-1067.5 501.09,-845.5 301.09,-845.5"/>
<text text-anchor="middle" x="401.09" y="-1047.5" font-family="Helvetica,sans-Serif" font-size="20.00">Tratador</text>
<polyline fill="none" stroke="black" points="301.09,-1037.5 501.09,-1037.5 "/>
<text text-anchor="middle" x="401.09" y="-1017.5" font-family="Helvetica,sans-Serif" font-size="20.00"> </text>
<polyline fill="none" stroke="black" points="301.09,-1007.5 501.09,-1007.5 "/>
<text text-anchor="start" x="309.09" y="-987.5" font-family="Helvetica,sans-Serif" font-size="20.00">+ Tratador()</text>
<text text-anchor="start" x="309.09" y="-965.5" font-family="Helvetica,sans-Serif" font-size="20.00">+ Tratador()</text>
<text text-anchor="start" x="309.09" y="-943.5" font-family="Helvetica,sans-Serif" font-size="20.00">+ ~Tratador()</text>
<text text-anchor="start" x="309.09" y="-921.5" font-family="Helvetica,sans-Serif" font-size="20.00">+ getUniforme()</text>
<text text-anchor="start" x="309.09" y="-899.5" font-family="Helvetica,sans-Serif" font-size="20.00">+ setUniforme()</text>
<text text-anchor="start" x="309.09" y="-877.5" font-family="Helvetica,sans-Serif" font-size="20.00">+ setUniforme()</text>
<text text-anchor="start" x="309.09" y="-855.5" font-family="Helvetica,sans-Serif" font-size="20.00">+ printOutDados()</text>
</a>
</g>
</g>
<!-- Node4&#45;&gt;Node3 -->
<g id="edge3" class="edge">
<title>Node4&#45;&gt;Node3</title>
<path fill="none" stroke="#404040" d="M342.32,-845.24C340.3,-839.17 338.53,-833.06 337.09,-827 334.88,-817.71 333.08,-808.15 331.64,-798.45"/>
<polygon fill="none" stroke="#404040" points="331.64,-798.44 326.87,-793.03 330.04,-786.55 334.8,-791.97 331.64,-798.44"/>
<text text-anchor="middle" x="388.59" y="-811" font-family="Helvetica,sans-Serif" font-size="20.00"> #tratador</text>
</g>
<!-- Node5 -->
<g id="node5" class="node">
<title>Node5</title>
<g id="a_node5"><a xlink:href="classPessoa.html" target="_top" xlink:title="Classe base dos funcionarios.">
<polygon fill="white" stroke="black" points="274.09,-1305.5 274.09,-1703.5 474.09,-1703.5 474.09,-1305.5 274.09,-1305.5"/>
<text text-anchor="middle" x="374.09" y="-1683.5" font-family="Helvetica,sans-Serif" font-size="20.00">Pessoa</text>
<polyline fill="none" stroke="black" points="274.09,-1673.5 474.09,-1673.5 "/>
<text text-anchor="middle" x="374.09" y="-1653.5" font-family="Helvetica,sans-Serif" font-size="20.00"> </text>
<polyline fill="none" stroke="black" points="274.09,-1643.5 474.09,-1643.5 "/>
<text text-anchor="start" x="282.09" y="-1623.5" font-family="Helvetica,sans-Serif" font-size="20.00">+ Pessoa()</text>
<text text-anchor="start" x="282.09" y="-1601.5" font-family="Helvetica,sans-Serif" font-size="20.00">+ Pessoa()</text>
<text text-anchor="start" x="282.09" y="-1579.5" font-family="Helvetica,sans-Serif" font-size="20.00">+ ~Pessoa()</text>
<text text-anchor="start" x="282.09" y="-1557.5" font-family="Helvetica,sans-Serif" font-size="20.00">+ getNome()</text>
<text text-anchor="start" x="282.09" y="-1535.5" font-family="Helvetica,sans-Serif" font-size="20.00">+ setNome()</text>
<text text-anchor="start" x="282.09" y="-1513.5" font-family="Helvetica,sans-Serif" font-size="20.00">+ setNome()</text>
<text text-anchor="start" x="282.09" y="-1491.5" font-family="Helvetica,sans-Serif" font-size="20.00">+ getTelefone()</text>
<text text-anchor="start" x="282.09" y="-1469.5" font-family="Helvetica,sans-Serif" font-size="20.00">+ setTelefone()</text>
<text text-anchor="start" x="282.09" y="-1447.5" font-family="Helvetica,sans-Serif" font-size="20.00">+ setTelefone()</text>
<text text-anchor="start" x="282.09" y="-1425.5" font-family="Helvetica,sans-Serif" font-size="20.00">+ getEmail()</text>
<text text-anchor="start" x="282.09" y="-1403.5" font-family="Helvetica,sans-Serif" font-size="20.00">+ setEmail()</text>
<text text-anchor="start" x="282.09" y="-1381.5" font-family="Helvetica,sans-Serif" font-size="20.00">+ setEmail()</text>
<text text-anchor="start" x="282.09" y="-1359.5" font-family="Helvetica,sans-Serif" font-size="20.00">+ printOutDados()</text>
<text text-anchor="start" x="282.09" y="-1337.5" font-family="Helvetica,sans-Serif" font-size="20.00">+ operator==()</text>
<text text-anchor="start" x="282.09" y="-1315.5" font-family="Helvetica,sans-Serif" font-size="20.00">+ operator==()</text>
</a>
</g>
</g>
<!-- Node5&#45;&gt;Node4 -->
<g id="edge4" class="edge">
<title>Node5&#45;&gt;Node4</title>
<path fill="none" stroke="midnightblue" d="M384.41,-1294.85C388.23,-1217.51 392.42,-1132.85 395.64,-1067.7"/>
<polygon fill="none" stroke="midnightblue" points="380.89,-1295.06 383.89,-1305.22 387.88,-1295.41 380.89,-1295.06"/>
</g>
<!-- Node9 -->
<g id="node9" class="node">
<title>Node9</title>
<g id="a_node9"><a xlink:href="classVeterinario.html" target="_top" xlink:title="Implementação dos veterinarios.">
<polygon fill="white" stroke="black" points="83.09,-845.5 83.09,-1067.5 283.09,-1067.5 283.09,-845.5 83.09,-845.5"/>
<text text-anchor="middle" x="183.09" y="-1047.5" font-family="Helvetica,sans-Serif" font-size="20.00">Veterinario</text>
<polyline fill="none" stroke="black" points="83.09,-1037.5 283.09,-1037.5 "/>
<text text-anchor="middle" x="183.09" y="-1017.5" font-family="Helvetica,sans-Serif" font-size="20.00"> </text>
<polyline fill="none" stroke="black" points="83.09,-1007.5 283.09,-1007.5 "/>
<text text-anchor="start" x="91.09" y="-987.5" font-family="Helvetica,sans-Serif" font-size="20.00">+ Veterinario()</text>
<text text-anchor="start" x="91.09" y="-965.5" font-family="Helvetica,sans-Serif" font-size="20.00">+ Veterinario()</text>
<text text-anchor="start" x="91.09" y="-943.5" font-family="Helvetica,sans-Serif" font-size="20.00">+ ~Veterinario()</text>
<text text-anchor="start" x="91.09" y="-921.5" font-family="Helvetica,sans-Serif" font-size="20.00">+ getCRMV()</text>
<text text-anchor="start" x="91.09" y="-899.5" font-family="Helvetica,sans-Serif" font-size="20.00">+ setCRMV()</text>
<text text-anchor="start" x="91.09" y="-877.5" font-family="Helvetica,sans-Serif" font-size="20.00">+ setCRMV()</text>
<text text-anchor="start" x="91.09" y="-855.5" font-family="Helvetica,sans-Serif" font-size="20.00">+ printOutDados()</text>
</a>
</g>
</g>
<!-- Node5&#45;&gt;Node9 -->
<g id="edge10" class="edge">
<title>Node5&#45;&gt;Node9</title>
<path fill="none" stroke="midnightblue" d="M301.27,-1295.33C274.17,-1217.85 244.48,-1132.99 221.64,-1067.7"/>
<polygon fill="none" stroke="midnightblue" points="298.12,-1296.94 304.73,-1305.22 304.73,-1294.63 298.12,-1296.94"/>
</g>
<!-- Node6 -->
<g id="node6" class="node">
<title>Node6</title>
<g id="a_node6"><a xlink:title=" ">
<polygon fill="white" stroke="#bfbfbf" points="241.09,-1806.5 241.09,-1896.5 315.09,-1896.5 315.09,-1806.5 241.09,-1806.5"/>
<text text-anchor="middle" x="278.09" y="-1876.5" font-family="Helvetica,sans-Serif" font-size="20.00">string</text>
<polyline fill="none" stroke="#bfbfbf" points="241.09,-1866.5 315.09,-1866.5 "/>
<text text-anchor="middle" x="278.09" y="-1846.5" font-family="Helvetica,sans-Serif" font-size="20.00"> </text>
<polyline fill="none" stroke="#bfbfbf" points="241.09,-1836.5 315.09,-1836.5 "/>
<text text-anchor="middle" x="278.09" y="-1816.5" font-family="Helvetica,sans-Serif" font-size="20.00"> </text>
</a>
</g>
</g>
<!-- Node6&#45;&gt;Node3 -->
<g id="edge8" class="edge">
<title>Node6&#45;&gt;Node3</title>
<path fill="none" stroke="#404040" d="M241.07,-1829.42C225.08,-1818.76 207.29,-1804.55 195.09,-1788 3.99,-1528.72 -23.48,-1405.78 15.09,-1086 28.3,-976.52 18.44,-940.2 74.09,-845 109.55,-784.33 164.59,-729.49 215.08,-687.11"/>
<polygon fill="none" stroke="#404040" points="215.22,-687 217.28,-680.09 224.45,-679.34 222.39,-686.25 215.22,-687"/>
<text text-anchor="middle" x="91.09" y="-1203.5" font-family="Helvetica,sans-Serif" font-size="20.00"> #especie</text>
<text text-anchor="middle" x="91.09" y="-1181.5" font-family="Helvetica,sans-Serif" font-size="20.00">#ameacadoPor</text>
<text text-anchor="middle" x="91.09" y="-1159.5" font-family="Helvetica,sans-Serif" font-size="20.00">#nome</text>
</g>
<!-- Node6&#45;&gt;Node5 -->
<g id="edge5" class="edge">
<title>Node6&#45;&gt;Node5</title>
<path fill="none" stroke="#404040" d="M290.35,-1806.46C297.13,-1782.06 306.13,-1749.75 315.69,-1715.36"/>
<polygon fill="none" stroke="#404040" points="315.74,-1715.18 313.5,-1708.33 318.96,-1703.62 321.21,-1710.47 315.74,-1715.18"/>
<text text-anchor="middle" x="360.59" y="-1772" font-family="Helvetica,sans-Serif" font-size="20.00"> #email</text>
<text text-anchor="middle" x="360.59" y="-1750" font-family="Helvetica,sans-Serif" font-size="20.00">#nome</text>
<text text-anchor="middle" x="360.59" y="-1728" font-family="Helvetica,sans-Serif" font-size="20.00">#telefone</text>
</g>
<!-- Node6&#45;&gt;Node9 -->
<g id="edge11" class="edge">
<title>Node6&#45;&gt;Node9</title>
<path fill="none" stroke="#404040" d="M244.01,-1806.45C224.73,-1778.71 202.45,-1741.22 192.09,-1704 160.45,-1590.33 169.26,-1260.76 176.99,-1079.88"/>
<polygon fill="none" stroke="#404040" points="177,-1079.64 173.27,-1073.48 177.52,-1067.66 181.26,-1073.82 177,-1079.64"/>
<text text-anchor="middle" x="228.59" y="-1499.5" font-family="Helvetica,sans-Serif" font-size="20.00"> &#45;CRMV</text>
</g>
<!-- Node10 -->
<g id="node10" class="node">
<title>Node10</title>
<g id="a_node10"><a xlink:href="classExotico.html" target="_top" xlink:title="Umas das definições de categoria para Animal.">
<polygon fill="white" stroke="black" points="602.59,-1086.5 602.59,-1286.5 745.59,-1286.5 745.59,-1086.5 602.59,-1086.5"/>
<text text-anchor="middle" x="674.09" y="-1266.5" font-family="Helvetica,sans-Serif" font-size="20.00">Exotico</text>
<polyline fill="none" stroke="black" points="602.59,-1256.5 745.59,-1256.5 "/>
<text text-anchor="middle" x="674.09" y="-1236.5" font-family="Helvetica,sans-Serif" font-size="20.00"> </text>
<polyline fill="none" stroke="black" points="602.59,-1226.5 745.59,-1226.5 "/>
<text text-anchor="start" x="610.59" y="-1206.5" font-family="Helvetica,sans-Serif" font-size="20.00">+ Exotico()</text>
<text text-anchor="start" x="610.59" y="-1184.5" font-family="Helvetica,sans-Serif" font-size="20.00">+ Exotico()</text>
<text text-anchor="start" x="610.59" y="-1162.5" font-family="Helvetica,sans-Serif" font-size="20.00">+ ~Exotico()</text>
<text text-anchor="start" x="610.59" y="-1140.5" font-family="Helvetica,sans-Serif" font-size="20.00">+ getLocal()</text>
<text text-anchor="start" x="610.59" y="-1118.5" font-family="Helvetica,sans-Serif" font-size="20.00">+ setLocal()</text>
<text text-anchor="start" x="610.59" y="-1096.5" font-family="Helvetica,sans-Serif" font-size="20.00">+ setLocal()</text>
</a>
</g>
</g>
<!-- Node6&#45;&gt;Node10 -->
<g id="edge14" class="edge">
<title>Node6&#45;&gt;Node10</title>
<path fill="none" stroke="#404040" d="M315.35,-1845.84C385.35,-1834.94 535.93,-1800.91 608.09,-1704 695.28,-1586.91 698.73,-1412.01 689.39,-1298.83"/>
<polygon fill="none" stroke="#404040" points="689.38,-1298.67 684.87,-1293.04 688.33,-1286.71 692.84,-1292.34 689.38,-1298.67"/>
<text text-anchor="middle" x="625.59" y="-1750" font-family="Helvetica,sans-Serif" font-size="20.00"> #local</text>
</g>
<!-- Node7 -->
<g id="node7" class="node">
<title>Node7</title>
<g id="a_node7"><a xlink:title=" ">
<polygon fill="white" stroke="#bfbfbf" points="492.59,-1459.5 492.59,-1549.5 599.59,-1549.5 599.59,-1459.5 492.59,-1459.5"/>
<text text-anchor="middle" x="546.09" y="-1529.5" font-family="Helvetica,sans-Serif" font-size="20.00">Uniforme</text>
<polyline fill="none" stroke="#bfbfbf" points="492.59,-1519.5 599.59,-1519.5 "/>
<text text-anchor="middle" x="546.09" y="-1499.5" font-family="Helvetica,sans-Serif" font-size="20.00"> </text>
<polyline fill="none" stroke="#bfbfbf" points="492.59,-1489.5 599.59,-1489.5 "/>
<text text-anchor="middle" x="546.09" y="-1469.5" font-family="Helvetica,sans-Serif" font-size="20.00"> </text>
</a>
</g>
</g>
<!-- Node7&#45;&gt;Node4 -->
<g id="edge6" class="edge">
<title>Node7&#45;&gt;Node4</title>
<path fill="none" stroke="#404040" d="M534.35,-1459.28C512.62,-1377.47 465.45,-1199.85 433.47,-1079.44"/>
<polygon fill="none" stroke="#404040" points="433.41,-1079.21 428.01,-1074.44 430.33,-1067.61 435.74,-1072.38 433.41,-1079.21"/>
<text text-anchor="middle" x="538.59" y="-1181.5" font-family="Helvetica,sans-Serif" font-size="20.00"> &#45;uniforme</text>
</g>
<!-- Node8 -->
<g id="node8" class="node">
<title>Node8</title>
<g id="a_node8"><a xlink:title=" ">
<polygon fill="white" stroke="#bfbfbf" points="538.59,-911.5 538.59,-1001.5 597.59,-1001.5 597.59,-911.5 538.59,-911.5"/>
<text text-anchor="middle" x="568.09" y="-981.5" font-family="Helvetica,sans-Serif" font-size="20.00">bool</text>
<polyline fill="none" stroke="#bfbfbf" points="538.59,-971.5 597.59,-971.5 "/>
<text text-anchor="middle" x="568.09" y="-951.5" font-family="Helvetica,sans-Serif" font-size="20.00"> </text>
<polyline fill="none" stroke="#bfbfbf" points="538.59,-941.5 597.59,-941.5 "/>
<text text-anchor="middle" x="568.09" y="-921.5" font-family="Helvetica,sans-Serif" font-size="20.00"> </text>
</a>
</g>
</g>
<!-- Node8&#45;&gt;Node2 -->
<g id="edge12" class="edge">
<title>Node8&#45;&gt;Node2</title>
<path fill="none" stroke="#404040" d="M569.54,-911.49C570.34,-886.68 571.32,-855.11 572.09,-827 576.27,-673.84 580.29,-496.82 582.72,-385.03"/>
<polygon fill="none" stroke="#404040" points="582.73,-384.74 578.86,-378.65 582.99,-372.74 586.86,-378.83 582.73,-384.74"/>
<text text-anchor="middle" x="612.59" y="-593.5" font-family="Helvetica,sans-Serif" font-size="20.00"> #voa</text>
</g>
<!-- Node8&#45;&gt;Node3 -->
<g id="edge7" class="edge">
<title>Node8&#45;&gt;Node3</title>
<path fill="none" stroke="#404040" d="M553.52,-911.35C544.18,-888.9 530.01,-862.7 510.09,-845 493.37,-830.14 480,-841.64 463.09,-827 452.34,-817.69 442.31,-807.23 432.99,-796.05"/>
<polygon fill="none" stroke="#404040" points="432.84,-795.86 425.97,-793.68 425.33,-786.5 432.21,-788.68 432.84,-795.86"/>
<text text-anchor="middle" x="517.59" y="-811" font-family="Helvetica,sans-Serif" font-size="20.00"> #perigoso</text>
</g>
<!-- Node9&#45;&gt;Node3 -->
<g id="edge9" class="edge">
<title>Node9&#45;&gt;Node3</title>
<path fill="none" stroke="#404040" d="M189.45,-845.19C192.01,-831.42 195.46,-817.73 200.09,-805 205.3,-790.66 211.7,-776.33 218.85,-762.28"/>
<polygon fill="none" stroke="#404040" points="218.88,-762.22 218.13,-755.05 224.46,-751.6 225.21,-758.77 218.88,-762.22"/>
<text text-anchor="middle" x="265.09" y="-811" font-family="Helvetica,sans-Serif" font-size="20.00"> #veterinario</text>
</g>
<!-- Node10&#45;&gt;Node1 -->
<g id="edge13" class="edge">
<title>Node10&#45;&gt;Node1</title>
<path fill="none" stroke="midnightblue" d="M674.09,-1076.01C674.09,-1002.71 674.09,-904.07 674.09,-817 674.09,-817 674.09,-817 674.09,-271.5 674.09,-225.11 662.75,-174.15 651.46,-134.89"/>
<polygon fill="none" stroke="midnightblue" points="670.59,-1076.18 674.09,-1086.18 677.59,-1076.18 670.59,-1076.18"/>
</g>
</g>
</svg>
