<?xml version="1.0" encoding="UTF-8" standalone="no"?>
<!DOCTYPE svg PUBLIC "-//W3C//DTD SVG 1.1//EN"
 "http://www.w3.org/Graphics/SVG/1.1/DTD/svg11.dtd">
<!-- Generated by graphviz version 2.43.0 (0)
 -->
<!-- Title: Petshop Pages: 1 -->
<!--zoomable 705 -->
<svg id="main" version="1.1" xmlns="http://www.w3.org/2000/svg" xmlns:xlink="http://www.w3.org/1999/xlink" xml:space="preserve" onload="init(evt)">
<style type="text/css"><![CDATA[
.edge:hover path { stroke: red; }
.edge:hover polygon { stroke: red; fill: red; }
]]></style>
<script type="text/javascript"><![CDATA[
var edges = document.getElementsByTagName('g');
if (edges && edges.length) {
  for (var i=0;i<edges.length;i++) {
    if (edges[i].id.substr(0,4)=='edge') {
      edges[i].setAttribute('class','edge');
    }
  }
}
]]></script>
        <defs>
                <circle id="rim" cx="0" cy="0" r="7"/>
                <circle id="rim2" cx="0" cy="0" r="3.5"/>
                <g id="zoomPlus">
                        <use xlink:href="#rim" fill="#404040">
                                <set attributeName="fill" to="#808080" begin="zoomplus.mouseover" end="zoomplus.mouseout"/>
                        </use>
                        <path d="M-4,0h8M0,-4v8" fill="none" stroke="white" stroke-width="1.5" pointer-events="none"/>
                </g>
                <g id="zoomMin">
                        <use xlink:href="#rim" fill="#404040">
                                <set attributeName="fill" to="#808080" begin="zoomminus.mouseover" end="zoomminus.mouseout"/>
                        </use>
                        <path d="M-4,0h8" fill="none" stroke="white" stroke-width="1.5" pointer-events="none"/>
                </g>
                <g id="dirArrow">
                        <path fill="none" stroke="white" stroke-width="1.5" d="M0,-3.0v7 M-2.5,-0.5L0,-3.0L2.5,-0.5"/>
                </g>
               <g id="resetDef">
                       <use xlink:href="#rim2" fill="#404040">
                               <set attributeName="fill" to="#808080" begin="reset.mouseover" end="reset.mouseout"/>
                       </use>
               </g>
        </defs>

<script type="text/javascript">
var viewWidth = 992;
var viewHeight = 705;
var sectionId = 'dynsection-0';
</script>
<script xlink:href="svgpan.js"/>
<svg id="graph" class="graph">
<g id="viewport">
<title>Petshop</title>
<polygon fill="white" stroke="transparent" points="-4,4 -4,-701 988,-701 988,4 -4,4"/>
<!-- Node1 -->
<g id="node1" class="node">
<title>Node1</title>
<g id="a_node1"><a xlink:title="Classe de controle.">
<polygon fill="#bfbfbf" stroke="black" points="341.5,-0.5 341.5,-376.5 594.5,-376.5 594.5,-0.5 341.5,-0.5"/>
<text text-anchor="middle" x="468" y="-356.5" font-family="Helvetica,sans-Serif" font-size="20.00">Petshop</text>
<polyline fill="none" stroke="black" points="341.5,-346.5 594.5,-346.5 "/>
<text text-anchor="middle" x="468" y="-326.5" font-family="Helvetica,sans-Serif" font-size="20.00"> </text>
<polyline fill="none" stroke="black" points="341.5,-316.5 594.5,-316.5 "/>
<text text-anchor="start" x="349.5" y="-296.5" font-family="Helvetica,sans-Serif" font-size="20.00">+ Petshop()</text>
<text text-anchor="start" x="349.5" y="-274.5" font-family="Helvetica,sans-Serif" font-size="20.00">+ ~Petshop()</text>
<text text-anchor="start" x="349.5" y="-252.5" font-family="Helvetica,sans-Serif" font-size="20.00">+ listarAnimais()</text>
<text text-anchor="start" x="349.5" y="-230.5" font-family="Helvetica,sans-Serif" font-size="20.00">+ listarTratadores()</text>
<text text-anchor="start" x="349.5" y="-208.5" font-family="Helvetica,sans-Serif" font-size="20.00">+ listarVeterinarios()</text>
<text text-anchor="start" x="349.5" y="-186.5" font-family="Helvetica,sans-Serif" font-size="20.00">+ criarVeterinario()</text>
<text text-anchor="start" x="349.5" y="-164.5" font-family="Helvetica,sans-Serif" font-size="20.00">+ criarTratador()</text>
<text text-anchor="start" x="349.5" y="-142.5" font-family="Helvetica,sans-Serif" font-size="20.00">+ criarAnimal()</text>
<text text-anchor="start" x="349.5" y="-120.5" font-family="Helvetica,sans-Serif" font-size="20.00">+ adicionarVeterinario()</text>
<text text-anchor="start" x="349.5" y="-98.5" font-family="Helvetica,sans-Serif" font-size="20.00">+ adicionarTratador()</text>
<text text-anchor="start" x="349.5" y="-76.5" font-family="Helvetica,sans-Serif" font-size="20.00">e 10 mais...</text>
<text text-anchor="start" x="349.5" y="-54.5" font-family="Helvetica,sans-Serif" font-size="20.00">&#45; findVeterinario()</text>
<text text-anchor="start" x="349.5" y="-32.5" font-family="Helvetica,sans-Serif" font-size="20.00">&#45; findTratador()</text>
<text text-anchor="start" x="349.5" y="-10.5" font-family="Helvetica,sans-Serif" font-size="20.00">&#45; findAnimal()</text>
</a>
</g>
</g>
<!-- Node2 -->
<g id="node2" class="node">
<title>Node2</title>
<g id="a_node2"><a xlink:title=" ">
<polygon fill="white" stroke="#bfbfbf" points="0,-435.5 0,-525.5 222,-525.5 222,-435.5 0,-435.5"/>
<text text-anchor="middle" x="111" y="-505.5" font-family="Helvetica,sans-Serif" font-size="20.00">vector&lt; Tratador * &gt;</text>
<polyline fill="none" stroke="#bfbfbf" points="0,-495.5 222,-495.5 "/>
<text text-anchor="middle" x="111" y="-475.5" font-family="Helvetica,sans-Serif" font-size="20.00"> </text>
<polyline fill="none" stroke="#bfbfbf" points="0,-465.5 222,-465.5 "/>
<text text-anchor="middle" x="111" y="-445.5" font-family="Helvetica,sans-Serif" font-size="20.00"> </text>
</a>
</g>
</g>
<!-- Node2&#45;&gt;Node1 -->
<g id="edge1" class="edge">
<title>Node2&#45;&gt;Node1</title>
<path fill="none" stroke="#404040" d="M165.22,-435.46C209.38,-399.58 273.69,-347.34 331.69,-300.23"/>
<polygon fill="none" stroke="#404040" points="332,-299.98 334.14,-293.09 341.31,-292.41 339.18,-299.3 332,-299.98"/>
<text text-anchor="middle" x="265" y="-401" font-family="Helvetica,sans-Serif" font-size="20.00"> &#45;tratadores</text>
</g>
<!-- Node3 -->
<g id="node3" class="node">
<title>Node3</title>
<g id="a_node3"><a xlink:title=" ">
<polygon fill="white" stroke="#bfbfbf" points="240.5,-435.5 240.5,-525.5 449.5,-525.5 449.5,-435.5 240.5,-435.5"/>
<text text-anchor="middle" x="345" y="-505.5" font-family="Helvetica,sans-Serif" font-size="20.00">vector&lt; Animal * &gt;</text>
<polyline fill="none" stroke="#bfbfbf" points="240.5,-495.5 449.5,-495.5 "/>
<text text-anchor="middle" x="345" y="-475.5" font-family="Helvetica,sans-Serif" font-size="20.00"> </text>
<polyline fill="none" stroke="#bfbfbf" points="240.5,-465.5 449.5,-465.5 "/>
<text text-anchor="middle" x="345" y="-445.5" font-family="Helvetica,sans-Serif" font-size="20.00"> </text>
</a>
</g>
</g>
<!-- Node3&#45;&gt;Node1 -->
<g id="edge2" class="edge">
<title>Node3&#45;&gt;Node1</title>
<path fill="none" stroke="#404040" d="M363.68,-435.46C369.58,-421.55 376.52,-405.18 383.98,-387.6"/>
<polygon fill="none" stroke="#404040" points="384,-387.56 382.66,-380.47 388.68,-376.51 390.02,-383.6 384,-387.56"/>
<text text-anchor="middle" x="423.5" y="-401" font-family="Helvetica,sans-Serif" font-size="20.00"> &#45;animais</text>
</g>
<!-- Node4 -->
<g id="node4" class="node">
<title>Node4</title>
<g id="a_node4"><a xlink:title=" ">
<polygon fill="white" stroke="#bfbfbf" points="468,-435.5 468,-525.5 716,-525.5 716,-435.5 468,-435.5"/>
<text text-anchor="middle" x="592" y="-505.5" font-family="Helvetica,sans-Serif" font-size="20.00">vector&lt; Veterinario * &gt;</text>
<polyline fill="none" stroke="#bfbfbf" points="468,-495.5 716,-495.5 "/>
<text text-anchor="middle" x="592" y="-475.5" font-family="Helvetica,sans-Serif" font-size="20.00"> </text>
<polyline fill="none" stroke="#bfbfbf" points="468,-465.5 716,-465.5 "/>
<text text-anchor="middle" x="592" y="-445.5" font-family="Helvetica,sans-Serif" font-size="20.00"> </text>
</a>
</g>
</g>
<!-- Node4&#45;&gt;Node1 -->
<g id="edge3" class="edge">
<title>Node4&#45;&gt;Node1</title>
<path fill="none" stroke="#404040" d="M573.17,-435.46C567.22,-421.55 560.22,-405.18 552.7,-387.6"/>
<polygon fill="none" stroke="#404040" points="552.68,-387.54 546.64,-383.6 547.96,-376.51 554,-380.45 552.68,-387.54"/>
<text text-anchor="middle" x="630.5" y="-401" font-family="Helvetica,sans-Serif" font-size="20.00"> &#45;veterinarios</text>
</g>
<!-- Node5 -->
<g id="node5" class="node">
<title>Node5</title>
<g id="a_node5"><a xlink:href="classMapeadorAnimal.html" target="_top" xlink:title="Mapeador de animais.">
<polygon fill="white" stroke="black" points="734.5,-435.5 734.5,-525.5 955.5,-525.5 955.5,-435.5 734.5,-435.5"/>
<text text-anchor="middle" x="845" y="-505.5" font-family="Helvetica,sans-Serif" font-size="20.00">MapeadorAnimal</text>
<polyline fill="none" stroke="black" points="734.5,-495.5 955.5,-495.5 "/>
<text text-anchor="middle" x="845" y="-475.5" font-family="Helvetica,sans-Serif" font-size="20.00"> </text>
<polyline fill="none" stroke="black" points="734.5,-465.5 955.5,-465.5 "/>
<text text-anchor="start" x="742.5" y="-445.5" font-family="Helvetica,sans-Serif" font-size="20.00">+ MapeadorAnimal()</text>
</a>
</g>
</g>
<!-- Node5&#45;&gt;Node1 -->
<g id="edge4" class="edge">
<title>Node5&#45;&gt;Node1</title>
<path fill="none" stroke="#404040" d="M787.74,-435.46C739.15,-398.08 667.46,-342.93 604.28,-294.33"/>
<polygon fill="none" stroke="#404040" points="604.13,-294.21 596.93,-293.73 594.62,-286.9 601.81,-287.39 604.13,-294.21"/>
<text text-anchor="middle" x="798" y="-401" font-family="Helvetica,sans-Serif" font-size="20.00"> &#45;mapa</text>
</g>
<!-- Node6 -->
<g id="node6" class="node">
<title>Node6</title>
<g id="a_node6"><a xlink:title=" ">
<polygon fill="white" stroke="#bfbfbf" points="706,-584.5 706,-696.5 984,-696.5 984,-584.5 706,-584.5"/>
<text text-anchor="start" x="714" y="-676.5" font-family="Helvetica,sans-Serif" font-size="20.00">map&lt; string, std::function</text>
<text text-anchor="middle" x="845" y="-654.5" font-family="Helvetica,sans-Serif" font-size="20.00">&lt; Animal *()&gt; &gt;</text>
<polyline fill="none" stroke="#bfbfbf" points="706,-644.5 984,-644.5 "/>
<text text-anchor="middle" x="845" y="-624.5" font-family="Helvetica,sans-Serif" font-size="20.00"> </text>
<polyline fill="none" stroke="#bfbfbf" points="706,-614.5 984,-614.5 "/>
<text text-anchor="middle" x="845" y="-594.5" font-family="Helvetica,sans-Serif" font-size="20.00"> </text>
</a>
</g>
</g>
<!-- Node6&#45;&gt;Node5 -->
<g id="edge5" class="edge">
<title>Node6&#45;&gt;Node5</title>
<path fill="none" stroke="#404040" d="M845,-584.24C845,-569.22 845,-552.94 845,-537.87"/>
<polygon fill="none" stroke="#404040" points="845,-537.54 841,-531.54 845,-525.54 849,-531.54 845,-537.54"/>
<text text-anchor="middle" x="883.5" y="-550" font-family="Helvetica,sans-Serif" font-size="20.00"> +aMap</text>
</g>
</g>
</svg>
        <g id="navigator" transform="translate(0 0)" fill="#404254">
                <rect fill="#f2f5e9" fill-opacity="0.5" stroke="#606060" stroke-width=".5" x="0" y="0" width="60" height="60"/>
                <use id="zoomplus" xlink:href="#zoomPlus" x="17" y="9" onmousedown="handleZoom(evt,'in')"/>
                <use id="zoomminus" xlink:href="#zoomMin" x="42" y="9" onmousedown="handleZoom(evt,'out')"/>
                <use id="reset" xlink:href="#resetDef" x="30" y="36" onmousedown="handleReset()"/>
                <g id="arrowUp" xlink:href="#dirArrow" transform="translate(30 24)" onmousedown="handlePan(0,-1)">
                  <use xlink:href="#rim" fill="#404040">
                        <set attributeName="fill" to="#808080" begin="arrowUp.mouseover" end="arrowUp.mouseout"/>
                  </use>
                  <path fill="none" stroke="white" stroke-width="1.5" d="M0,-3.0v7 M-2.5,-0.5L0,-3.0L2.5,-0.5"/>
                </g>
                <g id="arrowRight" xlink:href="#dirArrow" transform="rotate(90) translate(36 -43)" onmousedown="handlePan(1,0)">
                  <use xlink:href="#rim" fill="#404040">
                        <set attributeName="fill" to="#808080" begin="arrowRight.mouseover" end="arrowRight.mouseout"/>
                  </use>
                  <path fill="none" stroke="white" stroke-width="1.5" d="M0,-3.0v7 M-2.5,-0.5L0,-3.0L2.5,-0.5"/>
                </g>
                <g id="arrowDown" xlink:href="#dirArrow" transform="rotate(180) translate(-30 -48)" onmousedown="handlePan(0,1)">
                  <use xlink:href="#rim" fill="#404040">
                        <set attributeName="fill" to="#808080" begin="arrowDown.mouseover" end="arrowDown.mouseout"/>
                  </use>
                  <path fill="none" stroke="white" stroke-width="1.5" d="M0,-3.0v7 M-2.5,-0.5L0,-3.0L2.5,-0.5"/>
                </g>
                <g id="arrowLeft" xlink:href="#dirArrow" transform="rotate(270) translate(-36 17)" onmousedown="handlePan(-1,0)">
                  <use xlink:href="#rim" fill="#404040">
                        <set attributeName="fill" to="#808080" begin="arrowLeft.mouseover" end="arrowLeft.mouseout"/>
                  </use>
                  <path fill="none" stroke="white" stroke-width="1.5" d="M0,-3.0v7 M-2.5,-0.5L0,-3.0L2.5,-0.5"/>
                </g>
        </g>
        <svg viewBox="0 0 15 15" width="100%" height="30px" preserveAspectRatio="xMaxYMin meet">
         <g id="arrow_out" transform="scale(0.3 0.3)">
          <a xlink:href="classPetshop__coll__graph_org.svg" target="_base">
           <rect id="button" ry="5" rx="5" y="6" x="6" height="38" width="38"
                fill="#f2f5e9" fill-opacity="0.5" stroke="#606060" stroke-width="1.0"/>
           <path id="arrow"
             d="M 11.500037,31.436501 C 11.940474,20.09759 22.043105,11.32322 32.158766,21.979434 L 37.068811,17.246167 C 37.068811,17.246167 37.088388,32 37.088388,32 L 22.160133,31.978069 C 22.160133,31.978069 26.997745,27.140456 26.997745,27.140456 C 18.528582,18.264221 13.291696,25.230495 11.500037,31.436501 z"
             style="fill:#404040;"/>
          </a>
         </g>
        </svg>
</svg>
