<?xml version="1.0" encoding="UTF-8" standalone="no"?>
<!DOCTYPE svg PUBLIC "-//W3C//DTD SVG 1.1//EN"
 "http://www.w3.org/Graphics/SVG/1.1/DTD/svg11.dtd">
<!-- Generated by graphviz version 2.43.0 (0)
 -->
<!-- Title: AveNativa Pages: 1 -->
<!--zoomable 1254 -->
<svg id="main" version="1.1" xmlns="http://www.w3.org/2000/svg" xmlns:xlink="http://www.w3.org/1999/xlink" xml:space="preserve" onload="init(evt)">
<style type="text/css"><![CDATA[
.edge:hover path { stroke: red; }
.edge:hover polygon { stroke: red; fill: red; }
]]></style>
<script type="text/javascript"><![CDATA[
var edges = document.getElementsByTagName('g');
if (edges && edges.length) {
  for (var i=0;i<edges.length;i++) {
    if (edges[i].id.substr(0,4)=='edge') {
      edges[i].setAttribute('class','edge');
    }
  }
}
]]></script>
        <defs>
                <circle id="rim" cx="0" cy="0" r="7"/>
                <circle id="rim2" cx="0" cy="0" r="3.5"/>
                <g id="zoomPlus">
                        <use xlink:href="#rim" fill="#404040">
                                <set attributeName="fill" to="#808080" begin="zoomplus.mouseover" end="zoomplus.mouseout"/>
                        </use>
                        <path d="M-4,0h8M0,-4v8" fill="none" stroke="white" stroke-width="1.5" pointer-events="none"/>
                </g>
                <g id="zoomMin">
                        <use xlink:href="#rim" fill="#404040">
                                <set attributeName="fill" to="#808080" begin="zoomminus.mouseover" end="zoomminus.mouseout"/>
                        </use>
                        <path d="M-4,0h8" fill="none" stroke="white" stroke-width="1.5" pointer-events="none"/>
                </g>
                <g id="dirArrow">
                        <path fill="none" stroke="white" stroke-width="1.5" d="M0,-3.0v7 M-2.5,-0.5L0,-3.0L2.5,-0.5"/>
                </g>
               <g id="resetDef">
                       <use xlink:href="#rim2" fill="#404040">
                               <set attributeName="fill" to="#808080" begin="reset.mouseover" end="reset.mouseout"/>
                       </use>
               </g>
        </defs>

<script type="text/javascript">
var viewWidth = 765;
var viewHeight = 1254;
var sectionId = 'dynsection-1';
</script>
<script xlink:href="svgpan.js"/>
<svg id="graph" class="graph">
<g id="viewport">
<title>AveNativa</title>
<polygon fill="white" stroke="transparent" points="-4,4 -4,-1250 760.5,-1250 760.5,4 -4,4"/>
<!-- Node1 -->
<g id="node1" class="node">
<title>Node1</title>
<g id="a_node1"><a xlink:title="Implementação de animal com Classe e Categoria.">
<polygon fill="#bfbfbf" stroke="black" points="294,-0.5 294,-134.5 465,-134.5 465,-0.5 294,-0.5"/>
<text text-anchor="middle" x="379.5" y="-114.5" font-family="Helvetica,sans-Serif" font-size="20.00">AveNativa</text>
<polyline fill="none" stroke="black" points="294,-104.5 465,-104.5 "/>
<text text-anchor="middle" x="379.5" y="-84.5" font-family="Helvetica,sans-Serif" font-size="20.00"> </text>
<polyline fill="none" stroke="black" points="294,-74.5 465,-74.5 "/>
<text text-anchor="start" x="302" y="-54.5" font-family="Helvetica,sans-Serif" font-size="20.00">+ AveNativa()</text>
<text text-anchor="start" x="302" y="-32.5" font-family="Helvetica,sans-Serif" font-size="20.00">+ AveNativa()</text>
<text text-anchor="start" x="302" y="-10.5" font-family="Helvetica,sans-Serif" font-size="20.00">+ ~AveNativa()</text>
</a>
</g>
</g>
<!-- Node2 -->
<g id="node2" class="node">
<title>Node2</title>
<g id="a_node2"><a xlink:href="classAve.html" target="_top" xlink:title="Classificação base para Aves.">
<polygon fill="white" stroke="black" points="237.5,-172.5 237.5,-372.5 359.5,-372.5 359.5,-172.5 237.5,-172.5"/>
<text text-anchor="middle" x="298.5" y="-352.5" font-family="Helvetica,sans-Serif" font-size="20.00">Ave</text>
<polyline fill="none" stroke="black" points="237.5,-342.5 359.5,-342.5 "/>
<text text-anchor="middle" x="298.5" y="-322.5" font-family="Helvetica,sans-Serif" font-size="20.00"> </text>
<polyline fill="none" stroke="black" points="237.5,-312.5 359.5,-312.5 "/>
<text text-anchor="start" x="245.5" y="-292.5" font-family="Helvetica,sans-Serif" font-size="20.00">+ Ave()</text>
<text text-anchor="start" x="245.5" y="-270.5" font-family="Helvetica,sans-Serif" font-size="20.00">+ Ave()</text>
<text text-anchor="start" x="245.5" y="-248.5" font-family="Helvetica,sans-Serif" font-size="20.00">+ ~Ave()</text>
<text text-anchor="start" x="245.5" y="-226.5" font-family="Helvetica,sans-Serif" font-size="20.00">+ getVoa()</text>
<text text-anchor="start" x="245.5" y="-204.5" font-family="Helvetica,sans-Serif" font-size="20.00">+ setVoa()</text>
<text text-anchor="start" x="245.5" y="-182.5" font-family="Helvetica,sans-Serif" font-size="20.00">+ setVoa()</text>
</a>
</g>
</g>
<!-- Node2&#45;&gt;Node1 -->
<g id="edge1" class="edge">
<title>Node2&#45;&gt;Node1</title>
<path fill="none" stroke="midnightblue" d="M341.87,-162.8C345.69,-153.23 349.48,-143.75 353.09,-134.69"/>
<polygon fill="none" stroke="midnightblue" points="338.51,-161.79 338.05,-172.38 345.01,-164.39 338.51,-161.79"/>
</g>
<!-- Node3 -->
<g id="node3" class="node">
<title>Node3</title>
<g id="a_node3"><a xlink:href="classAnimal.html" target="_top" xlink:title="Implementação base para o cadastro de animais.">
<polygon fill="white" stroke="black" points="187,-676.5 187,-1052.5 410,-1052.5 410,-676.5 187,-676.5"/>
<text text-anchor="middle" x="298.5" y="-1032.5" font-family="Helvetica,sans-Serif" font-size="20.00">Animal</text>
<polyline fill="none" stroke="black" points="187,-1022.5 410,-1022.5 "/>
<text text-anchor="middle" x="298.5" y="-1002.5" font-family="Helvetica,sans-Serif" font-size="20.00"> </text>
<polyline fill="none" stroke="black" points="187,-992.5 410,-992.5 "/>
<text text-anchor="start" x="195" y="-972.5" font-family="Helvetica,sans-Serif" font-size="20.00">+ Animal()</text>
<text text-anchor="start" x="195" y="-950.5" font-family="Helvetica,sans-Serif" font-size="20.00">+ Animal()</text>
<text text-anchor="start" x="195" y="-928.5" font-family="Helvetica,sans-Serif" font-size="20.00">+ ~Animal()</text>
<text text-anchor="start" x="195" y="-906.5" font-family="Helvetica,sans-Serif" font-size="20.00">+ getNome()</text>
<text text-anchor="start" x="195" y="-884.5" font-family="Helvetica,sans-Serif" font-size="20.00">+ getEspecie()</text>
<text text-anchor="start" x="195" y="-862.5" font-family="Helvetica,sans-Serif" font-size="20.00">+ getAmeacadoPor()</text>
<text text-anchor="start" x="195" y="-840.5" font-family="Helvetica,sans-Serif" font-size="20.00">+ getVeterinario()</text>
<text text-anchor="start" x="195" y="-818.5" font-family="Helvetica,sans-Serif" font-size="20.00">+ getTratador()</text>
<text text-anchor="start" x="195" y="-796.5" font-family="Helvetica,sans-Serif" font-size="20.00">+ getPerigoso()</text>
<text text-anchor="start" x="195" y="-774.5" font-family="Helvetica,sans-Serif" font-size="20.00">+ setNome()</text>
<text text-anchor="start" x="195" y="-752.5" font-family="Helvetica,sans-Serif" font-size="20.00">e 13 mais...</text>
<text text-anchor="start" x="195" y="-730.5" font-family="Helvetica,sans-Serif" font-size="20.00">+ getClassificacao()</text>
<text text-anchor="start" x="195" y="-708.5" font-family="Helvetica,sans-Serif" font-size="20.00">+ getClasse()</text>
<text text-anchor="start" x="195" y="-686.5" font-family="Helvetica,sans-Serif" font-size="20.00">+ printOutDetails()</text>
</a>
</g>
</g>
<!-- Node3&#45;&gt;Node2 -->
<g id="edge2" class="edge">
<title>Node3&#45;&gt;Node2</title>
<path fill="none" stroke="midnightblue" d="M298.5,-666.32C298.5,-567.73 298.5,-452.7 298.5,-372.7"/>
<polygon fill="none" stroke="midnightblue" points="295,-666.42 298.5,-676.42 302,-666.42 295,-666.42"/>
</g>
<!-- Node4 -->
<g id="node4" class="node">
<title>Node4</title>
<g id="a_node4"><a xlink:title=" ">
<polygon fill="white" stroke="#bfbfbf" points="77,-1155.5 77,-1245.5 352,-1245.5 352,-1155.5 77,-1155.5"/>
<text text-anchor="middle" x="214.5" y="-1225.5" font-family="Helvetica,sans-Serif" font-size="20.00">shared_ptr&lt; Veterinario &gt;</text>
<polyline fill="none" stroke="#bfbfbf" points="77,-1215.5 352,-1215.5 "/>
<text text-anchor="middle" x="214.5" y="-1195.5" font-family="Helvetica,sans-Serif" font-size="20.00"> </text>
<polyline fill="none" stroke="#bfbfbf" points="77,-1185.5 352,-1185.5 "/>
<text text-anchor="middle" x="214.5" y="-1165.5" font-family="Helvetica,sans-Serif" font-size="20.00"> </text>
</a>
</g>
</g>
<!-- Node4&#45;&gt;Node3 -->
<g id="edge3" class="edge">
<title>Node4&#45;&gt;Node3</title>
<path fill="none" stroke="#404040" d="M213.61,-1155.36C213.93,-1130.36 215.71,-1098.66 221.5,-1071 221.96,-1068.82 222.43,-1066.64 222.92,-1064.45"/>
<polygon fill="none" stroke="#404040" points="222.95,-1064.35 220.45,-1057.59 225.73,-1052.68 228.23,-1059.44 222.95,-1064.35"/>
<text text-anchor="middle" x="286.5" y="-1099" font-family="Helvetica,sans-Serif" font-size="20.00"> #veterinario</text>
</g>
<!-- Node5 -->
<g id="node5" class="node">
<title>Node5</title>
<g id="a_node5"><a xlink:title=" ">
<polygon fill="white" stroke="#bfbfbf" points="0,-1155.5 0,-1245.5 59,-1245.5 59,-1155.5 0,-1155.5"/>
<text text-anchor="middle" x="29.5" y="-1225.5" font-family="Helvetica,sans-Serif" font-size="20.00">bool</text>
<polyline fill="none" stroke="#bfbfbf" points="0,-1215.5 59,-1215.5 "/>
<text text-anchor="middle" x="29.5" y="-1195.5" font-family="Helvetica,sans-Serif" font-size="20.00"> </text>
<polyline fill="none" stroke="#bfbfbf" points="0,-1185.5 59,-1185.5 "/>
<text text-anchor="middle" x="29.5" y="-1165.5" font-family="Helvetica,sans-Serif" font-size="20.00"> </text>
</a>
</g>
</g>
<!-- Node5&#45;&gt;Node2 -->
<g id="edge7" class="edge">
<title>Node5&#45;&gt;Node2</title>
<path fill="none" stroke="#404040" d="M33.37,-1155.21C42.16,-1063.95 67.06,-848.97 119.5,-676 150.54,-573.6 201.13,-462.89 240.61,-383.56"/>
<polygon fill="none" stroke="#404040" points="240.74,-383.31 239.85,-376.15 246.11,-372.57 247,-379.73 240.74,-383.31"/>
<text text-anchor="middle" x="149" y="-859.5" font-family="Helvetica,sans-Serif" font-size="20.00"> #voa</text>
</g>
<!-- Node5&#45;&gt;Node3 -->
<g id="edge4" class="edge">
<title>Node5&#45;&gt;Node3</title>
<path fill="none" stroke="#404040" d="M50.73,-1155.28C63.88,-1129.68 81.94,-1097.41 101.5,-1071 124.49,-1039.96 151.81,-1008.71 178.67,-980.28"/>
<polygon fill="none" stroke="#404040" points="178.71,-980.24 179.95,-973.14 186.98,-971.56 185.74,-978.66 178.71,-980.24"/>
<text text-anchor="middle" x="156" y="-1099" font-family="Helvetica,sans-Serif" font-size="20.00"> #perigoso</text>
</g>
<!-- Node6 -->
<g id="node6" class="node">
<title>Node6</title>
<g id="a_node6"><a xlink:title=" ">
<polygon fill="white" stroke="#bfbfbf" points="637.5,-1155.5 637.5,-1245.5 711.5,-1245.5 711.5,-1155.5 637.5,-1155.5"/>
<text text-anchor="middle" x="674.5" y="-1225.5" font-family="Helvetica,sans-Serif" font-size="20.00">string</text>
<polyline fill="none" stroke="#bfbfbf" points="637.5,-1215.5 711.5,-1215.5 "/>
<text text-anchor="middle" x="674.5" y="-1195.5" font-family="Helvetica,sans-Serif" font-size="20.00"> </text>
<polyline fill="none" stroke="#bfbfbf" points="637.5,-1185.5 711.5,-1185.5 "/>
<text text-anchor="middle" x="674.5" y="-1165.5" font-family="Helvetica,sans-Serif" font-size="20.00"> </text>
</a>
</g>
</g>
<!-- Node6&#45;&gt;Node3 -->
<g id="edge5" class="edge">
<title>Node6&#45;&gt;Node3</title>
<path fill="none" stroke="#404040" d="M637.25,-1160.11C634.42,-1158.19 631.5,-1156.46 628.5,-1155 576.88,-1129.79 544.9,-1173.46 500.5,-1137 476.49,-1117.28 493.1,-1097.87 477.5,-1071 460.84,-1042.3 439.87,-1013.9 418.21,-987.79"/>
<polygon fill="none" stroke="#404040" points="417.93,-987.46 411.01,-985.45 410.2,-978.28 417.13,-980.3 417.93,-987.46"/>
<text text-anchor="middle" x="576.5" y="-1121" font-family="Helvetica,sans-Serif" font-size="20.00"> #especie</text>
<text text-anchor="middle" x="576.5" y="-1099" font-family="Helvetica,sans-Serif" font-size="20.00">#ameacadoPor</text>
<text text-anchor="middle" x="576.5" y="-1077" font-family="Helvetica,sans-Serif" font-size="20.00">#nome</text>
</g>
<!-- Node8 -->
<g id="node8" class="node">
<title>Node8</title>
<g id="a_node8"><a xlink:href="classNativo.html" target="_top" xlink:title="Umas das definições de categoria para Animal.">
<polygon fill="white" stroke="black" points="453.5,-391.5 453.5,-657.5 615.5,-657.5 615.5,-391.5 453.5,-391.5"/>
<text text-anchor="middle" x="534.5" y="-637.5" font-family="Helvetica,sans-Serif" font-size="20.00">Nativo</text>
<polyline fill="none" stroke="black" points="453.5,-627.5 615.5,-627.5 "/>
<text text-anchor="middle" x="534.5" y="-607.5" font-family="Helvetica,sans-Serif" font-size="20.00"> </text>
<polyline fill="none" stroke="black" points="453.5,-597.5 615.5,-597.5 "/>
<text text-anchor="start" x="461.5" y="-577.5" font-family="Helvetica,sans-Serif" font-size="20.00">+ Nativo()</text>
<text text-anchor="start" x="461.5" y="-555.5" font-family="Helvetica,sans-Serif" font-size="20.00">+ Nativo()</text>
<text text-anchor="start" x="461.5" y="-533.5" font-family="Helvetica,sans-Serif" font-size="20.00">+ ~Nativo()</text>
<text text-anchor="start" x="461.5" y="-511.5" font-family="Helvetica,sans-Serif" font-size="20.00">+ getRegiao()</text>
<text text-anchor="start" x="461.5" y="-489.5" font-family="Helvetica,sans-Serif" font-size="20.00">+ setRegiao()</text>
<text text-anchor="start" x="461.5" y="-467.5" font-family="Helvetica,sans-Serif" font-size="20.00">+ setRegiao()</text>
<text text-anchor="start" x="461.5" y="-445.5" font-family="Helvetica,sans-Serif" font-size="20.00">+ getLicenca()</text>
<text text-anchor="start" x="461.5" y="-423.5" font-family="Helvetica,sans-Serif" font-size="20.00">+ setLicenca()</text>
<text text-anchor="start" x="461.5" y="-401.5" font-family="Helvetica,sans-Serif" font-size="20.00">+ setLicenca()</text>
</a>
</g>
</g>
<!-- Node6&#45;&gt;Node8 -->
<g id="edge9" class="edge">
<title>Node6&#45;&gt;Node8</title>
<path fill="none" stroke="#404040" d="M667.44,-1155.4C663.34,-1130.56 657.92,-1099 652.5,-1071 626.04,-934.36 592.12,-779.31 567.45,-669.54"/>
<polygon fill="none" stroke="#404040" points="567.42,-669.43 562.2,-664.45 564.79,-657.72 570.01,-662.7 567.42,-669.43"/>
<text text-anchor="middle" x="710" y="-1110" font-family="Helvetica,sans-Serif" font-size="20.00"> #licenca</text>
<text text-anchor="middle" x="710" y="-1088" font-family="Helvetica,sans-Serif" font-size="20.00">#regiao</text>
</g>
<!-- Node7 -->
<g id="node7" class="node">
<title>Node7</title>
<g id="a_node7"><a xlink:title=" ">
<polygon fill="white" stroke="#bfbfbf" points="370,-1155.5 370,-1245.5 619,-1245.5 619,-1155.5 370,-1155.5"/>
<text text-anchor="middle" x="494.5" y="-1225.5" font-family="Helvetica,sans-Serif" font-size="20.00">shared_ptr&lt; Tratador &gt;</text>
<polyline fill="none" stroke="#bfbfbf" points="370,-1215.5 619,-1215.5 "/>
<text text-anchor="middle" x="494.5" y="-1195.5" font-family="Helvetica,sans-Serif" font-size="20.00"> </text>
<polyline fill="none" stroke="#bfbfbf" points="370,-1185.5 619,-1185.5 "/>
<text text-anchor="middle" x="494.5" y="-1165.5" font-family="Helvetica,sans-Serif" font-size="20.00"> </text>
</a>
</g>
</g>
<!-- Node7&#45;&gt;Node3 -->
<g id="edge6" class="edge">
<title>Node7&#45;&gt;Node3</title>
<path fill="none" stroke="#404040" d="M393.32,-1155.36C386.38,-1149.85 379.98,-1143.75 374.5,-1137 371.3,-1133.05 362.17,-1103.09 351.31,-1064.41"/>
<polygon fill="none" stroke="#404040" points="351.27,-1064.28 345.8,-1059.57 348.04,-1052.72 353.51,-1057.42 351.27,-1064.28"/>
<text text-anchor="middle" x="426" y="-1099" font-family="Helvetica,sans-Serif" font-size="20.00"> #tratador</text>
</g>
<!-- Node8&#45;&gt;Node1 -->
<g id="edge8" class="edge">
<title>Node8&#45;&gt;Node1</title>
<path fill="none" stroke="midnightblue" d="M486.15,-381.57C458.05,-299.08 423.96,-199.02 402.01,-134.58"/>
<polygon fill="none" stroke="midnightblue" points="482.92,-382.95 489.46,-391.28 489.55,-380.69 482.92,-382.95"/>
</g>
</g>
</svg>
        <g id="navigator" transform="translate(0 0)" fill="#404254">
                <rect fill="#f2f5e9" fill-opacity="0.5" stroke="#606060" stroke-width=".5" x="0" y="0" width="60" height="60"/>
                <use id="zoomplus" xlink:href="#zoomPlus" x="17" y="9" onmousedown="handleZoom(evt,'in')"/>
                <use id="zoomminus" xlink:href="#zoomMin" x="42" y="9" onmousedown="handleZoom(evt,'out')"/>
                <use id="reset" xlink:href="#resetDef" x="30" y="36" onmousedown="handleReset()"/>
                <g id="arrowUp" xlink:href="#dirArrow" transform="translate(30 24)" onmousedown="handlePan(0,-1)">
                  <use xlink:href="#rim" fill="#404040">
                        <set attributeName="fill" to="#808080" begin="arrowUp.mouseover" end="arrowUp.mouseout"/>
                  </use>
                  <path fill="none" stroke="white" stroke-width="1.5" d="M0,-3.0v7 M-2.5,-0.5L0,-3.0L2.5,-0.5"/>
                </g>
                <g id="arrowRight" xlink:href="#dirArrow" transform="rotate(90) translate(36 -43)" onmousedown="handlePan(1,0)">
                  <use xlink:href="#rim" fill="#404040">
                        <set attributeName="fill" to="#808080" begin="arrowRight.mouseover" end="arrowRight.mouseout"/>
                  </use>
                  <path fill="none" stroke="white" stroke-width="1.5" d="M0,-3.0v7 M-2.5,-0.5L0,-3.0L2.5,-0.5"/>
                </g>
                <g id="arrowDown" xlink:href="#dirArrow" transform="rotate(180) translate(-30 -48)" onmousedown="handlePan(0,1)">
                  <use xlink:href="#rim" fill="#404040">
                        <set attributeName="fill" to="#808080" begin="arrowDown.mouseover" end="arrowDown.mouseout"/>
                  </use>
                  <path fill="none" stroke="white" stroke-width="1.5" d="M0,-3.0v7 M-2.5,-0.5L0,-3.0L2.5,-0.5"/>
                </g>
                <g id="arrowLeft" xlink:href="#dirArrow" transform="rotate(270) translate(-36 17)" onmousedown="handlePan(-1,0)">
                  <use xlink:href="#rim" fill="#404040">
                        <set attributeName="fill" to="#808080" begin="arrowLeft.mouseover" end="arrowLeft.mouseout"/>
                  </use>
                  <path fill="none" stroke="white" stroke-width="1.5" d="M0,-3.0v7 M-2.5,-0.5L0,-3.0L2.5,-0.5"/>
                </g>
        </g>
        <svg viewBox="0 0 15 15" width="100%" height="30px" preserveAspectRatio="xMaxYMin meet">
         <g id="arrow_out" transform="scale(0.3 0.3)">
          <a xlink:href="classAveNativa__coll__graph_org.svg" target="_base">
           <rect id="button" ry="5" rx="5" y="6" x="6" height="38" width="38"
                fill="#f2f5e9" fill-opacity="0.5" stroke="#606060" stroke-width="1.0"/>
           <path id="arrow"
             d="M 11.500037,31.436501 C 11.940474,20.09759 22.043105,11.32322 32.158766,21.979434 L 37.068811,17.246167 C 37.068811,17.246167 37.088388,32 37.088388,32 L 22.160133,31.978069 C 22.160133,31.978069 26.997745,27.140456 26.997745,27.140456 C 18.528582,18.264221 13.291696,25.230495 11.500037,31.436501 z"
             style="fill:#404040;"/>
          </a>
         </g>
        </svg>
</svg>
