<?xml version="1.0" encoding="UTF-8" standalone="no"?>
<!DOCTYPE svg PUBLIC "-//W3C//DTD SVG 1.1//EN"
 "http://www.w3.org/Graphics/SVG/1.1/DTD/svg11.dtd">
<!-- Generated by graphviz version 2.43.0 (0)
 -->
<!-- Title: ReptilExotico Pages: 1 -->
<!--zoomable 1926 -->
<svg id="main" version="1.1" xmlns="http://www.w3.org/2000/svg" xmlns:xlink="http://www.w3.org/1999/xlink" xml:space="preserve" onload="init(evt)">
<style type="text/css"><![CDATA[
.edge:hover path { stroke: red; }
.edge:hover polygon { stroke: red; fill: red; }
]]></style>
<script type="text/javascript"><![CDATA[
var edges = document.getElementsByTagName('g');
if (edges && edges.length) {
  for (var i=0;i<edges.length;i++) {
    if (edges[i].id.substr(0,4)=='edge') {
      edges[i].setAttribute('class','edge');
    }
  }
}
]]></script>
        <defs>
                <circle id="rim" cx="0" cy="0" r="7"/>
                <circle id="rim2" cx="0" cy="0" r="3.5"/>
                <g id="zoomPlus">
                        <use xlink:href="#rim" fill="#404040">
                                <set attributeName="fill" to="#808080" begin="zoomplus.mouseover" end="zoomplus.mouseout"/>
                        </use>
                        <path d="M-4,0h8M0,-4v8" fill="none" stroke="white" stroke-width="1.5" pointer-events="none"/>
                </g>
                <g id="zoomMin">
                        <use xlink:href="#rim" fill="#404040">
                                <set attributeName="fill" to="#808080" begin="zoomminus.mouseover" end="zoomminus.mouseout"/>
                        </use>
                        <path d="M-4,0h8" fill="none" stroke="white" stroke-width="1.5" pointer-events="none"/>
                </g>
                <g id="dirArrow">
                        <path fill="none" stroke="white" stroke-width="1.5" d="M0,-3.0v7 M-2.5,-0.5L0,-3.0L2.5,-0.5"/>
                </g>
               <g id="resetDef">
                       <use xlink:href="#rim2" fill="#404040">
                               <set attributeName="fill" to="#808080" begin="reset.mouseover" end="reset.mouseout"/>
                       </use>
               </g>
        </defs>

<script type="text/javascript">
var viewWidth = 706;
var viewHeight = 1926;
var sectionId = 'dynsection-1';
</script>
<script xlink:href="svgpan.js"/>
<svg id="graph" class="graph">
<g id="viewport">
<title>ReptilExotico</title>
<polygon fill="white" stroke="transparent" points="-4,4 -4,-1922 702.38,-1922 702.38,4 -4,4"/>
<!-- Node1 -->
<g id="node1" class="node">
<title>Node1</title>
<g id="a_node1"><a xlink:title="Implementação de animal com Classe e Categoria.">
<polygon fill="#bfbfbf" stroke="black" points="407.88,-0.5 407.88,-134.5 605.88,-134.5 605.88,-0.5 407.88,-0.5"/>
<text text-anchor="middle" x="506.88" y="-114.5" font-family="Helvetica,sans-Serif" font-size="20.00">ReptilExotico</text>
<polyline fill="none" stroke="black" points="407.88,-104.5 605.88,-104.5 "/>
<text text-anchor="middle" x="506.88" y="-84.5" font-family="Helvetica,sans-Serif" font-size="20.00"> </text>
<polyline fill="none" stroke="black" points="407.88,-74.5 605.88,-74.5 "/>
<text text-anchor="start" x="415.88" y="-54.5" font-family="Helvetica,sans-Serif" font-size="20.00">+ ReptilExotico()</text>
<text text-anchor="start" x="415.88" y="-32.5" font-family="Helvetica,sans-Serif" font-size="20.00">+ ReptilExotico()</text>
<text text-anchor="start" x="415.88" y="-10.5" font-family="Helvetica,sans-Serif" font-size="20.00">+ ~ReptilExotico()</text>
</a>
</g>
</g>
<!-- Node2 -->
<g id="node2" class="node">
<title>Node2</title>
<g id="a_node2"><a xlink:href="classReptil.html" target="_top" xlink:title="Classificação base para Repteis.">
<polygon fill="white" stroke="black" points="305.38,-172.5 305.38,-372.5 432.38,-372.5 432.38,-172.5 305.38,-172.5"/>
<text text-anchor="middle" x="368.88" y="-352.5" font-family="Helvetica,sans-Serif" font-size="20.00">Reptil</text>
<polyline fill="none" stroke="black" points="305.38,-342.5 432.38,-342.5 "/>
<text text-anchor="middle" x="368.88" y="-322.5" font-family="Helvetica,sans-Serif" font-size="20.00"> </text>
<polyline fill="none" stroke="black" points="305.38,-312.5 432.38,-312.5 "/>
<text text-anchor="start" x="313.38" y="-292.5" font-family="Helvetica,sans-Serif" font-size="20.00">+ Reptil()</text>
<text text-anchor="start" x="313.38" y="-270.5" font-family="Helvetica,sans-Serif" font-size="20.00">+ Reptil()</text>
<text text-anchor="start" x="313.38" y="-248.5" font-family="Helvetica,sans-Serif" font-size="20.00">+ ~Reptil()</text>
<text text-anchor="start" x="313.38" y="-226.5" font-family="Helvetica,sans-Serif" font-size="20.00">+ getPele()</text>
<text text-anchor="start" x="313.38" y="-204.5" font-family="Helvetica,sans-Serif" font-size="20.00">+ setPele()</text>
<text text-anchor="start" x="313.38" y="-182.5" font-family="Helvetica,sans-Serif" font-size="20.00">+ setPele()</text>
</a>
</g>
</g>
<!-- Node2&#45;&gt;Node1 -->
<g id="edge1" class="edge">
<title>Node2&#45;&gt;Node1</title>
<path fill="none" stroke="midnightblue" d="M438.29,-169.41C446.33,-157.57 454.37,-145.74 461.97,-134.57"/>
<polygon fill="none" stroke="midnightblue" points="435.16,-167.78 432.43,-178.02 440.95,-171.72 435.16,-167.78"/>
</g>
<!-- Node3 -->
<g id="node3" class="node">
<title>Node3</title>
<g id="a_node3"><a xlink:href="classAnimal.html" target="_top" xlink:title="Implementação base para o cadastro de animais.">
<polygon fill="white" stroke="black" points="257.38,-431.5 257.38,-807.5 480.38,-807.5 480.38,-431.5 257.38,-431.5"/>
<text text-anchor="middle" x="368.88" y="-787.5" font-family="Helvetica,sans-Serif" font-size="20.00">Animal</text>
<polyline fill="none" stroke="black" points="257.38,-777.5 480.38,-777.5 "/>
<text text-anchor="middle" x="368.88" y="-757.5" font-family="Helvetica,sans-Serif" font-size="20.00"> </text>
<polyline fill="none" stroke="black" points="257.38,-747.5 480.38,-747.5 "/>
<text text-anchor="start" x="265.38" y="-727.5" font-family="Helvetica,sans-Serif" font-size="20.00">+ Animal()</text>
<text text-anchor="start" x="265.38" y="-705.5" font-family="Helvetica,sans-Serif" font-size="20.00">+ Animal()</text>
<text text-anchor="start" x="265.38" y="-683.5" font-family="Helvetica,sans-Serif" font-size="20.00">+ ~Animal()</text>
<text text-anchor="start" x="265.38" y="-661.5" font-family="Helvetica,sans-Serif" font-size="20.00">+ getNome()</text>
<text text-anchor="start" x="265.38" y="-639.5" font-family="Helvetica,sans-Serif" font-size="20.00">+ getEspecie()</text>
<text text-anchor="start" x="265.38" y="-617.5" font-family="Helvetica,sans-Serif" font-size="20.00">+ getAmeacadoPor()</text>
<text text-anchor="start" x="265.38" y="-595.5" font-family="Helvetica,sans-Serif" font-size="20.00">+ getVeterinario()</text>
<text text-anchor="start" x="265.38" y="-573.5" font-family="Helvetica,sans-Serif" font-size="20.00">+ getTratador()</text>
<text text-anchor="start" x="265.38" y="-551.5" font-family="Helvetica,sans-Serif" font-size="20.00">+ getPerigoso()</text>
<text text-anchor="start" x="265.38" y="-529.5" font-family="Helvetica,sans-Serif" font-size="20.00">+ setNome()</text>
<text text-anchor="start" x="265.38" y="-507.5" font-family="Helvetica,sans-Serif" font-size="20.00">e 13 mais...</text>
<text text-anchor="start" x="265.38" y="-485.5" font-family="Helvetica,sans-Serif" font-size="20.00">+ getClassificacao()</text>
<text text-anchor="start" x="265.38" y="-463.5" font-family="Helvetica,sans-Serif" font-size="20.00">+ getClasse()</text>
<text text-anchor="start" x="265.38" y="-441.5" font-family="Helvetica,sans-Serif" font-size="20.00">+ printOutDetails()</text>
</a>
</g>
</g>
<!-- Node3&#45;&gt;Node2 -->
<g id="edge2" class="edge">
<title>Node3&#45;&gt;Node2</title>
<path fill="none" stroke="midnightblue" d="M368.88,-421.02C368.88,-404.46 368.88,-388.22 368.88,-372.91"/>
<polygon fill="none" stroke="midnightblue" points="365.38,-421.36 368.88,-431.36 372.38,-421.36 365.38,-421.36"/>
</g>
<!-- Node4 -->
<g id="node4" class="node">
<title>Node4</title>
<g id="a_node4"><a xlink:href="classTratador.html" target="_top" xlink:title="Implementação dos tratadores.">
<polygon fill="white" stroke="black" points="88.88,-866.5 88.88,-1088.5 288.88,-1088.5 288.88,-866.5 88.88,-866.5"/>
<text text-anchor="middle" x="188.88" y="-1068.5" font-family="Helvetica,sans-Serif" font-size="20.00">Tratador</text>
<polyline fill="none" stroke="black" points="88.88,-1058.5 288.88,-1058.5 "/>
<text text-anchor="middle" x="188.88" y="-1038.5" font-family="Helvetica,sans-Serif" font-size="20.00"> </text>
<polyline fill="none" stroke="black" points="88.88,-1028.5 288.88,-1028.5 "/>
<text text-anchor="start" x="96.88" y="-1008.5" font-family="Helvetica,sans-Serif" font-size="20.00">+ Tratador()</text>
<text text-anchor="start" x="96.88" y="-986.5" font-family="Helvetica,sans-Serif" font-size="20.00">+ Tratador()</text>
<text text-anchor="start" x="96.88" y="-964.5" font-family="Helvetica,sans-Serif" font-size="20.00">+ ~Tratador()</text>
<text text-anchor="start" x="96.88" y="-942.5" font-family="Helvetica,sans-Serif" font-size="20.00">+ getUniforme()</text>
<text text-anchor="start" x="96.88" y="-920.5" font-family="Helvetica,sans-Serif" font-size="20.00">+ setUniforme()</text>
<text text-anchor="start" x="96.88" y="-898.5" font-family="Helvetica,sans-Serif" font-size="20.00">+ setUniforme()</text>
<text text-anchor="start" x="96.88" y="-876.5" font-family="Helvetica,sans-Serif" font-size="20.00">+ printOutDados()</text>
</a>
</g>
</g>
<!-- Node4&#45;&gt;Node3 -->
<g id="edge3" class="edge">
<title>Node4&#45;&gt;Node3</title>
<path fill="none" stroke="#404040" d="M241.1,-866.13C247.68,-852.57 254.39,-838.94 260.88,-826 262.11,-823.55 263.35,-821.08 264.6,-818.6"/>
<polygon fill="none" stroke="#404040" points="264.72,-818.37 263.86,-811.21 270.14,-807.67 271,-814.83 264.72,-818.37"/>
<text text-anchor="middle" x="312.38" y="-832" font-family="Helvetica,sans-Serif" font-size="20.00"> #tratador</text>
</g>
<!-- Node5 -->
<g id="node5" class="node">
<title>Node5</title>
<g id="a_node5"><a xlink:href="classPessoa.html" target="_top" xlink:title="Classe base dos funcionarios.">
<polygon fill="white" stroke="black" points="267.88,-1326.5 267.88,-1724.5 467.88,-1724.5 467.88,-1326.5 267.88,-1326.5"/>
<text text-anchor="middle" x="367.88" y="-1704.5" font-family="Helvetica,sans-Serif" font-size="20.00">Pessoa</text>
<polyline fill="none" stroke="black" points="267.88,-1694.5 467.88,-1694.5 "/>
<text text-anchor="middle" x="367.88" y="-1674.5" font-family="Helvetica,sans-Serif" font-size="20.00"> </text>
<polyline fill="none" stroke="black" points="267.88,-1664.5 467.88,-1664.5 "/>
<text text-anchor="start" x="275.88" y="-1644.5" font-family="Helvetica,sans-Serif" font-size="20.00">+ Pessoa()</text>
<text text-anchor="start" x="275.88" y="-1622.5" font-family="Helvetica,sans-Serif" font-size="20.00">+ Pessoa()</text>
<text text-anchor="start" x="275.88" y="-1600.5" font-family="Helvetica,sans-Serif" font-size="20.00">+ ~Pessoa()</text>
<text text-anchor="start" x="275.88" y="-1578.5" font-family="Helvetica,sans-Serif" font-size="20.00">+ getNome()</text>
<text text-anchor="start" x="275.88" y="-1556.5" font-family="Helvetica,sans-Serif" font-size="20.00">+ setNome()</text>
<text text-anchor="start" x="275.88" y="-1534.5" font-family="Helvetica,sans-Serif" font-size="20.00">+ setNome()</text>
<text text-anchor="start" x="275.88" y="-1512.5" font-family="Helvetica,sans-Serif" font-size="20.00">+ getTelefone()</text>
<text text-anchor="start" x="275.88" y="-1490.5" font-family="Helvetica,sans-Serif" font-size="20.00">+ setTelefone()</text>
<text text-anchor="start" x="275.88" y="-1468.5" font-family="Helvetica,sans-Serif" font-size="20.00">+ setTelefone()</text>
<text text-anchor="start" x="275.88" y="-1446.5" font-family="Helvetica,sans-Serif" font-size="20.00">+ getEmail()</text>
<text text-anchor="start" x="275.88" y="-1424.5" font-family="Helvetica,sans-Serif" font-size="20.00">+ setEmail()</text>
<text text-anchor="start" x="275.88" y="-1402.5" font-family="Helvetica,sans-Serif" font-size="20.00">+ setEmail()</text>
<text text-anchor="start" x="275.88" y="-1380.5" font-family="Helvetica,sans-Serif" font-size="20.00">+ printOutDados()</text>
<text text-anchor="start" x="275.88" y="-1358.5" font-family="Helvetica,sans-Serif" font-size="20.00">+ operator==()</text>
<text text-anchor="start" x="275.88" y="-1336.5" font-family="Helvetica,sans-Serif" font-size="20.00">+ operator==()</text>
</a>
</g>
</g>
<!-- Node5&#45;&gt;Node4 -->
<g id="edge4" class="edge">
<title>Node5&#45;&gt;Node4</title>
<path fill="none" stroke="midnightblue" d="M357.43,-1316.24C348.05,-1247.2 331.12,-1171.55 300.88,-1107 297.43,-1099.63 293.43,-1092.36 289.03,-1085.26"/>
<polygon fill="none" stroke="midnightblue" points="353.99,-1316.91 358.76,-1326.37 360.93,-1316 353.99,-1316.91"/>
</g>
<!-- Node9 -->
<g id="node9" class="node">
<title>Node9</title>
<g id="a_node9"><a xlink:href="classVeterinario.html" target="_top" xlink:title="Implementação dos veterinarios.">
<polygon fill="white" stroke="black" points="306.88,-866.5 306.88,-1088.5 506.88,-1088.5 506.88,-866.5 306.88,-866.5"/>
<text text-anchor="middle" x="406.88" y="-1068.5" font-family="Helvetica,sans-Serif" font-size="20.00">Veterinario</text>
<polyline fill="none" stroke="black" points="306.88,-1058.5 506.88,-1058.5 "/>
<text text-anchor="middle" x="406.88" y="-1038.5" font-family="Helvetica,sans-Serif" font-size="20.00"> </text>
<polyline fill="none" stroke="black" points="306.88,-1028.5 506.88,-1028.5 "/>
<text text-anchor="start" x="314.88" y="-1008.5" font-family="Helvetica,sans-Serif" font-size="20.00">+ Veterinario()</text>
<text text-anchor="start" x="314.88" y="-986.5" font-family="Helvetica,sans-Serif" font-size="20.00">+ Veterinario()</text>
<text text-anchor="start" x="314.88" y="-964.5" font-family="Helvetica,sans-Serif" font-size="20.00">+ ~Veterinario()</text>
<text text-anchor="start" x="314.88" y="-942.5" font-family="Helvetica,sans-Serif" font-size="20.00">+ getCRMV()</text>
<text text-anchor="start" x="314.88" y="-920.5" font-family="Helvetica,sans-Serif" font-size="20.00">+ setCRMV()</text>
<text text-anchor="start" x="314.88" y="-898.5" font-family="Helvetica,sans-Serif" font-size="20.00">+ setCRMV()</text>
<text text-anchor="start" x="314.88" y="-876.5" font-family="Helvetica,sans-Serif" font-size="20.00">+ printOutDados()</text>
</a>
</g>
</g>
<!-- Node5&#45;&gt;Node9 -->
<g id="edge10" class="edge">
<title>Node5&#45;&gt;Node9</title>
<path fill="none" stroke="midnightblue" d="M382.79,-1315.85C388.31,-1238.51 394.36,-1153.85 399.01,-1088.7"/>
<polygon fill="none" stroke="midnightblue" points="379.27,-1316 382.05,-1326.22 386.25,-1316.5 379.27,-1316"/>
</g>
<!-- Node6 -->
<g id="node6" class="node">
<title>Node6</title>
<g id="a_node6"><a xlink:title=" ">
<polygon fill="white" stroke="#bfbfbf" points="410.88,-1827.5 410.88,-1917.5 484.88,-1917.5 484.88,-1827.5 410.88,-1827.5"/>
<text text-anchor="middle" x="447.88" y="-1897.5" font-family="Helvetica,sans-Serif" font-size="20.00">string</text>
<polyline fill="none" stroke="#bfbfbf" points="410.88,-1887.5 484.88,-1887.5 "/>
<text text-anchor="middle" x="447.88" y="-1867.5" font-family="Helvetica,sans-Serif" font-size="20.00"> </text>
<polyline fill="none" stroke="#bfbfbf" points="410.88,-1857.5 484.88,-1857.5 "/>
<text text-anchor="middle" x="447.88" y="-1837.5" font-family="Helvetica,sans-Serif" font-size="20.00"> </text>
</a>
</g>
</g>
<!-- Node6&#45;&gt;Node3 -->
<g id="edge8" class="edge">
<title>Node6&#45;&gt;Node3</title>
<path fill="none" stroke="#404040" d="M410.82,-1865.14C344.43,-1851.72 205.41,-1814.11 132.88,-1725 12.71,-1577.34 56.81,-1497.12 34.88,-1308 12.14,-1111.85 -49.05,-1015.56 79.88,-866 131.46,-806.17 185.73,-856.75 247.88,-808 247.98,-807.92 248.08,-807.84 248.18,-807.76"/>
<polygon fill="none" stroke="#404040" points="248.09,-807.84 250.14,-800.92 257.31,-800.15 255.26,-807.07 248.09,-807.84"/>
<text text-anchor="middle" x="110.88" y="-1224.5" font-family="Helvetica,sans-Serif" font-size="20.00"> #especie</text>
<text text-anchor="middle" x="110.88" y="-1202.5" font-family="Helvetica,sans-Serif" font-size="20.00">#ameacadoPor</text>
<text text-anchor="middle" x="110.88" y="-1180.5" font-family="Helvetica,sans-Serif" font-size="20.00">#nome</text>
</g>
<!-- Node6&#45;&gt;Node5 -->
<g id="edge5" class="edge">
<title>Node6&#45;&gt;Node5</title>
<path fill="none" stroke="#404040" d="M410.68,-1836.89C403.64,-1828.45 397.15,-1818.96 392.88,-1809 383.13,-1786.24 376.24,-1761.53 371.47,-1736.5"/>
<polygon fill="none" stroke="#404040" points="371.46,-1736.41 366.47,-1731.2 369.36,-1724.59 374.35,-1729.8 371.46,-1736.41"/>
<text text-anchor="middle" x="441.38" y="-1793" font-family="Helvetica,sans-Serif" font-size="20.00"> #email</text>
<text text-anchor="middle" x="441.38" y="-1771" font-family="Helvetica,sans-Serif" font-size="20.00">#nome</text>
<text text-anchor="middle" x="441.38" y="-1749" font-family="Helvetica,sans-Serif" font-size="20.00">#telefone</text>
</g>
<!-- Node6&#45;&gt;Node9 -->
<g id="edge11" class="edge">
<title>Node6&#45;&gt;Node9</title>
<path fill="none" stroke="#404040" d="M482,-1827.37C485.21,-1821.45 487.98,-1815.25 489.88,-1809 498.43,-1780.94 490.34,-1772.33 489.88,-1743 486.99,-1557.6 498.15,-1510.2 476.88,-1326 468.16,-1250.45 451.54,-1166.86 436.69,-1100.6"/>
<polygon fill="none" stroke="#404040" points="436.68,-1100.56 431.46,-1095.59 434.04,-1088.86 439.26,-1093.83 436.68,-1100.56"/>
<text text-anchor="middle" x="527.38" y="-1520.5" font-family="Helvetica,sans-Serif" font-size="20.00"> &#45;CRMV</text>
</g>
<!-- Node11 -->
<g id="node11" class="node">
<title>Node11</title>
<g id="a_node11"><a xlink:href="classExotico.html" target="_top" xlink:title="Umas das definições de categoria para Animal.">
<polygon fill="white" stroke="black" points="555.38,-1107.5 555.38,-1307.5 698.38,-1307.5 698.38,-1107.5 555.38,-1107.5"/>
<text text-anchor="middle" x="626.88" y="-1287.5" font-family="Helvetica,sans-Serif" font-size="20.00">Exotico</text>
<polyline fill="none" stroke="black" points="555.38,-1277.5 698.38,-1277.5 "/>
<text text-anchor="middle" x="626.88" y="-1257.5" font-family="Helvetica,sans-Serif" font-size="20.00"> </text>
<polyline fill="none" stroke="black" points="555.38,-1247.5 698.38,-1247.5 "/>
<text text-anchor="start" x="563.38" y="-1227.5" font-family="Helvetica,sans-Serif" font-size="20.00">+ Exotico()</text>
<text text-anchor="start" x="563.38" y="-1205.5" font-family="Helvetica,sans-Serif" font-size="20.00">+ Exotico()</text>
<text text-anchor="start" x="563.38" y="-1183.5" font-family="Helvetica,sans-Serif" font-size="20.00">+ ~Exotico()</text>
<text text-anchor="start" x="563.38" y="-1161.5" font-family="Helvetica,sans-Serif" font-size="20.00">+ getLocal()</text>
<text text-anchor="start" x="563.38" y="-1139.5" font-family="Helvetica,sans-Serif" font-size="20.00">+ setLocal()</text>
<text text-anchor="start" x="563.38" y="-1117.5" font-family="Helvetica,sans-Serif" font-size="20.00">+ setLocal()</text>
</a>
</g>
</g>
<!-- Node6&#45;&gt;Node11 -->
<g id="edge14" class="edge">
<title>Node6&#45;&gt;Node11</title>
<path fill="none" stroke="#404040" d="M485.07,-1844.04C517.37,-1817.66 561.88,-1774.56 580.88,-1725 631.7,-1592.46 637.37,-1427.26 634.23,-1319.9"/>
<polygon fill="none" stroke="#404040" points="634.22,-1319.74 630.03,-1313.88 633.83,-1307.75 638.02,-1313.62 634.22,-1319.74"/>
<text text-anchor="middle" x="605.38" y="-1771" font-family="Helvetica,sans-Serif" font-size="20.00"> #local</text>
</g>
<!-- Node7 -->
<g id="node7" class="node">
<title>Node7</title>
<g id="a_node7"><a xlink:title=" ">
<polygon fill="white" stroke="#bfbfbf" points="142.38,-1480.5 142.38,-1570.5 249.38,-1570.5 249.38,-1480.5 142.38,-1480.5"/>
<text text-anchor="middle" x="195.88" y="-1550.5" font-family="Helvetica,sans-Serif" font-size="20.00">Uniforme</text>
<polyline fill="none" stroke="#bfbfbf" points="142.38,-1540.5 249.38,-1540.5 "/>
<text text-anchor="middle" x="195.88" y="-1520.5" font-family="Helvetica,sans-Serif" font-size="20.00"> </text>
<polyline fill="none" stroke="#bfbfbf" points="142.38,-1510.5 249.38,-1510.5 "/>
<text text-anchor="middle" x="195.88" y="-1490.5" font-family="Helvetica,sans-Serif" font-size="20.00"> </text>
</a>
</g>
</g>
<!-- Node7&#45;&gt;Node4 -->
<g id="edge6" class="edge">
<title>Node7&#45;&gt;Node4</title>
<path fill="none" stroke="#404040" d="M195.32,-1480.28C194.27,-1398.55 191.99,-1221.21 190.45,-1100.81"/>
<polygon fill="none" stroke="#404040" points="190.45,-1100.61 186.37,-1094.66 190.29,-1088.61 194.37,-1094.56 190.45,-1100.61"/>
<text text-anchor="middle" x="245.38" y="-1202.5" font-family="Helvetica,sans-Serif" font-size="20.00"> &#45;uniforme</text>
</g>
<!-- Node8 -->
<g id="node8" class="node">
<title>Node8</title>
<g id="a_node8"><a xlink:title=" ">
<polygon fill="white" stroke="#bfbfbf" points="525.38,-932.5 525.38,-1022.5 584.38,-1022.5 584.38,-932.5 525.38,-932.5"/>
<text text-anchor="middle" x="554.88" y="-1002.5" font-family="Helvetica,sans-Serif" font-size="20.00">bool</text>
<polyline fill="none" stroke="#bfbfbf" points="525.38,-992.5 584.38,-992.5 "/>
<text text-anchor="middle" x="554.88" y="-972.5" font-family="Helvetica,sans-Serif" font-size="20.00"> </text>
<polyline fill="none" stroke="#bfbfbf" points="525.38,-962.5 584.38,-962.5 "/>
<text text-anchor="middle" x="554.88" y="-942.5" font-family="Helvetica,sans-Serif" font-size="20.00"> </text>
</a>
</g>
</g>
<!-- Node8&#45;&gt;Node3 -->
<g id="edge7" class="edge">
<title>Node8&#45;&gt;Node3</title>
<path fill="none" stroke="#404040" d="M539.74,-932.26C532.68,-911.99 524.05,-887.71 515.88,-866 509.14,-848.08 508.62,-843.04 499.88,-826 495.61,-817.66 491.09,-809.23 486.4,-800.78"/>
<polygon fill="none" stroke="#404040" points="486.27,-800.53 479.84,-797.26 480.39,-790.07 486.81,-793.34 486.27,-800.53"/>
<text text-anchor="middle" x="564.38" y="-832" font-family="Helvetica,sans-Serif" font-size="20.00"> #perigoso</text>
</g>
<!-- Node9&#45;&gt;Node3 -->
<g id="edge9" class="edge">
<title>Node9&#45;&gt;Node3</title>
<path fill="none" stroke="#404040" d="M373.02,-866.18C371.8,-860.06 370.74,-853.97 369.88,-848 368.56,-838.79 367.48,-829.35 366.59,-819.8"/>
<polygon fill="none" stroke="#404040" points="366.58,-819.61 362.09,-813.96 365.58,-807.65 370.07,-813.3 366.58,-819.61"/>
<text text-anchor="middle" x="434.88" y="-832" font-family="Helvetica,sans-Serif" font-size="20.00"> #veterinario</text>
</g>
<!-- Node10 -->
<g id="node10" class="node">
<title>Node10</title>
<g id="a_node10"><a xlink:title=" ">
<polygon fill="white" stroke="#bfbfbf" points="182.38,-574.5 182.38,-664.5 239.38,-664.5 239.38,-574.5 182.38,-574.5"/>
<text text-anchor="middle" x="210.88" y="-644.5" font-family="Helvetica,sans-Serif" font-size="20.00">Pele</text>
<polyline fill="none" stroke="#bfbfbf" points="182.38,-634.5 239.38,-634.5 "/>
<text text-anchor="middle" x="210.88" y="-614.5" font-family="Helvetica,sans-Serif" font-size="20.00"> </text>
<polyline fill="none" stroke="#bfbfbf" points="182.38,-604.5 239.38,-604.5 "/>
<text text-anchor="middle" x="210.88" y="-584.5" font-family="Helvetica,sans-Serif" font-size="20.00"> </text>
</a>
</g>
</g>
<!-- Node10&#45;&gt;Node2 -->
<g id="edge12" class="edge">
<title>Node10&#45;&gt;Node2</title>
<path fill="none" stroke="#404040" d="M213.87,-574.33C217.83,-535.19 226.95,-477.25 247.88,-431 260.56,-402.99 279.08,-375.38 297.84,-351.3"/>
<polygon fill="none" stroke="#404040" points="297.85,-351.3 298.45,-344.11 305.32,-341.9 304.71,-349.09 297.85,-351.3"/>
<text text-anchor="middle" x="301.38" y="-397" font-family="Helvetica,sans-Serif" font-size="20.00"> #pele</text>
</g>
<!-- Node11&#45;&gt;Node1 -->
<g id="edge13" class="edge">
<title>Node11&#45;&gt;Node1</title>
<path fill="none" stroke="midnightblue" d="M635.48,-1097.09C640.51,-1023.82 645.88,-925.19 645.88,-838 645.88,-838 645.88,-838 645.88,-271.5 645.88,-219.6 614.57,-171.24 581.67,-134.75"/>
<polygon fill="none" stroke="midnightblue" points="631.98,-1097.04 634.78,-1107.26 638.96,-1097.52 631.98,-1097.04"/>
</g>
</g>
</svg>
        <g id="navigator" transform="translate(0 0)" fill="#404254">
                <rect fill="#f2f5e9" fill-opacity="0.5" stroke="#606060" stroke-width=".5" x="0" y="0" width="60" height="60"/>
                <use id="zoomplus" xlink:href="#zoomPlus" x="17" y="9" onmousedown="handleZoom(evt,'in')"/>
                <use id="zoomminus" xlink:href="#zoomMin" x="42" y="9" onmousedown="handleZoom(evt,'out')"/>
                <use id="reset" xlink:href="#resetDef" x="30" y="36" onmousedown="handleReset()"/>
                <g id="arrowUp" xlink:href="#dirArrow" transform="translate(30 24)" onmousedown="handlePan(0,-1)">
                  <use xlink:href="#rim" fill="#404040">
                        <set attributeName="fill" to="#808080" begin="arrowUp.mouseover" end="arrowUp.mouseout"/>
                  </use>
                  <path fill="none" stroke="white" stroke-width="1.5" d="M0,-3.0v7 M-2.5,-0.5L0,-3.0L2.5,-0.5"/>
                </g>
                <g id="arrowRight" xlink:href="#dirArrow" transform="rotate(90) translate(36 -43)" onmousedown="handlePan(1,0)">
                  <use xlink:href="#rim" fill="#404040">
                        <set attributeName="fill" to="#808080" begin="arrowRight.mouseover" end="arrowRight.mouseout"/>
                  </use>
                  <path fill="none" stroke="white" stroke-width="1.5" d="M0,-3.0v7 M-2.5,-0.5L0,-3.0L2.5,-0.5"/>
                </g>
                <g id="arrowDown" xlink:href="#dirArrow" transform="rotate(180) translate(-30 -48)" onmousedown="handlePan(0,1)">
                  <use xlink:href="#rim" fill="#404040">
                        <set attributeName="fill" to="#808080" begin="arrowDown.mouseover" end="arrowDown.mouseout"/>
                  </use>
                  <path fill="none" stroke="white" stroke-width="1.5" d="M0,-3.0v7 M-2.5,-0.5L0,-3.0L2.5,-0.5"/>
                </g>
                <g id="arrowLeft" xlink:href="#dirArrow" transform="rotate(270) translate(-36 17)" onmousedown="handlePan(-1,0)">
                  <use xlink:href="#rim" fill="#404040">
                        <set attributeName="fill" to="#808080" begin="arrowLeft.mouseover" end="arrowLeft.mouseout"/>
                  </use>
                  <path fill="none" stroke="white" stroke-width="1.5" d="M0,-3.0v7 M-2.5,-0.5L0,-3.0L2.5,-0.5"/>
                </g>
        </g>
        <svg viewBox="0 0 15 15" width="100%" height="30px" preserveAspectRatio="xMaxYMin meet">
         <g id="arrow_out" transform="scale(0.3 0.3)">
          <a xlink:href="classReptilExotico__coll__graph_org.svg" target="_base">
           <rect id="button" ry="5" rx="5" y="6" x="6" height="38" width="38"
                fill="#f2f5e9" fill-opacity="0.5" stroke="#606060" stroke-width="1.0"/>
           <path id="arrow"
             d="M 11.500037,31.436501 C 11.940474,20.09759 22.043105,11.32322 32.158766,21.979434 L 37.068811,17.246167 C 37.068811,17.246167 37.088388,32 37.088388,32 L 22.160133,31.978069 C 22.160133,31.978069 26.997745,27.140456 26.997745,27.140456 C 18.528582,18.264221 13.291696,25.230495 11.500037,31.436501 z"
             style="fill:#404040;"/>
          </a>
         </g>
        </svg>
</svg>
