<?xml version="1.0" encoding="UTF-8" standalone="no"?>
<!DOCTYPE svg PUBLIC "-//W3C//DTD SVG 1.1//EN"
 "http://www.w3.org/Graphics/SVG/1.1/DTD/svg11.dtd">
<!-- Generated by graphviz version 2.40.1 (20161225.0304)
 -->
<!-- Title: AnfibioNativo Pages: 1 -->
<svg width="310pt" height="859pt"
 viewBox="0.00 0.00 309.50 859.00" xmlns="http://www.w3.org/2000/svg" xmlns:xlink="http://www.w3.org/1999/xlink">
<g id="graph0" class="graph" transform="scale(1 1) rotate(0) translate(4 855)">
<title>AnfibioNativo</title>
<polygon fill="#ffffff" stroke="transparent" points="-4,4 -4,-855 305.5,-855 305.5,4 -4,4"/>
<!-- Node0 -->
<g id="node1" class="node">
<title>Node0</title>
<polygon fill="#bfbfbf" stroke="#000000" points="52,-.5 52,-112.5 218,-112.5 218,-.5 52,-.5"/>
<text text-anchor="middle" x="135" y="-92.5" font-family="Helvetica,sans-Serif" font-size="20.00" fill="#000000">AnfibioNativo</text>
<polyline fill="none" stroke="#000000" points="52,-82.5 218,-82.5 "/>
<text text-anchor="middle" x="135" y="-62.5" font-family="Helvetica,sans-Serif" font-size="20.00" fill="#000000"> </text>
<polyline fill="none" stroke="#000000" points="52,-52.5 218,-52.5 "/>
<text text-anchor="start" x="60" y="-32.5" font-family="Helvetica,sans-Serif" font-size="20.00" fill="#000000">+ AnfibioNativo()</text>
<text text-anchor="start" x="60" y="-10.5" font-family="Helvetica,sans-Serif" font-size="20.00" fill="#000000">+ ~AnfibioNativo()</text>
</g>
<!-- Node1 -->
<g id="node2" class="node">
<title>Node1</title>
<g id="a_node2"><a xlink:href="classAnfibio.html" target="_top" xlink:title="Classificação base para Anfibios. ">
<polygon fill="#ffffff" stroke="#000000" points="0,-160.5 0,-338.5 124,-338.5 124,-160.5 0,-160.5"/>
<text text-anchor="middle" x="62" y="-318.5" font-family="Helvetica,sans-Serif" font-size="20.00" fill="#000000">Anfibio</text>
<polyline fill="none" stroke="#000000" points="0,-308.5 124,-308.5 "/>
<text text-anchor="start" x="8" y="-288.5" font-family="Helvetica,sans-Serif" font-size="20.00" fill="#000000"># cauda</text>
<text text-anchor="start" x="8" y="-266.5" font-family="Helvetica,sans-Serif" font-size="20.00" fill="#000000"># pata</text>
<polyline fill="none" stroke="#000000" points="0,-256.5 124,-256.5 "/>
<text text-anchor="start" x="8" y="-236.5" font-family="Helvetica,sans-Serif" font-size="20.00" fill="#000000">+ Anfibio()</text>
<text text-anchor="start" x="8" y="-214.5" font-family="Helvetica,sans-Serif" font-size="20.00" fill="#000000">+ ~Anfibio()</text>
<text text-anchor="start" x="8" y="-192.5" font-family="Helvetica,sans-Serif" font-size="20.00" fill="#000000">+ getCauda()</text>
<text text-anchor="start" x="8" y="-170.5" font-family="Helvetica,sans-Serif" font-size="20.00" fill="#000000">+ getPata()</text>
</a>
</g>
</g>
<!-- Node1&#45;&gt;Node0 -->
<g id="edge1" class="edge">
<title>Node1&#45;&gt;Node0</title>
<path fill="none" stroke="#191970" d="M99.3188,-150.8352C104.2606,-137.7701 109.1823,-124.7579 113.7214,-112.7572"/>
<polygon fill="none" stroke="#191970" points="95.9863,-149.7527 95.7221,-160.3443 102.5336,-152.2292 95.9863,-149.7527"/>
</g>
<!-- Node2 -->
<g id="node3" class="node">
<title>Node2</title>
<g id="a_node3"><a xlink:href="classNativo.html" target="_top" xlink:title="Umas das definições de categoria para Animal. ">
<polygon fill="#ffffff" stroke="#000000" points="142.5,-149.5 142.5,-349.5 275.5,-349.5 275.5,-149.5 142.5,-149.5"/>
<text text-anchor="middle" x="209" y="-329.5" font-family="Helvetica,sans-Serif" font-size="20.00" fill="#000000">Nativo</text>
<polyline fill="none" stroke="#000000" points="142.5,-319.5 275.5,-319.5 "/>
<text text-anchor="start" x="150.5" y="-299.5" font-family="Helvetica,sans-Serif" font-size="20.00" fill="#000000"># regiao</text>
<text text-anchor="start" x="150.5" y="-277.5" font-family="Helvetica,sans-Serif" font-size="20.00" fill="#000000"># licenca</text>
<polyline fill="none" stroke="#000000" points="142.5,-267.5 275.5,-267.5 "/>
<text text-anchor="start" x="150.5" y="-247.5" font-family="Helvetica,sans-Serif" font-size="20.00" fill="#000000">+ Nativo()</text>
<text text-anchor="start" x="150.5" y="-225.5" font-family="Helvetica,sans-Serif" font-size="20.00" fill="#000000">+ Nativo()</text>
<text text-anchor="start" x="150.5" y="-203.5" font-family="Helvetica,sans-Serif" font-size="20.00" fill="#000000">+ ~Nativo()</text>
<text text-anchor="start" x="150.5" y="-181.5" font-family="Helvetica,sans-Serif" font-size="20.00" fill="#000000">+ getRegiao()</text>
<text text-anchor="start" x="150.5" y="-159.5" font-family="Helvetica,sans-Serif" font-size="20.00" fill="#000000">+ getLicenca()</text>
</a>
</g>
</g>
<!-- Node2&#45;&gt;Node0 -->
<g id="edge2" class="edge">
<title>Node2&#45;&gt;Node0</title>
<path fill="none" stroke="#191970" d="M166.9862,-139.9234C163.3975,-130.5638 159.8729,-121.3713 156.5509,-112.707"/>
<polygon fill="none" stroke="#191970" points="163.743,-141.2413 170.5911,-149.3255 170.279,-138.7353 163.743,-141.2413"/>
</g>
<!-- Node3 -->
<g id="node4" class="node">
<title>Node3</title>
<g id="a_node4"><a xlink:href="classAnimal.html" target="_top" xlink:title="Implementação base para o cadastro de animais. ">
<polygon fill="#ffffff" stroke="#000000" points="116.5,-386.5 116.5,-850.5 301.5,-850.5 301.5,-386.5 116.5,-386.5"/>
<text text-anchor="middle" x="209" y="-830.5" font-family="Helvetica,sans-Serif" font-size="20.00" fill="#000000">Animal</text>
<polyline fill="none" stroke="#000000" points="116.5,-820.5 301.5,-820.5 "/>
<text text-anchor="start" x="124.5" y="-800.5" font-family="Helvetica,sans-Serif" font-size="20.00" fill="#000000"># nome</text>
<text text-anchor="start" x="124.5" y="-778.5" font-family="Helvetica,sans-Serif" font-size="20.00" fill="#000000"># especie</text>
<text text-anchor="start" x="124.5" y="-756.5" font-family="Helvetica,sans-Serif" font-size="20.00" fill="#000000"># ameacadoPor</text>
<text text-anchor="start" x="124.5" y="-734.5" font-family="Helvetica,sans-Serif" font-size="20.00" fill="#000000"># veterinario</text>
<text text-anchor="start" x="124.5" y="-712.5" font-family="Helvetica,sans-Serif" font-size="20.00" fill="#000000"># tratador</text>
<text text-anchor="start" x="124.5" y="-690.5" font-family="Helvetica,sans-Serif" font-size="20.00" fill="#000000"># perigoso</text>
<polyline fill="none" stroke="#000000" points="116.5,-680.5 301.5,-680.5 "/>
<text text-anchor="start" x="124.5" y="-660.5" font-family="Helvetica,sans-Serif" font-size="20.00" fill="#000000">+ Animal()</text>
<text text-anchor="start" x="124.5" y="-638.5" font-family="Helvetica,sans-Serif" font-size="20.00" fill="#000000">+ Animal()</text>
<text text-anchor="start" x="124.5" y="-616.5" font-family="Helvetica,sans-Serif" font-size="20.00" fill="#000000">+ ~Animal()</text>
<text text-anchor="start" x="124.5" y="-594.5" font-family="Helvetica,sans-Serif" font-size="20.00" fill="#000000">+ getNome()</text>
<text text-anchor="start" x="124.5" y="-572.5" font-family="Helvetica,sans-Serif" font-size="20.00" fill="#000000">+ getEspecie()</text>
<text text-anchor="start" x="124.5" y="-550.5" font-family="Helvetica,sans-Serif" font-size="20.00" fill="#000000">+ getAmeacadoPor()</text>
<text text-anchor="start" x="124.5" y="-528.5" font-family="Helvetica,sans-Serif" font-size="20.00" fill="#000000">+ getVeterinario()</text>
<text text-anchor="start" x="124.5" y="-506.5" font-family="Helvetica,sans-Serif" font-size="20.00" fill="#000000">+ getTratador()</text>
<text text-anchor="start" x="124.5" y="-484.5" font-family="Helvetica,sans-Serif" font-size="20.00" fill="#000000">+ getPerigoso()</text>
<text text-anchor="start" x="124.5" y="-462.5" font-family="Helvetica,sans-Serif" font-size="20.00" fill="#000000">+ getClassificacao()</text>
<text text-anchor="start" x="124.5" y="-440.5" font-family="Helvetica,sans-Serif" font-size="20.00" fill="#000000">+ getClasse()</text>
<text text-anchor="start" x="124.5" y="-418.5" font-family="Helvetica,sans-Serif" font-size="20.00" fill="#000000">+ printOutDados()</text>
<text text-anchor="start" x="124.5" y="-396.5" font-family="Helvetica,sans-Serif" font-size="20.00" fill="#000000">+ operator==()</text>
</a>
</g>
</g>
<!-- Node3&#45;&gt;Node2 -->
<g id="edge3" class="edge">
<title>Node3&#45;&gt;Node2</title>
<path fill="none" stroke="#191970" d="M209,-376.3279C209,-367.1385 209,-358.1614 209,-349.5011"/>
<polygon fill="none" stroke="#191970" points="205.5001,-376.3776 209,-386.3776 212.5001,-376.3776 205.5001,-376.3776"/>
</g>
</g>
</svg>
