<?xml version="1.0" encoding="UTF-8" standalone="no"?>
<!DOCTYPE svg PUBLIC "-//W3C//DTD SVG 1.1//EN"
 "http://www.w3.org/Graphics/SVG/1.1/DTD/svg11.dtd">
<!-- Generated by graphviz version 2.40.1 (20161225.0304)
 -->
<!-- Title: Ave Pages: 1 -->
<svg width="110pt" height="314pt"
 viewBox="0.00 0.00 110.00 314.00" xmlns="http://www.w3.org/2000/svg" xmlns:xlink="http://www.w3.org/1999/xlink">
<g id="graph0" class="graph" transform="scale(1 1) rotate(0) translate(4 310)">
<title>Ave</title>
<polygon fill="#ffffff" stroke="transparent" points="-4,4 -4,-310 106,-310 106,4 -4,4"/>
<!-- Node4 -->
<g id="node1" class="node">
<title>Node4</title>
<polygon fill="#bfbfbf" stroke="#000000" points="0,-.5 0,-156.5 102,-156.5 102,-.5 0,-.5"/>
<text text-anchor="middle" x="51" y="-136.5" font-family="Helvetica,sans-Serif" font-size="20.00" fill="#000000">Ave</text>
<polyline fill="none" stroke="#000000" points="0,-126.5 102,-126.5 "/>
<text text-anchor="middle" x="51" y="-106.5" font-family="Helvetica,sans-Serif" font-size="20.00" fill="#000000"> </text>
<polyline fill="none" stroke="#000000" points="0,-96.5 102,-96.5 "/>
<text text-anchor="start" x="8" y="-76.5" font-family="Helvetica,sans-Serif" font-size="20.00" fill="#000000">+ Ave()</text>
<text text-anchor="start" x="8" y="-54.5" font-family="Helvetica,sans-Serif" font-size="20.00" fill="#000000">+ Ave()</text>
<text text-anchor="start" x="8" y="-32.5" font-family="Helvetica,sans-Serif" font-size="20.00" fill="#000000">+ ~Ave()</text>
<text text-anchor="start" x="8" y="-10.5" font-family="Helvetica,sans-Serif" font-size="20.00" fill="#000000">+ getVoa()</text>
</g>
<!-- Node5 -->
<g id="node2" class="node">
<title>Node5</title>
<polygon fill="#ffffff" stroke="#bfbfbf" points="25.5,-215.5 25.5,-305.5 76.5,-305.5 76.5,-215.5 25.5,-215.5"/>
<text text-anchor="middle" x="51" y="-285.5" font-family="Helvetica,sans-Serif" font-size="20.00" fill="#000000">bool</text>
<polyline fill="none" stroke="#bfbfbf" points="25.5,-275.5 76.5,-275.5 "/>
<text text-anchor="middle" x="51" y="-255.5" font-family="Helvetica,sans-Serif" font-size="20.00" fill="#000000"> </text>
<polyline fill="none" stroke="#bfbfbf" points="25.5,-245.5 76.5,-245.5 "/>
<text text-anchor="middle" x="51" y="-225.5" font-family="Helvetica,sans-Serif" font-size="20.00" fill="#000000"> </text>
</g>
<!-- Node5&#45;&gt;Node4 -->
<g id="edge1" class="edge">
<title>Node5&#45;&gt;Node4</title>
<path fill="none" stroke="#404040" d="M51,-215.0432C51,-200.9479 51,-184.8883 51,-168.8555"/>
<polygon fill="none" stroke="#404040" points="51.0001,-168.6333 47,-162.6333 51,-156.6333 55,-162.6332 51.0001,-168.6333"/>
<text text-anchor="middle" x="73.5" y="-181" font-family="Helvetica,sans-Serif" font-size="20.00" fill="#000000"> #voa</text>
</g>
</g>
</svg>
