<?xml version="1.0" encoding="UTF-8" standalone="no"?>
<!DOCTYPE svg PUBLIC "-//W3C//DTD SVG 1.1//EN"
 "http://www.w3.org/Graphics/SVG/1.1/DTD/svg11.dtd">
<!-- Generated by graphviz version 2.40.1 (20161225.0304)
 -->
<!-- Title: ReptilExotico Pages: 1 -->
<svg width="282pt" height="815pt"
 viewBox="0.00 0.00 281.50 815.00" xmlns="http://www.w3.org/2000/svg" xmlns:xlink="http://www.w3.org/1999/xlink">
<g id="graph0" class="graph" transform="scale(1 1) rotate(0) translate(4 811)">
<title>ReptilExotico</title>
<polygon fill="#ffffff" stroke="transparent" points="-4,4 -4,-811 277.5,-811 277.5,4 -4,4"/>
<!-- Node0 -->
<g id="node1" class="node">
<title>Node0</title>
<polygon fill="#bfbfbf" stroke="#000000" points="36,-.5 36,-112.5 198,-112.5 198,-.5 36,-.5"/>
<text text-anchor="middle" x="117" y="-92.5" font-family="Helvetica,sans-Serif" font-size="20.00" fill="#000000">ReptilExotico</text>
<polyline fill="none" stroke="#000000" points="36,-82.5 198,-82.5 "/>
<text text-anchor="middle" x="117" y="-62.5" font-family="Helvetica,sans-Serif" font-size="20.00" fill="#000000"> </text>
<polyline fill="none" stroke="#000000" points="36,-52.5 198,-52.5 "/>
<text text-anchor="start" x="44" y="-32.5" font-family="Helvetica,sans-Serif" font-size="20.00" fill="#000000">+ ReptilExotico()</text>
<text text-anchor="start" x="44" y="-10.5" font-family="Helvetica,sans-Serif" font-size="20.00" fill="#000000">+ ~ReptilExotico()</text>
</g>
<!-- Node1 -->
<g id="node2" class="node">
<title>Node1</title>
<g id="a_node2"><a xlink:href="classReptil.html" target="_top" xlink:title="Classificação base para Repteis. ">
<polygon fill="#ffffff" stroke="#000000" points="0,-149.5 0,-305.5 106,-305.5 106,-149.5 0,-149.5"/>
<text text-anchor="middle" x="53" y="-285.5" font-family="Helvetica,sans-Serif" font-size="20.00" fill="#000000">Reptil</text>
<polyline fill="none" stroke="#000000" points="0,-275.5 106,-275.5 "/>
<text text-anchor="start" x="8" y="-255.5" font-family="Helvetica,sans-Serif" font-size="20.00" fill="#000000"># pele</text>
<polyline fill="none" stroke="#000000" points="0,-245.5 106,-245.5 "/>
<text text-anchor="start" x="8" y="-225.5" font-family="Helvetica,sans-Serif" font-size="20.00" fill="#000000">+ Reptil()</text>
<text text-anchor="start" x="8" y="-203.5" font-family="Helvetica,sans-Serif" font-size="20.00" fill="#000000">+ Reptil()</text>
<text text-anchor="start" x="8" y="-181.5" font-family="Helvetica,sans-Serif" font-size="20.00" fill="#000000">+ ~Reptil()</text>
<text text-anchor="start" x="8" y="-159.5" font-family="Helvetica,sans-Serif" font-size="20.00" fill="#000000">+ getPele()</text>
</a>
</g>
</g>
<!-- Node1&#45;&gt;Node0 -->
<g id="edge1" class="edge">
<title>Node1&#45;&gt;Node0</title>
<path fill="none" stroke="#191970" d="M85.9437,-139.4785C89.367,-130.3318 92.7759,-121.2236 96.0135,-112.5732"/>
<polygon fill="none" stroke="#191970" points="82.605,-138.4143 82.3776,-149.0067 89.1609,-140.868 82.605,-138.4143"/>
</g>
<!-- Node2 -->
<g id="node3" class="node">
<title>Node2</title>
<g id="a_node3"><a xlink:href="classExotico.html" target="_top" xlink:title="Umas das definições de categoria para Animal. ">
<polygon fill="#ffffff" stroke="#000000" points="124,-149.5 124,-305.5 238,-305.5 238,-149.5 124,-149.5"/>
<text text-anchor="middle" x="181" y="-285.5" font-family="Helvetica,sans-Serif" font-size="20.00" fill="#000000">Exotico</text>
<polyline fill="none" stroke="#000000" points="124,-275.5 238,-275.5 "/>
<text text-anchor="start" x="132" y="-255.5" font-family="Helvetica,sans-Serif" font-size="20.00" fill="#000000"># local</text>
<polyline fill="none" stroke="#000000" points="124,-245.5 238,-245.5 "/>
<text text-anchor="start" x="132" y="-225.5" font-family="Helvetica,sans-Serif" font-size="20.00" fill="#000000">+ Exotico()</text>
<text text-anchor="start" x="132" y="-203.5" font-family="Helvetica,sans-Serif" font-size="20.00" fill="#000000">+ Exotico()</text>
<text text-anchor="start" x="132" y="-181.5" font-family="Helvetica,sans-Serif" font-size="20.00" fill="#000000">+ ~Exotico()</text>
<text text-anchor="start" x="132" y="-159.5" font-family="Helvetica,sans-Serif" font-size="20.00" fill="#000000">+ getLocal()</text>
</a>
</g>
</g>
<!-- Node2&#45;&gt;Node0 -->
<g id="edge2" class="edge">
<title>Node2&#45;&gt;Node0</title>
<path fill="none" stroke="#191970" d="M148.0563,-139.4785C144.633,-130.3318 141.2241,-121.2236 137.9865,-112.5732"/>
<polygon fill="none" stroke="#191970" points="144.8391,-140.868 151.6224,-149.0067 151.395,-138.4143 144.8391,-140.868"/>
</g>
<!-- Node3 -->
<g id="node4" class="node">
<title>Node3</title>
<g id="a_node4"><a xlink:href="classAnimal.html" target="_top" xlink:title="Implementação base para o cadastro de animais. ">
<polygon fill="#ffffff" stroke="#000000" points="88.5,-342.5 88.5,-806.5 273.5,-806.5 273.5,-342.5 88.5,-342.5"/>
<text text-anchor="middle" x="181" y="-786.5" font-family="Helvetica,sans-Serif" font-size="20.00" fill="#000000">Animal</text>
<polyline fill="none" stroke="#000000" points="88.5,-776.5 273.5,-776.5 "/>
<text text-anchor="start" x="96.5" y="-756.5" font-family="Helvetica,sans-Serif" font-size="20.00" fill="#000000"># nome</text>
<text text-anchor="start" x="96.5" y="-734.5" font-family="Helvetica,sans-Serif" font-size="20.00" fill="#000000"># especie</text>
<text text-anchor="start" x="96.5" y="-712.5" font-family="Helvetica,sans-Serif" font-size="20.00" fill="#000000"># ameacadoPor</text>
<text text-anchor="start" x="96.5" y="-690.5" font-family="Helvetica,sans-Serif" font-size="20.00" fill="#000000"># veterinario</text>
<text text-anchor="start" x="96.5" y="-668.5" font-family="Helvetica,sans-Serif" font-size="20.00" fill="#000000"># tratador</text>
<text text-anchor="start" x="96.5" y="-646.5" font-family="Helvetica,sans-Serif" font-size="20.00" fill="#000000"># perigoso</text>
<polyline fill="none" stroke="#000000" points="88.5,-636.5 273.5,-636.5 "/>
<text text-anchor="start" x="96.5" y="-616.5" font-family="Helvetica,sans-Serif" font-size="20.00" fill="#000000">+ Animal()</text>
<text text-anchor="start" x="96.5" y="-594.5" font-family="Helvetica,sans-Serif" font-size="20.00" fill="#000000">+ Animal()</text>
<text text-anchor="start" x="96.5" y="-572.5" font-family="Helvetica,sans-Serif" font-size="20.00" fill="#000000">+ ~Animal()</text>
<text text-anchor="start" x="96.5" y="-550.5" font-family="Helvetica,sans-Serif" font-size="20.00" fill="#000000">+ getNome()</text>
<text text-anchor="start" x="96.5" y="-528.5" font-family="Helvetica,sans-Serif" font-size="20.00" fill="#000000">+ getEspecie()</text>
<text text-anchor="start" x="96.5" y="-506.5" font-family="Helvetica,sans-Serif" font-size="20.00" fill="#000000">+ getAmeacadoPor()</text>
<text text-anchor="start" x="96.5" y="-484.5" font-family="Helvetica,sans-Serif" font-size="20.00" fill="#000000">+ getVeterinario()</text>
<text text-anchor="start" x="96.5" y="-462.5" font-family="Helvetica,sans-Serif" font-size="20.00" fill="#000000">+ getTratador()</text>
<text text-anchor="start" x="96.5" y="-440.5" font-family="Helvetica,sans-Serif" font-size="20.00" fill="#000000">+ getPerigoso()</text>
<text text-anchor="start" x="96.5" y="-418.5" font-family="Helvetica,sans-Serif" font-size="20.00" fill="#000000">+ getClassificacao()</text>
<text text-anchor="start" x="96.5" y="-396.5" font-family="Helvetica,sans-Serif" font-size="20.00" fill="#000000">+ getClasse()</text>
<text text-anchor="start" x="96.5" y="-374.5" font-family="Helvetica,sans-Serif" font-size="20.00" fill="#000000">+ printOutDados()</text>
<text text-anchor="start" x="96.5" y="-352.5" font-family="Helvetica,sans-Serif" font-size="20.00" fill="#000000">+ operator==()</text>
</a>
</g>
</g>
<!-- Node3&#45;&gt;Node2 -->
<g id="edge3" class="edge">
<title>Node3&#45;&gt;Node2</title>
<path fill="none" stroke="#191970" d="M181,-332.0566C181,-322.9217 181,-314.0913 181,-305.6929"/>
<polygon fill="none" stroke="#191970" points="177.5001,-332.0824 181,-342.0825 184.5001,-332.0825 177.5001,-332.0824"/>
</g>
</g>
</svg>
