<?xml version="1.0" encoding="UTF-8" standalone="no"?>
<!DOCTYPE svg PUBLIC "-//W3C//DTD SVG 1.1//EN"
 "http://www.w3.org/Graphics/SVG/1.1/DTD/svg11.dtd">
<!-- Generated by graphviz version 2.43.0 (0)
 -->
<!-- Title: Petshop Pages: 1 -->
<svg width="1040pt" height="705pt"
 viewBox="0.00 0.00 1040.00 705.00" xmlns="http://www.w3.org/2000/svg" xmlns:xlink="http://www.w3.org/1999/xlink">
<g id="graph0" class="graph" transform="scale(1 1) rotate(0) translate(4 701)">
<title>Petshop</title>
<polygon fill="white" stroke="transparent" points="-4,4 -4,-701 1036,-701 1036,4 -4,4"/>
<!-- Node1 -->
<g id="node1" class="node">
<title>Node1</title>
<g id="a_node1"><a xlink:title="Classe de controle.">
<polygon fill="#bfbfbf" stroke="black" points="341.5,-0.5 341.5,-376.5 594.5,-376.5 594.5,-0.5 341.5,-0.5"/>
<text text-anchor="middle" x="468" y="-356.5" font-family="Helvetica,sans-Serif" font-size="20.00">Petshop</text>
<polyline fill="none" stroke="black" points="341.5,-346.5 594.5,-346.5 "/>
<text text-anchor="middle" x="468" y="-326.5" font-family="Helvetica,sans-Serif" font-size="20.00"> </text>
<polyline fill="none" stroke="black" points="341.5,-316.5 594.5,-316.5 "/>
<text text-anchor="start" x="349.5" y="-296.5" font-family="Helvetica,sans-Serif" font-size="20.00">+ Petshop()</text>
<text text-anchor="start" x="349.5" y="-274.5" font-family="Helvetica,sans-Serif" font-size="20.00">+ ~Petshop()</text>
<text text-anchor="start" x="349.5" y="-252.5" font-family="Helvetica,sans-Serif" font-size="20.00">+ listarAnimais()</text>
<text text-anchor="start" x="349.5" y="-230.5" font-family="Helvetica,sans-Serif" font-size="20.00">+ listarTratadores()</text>
<text text-anchor="start" x="349.5" y="-208.5" font-family="Helvetica,sans-Serif" font-size="20.00">+ listarVeterinarios()</text>
<text text-anchor="start" x="349.5" y="-186.5" font-family="Helvetica,sans-Serif" font-size="20.00">+ criarVeterinario()</text>
<text text-anchor="start" x="349.5" y="-164.5" font-family="Helvetica,sans-Serif" font-size="20.00">+ criarTratador()</text>
<text text-anchor="start" x="349.5" y="-142.5" font-family="Helvetica,sans-Serif" font-size="20.00">+ criarAnimal()</text>
<text text-anchor="start" x="349.5" y="-120.5" font-family="Helvetica,sans-Serif" font-size="20.00">+ adicionarVeterinario()</text>
<text text-anchor="start" x="349.5" y="-98.5" font-family="Helvetica,sans-Serif" font-size="20.00">+ adicionarTratador()</text>
<text text-anchor="start" x="349.5" y="-76.5" font-family="Helvetica,sans-Serif" font-size="20.00">e 10 mais...</text>
<text text-anchor="start" x="349.5" y="-54.5" font-family="Helvetica,sans-Serif" font-size="20.00">&#45; findVeterinario()</text>
<text text-anchor="start" x="349.5" y="-32.5" font-family="Helvetica,sans-Serif" font-size="20.00">&#45; findTratador()</text>
<text text-anchor="start" x="349.5" y="-10.5" font-family="Helvetica,sans-Serif" font-size="20.00">&#45; findAnimal()</text>
</a>
</g>
</g>
<!-- Node2 -->
<g id="node2" class="node">
<title>Node2</title>
<g id="a_node2"><a xlink:title=" ">
<polygon fill="white" stroke="#bfbfbf" points="0,-435.5 0,-525.5 222,-525.5 222,-435.5 0,-435.5"/>
<text text-anchor="middle" x="111" y="-505.5" font-family="Helvetica,sans-Serif" font-size="20.00">vector&lt; Tratador * &gt;</text>
<polyline fill="none" stroke="#bfbfbf" points="0,-495.5 222,-495.5 "/>
<text text-anchor="middle" x="111" y="-475.5" font-family="Helvetica,sans-Serif" font-size="20.00"> </text>
<polyline fill="none" stroke="#bfbfbf" points="0,-465.5 222,-465.5 "/>
<text text-anchor="middle" x="111" y="-445.5" font-family="Helvetica,sans-Serif" font-size="20.00"> </text>
</a>
</g>
</g>
<!-- Node2&#45;&gt;Node1 -->
<g id="edge1" class="edge">
<title>Node2&#45;&gt;Node1</title>
<path fill="none" stroke="#404040" d="M165.22,-435.46C209.38,-399.58 273.69,-347.34 331.69,-300.23"/>
<polygon fill="none" stroke="#404040" points="332,-299.98 334.14,-293.09 341.31,-292.41 339.18,-299.3 332,-299.98"/>
<text text-anchor="middle" x="265" y="-401" font-family="Helvetica,sans-Serif" font-size="20.00"> &#45;tratadores</text>
</g>
<!-- Node3 -->
<g id="node3" class="node">
<title>Node3</title>
<g id="a_node3"><a xlink:title=" ">
<polygon fill="white" stroke="#bfbfbf" points="240.5,-435.5 240.5,-525.5 449.5,-525.5 449.5,-435.5 240.5,-435.5"/>
<text text-anchor="middle" x="345" y="-505.5" font-family="Helvetica,sans-Serif" font-size="20.00">vector&lt; Animal * &gt;</text>
<polyline fill="none" stroke="#bfbfbf" points="240.5,-495.5 449.5,-495.5 "/>
<text text-anchor="middle" x="345" y="-475.5" font-family="Helvetica,sans-Serif" font-size="20.00"> </text>
<polyline fill="none" stroke="#bfbfbf" points="240.5,-465.5 449.5,-465.5 "/>
<text text-anchor="middle" x="345" y="-445.5" font-family="Helvetica,sans-Serif" font-size="20.00"> </text>
</a>
</g>
</g>
<!-- Node3&#45;&gt;Node1 -->
<g id="edge2" class="edge">
<title>Node3&#45;&gt;Node1</title>
<path fill="none" stroke="#404040" d="M363.68,-435.46C369.58,-421.55 376.52,-405.18 383.98,-387.6"/>
<polygon fill="none" stroke="#404040" points="384,-387.56 382.66,-380.47 388.68,-376.51 390.02,-383.6 384,-387.56"/>
<text text-anchor="middle" x="423.5" y="-401" font-family="Helvetica,sans-Serif" font-size="20.00"> &#45;animais</text>
</g>
<!-- Node4 -->
<g id="node4" class="node">
<title>Node4</title>
<g id="a_node4"><a xlink:title=" ">
<polygon fill="white" stroke="#bfbfbf" points="468,-435.5 468,-525.5 716,-525.5 716,-435.5 468,-435.5"/>
<text text-anchor="middle" x="592" y="-505.5" font-family="Helvetica,sans-Serif" font-size="20.00">vector&lt; Veterinario * &gt;</text>
<polyline fill="none" stroke="#bfbfbf" points="468,-495.5 716,-495.5 "/>
<text text-anchor="middle" x="592" y="-475.5" font-family="Helvetica,sans-Serif" font-size="20.00"> </text>
<polyline fill="none" stroke="#bfbfbf" points="468,-465.5 716,-465.5 "/>
<text text-anchor="middle" x="592" y="-445.5" font-family="Helvetica,sans-Serif" font-size="20.00"> </text>
</a>
</g>
</g>
<!-- Node4&#45;&gt;Node1 -->
<g id="edge3" class="edge">
<title>Node4&#45;&gt;Node1</title>
<path fill="none" stroke="#404040" d="M573.17,-435.46C567.22,-421.55 560.22,-405.18 552.7,-387.6"/>
<polygon fill="none" stroke="#404040" points="552.68,-387.54 546.64,-383.6 547.96,-376.51 554,-380.45 552.68,-387.54"/>
<text text-anchor="middle" x="630.5" y="-401" font-family="Helvetica,sans-Serif" font-size="20.00"> &#45;veterinarios</text>
</g>
<!-- Node5 -->
<g id="node5" class="node">
<title>Node5</title>
<g id="a_node5"><a xlink:href="classMapeadorAnimal.html" target="_top" xlink:title="Mapeador de animais.">
<polygon fill="white" stroke="black" points="734.5,-435.5 734.5,-525.5 955.5,-525.5 955.5,-435.5 734.5,-435.5"/>
<text text-anchor="middle" x="845" y="-505.5" font-family="Helvetica,sans-Serif" font-size="20.00">MapeadorAnimal</text>
<polyline fill="none" stroke="black" points="734.5,-495.5 955.5,-495.5 "/>
<text text-anchor="middle" x="845" y="-475.5" font-family="Helvetica,sans-Serif" font-size="20.00"> </text>
<polyline fill="none" stroke="black" points="734.5,-465.5 955.5,-465.5 "/>
<text text-anchor="start" x="742.5" y="-445.5" font-family="Helvetica,sans-Serif" font-size="20.00">+ MapeadorAnimal()</text>
</a>
</g>
</g>
<!-- Node5&#45;&gt;Node1 -->
<g id="edge4" class="edge">
<title>Node5&#45;&gt;Node1</title>
<path fill="none" stroke="#404040" d="M787.74,-435.46C739.15,-398.08 667.46,-342.93 604.28,-294.33"/>
<polygon fill="none" stroke="#404040" points="604.13,-294.21 596.93,-293.73 594.62,-286.9 601.81,-287.39 604.13,-294.21"/>
<text text-anchor="middle" x="798" y="-401" font-family="Helvetica,sans-Serif" font-size="20.00"> &#45;mapa</text>
</g>
<!-- Node6 -->
<g id="node6" class="node">
<title>Node6</title>
<g id="a_node6"><a xlink:title=" ">
<polygon fill="white" stroke="#bfbfbf" points="658,-584.5 658,-696.5 1032,-696.5 1032,-584.5 658,-584.5"/>
<text text-anchor="start" x="666" y="-676.5" font-family="Helvetica,sans-Serif" font-size="20.00">map&lt; string, std::function</text>
<text text-anchor="middle" x="845" y="-654.5" font-family="Helvetica,sans-Serif" font-size="20.00">&lt; Animal *(DadosAnimal dados)&gt; &gt;</text>
<polyline fill="none" stroke="#bfbfbf" points="658,-644.5 1032,-644.5 "/>
<text text-anchor="middle" x="845" y="-624.5" font-family="Helvetica,sans-Serif" font-size="20.00"> </text>
<polyline fill="none" stroke="#bfbfbf" points="658,-614.5 1032,-614.5 "/>
<text text-anchor="middle" x="845" y="-594.5" font-family="Helvetica,sans-Serif" font-size="20.00"> </text>
</a>
</g>
</g>
<!-- Node6&#45;&gt;Node5 -->
<g id="edge5" class="edge">
<title>Node6&#45;&gt;Node5</title>
<path fill="none" stroke="#404040" d="M845,-584.24C845,-569.22 845,-552.94 845,-537.87"/>
<polygon fill="none" stroke="#404040" points="845,-537.54 841,-531.54 845,-525.54 849,-531.54 845,-537.54"/>
<text text-anchor="middle" x="883.5" y="-550" font-family="Helvetica,sans-Serif" font-size="20.00"> +aMap</text>
</g>
</g>
</svg>
