<?xml version="1.0" encoding="UTF-8" standalone="no"?>
<!DOCTYPE svg PUBLIC "-//W3C//DTD SVG 1.1//EN"
 "http://www.w3.org/Graphics/SVG/1.1/DTD/svg11.dtd">
<!-- Generated by graphviz version 2.43.0 (0)
 -->
<!-- Title: Animal Pages: 1 -->
<svg width="589pt" height="1140pt"
 viewBox="0.00 0.00 589.04 1140.00" xmlns="http://www.w3.org/2000/svg" xmlns:xlink="http://www.w3.org/1999/xlink">
<g id="graph0" class="graph" transform="scale(1 1) rotate(0) translate(4 1136)">
<title>Animal</title>
<polygon fill="white" stroke="transparent" points="-4,4 -4,-1136 585.04,-1136 585.04,4 -4,4"/>
<!-- Node1 -->
<g id="node1" class="node">
<title>Node1</title>
<g id="a_node1"><a xlink:title="Implementação base para o cadastro de animais.">
<polygon fill="#bfbfbf" stroke="black" points="172.54,-0.5 172.54,-354.5 395.54,-354.5 395.54,-0.5 172.54,-0.5"/>
<text text-anchor="middle" x="284.04" y="-334.5" font-family="Helvetica,sans-Serif" font-size="20.00">Animal</text>
<polyline fill="none" stroke="black" points="172.54,-324.5 395.54,-324.5 "/>
<text text-anchor="middle" x="284.04" y="-304.5" font-family="Helvetica,sans-Serif" font-size="20.00"> </text>
<polyline fill="none" stroke="black" points="172.54,-294.5 395.54,-294.5 "/>
<text text-anchor="start" x="180.54" y="-274.5" font-family="Helvetica,sans-Serif" font-size="20.00">+ Animal()</text>
<text text-anchor="start" x="180.54" y="-252.5" font-family="Helvetica,sans-Serif" font-size="20.00">+ Animal()</text>
<text text-anchor="start" x="180.54" y="-230.5" font-family="Helvetica,sans-Serif" font-size="20.00">+ ~Animal()</text>
<text text-anchor="start" x="180.54" y="-208.5" font-family="Helvetica,sans-Serif" font-size="20.00">+ getNome()</text>
<text text-anchor="start" x="180.54" y="-186.5" font-family="Helvetica,sans-Serif" font-size="20.00">+ getEspecie()</text>
<text text-anchor="start" x="180.54" y="-164.5" font-family="Helvetica,sans-Serif" font-size="20.00">+ getAmeacadoPor()</text>
<text text-anchor="start" x="180.54" y="-142.5" font-family="Helvetica,sans-Serif" font-size="20.00">+ getVeterinario()</text>
<text text-anchor="start" x="180.54" y="-120.5" font-family="Helvetica,sans-Serif" font-size="20.00">+ getTratador()</text>
<text text-anchor="start" x="180.54" y="-98.5" font-family="Helvetica,sans-Serif" font-size="20.00">+ getPerigoso()</text>
<text text-anchor="start" x="180.54" y="-76.5" font-family="Helvetica,sans-Serif" font-size="20.00">+ getClassificacao()</text>
<text text-anchor="start" x="180.54" y="-54.5" font-family="Helvetica,sans-Serif" font-size="20.00">+ getClasse()</text>
<text text-anchor="start" x="180.54" y="-32.5" font-family="Helvetica,sans-Serif" font-size="20.00">+ printOutDados()</text>
<text text-anchor="start" x="180.54" y="-10.5" font-family="Helvetica,sans-Serif" font-size="20.00">+ operator==()</text>
</a>
</g>
</g>
<!-- Node2 -->
<g id="node2" class="node">
<title>Node2</title>
<g id="a_node2"><a xlink:href="classTratador.html" target="_top" xlink:title="Implementação dos tratadores.">
<polygon fill="white" stroke="black" points="277.04,-413.5 277.04,-591.5 477.04,-591.5 477.04,-413.5 277.04,-413.5"/>
<text text-anchor="middle" x="377.04" y="-571.5" font-family="Helvetica,sans-Serif" font-size="20.00">Tratador</text>
<polyline fill="none" stroke="black" points="277.04,-561.5 477.04,-561.5 "/>
<text text-anchor="middle" x="377.04" y="-541.5" font-family="Helvetica,sans-Serif" font-size="20.00"> </text>
<polyline fill="none" stroke="black" points="277.04,-531.5 477.04,-531.5 "/>
<text text-anchor="start" x="285.04" y="-511.5" font-family="Helvetica,sans-Serif" font-size="20.00">+ Tratador()</text>
<text text-anchor="start" x="285.04" y="-489.5" font-family="Helvetica,sans-Serif" font-size="20.00">+ Tratador()</text>
<text text-anchor="start" x="285.04" y="-467.5" font-family="Helvetica,sans-Serif" font-size="20.00">+ ~Tratador()</text>
<text text-anchor="start" x="285.04" y="-445.5" font-family="Helvetica,sans-Serif" font-size="20.00">+ getUniforme()</text>
<text text-anchor="start" x="285.04" y="-423.5" font-family="Helvetica,sans-Serif" font-size="20.00">+ printOutDados()</text>
</a>
</g>
</g>
<!-- Node2&#45;&gt;Node1 -->
<g id="edge1" class="edge">
<title>Node2&#45;&gt;Node1</title>
<path fill="none" stroke="#404040" d="M351.63,-413.24C347.36,-398.43 342.8,-382.59 338.13,-366.38"/>
<polygon fill="none" stroke="#404040" points="338.04,-366.05 332.54,-361.39 334.72,-354.52 340.22,-359.18 338.04,-366.05"/>
<text text-anchor="middle" x="395.54" y="-379" font-family="Helvetica,sans-Serif" font-size="20.00"> #tratador</text>
</g>
<!-- Node3 -->
<g id="node3" class="node">
<title>Node3</title>
<g id="a_node3"><a xlink:href="classPessoa.html" target="_top" xlink:title="Classe base dos funcionarios.">
<polygon fill="white" stroke="black" points="250.04,-694.5 250.04,-938.5 450.04,-938.5 450.04,-694.5 250.04,-694.5"/>
<text text-anchor="middle" x="350.04" y="-918.5" font-family="Helvetica,sans-Serif" font-size="20.00">Pessoa</text>
<polyline fill="none" stroke="black" points="250.04,-908.5 450.04,-908.5 "/>
<text text-anchor="middle" x="350.04" y="-888.5" font-family="Helvetica,sans-Serif" font-size="20.00"> </text>
<polyline fill="none" stroke="black" points="250.04,-878.5 450.04,-878.5 "/>
<text text-anchor="start" x="258.04" y="-858.5" font-family="Helvetica,sans-Serif" font-size="20.00">+ Pessoa()</text>
<text text-anchor="start" x="258.04" y="-836.5" font-family="Helvetica,sans-Serif" font-size="20.00">+ Pessoa()</text>
<text text-anchor="start" x="258.04" y="-814.5" font-family="Helvetica,sans-Serif" font-size="20.00">+ ~Pessoa()</text>
<text text-anchor="start" x="258.04" y="-792.5" font-family="Helvetica,sans-Serif" font-size="20.00">+ getNome()</text>
<text text-anchor="start" x="258.04" y="-770.5" font-family="Helvetica,sans-Serif" font-size="20.00">+ getTelefone()</text>
<text text-anchor="start" x="258.04" y="-748.5" font-family="Helvetica,sans-Serif" font-size="20.00">+ getEmail()</text>
<text text-anchor="start" x="258.04" y="-726.5" font-family="Helvetica,sans-Serif" font-size="20.00">+ printOutDados()</text>
<text text-anchor="start" x="258.04" y="-704.5" font-family="Helvetica,sans-Serif" font-size="20.00">+ operator==()</text>
</a>
</g>
</g>
<!-- Node3&#45;&gt;Node2 -->
<g id="edge2" class="edge">
<title>Node3&#45;&gt;Node2</title>
<path fill="none" stroke="midnightblue" d="M361.39,-684.33C364.1,-653.06 366.92,-620.42 369.41,-591.62"/>
<polygon fill="none" stroke="midnightblue" points="357.89,-684.16 360.52,-694.43 364.87,-684.77 357.89,-684.16"/>
</g>
<!-- Node7 -->
<g id="node7" class="node">
<title>Node7</title>
<g id="a_node7"><a xlink:href="classVeterinario.html" target="_top" xlink:title="Implementação dos veterinarios.">
<polygon fill="white" stroke="black" points="59.04,-413.5 59.04,-591.5 259.04,-591.5 259.04,-413.5 59.04,-413.5"/>
<text text-anchor="middle" x="159.04" y="-571.5" font-family="Helvetica,sans-Serif" font-size="20.00">Veterinario</text>
<polyline fill="none" stroke="black" points="59.04,-561.5 259.04,-561.5 "/>
<text text-anchor="middle" x="159.04" y="-541.5" font-family="Helvetica,sans-Serif" font-size="20.00"> </text>
<polyline fill="none" stroke="black" points="59.04,-531.5 259.04,-531.5 "/>
<text text-anchor="start" x="67.04" y="-511.5" font-family="Helvetica,sans-Serif" font-size="20.00">+ Veterinario()</text>
<text text-anchor="start" x="67.04" y="-489.5" font-family="Helvetica,sans-Serif" font-size="20.00">+ Veterinario()</text>
<text text-anchor="start" x="67.04" y="-467.5" font-family="Helvetica,sans-Serif" font-size="20.00">+ ~Veterinario()</text>
<text text-anchor="start" x="67.04" y="-445.5" font-family="Helvetica,sans-Serif" font-size="20.00">+ getCRMV()</text>
<text text-anchor="start" x="67.04" y="-423.5" font-family="Helvetica,sans-Serif" font-size="20.00">+ printOutDados()</text>
</a>
</g>
</g>
<!-- Node3&#45;&gt;Node7 -->
<g id="edge8" class="edge">
<title>Node3&#45;&gt;Node7</title>
<path fill="none" stroke="midnightblue" d="M270.48,-685.55C251.12,-653.91 230.85,-620.8 212.99,-591.62"/>
<polygon fill="none" stroke="midnightblue" points="267.71,-687.72 275.92,-694.43 273.68,-684.07 267.71,-687.72"/>
</g>
<!-- Node4 -->
<g id="node4" class="node">
<title>Node4</title>
<g id="a_node4"><a xlink:title=" ">
<polygon fill="white" stroke="#bfbfbf" points="122.04,-1041.5 122.04,-1131.5 196.04,-1131.5 196.04,-1041.5 122.04,-1041.5"/>
<text text-anchor="middle" x="159.04" y="-1111.5" font-family="Helvetica,sans-Serif" font-size="20.00">string</text>
<polyline fill="none" stroke="#bfbfbf" points="122.04,-1101.5 196.04,-1101.5 "/>
<text text-anchor="middle" x="159.04" y="-1081.5" font-family="Helvetica,sans-Serif" font-size="20.00"> </text>
<polyline fill="none" stroke="#bfbfbf" points="122.04,-1071.5 196.04,-1071.5 "/>
<text text-anchor="middle" x="159.04" y="-1051.5" font-family="Helvetica,sans-Serif" font-size="20.00"> </text>
</a>
</g>
</g>
<!-- Node4&#45;&gt;Node1 -->
<g id="edge6" class="edge">
<title>Node4&#45;&gt;Node1</title>
<path fill="none" stroke="#404040" d="M130.42,-1041.3C80.29,-958.86 -16.37,-775.02 3.04,-610 13.56,-520.6 6.16,-491.59 50.04,-413 78.77,-361.55 121.99,-313.72 163.49,-274.85"/>
<polygon fill="none" stroke="#404040" points="163.51,-274.84 165.2,-267.83 172.32,-266.7 170.63,-273.71 163.51,-274.84"/>
<text text-anchor="middle" x="79.04" y="-660" font-family="Helvetica,sans-Serif" font-size="20.00"> #especie</text>
<text text-anchor="middle" x="79.04" y="-638" font-family="Helvetica,sans-Serif" font-size="20.00">#ameacadoPor</text>
<text text-anchor="middle" x="79.04" y="-616" font-family="Helvetica,sans-Serif" font-size="20.00">#nome</text>
</g>
<!-- Node4&#45;&gt;Node3 -->
<g id="edge3" class="edge">
<title>Node4&#45;&gt;Node3</title>
<path fill="none" stroke="#404040" d="M190.58,-1041.25C208.81,-1015.67 232.78,-982.03 256.59,-948.62"/>
<polygon fill="none" stroke="#404040" points="256.67,-948.51 256.89,-941.3 263.63,-938.74 263.41,-945.95 256.67,-948.51"/>
<text text-anchor="middle" x="296.54" y="-1007" font-family="Helvetica,sans-Serif" font-size="20.00"> #email</text>
<text text-anchor="middle" x="296.54" y="-985" font-family="Helvetica,sans-Serif" font-size="20.00">#nome</text>
<text text-anchor="middle" x="296.54" y="-963" font-family="Helvetica,sans-Serif" font-size="20.00">#telefone</text>
</g>
<!-- Node4&#45;&gt;Node7 -->
<g id="edge9" class="edge">
<title>Node4&#45;&gt;Node7</title>
<path fill="none" stroke="#404040" d="M159.04,-1041.28C159.04,-948.57 159.04,-731.87 159.04,-603.64"/>
<polygon fill="none" stroke="#404040" points="159.04,-603.51 155.04,-597.51 159.04,-591.51 163.04,-597.51 159.04,-603.51"/>
<text text-anchor="middle" x="195.54" y="-811.5" font-family="Helvetica,sans-Serif" font-size="20.00"> &#45;CRMV</text>
</g>
<!-- Node5 -->
<g id="node5" class="node">
<title>Node5</title>
<g id="a_node5"><a xlink:title=" ">
<polygon fill="white" stroke="#bfbfbf" points="468.54,-771.5 468.54,-861.5 575.54,-861.5 575.54,-771.5 468.54,-771.5"/>
<text text-anchor="middle" x="522.04" y="-841.5" font-family="Helvetica,sans-Serif" font-size="20.00">Uniforme</text>
<polyline fill="none" stroke="#bfbfbf" points="468.54,-831.5 575.54,-831.5 "/>
<text text-anchor="middle" x="522.04" y="-811.5" font-family="Helvetica,sans-Serif" font-size="20.00"> </text>
<polyline fill="none" stroke="#bfbfbf" points="468.54,-801.5 575.54,-801.5 "/>
<text text-anchor="middle" x="522.04" y="-781.5" font-family="Helvetica,sans-Serif" font-size="20.00"> </text>
</a>
</g>
</g>
<!-- Node5&#45;&gt;Node2 -->
<g id="edge4" class="edge">
<title>Node5&#45;&gt;Node2</title>
<path fill="none" stroke="#404040" d="M501.57,-771.46C481.3,-727.84 449.56,-659.53 423.19,-602.81"/>
<polygon fill="none" stroke="#404040" points="423.05,-602.51 416.9,-598.75 418,-591.62 424.15,-595.38 423.05,-602.51"/>
<text text-anchor="middle" x="504.54" y="-638" font-family="Helvetica,sans-Serif" font-size="20.00"> &#45;uniforme</text>
</g>
<!-- Node6 -->
<g id="node6" class="node">
<title>Node6</title>
<g id="a_node6"><a xlink:title=" ">
<polygon fill="white" stroke="#bfbfbf" points="495.54,-457.5 495.54,-547.5 554.54,-547.5 554.54,-457.5 495.54,-457.5"/>
<text text-anchor="middle" x="525.04" y="-527.5" font-family="Helvetica,sans-Serif" font-size="20.00">bool</text>
<polyline fill="none" stroke="#bfbfbf" points="495.54,-517.5 554.54,-517.5 "/>
<text text-anchor="middle" x="525.04" y="-497.5" font-family="Helvetica,sans-Serif" font-size="20.00"> </text>
<polyline fill="none" stroke="#bfbfbf" points="495.54,-487.5 554.54,-487.5 "/>
<text text-anchor="middle" x="525.04" y="-467.5" font-family="Helvetica,sans-Serif" font-size="20.00"> </text>
</a>
</g>
</g>
<!-- Node6&#45;&gt;Node1 -->
<g id="edge5" class="edge">
<title>Node6&#45;&gt;Node1</title>
<path fill="none" stroke="#404040" d="M508.66,-457.43C502.44,-442.81 494.73,-426.77 486.04,-413 462.31,-375.41 432.83,-337.63 403.78,-303.71"/>
<polygon fill="none" stroke="#404040" points="403.45,-303.32 396.5,-301.4 395.61,-294.24 402.56,-296.17 403.45,-303.32"/>
<text text-anchor="middle" x="526.54" y="-379" font-family="Helvetica,sans-Serif" font-size="20.00"> #perigoso</text>
</g>
<!-- Node7&#45;&gt;Node1 -->
<g id="edge7" class="edge">
<title>Node7&#45;&gt;Node1</title>
<path fill="none" stroke="#404040" d="M191.73,-413.28C196.82,-399.77 202.04,-386 207.04,-373 207.94,-370.65 208.86,-368.28 209.77,-365.91"/>
<polygon fill="none" stroke="#404040" points="209.78,-365.88 208.22,-358.84 214.11,-354.69 215.68,-361.73 209.78,-365.88"/>
<text text-anchor="middle" x="272.04" y="-379" font-family="Helvetica,sans-Serif" font-size="20.00"> #veterinario</text>
</g>
</g>
</svg>
