<?xml version="1.0" encoding="UTF-8" standalone="no"?>
<!DOCTYPE svg PUBLIC "-//W3C//DTD SVG 1.1//EN"
 "http://www.w3.org/Graphics/SVG/1.1/DTD/svg11.dtd">
<!-- Generated by graphviz version 2.43.0 (0)
 -->
<!-- Title: BancoDados Pages: 1 -->
<!--zoomable 661 -->
<svg id="main" version="1.1" xmlns="http://www.w3.org/2000/svg" xmlns:xlink="http://www.w3.org/1999/xlink" xml:space="preserve" onload="init(evt)">
<style type="text/css"><![CDATA[
.edge:hover path { stroke: red; }
.edge:hover polygon { stroke: red; fill: red; }
]]></style>
<script type="text/javascript"><![CDATA[
var edges = document.getElementsByTagName('g');
if (edges && edges.length) {
  for (var i=0;i<edges.length;i++) {
    if (edges[i].id.substr(0,4)=='edge') {
      edges[i].setAttribute('class','edge');
    }
  }
}
]]></script>
        <defs>
                <circle id="rim" cx="0" cy="0" r="7"/>
                <circle id="rim2" cx="0" cy="0" r="3.5"/>
                <g id="zoomPlus">
                        <use xlink:href="#rim" fill="#404040">
                                <set attributeName="fill" to="#808080" begin="zoomplus.mouseover" end="zoomplus.mouseout"/>
                        </use>
                        <path d="M-4,0h8M0,-4v8" fill="none" stroke="white" stroke-width="1.5" pointer-events="none"/>
                </g>
                <g id="zoomMin">
                        <use xlink:href="#rim" fill="#404040">
                                <set attributeName="fill" to="#808080" begin="zoomminus.mouseover" end="zoomminus.mouseout"/>
                        </use>
                        <path d="M-4,0h8" fill="none" stroke="white" stroke-width="1.5" pointer-events="none"/>
                </g>
                <g id="dirArrow">
                        <path fill="none" stroke="white" stroke-width="1.5" d="M0,-3.0v7 M-2.5,-0.5L0,-3.0L2.5,-0.5"/>
                </g>
               <g id="resetDef">
                       <use xlink:href="#rim2" fill="#404040">
                               <set attributeName="fill" to="#808080" begin="reset.mouseover" end="reset.mouseout"/>
                       </use>
               </g>
        </defs>

<script type="text/javascript">
var viewWidth = 904;
var viewHeight = 661;
var sectionId = 'dynsection-0';
</script>
<script xlink:href="svgpan.js"/>
<svg id="graph" class="graph">
<g id="viewport">
<title>BancoDados</title>
<polygon fill="white" stroke="transparent" points="-4,4 -4,-657 899.5,-657 899.5,4 -4,4"/>
<!-- Node1 -->
<g id="node1" class="node">
<title>Node1</title>
<g id="a_node1"><a xlink:title="Classe implementando persistencia de arquivos.">
<polygon fill="#bfbfbf" stroke="black" points="373,-0.5 373,-266.5 603,-266.5 603,-0.5 373,-0.5"/>
<text text-anchor="middle" x="488" y="-246.5" font-family="Helvetica,sans-Serif" font-size="20.00">BancoDados</text>
<polyline fill="none" stroke="black" points="373,-236.5 603,-236.5 "/>
<text text-anchor="middle" x="488" y="-216.5" font-family="Helvetica,sans-Serif" font-size="20.00"> </text>
<polyline fill="none" stroke="black" points="373,-206.5 603,-206.5 "/>
<text text-anchor="start" x="381" y="-186.5" font-family="Helvetica,sans-Serif" font-size="20.00">+ BancoDados()</text>
<text text-anchor="start" x="381" y="-164.5" font-family="Helvetica,sans-Serif" font-size="20.00">+ salvarDados()</text>
<text text-anchor="start" x="381" y="-142.5" font-family="Helvetica,sans-Serif" font-size="20.00">+ lerDados()</text>
<text text-anchor="start" x="381" y="-120.5" font-family="Helvetica,sans-Serif" font-size="20.00">+ lerDadosTestes()</text>
<text text-anchor="start" x="381" y="-98.5" font-family="Helvetica,sans-Serif" font-size="20.00">+ excluirArquivos()</text>
<text text-anchor="start" x="381" y="-76.5" font-family="Helvetica,sans-Serif" font-size="20.00">&#45; salvarFuncionarios()</text>
<text text-anchor="start" x="381" y="-54.5" font-family="Helvetica,sans-Serif" font-size="20.00">&#45; salvarAnimais()</text>
<text text-anchor="start" x="381" y="-32.5" font-family="Helvetica,sans-Serif" font-size="20.00">&#45; lerFuncionarios()</text>
<text text-anchor="start" x="381" y="-10.5" font-family="Helvetica,sans-Serif" font-size="20.00">&#45; lerAnimais()</text>
</a>
</g>
</g>
<!-- Node2 -->
<g id="node2" class="node">
<title>Node2</title>
<g id="a_node2"><a xlink:title=" ">
<polygon fill="white" stroke="#bfbfbf" points="0,-369.5 0,-481.5 258,-481.5 258,-369.5 0,-369.5"/>
<text text-anchor="start" x="8" y="-461.5" font-family="Helvetica,sans-Serif" font-size="20.00">unordered_map&lt; string,</text>
<text text-anchor="middle" x="129" y="-439.5" font-family="Helvetica,sans-Serif" font-size="20.00"> char &gt;</text>
<polyline fill="none" stroke="#bfbfbf" points="0,-429.5 258,-429.5 "/>
<text text-anchor="middle" x="129" y="-409.5" font-family="Helvetica,sans-Serif" font-size="20.00"> </text>
<polyline fill="none" stroke="#bfbfbf" points="0,-399.5 258,-399.5 "/>
<text text-anchor="middle" x="129" y="-379.5" font-family="Helvetica,sans-Serif" font-size="20.00"> </text>
</a>
</g>
</g>
<!-- Node2&#45;&gt;Node1 -->
<g id="edge1" class="edge">
<title>Node2&#45;&gt;Node1</title>
<path fill="none" stroke="#404040" d="M197.37,-369.27C244.2,-331.44 307.66,-280.18 363.34,-235.2"/>
<polygon fill="none" stroke="#404040" points="363.59,-235 365.74,-228.12 372.92,-227.46 370.77,-234.34 363.59,-235"/>
<text text-anchor="middle" x="342" y="-313" font-family="Helvetica,sans-Serif" font-size="20.00"> &#45;strFiltro</text>
</g>
<!-- Node3 -->
<g id="node3" class="node">
<title>Node3</title>
<g id="a_node3"><a xlink:title=" ">
<polygon fill="white" stroke="#bfbfbf" points="276,-380.5 276,-470.5 522,-470.5 522,-380.5 276,-380.5"/>
<text text-anchor="middle" x="399" y="-450.5" font-family="Helvetica,sans-Serif" font-size="20.00">shared_ptr&lt; Petshop &gt;</text>
<polyline fill="none" stroke="#bfbfbf" points="276,-440.5 522,-440.5 "/>
<text text-anchor="middle" x="399" y="-420.5" font-family="Helvetica,sans-Serif" font-size="20.00"> </text>
<polyline fill="none" stroke="#bfbfbf" points="276,-410.5 522,-410.5 "/>
<text text-anchor="middle" x="399" y="-390.5" font-family="Helvetica,sans-Serif" font-size="20.00"> </text>
</a>
</g>
</g>
<!-- Node3&#45;&gt;Node1 -->
<g id="edge2" class="edge">
<title>Node3&#45;&gt;Node1</title>
<path fill="none" stroke="#404040" d="M412.52,-380.46C421,-352.81 432.47,-315.45 443.9,-278.21"/>
<polygon fill="none" stroke="#404040" points="443.92,-278.13 441.86,-271.23 447.44,-266.66 449.5,-273.57 443.92,-278.13"/>
<text text-anchor="middle" x="488" y="-313" font-family="Helvetica,sans-Serif" font-size="20.00"> &#45;petshop</text>
</g>
<!-- Node4 -->
<g id="node4" class="node">
<title>Node4</title>
<g id="a_node4"><a xlink:title=" ">
<polygon fill="white" stroke="#bfbfbf" points="540,-380.5 540,-470.5 614,-470.5 614,-380.5 540,-380.5"/>
<text text-anchor="middle" x="577" y="-450.5" font-family="Helvetica,sans-Serif" font-size="20.00">string</text>
<polyline fill="none" stroke="#bfbfbf" points="540,-440.5 614,-440.5 "/>
<text text-anchor="middle" x="577" y="-420.5" font-family="Helvetica,sans-Serif" font-size="20.00"> </text>
<polyline fill="none" stroke="#bfbfbf" points="540,-410.5 614,-410.5 "/>
<text text-anchor="middle" x="577" y="-390.5" font-family="Helvetica,sans-Serif" font-size="20.00"> </text>
</a>
</g>
</g>
<!-- Node4&#45;&gt;Node1 -->
<g id="edge3" class="edge">
<title>Node4&#45;&gt;Node1</title>
<path fill="none" stroke="#404040" d="M565.7,-380.32C558.48,-352.79 548.68,-316.69 539,-285 538.35,-282.87 537.69,-280.72 537.02,-278.56"/>
<polygon fill="none" stroke="#404040" points="536.95,-278.35 531.34,-273.82 533.36,-266.9 538.98,-271.43 536.95,-278.35"/>
<text text-anchor="middle" x="611.5" y="-335" font-family="Helvetica,sans-Serif" font-size="20.00"> &#45;funcArq</text>
<text text-anchor="middle" x="611.5" y="-313" font-family="Helvetica,sans-Serif" font-size="20.00">&#45;diretorio</text>
<text text-anchor="middle" x="611.5" y="-291" font-family="Helvetica,sans-Serif" font-size="20.00">&#45;animalArq</text>
</g>
<!-- Node5 -->
<g id="node5" class="node">
<title>Node5</title>
<g id="a_node5"><a xlink:href="classMapeadorAnimal.html" target="_top" xlink:title="Mapeador de animais.">
<polygon fill="white" stroke="black" points="632.5,-380.5 632.5,-470.5 853.5,-470.5 853.5,-380.5 632.5,-380.5"/>
<text text-anchor="middle" x="743" y="-450.5" font-family="Helvetica,sans-Serif" font-size="20.00">MapeadorAnimal</text>
<polyline fill="none" stroke="black" points="632.5,-440.5 853.5,-440.5 "/>
<text text-anchor="middle" x="743" y="-420.5" font-family="Helvetica,sans-Serif" font-size="20.00"> </text>
<polyline fill="none" stroke="black" points="632.5,-410.5 853.5,-410.5 "/>
<text text-anchor="start" x="640.5" y="-390.5" font-family="Helvetica,sans-Serif" font-size="20.00">+ MapeadorAnimal()</text>
</a>
</g>
</g>
<!-- Node5&#45;&gt;Node1 -->
<g id="edge4" class="edge">
<title>Node5&#45;&gt;Node1</title>
<path fill="none" stroke="#404040" d="M725.34,-380.32C712.54,-351.45 693.4,-313.88 670,-285 653.14,-264.19 633.03,-244.2 612.43,-225.96"/>
<polygon fill="none" stroke="#404040" points="612.31,-225.86 605.16,-224.94 603.26,-217.99 610.41,-218.91 612.31,-225.86"/>
<text text-anchor="middle" x="746" y="-313" font-family="Helvetica,sans-Serif" font-size="20.00"> &#45;mapa</text>
</g>
<!-- Node6 -->
<g id="node6" class="node">
<title>Node6</title>
<g id="a_node6"><a xlink:title=" ">
<polygon fill="white" stroke="#bfbfbf" points="590.5,-540.5 590.5,-652.5 895.5,-652.5 895.5,-540.5 590.5,-540.5"/>
<text text-anchor="start" x="598.5" y="-632.5" font-family="Helvetica,sans-Serif" font-size="20.00">map&lt; string, std::function</text>
<text text-anchor="middle" x="743" y="-610.5" font-family="Helvetica,sans-Serif" font-size="20.00">&lt; shared_ptr&lt; Animal &gt;)&gt; &gt;</text>
<polyline fill="none" stroke="#bfbfbf" points="590.5,-600.5 895.5,-600.5 "/>
<text text-anchor="middle" x="743" y="-580.5" font-family="Helvetica,sans-Serif" font-size="20.00"> </text>
<polyline fill="none" stroke="#bfbfbf" points="590.5,-570.5 895.5,-570.5 "/>
<text text-anchor="middle" x="743" y="-550.5" font-family="Helvetica,sans-Serif" font-size="20.00"> </text>
</a>
</g>
</g>
<!-- Node6&#45;&gt;Node5 -->
<g id="edge5" class="edge">
<title>Node6&#45;&gt;Node5</title>
<path fill="none" stroke="#404040" d="M743,-540.16C743,-521.77 743,-501.28 743,-482.82"/>
<polygon fill="none" stroke="#404040" points="743,-482.72 739,-476.72 743,-470.72 747,-476.72 743,-482.72"/>
<text text-anchor="middle" x="781.5" y="-506" font-family="Helvetica,sans-Serif" font-size="20.00"> +aMap</text>
</g>
</g>
</svg>
        <g id="navigator" transform="translate(0 0)" fill="#404254">
                <rect fill="#f2f5e9" fill-opacity="0.5" stroke="#606060" stroke-width=".5" x="0" y="0" width="60" height="60"/>
                <use id="zoomplus" xlink:href="#zoomPlus" x="17" y="9" onmousedown="handleZoom(evt,'in')"/>
                <use id="zoomminus" xlink:href="#zoomMin" x="42" y="9" onmousedown="handleZoom(evt,'out')"/>
                <use id="reset" xlink:href="#resetDef" x="30" y="36" onmousedown="handleReset()"/>
                <g id="arrowUp" xlink:href="#dirArrow" transform="translate(30 24)" onmousedown="handlePan(0,-1)">
                  <use xlink:href="#rim" fill="#404040">
                        <set attributeName="fill" to="#808080" begin="arrowUp.mouseover" end="arrowUp.mouseout"/>
                  </use>
                  <path fill="none" stroke="white" stroke-width="1.5" d="M0,-3.0v7 M-2.5,-0.5L0,-3.0L2.5,-0.5"/>
                </g>
                <g id="arrowRight" xlink:href="#dirArrow" transform="rotate(90) translate(36 -43)" onmousedown="handlePan(1,0)">
                  <use xlink:href="#rim" fill="#404040">
                        <set attributeName="fill" to="#808080" begin="arrowRight.mouseover" end="arrowRight.mouseout"/>
                  </use>
                  <path fill="none" stroke="white" stroke-width="1.5" d="M0,-3.0v7 M-2.5,-0.5L0,-3.0L2.5,-0.5"/>
                </g>
                <g id="arrowDown" xlink:href="#dirArrow" transform="rotate(180) translate(-30 -48)" onmousedown="handlePan(0,1)">
                  <use xlink:href="#rim" fill="#404040">
                        <set attributeName="fill" to="#808080" begin="arrowDown.mouseover" end="arrowDown.mouseout"/>
                  </use>
                  <path fill="none" stroke="white" stroke-width="1.5" d="M0,-3.0v7 M-2.5,-0.5L0,-3.0L2.5,-0.5"/>
                </g>
                <g id="arrowLeft" xlink:href="#dirArrow" transform="rotate(270) translate(-36 17)" onmousedown="handlePan(-1,0)">
                  <use xlink:href="#rim" fill="#404040">
                        <set attributeName="fill" to="#808080" begin="arrowLeft.mouseover" end="arrowLeft.mouseout"/>
                  </use>
                  <path fill="none" stroke="white" stroke-width="1.5" d="M0,-3.0v7 M-2.5,-0.5L0,-3.0L2.5,-0.5"/>
                </g>
        </g>
        <svg viewBox="0 0 15 15" width="100%" height="30px" preserveAspectRatio="xMaxYMin meet">
         <g id="arrow_out" transform="scale(0.3 0.3)">
          <a xlink:href="classBancoDados__coll__graph_org.svg" target="_base">
           <rect id="button" ry="5" rx="5" y="6" x="6" height="38" width="38"
                fill="#f2f5e9" fill-opacity="0.5" stroke="#606060" stroke-width="1.0"/>
           <path id="arrow"
             d="M 11.500037,31.436501 C 11.940474,20.09759 22.043105,11.32322 32.158766,21.979434 L 37.068811,17.246167 C 37.068811,17.246167 37.088388,32 37.088388,32 L 22.160133,31.978069 C 22.160133,31.978069 26.997745,27.140456 26.997745,27.140456 C 18.528582,18.264221 13.291696,25.230495 11.500037,31.436501 z"
             style="fill:#404040;"/>
          </a>
         </g>
        </svg>
</svg>
