<?xml version="1.0" encoding="UTF-8" standalone="no"?>
<!DOCTYPE svg PUBLIC "-//W3C//DTD SVG 1.1//EN"
 "http://www.w3.org/Graphics/SVG/1.1/DTD/svg11.dtd">
<!-- Generated by graphviz version 2.43.0 (0)
 -->
<!-- Title: FiltroAnimal Pages: 1 -->
<svg width="334pt" height="292pt"
 viewBox="0.00 0.00 334.00 292.00" xmlns="http://www.w3.org/2000/svg" xmlns:xlink="http://www.w3.org/1999/xlink">
<g id="graph0" class="graph" transform="scale(1 1) rotate(0) translate(4 288)">
<title>FiltroAnimal</title>
<polygon fill="white" stroke="transparent" points="-4,4 -4,-288 330,-288 330,4 -4,4"/>
<!-- Node1 -->
<g id="node1" class="node">
<title>Node1</title>
<g id="a_node1"><a xlink:title="Classe de filtragem.">
<polygon fill="#bfbfbf" stroke="black" points="78,-0.5 78,-90.5 248,-90.5 248,-0.5 78,-0.5"/>
<text text-anchor="middle" x="163" y="-70.5" font-family="Helvetica,sans-Serif" font-size="20.00">FiltroAnimal</text>
<polyline fill="none" stroke="black" points="78,-60.5 248,-60.5 "/>
<text text-anchor="middle" x="163" y="-40.5" font-family="Helvetica,sans-Serif" font-size="20.00"> </text>
<polyline fill="none" stroke="black" points="78,-30.5 248,-30.5 "/>
<text text-anchor="start" x="86" y="-10.5" font-family="Helvetica,sans-Serif" font-size="20.00">+ FiltroAnimal()</text>
</a>
</g>
</g>
<!-- Node2 -->
<g id="node2" class="node">
<title>Node2</title>
<g id="a_node2"><a xlink:title=" ">
<polygon fill="white" stroke="#bfbfbf" points="0,-149.5 0,-283.5 326,-283.5 326,-149.5 0,-149.5"/>
<text text-anchor="start" x="8" y="-263.5" font-family="Helvetica,sans-Serif" font-size="20.00">map&lt; char, std::function</text>
<text text-anchor="start" x="8" y="-241.5" font-family="Helvetica,sans-Serif" font-size="20.00">&lt; shared_ptr&lt; Animal &gt;shared</text>
<text text-anchor="middle" x="163" y="-219.5" font-family="Helvetica,sans-Serif" font-size="20.00">_ptr&lt; Animal &gt; animal)&gt; &gt;</text>
<polyline fill="none" stroke="#bfbfbf" points="0,-209.5 326,-209.5 "/>
<text text-anchor="middle" x="163" y="-189.5" font-family="Helvetica,sans-Serif" font-size="20.00"> </text>
<polyline fill="none" stroke="#bfbfbf" points="0,-179.5 326,-179.5 "/>
<text text-anchor="middle" x="163" y="-159.5" font-family="Helvetica,sans-Serif" font-size="20.00"> </text>
</a>
</g>
</g>
<!-- Node2&#45;&gt;Node1 -->
<g id="edge1" class="edge">
<title>Node2&#45;&gt;Node1</title>
<path fill="none" stroke="#404040" d="M163,-149.19C163,-133.8 163,-117.57 163,-102.67"/>
<polygon fill="none" stroke="#404040" points="163,-102.51 159,-96.51 163,-90.51 167,-96.51 163,-102.51"/>
<text text-anchor="middle" x="197" y="-115" font-family="Helvetica,sans-Serif" font-size="20.00"> +filtro</text>
</g>
</g>
</svg>
