<?xml version="1.0" encoding="UTF-8" standalone="no"?>
<!DOCTYPE svg PUBLIC "-//W3C//DTD SVG 1.1//EN"
 "http://www.w3.org/Graphics/SVG/1.1/DTD/svg11.dtd">
<!-- Generated by graphviz version 2.43.0 (0)
 -->
<!-- Title: ReptilExotico Pages: 1 -->
<svg width="344pt" height="903pt"
 viewBox="0.00 0.00 344.00 903.00" xmlns="http://www.w3.org/2000/svg" xmlns:xlink="http://www.w3.org/1999/xlink">
<g id="graph0" class="graph" transform="scale(1 1) rotate(0) translate(4 899)">
<title>ReptilExotico</title>
<polygon fill="white" stroke="transparent" points="-4,4 -4,-899 340,-899 340,4 -4,4"/>
<!-- Node1 -->
<g id="node1" class="node">
<title>Node1</title>
<g id="a_node1"><a xlink:title="Implementação de animal com Classe e Categoria.">
<polygon fill="#bfbfbf" stroke="black" points="88.5,-0.5 88.5,-134.5 286.5,-134.5 286.5,-0.5 88.5,-0.5"/>
<text text-anchor="middle" x="187.5" y="-114.5" font-family="Helvetica,sans-Serif" font-size="20.00">ReptilExotico</text>
<polyline fill="none" stroke="black" points="88.5,-104.5 286.5,-104.5 "/>
<text text-anchor="middle" x="187.5" y="-84.5" font-family="Helvetica,sans-Serif" font-size="20.00"> </text>
<polyline fill="none" stroke="black" points="88.5,-74.5 286.5,-74.5 "/>
<text text-anchor="start" x="96.5" y="-54.5" font-family="Helvetica,sans-Serif" font-size="20.00">+ ReptilExotico()</text>
<text text-anchor="start" x="96.5" y="-32.5" font-family="Helvetica,sans-Serif" font-size="20.00">+ ReptilExotico()</text>
<text text-anchor="start" x="96.5" y="-10.5" font-family="Helvetica,sans-Serif" font-size="20.00">+ ~ReptilExotico()</text>
</a>
</g>
</g>
<!-- Node2 -->
<g id="node2" class="node">
<title>Node2</title>
<g id="a_node2"><a xlink:href="classReptil.html" target="_top" xlink:title="Classificação base para Repteis.">
<polygon fill="white" stroke="black" points="48,-171.5 48,-371.5 175,-371.5 175,-171.5 48,-171.5"/>
<text text-anchor="middle" x="111.5" y="-351.5" font-family="Helvetica,sans-Serif" font-size="20.00">Reptil</text>
<polyline fill="none" stroke="black" points="48,-341.5 175,-341.5 "/>
<text text-anchor="start" x="56" y="-321.5" font-family="Helvetica,sans-Serif" font-size="20.00"># pele</text>
<polyline fill="none" stroke="black" points="48,-311.5 175,-311.5 "/>
<text text-anchor="start" x="56" y="-291.5" font-family="Helvetica,sans-Serif" font-size="20.00">+ Reptil()</text>
<text text-anchor="start" x="56" y="-269.5" font-family="Helvetica,sans-Serif" font-size="20.00">+ Reptil()</text>
<text text-anchor="start" x="56" y="-247.5" font-family="Helvetica,sans-Serif" font-size="20.00">+ ~Reptil()</text>
<text text-anchor="start" x="56" y="-225.5" font-family="Helvetica,sans-Serif" font-size="20.00">+ getPele()</text>
<text text-anchor="start" x="56" y="-203.5" font-family="Helvetica,sans-Serif" font-size="20.00">+ setPele()</text>
<text text-anchor="start" x="56" y="-181.5" font-family="Helvetica,sans-Serif" font-size="20.00">+ setPele()</text>
</a>
</g>
</g>
<!-- Node2&#45;&gt;Node1 -->
<g id="edge1" class="edge">
<title>Node2&#45;&gt;Node1</title>
<path fill="none" stroke="midnightblue" d="M152.46,-161.63C155.93,-152.4 159.37,-143.26 162.66,-134.51"/>
<polygon fill="none" stroke="midnightblue" points="149.08,-160.68 148.83,-171.28 155.63,-163.15 149.08,-160.68"/>
</g>
<!-- Node3 -->
<g id="node3" class="node">
<title>Node3</title>
<g id="a_node3"><a xlink:href="classAnimal.html" target="_top" xlink:title="Implementação base para o cadastro de animais.">
<polygon fill="white" stroke="black" points="0,-408.5 0,-894.5 223,-894.5 223,-408.5 0,-408.5"/>
<text text-anchor="middle" x="111.5" y="-874.5" font-family="Helvetica,sans-Serif" font-size="20.00">Animal</text>
<polyline fill="none" stroke="black" points="0,-864.5 223,-864.5 "/>
<text text-anchor="start" x="8" y="-844.5" font-family="Helvetica,sans-Serif" font-size="20.00"># nome</text>
<text text-anchor="start" x="8" y="-822.5" font-family="Helvetica,sans-Serif" font-size="20.00"># especie</text>
<text text-anchor="start" x="8" y="-800.5" font-family="Helvetica,sans-Serif" font-size="20.00"># ameacadoPor</text>
<text text-anchor="start" x="8" y="-778.5" font-family="Helvetica,sans-Serif" font-size="20.00"># veterinario</text>
<text text-anchor="start" x="8" y="-756.5" font-family="Helvetica,sans-Serif" font-size="20.00"># tratador</text>
<text text-anchor="start" x="8" y="-734.5" font-family="Helvetica,sans-Serif" font-size="20.00"># perigoso</text>
<polyline fill="none" stroke="black" points="0,-724.5 223,-724.5 "/>
<text text-anchor="start" x="8" y="-704.5" font-family="Helvetica,sans-Serif" font-size="20.00">+ Animal()</text>
<text text-anchor="start" x="8" y="-682.5" font-family="Helvetica,sans-Serif" font-size="20.00">+ Animal()</text>
<text text-anchor="start" x="8" y="-660.5" font-family="Helvetica,sans-Serif" font-size="20.00">+ ~Animal()</text>
<text text-anchor="start" x="8" y="-638.5" font-family="Helvetica,sans-Serif" font-size="20.00">+ getNome()</text>
<text text-anchor="start" x="8" y="-616.5" font-family="Helvetica,sans-Serif" font-size="20.00">+ getEspecie()</text>
<text text-anchor="start" x="8" y="-594.5" font-family="Helvetica,sans-Serif" font-size="20.00">+ getAmeacadoPor()</text>
<text text-anchor="start" x="8" y="-572.5" font-family="Helvetica,sans-Serif" font-size="20.00">+ getVeterinario()</text>
<text text-anchor="start" x="8" y="-550.5" font-family="Helvetica,sans-Serif" font-size="20.00">+ getTratador()</text>
<text text-anchor="start" x="8" y="-528.5" font-family="Helvetica,sans-Serif" font-size="20.00">+ getPerigoso()</text>
<text text-anchor="start" x="8" y="-506.5" font-family="Helvetica,sans-Serif" font-size="20.00">+ setNome()</text>
<text text-anchor="start" x="8" y="-484.5" font-family="Helvetica,sans-Serif" font-size="20.00">e 13 mais...</text>
<text text-anchor="start" x="8" y="-462.5" font-family="Helvetica,sans-Serif" font-size="20.00">+ getClassificacao()</text>
<text text-anchor="start" x="8" y="-440.5" font-family="Helvetica,sans-Serif" font-size="20.00">+ getClasse()</text>
<text text-anchor="start" x="8" y="-418.5" font-family="Helvetica,sans-Serif" font-size="20.00">+ printOutDetails()</text>
</a>
</g>
</g>
<!-- Node3&#45;&gt;Node2 -->
<g id="edge2" class="edge">
<title>Node3&#45;&gt;Node2</title>
<path fill="none" stroke="midnightblue" d="M111.5,-398.4C111.5,-389.22 111.5,-380.28 111.5,-371.65"/>
<polygon fill="none" stroke="midnightblue" points="108,-398.43 111.5,-408.43 115,-398.43 108,-398.43"/>
</g>
<!-- Node4 -->
<g id="node4" class="node">
<title>Node4</title>
<g id="a_node4"><a xlink:href="classExotico.html" target="_top" xlink:title="Umas das definições de categoria para Animal.">
<polygon fill="white" stroke="black" points="193,-171.5 193,-371.5 336,-371.5 336,-171.5 193,-171.5"/>
<text text-anchor="middle" x="264.5" y="-351.5" font-family="Helvetica,sans-Serif" font-size="20.00">Exotico</text>
<polyline fill="none" stroke="black" points="193,-341.5 336,-341.5 "/>
<text text-anchor="start" x="201" y="-321.5" font-family="Helvetica,sans-Serif" font-size="20.00"># local</text>
<polyline fill="none" stroke="black" points="193,-311.5 336,-311.5 "/>
<text text-anchor="start" x="201" y="-291.5" font-family="Helvetica,sans-Serif" font-size="20.00">+ Exotico()</text>
<text text-anchor="start" x="201" y="-269.5" font-family="Helvetica,sans-Serif" font-size="20.00">+ Exotico()</text>
<text text-anchor="start" x="201" y="-247.5" font-family="Helvetica,sans-Serif" font-size="20.00">+ ~Exotico()</text>
<text text-anchor="start" x="201" y="-225.5" font-family="Helvetica,sans-Serif" font-size="20.00">+ getLocal()</text>
<text text-anchor="start" x="201" y="-203.5" font-family="Helvetica,sans-Serif" font-size="20.00">+ setLocal()</text>
<text text-anchor="start" x="201" y="-181.5" font-family="Helvetica,sans-Serif" font-size="20.00">+ setLocal()</text>
</a>
</g>
</g>
<!-- Node4&#45;&gt;Node1 -->
<g id="edge3" class="edge">
<title>Node4&#45;&gt;Node1</title>
<path fill="none" stroke="midnightblue" d="M223.11,-161.93C219.56,-152.59 216.03,-143.35 212.66,-134.51"/>
<polygon fill="none" stroke="midnightblue" points="219.84,-163.18 226.68,-171.28 226.39,-160.68 219.84,-163.18"/>
</g>
</g>
</svg>
