<?xml version="1.0" encoding="UTF-8" standalone="no"?>
<!DOCTYPE svg PUBLIC "-//W3C//DTD SVG 1.1//EN"
 "http://www.w3.org/Graphics/SVG/1.1/DTD/svg11.dtd">
<!-- Generated by graphviz version 2.43.0 (0)
 -->
<!-- Title: AnfibioExotico Pages: 1 -->
<!--zoomable 1971 -->
<svg id="main" version="1.1" xmlns="http://www.w3.org/2000/svg" xmlns:xlink="http://www.w3.org/1999/xlink" xml:space="preserve" onload="init(evt)">
<style type="text/css"><![CDATA[
.edge:hover path { stroke: red; }
.edge:hover polygon { stroke: red; fill: red; }
]]></style>
<script type="text/javascript"><![CDATA[
var edges = document.getElementsByTagName('g');
if (edges && edges.length) {
  for (var i=0;i<edges.length;i++) {
    if (edges[i].id.substr(0,4)=='edge') {
      edges[i].setAttribute('class','edge');
    }
  }
}
]]></script>
        <defs>
                <circle id="rim" cx="0" cy="0" r="7"/>
                <circle id="rim2" cx="0" cy="0" r="3.5"/>
                <g id="zoomPlus">
                        <use xlink:href="#rim" fill="#404040">
                                <set attributeName="fill" to="#808080" begin="zoomplus.mouseover" end="zoomplus.mouseout"/>
                        </use>
                        <path d="M-4,0h8M0,-4v8" fill="none" stroke="white" stroke-width="1.5" pointer-events="none"/>
                </g>
                <g id="zoomMin">
                        <use xlink:href="#rim" fill="#404040">
                                <set attributeName="fill" to="#808080" begin="zoomminus.mouseover" end="zoomminus.mouseout"/>
                        </use>
                        <path d="M-4,0h8" fill="none" stroke="white" stroke-width="1.5" pointer-events="none"/>
                </g>
                <g id="dirArrow">
                        <path fill="none" stroke="white" stroke-width="1.5" d="M0,-3.0v7 M-2.5,-0.5L0,-3.0L2.5,-0.5"/>
                </g>
               <g id="resetDef">
                       <use xlink:href="#rim2" fill="#404040">
                               <set attributeName="fill" to="#808080" begin="reset.mouseover" end="reset.mouseout"/>
                       </use>
               </g>
        </defs>

<script type="text/javascript">
var viewWidth = 772;
var viewHeight = 1971;
var sectionId = 'dynsection-1';
</script>
<script xlink:href="svgpan.js"/>
<svg id="graph" class="graph">
<g id="viewport">
<title>AnfibioExotico</title>
<polygon fill="white" stroke="transparent" points="-4,4 -4,-1967 767.59,-1967 767.59,4 -4,4"/>
<!-- Node1 -->
<g id="node1" class="node">
<title>Node1</title>
<g id="a_node1"><a xlink:title="Implementação de animal com Classe e Categoria.">
<polygon fill="#bfbfbf" stroke="black" points="533.09,-0.5 533.09,-134.5 745.09,-134.5 745.09,-0.5 533.09,-0.5"/>
<text text-anchor="middle" x="639.09" y="-114.5" font-family="Helvetica,sans-Serif" font-size="20.00">AnfibioExotico</text>
<polyline fill="none" stroke="black" points="533.09,-104.5 745.09,-104.5 "/>
<text text-anchor="middle" x="639.09" y="-84.5" font-family="Helvetica,sans-Serif" font-size="20.00"> </text>
<polyline fill="none" stroke="black" points="533.09,-74.5 745.09,-74.5 "/>
<text text-anchor="start" x="541.09" y="-54.5" font-family="Helvetica,sans-Serif" font-size="20.00">+ AnfibioExotico()</text>
<text text-anchor="start" x="541.09" y="-32.5" font-family="Helvetica,sans-Serif" font-size="20.00">+ AnfibioExotico()</text>
<text text-anchor="start" x="541.09" y="-10.5" font-family="Helvetica,sans-Serif" font-size="20.00">+ ~AnfibioExotico()</text>
</a>
</g>
</g>
<!-- Node2 -->
<g id="node2" class="node">
<title>Node2</title>
<g id="a_node2"><a xlink:href="classAnfibio.html" target="_top" xlink:title="Classificação base para Anfibios.">
<polygon fill="white" stroke="black" points="511.09,-172.5 511.09,-438.5 661.09,-438.5 661.09,-172.5 511.09,-172.5"/>
<text text-anchor="middle" x="586.09" y="-418.5" font-family="Helvetica,sans-Serif" font-size="20.00">Anfibio</text>
<polyline fill="none" stroke="black" points="511.09,-408.5 661.09,-408.5 "/>
<text text-anchor="middle" x="586.09" y="-388.5" font-family="Helvetica,sans-Serif" font-size="20.00"> </text>
<polyline fill="none" stroke="black" points="511.09,-378.5 661.09,-378.5 "/>
<text text-anchor="start" x="519.09" y="-358.5" font-family="Helvetica,sans-Serif" font-size="20.00">+ Anfibio()</text>
<text text-anchor="start" x="519.09" y="-336.5" font-family="Helvetica,sans-Serif" font-size="20.00">+ Anfibio()</text>
<text text-anchor="start" x="519.09" y="-314.5" font-family="Helvetica,sans-Serif" font-size="20.00">+ ~Anfibio()</text>
<text text-anchor="start" x="519.09" y="-292.5" font-family="Helvetica,sans-Serif" font-size="20.00">+ getCauda()</text>
<text text-anchor="start" x="519.09" y="-270.5" font-family="Helvetica,sans-Serif" font-size="20.00">+ setCauda()</text>
<text text-anchor="start" x="519.09" y="-248.5" font-family="Helvetica,sans-Serif" font-size="20.00">+ setCauda()</text>
<text text-anchor="start" x="519.09" y="-226.5" font-family="Helvetica,sans-Serif" font-size="20.00">+ getPata()</text>
<text text-anchor="start" x="519.09" y="-204.5" font-family="Helvetica,sans-Serif" font-size="20.00">+ setPata()</text>
<text text-anchor="start" x="519.09" y="-182.5" font-family="Helvetica,sans-Serif" font-size="20.00">+ setPata()</text>
</a>
</g>
</g>
<!-- Node2&#45;&gt;Node1 -->
<g id="edge1" class="edge">
<title>Node2&#45;&gt;Node1</title>
<path fill="none" stroke="midnightblue" d="M618.02,-162.31C620.17,-152.74 622.27,-143.39 624.26,-134.53"/>
<polygon fill="none" stroke="midnightblue" points="614.54,-161.83 615.77,-172.36 621.37,-163.37 614.54,-161.83"/>
</g>
<!-- Node3 -->
<g id="node3" class="node">
<title>Node3</title>
<g id="a_node3"><a xlink:href="classAnimal.html" target="_top" xlink:title="Implementação base para o cadastro de animais.">
<polygon fill="white" stroke="black" points="224.59,-476.5 224.59,-852.5 447.59,-852.5 447.59,-476.5 224.59,-476.5"/>
<text text-anchor="middle" x="336.09" y="-832.5" font-family="Helvetica,sans-Serif" font-size="20.00">Animal</text>
<polyline fill="none" stroke="black" points="224.59,-822.5 447.59,-822.5 "/>
<text text-anchor="middle" x="336.09" y="-802.5" font-family="Helvetica,sans-Serif" font-size="20.00"> </text>
<polyline fill="none" stroke="black" points="224.59,-792.5 447.59,-792.5 "/>
<text text-anchor="start" x="232.59" y="-772.5" font-family="Helvetica,sans-Serif" font-size="20.00">+ Animal()</text>
<text text-anchor="start" x="232.59" y="-750.5" font-family="Helvetica,sans-Serif" font-size="20.00">+ Animal()</text>
<text text-anchor="start" x="232.59" y="-728.5" font-family="Helvetica,sans-Serif" font-size="20.00">+ ~Animal()</text>
<text text-anchor="start" x="232.59" y="-706.5" font-family="Helvetica,sans-Serif" font-size="20.00">+ getNome()</text>
<text text-anchor="start" x="232.59" y="-684.5" font-family="Helvetica,sans-Serif" font-size="20.00">+ getEspecie()</text>
<text text-anchor="start" x="232.59" y="-662.5" font-family="Helvetica,sans-Serif" font-size="20.00">+ getAmeacadoPor()</text>
<text text-anchor="start" x="232.59" y="-640.5" font-family="Helvetica,sans-Serif" font-size="20.00">+ getVeterinario()</text>
<text text-anchor="start" x="232.59" y="-618.5" font-family="Helvetica,sans-Serif" font-size="20.00">+ getTratador()</text>
<text text-anchor="start" x="232.59" y="-596.5" font-family="Helvetica,sans-Serif" font-size="20.00">+ getPerigoso()</text>
<text text-anchor="start" x="232.59" y="-574.5" font-family="Helvetica,sans-Serif" font-size="20.00">+ setNome()</text>
<text text-anchor="start" x="232.59" y="-552.5" font-family="Helvetica,sans-Serif" font-size="20.00">e 13 mais...</text>
<text text-anchor="start" x="232.59" y="-530.5" font-family="Helvetica,sans-Serif" font-size="20.00">+ getClassificacao()</text>
<text text-anchor="start" x="232.59" y="-508.5" font-family="Helvetica,sans-Serif" font-size="20.00">+ getClasse()</text>
<text text-anchor="start" x="232.59" y="-486.5" font-family="Helvetica,sans-Serif" font-size="20.00">+ printOutDetails()</text>
</a>
</g>
</g>
<!-- Node3&#45;&gt;Node2 -->
<g id="edge2" class="edge">
<title>Node3&#45;&gt;Node2</title>
<path fill="none" stroke="midnightblue" d="M453.53,-495.8C473.07,-467.89 492.87,-439.62 510.99,-413.74"/>
<polygon fill="none" stroke="midnightblue" points="450.61,-493.86 447.75,-504.06 456.35,-497.87 450.61,-493.86"/>
</g>
<!-- Node4 -->
<g id="node4" class="node">
<title>Node4</title>
<g id="a_node4"><a xlink:href="classTratador.html" target="_top" xlink:title="Implementação dos tratadores.">
<polygon fill="white" stroke="black" points="301.09,-911.5 301.09,-1133.5 501.09,-1133.5 501.09,-911.5 301.09,-911.5"/>
<text text-anchor="middle" x="401.09" y="-1113.5" font-family="Helvetica,sans-Serif" font-size="20.00">Tratador</text>
<polyline fill="none" stroke="black" points="301.09,-1103.5 501.09,-1103.5 "/>
<text text-anchor="middle" x="401.09" y="-1083.5" font-family="Helvetica,sans-Serif" font-size="20.00"> </text>
<polyline fill="none" stroke="black" points="301.09,-1073.5 501.09,-1073.5 "/>
<text text-anchor="start" x="309.09" y="-1053.5" font-family="Helvetica,sans-Serif" font-size="20.00">+ Tratador()</text>
<text text-anchor="start" x="309.09" y="-1031.5" font-family="Helvetica,sans-Serif" font-size="20.00">+ Tratador()</text>
<text text-anchor="start" x="309.09" y="-1009.5" font-family="Helvetica,sans-Serif" font-size="20.00">+ ~Tratador()</text>
<text text-anchor="start" x="309.09" y="-987.5" font-family="Helvetica,sans-Serif" font-size="20.00">+ getUniforme()</text>
<text text-anchor="start" x="309.09" y="-965.5" font-family="Helvetica,sans-Serif" font-size="20.00">+ setUniforme()</text>
<text text-anchor="start" x="309.09" y="-943.5" font-family="Helvetica,sans-Serif" font-size="20.00">+ setUniforme()</text>
<text text-anchor="start" x="309.09" y="-921.5" font-family="Helvetica,sans-Serif" font-size="20.00">+ printOutDados()</text>
</a>
</g>
</g>
<!-- Node4&#45;&gt;Node3 -->
<g id="edge3" class="edge">
<title>Node4&#45;&gt;Node3</title>
<path fill="none" stroke="#404040" d="M342.32,-911.24C340.3,-905.17 338.53,-899.06 337.09,-893 334.88,-883.71 333.08,-874.15 331.64,-864.45"/>
<polygon fill="none" stroke="#404040" points="331.64,-864.44 326.87,-859.03 330.04,-852.55 334.8,-857.97 331.64,-864.44"/>
<text text-anchor="middle" x="388.59" y="-877" font-family="Helvetica,sans-Serif" font-size="20.00"> #tratador</text>
</g>
<!-- Node5 -->
<g id="node5" class="node">
<title>Node5</title>
<g id="a_node5"><a xlink:href="classPessoa.html" target="_top" xlink:title="Classe base dos funcionarios.">
<polygon fill="white" stroke="black" points="274.09,-1371.5 274.09,-1769.5 474.09,-1769.5 474.09,-1371.5 274.09,-1371.5"/>
<text text-anchor="middle" x="374.09" y="-1749.5" font-family="Helvetica,sans-Serif" font-size="20.00">Pessoa</text>
<polyline fill="none" stroke="black" points="274.09,-1739.5 474.09,-1739.5 "/>
<text text-anchor="middle" x="374.09" y="-1719.5" font-family="Helvetica,sans-Serif" font-size="20.00"> </text>
<polyline fill="none" stroke="black" points="274.09,-1709.5 474.09,-1709.5 "/>
<text text-anchor="start" x="282.09" y="-1689.5" font-family="Helvetica,sans-Serif" font-size="20.00">+ Pessoa()</text>
<text text-anchor="start" x="282.09" y="-1667.5" font-family="Helvetica,sans-Serif" font-size="20.00">+ Pessoa()</text>
<text text-anchor="start" x="282.09" y="-1645.5" font-family="Helvetica,sans-Serif" font-size="20.00">+ ~Pessoa()</text>
<text text-anchor="start" x="282.09" y="-1623.5" font-family="Helvetica,sans-Serif" font-size="20.00">+ getNome()</text>
<text text-anchor="start" x="282.09" y="-1601.5" font-family="Helvetica,sans-Serif" font-size="20.00">+ setNome()</text>
<text text-anchor="start" x="282.09" y="-1579.5" font-family="Helvetica,sans-Serif" font-size="20.00">+ setNome()</text>
<text text-anchor="start" x="282.09" y="-1557.5" font-family="Helvetica,sans-Serif" font-size="20.00">+ getTelefone()</text>
<text text-anchor="start" x="282.09" y="-1535.5" font-family="Helvetica,sans-Serif" font-size="20.00">+ setTelefone()</text>
<text text-anchor="start" x="282.09" y="-1513.5" font-family="Helvetica,sans-Serif" font-size="20.00">+ setTelefone()</text>
<text text-anchor="start" x="282.09" y="-1491.5" font-family="Helvetica,sans-Serif" font-size="20.00">+ getEmail()</text>
<text text-anchor="start" x="282.09" y="-1469.5" font-family="Helvetica,sans-Serif" font-size="20.00">+ setEmail()</text>
<text text-anchor="start" x="282.09" y="-1447.5" font-family="Helvetica,sans-Serif" font-size="20.00">+ setEmail()</text>
<text text-anchor="start" x="282.09" y="-1425.5" font-family="Helvetica,sans-Serif" font-size="20.00">+ printOutDados()</text>
<text text-anchor="start" x="282.09" y="-1403.5" font-family="Helvetica,sans-Serif" font-size="20.00">+ operator==()</text>
<text text-anchor="start" x="282.09" y="-1381.5" font-family="Helvetica,sans-Serif" font-size="20.00">+ operator==()</text>
</a>
</g>
</g>
<!-- Node5&#45;&gt;Node4 -->
<g id="edge4" class="edge">
<title>Node5&#45;&gt;Node4</title>
<path fill="none" stroke="midnightblue" d="M384.41,-1360.85C388.23,-1283.51 392.42,-1198.85 395.64,-1133.7"/>
<polygon fill="none" stroke="midnightblue" points="380.89,-1361.06 383.89,-1371.22 387.88,-1361.41 380.89,-1361.06"/>
</g>
<!-- Node9 -->
<g id="node9" class="node">
<title>Node9</title>
<g id="a_node9"><a xlink:href="classVeterinario.html" target="_top" xlink:title="Implementação dos veterinarios.">
<polygon fill="white" stroke="black" points="83.09,-911.5 83.09,-1133.5 283.09,-1133.5 283.09,-911.5 83.09,-911.5"/>
<text text-anchor="middle" x="183.09" y="-1113.5" font-family="Helvetica,sans-Serif" font-size="20.00">Veterinario</text>
<polyline fill="none" stroke="black" points="83.09,-1103.5 283.09,-1103.5 "/>
<text text-anchor="middle" x="183.09" y="-1083.5" font-family="Helvetica,sans-Serif" font-size="20.00"> </text>
<polyline fill="none" stroke="black" points="83.09,-1073.5 283.09,-1073.5 "/>
<text text-anchor="start" x="91.09" y="-1053.5" font-family="Helvetica,sans-Serif" font-size="20.00">+ Veterinario()</text>
<text text-anchor="start" x="91.09" y="-1031.5" font-family="Helvetica,sans-Serif" font-size="20.00">+ Veterinario()</text>
<text text-anchor="start" x="91.09" y="-1009.5" font-family="Helvetica,sans-Serif" font-size="20.00">+ ~Veterinario()</text>
<text text-anchor="start" x="91.09" y="-987.5" font-family="Helvetica,sans-Serif" font-size="20.00">+ getCRMV()</text>
<text text-anchor="start" x="91.09" y="-965.5" font-family="Helvetica,sans-Serif" font-size="20.00">+ setCRMV()</text>
<text text-anchor="start" x="91.09" y="-943.5" font-family="Helvetica,sans-Serif" font-size="20.00">+ setCRMV()</text>
<text text-anchor="start" x="91.09" y="-921.5" font-family="Helvetica,sans-Serif" font-size="20.00">+ printOutDados()</text>
</a>
</g>
</g>
<!-- Node5&#45;&gt;Node9 -->
<g id="edge10" class="edge">
<title>Node5&#45;&gt;Node9</title>
<path fill="none" stroke="midnightblue" d="M301.27,-1361.33C274.17,-1283.85 244.48,-1198.99 221.64,-1133.7"/>
<polygon fill="none" stroke="midnightblue" points="298.12,-1362.94 304.73,-1371.22 304.73,-1360.63 298.12,-1362.94"/>
</g>
<!-- Node6 -->
<g id="node6" class="node">
<title>Node6</title>
<g id="a_node6"><a xlink:title=" ">
<polygon fill="white" stroke="#bfbfbf" points="241.09,-1872.5 241.09,-1962.5 315.09,-1962.5 315.09,-1872.5 241.09,-1872.5"/>
<text text-anchor="middle" x="278.09" y="-1942.5" font-family="Helvetica,sans-Serif" font-size="20.00">string</text>
<polyline fill="none" stroke="#bfbfbf" points="241.09,-1932.5 315.09,-1932.5 "/>
<text text-anchor="middle" x="278.09" y="-1912.5" font-family="Helvetica,sans-Serif" font-size="20.00"> </text>
<polyline fill="none" stroke="#bfbfbf" points="241.09,-1902.5 315.09,-1902.5 "/>
<text text-anchor="middle" x="278.09" y="-1882.5" font-family="Helvetica,sans-Serif" font-size="20.00"> </text>
</a>
</g>
</g>
<!-- Node6&#45;&gt;Node3 -->
<g id="edge8" class="edge">
<title>Node6&#45;&gt;Node3</title>
<path fill="none" stroke="#404040" d="M241.07,-1895.42C225.08,-1884.76 207.29,-1870.55 195.09,-1854 3.99,-1594.72 -23.48,-1471.78 15.09,-1152 28.3,-1042.52 18.44,-1006.2 74.09,-911 109.55,-850.33 164.59,-795.49 215.08,-753.11"/>
<polygon fill="none" stroke="#404040" points="215.22,-753 217.28,-746.09 224.45,-745.34 222.39,-752.25 215.22,-753"/>
<text text-anchor="middle" x="91.09" y="-1269.5" font-family="Helvetica,sans-Serif" font-size="20.00"> #especie</text>
<text text-anchor="middle" x="91.09" y="-1247.5" font-family="Helvetica,sans-Serif" font-size="20.00">#ameacadoPor</text>
<text text-anchor="middle" x="91.09" y="-1225.5" font-family="Helvetica,sans-Serif" font-size="20.00">#nome</text>
</g>
<!-- Node6&#45;&gt;Node5 -->
<g id="edge5" class="edge">
<title>Node6&#45;&gt;Node5</title>
<path fill="none" stroke="#404040" d="M290.35,-1872.46C297.13,-1848.06 306.13,-1815.75 315.69,-1781.36"/>
<polygon fill="none" stroke="#404040" points="315.74,-1781.18 313.5,-1774.33 318.96,-1769.62 321.21,-1776.47 315.74,-1781.18"/>
<text text-anchor="middle" x="360.59" y="-1838" font-family="Helvetica,sans-Serif" font-size="20.00"> #email</text>
<text text-anchor="middle" x="360.59" y="-1816" font-family="Helvetica,sans-Serif" font-size="20.00">#nome</text>
<text text-anchor="middle" x="360.59" y="-1794" font-family="Helvetica,sans-Serif" font-size="20.00">#telefone</text>
</g>
<!-- Node6&#45;&gt;Node9 -->
<g id="edge11" class="edge">
<title>Node6&#45;&gt;Node9</title>
<path fill="none" stroke="#404040" d="M244.01,-1872.45C224.73,-1844.71 202.45,-1807.22 192.09,-1770 160.45,-1656.33 169.26,-1326.76 176.99,-1145.88"/>
<polygon fill="none" stroke="#404040" points="177,-1145.64 173.27,-1139.48 177.52,-1133.66 181.26,-1139.82 177,-1145.64"/>
<text text-anchor="middle" x="228.59" y="-1565.5" font-family="Helvetica,sans-Serif" font-size="20.00"> &#45;CRMV</text>
</g>
<!-- Node10 -->
<g id="node10" class="node">
<title>Node10</title>
<g id="a_node10"><a xlink:href="classExotico.html" target="_top" xlink:title="Umas das definições de categoria para Animal.">
<polygon fill="white" stroke="black" points="620.59,-1152.5 620.59,-1352.5 763.59,-1352.5 763.59,-1152.5 620.59,-1152.5"/>
<text text-anchor="middle" x="692.09" y="-1332.5" font-family="Helvetica,sans-Serif" font-size="20.00">Exotico</text>
<polyline fill="none" stroke="black" points="620.59,-1322.5 763.59,-1322.5 "/>
<text text-anchor="middle" x="692.09" y="-1302.5" font-family="Helvetica,sans-Serif" font-size="20.00"> </text>
<polyline fill="none" stroke="black" points="620.59,-1292.5 763.59,-1292.5 "/>
<text text-anchor="start" x="628.59" y="-1272.5" font-family="Helvetica,sans-Serif" font-size="20.00">+ Exotico()</text>
<text text-anchor="start" x="628.59" y="-1250.5" font-family="Helvetica,sans-Serif" font-size="20.00">+ Exotico()</text>
<text text-anchor="start" x="628.59" y="-1228.5" font-family="Helvetica,sans-Serif" font-size="20.00">+ ~Exotico()</text>
<text text-anchor="start" x="628.59" y="-1206.5" font-family="Helvetica,sans-Serif" font-size="20.00">+ getLocal()</text>
<text text-anchor="start" x="628.59" y="-1184.5" font-family="Helvetica,sans-Serif" font-size="20.00">+ setLocal()</text>
<text text-anchor="start" x="628.59" y="-1162.5" font-family="Helvetica,sans-Serif" font-size="20.00">+ setLocal()</text>
</a>
</g>
</g>
<!-- Node6&#45;&gt;Node10 -->
<g id="edge14" class="edge">
<title>Node6&#45;&gt;Node10</title>
<path fill="none" stroke="#404040" d="M315.32,-1911.57C384.93,-1900.23 534.38,-1865.54 608.09,-1770 697.84,-1653.67 707.71,-1478.17 702.82,-1364.7"/>
<polygon fill="none" stroke="#404040" points="702.81,-1364.54 698.52,-1358.74 702.23,-1352.55 706.51,-1358.35 702.81,-1364.54"/>
<text text-anchor="middle" x="624.59" y="-1816" font-family="Helvetica,sans-Serif" font-size="20.00"> #local</text>
</g>
<!-- Node7 -->
<g id="node7" class="node">
<title>Node7</title>
<g id="a_node7"><a xlink:title=" ">
<polygon fill="white" stroke="#bfbfbf" points="492.59,-1525.5 492.59,-1615.5 599.59,-1615.5 599.59,-1525.5 492.59,-1525.5"/>
<text text-anchor="middle" x="546.09" y="-1595.5" font-family="Helvetica,sans-Serif" font-size="20.00">Uniforme</text>
<polyline fill="none" stroke="#bfbfbf" points="492.59,-1585.5 599.59,-1585.5 "/>
<text text-anchor="middle" x="546.09" y="-1565.5" font-family="Helvetica,sans-Serif" font-size="20.00"> </text>
<polyline fill="none" stroke="#bfbfbf" points="492.59,-1555.5 599.59,-1555.5 "/>
<text text-anchor="middle" x="546.09" y="-1535.5" font-family="Helvetica,sans-Serif" font-size="20.00"> </text>
</a>
</g>
</g>
<!-- Node7&#45;&gt;Node4 -->
<g id="edge6" class="edge">
<title>Node7&#45;&gt;Node4</title>
<path fill="none" stroke="#404040" d="M534.35,-1525.28C512.62,-1443.47 465.45,-1265.85 433.47,-1145.44"/>
<polygon fill="none" stroke="#404040" points="433.41,-1145.21 428.01,-1140.44 430.33,-1133.61 435.74,-1138.38 433.41,-1145.21"/>
<text text-anchor="middle" x="538.59" y="-1247.5" font-family="Helvetica,sans-Serif" font-size="20.00"> &#45;uniforme</text>
</g>
<!-- Node8 -->
<g id="node8" class="node">
<title>Node8</title>
<g id="a_node8"><a xlink:title=" ">
<polygon fill="white" stroke="#bfbfbf" points="538.59,-977.5 538.59,-1067.5 597.59,-1067.5 597.59,-977.5 538.59,-977.5"/>
<text text-anchor="middle" x="568.09" y="-1047.5" font-family="Helvetica,sans-Serif" font-size="20.00">bool</text>
<polyline fill="none" stroke="#bfbfbf" points="538.59,-1037.5 597.59,-1037.5 "/>
<text text-anchor="middle" x="568.09" y="-1017.5" font-family="Helvetica,sans-Serif" font-size="20.00"> </text>
<polyline fill="none" stroke="#bfbfbf" points="538.59,-1007.5 597.59,-1007.5 "/>
<text text-anchor="middle" x="568.09" y="-987.5" font-family="Helvetica,sans-Serif" font-size="20.00"> </text>
</a>
</g>
</g>
<!-- Node8&#45;&gt;Node2 -->
<g id="edge12" class="edge">
<title>Node8&#45;&gt;Node2</title>
<path fill="none" stroke="#404040" d="M569.54,-977.49C570.34,-952.68 571.32,-921.11 572.09,-893 576.24,-742.15 580.27,-569.46 582.94,-450.73"/>
<polygon fill="none" stroke="#404040" points="582.94,-450.69 579.07,-444.61 583.21,-438.7 587.07,-444.78 582.94,-450.69"/>
<text text-anchor="middle" x="622.09" y="-670.5" font-family="Helvetica,sans-Serif" font-size="20.00"> #pata</text>
<text text-anchor="middle" x="622.09" y="-648.5" font-family="Helvetica,sans-Serif" font-size="20.00">#cauda</text>
</g>
<!-- Node8&#45;&gt;Node3 -->
<g id="edge7" class="edge">
<title>Node8&#45;&gt;Node3</title>
<path fill="none" stroke="#404040" d="M553.52,-977.35C544.18,-954.9 530.01,-928.7 510.09,-911 493.37,-896.14 480,-907.64 463.09,-893 452.34,-883.69 442.31,-873.23 432.99,-862.05"/>
<polygon fill="none" stroke="#404040" points="432.84,-861.86 425.97,-859.68 425.33,-852.5 432.21,-854.68 432.84,-861.86"/>
<text text-anchor="middle" x="517.59" y="-877" font-family="Helvetica,sans-Serif" font-size="20.00"> #perigoso</text>
</g>
<!-- Node9&#45;&gt;Node3 -->
<g id="edge9" class="edge">
<title>Node9&#45;&gt;Node3</title>
<path fill="none" stroke="#404040" d="M189.45,-911.19C192.01,-897.42 195.46,-883.73 200.09,-871 205.3,-856.66 211.7,-842.33 218.85,-828.28"/>
<polygon fill="none" stroke="#404040" points="218.88,-828.22 218.13,-821.05 224.46,-817.6 225.21,-824.77 218.88,-828.22"/>
<text text-anchor="middle" x="265.09" y="-877" font-family="Helvetica,sans-Serif" font-size="20.00"> #veterinario</text>
</g>
<!-- Node10&#45;&gt;Node1 -->
<g id="edge13" class="edge">
<title>Node10&#45;&gt;Node1</title>
<path fill="none" stroke="midnightblue" d="M692.09,-1142.01C692.09,-1068.71 692.09,-970.07 692.09,-883 692.09,-883 692.09,-883 692.09,-304.5 692.09,-246.13 676.46,-181.57 662.18,-134.75"/>
<polygon fill="none" stroke="midnightblue" points="688.59,-1142.18 692.09,-1152.18 695.59,-1142.18 688.59,-1142.18"/>
</g>
</g>
</svg>
        <g id="navigator" transform="translate(0 0)" fill="#404254">
                <rect fill="#f2f5e9" fill-opacity="0.5" stroke="#606060" stroke-width=".5" x="0" y="0" width="60" height="60"/>
                <use id="zoomplus" xlink:href="#zoomPlus" x="17" y="9" onmousedown="handleZoom(evt,'in')"/>
                <use id="zoomminus" xlink:href="#zoomMin" x="42" y="9" onmousedown="handleZoom(evt,'out')"/>
                <use id="reset" xlink:href="#resetDef" x="30" y="36" onmousedown="handleReset()"/>
                <g id="arrowUp" xlink:href="#dirArrow" transform="translate(30 24)" onmousedown="handlePan(0,-1)">
                  <use xlink:href="#rim" fill="#404040">
                        <set attributeName="fill" to="#808080" begin="arrowUp.mouseover" end="arrowUp.mouseout"/>
                  </use>
                  <path fill="none" stroke="white" stroke-width="1.5" d="M0,-3.0v7 M-2.5,-0.5L0,-3.0L2.5,-0.5"/>
                </g>
                <g id="arrowRight" xlink:href="#dirArrow" transform="rotate(90) translate(36 -43)" onmousedown="handlePan(1,0)">
                  <use xlink:href="#rim" fill="#404040">
                        <set attributeName="fill" to="#808080" begin="arrowRight.mouseover" end="arrowRight.mouseout"/>
                  </use>
                  <path fill="none" stroke="white" stroke-width="1.5" d="M0,-3.0v7 M-2.5,-0.5L0,-3.0L2.5,-0.5"/>
                </g>
                <g id="arrowDown" xlink:href="#dirArrow" transform="rotate(180) translate(-30 -48)" onmousedown="handlePan(0,1)">
                  <use xlink:href="#rim" fill="#404040">
                        <set attributeName="fill" to="#808080" begin="arrowDown.mouseover" end="arrowDown.mouseout"/>
                  </use>
                  <path fill="none" stroke="white" stroke-width="1.5" d="M0,-3.0v7 M-2.5,-0.5L0,-3.0L2.5,-0.5"/>
                </g>
                <g id="arrowLeft" xlink:href="#dirArrow" transform="rotate(270) translate(-36 17)" onmousedown="handlePan(-1,0)">
                  <use xlink:href="#rim" fill="#404040">
                        <set attributeName="fill" to="#808080" begin="arrowLeft.mouseover" end="arrowLeft.mouseout"/>
                  </use>
                  <path fill="none" stroke="white" stroke-width="1.5" d="M0,-3.0v7 M-2.5,-0.5L0,-3.0L2.5,-0.5"/>
                </g>
        </g>
        <svg viewBox="0 0 15 15" width="100%" height="30px" preserveAspectRatio="xMaxYMin meet">
         <g id="arrow_out" transform="scale(0.3 0.3)">
          <a xlink:href="classAnfibioExotico__coll__graph_org.svg" target="_base">
           <rect id="button" ry="5" rx="5" y="6" x="6" height="38" width="38"
                fill="#f2f5e9" fill-opacity="0.5" stroke="#606060" stroke-width="1.0"/>
           <path id="arrow"
             d="M 11.500037,31.436501 C 11.940474,20.09759 22.043105,11.32322 32.158766,21.979434 L 37.068811,17.246167 C 37.068811,17.246167 37.088388,32 37.088388,32 L 22.160133,31.978069 C 22.160133,31.978069 26.997745,27.140456 26.997745,27.140456 C 18.528582,18.264221 13.291696,25.230495 11.500037,31.436501 z"
             style="fill:#404040;"/>
          </a>
         </g>
        </svg>
</svg>
