<?xml version="1.0" encoding="UTF-8" standalone="no"?>
<!DOCTYPE svg PUBLIC "-//W3C//DTD SVG 1.1//EN"
 "http://www.w3.org/Graphics/SVG/1.1/DTD/svg11.dtd">
<!-- Generated by graphviz version 2.40.1 (20161225.0304)
 -->
<!-- Title: MamiferoExotico Pages: 1 -->
<svg width="323pt" height="815pt"
 viewBox="0.00 0.00 323.00 815.00" xmlns="http://www.w3.org/2000/svg" xmlns:xlink="http://www.w3.org/1999/xlink">
<g id="graph0" class="graph" transform="scale(1 1) rotate(0) translate(4 811)">
<title>MamiferoExotico</title>
<polygon fill="#ffffff" stroke="transparent" points="-4,4 -4,-811 319,-811 319,4 -4,4"/>
<!-- Node0 -->
<g id="node1" class="node">
<title>Node0</title>
<polygon fill="#bfbfbf" stroke="#000000" points="52,-.5 52,-112.5 243,-112.5 243,-.5 52,-.5"/>
<text text-anchor="middle" x="147.5" y="-92.5" font-family="Helvetica,sans-Serif" font-size="20.00" fill="#000000">MamiferoExotico</text>
<polyline fill="none" stroke="#000000" points="52,-82.5 243,-82.5 "/>
<text text-anchor="middle" x="147.5" y="-62.5" font-family="Helvetica,sans-Serif" font-size="20.00" fill="#000000"> </text>
<polyline fill="none" stroke="#000000" points="52,-52.5 243,-52.5 "/>
<text text-anchor="start" x="60" y="-32.5" font-family="Helvetica,sans-Serif" font-size="20.00" fill="#000000">+ MamiferoExotico()</text>
<text text-anchor="start" x="60" y="-10.5" font-family="Helvetica,sans-Serif" font-size="20.00" fill="#000000">+ ~MamiferoExotico()</text>
</g>
<!-- Node1 -->
<g id="node2" class="node">
<title>Node1</title>
<g id="a_node2"><a xlink:href="classMamifero.html" target="_top" xlink:title="Classificação base para Mamiferos. ">
<polygon fill="#ffffff" stroke="#000000" points="0,-160.5 0,-294.5 147,-294.5 147,-160.5 0,-160.5"/>
<text text-anchor="middle" x="73.5" y="-274.5" font-family="Helvetica,sans-Serif" font-size="20.00" fill="#000000">Mamifero</text>
<polyline fill="none" stroke="#000000" points="0,-264.5 147,-264.5 "/>
<text text-anchor="start" x="8" y="-244.5" font-family="Helvetica,sans-Serif" font-size="20.00" fill="#000000"># gestacao</text>
<polyline fill="none" stroke="#000000" points="0,-234.5 147,-234.5 "/>
<text text-anchor="start" x="8" y="-214.5" font-family="Helvetica,sans-Serif" font-size="20.00" fill="#000000">+ Mamifero()</text>
<text text-anchor="start" x="8" y="-192.5" font-family="Helvetica,sans-Serif" font-size="20.00" fill="#000000">+ ~Mamifero()</text>
<text text-anchor="start" x="8" y="-170.5" font-family="Helvetica,sans-Serif" font-size="20.00" fill="#000000">+ getGestacao()</text>
</a>
</g>
</g>
<!-- Node1&#45;&gt;Node0 -->
<g id="edge1" class="edge">
<title>Node1&#45;&gt;Node0</title>
<path fill="none" stroke="#191970" d="M106.5802,-151.0579C112.176,-138.127 117.8928,-124.9166 123.2108,-112.6278"/>
<polygon fill="none" stroke="#191970" points="103.2939,-149.8395 102.5344,-160.4071 109.7181,-152.6196 103.2939,-149.8395"/>
</g>
<!-- Node2 -->
<g id="node3" class="node">
<title>Node2</title>
<g id="a_node3"><a xlink:href="classExotico.html" target="_top" xlink:title="Umas das definições de categoria para Animal. ">
<polygon fill="#ffffff" stroke="#000000" points="165.5,-149.5 165.5,-305.5 279.5,-305.5 279.5,-149.5 165.5,-149.5"/>
<text text-anchor="middle" x="222.5" y="-285.5" font-family="Helvetica,sans-Serif" font-size="20.00" fill="#000000">Exotico</text>
<polyline fill="none" stroke="#000000" points="165.5,-275.5 279.5,-275.5 "/>
<text text-anchor="start" x="173.5" y="-255.5" font-family="Helvetica,sans-Serif" font-size="20.00" fill="#000000"># local</text>
<polyline fill="none" stroke="#000000" points="165.5,-245.5 279.5,-245.5 "/>
<text text-anchor="start" x="173.5" y="-225.5" font-family="Helvetica,sans-Serif" font-size="20.00" fill="#000000">+ Exotico()</text>
<text text-anchor="start" x="173.5" y="-203.5" font-family="Helvetica,sans-Serif" font-size="20.00" fill="#000000">+ Exotico()</text>
<text text-anchor="start" x="173.5" y="-181.5" font-family="Helvetica,sans-Serif" font-size="20.00" fill="#000000">+ ~Exotico()</text>
<text text-anchor="start" x="173.5" y="-159.5" font-family="Helvetica,sans-Serif" font-size="20.00" fill="#000000">+ getLocal()</text>
</a>
</g>
</g>
<!-- Node2&#45;&gt;Node0 -->
<g id="edge2" class="edge">
<title>Node2&#45;&gt;Node0</title>
<path fill="none" stroke="#191970" d="M184.0208,-139.7674C179.9665,-130.5236 175.9275,-121.3147 172.0935,-112.5732"/>
<polygon fill="none" stroke="#191970" points="180.8512,-141.2546 188.0731,-149.0067 187.2617,-138.443 180.8512,-141.2546"/>
</g>
<!-- Node3 -->
<g id="node4" class="node">
<title>Node3</title>
<g id="a_node4"><a xlink:href="classAnimal.html" target="_top" xlink:title="Implementação base para o cadastro de animais. ">
<polygon fill="#ffffff" stroke="#000000" points="130,-342.5 130,-806.5 315,-806.5 315,-342.5 130,-342.5"/>
<text text-anchor="middle" x="222.5" y="-786.5" font-family="Helvetica,sans-Serif" font-size="20.00" fill="#000000">Animal</text>
<polyline fill="none" stroke="#000000" points="130,-776.5 315,-776.5 "/>
<text text-anchor="start" x="138" y="-756.5" font-family="Helvetica,sans-Serif" font-size="20.00" fill="#000000"># nome</text>
<text text-anchor="start" x="138" y="-734.5" font-family="Helvetica,sans-Serif" font-size="20.00" fill="#000000"># especie</text>
<text text-anchor="start" x="138" y="-712.5" font-family="Helvetica,sans-Serif" font-size="20.00" fill="#000000"># ameacadoPor</text>
<text text-anchor="start" x="138" y="-690.5" font-family="Helvetica,sans-Serif" font-size="20.00" fill="#000000"># veterinario</text>
<text text-anchor="start" x="138" y="-668.5" font-family="Helvetica,sans-Serif" font-size="20.00" fill="#000000"># tratador</text>
<text text-anchor="start" x="138" y="-646.5" font-family="Helvetica,sans-Serif" font-size="20.00" fill="#000000"># perigoso</text>
<polyline fill="none" stroke="#000000" points="130,-636.5 315,-636.5 "/>
<text text-anchor="start" x="138" y="-616.5" font-family="Helvetica,sans-Serif" font-size="20.00" fill="#000000">+ Animal()</text>
<text text-anchor="start" x="138" y="-594.5" font-family="Helvetica,sans-Serif" font-size="20.00" fill="#000000">+ Animal()</text>
<text text-anchor="start" x="138" y="-572.5" font-family="Helvetica,sans-Serif" font-size="20.00" fill="#000000">+ ~Animal()</text>
<text text-anchor="start" x="138" y="-550.5" font-family="Helvetica,sans-Serif" font-size="20.00" fill="#000000">+ getNome()</text>
<text text-anchor="start" x="138" y="-528.5" font-family="Helvetica,sans-Serif" font-size="20.00" fill="#000000">+ getEspecie()</text>
<text text-anchor="start" x="138" y="-506.5" font-family="Helvetica,sans-Serif" font-size="20.00" fill="#000000">+ getAmeacadoPor()</text>
<text text-anchor="start" x="138" y="-484.5" font-family="Helvetica,sans-Serif" font-size="20.00" fill="#000000">+ getVeterinario()</text>
<text text-anchor="start" x="138" y="-462.5" font-family="Helvetica,sans-Serif" font-size="20.00" fill="#000000">+ getTratador()</text>
<text text-anchor="start" x="138" y="-440.5" font-family="Helvetica,sans-Serif" font-size="20.00" fill="#000000">+ getPerigoso()</text>
<text text-anchor="start" x="138" y="-418.5" font-family="Helvetica,sans-Serif" font-size="20.00" fill="#000000">+ getClassificacao()</text>
<text text-anchor="start" x="138" y="-396.5" font-family="Helvetica,sans-Serif" font-size="20.00" fill="#000000">+ getClasse()</text>
<text text-anchor="start" x="138" y="-374.5" font-family="Helvetica,sans-Serif" font-size="20.00" fill="#000000">+ printOutDados()</text>
<text text-anchor="start" x="138" y="-352.5" font-family="Helvetica,sans-Serif" font-size="20.00" fill="#000000">+ operator==()</text>
</a>
</g>
</g>
<!-- Node3&#45;&gt;Node2 -->
<g id="edge3" class="edge">
<title>Node3&#45;&gt;Node2</title>
<path fill="none" stroke="#191970" d="M222.5,-332.0566C222.5,-322.9217 222.5,-314.0913 222.5,-305.6929"/>
<polygon fill="none" stroke="#191970" points="219.0001,-332.0824 222.5,-342.0825 226.0001,-332.0825 219.0001,-332.0824"/>
</g>
</g>
</svg>
