<?xml version="1.0" encoding="UTF-8" standalone="no"?>
<!DOCTYPE svg PUBLIC "-//W3C//DTD SVG 1.1//EN"
 "http://www.w3.org/Graphics/SVG/1.1/DTD/svg11.dtd">
<!-- Generated by graphviz version 2.43.0 (0)
 -->
<!-- Title: FiltroAnimal Pages: 1 -->
<svg width="336pt" height="270pt"
 viewBox="0.00 0.00 336.00 270.00" xmlns="http://www.w3.org/2000/svg" xmlns:xlink="http://www.w3.org/1999/xlink">
<g id="graph0" class="graph" transform="scale(1 1) rotate(0) translate(4 266)">
<title>FiltroAnimal</title>
<polygon fill="white" stroke="transparent" points="-4,4 -4,-266 332,-266 332,4 -4,4"/>
<!-- Node1 -->
<g id="node1" class="node">
<title>Node1</title>
<g id="a_node1"><a xlink:title="Classe de filtragem.">
<polygon fill="#bfbfbf" stroke="black" points="79,-0.5 79,-90.5 249,-90.5 249,-0.5 79,-0.5"/>
<text text-anchor="middle" x="164" y="-70.5" font-family="Helvetica,sans-Serif" font-size="20.00">FiltroAnimal</text>
<polyline fill="none" stroke="black" points="79,-60.5 249,-60.5 "/>
<text text-anchor="middle" x="164" y="-40.5" font-family="Helvetica,sans-Serif" font-size="20.00"> </text>
<polyline fill="none" stroke="black" points="79,-30.5 249,-30.5 "/>
<text text-anchor="start" x="87" y="-10.5" font-family="Helvetica,sans-Serif" font-size="20.00">+ FiltroAnimal()</text>
</a>
</g>
</g>
<!-- Node2 -->
<g id="node2" class="node">
<title>Node2</title>
<g id="a_node2"><a xlink:title=" ">
<polygon fill="white" stroke="#bfbfbf" points="0,-149.5 0,-261.5 328,-261.5 328,-149.5 0,-149.5"/>
<text text-anchor="start" x="8" y="-241.5" font-family="Helvetica,sans-Serif" font-size="20.00">map&lt; char, std::function</text>
<text text-anchor="middle" x="164" y="-219.5" font-family="Helvetica,sans-Serif" font-size="20.00">&lt; Animal *(Animal *animal)&gt; &gt;</text>
<polyline fill="none" stroke="#bfbfbf" points="0,-209.5 328,-209.5 "/>
<text text-anchor="middle" x="164" y="-189.5" font-family="Helvetica,sans-Serif" font-size="20.00"> </text>
<polyline fill="none" stroke="#bfbfbf" points="0,-179.5 328,-179.5 "/>
<text text-anchor="middle" x="164" y="-159.5" font-family="Helvetica,sans-Serif" font-size="20.00"> </text>
</a>
</g>
</g>
<!-- Node2&#45;&gt;Node1 -->
<g id="edge1" class="edge">
<title>Node2&#45;&gt;Node1</title>
<path fill="none" stroke="#404040" d="M164,-149.24C164,-134.22 164,-117.94 164,-102.87"/>
<polygon fill="none" stroke="#404040" points="164,-102.54 160,-96.54 164,-90.54 168,-96.54 164,-102.54"/>
<text text-anchor="middle" x="198" y="-115" font-family="Helvetica,sans-Serif" font-size="20.00"> +filtro</text>
</g>
</g>
</svg>
