<?xml version="1.0" encoding="UTF-8" standalone="no"?>
<!DOCTYPE svg PUBLIC "-//W3C//DTD SVG 1.1//EN"
 "http://www.w3.org/Graphics/SVG/1.1/DTD/svg11.dtd">
<!-- Generated by graphviz version 2.40.1 (20161225.0304)
 -->
<!-- Title: Anfibio Pages: 1 -->
<svg width="583pt" height="336pt"
 viewBox="0.00 0.00 582.50 336.00" xmlns="http://www.w3.org/2000/svg" xmlns:xlink="http://www.w3.org/1999/xlink">
<g id="graph0" class="graph" transform="scale(1 1) rotate(0) translate(4 332)">
<title>Anfibio</title>
<polygon fill="#ffffff" stroke="transparent" points="-4,4 -4,-332 578.5,-332 578.5,4 -4,4"/>
<!-- Node0 -->
<g id="node1" class="node">
<title>Node0</title>
<polygon fill="#bfbfbf" stroke="#000000" points="241.5,-149.5 241.5,-327.5 365.5,-327.5 365.5,-149.5 241.5,-149.5"/>
<text text-anchor="middle" x="303.5" y="-307.5" font-family="Helvetica,sans-Serif" font-size="20.00" fill="#000000">Anfibio</text>
<polyline fill="none" stroke="#000000" points="241.5,-297.5 365.5,-297.5 "/>
<text text-anchor="start" x="249.5" y="-277.5" font-family="Helvetica,sans-Serif" font-size="20.00" fill="#000000"># cauda</text>
<text text-anchor="start" x="249.5" y="-255.5" font-family="Helvetica,sans-Serif" font-size="20.00" fill="#000000"># pata</text>
<polyline fill="none" stroke="#000000" points="241.5,-245.5 365.5,-245.5 "/>
<text text-anchor="start" x="249.5" y="-225.5" font-family="Helvetica,sans-Serif" font-size="20.00" fill="#000000">+ Anfibio()</text>
<text text-anchor="start" x="249.5" y="-203.5" font-family="Helvetica,sans-Serif" font-size="20.00" fill="#000000">+ ~Anfibio()</text>
<text text-anchor="start" x="249.5" y="-181.5" font-family="Helvetica,sans-Serif" font-size="20.00" fill="#000000">+ getCauda()</text>
<text text-anchor="start" x="249.5" y="-159.5" font-family="Helvetica,sans-Serif" font-size="20.00" fill="#000000">+ getPata()</text>
</g>
<!-- Node1 -->
<g id="node2" class="node">
<title>Node1</title>
<g id="a_node2"><a xlink:href="classAnfibioDomestico.html" target="_top" xlink:title="Implementação de animal com Classe e Categoria. ">
<polygon fill="#ffffff" stroke="#000000" points="0,-.5 0,-112.5 199,-112.5 199,-.5 0,-.5"/>
<text text-anchor="middle" x="99.5" y="-92.5" font-family="Helvetica,sans-Serif" font-size="20.00" fill="#000000">AnfibioDomestico</text>
<polyline fill="none" stroke="#000000" points="0,-82.5 199,-82.5 "/>
<text text-anchor="middle" x="99.5" y="-62.5" font-family="Helvetica,sans-Serif" font-size="20.00" fill="#000000"> </text>
<polyline fill="none" stroke="#000000" points="0,-52.5 199,-52.5 "/>
<text text-anchor="start" x="8" y="-32.5" font-family="Helvetica,sans-Serif" font-size="20.00" fill="#000000">+ AnfibioDomestico()</text>
<text text-anchor="start" x="8" y="-10.5" font-family="Helvetica,sans-Serif" font-size="20.00" fill="#000000">+ ~AnfibioDomestico()</text>
</a>
</g>
</g>
<!-- Node0&#45;&gt;Node1 -->
<g id="edge1" class="edge">
<title>Node0&#45;&gt;Node1</title>
<path fill="none" stroke="#191970" d="M233.7085,-176.2351C210.5419,-155.5668 184.9051,-132.6948 162.2985,-112.5261"/>
<polygon fill="none" stroke="#191970" points="231.6703,-179.1071 241.4624,-183.1527 236.3304,-173.8837 231.6703,-179.1071"/>
</g>
<!-- Node2 -->
<g id="node3" class="node">
<title>Node2</title>
<g id="a_node3"><a xlink:href="classAnfibioExotico.html" target="_top" xlink:title="Implementação de animal com Classe e Categoria. ">
<polygon fill="#ffffff" stroke="#000000" points="217,-.5 217,-112.5 390,-112.5 390,-.5 217,-.5"/>
<text text-anchor="middle" x="303.5" y="-92.5" font-family="Helvetica,sans-Serif" font-size="20.00" fill="#000000">AnfibioExotico</text>
<polyline fill="none" stroke="#000000" points="217,-82.5 390,-82.5 "/>
<text text-anchor="middle" x="303.5" y="-62.5" font-family="Helvetica,sans-Serif" font-size="20.00" fill="#000000"> </text>
<polyline fill="none" stroke="#000000" points="217,-52.5 390,-52.5 "/>
<text text-anchor="start" x="225" y="-32.5" font-family="Helvetica,sans-Serif" font-size="20.00" fill="#000000">+ AnfibioExotico()</text>
<text text-anchor="start" x="225" y="-10.5" font-family="Helvetica,sans-Serif" font-size="20.00" fill="#000000">+ ~AnfibioExotico()</text>
</a>
</g>
</g>
<!-- Node0&#45;&gt;Node2 -->
<g id="edge2" class="edge">
<title>Node0&#45;&gt;Node2</title>
<path fill="none" stroke="#191970" d="M303.5,-139.1054C303.5,-130.0423 303.5,-121.0912 303.5,-112.6158"/>
<polygon fill="none" stroke="#191970" points="300.0001,-139.3661 303.5,-149.3661 307.0001,-139.3661 300.0001,-139.3661"/>
</g>
<!-- Node3 -->
<g id="node4" class="node">
<title>Node3</title>
<g id="a_node4"><a xlink:href="classAnfibioNativo.html" target="_top" xlink:title="Implementação de animal com Classe e Categoria. ">
<polygon fill="#ffffff" stroke="#000000" points="408.5,-.5 408.5,-112.5 574.5,-112.5 574.5,-.5 408.5,-.5"/>
<text text-anchor="middle" x="491.5" y="-92.5" font-family="Helvetica,sans-Serif" font-size="20.00" fill="#000000">AnfibioNativo</text>
<polyline fill="none" stroke="#000000" points="408.5,-82.5 574.5,-82.5 "/>
<text text-anchor="middle" x="491.5" y="-62.5" font-family="Helvetica,sans-Serif" font-size="20.00" fill="#000000"> </text>
<polyline fill="none" stroke="#000000" points="408.5,-52.5 574.5,-52.5 "/>
<text text-anchor="start" x="416.5" y="-32.5" font-family="Helvetica,sans-Serif" font-size="20.00" fill="#000000">+ AnfibioNativo()</text>
<text text-anchor="start" x="416.5" y="-10.5" font-family="Helvetica,sans-Serif" font-size="20.00" fill="#000000">+ ~AnfibioNativo()</text>
</a>
</g>
</g>
<!-- Node0&#45;&gt;Node3 -->
<g id="edge3" class="edge">
<title>Node0&#45;&gt;Node3</title>
<path fill="none" stroke="#191970" d="M372.8606,-171.3531C392.8403,-152.011 414.4179,-131.122 433.6229,-112.53"/>
<polygon fill="none" stroke="#191970" points="370.3296,-168.9318 365.5793,-178.402 375.1985,-173.9612 370.3296,-168.9318"/>
</g>
</g>
</svg>
