<?xml version="1.0" encoding="UTF-8" standalone="no"?>
<!DOCTYPE svg PUBLIC "-//W3C//DTD SVG 1.1//EN"
 "http://www.w3.org/Graphics/SVG/1.1/DTD/svg11.dtd">
<!-- Generated by graphviz version 2.43.0 (0)
 -->
<!-- Title: MamiferoDomestico Pages: 1 -->
<svg width="416pt" height="815pt"
 viewBox="0.00 0.00 415.50 815.00" xmlns="http://www.w3.org/2000/svg" xmlns:xlink="http://www.w3.org/1999/xlink">
<g id="graph0" class="graph" transform="scale(1 1) rotate(0) translate(4 811)">
<title>MamiferoDomestico</title>
<polygon fill="white" stroke="transparent" points="-4,4 -4,-811 411.5,-811 411.5,4 -4,4"/>
<!-- Node1 -->
<g id="node1" class="node">
<title>Node1</title>
<g id="a_node1"><a xlink:title="Implementação de animal com Classe e Categoria.">
<polygon fill="#bfbfbf" stroke="black" points="78,-0.5 78,-112.5 347,-112.5 347,-0.5 78,-0.5"/>
<text text-anchor="middle" x="212.5" y="-92.5" font-family="Helvetica,sans-Serif" font-size="20.00">MamiferoDomestico</text>
<polyline fill="none" stroke="black" points="78,-82.5 347,-82.5 "/>
<text text-anchor="middle" x="212.5" y="-62.5" font-family="Helvetica,sans-Serif" font-size="20.00"> </text>
<polyline fill="none" stroke="black" points="78,-52.5 347,-52.5 "/>
<text text-anchor="start" x="86" y="-32.5" font-family="Helvetica,sans-Serif" font-size="20.00">+ MamiferoDomestico()</text>
<text text-anchor="start" x="86" y="-10.5" font-family="Helvetica,sans-Serif" font-size="20.00">+ ~MamiferoDomestico()</text>
</a>
</g>
</g>
<!-- Node2 -->
<g id="node2" class="node">
<title>Node2</title>
<g id="a_node2"><a xlink:href="classMamifero.html" target="_top" xlink:title="Classificação base para Mamiferos.">
<polygon fill="white" stroke="black" points="22,-160.5 22,-294.5 201,-294.5 201,-160.5 22,-160.5"/>
<text text-anchor="middle" x="111.5" y="-274.5" font-family="Helvetica,sans-Serif" font-size="20.00">Mamifero</text>
<polyline fill="none" stroke="black" points="22,-264.5 201,-264.5 "/>
<text text-anchor="start" x="30" y="-244.5" font-family="Helvetica,sans-Serif" font-size="20.00"># gestacao</text>
<polyline fill="none" stroke="black" points="22,-234.5 201,-234.5 "/>
<text text-anchor="start" x="30" y="-214.5" font-family="Helvetica,sans-Serif" font-size="20.00">+ Mamifero()</text>
<text text-anchor="start" x="30" y="-192.5" font-family="Helvetica,sans-Serif" font-size="20.00">+ ~Mamifero()</text>
<text text-anchor="start" x="30" y="-170.5" font-family="Helvetica,sans-Serif" font-size="20.00">+ getGestacao()</text>
</a>
</g>
</g>
<!-- Node2&#45;&gt;Node1 -->
<g id="edge1" class="edge">
<title>Node2&#45;&gt;Node1</title>
<path fill="none" stroke="midnightblue" d="M156.46,-151.27C164.21,-138.3 172.14,-125.03 179.51,-112.7"/>
<polygon fill="none" stroke="midnightblue" points="153.25,-149.81 151.13,-160.19 159.26,-153.4 153.25,-149.81"/>
</g>
<!-- Node3 -->
<g id="node3" class="node">
<title>Node3</title>
<g id="a_node3"><a xlink:href="classAnimal.html" target="_top" xlink:title="Implementação base para o cadastro de animais.">
<polygon fill="white" stroke="black" points="0,-342.5 0,-806.5 223,-806.5 223,-342.5 0,-342.5"/>
<text text-anchor="middle" x="111.5" y="-786.5" font-family="Helvetica,sans-Serif" font-size="20.00">Animal</text>
<polyline fill="none" stroke="black" points="0,-776.5 223,-776.5 "/>
<text text-anchor="start" x="8" y="-756.5" font-family="Helvetica,sans-Serif" font-size="20.00"># nome</text>
<text text-anchor="start" x="8" y="-734.5" font-family="Helvetica,sans-Serif" font-size="20.00"># especie</text>
<text text-anchor="start" x="8" y="-712.5" font-family="Helvetica,sans-Serif" font-size="20.00"># ameacadoPor</text>
<text text-anchor="start" x="8" y="-690.5" font-family="Helvetica,sans-Serif" font-size="20.00"># veterinario</text>
<text text-anchor="start" x="8" y="-668.5" font-family="Helvetica,sans-Serif" font-size="20.00"># tratador</text>
<text text-anchor="start" x="8" y="-646.5" font-family="Helvetica,sans-Serif" font-size="20.00"># perigoso</text>
<polyline fill="none" stroke="black" points="0,-636.5 223,-636.5 "/>
<text text-anchor="start" x="8" y="-616.5" font-family="Helvetica,sans-Serif" font-size="20.00">+ Animal()</text>
<text text-anchor="start" x="8" y="-594.5" font-family="Helvetica,sans-Serif" font-size="20.00">+ Animal()</text>
<text text-anchor="start" x="8" y="-572.5" font-family="Helvetica,sans-Serif" font-size="20.00">+ ~Animal()</text>
<text text-anchor="start" x="8" y="-550.5" font-family="Helvetica,sans-Serif" font-size="20.00">+ getNome()</text>
<text text-anchor="start" x="8" y="-528.5" font-family="Helvetica,sans-Serif" font-size="20.00">+ getEspecie()</text>
<text text-anchor="start" x="8" y="-506.5" font-family="Helvetica,sans-Serif" font-size="20.00">+ getAmeacadoPor()</text>
<text text-anchor="start" x="8" y="-484.5" font-family="Helvetica,sans-Serif" font-size="20.00">+ getVeterinario()</text>
<text text-anchor="start" x="8" y="-462.5" font-family="Helvetica,sans-Serif" font-size="20.00">+ getTratador()</text>
<text text-anchor="start" x="8" y="-440.5" font-family="Helvetica,sans-Serif" font-size="20.00">+ getPerigoso()</text>
<text text-anchor="start" x="8" y="-418.5" font-family="Helvetica,sans-Serif" font-size="20.00">+ getClassificacao()</text>
<text text-anchor="start" x="8" y="-396.5" font-family="Helvetica,sans-Serif" font-size="20.00">+ getClasse()</text>
<text text-anchor="start" x="8" y="-374.5" font-family="Helvetica,sans-Serif" font-size="20.00">+ printOutDados()</text>
<text text-anchor="start" x="8" y="-352.5" font-family="Helvetica,sans-Serif" font-size="20.00">+ operator==()</text>
</a>
</g>
</g>
<!-- Node3&#45;&gt;Node2 -->
<g id="edge2" class="edge">
<title>Node3&#45;&gt;Node2</title>
<path fill="none" stroke="midnightblue" d="M111.5,-332.14C111.5,-318.85 111.5,-306.21 111.5,-294.63"/>
<polygon fill="none" stroke="midnightblue" points="108,-332.42 111.5,-342.42 115,-332.42 108,-332.42"/>
</g>
<!-- Node4 -->
<g id="node4" class="node">
<title>Node4</title>
<g id="a_node4"><a xlink:href="classDomestico.html" target="_top" xlink:title="Umas das definições de categoria para Animal.">
<polygon fill="white" stroke="black" points="219.5,-149.5 219.5,-305.5 407.5,-305.5 407.5,-149.5 219.5,-149.5"/>
<text text-anchor="middle" x="313.5" y="-285.5" font-family="Helvetica,sans-Serif" font-size="20.00">Domestico</text>
<polyline fill="none" stroke="black" points="219.5,-275.5 407.5,-275.5 "/>
<text text-anchor="start" x="227.5" y="-255.5" font-family="Helvetica,sans-Serif" font-size="20.00"># adestrado</text>
<polyline fill="none" stroke="black" points="219.5,-245.5 407.5,-245.5 "/>
<text text-anchor="start" x="227.5" y="-225.5" font-family="Helvetica,sans-Serif" font-size="20.00">+ Domestico()</text>
<text text-anchor="start" x="227.5" y="-203.5" font-family="Helvetica,sans-Serif" font-size="20.00">+ Domestico()</text>
<text text-anchor="start" x="227.5" y="-181.5" font-family="Helvetica,sans-Serif" font-size="20.00">+ ~Domestico()</text>
<text text-anchor="start" x="227.5" y="-159.5" font-family="Helvetica,sans-Serif" font-size="20.00">+ getAdestrado()</text>
</a>
</g>
</g>
<!-- Node4&#45;&gt;Node1 -->
<g id="edge3" class="edge">
<title>Node4&#45;&gt;Node1</title>
<path fill="none" stroke="midnightblue" d="M262.23,-140.7C256.55,-131.21 250.89,-121.73 245.53,-112.76"/>
<polygon fill="none" stroke="midnightblue" points="259.3,-142.63 267.43,-149.42 265.31,-139.04 259.3,-142.63"/>
</g>
</g>
</svg>
