<?xml version="1.0" encoding="UTF-8" standalone="no"?>
<!DOCTYPE svg PUBLIC "-//W3C//DTD SVG 1.1//EN"
 "http://www.w3.org/Graphics/SVG/1.1/DTD/svg11.dtd">
<!-- Generated by graphviz version 2.43.0 (0)
 -->
<!-- Title: Veterinario Pages: 1 -->
<svg width="345pt" height="662pt"
 viewBox="0.00 0.00 345.00 662.00" xmlns="http://www.w3.org/2000/svg" xmlns:xlink="http://www.w3.org/1999/xlink">
<g id="graph0" class="graph" transform="scale(1 1) rotate(0) translate(4 658)">
<title>Veterinario</title>
<polygon fill="white" stroke="transparent" points="-4,4 -4,-658 341,-658 341,4 -4,4"/>
<!-- Node1 -->
<g id="node1" class="node">
<title>Node1</title>
<g id="a_node1"><a xlink:title="Implementação dos veterinarios.">
<polygon fill="#bfbfbf" stroke="black" points="0,-0.5 0,-178.5 200,-178.5 200,-0.5 0,-0.5"/>
<text text-anchor="middle" x="100" y="-158.5" font-family="Helvetica,sans-Serif" font-size="20.00">Veterinario</text>
<polyline fill="none" stroke="black" points="0,-148.5 200,-148.5 "/>
<text text-anchor="middle" x="100" y="-128.5" font-family="Helvetica,sans-Serif" font-size="20.00"> </text>
<polyline fill="none" stroke="black" points="0,-118.5 200,-118.5 "/>
<text text-anchor="start" x="8" y="-98.5" font-family="Helvetica,sans-Serif" font-size="20.00">+ Veterinario()</text>
<text text-anchor="start" x="8" y="-76.5" font-family="Helvetica,sans-Serif" font-size="20.00">+ Veterinario()</text>
<text text-anchor="start" x="8" y="-54.5" font-family="Helvetica,sans-Serif" font-size="20.00">+ ~Veterinario()</text>
<text text-anchor="start" x="8" y="-32.5" font-family="Helvetica,sans-Serif" font-size="20.00">+ getCRMV()</text>
<text text-anchor="start" x="8" y="-10.5" font-family="Helvetica,sans-Serif" font-size="20.00">+ printOutDados()</text>
</a>
</g>
</g>
<!-- Node2 -->
<g id="node2" class="node">
<title>Node2</title>
<g id="a_node2"><a xlink:href="classPessoa.html" target="_top" xlink:title="Classe base dos funcionarios.">
<polygon fill="white" stroke="black" points="137,-216.5 137,-460.5 337,-460.5 337,-216.5 137,-216.5"/>
<text text-anchor="middle" x="237" y="-440.5" font-family="Helvetica,sans-Serif" font-size="20.00">Pessoa</text>
<polyline fill="none" stroke="black" points="137,-430.5 337,-430.5 "/>
<text text-anchor="middle" x="237" y="-410.5" font-family="Helvetica,sans-Serif" font-size="20.00"> </text>
<polyline fill="none" stroke="black" points="137,-400.5 337,-400.5 "/>
<text text-anchor="start" x="145" y="-380.5" font-family="Helvetica,sans-Serif" font-size="20.00">+ Pessoa()</text>
<text text-anchor="start" x="145" y="-358.5" font-family="Helvetica,sans-Serif" font-size="20.00">+ Pessoa()</text>
<text text-anchor="start" x="145" y="-336.5" font-family="Helvetica,sans-Serif" font-size="20.00">+ ~Pessoa()</text>
<text text-anchor="start" x="145" y="-314.5" font-family="Helvetica,sans-Serif" font-size="20.00">+ getNome()</text>
<text text-anchor="start" x="145" y="-292.5" font-family="Helvetica,sans-Serif" font-size="20.00">+ getTelefone()</text>
<text text-anchor="start" x="145" y="-270.5" font-family="Helvetica,sans-Serif" font-size="20.00">+ getEmail()</text>
<text text-anchor="start" x="145" y="-248.5" font-family="Helvetica,sans-Serif" font-size="20.00">+ printOutDados()</text>
<text text-anchor="start" x="145" y="-226.5" font-family="Helvetica,sans-Serif" font-size="20.00">+ operator==()</text>
</a>
</g>
</g>
<!-- Node2&#45;&gt;Node1 -->
<g id="edge1" class="edge">
<title>Node2&#45;&gt;Node1</title>
<path fill="none" stroke="midnightblue" d="M164.76,-207.25C159.38,-197.55 154.02,-187.9 148.84,-178.55"/>
<polygon fill="none" stroke="midnightblue" points="161.79,-209.12 169.7,-216.17 167.91,-205.73 161.79,-209.12"/>
</g>
<!-- Node3 -->
<g id="node3" class="node">
<title>Node3</title>
<g id="a_node3"><a xlink:title=" ">
<polygon fill="white" stroke="#bfbfbf" points="25,-563.5 25,-653.5 99,-653.5 99,-563.5 25,-563.5"/>
<text text-anchor="middle" x="62" y="-633.5" font-family="Helvetica,sans-Serif" font-size="20.00">string</text>
<polyline fill="none" stroke="#bfbfbf" points="25,-623.5 99,-623.5 "/>
<text text-anchor="middle" x="62" y="-603.5" font-family="Helvetica,sans-Serif" font-size="20.00"> </text>
<polyline fill="none" stroke="#bfbfbf" points="25,-593.5 99,-593.5 "/>
<text text-anchor="middle" x="62" y="-573.5" font-family="Helvetica,sans-Serif" font-size="20.00"> </text>
</a>
</g>
</g>
<!-- Node3&#45;&gt;Node1 -->
<g id="edge3" class="edge">
<title>Node3&#45;&gt;Node1</title>
<path fill="none" stroke="#404040" d="M55.82,-563.34C46.81,-490.39 33.37,-340.41 55,-216 56.47,-207.53 58.46,-198.88 60.79,-190.28"/>
<polygon fill="none" stroke="#404040" points="60.84,-190.13 58.66,-183.26 64.16,-178.6 66.34,-185.48 60.84,-190.13"/>
<text text-anchor="middle" x="91.5" y="-333.5" font-family="Helvetica,sans-Serif" font-size="20.00"> &#45;CRMV</text>
</g>
<!-- Node3&#45;&gt;Node2 -->
<g id="edge2" class="edge">
<title>Node3&#45;&gt;Node2</title>
<path fill="none" stroke="#404040" d="M90.9,-563.25C107.53,-537.78 129.38,-504.31 151.1,-471.05"/>
<polygon fill="none" stroke="#404040" points="151.27,-470.79 151.2,-463.58 157.83,-460.74 157.9,-467.95 151.27,-470.79"/>
<text text-anchor="middle" x="192.5" y="-529" font-family="Helvetica,sans-Serif" font-size="20.00"> #email</text>
<text text-anchor="middle" x="192.5" y="-507" font-family="Helvetica,sans-Serif" font-size="20.00">#nome</text>
<text text-anchor="middle" x="192.5" y="-485" font-family="Helvetica,sans-Serif" font-size="20.00">#telefone</text>
</g>
</g>
</svg>
