<?xml version="1.0" encoding="UTF-8" standalone="no"?>
<!DOCTYPE svg PUBLIC "-//W3C//DTD SVG 1.1//EN"
 "http://www.w3.org/Graphics/SVG/1.1/DTD/svg11.dtd">
<!-- Generated by graphviz version 2.43.0 (0)
 -->
<!-- Title: Reptil Pages: 1 -->
<svg width="589pt" height="1531pt"
 viewBox="0.00 0.00 589.23 1531.00" xmlns="http://www.w3.org/2000/svg" xmlns:xlink="http://www.w3.org/1999/xlink">
<g id="graph0" class="graph" transform="scale(1 1) rotate(0) translate(4 1527)">
<title>Reptil</title>
<polygon fill="white" stroke="transparent" points="-4,4 -4,-1527 585.23,-1527 585.23,4 -4,4"/>
<!-- Node1 -->
<g id="node1" class="node">
<title>Node1</title>
<g id="a_node1"><a xlink:title="Classificação base para Repteis.">
<polygon fill="#bfbfbf" stroke="black" points="299.73,-0.5 299.73,-200.5 426.73,-200.5 426.73,-0.5 299.73,-0.5"/>
<text text-anchor="middle" x="363.23" y="-180.5" font-family="Helvetica,sans-Serif" font-size="20.00">Reptil</text>
<polyline fill="none" stroke="black" points="299.73,-170.5 426.73,-170.5 "/>
<text text-anchor="middle" x="363.23" y="-150.5" font-family="Helvetica,sans-Serif" font-size="20.00"> </text>
<polyline fill="none" stroke="black" points="299.73,-140.5 426.73,-140.5 "/>
<text text-anchor="start" x="307.73" y="-120.5" font-family="Helvetica,sans-Serif" font-size="20.00">+ Reptil()</text>
<text text-anchor="start" x="307.73" y="-98.5" font-family="Helvetica,sans-Serif" font-size="20.00">+ Reptil()</text>
<text text-anchor="start" x="307.73" y="-76.5" font-family="Helvetica,sans-Serif" font-size="20.00">+ ~Reptil()</text>
<text text-anchor="start" x="307.73" y="-54.5" font-family="Helvetica,sans-Serif" font-size="20.00">+ getPele()</text>
<text text-anchor="start" x="307.73" y="-32.5" font-family="Helvetica,sans-Serif" font-size="20.00">+ setPele()</text>
<text text-anchor="start" x="307.73" y="-10.5" font-family="Helvetica,sans-Serif" font-size="20.00">+ setPele()</text>
</a>
</g>
</g>
<!-- Node2 -->
<g id="node2" class="node">
<title>Node2</title>
<g id="a_node2"><a xlink:href="classAnimal.html" target="_top" xlink:title="Implementação base para o cadastro de animais.">
<polygon fill="white" stroke="black" points="172.73,-259.5 172.73,-569.5 395.73,-569.5 395.73,-259.5 172.73,-259.5"/>
<text text-anchor="middle" x="284.23" y="-549.5" font-family="Helvetica,sans-Serif" font-size="20.00">Animal</text>
<polyline fill="none" stroke="black" points="172.73,-539.5 395.73,-539.5 "/>
<text text-anchor="middle" x="284.23" y="-519.5" font-family="Helvetica,sans-Serif" font-size="20.00"> </text>
<polyline fill="none" stroke="black" points="172.73,-509.5 395.73,-509.5 "/>
<text text-anchor="start" x="180.73" y="-489.5" font-family="Helvetica,sans-Serif" font-size="20.00">+ Animal()</text>
<text text-anchor="start" x="180.73" y="-467.5" font-family="Helvetica,sans-Serif" font-size="20.00">+ Animal()</text>
<text text-anchor="start" x="180.73" y="-445.5" font-family="Helvetica,sans-Serif" font-size="20.00">+ ~Animal()</text>
<text text-anchor="start" x="180.73" y="-423.5" font-family="Helvetica,sans-Serif" font-size="20.00">+ getNome()</text>
<text text-anchor="start" x="180.73" y="-401.5" font-family="Helvetica,sans-Serif" font-size="20.00">+ getEspecie()</text>
<text text-anchor="start" x="180.73" y="-379.5" font-family="Helvetica,sans-Serif" font-size="20.00">+ getAmeacadoPor()</text>
<text text-anchor="start" x="180.73" y="-357.5" font-family="Helvetica,sans-Serif" font-size="20.00">+ getVeterinario()</text>
<text text-anchor="start" x="180.73" y="-335.5" font-family="Helvetica,sans-Serif" font-size="20.00">+ getTratador()</text>
<text text-anchor="start" x="180.73" y="-313.5" font-family="Helvetica,sans-Serif" font-size="20.00">+ getPerigoso()</text>
<text text-anchor="start" x="180.73" y="-291.5" font-family="Helvetica,sans-Serif" font-size="20.00">+ setNome()</text>
<text text-anchor="start" x="180.73" y="-269.5" font-family="Helvetica,sans-Serif" font-size="20.00">e 15 mais...</text>
</a>
</g>
</g>
<!-- Node2&#45;&gt;Node1 -->
<g id="edge1" class="edge">
<title>Node2&#45;&gt;Node1</title>
<path fill="none" stroke="midnightblue" d="M325.76,-249.51C329.98,-232.84 334.17,-216.3 338.13,-200.64"/>
<polygon fill="none" stroke="midnightblue" points="322.33,-248.77 323.27,-259.33 329.12,-250.49 322.33,-248.77"/>
</g>
<!-- Node3 -->
<g id="node3" class="node">
<title>Node3</title>
<g id="a_node3"><a xlink:href="classTratador.html" target="_top" xlink:title="Implementação dos tratadores.">
<polygon fill="white" stroke="black" points="277.23,-628.5 277.23,-850.5 477.23,-850.5 477.23,-628.5 277.23,-628.5"/>
<text text-anchor="middle" x="377.23" y="-830.5" font-family="Helvetica,sans-Serif" font-size="20.00">Tratador</text>
<polyline fill="none" stroke="black" points="277.23,-820.5 477.23,-820.5 "/>
<text text-anchor="middle" x="377.23" y="-800.5" font-family="Helvetica,sans-Serif" font-size="20.00"> </text>
<polyline fill="none" stroke="black" points="277.23,-790.5 477.23,-790.5 "/>
<text text-anchor="start" x="285.23" y="-770.5" font-family="Helvetica,sans-Serif" font-size="20.00">+ Tratador()</text>
<text text-anchor="start" x="285.23" y="-748.5" font-family="Helvetica,sans-Serif" font-size="20.00">+ Tratador()</text>
<text text-anchor="start" x="285.23" y="-726.5" font-family="Helvetica,sans-Serif" font-size="20.00">+ ~Tratador()</text>
<text text-anchor="start" x="285.23" y="-704.5" font-family="Helvetica,sans-Serif" font-size="20.00">+ getUniforme()</text>
<text text-anchor="start" x="285.23" y="-682.5" font-family="Helvetica,sans-Serif" font-size="20.00">+ setUniforme()</text>
<text text-anchor="start" x="285.23" y="-660.5" font-family="Helvetica,sans-Serif" font-size="20.00">+ setUniforme()</text>
<text text-anchor="start" x="285.23" y="-638.5" font-family="Helvetica,sans-Serif" font-size="20.00">+ printOutDados()</text>
</a>
</g>
</g>
<!-- Node3&#45;&gt;Node2 -->
<g id="edge2" class="edge">
<title>Node3&#45;&gt;Node2</title>
<path fill="none" stroke="#404040" d="M345.49,-628.25C341.11,-613.02 336.53,-597.13 331.93,-581.17"/>
<polygon fill="none" stroke="#404040" points="331.91,-581.09 326.41,-576.43 328.59,-569.56 334.09,-574.22 331.91,-581.09"/>
<text text-anchor="middle" x="390.73" y="-594" font-family="Helvetica,sans-Serif" font-size="20.00"> #tratador</text>
</g>
<!-- Node4 -->
<g id="node4" class="node">
<title>Node4</title>
<g id="a_node4"><a xlink:href="classPessoa.html" target="_top" xlink:title="Classe base dos funcionarios.">
<polygon fill="white" stroke="black" points="250.23,-953.5 250.23,-1329.5 450.23,-1329.5 450.23,-953.5 250.23,-953.5"/>
<text text-anchor="middle" x="350.23" y="-1309.5" font-family="Helvetica,sans-Serif" font-size="20.00">Pessoa</text>
<polyline fill="none" stroke="black" points="250.23,-1299.5 450.23,-1299.5 "/>
<text text-anchor="middle" x="350.23" y="-1279.5" font-family="Helvetica,sans-Serif" font-size="20.00"> </text>
<polyline fill="none" stroke="black" points="250.23,-1269.5 450.23,-1269.5 "/>
<text text-anchor="start" x="258.23" y="-1249.5" font-family="Helvetica,sans-Serif" font-size="20.00">+ Pessoa()</text>
<text text-anchor="start" x="258.23" y="-1227.5" font-family="Helvetica,sans-Serif" font-size="20.00">+ Pessoa()</text>
<text text-anchor="start" x="258.23" y="-1205.5" font-family="Helvetica,sans-Serif" font-size="20.00">+ ~Pessoa()</text>
<text text-anchor="start" x="258.23" y="-1183.5" font-family="Helvetica,sans-Serif" font-size="20.00">+ getNome()</text>
<text text-anchor="start" x="258.23" y="-1161.5" font-family="Helvetica,sans-Serif" font-size="20.00">+ setNome()</text>
<text text-anchor="start" x="258.23" y="-1139.5" font-family="Helvetica,sans-Serif" font-size="20.00">+ setNome()</text>
<text text-anchor="start" x="258.23" y="-1117.5" font-family="Helvetica,sans-Serif" font-size="20.00">+ getTelefone()</text>
<text text-anchor="start" x="258.23" y="-1095.5" font-family="Helvetica,sans-Serif" font-size="20.00">+ setTelefone()</text>
<text text-anchor="start" x="258.23" y="-1073.5" font-family="Helvetica,sans-Serif" font-size="20.00">+ setTelefone()</text>
<text text-anchor="start" x="258.23" y="-1051.5" font-family="Helvetica,sans-Serif" font-size="20.00">+ getEmail()</text>
<text text-anchor="start" x="258.23" y="-1029.5" font-family="Helvetica,sans-Serif" font-size="20.00">+ setEmail()</text>
<text text-anchor="start" x="258.23" y="-1007.5" font-family="Helvetica,sans-Serif" font-size="20.00">+ setEmail()</text>
<text text-anchor="start" x="258.23" y="-985.5" font-family="Helvetica,sans-Serif" font-size="20.00">+ printOutDados()</text>
<text text-anchor="start" x="258.23" y="-963.5" font-family="Helvetica,sans-Serif" font-size="20.00">+ operator==()</text>
</a>
</g>
</g>
<!-- Node4&#45;&gt;Node3 -->
<g id="edge3" class="edge">
<title>Node4&#45;&gt;Node3</title>
<path fill="none" stroke="midnightblue" d="M363.56,-943.07C365.71,-911.27 367.86,-879.39 369.8,-850.63"/>
<polygon fill="none" stroke="midnightblue" points="360.04,-943.17 362.86,-953.38 367.03,-943.64 360.04,-943.17"/>
</g>
<!-- Node8 -->
<g id="node8" class="node">
<title>Node8</title>
<g id="a_node8"><a xlink:href="classVeterinario.html" target="_top" xlink:title="Implementação dos veterinarios.">
<polygon fill="white" stroke="black" points="59.23,-628.5 59.23,-850.5 259.23,-850.5 259.23,-628.5 59.23,-628.5"/>
<text text-anchor="middle" x="159.23" y="-830.5" font-family="Helvetica,sans-Serif" font-size="20.00">Veterinario</text>
<polyline fill="none" stroke="black" points="59.23,-820.5 259.23,-820.5 "/>
<text text-anchor="middle" x="159.23" y="-800.5" font-family="Helvetica,sans-Serif" font-size="20.00"> </text>
<polyline fill="none" stroke="black" points="59.23,-790.5 259.23,-790.5 "/>
<text text-anchor="start" x="67.23" y="-770.5" font-family="Helvetica,sans-Serif" font-size="20.00">+ Veterinario()</text>
<text text-anchor="start" x="67.23" y="-748.5" font-family="Helvetica,sans-Serif" font-size="20.00">+ Veterinario()</text>
<text text-anchor="start" x="67.23" y="-726.5" font-family="Helvetica,sans-Serif" font-size="20.00">+ ~Veterinario()</text>
<text text-anchor="start" x="67.23" y="-704.5" font-family="Helvetica,sans-Serif" font-size="20.00">+ getCRMV()</text>
<text text-anchor="start" x="67.23" y="-682.5" font-family="Helvetica,sans-Serif" font-size="20.00">+ setCRMV()</text>
<text text-anchor="start" x="67.23" y="-660.5" font-family="Helvetica,sans-Serif" font-size="20.00">+ setCRMV()</text>
<text text-anchor="start" x="67.23" y="-638.5" font-family="Helvetica,sans-Serif" font-size="20.00">+ printOutDados()</text>
</a>
</g>
</g>
<!-- Node4&#45;&gt;Node8 -->
<g id="edge9" class="edge">
<title>Node4&#45;&gt;Node8</title>
<path fill="none" stroke="midnightblue" d="M256.55,-944.3C241.17,-912.1 225.73,-879.76 211.82,-850.63"/>
<polygon fill="none" stroke="midnightblue" points="253.42,-945.87 260.88,-953.38 259.73,-942.85 253.42,-945.87"/>
</g>
<!-- Node5 -->
<g id="node5" class="node">
<title>Node5</title>
<g id="a_node5"><a xlink:title=" ">
<polygon fill="white" stroke="#bfbfbf" points="122.23,-1432.5 122.23,-1522.5 196.23,-1522.5 196.23,-1432.5 122.23,-1432.5"/>
<text text-anchor="middle" x="159.23" y="-1502.5" font-family="Helvetica,sans-Serif" font-size="20.00">string</text>
<polyline fill="none" stroke="#bfbfbf" points="122.23,-1492.5 196.23,-1492.5 "/>
<text text-anchor="middle" x="159.23" y="-1472.5" font-family="Helvetica,sans-Serif" font-size="20.00"> </text>
<polyline fill="none" stroke="#bfbfbf" points="122.23,-1462.5 196.23,-1462.5 "/>
<text text-anchor="middle" x="159.23" y="-1442.5" font-family="Helvetica,sans-Serif" font-size="20.00"> </text>
</a>
</g>
</g>
<!-- Node5&#45;&gt;Node2 -->
<g id="edge7" class="edge">
<title>Node5&#45;&gt;Node2</title>
<path fill="none" stroke="#404040" d="M136.74,-1432.39C88.75,-1333.38 -17.65,-1085.23 3.23,-869 13.73,-760.38 -3.33,-723.08 50.23,-628 77.97,-578.77 121.24,-534.77 163.08,-499.75"/>
<polygon fill="none" stroke="#404040" points="163.27,-499.59 165.36,-492.69 172.54,-491.96 170.45,-498.86 163.27,-499.59"/>
<text text-anchor="middle" x="79.23" y="-919" font-family="Helvetica,sans-Serif" font-size="20.00"> #especie</text>
<text text-anchor="middle" x="79.23" y="-897" font-family="Helvetica,sans-Serif" font-size="20.00">#ameacadoPor</text>
<text text-anchor="middle" x="79.23" y="-875" font-family="Helvetica,sans-Serif" font-size="20.00">#nome</text>
</g>
<!-- Node5&#45;&gt;Node4 -->
<g id="edge4" class="edge">
<title>Node5&#45;&gt;Node4</title>
<path fill="none" stroke="#404040" d="M184.4,-1432.49C200.21,-1404.85 221.78,-1367.12 244.15,-1328.01"/>
<polygon fill="none" stroke="#404040" points="244.2,-1327.92 243.71,-1320.73 250.16,-1317.5 250.65,-1324.7 244.2,-1327.92"/>
<text text-anchor="middle" x="280.73" y="-1398" font-family="Helvetica,sans-Serif" font-size="20.00"> #email</text>
<text text-anchor="middle" x="280.73" y="-1376" font-family="Helvetica,sans-Serif" font-size="20.00">#nome</text>
<text text-anchor="middle" x="280.73" y="-1354" font-family="Helvetica,sans-Serif" font-size="20.00">#telefone</text>
</g>
<!-- Node5&#45;&gt;Node8 -->
<g id="edge10" class="edge">
<title>Node5&#45;&gt;Node8</title>
<path fill="none" stroke="#404040" d="M159.23,-1432.39C159.23,-1321.83 159.23,-1029.77 159.23,-862.58"/>
<polygon fill="none" stroke="#404040" points="159.23,-862.52 155.23,-856.52 159.23,-850.52 163.23,-856.52 159.23,-862.52"/>
<text text-anchor="middle" x="195.73" y="-1136.5" font-family="Helvetica,sans-Serif" font-size="20.00"> &#45;CRMV</text>
</g>
<!-- Node6 -->
<g id="node6" class="node">
<title>Node6</title>
<g id="a_node6"><a xlink:title=" ">
<polygon fill="white" stroke="#bfbfbf" points="468.73,-1096.5 468.73,-1186.5 575.73,-1186.5 575.73,-1096.5 468.73,-1096.5"/>
<text text-anchor="middle" x="522.23" y="-1166.5" font-family="Helvetica,sans-Serif" font-size="20.00">Uniforme</text>
<polyline fill="none" stroke="#bfbfbf" points="468.73,-1156.5 575.73,-1156.5 "/>
<text text-anchor="middle" x="522.23" y="-1136.5" font-family="Helvetica,sans-Serif" font-size="20.00"> </text>
<polyline fill="none" stroke="#bfbfbf" points="468.73,-1126.5 575.73,-1126.5 "/>
<text text-anchor="middle" x="522.23" y="-1106.5" font-family="Helvetica,sans-Serif" font-size="20.00"> </text>
</a>
</g>
</g>
<!-- Node6&#45;&gt;Node3 -->
<g id="edge5" class="edge">
<title>Node6&#45;&gt;Node3</title>
<path fill="none" stroke="#404040" d="M508.01,-1096.36C495.59,-1058.25 476.83,-1001.78 459.23,-953 448.55,-923.4 436.59,-891.66 425.17,-861.98"/>
<polygon fill="none" stroke="#404040" points="425.15,-861.92 419.25,-857.76 420.83,-850.72 426.72,-854.88 425.15,-861.92"/>
<text text-anchor="middle" x="501.73" y="-897" font-family="Helvetica,sans-Serif" font-size="20.00"> &#45;uniforme</text>
</g>
<!-- Node7 -->
<g id="node7" class="node">
<title>Node7</title>
<g id="a_node7"><a xlink:title=" ">
<polygon fill="white" stroke="#bfbfbf" points="495.73,-694.5 495.73,-784.5 554.73,-784.5 554.73,-694.5 495.73,-694.5"/>
<text text-anchor="middle" x="525.23" y="-764.5" font-family="Helvetica,sans-Serif" font-size="20.00">bool</text>
<polyline fill="none" stroke="#bfbfbf" points="495.73,-754.5 554.73,-754.5 "/>
<text text-anchor="middle" x="525.23" y="-734.5" font-family="Helvetica,sans-Serif" font-size="20.00"> </text>
<polyline fill="none" stroke="#bfbfbf" points="495.73,-724.5 554.73,-724.5 "/>
<text text-anchor="middle" x="525.23" y="-704.5" font-family="Helvetica,sans-Serif" font-size="20.00"> </text>
</a>
</g>
</g>
<!-- Node7&#45;&gt;Node2 -->
<g id="edge6" class="edge">
<title>Node7&#45;&gt;Node2</title>
<path fill="none" stroke="#404040" d="M514.61,-694.49C508.32,-673.37 499.03,-648.31 486.23,-628 472.83,-606.73 467.05,-602.1 446.23,-588 431.91,-578.3 423.18,-581.07 405.81,-570.26"/>
<polygon fill="none" stroke="#404040" points="405.66,-570.15 398.45,-569.96 395.86,-563.23 403.07,-563.42 405.66,-570.15"/>
<text text-anchor="middle" x="526.73" y="-594" font-family="Helvetica,sans-Serif" font-size="20.00"> #perigoso</text>
</g>
<!-- Node8&#45;&gt;Node2 -->
<g id="edge8" class="edge">
<title>Node8&#45;&gt;Node2</title>
<path fill="none" stroke="#404040" d="M189.37,-628.11C193.71,-614.5 198.37,-600.86 203.23,-588 204.12,-585.64 205.04,-583.27 205.96,-580.89"/>
<polygon fill="none" stroke="#404040" points="205.98,-580.85 204.48,-573.8 210.42,-569.7 211.92,-576.75 205.98,-580.85"/>
<text text-anchor="middle" x="268.23" y="-594" font-family="Helvetica,sans-Serif" font-size="20.00"> #veterinario</text>
</g>
<!-- Node9 -->
<g id="node9" class="node">
<title>Node9</title>
<g id="a_node9"><a xlink:title=" ">
<polygon fill="white" stroke="#bfbfbf" points="413.73,-369.5 413.73,-459.5 470.73,-459.5 470.73,-369.5 413.73,-369.5"/>
<text text-anchor="middle" x="442.23" y="-439.5" font-family="Helvetica,sans-Serif" font-size="20.00">Pele</text>
<polyline fill="none" stroke="#bfbfbf" points="413.73,-429.5 470.73,-429.5 "/>
<text text-anchor="middle" x="442.23" y="-409.5" font-family="Helvetica,sans-Serif" font-size="20.00"> </text>
<polyline fill="none" stroke="#bfbfbf" points="413.73,-399.5 470.73,-399.5 "/>
<text text-anchor="middle" x="442.23" y="-379.5" font-family="Helvetica,sans-Serif" font-size="20.00"> </text>
</a>
</g>
</g>
<!-- Node9&#45;&gt;Node1 -->
<g id="edge11" class="edge">
<title>Node9&#45;&gt;Node1</title>
<path fill="none" stroke="#404040" d="M431.5,-369.17C423.97,-338.27 413.62,-296.09 404.23,-259 400.42,-243.94 396.35,-228.08 392.32,-212.47"/>
<polygon fill="none" stroke="#404040" points="392.25,-212.21 386.88,-207.4 389.24,-200.59 394.62,-205.39 392.25,-212.21"/>
<text text-anchor="middle" x="431.73" y="-225" font-family="Helvetica,sans-Serif" font-size="20.00"> #pele</text>
</g>
</g>
</svg>
