<?xml version="1.0" encoding="UTF-8" standalone="no"?>
<!DOCTYPE svg PUBLIC "-//W3C//DTD SVG 1.1//EN"
 "http://www.w3.org/Graphics/SVG/1.1/DTD/svg11.dtd">
<!-- Generated by graphviz version 2.43.0 (0)
 -->
<!-- Title: Exotico Pages: 1 -->
<svg width="151pt" height="314pt"
 viewBox="0.00 0.00 151.00 314.00" xmlns="http://www.w3.org/2000/svg" xmlns:xlink="http://www.w3.org/1999/xlink">
<g id="graph0" class="graph" transform="scale(1 1) rotate(0) translate(4 310)">
<title>Exotico</title>
<polygon fill="white" stroke="transparent" points="-4,4 -4,-310 147,-310 147,4 -4,4"/>
<!-- Node1 -->
<g id="node1" class="node">
<title>Node1</title>
<g id="a_node1"><a xlink:title="Umas das definições de categoria para Animal.">
<polygon fill="#bfbfbf" stroke="black" points="0,-0.5 0,-156.5 143,-156.5 143,-0.5 0,-0.5"/>
<text text-anchor="middle" x="71.5" y="-136.5" font-family="Helvetica,sans-Serif" font-size="20.00">Exotico</text>
<polyline fill="none" stroke="black" points="0,-126.5 143,-126.5 "/>
<text text-anchor="middle" x="71.5" y="-106.5" font-family="Helvetica,sans-Serif" font-size="20.00"> </text>
<polyline fill="none" stroke="black" points="0,-96.5 143,-96.5 "/>
<text text-anchor="start" x="8" y="-76.5" font-family="Helvetica,sans-Serif" font-size="20.00">+ Exotico()</text>
<text text-anchor="start" x="8" y="-54.5" font-family="Helvetica,sans-Serif" font-size="20.00">+ Exotico()</text>
<text text-anchor="start" x="8" y="-32.5" font-family="Helvetica,sans-Serif" font-size="20.00">+ ~Exotico()</text>
<text text-anchor="start" x="8" y="-10.5" font-family="Helvetica,sans-Serif" font-size="20.00">+ getLocal()</text>
</a>
</g>
</g>
<!-- Node2 -->
<g id="node2" class="node">
<title>Node2</title>
<g id="a_node2"><a xlink:title=" ">
<polygon fill="white" stroke="#bfbfbf" points="34.5,-215.5 34.5,-305.5 108.5,-305.5 108.5,-215.5 34.5,-215.5"/>
<text text-anchor="middle" x="71.5" y="-285.5" font-family="Helvetica,sans-Serif" font-size="20.00">string</text>
<polyline fill="none" stroke="#bfbfbf" points="34.5,-275.5 108.5,-275.5 "/>
<text text-anchor="middle" x="71.5" y="-255.5" font-family="Helvetica,sans-Serif" font-size="20.00"> </text>
<polyline fill="none" stroke="#bfbfbf" points="34.5,-245.5 108.5,-245.5 "/>
<text text-anchor="middle" x="71.5" y="-225.5" font-family="Helvetica,sans-Serif" font-size="20.00"> </text>
</a>
</g>
</g>
<!-- Node2&#45;&gt;Node1 -->
<g id="edge1" class="edge">
<title>Node2&#45;&gt;Node1</title>
<path fill="none" stroke="#404040" d="M71.5,-215.47C71.5,-201.37 71.5,-185.21 71.5,-169.07"/>
<polygon fill="none" stroke="#404040" points="71.5,-168.77 67.5,-162.77 71.5,-156.77 75.5,-162.77 71.5,-168.77"/>
<text text-anchor="middle" x="106" y="-181" font-family="Helvetica,sans-Serif" font-size="20.00"> #local</text>
</g>
</g>
</svg>
