<?xml version="1.0" encoding="UTF-8" standalone="no"?>
<!DOCTYPE svg PUBLIC "-//W3C//DTD SVG 1.1//EN"
 "http://www.w3.org/Graphics/SVG/1.1/DTD/svg11.dtd">
<!-- Generated by graphviz version 2.40.1 (20161225.0304)
 -->
<!-- Title: AveDomestica Pages: 1 -->
<svg width="722pt" height="1662pt"
 viewBox="0.00 0.00 721.50 1662.00" xmlns="http://www.w3.org/2000/svg" xmlns:xlink="http://www.w3.org/1999/xlink">
<g id="graph0" class="graph" transform="scale(1 1) rotate(0) translate(4 1658)">
<title>AveDomestica</title>
<polygon fill="#ffffff" stroke="transparent" points="-4,4 -4,-1658 717.5,-1658 717.5,4 -4,4"/>
<!-- Node4 -->
<g id="node1" class="node">
<title>Node4</title>
<polygon fill="#bfbfbf" stroke="#000000" points="0,-.5 0,-134.5 173,-134.5 173,-.5 0,-.5"/>
<text text-anchor="middle" x="86.5" y="-114.5" font-family="Helvetica,sans-Serif" font-size="20.00" fill="#000000">AveDomestica</text>
<polyline fill="none" stroke="#000000" points="0,-104.5 173,-104.5 "/>
<text text-anchor="middle" x="86.5" y="-84.5" font-family="Helvetica,sans-Serif" font-size="20.00" fill="#000000"> </text>
<polyline fill="none" stroke="#000000" points="0,-74.5 173,-74.5 "/>
<text text-anchor="start" x="8" y="-54.5" font-family="Helvetica,sans-Serif" font-size="20.00" fill="#000000">+ AveDomestica()</text>
<text text-anchor="start" x="8" y="-32.5" font-family="Helvetica,sans-Serif" font-size="20.00" fill="#000000">+ AveDomestica()</text>
<text text-anchor="start" x="8" y="-10.5" font-family="Helvetica,sans-Serif" font-size="20.00" fill="#000000">+ ~AveDomestica()</text>
</g>
<!-- Node5 -->
<g id="node2" class="node">
<title>Node5</title>
<g id="a_node2"><a xlink:href="classAve.html" target="_top" xlink:title="Classificação base para Aves. ">
<polygon fill="#ffffff" stroke="#000000" points="23.5,-347.5 23.5,-503.5 125.5,-503.5 125.5,-347.5 23.5,-347.5"/>
<text text-anchor="middle" x="74.5" y="-483.5" font-family="Helvetica,sans-Serif" font-size="20.00" fill="#000000">Ave</text>
<polyline fill="none" stroke="#000000" points="23.5,-473.5 125.5,-473.5 "/>
<text text-anchor="middle" x="74.5" y="-453.5" font-family="Helvetica,sans-Serif" font-size="20.00" fill="#000000"> </text>
<polyline fill="none" stroke="#000000" points="23.5,-443.5 125.5,-443.5 "/>
<text text-anchor="start" x="31.5" y="-423.5" font-family="Helvetica,sans-Serif" font-size="20.00" fill="#000000">+ Ave()</text>
<text text-anchor="start" x="31.5" y="-401.5" font-family="Helvetica,sans-Serif" font-size="20.00" fill="#000000">+ Ave()</text>
<text text-anchor="start" x="31.5" y="-379.5" font-family="Helvetica,sans-Serif" font-size="20.00" fill="#000000">+ ~Ave()</text>
<text text-anchor="start" x="31.5" y="-357.5" font-family="Helvetica,sans-Serif" font-size="20.00" fill="#000000">+ getVoa()</text>
</a>
</g>
</g>
<!-- Node5&#45;&gt;Node4 -->
<g id="edge1" class="edge">
<title>Node5&#45;&gt;Node4</title>
<path fill="none" stroke="#191970" d="M77.4625,-337.1179C79.5608,-274.5204 82.3322,-191.8408 84.2501,-134.6212"/>
<polygon fill="none" stroke="#191970" points="73.9557,-337.2661 77.1186,-347.3778 80.9518,-337.5007 73.9557,-337.2661"/>
</g>
<!-- Node6 -->
<g id="node3" class="node">
<title>Node6</title>
<polygon fill="#ffffff" stroke="#bfbfbf" points="115,-979.5 115,-1069.5 166,-1069.5 166,-979.5 115,-979.5"/>
<text text-anchor="middle" x="140.5" y="-1049.5" font-family="Helvetica,sans-Serif" font-size="20.00" fill="#000000">bool</text>
<polyline fill="none" stroke="#bfbfbf" points="115,-1039.5 166,-1039.5 "/>
<text text-anchor="middle" x="140.5" y="-1019.5" font-family="Helvetica,sans-Serif" font-size="20.00" fill="#000000"> </text>
<polyline fill="none" stroke="#bfbfbf" points="115,-1009.5 166,-1009.5 "/>
<text text-anchor="middle" x="140.5" y="-989.5" font-family="Helvetica,sans-Serif" font-size="20.00" fill="#000000"> </text>
</g>
<!-- Node6&#45;&gt;Node5 -->
<g id="edge2" class="edge">
<title>Node6&#45;&gt;Node5</title>
<path fill="none" stroke="#404040" d="M114.9919,-988.5897C102.2911,-968.5436 88.238,-942.5244 81.5,-917 45.5354,-780.7619 53.0513,-615.8041 62.9211,-515.8474"/>
<polygon fill="none" stroke="#404040" points="62.9439,-515.6238 59.5754,-509.2478 64.1654,-503.6862 67.5339,-510.0622 62.9439,-515.6238"/>
<text text-anchor="middle" x="104" y="-901" font-family="Helvetica,sans-Serif" font-size="20.00" fill="#000000"> #voa</text>
</g>
<!-- Node7 -->
<g id="node4" class="node">
<title>Node7</title>
<g id="a_node4"><a xlink:href="classDomestico.html" target="_top" xlink:title="Umas das definições de categoria para Animal. ">
<polygon fill="#ffffff" stroke="#000000" points="103,-172.5 103,-328.5 258,-328.5 258,-172.5 103,-172.5"/>
<text text-anchor="middle" x="180.5" y="-308.5" font-family="Helvetica,sans-Serif" font-size="20.00" fill="#000000">Domestico</text>
<polyline fill="none" stroke="#000000" points="103,-298.5 258,-298.5 "/>
<text text-anchor="middle" x="180.5" y="-278.5" font-family="Helvetica,sans-Serif" font-size="20.00" fill="#000000"> </text>
<polyline fill="none" stroke="#000000" points="103,-268.5 258,-268.5 "/>
<text text-anchor="start" x="111" y="-248.5" font-family="Helvetica,sans-Serif" font-size="20.00" fill="#000000">+ Domestico()</text>
<text text-anchor="start" x="111" y="-226.5" font-family="Helvetica,sans-Serif" font-size="20.00" fill="#000000">+ Domestico()</text>
<text text-anchor="start" x="111" y="-204.5" font-family="Helvetica,sans-Serif" font-size="20.00" fill="#000000">+ ~Domestico()</text>
<text text-anchor="start" x="111" y="-182.5" font-family="Helvetica,sans-Serif" font-size="20.00" fill="#000000">+ getAdestrado()</text>
</a>
</g>
</g>
<!-- Node6&#45;&gt;Node7 -->
<g id="edge14" class="edge">
<title>Node6&#45;&gt;Node7</title>
<path fill="none" stroke="#404040" d="M139.8624,-979.3955C138.9376,-891.3509 138.3989,-690.4703 149.5,-522 153.4936,-461.3931 161.2461,-393.5021 167.9989,-340.7708"/>
<polygon fill="none" stroke="#404040" points="168.0163,-340.6356 164.8195,-334.1718 169.5565,-328.7348 172.7533,-335.1986 168.0163,-340.6356"/>
<text text-anchor="middle" x="198" y="-694.5" font-family="Helvetica,sans-Serif" font-size="20.00" fill="#000000"> #adestrado</text>
</g>
<!-- Node8 -->
<g id="node5" class="node">
<title>Node8</title>
<g id="a_node5"><a xlink:href="classAnimal.html" target="_top" xlink:title="Implementação base para o cadastro de animais. ">
<polygon fill="#ffffff" stroke="#000000" points="256,-522.5 256,-876.5 441,-876.5 441,-522.5 256,-522.5"/>
<text text-anchor="middle" x="348.5" y="-856.5" font-family="Helvetica,sans-Serif" font-size="20.00" fill="#000000">Animal</text>
<polyline fill="none" stroke="#000000" points="256,-846.5 441,-846.5 "/>
<text text-anchor="middle" x="348.5" y="-826.5" font-family="Helvetica,sans-Serif" font-size="20.00" fill="#000000"> </text>
<polyline fill="none" stroke="#000000" points="256,-816.5 441,-816.5 "/>
<text text-anchor="start" x="264" y="-796.5" font-family="Helvetica,sans-Serif" font-size="20.00" fill="#000000">+ Animal()</text>
<text text-anchor="start" x="264" y="-774.5" font-family="Helvetica,sans-Serif" font-size="20.00" fill="#000000">+ Animal()</text>
<text text-anchor="start" x="264" y="-752.5" font-family="Helvetica,sans-Serif" font-size="20.00" fill="#000000">+ ~Animal()</text>
<text text-anchor="start" x="264" y="-730.5" font-family="Helvetica,sans-Serif" font-size="20.00" fill="#000000">+ getNome()</text>
<text text-anchor="start" x="264" y="-708.5" font-family="Helvetica,sans-Serif" font-size="20.00" fill="#000000">+ getEspecie()</text>
<text text-anchor="start" x="264" y="-686.5" font-family="Helvetica,sans-Serif" font-size="20.00" fill="#000000">+ getAmeacadoPor()</text>
<text text-anchor="start" x="264" y="-664.5" font-family="Helvetica,sans-Serif" font-size="20.00" fill="#000000">+ getVeterinario()</text>
<text text-anchor="start" x="264" y="-642.5" font-family="Helvetica,sans-Serif" font-size="20.00" fill="#000000">+ getTratador()</text>
<text text-anchor="start" x="264" y="-620.5" font-family="Helvetica,sans-Serif" font-size="20.00" fill="#000000">+ getPerigoso()</text>
<text text-anchor="start" x="264" y="-598.5" font-family="Helvetica,sans-Serif" font-size="20.00" fill="#000000">+ getClassificacao()</text>
<text text-anchor="start" x="264" y="-576.5" font-family="Helvetica,sans-Serif" font-size="20.00" fill="#000000">+ getClasse()</text>
<text text-anchor="start" x="264" y="-554.5" font-family="Helvetica,sans-Serif" font-size="20.00" fill="#000000">+ printOutDados()</text>
<text text-anchor="start" x="264" y="-532.5" font-family="Helvetica,sans-Serif" font-size="20.00" fill="#000000">+ operator==()</text>
</a>
</g>
</g>
<!-- Node6&#45;&gt;Node8 -->
<g id="edge9" class="edge">
<title>Node6&#45;&gt;Node8</title>
<path fill="none" stroke="#404040" d="M141.3422,-979.3484C144.252,-951.5335 152.5381,-917.0875 174.5,-895 196.2404,-873.1352 216.8679,-895.5466 241.5,-877 243.1798,-875.7352 244.8386,-874.4357 246.4766,-873.1036"/>
<polygon fill="none" stroke="#404040" points="246.5795,-873.0141 248.4786,-866.0576 255.6304,-865.1349 253.7313,-872.0915 246.5795,-873.0141"/>
<text text-anchor="middle" x="217.5" y="-901" font-family="Helvetica,sans-Serif" font-size="20.00" fill="#000000"> #perigoso</text>
</g>
<!-- Node7&#45;&gt;Node4 -->
<g id="edge3" class="edge">
<title>Node7&#45;&gt;Node4</title>
<path fill="none" stroke="#191970" d="M135.6621,-163.2091C130.7416,-153.6299 125.7895,-143.9891 121.022,-134.7077"/>
<polygon fill="none" stroke="#191970" points="132.6804,-165.0648 140.3629,-172.3607 138.907,-161.8664 132.6804,-165.0648"/>
</g>
<!-- Node8&#45;&gt;Node7 -->
<g id="edge4" class="edge">
<title>Node8&#45;&gt;Node7</title>
<path fill="none" stroke="#191970" d="M278.6729,-512.8788C254.5285,-448.35 228.7754,-379.5217 209.706,-328.5565"/>
<polygon fill="none" stroke="#191970" points="275.4401,-514.2263 282.2225,-522.3656 281.9962,-511.7732 275.4401,-514.2263"/>
</g>
<!-- Node9 -->
<g id="node6" class="node">
<title>Node9</title>
<g id="a_node6"><a xlink:href="classTratador.html" target="_top" xlink:title="Implementação dos tratadores. ">
<polygon fill="#ffffff" stroke="#000000" points="320.5,-935.5 320.5,-1113.5 484.5,-1113.5 484.5,-935.5 320.5,-935.5"/>
<text text-anchor="middle" x="402.5" y="-1093.5" font-family="Helvetica,sans-Serif" font-size="20.00" fill="#000000">Tratador</text>
<polyline fill="none" stroke="#000000" points="320.5,-1083.5 484.5,-1083.5 "/>
<text text-anchor="middle" x="402.5" y="-1063.5" font-family="Helvetica,sans-Serif" font-size="20.00" fill="#000000"> </text>
<polyline fill="none" stroke="#000000" points="320.5,-1053.5 484.5,-1053.5 "/>
<text text-anchor="start" x="328.5" y="-1033.5" font-family="Helvetica,sans-Serif" font-size="20.00" fill="#000000">+ Tratador()</text>
<text text-anchor="start" x="328.5" y="-1011.5" font-family="Helvetica,sans-Serif" font-size="20.00" fill="#000000">+ Tratador()</text>
<text text-anchor="start" x="328.5" y="-989.5" font-family="Helvetica,sans-Serif" font-size="20.00" fill="#000000">+ ~Tratador()</text>
<text text-anchor="start" x="328.5" y="-967.5" font-family="Helvetica,sans-Serif" font-size="20.00" fill="#000000">+ getUniforme()</text>
<text text-anchor="start" x="328.5" y="-945.5" font-family="Helvetica,sans-Serif" font-size="20.00" fill="#000000">+ printOutDados()</text>
</a>
</g>
</g>
<!-- Node9&#45;&gt;Node8 -->
<g id="edge5" class="edge">
<title>Node9&#45;&gt;Node8</title>
<path fill="none" stroke="#404040" d="M387.6728,-935.2624C385.2106,-920.4435 382.5776,-904.5965 379.8848,-888.3897"/>
<polygon fill="none" stroke="#404040" points="379.8819,-888.3723 374.9526,-883.1091 377.915,-876.5346 382.8444,-881.7978 379.8819,-888.3723"/>
<text text-anchor="middle" x="424" y="-901" font-family="Helvetica,sans-Serif" font-size="20.00" fill="#000000"> #tratador</text>
</g>
<!-- Node10 -->
<g id="node7" class="node">
<title>Node10</title>
<g id="a_node7"><a xlink:href="classPessoa.html" target="_top" xlink:title="Classe base dos funcionarios. ">
<polygon fill="#ffffff" stroke="#000000" points="466.5,-1216.5 466.5,-1460.5 630.5,-1460.5 630.5,-1216.5 466.5,-1216.5"/>
<text text-anchor="middle" x="548.5" y="-1440.5" font-family="Helvetica,sans-Serif" font-size="20.00" fill="#000000">Pessoa</text>
<polyline fill="none" stroke="#000000" points="466.5,-1430.5 630.5,-1430.5 "/>
<text text-anchor="middle" x="548.5" y="-1410.5" font-family="Helvetica,sans-Serif" font-size="20.00" fill="#000000"> </text>
<polyline fill="none" stroke="#000000" points="466.5,-1400.5 630.5,-1400.5 "/>
<text text-anchor="start" x="474.5" y="-1380.5" font-family="Helvetica,sans-Serif" font-size="20.00" fill="#000000">+ Pessoa()</text>
<text text-anchor="start" x="474.5" y="-1358.5" font-family="Helvetica,sans-Serif" font-size="20.00" fill="#000000">+ Pessoa()</text>
<text text-anchor="start" x="474.5" y="-1336.5" font-family="Helvetica,sans-Serif" font-size="20.00" fill="#000000">+ ~Pessoa()</text>
<text text-anchor="start" x="474.5" y="-1314.5" font-family="Helvetica,sans-Serif" font-size="20.00" fill="#000000">+ getNome()</text>
<text text-anchor="start" x="474.5" y="-1292.5" font-family="Helvetica,sans-Serif" font-size="20.00" fill="#000000">+ getTelefone()</text>
<text text-anchor="start" x="474.5" y="-1270.5" font-family="Helvetica,sans-Serif" font-size="20.00" fill="#000000">+ getEmail()</text>
<text text-anchor="start" x="474.5" y="-1248.5" font-family="Helvetica,sans-Serif" font-size="20.00" fill="#000000">+ printOutDados()</text>
<text text-anchor="start" x="474.5" y="-1226.5" font-family="Helvetica,sans-Serif" font-size="20.00" fill="#000000">+ operator==()</text>
</a>
</g>
</g>
<!-- Node10&#45;&gt;Node9 -->
<g id="edge6" class="edge">
<title>Node10&#45;&gt;Node9</title>
<path fill="none" stroke="#191970" d="M520.2143,-1206.5487C512.3387,-1181.0765 502.5434,-1155.1389 490.5,-1132 487.2707,-1125.7956 483.6438,-1119.6174 479.7507,-1113.539"/>
<polygon fill="none" stroke="#191970" points="516.9092,-1207.7121 523.1394,-1216.2816 523.613,-1205.6973 516.9092,-1207.7121"/>
</g>
<!-- Node13 -->
<g id="node10" class="node">
<title>Node13</title>
<g id="a_node10"><a xlink:href="classVeterinario.html" target="_top" xlink:title="Implementação dos veterinarios. ">
<polygon fill="#ffffff" stroke="#000000" points="502.5,-935.5 502.5,-1113.5 666.5,-1113.5 666.5,-935.5 502.5,-935.5"/>
<text text-anchor="middle" x="584.5" y="-1093.5" font-family="Helvetica,sans-Serif" font-size="20.00" fill="#000000">Veterinario</text>
<polyline fill="none" stroke="#000000" points="502.5,-1083.5 666.5,-1083.5 "/>
<text text-anchor="middle" x="584.5" y="-1063.5" font-family="Helvetica,sans-Serif" font-size="20.00" fill="#000000"> </text>
<polyline fill="none" stroke="#000000" points="502.5,-1053.5 666.5,-1053.5 "/>
<text text-anchor="start" x="510.5" y="-1033.5" font-family="Helvetica,sans-Serif" font-size="20.00" fill="#000000">+ Veterinario()</text>
<text text-anchor="start" x="510.5" y="-1011.5" font-family="Helvetica,sans-Serif" font-size="20.00" fill="#000000">+ Veterinario()</text>
<text text-anchor="start" x="510.5" y="-989.5" font-family="Helvetica,sans-Serif" font-size="20.00" fill="#000000">+ ~Veterinario()</text>
<text text-anchor="start" x="510.5" y="-967.5" font-family="Helvetica,sans-Serif" font-size="20.00" fill="#000000">+ getCRMV()</text>
<text text-anchor="start" x="510.5" y="-945.5" font-family="Helvetica,sans-Serif" font-size="20.00" fill="#000000">+ printOutDados()</text>
</a>
</g>
</g>
<!-- Node10&#45;&gt;Node13 -->
<g id="edge12" class="edge">
<title>Node10&#45;&gt;Node13</title>
<path fill="none" stroke="#191970" d="M563.6737,-1206.152C567.2406,-1175.0404 570.9594,-1142.6041 574.2508,-1113.8956"/>
<polygon fill="none" stroke="#191970" points="560.1835,-1205.8667 562.5216,-1216.2003 567.138,-1206.6641 560.1835,-1205.8667"/>
</g>
<!-- Node11 -->
<g id="node8" class="node">
<title>Node11</title>
<polygon fill="#ffffff" stroke="#bfbfbf" points="516.5,-1563.5 516.5,-1653.5 580.5,-1653.5 580.5,-1563.5 516.5,-1563.5"/>
<text text-anchor="middle" x="548.5" y="-1633.5" font-family="Helvetica,sans-Serif" font-size="20.00" fill="#000000">string</text>
<polyline fill="none" stroke="#bfbfbf" points="516.5,-1623.5 580.5,-1623.5 "/>
<text text-anchor="middle" x="548.5" y="-1603.5" font-family="Helvetica,sans-Serif" font-size="20.00" fill="#000000"> </text>
<polyline fill="none" stroke="#bfbfbf" points="516.5,-1593.5 580.5,-1593.5 "/>
<text text-anchor="middle" x="548.5" y="-1573.5" font-family="Helvetica,sans-Serif" font-size="20.00" fill="#000000"> </text>
</g>
<!-- Node11&#45;&gt;Node8 -->
<g id="edge10" class="edge">
<title>Node11&#45;&gt;Node8</title>
<path fill="none" stroke="#404040" d="M516.4274,-1593.633C471.7309,-1571.2547 391.2824,-1524.6585 347.5,-1461 278.8241,-1361.1469 291.6439,-1318.1099 275.5,-1198 261.7422,-1095.6424 276.205,-981.6581 295.7827,-888.5471"/>
<polygon fill="none" stroke="#404040" points="295.8034,-888.4501 293.1512,-881.7445 298.3209,-876.7172 300.9732,-883.4228 295.8034,-888.4501"/>
<text text-anchor="middle" x="337" y="-1182" font-family="Helvetica,sans-Serif" font-size="20.00" fill="#000000"> #especie</text>
<text text-anchor="middle" x="337" y="-1160" font-family="Helvetica,sans-Serif" font-size="20.00" fill="#000000">#ameacadoPor</text>
<text text-anchor="middle" x="337" y="-1138" font-family="Helvetica,sans-Serif" font-size="20.00" fill="#000000">#nome</text>
</g>
<!-- Node11&#45;&gt;Node10 -->
<g id="edge7" class="edge">
<title>Node11&#45;&gt;Node10</title>
<path fill="none" stroke="#404040" d="M548.5,-1563.3081C548.5,-1538.172 548.5,-1505.4339 548.5,-1472.7541"/>
<polygon fill="none" stroke="#404040" points="548.5001,-1472.731 544.5,-1466.731 548.5,-1460.731 552.5,-1466.7309 548.5001,-1472.731"/>
<text text-anchor="middle" x="587" y="-1529" font-family="Helvetica,sans-Serif" font-size="20.00" fill="#000000"> #email</text>
<text text-anchor="middle" x="587" y="-1507" font-family="Helvetica,sans-Serif" font-size="20.00" fill="#000000">#nome</text>
<text text-anchor="middle" x="587" y="-1485" font-family="Helvetica,sans-Serif" font-size="20.00" fill="#000000">#telefone</text>
</g>
<!-- Node11&#45;&gt;Node13 -->
<g id="edge13" class="edge">
<title>Node11&#45;&gt;Node13</title>
<path fill="none" stroke="#404040" d="M580.5929,-1591.7025C598.0405,-1580.8117 618.2905,-1564.9367 629.5,-1545 647.9263,-1512.228 637.2739,-1498.531 639.5,-1461 645.9473,-1352.3022 654.6774,-1323.826 639.5,-1216 635.3048,-1186.196 627.6076,-1154.5291 619.2736,-1125.7087"/>
<polygon fill="none" stroke="#404040" points="619.2052,-1125.4775 613.667,-1120.8592 615.8,-1113.9708 621.3382,-1118.5891 619.2052,-1125.4775"/>
<text text-anchor="middle" x="680.5" y="-1333.5" font-family="Helvetica,sans-Serif" font-size="20.00" fill="#000000"> &#45;CRMV</text>
</g>
<!-- Node12 -->
<g id="node9" class="node">
<title>Node12</title>
<polygon fill="#ffffff" stroke="#bfbfbf" points="356.5,-1293.5 356.5,-1383.5 448.5,-1383.5 448.5,-1293.5 356.5,-1293.5"/>
<text text-anchor="middle" x="402.5" y="-1363.5" font-family="Helvetica,sans-Serif" font-size="20.00" fill="#000000">Uniforme</text>
<polyline fill="none" stroke="#bfbfbf" points="356.5,-1353.5 448.5,-1353.5 "/>
<text text-anchor="middle" x="402.5" y="-1333.5" font-family="Helvetica,sans-Serif" font-size="20.00" fill="#000000"> </text>
<polyline fill="none" stroke="#bfbfbf" points="356.5,-1323.5 448.5,-1323.5 "/>
<text text-anchor="middle" x="402.5" y="-1303.5" font-family="Helvetica,sans-Serif" font-size="20.00" fill="#000000"> </text>
</g>
<!-- Node12&#45;&gt;Node9 -->
<g id="edge8" class="edge">
<title>Node12&#45;&gt;Node9</title>
<path fill="none" stroke="#404040" d="M402.5,-1293.177C402.5,-1249.5856 402.5,-1182.1795 402.5,-1125.7901"/>
<polygon fill="none" stroke="#404040" points="402.5001,-1125.569 398.5,-1119.5691 402.5,-1113.569 406.5,-1119.569 402.5001,-1125.569"/>
<text text-anchor="middle" x="444.5" y="-1160" font-family="Helvetica,sans-Serif" font-size="20.00" fill="#000000"> &#45;uniforme</text>
</g>
<!-- Node13&#45;&gt;Node8 -->
<g id="edge11" class="edge">
<title>Node13&#45;&gt;Node8</title>
<path fill="none" stroke="#404040" d="M519.6998,-935.2624C497.5929,-904.8186 472.3352,-870.0358 448.1341,-836.708"/>
<polygon fill="none" stroke="#404040" points="448.0532,-836.5966 441.2911,-834.0919 441.0022,-826.8865 447.7644,-829.3912 448.0532,-836.5966"/>
<text text-anchor="middle" x="552" y="-901" font-family="Helvetica,sans-Serif" font-size="20.00" fill="#000000"> #veterinario</text>
</g>
</g>
</svg>
