<?xml version="1.0" encoding="UTF-8" standalone="no"?>
<!DOCTYPE svg PUBLIC "-//W3C//DTD SVG 1.1//EN"
 "http://www.w3.org/Graphics/SVG/1.1/DTD/svg11.dtd">
<!-- Generated by graphviz version 2.43.0 (0)
 -->
<!-- Title: AveDomestica Pages: 1 -->
<svg width="883pt" height="1662pt"
 viewBox="0.00 0.00 883.00 1662.00" xmlns="http://www.w3.org/2000/svg" xmlns:xlink="http://www.w3.org/1999/xlink">
<g id="graph0" class="graph" transform="scale(1 1) rotate(0) translate(4 1658)">
<title>AveDomestica</title>
<polygon fill="white" stroke="transparent" points="-4,4 -4,-1658 879,-1658 879,4 -4,4"/>
<!-- Node1 -->
<g id="node1" class="node">
<title>Node1</title>
<g id="a_node1"><a xlink:title="Implementação de animal com Classe e Categoria.">
<polygon fill="#bfbfbf" stroke="black" points="36.5,-0.5 36.5,-134.5 249.5,-134.5 249.5,-0.5 36.5,-0.5"/>
<text text-anchor="middle" x="143" y="-114.5" font-family="Helvetica,sans-Serif" font-size="20.00">AveDomestica</text>
<polyline fill="none" stroke="black" points="36.5,-104.5 249.5,-104.5 "/>
<text text-anchor="middle" x="143" y="-84.5" font-family="Helvetica,sans-Serif" font-size="20.00"> </text>
<polyline fill="none" stroke="black" points="36.5,-74.5 249.5,-74.5 "/>
<text text-anchor="start" x="44.5" y="-54.5" font-family="Helvetica,sans-Serif" font-size="20.00">+ AveDomestica()</text>
<text text-anchor="start" x="44.5" y="-32.5" font-family="Helvetica,sans-Serif" font-size="20.00">+ AveDomestica()</text>
<text text-anchor="start" x="44.5" y="-10.5" font-family="Helvetica,sans-Serif" font-size="20.00">+ ~AveDomestica()</text>
</a>
</g>
</g>
<!-- Node2 -->
<g id="node2" class="node">
<title>Node2</title>
<g id="a_node2"><a xlink:href="classAve.html" target="_top" xlink:title="Classificação base para Aves.">
<polygon fill="white" stroke="black" points="156,-172.5 156,-328.5 278,-328.5 278,-172.5 156,-172.5"/>
<text text-anchor="middle" x="217" y="-308.5" font-family="Helvetica,sans-Serif" font-size="20.00">Ave</text>
<polyline fill="none" stroke="black" points="156,-298.5 278,-298.5 "/>
<text text-anchor="middle" x="217" y="-278.5" font-family="Helvetica,sans-Serif" font-size="20.00"> </text>
<polyline fill="none" stroke="black" points="156,-268.5 278,-268.5 "/>
<text text-anchor="start" x="164" y="-248.5" font-family="Helvetica,sans-Serif" font-size="20.00">+ Ave()</text>
<text text-anchor="start" x="164" y="-226.5" font-family="Helvetica,sans-Serif" font-size="20.00">+ Ave()</text>
<text text-anchor="start" x="164" y="-204.5" font-family="Helvetica,sans-Serif" font-size="20.00">+ ~Ave()</text>
<text text-anchor="start" x="164" y="-182.5" font-family="Helvetica,sans-Serif" font-size="20.00">+ getVoa()</text>
</a>
</g>
</g>
<!-- Node2&#45;&gt;Node1 -->
<g id="edge1" class="edge">
<title>Node2&#45;&gt;Node1</title>
<path fill="none" stroke="midnightblue" d="M181.62,-162.97C177.72,-153.43 173.8,-143.83 170.02,-134.6"/>
<polygon fill="none" stroke="midnightblue" points="178.49,-164.55 185.51,-172.48 184.97,-161.9 178.49,-164.55"/>
</g>
<!-- Node3 -->
<g id="node3" class="node">
<title>Node3</title>
<g id="a_node3"><a xlink:href="classAnimal.html" target="_top" xlink:title="Implementação base para o cadastro de animais.">
<polygon fill="white" stroke="black" points="294.5,-522.5 294.5,-876.5 517.5,-876.5 517.5,-522.5 294.5,-522.5"/>
<text text-anchor="middle" x="406" y="-856.5" font-family="Helvetica,sans-Serif" font-size="20.00">Animal</text>
<polyline fill="none" stroke="black" points="294.5,-846.5 517.5,-846.5 "/>
<text text-anchor="middle" x="406" y="-826.5" font-family="Helvetica,sans-Serif" font-size="20.00"> </text>
<polyline fill="none" stroke="black" points="294.5,-816.5 517.5,-816.5 "/>
<text text-anchor="start" x="302.5" y="-796.5" font-family="Helvetica,sans-Serif" font-size="20.00">+ Animal()</text>
<text text-anchor="start" x="302.5" y="-774.5" font-family="Helvetica,sans-Serif" font-size="20.00">+ Animal()</text>
<text text-anchor="start" x="302.5" y="-752.5" font-family="Helvetica,sans-Serif" font-size="20.00">+ ~Animal()</text>
<text text-anchor="start" x="302.5" y="-730.5" font-family="Helvetica,sans-Serif" font-size="20.00">+ getNome()</text>
<text text-anchor="start" x="302.5" y="-708.5" font-family="Helvetica,sans-Serif" font-size="20.00">+ getEspecie()</text>
<text text-anchor="start" x="302.5" y="-686.5" font-family="Helvetica,sans-Serif" font-size="20.00">+ getAmeacadoPor()</text>
<text text-anchor="start" x="302.5" y="-664.5" font-family="Helvetica,sans-Serif" font-size="20.00">+ getVeterinario()</text>
<text text-anchor="start" x="302.5" y="-642.5" font-family="Helvetica,sans-Serif" font-size="20.00">+ getTratador()</text>
<text text-anchor="start" x="302.5" y="-620.5" font-family="Helvetica,sans-Serif" font-size="20.00">+ getPerigoso()</text>
<text text-anchor="start" x="302.5" y="-598.5" font-family="Helvetica,sans-Serif" font-size="20.00">+ getClassificacao()</text>
<text text-anchor="start" x="302.5" y="-576.5" font-family="Helvetica,sans-Serif" font-size="20.00">+ getClasse()</text>
<text text-anchor="start" x="302.5" y="-554.5" font-family="Helvetica,sans-Serif" font-size="20.00">+ printOutDados()</text>
<text text-anchor="start" x="302.5" y="-532.5" font-family="Helvetica,sans-Serif" font-size="20.00">+ operator==()</text>
</a>
</g>
</g>
<!-- Node3&#45;&gt;Node2 -->
<g id="edge2" class="edge">
<title>Node3&#45;&gt;Node2</title>
<path fill="none" stroke="midnightblue" d="M327.56,-512.99C300.28,-448.47 271.16,-379.6 249.66,-328.74"/>
<polygon fill="none" stroke="midnightblue" points="324.46,-514.63 331.57,-522.48 330.9,-511.9 324.46,-514.63"/>
</g>
<!-- Node4 -->
<g id="node4" class="node">
<title>Node4</title>
<g id="a_node4"><a xlink:href="classTratador.html" target="_top" xlink:title="Implementação dos tratadores.">
<polygon fill="white" stroke="black" points="250,-935.5 250,-1113.5 450,-1113.5 450,-935.5 250,-935.5"/>
<text text-anchor="middle" x="350" y="-1093.5" font-family="Helvetica,sans-Serif" font-size="20.00">Tratador</text>
<polyline fill="none" stroke="black" points="250,-1083.5 450,-1083.5 "/>
<text text-anchor="middle" x="350" y="-1063.5" font-family="Helvetica,sans-Serif" font-size="20.00"> </text>
<polyline fill="none" stroke="black" points="250,-1053.5 450,-1053.5 "/>
<text text-anchor="start" x="258" y="-1033.5" font-family="Helvetica,sans-Serif" font-size="20.00">+ Tratador()</text>
<text text-anchor="start" x="258" y="-1011.5" font-family="Helvetica,sans-Serif" font-size="20.00">+ Tratador()</text>
<text text-anchor="start" x="258" y="-989.5" font-family="Helvetica,sans-Serif" font-size="20.00">+ ~Tratador()</text>
<text text-anchor="start" x="258" y="-967.5" font-family="Helvetica,sans-Serif" font-size="20.00">+ getUniforme()</text>
<text text-anchor="start" x="258" y="-945.5" font-family="Helvetica,sans-Serif" font-size="20.00">+ printOutDados()</text>
</a>
</g>
</g>
<!-- Node4&#45;&gt;Node3 -->
<g id="edge3" class="edge">
<title>Node4&#45;&gt;Node3</title>
<path fill="none" stroke="#404040" d="M365.76,-935.46C366.86,-929.22 367.95,-923.01 369,-917 370.63,-907.65 372.3,-898.08 373.97,-888.41"/>
<polygon fill="none" stroke="#404040" points="373.97,-888.4 371.06,-881.8 376.02,-876.57 378.94,-883.17 373.97,-888.4"/>
<text text-anchor="middle" x="423.5" y="-901" font-family="Helvetica,sans-Serif" font-size="20.00"> #tratador</text>
</g>
<!-- Node5 -->
<g id="node5" class="node">
<title>Node5</title>
<g id="a_node5"><a xlink:href="classPessoa.html" target="_top" xlink:title="Classe base dos funcionarios.">
<polygon fill="white" stroke="black" points="359,-1216.5 359,-1460.5 559,-1460.5 559,-1216.5 359,-1216.5"/>
<text text-anchor="middle" x="459" y="-1440.5" font-family="Helvetica,sans-Serif" font-size="20.00">Pessoa</text>
<polyline fill="none" stroke="black" points="359,-1430.5 559,-1430.5 "/>
<text text-anchor="middle" x="459" y="-1410.5" font-family="Helvetica,sans-Serif" font-size="20.00"> </text>
<polyline fill="none" stroke="black" points="359,-1400.5 559,-1400.5 "/>
<text text-anchor="start" x="367" y="-1380.5" font-family="Helvetica,sans-Serif" font-size="20.00">+ Pessoa()</text>
<text text-anchor="start" x="367" y="-1358.5" font-family="Helvetica,sans-Serif" font-size="20.00">+ Pessoa()</text>
<text text-anchor="start" x="367" y="-1336.5" font-family="Helvetica,sans-Serif" font-size="20.00">+ ~Pessoa()</text>
<text text-anchor="start" x="367" y="-1314.5" font-family="Helvetica,sans-Serif" font-size="20.00">+ getNome()</text>
<text text-anchor="start" x="367" y="-1292.5" font-family="Helvetica,sans-Serif" font-size="20.00">+ getTelefone()</text>
<text text-anchor="start" x="367" y="-1270.5" font-family="Helvetica,sans-Serif" font-size="20.00">+ getEmail()</text>
<text text-anchor="start" x="367" y="-1248.5" font-family="Helvetica,sans-Serif" font-size="20.00">+ printOutDados()</text>
<text text-anchor="start" x="367" y="-1226.5" font-family="Helvetica,sans-Serif" font-size="20.00">+ operator==()</text>
</a>
</g>
</g>
<!-- Node5&#45;&gt;Node4 -->
<g id="edge4" class="edge">
<title>Node5&#45;&gt;Node4</title>
<path fill="none" stroke="midnightblue" d="M429.16,-1206.38C422.17,-1181.37 414.08,-1155.64 405,-1132 402.69,-1125.98 400.13,-1119.85 397.41,-1113.74"/>
<polygon fill="none" stroke="midnightblue" points="425.86,-1207.57 431.88,-1216.29 432.61,-1205.72 425.86,-1207.57"/>
</g>
<!-- Node9 -->
<g id="node9" class="node">
<title>Node9</title>
<g id="a_node9"><a xlink:href="classVeterinario.html" target="_top" xlink:title="Implementação dos veterinarios.">
<polygon fill="white" stroke="black" points="468,-935.5 468,-1113.5 668,-1113.5 668,-935.5 468,-935.5"/>
<text text-anchor="middle" x="568" y="-1093.5" font-family="Helvetica,sans-Serif" font-size="20.00">Veterinario</text>
<polyline fill="none" stroke="black" points="468,-1083.5 668,-1083.5 "/>
<text text-anchor="middle" x="568" y="-1063.5" font-family="Helvetica,sans-Serif" font-size="20.00"> </text>
<polyline fill="none" stroke="black" points="468,-1053.5 668,-1053.5 "/>
<text text-anchor="start" x="476" y="-1033.5" font-family="Helvetica,sans-Serif" font-size="20.00">+ Veterinario()</text>
<text text-anchor="start" x="476" y="-1011.5" font-family="Helvetica,sans-Serif" font-size="20.00">+ Veterinario()</text>
<text text-anchor="start" x="476" y="-989.5" font-family="Helvetica,sans-Serif" font-size="20.00">+ ~Veterinario()</text>
<text text-anchor="start" x="476" y="-967.5" font-family="Helvetica,sans-Serif" font-size="20.00">+ getCRMV()</text>
<text text-anchor="start" x="476" y="-945.5" font-family="Helvetica,sans-Serif" font-size="20.00">+ printOutDados()</text>
</a>
</g>
</g>
<!-- Node5&#45;&gt;Node9 -->
<g id="edge10" class="edge">
<title>Node5&#45;&gt;Node9</title>
<path fill="none" stroke="midnightblue" d="M504.68,-1206.73C515.65,-1175.34 527.11,-1142.55 537.21,-1113.62"/>
<polygon fill="none" stroke="midnightblue" points="501.29,-1205.83 501.3,-1216.43 507.9,-1208.14 501.29,-1205.83"/>
</g>
<!-- Node6 -->
<g id="node6" class="node">
<title>Node6</title>
<g id="a_node6"><a xlink:title=" ">
<polygon fill="white" stroke="#bfbfbf" points="558,-1563.5 558,-1653.5 632,-1653.5 632,-1563.5 558,-1563.5"/>
<text text-anchor="middle" x="595" y="-1633.5" font-family="Helvetica,sans-Serif" font-size="20.00">string</text>
<polyline fill="none" stroke="#bfbfbf" points="558,-1623.5 632,-1623.5 "/>
<text text-anchor="middle" x="595" y="-1603.5" font-family="Helvetica,sans-Serif" font-size="20.00"> </text>
<polyline fill="none" stroke="#bfbfbf" points="558,-1593.5 632,-1593.5 "/>
<text text-anchor="middle" x="595" y="-1573.5" font-family="Helvetica,sans-Serif" font-size="20.00"> </text>
</a>
</g>
</g>
<!-- Node6&#45;&gt;Node3 -->
<g id="edge8" class="edge">
<title>Node6&#45;&gt;Node3</title>
<path fill="none" stroke="#404040" d="M621.95,-1563.44C637.68,-1535.25 656.12,-1497.28 665,-1461 720.62,-1233.87 756.06,-1155.07 677,-935 651.05,-862.77 587.18,-805.7 527.96,-765.95"/>
<polygon fill="none" stroke="#404040" points="527.76,-765.82 520.55,-765.86 517.74,-759.22 524.95,-759.18 527.76,-765.82"/>
<text text-anchor="middle" x="799" y="-1182" font-family="Helvetica,sans-Serif" font-size="20.00"> #especie</text>
<text text-anchor="middle" x="799" y="-1160" font-family="Helvetica,sans-Serif" font-size="20.00">#ameacadoPor</text>
<text text-anchor="middle" x="799" y="-1138" font-family="Helvetica,sans-Serif" font-size="20.00">#nome</text>
</g>
<!-- Node6&#45;&gt;Node5 -->
<g id="edge5" class="edge">
<title>Node6&#45;&gt;Node5</title>
<path fill="none" stroke="#404040" d="M557.88,-1596.48C532.8,-1587.02 501.21,-1570.74 484,-1545 469.77,-1523.72 461.52,-1498.38 457.03,-1472.88"/>
<polygon fill="none" stroke="#404040" points="456.99,-1472.63 452.13,-1467.31 455.17,-1460.77 460.03,-1466.09 456.99,-1472.63"/>
<text text-anchor="middle" x="532.5" y="-1529" font-family="Helvetica,sans-Serif" font-size="20.00"> #email</text>
<text text-anchor="middle" x="532.5" y="-1507" font-family="Helvetica,sans-Serif" font-size="20.00">#nome</text>
<text text-anchor="middle" x="532.5" y="-1485" font-family="Helvetica,sans-Serif" font-size="20.00">#telefone</text>
</g>
<!-- Node6&#45;&gt;Node9 -->
<g id="edge11" class="edge">
<title>Node6&#45;&gt;Node9</title>
<path fill="none" stroke="#404040" d="M592.95,-1563.28C588.65,-1470.57 578.59,-1253.87 572.65,-1125.64"/>
<polygon fill="none" stroke="#404040" points="572.64,-1125.5 568.37,-1119.69 572.08,-1113.51 576.36,-1119.32 572.64,-1125.5"/>
<text text-anchor="middle" x="624.5" y="-1333.5" font-family="Helvetica,sans-Serif" font-size="20.00"> &#45;CRMV</text>
</g>
<!-- Node7 -->
<g id="node7" class="node">
<title>Node7</title>
<g id="a_node7"><a xlink:title=" ">
<polygon fill="white" stroke="#bfbfbf" points="233.5,-1293.5 233.5,-1383.5 340.5,-1383.5 340.5,-1293.5 233.5,-1293.5"/>
<text text-anchor="middle" x="287" y="-1363.5" font-family="Helvetica,sans-Serif" font-size="20.00">Uniforme</text>
<polyline fill="none" stroke="#bfbfbf" points="233.5,-1353.5 340.5,-1353.5 "/>
<text text-anchor="middle" x="287" y="-1333.5" font-family="Helvetica,sans-Serif" font-size="20.00"> </text>
<polyline fill="none" stroke="#bfbfbf" points="233.5,-1323.5 340.5,-1323.5 "/>
<text text-anchor="middle" x="287" y="-1303.5" font-family="Helvetica,sans-Serif" font-size="20.00"> </text>
</a>
</g>
</g>
<!-- Node7&#45;&gt;Node4 -->
<g id="edge6" class="edge">
<title>Node7&#45;&gt;Node4</title>
<path fill="none" stroke="#404040" d="M285.81,-1293.5C285.69,-1251.4 288.21,-1186.44 302,-1132 302.58,-1129.71 303.2,-1127.42 303.87,-1125.11"/>
<polygon fill="none" stroke="#404040" points="303.9,-1125.01 301.9,-1118.09 307.52,-1113.57 309.53,-1120.5 303.9,-1125.01"/>
<text text-anchor="middle" x="353.5" y="-1160" font-family="Helvetica,sans-Serif" font-size="20.00"> &#45;uniforme</text>
</g>
<!-- Node8 -->
<g id="node8" class="node">
<title>Node8</title>
<g id="a_node8"><a xlink:title=" ">
<polygon fill="white" stroke="#bfbfbf" points="172.5,-979.5 172.5,-1069.5 231.5,-1069.5 231.5,-979.5 172.5,-979.5"/>
<text text-anchor="middle" x="202" y="-1049.5" font-family="Helvetica,sans-Serif" font-size="20.00">bool</text>
<polyline fill="none" stroke="#bfbfbf" points="172.5,-1039.5 231.5,-1039.5 "/>
<text text-anchor="middle" x="202" y="-1019.5" font-family="Helvetica,sans-Serif" font-size="20.00"> </text>
<polyline fill="none" stroke="#bfbfbf" points="172.5,-1009.5 231.5,-1009.5 "/>
<text text-anchor="middle" x="202" y="-989.5" font-family="Helvetica,sans-Serif" font-size="20.00"> </text>
</a>
</g>
</g>
<!-- Node8&#45;&gt;Node2 -->
<g id="edge12" class="edge">
<title>Node8&#45;&gt;Node2</title>
<path fill="none" stroke="#404040" d="M202.86,-979.22C205.26,-855.83 212.05,-506.35 215.27,-340.7"/>
<polygon fill="none" stroke="#404040" points="215.27,-340.61 211.39,-334.54 215.5,-328.61 219.38,-334.69 215.27,-340.61"/>
<text text-anchor="middle" x="240.5" y="-694.5" font-family="Helvetica,sans-Serif" font-size="20.00"> #voa</text>
</g>
<!-- Node8&#45;&gt;Node3 -->
<g id="edge7" class="edge">
<title>Node8&#45;&gt;Node3</title>
<path fill="none" stroke="#404040" d="M214.1,-979.38C222.82,-953.06 236.5,-919.99 256,-895 264.2,-884.49 270.68,-886.54 280,-877 281.98,-874.98 283.95,-872.92 285.91,-870.83"/>
<polygon fill="none" stroke="#404040" points="286.34,-870.35 287.44,-863.23 294.45,-861.5 293.35,-868.63 286.34,-870.35"/>
<text text-anchor="middle" x="310.5" y="-901" font-family="Helvetica,sans-Serif" font-size="20.00"> #perigoso</text>
</g>
<!-- Node10 -->
<g id="node10" class="node">
<title>Node10</title>
<g id="a_node10"><a xlink:href="classDomestico.html" target="_top" xlink:title="Umas das definições de categoria para Animal.">
<polygon fill="white" stroke="black" points="0,-347.5 0,-503.5 188,-503.5 188,-347.5 0,-347.5"/>
<text text-anchor="middle" x="94" y="-483.5" font-family="Helvetica,sans-Serif" font-size="20.00">Domestico</text>
<polyline fill="none" stroke="black" points="0,-473.5 188,-473.5 "/>
<text text-anchor="middle" x="94" y="-453.5" font-family="Helvetica,sans-Serif" font-size="20.00"> </text>
<polyline fill="none" stroke="black" points="0,-443.5 188,-443.5 "/>
<text text-anchor="start" x="8" y="-423.5" font-family="Helvetica,sans-Serif" font-size="20.00">+ Domestico()</text>
<text text-anchor="start" x="8" y="-401.5" font-family="Helvetica,sans-Serif" font-size="20.00">+ Domestico()</text>
<text text-anchor="start" x="8" y="-379.5" font-family="Helvetica,sans-Serif" font-size="20.00">+ ~Domestico()</text>
<text text-anchor="start" x="8" y="-357.5" font-family="Helvetica,sans-Serif" font-size="20.00">+ getAdestrado()</text>
</a>
</g>
</g>
<!-- Node8&#45;&gt;Node10 -->
<g id="edge14" class="edge">
<title>Node8&#45;&gt;Node10</title>
<path fill="none" stroke="#404040" d="M172.36,-1007.74C142.69,-990.1 98.84,-958.47 80,-917 21.01,-787.19 45.14,-617.45 68.92,-515.49"/>
<polygon fill="none" stroke="#404040" points="68.94,-515.37 66.45,-508.6 71.73,-503.7 74.23,-510.46 68.94,-515.37"/>
<text text-anchor="middle" x="141.5" y="-901" font-family="Helvetica,sans-Serif" font-size="20.00"> #adestrado</text>
</g>
<!-- Node9&#45;&gt;Node3 -->
<g id="edge9" class="edge">
<title>Node9&#45;&gt;Node3</title>
<path fill="none" stroke="#404040" d="M523.73,-935.24C516.16,-920.15 508.05,-903.97 499.75,-887.43"/>
<polygon fill="none" stroke="#404040" points="499.66,-887.24 493.4,-883.67 494.28,-876.52 500.55,-880.09 499.66,-887.24"/>
<text text-anchor="middle" x="575" y="-901" font-family="Helvetica,sans-Serif" font-size="20.00"> #veterinario</text>
</g>
<!-- Node10&#45;&gt;Node1 -->
<g id="edge13" class="edge">
<title>Node10&#45;&gt;Node1</title>
<path fill="none" stroke="midnightblue" d="M106.04,-337C114.65,-274.45 126.06,-191.58 133.91,-134.54"/>
<polygon fill="none" stroke="midnightblue" points="102.53,-336.87 104.63,-347.25 109.46,-337.82 102.53,-336.87"/>
</g>
</g>
</svg>
