<?xml version="1.0" encoding="UTF-8" standalone="no"?>
<!DOCTYPE svg PUBLIC "-//W3C//DTD SVG 1.1//EN"
 "http://www.w3.org/Graphics/SVG/1.1/DTD/svg11.dtd">
<!-- Generated by graphviz version 2.40.1 (20161225.0304)
 -->
<!-- Title: Animal Pages: 1 -->
<svg width="2305pt" height="881pt"
 viewBox="0.00 0.00 2305.00 881.00" xmlns="http://www.w3.org/2000/svg" xmlns:xlink="http://www.w3.org/1999/xlink">
<g id="graph0" class="graph" transform="scale(1 1) rotate(0) translate(4 877)">
<title>Animal</title>
<polygon fill="#ffffff" stroke="transparent" points="-4,4 -4,-877 2301,-877 2301,4 -4,4"/>
<!-- Node0 -->
<g id="node1" class="node">
<title>Node0</title>
<polygon fill="#bfbfbf" stroke="#000000" points="1116,-408.5 1116,-872.5 1301,-872.5 1301,-408.5 1116,-408.5"/>
<text text-anchor="middle" x="1208.5" y="-852.5" font-family="Helvetica,sans-Serif" font-size="20.00" fill="#000000">Animal</text>
<polyline fill="none" stroke="#000000" points="1116,-842.5 1301,-842.5 "/>
<text text-anchor="start" x="1124" y="-822.5" font-family="Helvetica,sans-Serif" font-size="20.00" fill="#000000"># nome</text>
<text text-anchor="start" x="1124" y="-800.5" font-family="Helvetica,sans-Serif" font-size="20.00" fill="#000000"># especie</text>
<text text-anchor="start" x="1124" y="-778.5" font-family="Helvetica,sans-Serif" font-size="20.00" fill="#000000"># ameacadoPor</text>
<text text-anchor="start" x="1124" y="-756.5" font-family="Helvetica,sans-Serif" font-size="20.00" fill="#000000"># veterinario</text>
<text text-anchor="start" x="1124" y="-734.5" font-family="Helvetica,sans-Serif" font-size="20.00" fill="#000000"># tratador</text>
<text text-anchor="start" x="1124" y="-712.5" font-family="Helvetica,sans-Serif" font-size="20.00" fill="#000000"># perigoso</text>
<polyline fill="none" stroke="#000000" points="1116,-702.5 1301,-702.5 "/>
<text text-anchor="start" x="1124" y="-682.5" font-family="Helvetica,sans-Serif" font-size="20.00" fill="#000000">+ Animal()</text>
<text text-anchor="start" x="1124" y="-660.5" font-family="Helvetica,sans-Serif" font-size="20.00" fill="#000000">+ Animal()</text>
<text text-anchor="start" x="1124" y="-638.5" font-family="Helvetica,sans-Serif" font-size="20.00" fill="#000000">+ ~Animal()</text>
<text text-anchor="start" x="1124" y="-616.5" font-family="Helvetica,sans-Serif" font-size="20.00" fill="#000000">+ getNome()</text>
<text text-anchor="start" x="1124" y="-594.5" font-family="Helvetica,sans-Serif" font-size="20.00" fill="#000000">+ getEspecie()</text>
<text text-anchor="start" x="1124" y="-572.5" font-family="Helvetica,sans-Serif" font-size="20.00" fill="#000000">+ getAmeacadoPor()</text>
<text text-anchor="start" x="1124" y="-550.5" font-family="Helvetica,sans-Serif" font-size="20.00" fill="#000000">+ getVeterinario()</text>
<text text-anchor="start" x="1124" y="-528.5" font-family="Helvetica,sans-Serif" font-size="20.00" fill="#000000">+ getTratador()</text>
<text text-anchor="start" x="1124" y="-506.5" font-family="Helvetica,sans-Serif" font-size="20.00" fill="#000000">+ getPerigoso()</text>
<text text-anchor="start" x="1124" y="-484.5" font-family="Helvetica,sans-Serif" font-size="20.00" fill="#000000">+ getClassificacao()</text>
<text text-anchor="start" x="1124" y="-462.5" font-family="Helvetica,sans-Serif" font-size="20.00" fill="#000000">+ getClasse()</text>
<text text-anchor="start" x="1124" y="-440.5" font-family="Helvetica,sans-Serif" font-size="20.00" fill="#000000">+ printOutDados()</text>
<text text-anchor="start" x="1124" y="-418.5" font-family="Helvetica,sans-Serif" font-size="20.00" fill="#000000">+ operator==()</text>
</g>
<!-- Node1 -->
<g id="node2" class="node">
<title>Node1</title>
<g id="a_node2"><a xlink:href="classDomestico.html" target="_top" xlink:title="Umas das definições de categoria para Animal. ">
<polygon fill="#ffffff" stroke="#000000" points="440,-193.5 440,-349.5 595,-349.5 595,-193.5 440,-193.5"/>
<text text-anchor="middle" x="517.5" y="-329.5" font-family="Helvetica,sans-Serif" font-size="20.00" fill="#000000">Domestico</text>
<polyline fill="none" stroke="#000000" points="440,-319.5 595,-319.5 "/>
<text text-anchor="start" x="448" y="-299.5" font-family="Helvetica,sans-Serif" font-size="20.00" fill="#000000"># adestrado</text>
<polyline fill="none" stroke="#000000" points="440,-289.5 595,-289.5 "/>
<text text-anchor="start" x="448" y="-269.5" font-family="Helvetica,sans-Serif" font-size="20.00" fill="#000000">+ Domestico()</text>
<text text-anchor="start" x="448" y="-247.5" font-family="Helvetica,sans-Serif" font-size="20.00" fill="#000000">+ Domestico()</text>
<text text-anchor="start" x="448" y="-225.5" font-family="Helvetica,sans-Serif" font-size="20.00" fill="#000000">+ ~Domestico()</text>
<text text-anchor="start" x="448" y="-203.5" font-family="Helvetica,sans-Serif" font-size="20.00" fill="#000000">+ getAdestrado()</text>
</a>
</g>
</g>
<!-- Node0&#45;&gt;Node1 -->
<g id="edge1" class="edge">
<title>Node0&#45;&gt;Node1</title>
<path fill="none" stroke="#191970" d="M1106.6523,-586.1124C967.3874,-511.7438 720.5607,-379.9362 595.2095,-312.9975"/>
<polygon fill="none" stroke="#191970" points="1105.1977,-589.3034 1115.6674,-590.9266 1108.4951,-583.1287 1105.1977,-589.3034"/>
</g>
<!-- Node6 -->
<g id="node7" class="node">
<title>Node6</title>
<g id="a_node7"><a xlink:href="classExotico.html" target="_top" xlink:title="Umas das definições de categoria para Animal. ">
<polygon fill="#ffffff" stroke="#000000" points="1151.5,-193.5 1151.5,-349.5 1265.5,-349.5 1265.5,-193.5 1151.5,-193.5"/>
<text text-anchor="middle" x="1208.5" y="-329.5" font-family="Helvetica,sans-Serif" font-size="20.00" fill="#000000">Exotico</text>
<polyline fill="none" stroke="#000000" points="1151.5,-319.5 1265.5,-319.5 "/>
<text text-anchor="start" x="1159.5" y="-299.5" font-family="Helvetica,sans-Serif" font-size="20.00" fill="#000000"># local</text>
<polyline fill="none" stroke="#000000" points="1151.5,-289.5 1265.5,-289.5 "/>
<text text-anchor="start" x="1159.5" y="-269.5" font-family="Helvetica,sans-Serif" font-size="20.00" fill="#000000">+ Exotico()</text>
<text text-anchor="start" x="1159.5" y="-247.5" font-family="Helvetica,sans-Serif" font-size="20.00" fill="#000000">+ Exotico()</text>
<text text-anchor="start" x="1159.5" y="-225.5" font-family="Helvetica,sans-Serif" font-size="20.00" fill="#000000">+ ~Exotico()</text>
<text text-anchor="start" x="1159.5" y="-203.5" font-family="Helvetica,sans-Serif" font-size="20.00" fill="#000000">+ getLocal()</text>
</a>
</g>
</g>
<!-- Node0&#45;&gt;Node6 -->
<g id="edge6" class="edge">
<title>Node0&#45;&gt;Node6</title>
<path fill="none" stroke="#191970" d="M1208.5,-398.2212C1208.5,-381.1076 1208.5,-364.7317 1208.5,-349.7695"/>
<polygon fill="none" stroke="#191970" points="1205.0001,-398.3776 1208.5,-408.3776 1212.0001,-398.3776 1205.0001,-398.3776"/>
</g>
<!-- Node11 -->
<g id="node12" class="node">
<title>Node11</title>
<g id="a_node12"><a xlink:href="classNativo.html" target="_top" xlink:title="Umas das definições de categoria para Animal. ">
<polygon fill="#ffffff" stroke="#000000" points="1784,-171.5 1784,-371.5 1917,-371.5 1917,-171.5 1784,-171.5"/>
<text text-anchor="middle" x="1850.5" y="-351.5" font-family="Helvetica,sans-Serif" font-size="20.00" fill="#000000">Nativo</text>
<polyline fill="none" stroke="#000000" points="1784,-341.5 1917,-341.5 "/>
<text text-anchor="start" x="1792" y="-321.5" font-family="Helvetica,sans-Serif" font-size="20.00" fill="#000000"># regiao</text>
<text text-anchor="start" x="1792" y="-299.5" font-family="Helvetica,sans-Serif" font-size="20.00" fill="#000000"># licenca</text>
<polyline fill="none" stroke="#000000" points="1784,-289.5 1917,-289.5 "/>
<text text-anchor="start" x="1792" y="-269.5" font-family="Helvetica,sans-Serif" font-size="20.00" fill="#000000">+ Nativo()</text>
<text text-anchor="start" x="1792" y="-247.5" font-family="Helvetica,sans-Serif" font-size="20.00" fill="#000000">+ Nativo()</text>
<text text-anchor="start" x="1792" y="-225.5" font-family="Helvetica,sans-Serif" font-size="20.00" fill="#000000">+ ~Nativo()</text>
<text text-anchor="start" x="1792" y="-203.5" font-family="Helvetica,sans-Serif" font-size="20.00" fill="#000000">+ getRegiao()</text>
<text text-anchor="start" x="1792" y="-181.5" font-family="Helvetica,sans-Serif" font-size="20.00" fill="#000000">+ getLicenca()</text>
</a>
</g>
</g>
<!-- Node0&#45;&gt;Node11 -->
<g id="edge11" class="edge">
<title>Node0&#45;&gt;Node11</title>
<path fill="none" stroke="#191970" d="M1310.1564,-582.0713C1442.8107,-505.8261 1671.2518,-374.5258 1783.8285,-309.8205"/>
<polygon fill="none" stroke="#191970" points="1308.0925,-579.2206 1301.1667,-587.2383 1311.5808,-585.2896 1308.0925,-579.2206"/>
</g>
<!-- Node2 -->
<g id="node3" class="node">
<title>Node2</title>
<g id="a_node3"><a xlink:href="classAnfibioDomestico.html" target="_top" xlink:title="Implementação de animal com Classe e Categoria. ">
<polygon fill="#ffffff" stroke="#000000" points="0,-11.5 0,-123.5 199,-123.5 199,-11.5 0,-11.5"/>
<text text-anchor="middle" x="99.5" y="-103.5" font-family="Helvetica,sans-Serif" font-size="20.00" fill="#000000">AnfibioDomestico</text>
<polyline fill="none" stroke="#000000" points="0,-93.5 199,-93.5 "/>
<text text-anchor="middle" x="99.5" y="-73.5" font-family="Helvetica,sans-Serif" font-size="20.00" fill="#000000"> </text>
<polyline fill="none" stroke="#000000" points="0,-63.5 199,-63.5 "/>
<text text-anchor="start" x="8" y="-43.5" font-family="Helvetica,sans-Serif" font-size="20.00" fill="#000000">+ AnfibioDomestico()</text>
<text text-anchor="start" x="8" y="-21.5" font-family="Helvetica,sans-Serif" font-size="20.00" fill="#000000">+ ~AnfibioDomestico()</text>
</a>
</g>
</g>
<!-- Node1&#45;&gt;Node2 -->
<g id="edge2" class="edge">
<title>Node1&#45;&gt;Node2</title>
<path fill="none" stroke="#191970" d="M430.4155,-237.095C367.4005,-211.256 280.7944,-173.7831 207.5,-135 200.7575,-131.4323 193.8708,-127.6002 187.0013,-123.6399"/>
<polygon fill="none" stroke="#191970" points="429.3475,-240.4395 439.9285,-240.9809 431.9946,-233.9593 429.3475,-240.4395"/>
</g>
<!-- Node3 -->
<g id="node4" class="node">
<title>Node3</title>
<g id="a_node4"><a xlink:href="classAveDomestica.html" target="_top" xlink:title="Implementação de animal com Classe e Categoria. ">
<polygon fill="#ffffff" stroke="#000000" points="217,-.5 217,-134.5 390,-134.5 390,-.5 217,-.5"/>
<text text-anchor="middle" x="303.5" y="-114.5" font-family="Helvetica,sans-Serif" font-size="20.00" fill="#000000">AveDomestica</text>
<polyline fill="none" stroke="#000000" points="217,-104.5 390,-104.5 "/>
<text text-anchor="middle" x="303.5" y="-84.5" font-family="Helvetica,sans-Serif" font-size="20.00" fill="#000000"> </text>
<polyline fill="none" stroke="#000000" points="217,-74.5 390,-74.5 "/>
<text text-anchor="start" x="225" y="-54.5" font-family="Helvetica,sans-Serif" font-size="20.00" fill="#000000">+ AveDomestica()</text>
<text text-anchor="start" x="225" y="-32.5" font-family="Helvetica,sans-Serif" font-size="20.00" fill="#000000">+ AveDomestica()</text>
<text text-anchor="start" x="225" y="-10.5" font-family="Helvetica,sans-Serif" font-size="20.00" fill="#000000">+ ~AveDomestica()</text>
</a>
</g>
</g>
<!-- Node1&#45;&gt;Node3 -->
<g id="edge3" class="edge">
<title>Node1&#45;&gt;Node3</title>
<path fill="none" stroke="#191970" d="M432.5607,-190.5298C413.1665,-172.0419 392.7616,-152.5905 374.0464,-134.7499"/>
<polygon fill="none" stroke="#191970" points="430.2853,-193.1963 439.9385,-197.5629 435.1153,-188.1296 430.2853,-193.1963"/>
</g>
<!-- Node4 -->
<g id="node5" class="node">
<title>Node4</title>
<g id="a_node5"><a xlink:href="classMamiferoDomestico.html" target="_top" xlink:title="Implementação de animal com Classe e Categoria. ">
<polygon fill="#ffffff" stroke="#000000" points="408.5,-11.5 408.5,-123.5 626.5,-123.5 626.5,-11.5 408.5,-11.5"/>
<text text-anchor="middle" x="517.5" y="-103.5" font-family="Helvetica,sans-Serif" font-size="20.00" fill="#000000">MamiferoDomestico</text>
<polyline fill="none" stroke="#000000" points="408.5,-93.5 626.5,-93.5 "/>
<text text-anchor="middle" x="517.5" y="-73.5" font-family="Helvetica,sans-Serif" font-size="20.00" fill="#000000"> </text>
<polyline fill="none" stroke="#000000" points="408.5,-63.5 626.5,-63.5 "/>
<text text-anchor="start" x="416.5" y="-43.5" font-family="Helvetica,sans-Serif" font-size="20.00" fill="#000000">+ MamiferoDomestico()</text>
<text text-anchor="start" x="416.5" y="-21.5" font-family="Helvetica,sans-Serif" font-size="20.00" fill="#000000">+ ~MamiferoDomestico()</text>
</a>
</g>
</g>
<!-- Node1&#45;&gt;Node4 -->
<g id="edge4" class="edge">
<title>Node1&#45;&gt;Node4</title>
<path fill="none" stroke="#191970" d="M517.5,-183.083C517.5,-162.9472 517.5,-142.0924 517.5,-123.7332"/>
<polygon fill="none" stroke="#191970" points="514.0001,-183.2117 517.5,-193.2117 521.0001,-183.2117 514.0001,-183.2117"/>
</g>
<!-- Node5 -->
<g id="node6" class="node">
<title>Node5</title>
<g id="a_node6"><a xlink:href="classReptilDomestico.html" target="_top" xlink:title="Implementação de animal com Classe e Categoria. ">
<polygon fill="#ffffff" stroke="#000000" points="644.5,-11.5 644.5,-123.5 832.5,-123.5 832.5,-11.5 644.5,-11.5"/>
<text text-anchor="middle" x="738.5" y="-103.5" font-family="Helvetica,sans-Serif" font-size="20.00" fill="#000000">ReptilDomestico</text>
<polyline fill="none" stroke="#000000" points="644.5,-93.5 832.5,-93.5 "/>
<text text-anchor="middle" x="738.5" y="-73.5" font-family="Helvetica,sans-Serif" font-size="20.00" fill="#000000"> </text>
<polyline fill="none" stroke="#000000" points="644.5,-63.5 832.5,-63.5 "/>
<text text-anchor="start" x="652.5" y="-43.5" font-family="Helvetica,sans-Serif" font-size="20.00" fill="#000000">+ ReptilDomestico()</text>
<text text-anchor="start" x="652.5" y="-21.5" font-family="Helvetica,sans-Serif" font-size="20.00" fill="#000000">+ ~ReptilDomestico()</text>
</a>
</g>
</g>
<!-- Node1&#45;&gt;Node5 -->
<g id="edge5" class="edge">
<title>Node1&#45;&gt;Node5</title>
<path fill="none" stroke="#191970" d="M602.4785,-193.0583C627.577,-169.8905 654.5338,-145.0073 677.7762,-123.5528"/>
<polygon fill="none" stroke="#191970" points="600.0796,-190.5094 595.1056,-199.8641 604.8276,-195.6531 600.0796,-190.5094"/>
</g>
<!-- Node7 -->
<g id="node8" class="node">
<title>Node7</title>
<g id="a_node8"><a xlink:href="classAnfibioExotico.html" target="_top" xlink:title="Implementação de animal com Classe e Categoria. ">
<polygon fill="#ffffff" stroke="#000000" points="851,-11.5 851,-123.5 1024,-123.5 1024,-11.5 851,-11.5"/>
<text text-anchor="middle" x="937.5" y="-103.5" font-family="Helvetica,sans-Serif" font-size="20.00" fill="#000000">AnfibioExotico</text>
<polyline fill="none" stroke="#000000" points="851,-93.5 1024,-93.5 "/>
<text text-anchor="middle" x="937.5" y="-73.5" font-family="Helvetica,sans-Serif" font-size="20.00" fill="#000000"> </text>
<polyline fill="none" stroke="#000000" points="851,-63.5 1024,-63.5 "/>
<text text-anchor="start" x="859" y="-43.5" font-family="Helvetica,sans-Serif" font-size="20.00" fill="#000000">+ AnfibioExotico()</text>
<text text-anchor="start" x="859" y="-21.5" font-family="Helvetica,sans-Serif" font-size="20.00" fill="#000000">+ ~AnfibioExotico()</text>
</a>
</g>
</g>
<!-- Node6&#45;&gt;Node7 -->
<g id="edge7" class="edge">
<title>Node6&#45;&gt;Node7</title>
<path fill="none" stroke="#191970" d="M1143.1034,-222.2715C1103.6003,-192.5349 1053.1264,-154.5398 1012.0751,-123.6377"/>
<polygon fill="none" stroke="#191970" points="1141.2647,-225.2682 1151.359,-228.4861 1145.4746,-219.6757 1141.2647,-225.2682"/>
</g>
<!-- Node8 -->
<g id="node9" class="node">
<title>Node8</title>
<g id="a_node9"><a xlink:href="classAveExotica.html" target="_top" xlink:title="Implementação de animal com Classe e Categoria. ">
<polygon fill="#ffffff" stroke="#000000" points="1042.5,-11.5 1042.5,-123.5 1188.5,-123.5 1188.5,-11.5 1042.5,-11.5"/>
<text text-anchor="middle" x="1115.5" y="-103.5" font-family="Helvetica,sans-Serif" font-size="20.00" fill="#000000">AveExotica</text>
<polyline fill="none" stroke="#000000" points="1042.5,-93.5 1188.5,-93.5 "/>
<text text-anchor="middle" x="1115.5" y="-73.5" font-family="Helvetica,sans-Serif" font-size="20.00" fill="#000000"> </text>
<polyline fill="none" stroke="#000000" points="1042.5,-63.5 1188.5,-63.5 "/>
<text text-anchor="start" x="1050.5" y="-43.5" font-family="Helvetica,sans-Serif" font-size="20.00" fill="#000000">+ AveExotica()</text>
<text text-anchor="start" x="1050.5" y="-21.5" font-family="Helvetica,sans-Serif" font-size="20.00" fill="#000000">+ ~AveExotica()</text>
</a>
</g>
</g>
<!-- Node6&#45;&gt;Node8 -->
<g id="edge8" class="edge">
<title>Node6&#45;&gt;Node8</title>
<path fill="none" stroke="#191970" d="M1168.5693,-183.91C1159.2734,-163.519 1149.62,-142.3439 1141.1357,-123.7332"/>
<polygon fill="none" stroke="#191970" points="1165.4769,-185.5645 1172.8097,-193.2117 1171.8463,-182.6608 1165.4769,-185.5645"/>
</g>
<!-- Node9 -->
<g id="node10" class="node">
<title>Node9</title>
<g id="a_node10"><a xlink:href="classMamiferoExotico.html" target="_top" xlink:title="Implementação de animal com Classe e Categoria. ">
<polygon fill="#ffffff" stroke="#000000" points="1207,-11.5 1207,-123.5 1398,-123.5 1398,-11.5 1207,-11.5"/>
<text text-anchor="middle" x="1302.5" y="-103.5" font-family="Helvetica,sans-Serif" font-size="20.00" fill="#000000">MamiferoExotico</text>
<polyline fill="none" stroke="#000000" points="1207,-93.5 1398,-93.5 "/>
<text text-anchor="middle" x="1302.5" y="-73.5" font-family="Helvetica,sans-Serif" font-size="20.00" fill="#000000"> </text>
<polyline fill="none" stroke="#000000" points="1207,-63.5 1398,-63.5 "/>
<text text-anchor="start" x="1215" y="-43.5" font-family="Helvetica,sans-Serif" font-size="20.00" fill="#000000">+ MamiferoExotico()</text>
<text text-anchor="start" x="1215" y="-21.5" font-family="Helvetica,sans-Serif" font-size="20.00" fill="#000000">+ ~MamiferoExotico()</text>
</a>
</g>
</g>
<!-- Node6&#45;&gt;Node9 -->
<g id="edge9" class="edge">
<title>Node6&#45;&gt;Node9</title>
<path fill="none" stroke="#191970" d="M1248.8601,-183.91C1258.2559,-163.519 1268.0131,-142.3439 1276.5886,-123.7332"/>
<polygon fill="none" stroke="#191970" points="1245.5802,-182.6647 1244.574,-193.2117 1251.9378,-185.5942 1245.5802,-182.6647"/>
</g>
<!-- Node10 -->
<g id="node11" class="node">
<title>Node10</title>
<g id="a_node11"><a xlink:href="classReptilExotico.html" target="_top" xlink:title="Implementação de animal com Classe e Categoria. ">
<polygon fill="#ffffff" stroke="#000000" points="1416.5,-11.5 1416.5,-123.5 1578.5,-123.5 1578.5,-11.5 1416.5,-11.5"/>
<text text-anchor="middle" x="1497.5" y="-103.5" font-family="Helvetica,sans-Serif" font-size="20.00" fill="#000000">ReptilExotico</text>
<polyline fill="none" stroke="#000000" points="1416.5,-93.5 1578.5,-93.5 "/>
<text text-anchor="middle" x="1497.5" y="-73.5" font-family="Helvetica,sans-Serif" font-size="20.00" fill="#000000"> </text>
<polyline fill="none" stroke="#000000" points="1416.5,-63.5 1578.5,-63.5 "/>
<text text-anchor="start" x="1424.5" y="-43.5" font-family="Helvetica,sans-Serif" font-size="20.00" fill="#000000">+ ReptilExotico()</text>
<text text-anchor="start" x="1424.5" y="-21.5" font-family="Helvetica,sans-Serif" font-size="20.00" fill="#000000">+ ~ReptilExotico()</text>
</a>
</g>
</g>
<!-- Node6&#45;&gt;Node10 -->
<g id="edge10" class="edge">
<title>Node6&#45;&gt;Node10</title>
<path fill="none" stroke="#191970" d="M1274.2103,-227.0376C1312.9425,-200.6219 1362.7732,-166.2757 1406.5,-135 1411.6197,-131.3381 1416.8814,-127.537 1422.1695,-123.6887"/>
<polygon fill="none" stroke="#191970" points="1271.9137,-224.3672 1265.6203,-232.8903 1275.8552,-230.1521 1271.9137,-224.3672"/>
</g>
<!-- Node12 -->
<g id="node13" class="node">
<title>Node12</title>
<g id="a_node13"><a xlink:href="classAnfibioNativo.html" target="_top" xlink:title="Implementação de animal com Classe e Categoria. ">
<polygon fill="#ffffff" stroke="#000000" points="1596.5,-11.5 1596.5,-123.5 1762.5,-123.5 1762.5,-11.5 1596.5,-11.5"/>
<text text-anchor="middle" x="1679.5" y="-103.5" font-family="Helvetica,sans-Serif" font-size="20.00" fill="#000000">AnfibioNativo</text>
<polyline fill="none" stroke="#000000" points="1596.5,-93.5 1762.5,-93.5 "/>
<text text-anchor="middle" x="1679.5" y="-73.5" font-family="Helvetica,sans-Serif" font-size="20.00" fill="#000000"> </text>
<polyline fill="none" stroke="#000000" points="1596.5,-63.5 1762.5,-63.5 "/>
<text text-anchor="start" x="1604.5" y="-43.5" font-family="Helvetica,sans-Serif" font-size="20.00" fill="#000000">+ AnfibioNativo()</text>
<text text-anchor="start" x="1604.5" y="-21.5" font-family="Helvetica,sans-Serif" font-size="20.00" fill="#000000">+ ~AnfibioNativo()</text>
</a>
</g>
</g>
<!-- Node11&#45;&gt;Node12 -->
<g id="edge12" class="edge">
<title>Node11&#45;&gt;Node12</title>
<path fill="none" stroke="#191970" d="M1777.3507,-184.2342C1760.167,-163.7343 1742.3033,-142.4233 1726.6154,-123.7079"/>
<polygon fill="none" stroke="#191970" points="1774.791,-186.6288 1783.8973,-192.0441 1780.1556,-182.132 1774.791,-186.6288"/>
</g>
<!-- Node13 -->
<g id="node14" class="node">
<title>Node13</title>
<g id="a_node14"><a xlink:href="classAveNativa.html" target="_top" xlink:title="Implementação de animal com Classe e Categoria. ">
<polygon fill="#ffffff" stroke="#000000" points="1780.5,-11.5 1780.5,-123.5 1920.5,-123.5 1920.5,-11.5 1780.5,-11.5"/>
<text text-anchor="middle" x="1850.5" y="-103.5" font-family="Helvetica,sans-Serif" font-size="20.00" fill="#000000">AveNativa</text>
<polyline fill="none" stroke="#000000" points="1780.5,-93.5 1920.5,-93.5 "/>
<text text-anchor="middle" x="1850.5" y="-73.5" font-family="Helvetica,sans-Serif" font-size="20.00" fill="#000000"> </text>
<polyline fill="none" stroke="#000000" points="1780.5,-63.5 1920.5,-63.5 "/>
<text text-anchor="start" x="1788.5" y="-43.5" font-family="Helvetica,sans-Serif" font-size="20.00" fill="#000000">+ AveNativa()</text>
<text text-anchor="start" x="1788.5" y="-21.5" font-family="Helvetica,sans-Serif" font-size="20.00" fill="#000000">+ ~AveNativa()</text>
</a>
</g>
</g>
<!-- Node11&#45;&gt;Node13 -->
<g id="edge13" class="edge">
<title>Node11&#45;&gt;Node13</title>
<path fill="none" stroke="#191970" d="M1850.5,-161.2909C1850.5,-148.2387 1850.5,-135.367 1850.5,-123.538"/>
<polygon fill="none" stroke="#191970" points="1847.0001,-161.2929 1850.5,-171.2929 1854.0001,-161.2929 1847.0001,-161.2929"/>
</g>
<!-- Node14 -->
<g id="node15" class="node">
<title>Node14</title>
<g id="a_node15"><a xlink:href="classMamiferoNativo.html" target="_top" xlink:title="Implementação de animal com Classe e Categoria. ">
<polygon fill="#ffffff" stroke="#000000" points="1939,-11.5 1939,-123.5 2124,-123.5 2124,-11.5 1939,-11.5"/>
<text text-anchor="middle" x="2031.5" y="-103.5" font-family="Helvetica,sans-Serif" font-size="20.00" fill="#000000">MamiferoNativo</text>
<polyline fill="none" stroke="#000000" points="1939,-93.5 2124,-93.5 "/>
<text text-anchor="middle" x="2031.5" y="-73.5" font-family="Helvetica,sans-Serif" font-size="20.00" fill="#000000"> </text>
<polyline fill="none" stroke="#000000" points="1939,-63.5 2124,-63.5 "/>
<text text-anchor="start" x="1947" y="-43.5" font-family="Helvetica,sans-Serif" font-size="20.00" fill="#000000">+ MamiferoNativo()</text>
<text text-anchor="start" x="1947" y="-21.5" font-family="Helvetica,sans-Serif" font-size="20.00" fill="#000000">+ ~MamiferoNativo()</text>
</a>
</g>
</g>
<!-- Node11&#45;&gt;Node14 -->
<g id="edge14" class="edge">
<title>Node11&#45;&gt;Node14</title>
<path fill="none" stroke="#191970" d="M1923.9457,-188.7214C1943.3699,-166.829 1963.8817,-143.7107 1981.7248,-123.6002"/>
<polygon fill="none" stroke="#191970" points="1921.1454,-186.6039 1917.1266,-196.407 1926.3815,-191.2497 1921.1454,-186.6039"/>
</g>
<!-- Node15 -->
<g id="node16" class="node">
<title>Node15</title>
<g id="a_node16"><a xlink:href="classReptilNativo.html" target="_top" xlink:title="Implementação de animal com Classe e Categoria. ">
<polygon fill="#ffffff" stroke="#000000" points="2142,-11.5 2142,-123.5 2297,-123.5 2297,-11.5 2142,-11.5"/>
<text text-anchor="middle" x="2219.5" y="-103.5" font-family="Helvetica,sans-Serif" font-size="20.00" fill="#000000">ReptilNativo</text>
<polyline fill="none" stroke="#000000" points="2142,-93.5 2297,-93.5 "/>
<text text-anchor="middle" x="2219.5" y="-73.5" font-family="Helvetica,sans-Serif" font-size="20.00" fill="#000000"> </text>
<polyline fill="none" stroke="#000000" points="2142,-63.5 2297,-63.5 "/>
<text text-anchor="start" x="2150" y="-43.5" font-family="Helvetica,sans-Serif" font-size="20.00" fill="#000000">+ ReptilNativo()</text>
<text text-anchor="start" x="2150" y="-21.5" font-family="Helvetica,sans-Serif" font-size="20.00" fill="#000000">+ ~ReptilNativo()</text>
</a>
</g>
</g>
<!-- Node11&#45;&gt;Node15 -->
<g id="edge15" class="edge">
<title>Node11&#45;&gt;Node15</title>
<path fill="none" stroke="#191970" d="M1926.7747,-240.0821C1985.114,-214.7906 2066.6294,-176.6859 2133.5,-135 2139.1374,-131.4857 2144.8409,-127.6707 2150.4869,-123.7028"/>
<polygon fill="none" stroke="#191970" points="1925.0518,-237.0134 1917.2535,-244.1853 1927.8222,-243.4418 1925.0518,-237.0134"/>
</g>
</g>
</svg>
