<?xml version="1.0" encoding="UTF-8" standalone="no"?>
<!DOCTYPE svg PUBLIC "-//W3C//DTD SVG 1.1//EN"
 "http://www.w3.org/Graphics/SVG/1.1/DTD/svg11.dtd">
<!-- Generated by graphviz version 2.43.0 (0)
 -->
<!-- Title: MamiferoNativo Pages: 1 -->
<svg width="770pt" height="1254pt"
 viewBox="0.00 0.00 769.50 1254.00" xmlns="http://www.w3.org/2000/svg" xmlns:xlink="http://www.w3.org/1999/xlink">
<g id="graph0" class="graph" transform="scale(1 1) rotate(0) translate(4 1250)">
<title>MamiferoNativo</title>
<polygon fill="white" stroke="transparent" points="-4,4 -4,-1250 765.5,-1250 765.5,4 -4,4"/>
<!-- Node1 -->
<g id="node1" class="node">
<title>Node1</title>
<g id="a_node1"><a xlink:title="Implementação de animal com Classe e Categoria.">
<polygon fill="#bfbfbf" stroke="black" points="295,-0.5 295,-134.5 522,-134.5 522,-0.5 295,-0.5"/>
<text text-anchor="middle" x="408.5" y="-114.5" font-family="Helvetica,sans-Serif" font-size="20.00">MamiferoNativo</text>
<polyline fill="none" stroke="black" points="295,-104.5 522,-104.5 "/>
<text text-anchor="middle" x="408.5" y="-84.5" font-family="Helvetica,sans-Serif" font-size="20.00"> </text>
<polyline fill="none" stroke="black" points="295,-74.5 522,-74.5 "/>
<text text-anchor="start" x="303" y="-54.5" font-family="Helvetica,sans-Serif" font-size="20.00">+ MamiferoNativo()</text>
<text text-anchor="start" x="303" y="-32.5" font-family="Helvetica,sans-Serif" font-size="20.00">+ MamiferoNativo()</text>
<text text-anchor="start" x="303" y="-10.5" font-family="Helvetica,sans-Serif" font-size="20.00">+ ~MamiferoNativo()</text>
</a>
</g>
</g>
<!-- Node2 -->
<g id="node2" class="node">
<title>Node2</title>
<g id="a_node2"><a xlink:href="classMamifero.html" target="_top" xlink:title="Classificação base para Mamiferos.">
<polygon fill="white" stroke="black" points="236,-172.5 236,-372.5 415,-372.5 415,-172.5 236,-172.5"/>
<text text-anchor="middle" x="325.5" y="-352.5" font-family="Helvetica,sans-Serif" font-size="20.00">Mamifero</text>
<polyline fill="none" stroke="black" points="236,-342.5 415,-342.5 "/>
<text text-anchor="middle" x="325.5" y="-322.5" font-family="Helvetica,sans-Serif" font-size="20.00"> </text>
<polyline fill="none" stroke="black" points="236,-312.5 415,-312.5 "/>
<text text-anchor="start" x="244" y="-292.5" font-family="Helvetica,sans-Serif" font-size="20.00">+ Mamifero()</text>
<text text-anchor="start" x="244" y="-270.5" font-family="Helvetica,sans-Serif" font-size="20.00">+ Mamifero()</text>
<text text-anchor="start" x="244" y="-248.5" font-family="Helvetica,sans-Serif" font-size="20.00">+ ~Mamifero()</text>
<text text-anchor="start" x="244" y="-226.5" font-family="Helvetica,sans-Serif" font-size="20.00">+ getGestacao()</text>
<text text-anchor="start" x="244" y="-204.5" font-family="Helvetica,sans-Serif" font-size="20.00">+ setGestacao()</text>
<text text-anchor="start" x="244" y="-182.5" font-family="Helvetica,sans-Serif" font-size="20.00">+ setGestacao()</text>
</a>
</g>
</g>
<!-- Node2&#45;&gt;Node1 -->
<g id="edge1" class="edge">
<title>Node2&#45;&gt;Node1</title>
<path fill="none" stroke="midnightblue" d="M369.82,-163.09C373.78,-153.43 377.7,-143.84 381.44,-134.69"/>
<polygon fill="none" stroke="midnightblue" points="366.57,-161.8 366.03,-172.38 373.05,-164.45 366.57,-161.8"/>
</g>
<!-- Node3 -->
<g id="node3" class="node">
<title>Node3</title>
<g id="a_node3"><a xlink:href="classAnimal.html" target="_top" xlink:title="Implementação base para o cadastro de animais.">
<polygon fill="white" stroke="black" points="214,-676.5 214,-1052.5 437,-1052.5 437,-676.5 214,-676.5"/>
<text text-anchor="middle" x="325.5" y="-1032.5" font-family="Helvetica,sans-Serif" font-size="20.00">Animal</text>
<polyline fill="none" stroke="black" points="214,-1022.5 437,-1022.5 "/>
<text text-anchor="middle" x="325.5" y="-1002.5" font-family="Helvetica,sans-Serif" font-size="20.00"> </text>
<polyline fill="none" stroke="black" points="214,-992.5 437,-992.5 "/>
<text text-anchor="start" x="222" y="-972.5" font-family="Helvetica,sans-Serif" font-size="20.00">+ Animal()</text>
<text text-anchor="start" x="222" y="-950.5" font-family="Helvetica,sans-Serif" font-size="20.00">+ Animal()</text>
<text text-anchor="start" x="222" y="-928.5" font-family="Helvetica,sans-Serif" font-size="20.00">+ ~Animal()</text>
<text text-anchor="start" x="222" y="-906.5" font-family="Helvetica,sans-Serif" font-size="20.00">+ getNome()</text>
<text text-anchor="start" x="222" y="-884.5" font-family="Helvetica,sans-Serif" font-size="20.00">+ getEspecie()</text>
<text text-anchor="start" x="222" y="-862.5" font-family="Helvetica,sans-Serif" font-size="20.00">+ getAmeacadoPor()</text>
<text text-anchor="start" x="222" y="-840.5" font-family="Helvetica,sans-Serif" font-size="20.00">+ getVeterinario()</text>
<text text-anchor="start" x="222" y="-818.5" font-family="Helvetica,sans-Serif" font-size="20.00">+ getTratador()</text>
<text text-anchor="start" x="222" y="-796.5" font-family="Helvetica,sans-Serif" font-size="20.00">+ getPerigoso()</text>
<text text-anchor="start" x="222" y="-774.5" font-family="Helvetica,sans-Serif" font-size="20.00">+ setNome()</text>
<text text-anchor="start" x="222" y="-752.5" font-family="Helvetica,sans-Serif" font-size="20.00">e 13 mais...</text>
<text text-anchor="start" x="222" y="-730.5" font-family="Helvetica,sans-Serif" font-size="20.00">+ getClassificacao()</text>
<text text-anchor="start" x="222" y="-708.5" font-family="Helvetica,sans-Serif" font-size="20.00">+ getClasse()</text>
<text text-anchor="start" x="222" y="-686.5" font-family="Helvetica,sans-Serif" font-size="20.00">+ printOutDetails()</text>
</a>
</g>
</g>
<!-- Node3&#45;&gt;Node2 -->
<g id="edge2" class="edge">
<title>Node3&#45;&gt;Node2</title>
<path fill="none" stroke="midnightblue" d="M325.5,-666.32C325.5,-567.73 325.5,-452.7 325.5,-372.7"/>
<polygon fill="none" stroke="midnightblue" points="322,-666.42 325.5,-676.42 329,-666.42 322,-666.42"/>
</g>
<!-- Node4 -->
<g id="node4" class="node">
<title>Node4</title>
<g id="a_node4"><a xlink:title=" ">
<polygon fill="white" stroke="#bfbfbf" points="77,-1155.5 77,-1245.5 352,-1245.5 352,-1155.5 77,-1155.5"/>
<text text-anchor="middle" x="214.5" y="-1225.5" font-family="Helvetica,sans-Serif" font-size="20.00">shared_ptr&lt; Veterinario &gt;</text>
<polyline fill="none" stroke="#bfbfbf" points="77,-1215.5 352,-1215.5 "/>
<text text-anchor="middle" x="214.5" y="-1195.5" font-family="Helvetica,sans-Serif" font-size="20.00"> </text>
<polyline fill="none" stroke="#bfbfbf" points="77,-1185.5 352,-1185.5 "/>
<text text-anchor="middle" x="214.5" y="-1165.5" font-family="Helvetica,sans-Serif" font-size="20.00"> </text>
</a>
</g>
</g>
<!-- Node4&#45;&gt;Node3 -->
<g id="edge3" class="edge">
<title>Node4&#45;&gt;Node3</title>
<path fill="none" stroke="#404040" d="M212.45,-1155.38C212.39,-1130.25 214.17,-1098.41 221.5,-1071 222.09,-1068.81 222.7,-1066.62 223.33,-1064.43"/>
<polygon fill="none" stroke="#404040" points="223.41,-1064.16 221.35,-1057.25 226.93,-1052.69 229,-1059.6 223.41,-1064.16"/>
<text text-anchor="middle" x="286.5" y="-1099" font-family="Helvetica,sans-Serif" font-size="20.00"> #veterinario</text>
</g>
<!-- Node5 -->
<g id="node5" class="node">
<title>Node5</title>
<g id="a_node5"><a xlink:title=" ">
<polygon fill="white" stroke="#bfbfbf" points="0,-1155.5 0,-1245.5 59,-1245.5 59,-1155.5 0,-1155.5"/>
<text text-anchor="middle" x="29.5" y="-1225.5" font-family="Helvetica,sans-Serif" font-size="20.00">bool</text>
<polyline fill="none" stroke="#bfbfbf" points="0,-1215.5 59,-1215.5 "/>
<text text-anchor="middle" x="29.5" y="-1195.5" font-family="Helvetica,sans-Serif" font-size="20.00"> </text>
<polyline fill="none" stroke="#bfbfbf" points="0,-1185.5 59,-1185.5 "/>
<text text-anchor="middle" x="29.5" y="-1165.5" font-family="Helvetica,sans-Serif" font-size="20.00"> </text>
</a>
</g>
</g>
<!-- Node5&#45;&gt;Node2 -->
<g id="edge7" class="edge">
<title>Node5&#45;&gt;Node2</title>
<path fill="none" stroke="#404040" d="M28.9,-1155.46C28.9,-1063.74 35.53,-846.62 92.5,-676 127.92,-569.91 193.24,-460.77 245.72,-382.95"/>
<polygon fill="none" stroke="#404040" points="245.97,-382.59 246.03,-375.38 252.71,-372.67 252.65,-379.88 245.97,-382.59"/>
<text text-anchor="middle" x="149" y="-859.5" font-family="Helvetica,sans-Serif" font-size="20.00"> #gestacao</text>
</g>
<!-- Node5&#45;&gt;Node3 -->
<g id="edge4" class="edge">
<title>Node5&#45;&gt;Node3</title>
<path fill="none" stroke="#404040" d="M44.49,-1155.42C55.93,-1127.76 74.24,-1093.24 100.5,-1071 118.84,-1055.47 131.41,-1066.19 151.5,-1053 170.15,-1040.75 188.18,-1026.09 205.12,-1010.44"/>
<polygon fill="none" stroke="#404040" points="205.15,-1010.4 206.77,-1003.38 213.88,-1002.16 212.26,-1009.19 205.15,-1010.4"/>
<text text-anchor="middle" x="155" y="-1099" font-family="Helvetica,sans-Serif" font-size="20.00"> #perigoso</text>
</g>
<!-- Node6 -->
<g id="node6" class="node">
<title>Node6</title>
<g id="a_node6"><a xlink:title=" ">
<polygon fill="white" stroke="#bfbfbf" points="637.5,-1155.5 637.5,-1245.5 711.5,-1245.5 711.5,-1155.5 637.5,-1155.5"/>
<text text-anchor="middle" x="674.5" y="-1225.5" font-family="Helvetica,sans-Serif" font-size="20.00">string</text>
<polyline fill="none" stroke="#bfbfbf" points="637.5,-1215.5 711.5,-1215.5 "/>
<text text-anchor="middle" x="674.5" y="-1195.5" font-family="Helvetica,sans-Serif" font-size="20.00"> </text>
<polyline fill="none" stroke="#bfbfbf" points="637.5,-1185.5 711.5,-1185.5 "/>
<text text-anchor="middle" x="674.5" y="-1165.5" font-family="Helvetica,sans-Serif" font-size="20.00"> </text>
</a>
</g>
</g>
<!-- Node6&#45;&gt;Node3 -->
<g id="edge5" class="edge">
<title>Node6&#45;&gt;Node3</title>
<path fill="none" stroke="#404040" d="M637.25,-1160.11C634.42,-1158.19 631.5,-1156.46 628.5,-1155 576.88,-1129.79 544.9,-1173.46 500.5,-1137 476.49,-1117.28 492.01,-1098.47 477.5,-1071 467.57,-1052.21 456.04,-1033.26 443.85,-1014.87"/>
<polygon fill="none" stroke="#404040" points="443.72,-1014.67 437.05,-1011.93 437.02,-1004.72 443.69,-1007.46 443.72,-1014.67"/>
<text text-anchor="middle" x="576.5" y="-1121" font-family="Helvetica,sans-Serif" font-size="20.00"> #especie</text>
<text text-anchor="middle" x="576.5" y="-1099" font-family="Helvetica,sans-Serif" font-size="20.00">#ameacadoPor</text>
<text text-anchor="middle" x="576.5" y="-1077" font-family="Helvetica,sans-Serif" font-size="20.00">#nome</text>
</g>
<!-- Node8 -->
<g id="node8" class="node">
<title>Node8</title>
<g id="a_node8"><a xlink:href="classNativo.html" target="_top" xlink:title="Umas das definições de categoria para Animal.">
<polygon fill="white" stroke="black" points="543.5,-391.5 543.5,-657.5 705.5,-657.5 705.5,-391.5 543.5,-391.5"/>
<text text-anchor="middle" x="624.5" y="-637.5" font-family="Helvetica,sans-Serif" font-size="20.00">Nativo</text>
<polyline fill="none" stroke="black" points="543.5,-627.5 705.5,-627.5 "/>
<text text-anchor="middle" x="624.5" y="-607.5" font-family="Helvetica,sans-Serif" font-size="20.00"> </text>
<polyline fill="none" stroke="black" points="543.5,-597.5 705.5,-597.5 "/>
<text text-anchor="start" x="551.5" y="-577.5" font-family="Helvetica,sans-Serif" font-size="20.00">+ Nativo()</text>
<text text-anchor="start" x="551.5" y="-555.5" font-family="Helvetica,sans-Serif" font-size="20.00">+ Nativo()</text>
<text text-anchor="start" x="551.5" y="-533.5" font-family="Helvetica,sans-Serif" font-size="20.00">+ ~Nativo()</text>
<text text-anchor="start" x="551.5" y="-511.5" font-family="Helvetica,sans-Serif" font-size="20.00">+ getRegiao()</text>
<text text-anchor="start" x="551.5" y="-489.5" font-family="Helvetica,sans-Serif" font-size="20.00">+ setRegiao()</text>
<text text-anchor="start" x="551.5" y="-467.5" font-family="Helvetica,sans-Serif" font-size="20.00">+ setRegiao()</text>
<text text-anchor="start" x="551.5" y="-445.5" font-family="Helvetica,sans-Serif" font-size="20.00">+ getLicenca()</text>
<text text-anchor="start" x="551.5" y="-423.5" font-family="Helvetica,sans-Serif" font-size="20.00">+ setLicenca()</text>
<text text-anchor="start" x="551.5" y="-401.5" font-family="Helvetica,sans-Serif" font-size="20.00">+ setLicenca()</text>
</a>
</g>
</g>
<!-- Node6&#45;&gt;Node8 -->
<g id="edge9" class="edge">
<title>Node6&#45;&gt;Node8</title>
<path fill="none" stroke="#404040" d="M671.22,-1155.28C664.03,-1058.4 646.63,-823.82 635.21,-669.92"/>
<polygon fill="none" stroke="#404040" points="635.19,-669.56 630.75,-663.87 634.3,-657.59 638.73,-663.28 635.19,-669.56"/>
<text text-anchor="middle" x="715" y="-1110" font-family="Helvetica,sans-Serif" font-size="20.00"> #licenca</text>
<text text-anchor="middle" x="715" y="-1088" font-family="Helvetica,sans-Serif" font-size="20.00">#regiao</text>
</g>
<!-- Node7 -->
<g id="node7" class="node">
<title>Node7</title>
<g id="a_node7"><a xlink:title=" ">
<polygon fill="white" stroke="#bfbfbf" points="370,-1155.5 370,-1245.5 619,-1245.5 619,-1155.5 370,-1155.5"/>
<text text-anchor="middle" x="494.5" y="-1225.5" font-family="Helvetica,sans-Serif" font-size="20.00">shared_ptr&lt; Tratador &gt;</text>
<polyline fill="none" stroke="#bfbfbf" points="370,-1215.5 619,-1215.5 "/>
<text text-anchor="middle" x="494.5" y="-1195.5" font-family="Helvetica,sans-Serif" font-size="20.00"> </text>
<polyline fill="none" stroke="#bfbfbf" points="370,-1185.5 619,-1185.5 "/>
<text text-anchor="middle" x="494.5" y="-1165.5" font-family="Helvetica,sans-Serif" font-size="20.00"> </text>
</a>
</g>
</g>
<!-- Node7&#45;&gt;Node3 -->
<g id="edge6" class="edge">
<title>Node7&#45;&gt;Node3</title>
<path fill="none" stroke="#404040" d="M392.06,-1155.45C385.49,-1149.94 379.51,-1143.81 374.5,-1137 368.9,-1129.39 362.09,-1100.64 355.35,-1064.53"/>
<polygon fill="none" stroke="#404040" points="355.32,-1064.37 350.31,-1059.18 353.17,-1052.56 358.18,-1057.75 355.32,-1064.37"/>
<text text-anchor="middle" x="426" y="-1099" font-family="Helvetica,sans-Serif" font-size="20.00"> #tratador</text>
</g>
<!-- Node8&#45;&gt;Node1 -->
<g id="edge8" class="edge">
<title>Node8&#45;&gt;Node1</title>
<path fill="none" stroke="midnightblue" d="M557.36,-382.07C518.15,-299.49 470.52,-199.15 439.87,-134.58"/>
<polygon fill="none" stroke="midnightblue" points="554.28,-383.75 561.73,-391.28 560.61,-380.75 554.28,-383.75"/>
</g>
</g>
</svg>
