<?xml version="1.0" encoding="UTF-8" standalone="no"?>
<!DOCTYPE svg PUBLIC "-//W3C//DTD SVG 1.1//EN"
 "http://www.w3.org/Graphics/SVG/1.1/DTD/svg11.dtd">
<!-- Generated by graphviz version 2.43.0 (0)
 -->
<!-- Title: Domestico Pages: 1 -->
<svg width="1022pt" height="336pt"
 viewBox="0.00 0.00 1021.50 336.00" xmlns="http://www.w3.org/2000/svg" xmlns:xlink="http://www.w3.org/1999/xlink">
<g id="graph0" class="graph" transform="scale(1 1) rotate(0) translate(4 332)">
<title>Domestico</title>
<polygon fill="white" stroke="transparent" points="-4,4 -4,-332 1017.5,-332 1017.5,4 -4,4"/>
<!-- Node1 -->
<g id="node1" class="node">
<title>Node1</title>
<g id="a_node1"><a xlink:title="Umas das definições de categoria para Animal.">
<polygon fill="#bfbfbf" stroke="black" points="404.5,-171.5 404.5,-327.5 592.5,-327.5 592.5,-171.5 404.5,-171.5"/>
<text text-anchor="middle" x="498.5" y="-307.5" font-family="Helvetica,sans-Serif" font-size="20.00">Domestico</text>
<polyline fill="none" stroke="black" points="404.5,-297.5 592.5,-297.5 "/>
<text text-anchor="start" x="412.5" y="-277.5" font-family="Helvetica,sans-Serif" font-size="20.00"># adestrado</text>
<polyline fill="none" stroke="black" points="404.5,-267.5 592.5,-267.5 "/>
<text text-anchor="start" x="412.5" y="-247.5" font-family="Helvetica,sans-Serif" font-size="20.00">+ Domestico()</text>
<text text-anchor="start" x="412.5" y="-225.5" font-family="Helvetica,sans-Serif" font-size="20.00">+ Domestico()</text>
<text text-anchor="start" x="412.5" y="-203.5" font-family="Helvetica,sans-Serif" font-size="20.00">+ ~Domestico()</text>
<text text-anchor="start" x="412.5" y="-181.5" font-family="Helvetica,sans-Serif" font-size="20.00">+ getAdestrado()</text>
</a>
</g>
</g>
<!-- Node2 -->
<g id="node2" class="node">
<title>Node2</title>
<g id="a_node2"><a xlink:href="classAnfibioDomestico.html" target="_top" xlink:title="Implementação de animal com Classe e Categoria.">
<polygon fill="white" stroke="black" points="0,-11.5 0,-123.5 245,-123.5 245,-11.5 0,-11.5"/>
<text text-anchor="middle" x="122.5" y="-103.5" font-family="Helvetica,sans-Serif" font-size="20.00">AnfibioDomestico</text>
<polyline fill="none" stroke="black" points="0,-93.5 245,-93.5 "/>
<text text-anchor="middle" x="122.5" y="-73.5" font-family="Helvetica,sans-Serif" font-size="20.00"> </text>
<polyline fill="none" stroke="black" points="0,-63.5 245,-63.5 "/>
<text text-anchor="start" x="8" y="-43.5" font-family="Helvetica,sans-Serif" font-size="20.00">+ AnfibioDomestico()</text>
<text text-anchor="start" x="8" y="-21.5" font-family="Helvetica,sans-Serif" font-size="20.00">+ ~AnfibioDomestico()</text>
</a>
</g>
</g>
<!-- Node1&#45;&gt;Node2 -->
<g id="edge1" class="edge">
<title>Node1&#45;&gt;Node2</title>
<path fill="none" stroke="midnightblue" d="M395.23,-201.66C351.37,-181.5 299.76,-157.45 253.5,-135 245.93,-131.33 238.13,-127.49 230.29,-123.61"/>
<polygon fill="none" stroke="midnightblue" points="393.93,-204.91 404.47,-205.9 396.85,-198.55 393.93,-204.91"/>
</g>
<!-- Node3 -->
<g id="node3" class="node">
<title>Node3</title>
<g id="a_node3"><a xlink:href="classAveDomestica.html" target="_top" xlink:title="Implementação de animal com Classe e Categoria.">
<polygon fill="white" stroke="black" points="263,-0.5 263,-134.5 476,-134.5 476,-0.5 263,-0.5"/>
<text text-anchor="middle" x="369.5" y="-114.5" font-family="Helvetica,sans-Serif" font-size="20.00">AveDomestica</text>
<polyline fill="none" stroke="black" points="263,-104.5 476,-104.5 "/>
<text text-anchor="middle" x="369.5" y="-84.5" font-family="Helvetica,sans-Serif" font-size="20.00"> </text>
<polyline fill="none" stroke="black" points="263,-74.5 476,-74.5 "/>
<text text-anchor="start" x="271" y="-54.5" font-family="Helvetica,sans-Serif" font-size="20.00">+ AveDomestica()</text>
<text text-anchor="start" x="271" y="-32.5" font-family="Helvetica,sans-Serif" font-size="20.00">+ AveDomestica()</text>
<text text-anchor="start" x="271" y="-10.5" font-family="Helvetica,sans-Serif" font-size="20.00">+ ~AveDomestica()</text>
</a>
</g>
</g>
<!-- Node1&#45;&gt;Node3 -->
<g id="edge2" class="edge">
<title>Node1&#45;&gt;Node3</title>
<path fill="none" stroke="midnightblue" d="M437.25,-163.04C430.43,-153.52 423.56,-143.93 416.94,-134.69"/>
<polygon fill="none" stroke="midnightblue" points="434.56,-165.29 443.23,-171.38 440.25,-161.21 434.56,-165.29"/>
</g>
<!-- Node4 -->
<g id="node4" class="node">
<title>Node4</title>
<g id="a_node4"><a xlink:href="classMamiferoDomestico.html" target="_top" xlink:title="Implementação de animal com Classe e Categoria.">
<polygon fill="white" stroke="black" points="494,-11.5 494,-123.5 763,-123.5 763,-11.5 494,-11.5"/>
<text text-anchor="middle" x="628.5" y="-103.5" font-family="Helvetica,sans-Serif" font-size="20.00">MamiferoDomestico</text>
<polyline fill="none" stroke="black" points="494,-93.5 763,-93.5 "/>
<text text-anchor="middle" x="628.5" y="-73.5" font-family="Helvetica,sans-Serif" font-size="20.00"> </text>
<polyline fill="none" stroke="black" points="494,-63.5 763,-63.5 "/>
<text text-anchor="start" x="502" y="-43.5" font-family="Helvetica,sans-Serif" font-size="20.00">+ MamiferoDomestico()</text>
<text text-anchor="start" x="502" y="-21.5" font-family="Helvetica,sans-Serif" font-size="20.00">+ ~MamiferoDomestico()</text>
</a>
</g>
</g>
<!-- Node1&#45;&gt;Node4 -->
<g id="edge3" class="edge">
<title>Node1&#45;&gt;Node4</title>
<path fill="none" stroke="midnightblue" d="M560.2,-163.08C569.86,-149.69 579.62,-136.18 588.63,-123.71"/>
<polygon fill="none" stroke="midnightblue" points="557.21,-161.22 554.2,-171.38 562.89,-165.32 557.21,-161.22"/>
</g>
<!-- Node5 -->
<g id="node5" class="node">
<title>Node5</title>
<g id="a_node5"><a xlink:href="classReptilDomestico.html" target="_top" xlink:title="Implementação de animal com Classe e Categoria.">
<polygon fill="white" stroke="black" points="781.5,-11.5 781.5,-123.5 1013.5,-123.5 1013.5,-11.5 781.5,-11.5"/>
<text text-anchor="middle" x="897.5" y="-103.5" font-family="Helvetica,sans-Serif" font-size="20.00">ReptilDomestico</text>
<polyline fill="none" stroke="black" points="781.5,-93.5 1013.5,-93.5 "/>
<text text-anchor="middle" x="897.5" y="-73.5" font-family="Helvetica,sans-Serif" font-size="20.00"> </text>
<polyline fill="none" stroke="black" points="781.5,-63.5 1013.5,-63.5 "/>
<text text-anchor="start" x="789.5" y="-43.5" font-family="Helvetica,sans-Serif" font-size="20.00">+ ReptilDomestico()</text>
<text text-anchor="start" x="789.5" y="-21.5" font-family="Helvetica,sans-Serif" font-size="20.00">+ ~ReptilDomestico()</text>
</a>
</g>
</g>
<!-- Node1&#45;&gt;Node5 -->
<g id="edge4" class="edge">
<title>Node1&#45;&gt;Node5</title>
<path fill="none" stroke="midnightblue" d="M602.2,-208.28C653.89,-187.55 717.04,-161.16 772.5,-135 780.17,-131.38 788.04,-127.53 795.92,-123.58"/>
<polygon fill="none" stroke="midnightblue" points="600.67,-205.12 592.69,-212.09 603.27,-211.62 600.67,-205.12"/>
</g>
</g>
</svg>
