<?xml version="1.0" encoding="UTF-8" standalone="no"?>
<!DOCTYPE svg PUBLIC "-//W3C//DTD SVG 1.1//EN"
 "http://www.w3.org/Graphics/SVG/1.1/DTD/svg11.dtd">
<!-- Generated by graphviz version 2.40.1 (20161225.0304)
 -->
<!-- Title: AnfibioExotico Pages: 1 -->
<svg width="737pt" height="1618pt"
 viewBox="0.00 0.00 737.00 1618.00" xmlns="http://www.w3.org/2000/svg" xmlns:xlink="http://www.w3.org/1999/xlink">
<g id="graph0" class="graph" transform="scale(1 1) rotate(0) translate(4 1614)">
<title>AnfibioExotico</title>
<polygon fill="#ffffff" stroke="transparent" points="-4,4 -4,-1614 733,-1614 733,4 -4,4"/>
<!-- Node4 -->
<g id="node1" class="node">
<title>Node4</title>
<polygon fill="#bfbfbf" stroke="#000000" points="67.5,-.5 67.5,-112.5 240.5,-112.5 240.5,-.5 67.5,-.5"/>
<text text-anchor="middle" x="154" y="-92.5" font-family="Helvetica,sans-Serif" font-size="20.00" fill="#000000">AnfibioExotico</text>
<polyline fill="none" stroke="#000000" points="67.5,-82.5 240.5,-82.5 "/>
<text text-anchor="middle" x="154" y="-62.5" font-family="Helvetica,sans-Serif" font-size="20.00" fill="#000000"> </text>
<polyline fill="none" stroke="#000000" points="67.5,-52.5 240.5,-52.5 "/>
<text text-anchor="start" x="75.5" y="-32.5" font-family="Helvetica,sans-Serif" font-size="20.00" fill="#000000">+ AnfibioExotico()</text>
<text text-anchor="start" x="75.5" y="-10.5" font-family="Helvetica,sans-Serif" font-size="20.00" fill="#000000">+ ~AnfibioExotico()</text>
</g>
<!-- Node5 -->
<g id="node2" class="node">
<title>Node5</title>
<g id="a_node2"><a xlink:href="classAnfibio.html" target="_top" xlink:title="Classificação base para Anfibios. ">
<polygon fill="#ffffff" stroke="#000000" points="0,-325.5 0,-481.5 124,-481.5 124,-325.5 0,-325.5"/>
<text text-anchor="middle" x="62" y="-461.5" font-family="Helvetica,sans-Serif" font-size="20.00" fill="#000000">Anfibio</text>
<polyline fill="none" stroke="#000000" points="0,-451.5 124,-451.5 "/>
<text text-anchor="middle" x="62" y="-431.5" font-family="Helvetica,sans-Serif" font-size="20.00" fill="#000000"> </text>
<polyline fill="none" stroke="#000000" points="0,-421.5 124,-421.5 "/>
<text text-anchor="start" x="8" y="-401.5" font-family="Helvetica,sans-Serif" font-size="20.00" fill="#000000">+ Anfibio()</text>
<text text-anchor="start" x="8" y="-379.5" font-family="Helvetica,sans-Serif" font-size="20.00" fill="#000000">+ ~Anfibio()</text>
<text text-anchor="start" x="8" y="-357.5" font-family="Helvetica,sans-Serif" font-size="20.00" fill="#000000">+ getCauda()</text>
<text text-anchor="start" x="8" y="-335.5" font-family="Helvetica,sans-Serif" font-size="20.00" fill="#000000">+ getPata()</text>
</a>
</g>
</g>
<!-- Node5&#45;&gt;Node4 -->
<g id="edge1" class="edge">
<title>Node5&#45;&gt;Node4</title>
<path fill="none" stroke="#191970" d="M85.4236,-315.1524C102.3129,-251.4504 124.6013,-167.3841 139.1135,-112.6481"/>
<polygon fill="none" stroke="#191970" points="81.941,-314.6307 82.7613,-325.1938 88.7072,-316.4247 81.941,-314.6307"/>
</g>
<!-- Node6 -->
<g id="node3" class="node">
<title>Node6</title>
<polygon fill="#ffffff" stroke="#bfbfbf" points="28.5,-957.5 28.5,-1047.5 79.5,-1047.5 79.5,-957.5 28.5,-957.5"/>
<text text-anchor="middle" x="54" y="-1027.5" font-family="Helvetica,sans-Serif" font-size="20.00" fill="#000000">bool</text>
<polyline fill="none" stroke="#bfbfbf" points="28.5,-1017.5 79.5,-1017.5 "/>
<text text-anchor="middle" x="54" y="-997.5" font-family="Helvetica,sans-Serif" font-size="20.00" fill="#000000"> </text>
<polyline fill="none" stroke="#bfbfbf" points="28.5,-987.5 79.5,-987.5 "/>
<text text-anchor="middle" x="54" y="-967.5" font-family="Helvetica,sans-Serif" font-size="20.00" fill="#000000"> </text>
</g>
<!-- Node6&#45;&gt;Node5 -->
<g id="edge2" class="edge">
<title>Node6&#45;&gt;Node5</title>
<path fill="none" stroke="#404040" d="M33.1712,-957.4779C25.5248,-938.6061 17.8103,-916.1662 14,-895 -10.9964,-756.1446 15.9774,-592.7128 38.4358,-493.6772"/>
<polygon fill="none" stroke="#404040" points="38.4495,-493.6174 35.9015,-486.8715 41.1484,-481.9249 43.6965,-488.6708 38.4495,-493.6174"/>
<text text-anchor="middle" x="44.5" y="-879" font-family="Helvetica,sans-Serif" font-size="20.00" fill="#000000"> #pata</text>
<text text-anchor="middle" x="44.5" y="-857" font-family="Helvetica,sans-Serif" font-size="20.00" fill="#000000">#cauda</text>
</g>
<!-- Node8 -->
<g id="node5" class="node">
<title>Node8</title>
<g id="a_node5"><a xlink:href="classAnimal.html" target="_top" xlink:title="Implementação base para o cadastro de animais. ">
<polygon fill="#ffffff" stroke="#000000" points="163,-500.5 163,-832.5 341,-832.5 341,-500.5 163,-500.5"/>
<text text-anchor="middle" x="252" y="-812.5" font-family="Helvetica,sans-Serif" font-size="20.00" fill="#000000">Animal</text>
<polyline fill="none" stroke="#000000" points="163,-802.5 341,-802.5 "/>
<text text-anchor="middle" x="252" y="-782.5" font-family="Helvetica,sans-Serif" font-size="20.00" fill="#000000"> </text>
<polyline fill="none" stroke="#000000" points="163,-772.5 341,-772.5 "/>
<text text-anchor="start" x="171" y="-752.5" font-family="Helvetica,sans-Serif" font-size="20.00" fill="#000000">+ Animal()</text>
<text text-anchor="start" x="171" y="-730.5" font-family="Helvetica,sans-Serif" font-size="20.00" fill="#000000">+ Animal()</text>
<text text-anchor="start" x="171" y="-708.5" font-family="Helvetica,sans-Serif" font-size="20.00" fill="#000000">+ ~Animal()</text>
<text text-anchor="start" x="171" y="-686.5" font-family="Helvetica,sans-Serif" font-size="20.00" fill="#000000">+ getNome()</text>
<text text-anchor="start" x="171" y="-664.5" font-family="Helvetica,sans-Serif" font-size="20.00" fill="#000000">+ getEspecie()</text>
<text text-anchor="start" x="171" y="-642.5" font-family="Helvetica,sans-Serif" font-size="20.00" fill="#000000">+ getVeterinario()</text>
<text text-anchor="start" x="171" y="-620.5" font-family="Helvetica,sans-Serif" font-size="20.00" fill="#000000">+ getTratador()</text>
<text text-anchor="start" x="171" y="-598.5" font-family="Helvetica,sans-Serif" font-size="20.00" fill="#000000">+ getPerigoso()</text>
<text text-anchor="start" x="171" y="-576.5" font-family="Helvetica,sans-Serif" font-size="20.00" fill="#000000">+ getClassificacao()</text>
<text text-anchor="start" x="171" y="-554.5" font-family="Helvetica,sans-Serif" font-size="20.00" fill="#000000">+ getClasse()</text>
<text text-anchor="start" x="171" y="-532.5" font-family="Helvetica,sans-Serif" font-size="20.00" fill="#000000">+ printOutDados()</text>
<text text-anchor="start" x="171" y="-510.5" font-family="Helvetica,sans-Serif" font-size="20.00" fill="#000000">+ operator==()</text>
</a>
</g>
</g>
<!-- Node6&#45;&gt;Node8 -->
<g id="edge9" class="edge">
<title>Node6&#45;&gt;Node8</title>
<path fill="none" stroke="#404040" d="M61.6472,-957.1925C68.127,-926.053 79.2576,-884.4535 97,-851 112.6243,-821.5401 133.5463,-792.5385 154.952,-766.566"/>
<polygon fill="none" stroke="#404040" points="155.144,-766.3368 155.9317,-759.1688 162.8513,-757.139 162.0636,-764.307 155.144,-766.3368"/>
<text text-anchor="middle" x="140" y="-868" font-family="Helvetica,sans-Serif" font-size="20.00" fill="#000000"> #perigoso</text>
</g>
<!-- Node7 -->
<g id="node4" class="node">
<title>Node7</title>
<g id="a_node4"><a xlink:href="classExotico.html" target="_top" xlink:title="Umas das definições de categoria para Animal. ">
<polygon fill="#ffffff" stroke="#000000" points="195,-150.5 195,-306.5 309,-306.5 309,-150.5 195,-150.5"/>
<text text-anchor="middle" x="252" y="-286.5" font-family="Helvetica,sans-Serif" font-size="20.00" fill="#000000">Exotico</text>
<polyline fill="none" stroke="#000000" points="195,-276.5 309,-276.5 "/>
<text text-anchor="middle" x="252" y="-256.5" font-family="Helvetica,sans-Serif" font-size="20.00" fill="#000000"> </text>
<polyline fill="none" stroke="#000000" points="195,-246.5 309,-246.5 "/>
<text text-anchor="start" x="203" y="-226.5" font-family="Helvetica,sans-Serif" font-size="20.00" fill="#000000">+ Exotico()</text>
<text text-anchor="start" x="203" y="-204.5" font-family="Helvetica,sans-Serif" font-size="20.00" fill="#000000">+ Exotico()</text>
<text text-anchor="start" x="203" y="-182.5" font-family="Helvetica,sans-Serif" font-size="20.00" fill="#000000">+ ~Exotico()</text>
<text text-anchor="start" x="203" y="-160.5" font-family="Helvetica,sans-Serif" font-size="20.00" fill="#000000">+ getLocal()</text>
</a>
</g>
</g>
<!-- Node7&#45;&gt;Node4 -->
<g id="edge3" class="edge">
<title>Node7&#45;&gt;Node4</title>
<path fill="none" stroke="#191970" d="M202.3476,-141.3549C196.7918,-131.604 191.2472,-121.8727 185.9996,-112.6626"/>
<polygon fill="none" stroke="#191970" points="199.4532,-143.345 207.4448,-150.301 205.5352,-139.8797 199.4532,-143.345"/>
</g>
<!-- Node8&#45;&gt;Node7 -->
<g id="edge4" class="edge">
<title>Node8&#45;&gt;Node7</title>
<path fill="none" stroke="#191970" d="M252,-490.0977C252,-426.3242 252,-357.5378 252,-306.5127"/>
<polygon fill="none" stroke="#191970" points="248.5001,-490.2864 252,-500.2864 255.5001,-490.2865 248.5001,-490.2864"/>
</g>
<!-- Node9 -->
<g id="node6" class="node">
<title>Node9</title>
<g id="a_node6"><a xlink:href="classTratador.html" target="_top" xlink:title="Implementação dos tratadores. ">
<polygon fill="#ffffff" stroke="#000000" points="407,-913.5 407,-1091.5 571,-1091.5 571,-913.5 407,-913.5"/>
<text text-anchor="middle" x="489" y="-1071.5" font-family="Helvetica,sans-Serif" font-size="20.00" fill="#000000">Tratador</text>
<polyline fill="none" stroke="#000000" points="407,-1061.5 571,-1061.5 "/>
<text text-anchor="middle" x="489" y="-1041.5" font-family="Helvetica,sans-Serif" font-size="20.00" fill="#000000"> </text>
<polyline fill="none" stroke="#000000" points="407,-1031.5 571,-1031.5 "/>
<text text-anchor="start" x="415" y="-1011.5" font-family="Helvetica,sans-Serif" font-size="20.00" fill="#000000">+ Tratador()</text>
<text text-anchor="start" x="415" y="-989.5" font-family="Helvetica,sans-Serif" font-size="20.00" fill="#000000">+ Tratador()</text>
<text text-anchor="start" x="415" y="-967.5" font-family="Helvetica,sans-Serif" font-size="20.00" fill="#000000">+ ~Tratador()</text>
<text text-anchor="start" x="415" y="-945.5" font-family="Helvetica,sans-Serif" font-size="20.00" fill="#000000">+ getUniforme()</text>
<text text-anchor="start" x="415" y="-923.5" font-family="Helvetica,sans-Serif" font-size="20.00" fill="#000000">+ printOutDados()</text>
</a>
</g>
</g>
<!-- Node9&#45;&gt;Node8 -->
<g id="edge5" class="edge">
<title>Node9&#45;&gt;Node8</title>
<path fill="none" stroke="#404040" d="M437.2438,-913.2377C424.55,-892.5005 410.6695,-870.7293 397,-851 381.9429,-829.268 365.2016,-806.6977 348.5977,-785.1106"/>
<polygon fill="none" stroke="#404040" points="348.5821,-785.0904 341.7474,-782.7909 341.2413,-775.5976 348.076,-777.8971 348.5821,-785.0904"/>
<text text-anchor="middle" x="463.5" y="-868" font-family="Helvetica,sans-Serif" font-size="20.00" fill="#000000"> #tratador</text>
</g>
<!-- Node10 -->
<g id="node7" class="node">
<title>Node10</title>
<g id="a_node7"><a xlink:href="classPessoa.html" target="_top" xlink:title="Classe base dos funcionarios. ">
<polygon fill="#ffffff" stroke="#000000" points="374,-1172.5 374,-1416.5 538,-1416.5 538,-1172.5 374,-1172.5"/>
<text text-anchor="middle" x="456" y="-1396.5" font-family="Helvetica,sans-Serif" font-size="20.00" fill="#000000">Pessoa</text>
<polyline fill="none" stroke="#000000" points="374,-1386.5 538,-1386.5 "/>
<text text-anchor="middle" x="456" y="-1366.5" font-family="Helvetica,sans-Serif" font-size="20.00" fill="#000000"> </text>
<polyline fill="none" stroke="#000000" points="374,-1356.5 538,-1356.5 "/>
<text text-anchor="start" x="382" y="-1336.5" font-family="Helvetica,sans-Serif" font-size="20.00" fill="#000000">+ Pessoa()</text>
<text text-anchor="start" x="382" y="-1314.5" font-family="Helvetica,sans-Serif" font-size="20.00" fill="#000000">+ Pessoa()</text>
<text text-anchor="start" x="382" y="-1292.5" font-family="Helvetica,sans-Serif" font-size="20.00" fill="#000000">+ ~Pessoa()</text>
<text text-anchor="start" x="382" y="-1270.5" font-family="Helvetica,sans-Serif" font-size="20.00" fill="#000000">+ getNome()</text>
<text text-anchor="start" x="382" y="-1248.5" font-family="Helvetica,sans-Serif" font-size="20.00" fill="#000000">+ getTelefone()</text>
<text text-anchor="start" x="382" y="-1226.5" font-family="Helvetica,sans-Serif" font-size="20.00" fill="#000000">+ getEmail()</text>
<text text-anchor="start" x="382" y="-1204.5" font-family="Helvetica,sans-Serif" font-size="20.00" fill="#000000">+ printOutDados()</text>
<text text-anchor="start" x="382" y="-1182.5" font-family="Helvetica,sans-Serif" font-size="20.00" fill="#000000">+ operator==()</text>
</a>
</g>
</g>
<!-- Node10&#45;&gt;Node9 -->
<g id="edge6" class="edge">
<title>Node10&#45;&gt;Node9</title>
<path fill="none" stroke="#191970" d="M470.9547,-1162.1738C473.65,-1138.324 476.4009,-1113.9833 478.9161,-1091.7273"/>
<polygon fill="none" stroke="#191970" points="467.449,-1162.0278 469.8038,-1172.3576 474.4047,-1162.8139 467.449,-1162.0278"/>
</g>
<!-- Node13 -->
<g id="node10" class="node">
<title>Node13</title>
<g id="a_node10"><a xlink:href="classVeterinario.html" target="_top" xlink:title="Implementação dos veterinarios. ">
<polygon fill="#ffffff" stroke="#000000" points="225,-913.5 225,-1091.5 389,-1091.5 389,-913.5 225,-913.5"/>
<text text-anchor="middle" x="307" y="-1071.5" font-family="Helvetica,sans-Serif" font-size="20.00" fill="#000000">Veterinario</text>
<polyline fill="none" stroke="#000000" points="225,-1061.5 389,-1061.5 "/>
<text text-anchor="middle" x="307" y="-1041.5" font-family="Helvetica,sans-Serif" font-size="20.00" fill="#000000"> </text>
<polyline fill="none" stroke="#000000" points="225,-1031.5 389,-1031.5 "/>
<text text-anchor="start" x="233" y="-1011.5" font-family="Helvetica,sans-Serif" font-size="20.00" fill="#000000">+ Veterinario()</text>
<text text-anchor="start" x="233" y="-989.5" font-family="Helvetica,sans-Serif" font-size="20.00" fill="#000000">+ Veterinario()</text>
<text text-anchor="start" x="233" y="-967.5" font-family="Helvetica,sans-Serif" font-size="20.00" fill="#000000">+ ~Veterinario()</text>
<text text-anchor="start" x="233" y="-945.5" font-family="Helvetica,sans-Serif" font-size="20.00" fill="#000000">+ getCRMV()</text>
<text text-anchor="start" x="233" y="-923.5" font-family="Helvetica,sans-Serif" font-size="20.00" fill="#000000">+ printOutDados()</text>
</a>
</g>
</g>
<!-- Node10&#45;&gt;Node13 -->
<g id="edge12" class="edge">
<title>Node10&#45;&gt;Node13</title>
<path fill="none" stroke="#191970" d="M388.9662,-1163.1318C376.6404,-1138.9764 364.0391,-1114.2813 352.5304,-1091.7273"/>
<polygon fill="none" stroke="#191970" points="386.0111,-1165.0411 393.6739,-1172.3576 392.2462,-1161.8594 386.0111,-1165.0411"/>
</g>
<!-- Node11 -->
<g id="node8" class="node">
<title>Node11</title>
<polygon fill="#ffffff" stroke="#bfbfbf" points="341,-1519.5 341,-1609.5 405,-1609.5 405,-1519.5 341,-1519.5"/>
<text text-anchor="middle" x="373" y="-1589.5" font-family="Helvetica,sans-Serif" font-size="20.00" fill="#000000">string</text>
<polyline fill="none" stroke="#bfbfbf" points="341,-1579.5 405,-1579.5 "/>
<text text-anchor="middle" x="373" y="-1559.5" font-family="Helvetica,sans-Serif" font-size="20.00" fill="#000000"> </text>
<polyline fill="none" stroke="#bfbfbf" points="341,-1549.5 405,-1549.5 "/>
<text text-anchor="middle" x="373" y="-1529.5" font-family="Helvetica,sans-Serif" font-size="20.00" fill="#000000"> </text>
</g>
<!-- Node11&#45;&gt;Node7 -->
<g id="edge14" class="edge">
<title>Node11&#45;&gt;Node7</title>
<path fill="none" stroke="#404040" d="M405.2369,-1557.8108C465.4666,-1543.4966 594.6121,-1503.869 657,-1417 689.139,-1372.2497 676,-1349.5954 676,-1294.5 676,-1294.5 676,-1294.5 676,-666.5 676,-464.318 439.8886,-319.979 320.0549,-259.7424"/>
<polygon fill="none" stroke="#404040" points="319.932,-259.6815 312.7793,-260.5977 309.1825,-254.3476 316.3352,-253.4314 319.932,-259.6815"/>
<text text-anchor="middle" x="702.5" y="-997.5" font-family="Helvetica,sans-Serif" font-size="20.00" fill="#000000"> #local</text>
</g>
<!-- Node11&#45;&gt;Node8 -->
<g id="edge10" class="edge">
<title>Node11&#45;&gt;Node8</title>
<path fill="none" stroke="#404040" d="M340.7851,-1542.7182C326.7263,-1531.7142 311.1646,-1517.2497 301,-1501 216.1408,-1365.3392 226.5291,-1312.5605 205,-1154 191.1361,-1051.8934 200.9309,-937.2113 215.0917,-844.7419"/>
<polygon fill="none" stroke="#404040" points="215.1188,-844.5685 212.0964,-838.0214 216.9774,-832.7133 219.9998,-839.2604 215.1188,-844.5685"/>
<text text-anchor="middle" x="244" y="-1138" font-family="Helvetica,sans-Serif" font-size="20.00" fill="#000000"> #especie</text>
<text text-anchor="middle" x="244" y="-1116" font-family="Helvetica,sans-Serif" font-size="20.00" fill="#000000">#nome</text>
</g>
<!-- Node11&#45;&gt;Node10 -->
<g id="edge7" class="edge">
<title>Node11&#45;&gt;Node10</title>
<path fill="none" stroke="#404040" d="M386.8923,-1519.3081C394.6532,-1494.0618 404.7716,-1461.1466 414.8615,-1428.3241"/>
<polygon fill="none" stroke="#404040" points="414.8992,-1428.2012 412.8388,-1421.2907 418.4253,-1416.731 420.4857,-1423.6415 414.8992,-1428.2012"/>
<text text-anchor="middle" x="450.5" y="-1485" font-family="Helvetica,sans-Serif" font-size="20.00" fill="#000000"> #email</text>
<text text-anchor="middle" x="450.5" y="-1463" font-family="Helvetica,sans-Serif" font-size="20.00" fill="#000000">#nome</text>
<text text-anchor="middle" x="450.5" y="-1441" font-family="Helvetica,sans-Serif" font-size="20.00" fill="#000000">#telefone</text>
</g>
<!-- Node11&#45;&gt;Node13 -->
<g id="edge13" class="edge">
<title>Node11&#45;&gt;Node13</title>
<path fill="none" stroke="#404040" d="M343.4858,-1519.4643C326.8223,-1491.289 307.6476,-1453.5212 299,-1417 274.1978,-1312.2535 281.1048,-1188.428 291.1368,-1103.5645"/>
<polygon fill="none" stroke="#404040" points="291.144,-1103.505 287.9032,-1097.0631 292.6031,-1091.594 295.8439,-1098.0358 291.144,-1103.505"/>
<text text-anchor="middle" x="332" y="-1289.5" font-family="Helvetica,sans-Serif" font-size="20.00" fill="#000000"> &#45;CRMV</text>
</g>
<!-- Node12 -->
<g id="node9" class="node">
<title>Node12</title>
<polygon fill="#ffffff" stroke="#bfbfbf" points="556,-1249.5 556,-1339.5 648,-1339.5 648,-1249.5 556,-1249.5"/>
<text text-anchor="middle" x="602" y="-1319.5" font-family="Helvetica,sans-Serif" font-size="20.00" fill="#000000">Uniforme</text>
<polyline fill="none" stroke="#bfbfbf" points="556,-1309.5 648,-1309.5 "/>
<text text-anchor="middle" x="602" y="-1289.5" font-family="Helvetica,sans-Serif" font-size="20.00" fill="#000000"> </text>
<polyline fill="none" stroke="#bfbfbf" points="556,-1279.5 648,-1279.5 "/>
<text text-anchor="middle" x="602" y="-1259.5" font-family="Helvetica,sans-Serif" font-size="20.00" fill="#000000"> </text>
</g>
<!-- Node12&#45;&gt;Node9 -->
<g id="edge8" class="edge">
<title>Node12&#45;&gt;Node9</title>
<path fill="none" stroke="#404040" d="M584.4677,-1249.1954C569.4285,-1210.3328 547.2072,-1152.9115 527.9866,-1103.2443"/>
<polygon fill="none" stroke="#404040" points="527.8855,-1102.9826 521.9896,-1098.8307 523.5545,-1091.7914 529.4504,-1095.9434 527.8855,-1102.9826"/>
<text text-anchor="middle" x="587" y="-1127" font-family="Helvetica,sans-Serif" font-size="20.00" fill="#000000"> &#45;uniforme</text>
</g>
<!-- Node13&#45;&gt;Node8 -->
<g id="edge11" class="edge">
<title>Node13&#45;&gt;Node8</title>
<path fill="none" stroke="#404040" d="M292.4054,-913.3403C288.9207,-892.0516 285.0783,-868.5786 281.1908,-844.8292"/>
<polygon fill="none" stroke="#404040" points="281.1566,-844.6198 276.2398,-839.3448 279.218,-832.7774 284.1348,-838.0524 281.1566,-844.6198"/>
<text text-anchor="middle" x="341.5" y="-868" font-family="Helvetica,sans-Serif" font-size="20.00" fill="#000000"> #veterinario</text>
</g>
</g>
</svg>
