<?xml version="1.0" encoding="UTF-8" standalone="no"?>
<!DOCTYPE svg PUBLIC "-//W3C//DTD SVG 1.1//EN"
 "http://www.w3.org/Graphics/SVG/1.1/DTD/svg11.dtd">
<!-- Generated by graphviz version 2.40.1 (20161225.0304)
 -->
<!-- Title: Domestico Pages: 1 -->
<svg width="841pt" height="793pt"
 viewBox="0.00 0.00 840.50 793.00" xmlns="http://www.w3.org/2000/svg" xmlns:xlink="http://www.w3.org/1999/xlink">
<g id="graph0" class="graph" transform="scale(1 1) rotate(0) translate(4 789)">
<title>Domestico</title>
<polygon fill="#ffffff" stroke="transparent" points="-4,4 -4,-789 836.5,-789 836.5,4 -4,4"/>
<!-- Node0 -->
<g id="node1" class="node">
<title>Node0</title>
<polygon fill="#bfbfbf" stroke="#000000" points="333,-171.5 333,-327.5 488,-327.5 488,-171.5 333,-171.5"/>
<text text-anchor="middle" x="410.5" y="-307.5" font-family="Helvetica,sans-Serif" font-size="20.00" fill="#000000">Domestico</text>
<polyline fill="none" stroke="#000000" points="333,-297.5 488,-297.5 "/>
<text text-anchor="start" x="341" y="-277.5" font-family="Helvetica,sans-Serif" font-size="20.00" fill="#000000"># adestrado</text>
<polyline fill="none" stroke="#000000" points="333,-267.5 488,-267.5 "/>
<text text-anchor="start" x="341" y="-247.5" font-family="Helvetica,sans-Serif" font-size="20.00" fill="#000000">+ Domestico()</text>
<text text-anchor="start" x="341" y="-225.5" font-family="Helvetica,sans-Serif" font-size="20.00" fill="#000000">+ Domestico()</text>
<text text-anchor="start" x="341" y="-203.5" font-family="Helvetica,sans-Serif" font-size="20.00" fill="#000000">+ ~Domestico()</text>
<text text-anchor="start" x="341" y="-181.5" font-family="Helvetica,sans-Serif" font-size="20.00" fill="#000000">+ getAdestrado()</text>
</g>
<!-- Node2 -->
<g id="node3" class="node">
<title>Node2</title>
<g id="a_node3"><a xlink:href="classAnfibioDomestico.html" target="_top" xlink:title="Implementação de animal com Classe e Categoria. ">
<polygon fill="#ffffff" stroke="#000000" points="0,-11.5 0,-123.5 199,-123.5 199,-11.5 0,-11.5"/>
<text text-anchor="middle" x="99.5" y="-103.5" font-family="Helvetica,sans-Serif" font-size="20.00" fill="#000000">AnfibioDomestico</text>
<polyline fill="none" stroke="#000000" points="0,-93.5 199,-93.5 "/>
<text text-anchor="middle" x="99.5" y="-73.5" font-family="Helvetica,sans-Serif" font-size="20.00" fill="#000000"> </text>
<polyline fill="none" stroke="#000000" points="0,-63.5 199,-63.5 "/>
<text text-anchor="start" x="8" y="-43.5" font-family="Helvetica,sans-Serif" font-size="20.00" fill="#000000">+ AnfibioDomestico()</text>
<text text-anchor="start" x="8" y="-21.5" font-family="Helvetica,sans-Serif" font-size="20.00" fill="#000000">+ ~AnfibioDomestico()</text>
</a>
</g>
</g>
<!-- Node0&#45;&gt;Node2 -->
<g id="edge2" class="edge">
<title>Node0&#45;&gt;Node2</title>
<path fill="none" stroke="#191970" d="M323.8553,-201.758C287.6771,-181.5319 245.3412,-157.4819 207.5,-135 201.322,-131.3296 194.972,-127.5032 188.5933,-123.6196"/>
<polygon fill="none" stroke="#191970" points="322.4762,-204.9965 332.9139,-206.8145 325.8881,-198.8843 322.4762,-204.9965"/>
</g>
<!-- Node3 -->
<g id="node4" class="node">
<title>Node3</title>
<g id="a_node4"><a xlink:href="classAveDomestica.html" target="_top" xlink:title="Implementação de animal com Classe e Categoria. ">
<polygon fill="#ffffff" stroke="#000000" points="217,-.5 217,-134.5 390,-134.5 390,-.5 217,-.5"/>
<text text-anchor="middle" x="303.5" y="-114.5" font-family="Helvetica,sans-Serif" font-size="20.00" fill="#000000">AveDomestica</text>
<polyline fill="none" stroke="#000000" points="217,-104.5 390,-104.5 "/>
<text text-anchor="middle" x="303.5" y="-84.5" font-family="Helvetica,sans-Serif" font-size="20.00" fill="#000000"> </text>
<polyline fill="none" stroke="#000000" points="217,-74.5 390,-74.5 "/>
<text text-anchor="start" x="225" y="-54.5" font-family="Helvetica,sans-Serif" font-size="20.00" fill="#000000">+ AveDomestica()</text>
<text text-anchor="start" x="225" y="-32.5" font-family="Helvetica,sans-Serif" font-size="20.00" fill="#000000">+ AveDomestica()</text>
<text text-anchor="start" x="225" y="-10.5" font-family="Helvetica,sans-Serif" font-size="20.00" fill="#000000">+ ~AveDomestica()</text>
</a>
</g>
</g>
<!-- Node0&#45;&gt;Node3 -->
<g id="edge3" class="edge">
<title>Node0&#45;&gt;Node3</title>
<path fill="none" stroke="#191970" d="M359.4199,-162.6161C353.8686,-153.1737 348.2825,-143.672 342.9012,-134.5189"/>
<polygon fill="none" stroke="#191970" points="356.416,-164.4127 364.5014,-171.2594 362.4504,-160.8649 356.416,-164.4127"/>
</g>
<!-- Node4 -->
<g id="node5" class="node">
<title>Node4</title>
<g id="a_node5"><a xlink:href="classMamiferoDomestico.html" target="_top" xlink:title="Implementação de animal com Classe e Categoria. ">
<polygon fill="#ffffff" stroke="#000000" points="408.5,-11.5 408.5,-123.5 626.5,-123.5 626.5,-11.5 408.5,-11.5"/>
<text text-anchor="middle" x="517.5" y="-103.5" font-family="Helvetica,sans-Serif" font-size="20.00" fill="#000000">MamiferoDomestico</text>
<polyline fill="none" stroke="#000000" points="408.5,-93.5 626.5,-93.5 "/>
<text text-anchor="middle" x="517.5" y="-73.5" font-family="Helvetica,sans-Serif" font-size="20.00" fill="#000000"> </text>
<polyline fill="none" stroke="#000000" points="408.5,-63.5 626.5,-63.5 "/>
<text text-anchor="start" x="416.5" y="-43.5" font-family="Helvetica,sans-Serif" font-size="20.00" fill="#000000">+ MamiferoDomestico()</text>
<text text-anchor="start" x="416.5" y="-21.5" font-family="Helvetica,sans-Serif" font-size="20.00" fill="#000000">+ ~MamiferoDomestico()</text>
</a>
</g>
</g>
<!-- Node0&#45;&gt;Node4 -->
<g id="edge4" class="edge">
<title>Node0&#45;&gt;Node4</title>
<path fill="none" stroke="#191970" d="M461.5908,-162.5979C469.3652,-149.3741 477.2076,-136.0347 484.4595,-123.6997"/>
<polygon fill="none" stroke="#191970" points="458.5496,-160.8649 456.4986,-171.2594 464.584,-164.4127 458.5496,-160.8649"/>
</g>
<!-- Node5 -->
<g id="node6" class="node">
<title>Node5</title>
<g id="a_node6"><a xlink:href="classReptilDomestico.html" target="_top" xlink:title="Implementação de animal com Classe e Categoria. ">
<polygon fill="#ffffff" stroke="#000000" points="644.5,-11.5 644.5,-123.5 832.5,-123.5 832.5,-11.5 644.5,-11.5"/>
<text text-anchor="middle" x="738.5" y="-103.5" font-family="Helvetica,sans-Serif" font-size="20.00" fill="#000000">ReptilDomestico</text>
<polyline fill="none" stroke="#000000" points="644.5,-93.5 832.5,-93.5 "/>
<text text-anchor="middle" x="738.5" y="-73.5" font-family="Helvetica,sans-Serif" font-size="20.00" fill="#000000"> </text>
<polyline fill="none" stroke="#000000" points="644.5,-63.5 832.5,-63.5 "/>
<text text-anchor="start" x="652.5" y="-43.5" font-family="Helvetica,sans-Serif" font-size="20.00" fill="#000000">+ ReptilDomestico()</text>
<text text-anchor="start" x="652.5" y="-21.5" font-family="Helvetica,sans-Serif" font-size="20.00" fill="#000000">+ ~ReptilDomestico()</text>
</a>
</g>
</g>
<!-- Node0&#45;&gt;Node5 -->
<g id="edge5" class="edge">
<title>Node0&#45;&gt;Node5</title>
<path fill="none" stroke="#191970" d="M497.3104,-208.0911C539.5859,-187.2291 590.8134,-160.9089 635.5,-135 641.7886,-131.3539 648.2236,-127.4857 654.6552,-123.5187"/>
<polygon fill="none" stroke="#191970" points="495.5846,-205.0394 488.1552,-212.5929 498.6735,-211.3211 495.5846,-205.0394"/>
</g>
<!-- Node1 -->
<g id="node2" class="node">
<title>Node1</title>
<g id="a_node2"><a xlink:href="classAnimal.html" target="_top" xlink:title="Implementação base para o cadastro de animais. ">
<polygon fill="#ffffff" stroke="#000000" points="321.5,-364.5 321.5,-784.5 499.5,-784.5 499.5,-364.5 321.5,-364.5"/>
<text text-anchor="middle" x="410.5" y="-764.5" font-family="Helvetica,sans-Serif" font-size="20.00" fill="#000000">Animal</text>
<polyline fill="none" stroke="#000000" points="321.5,-754.5 499.5,-754.5 "/>
<text text-anchor="start" x="329.5" y="-734.5" font-family="Helvetica,sans-Serif" font-size="20.00" fill="#000000"># nome</text>
<text text-anchor="start" x="329.5" y="-712.5" font-family="Helvetica,sans-Serif" font-size="20.00" fill="#000000"># especie</text>
<text text-anchor="start" x="329.5" y="-690.5" font-family="Helvetica,sans-Serif" font-size="20.00" fill="#000000"># veterinario</text>
<text text-anchor="start" x="329.5" y="-668.5" font-family="Helvetica,sans-Serif" font-size="20.00" fill="#000000"># tratador</text>
<text text-anchor="start" x="329.5" y="-646.5" font-family="Helvetica,sans-Serif" font-size="20.00" fill="#000000"># perigoso</text>
<polyline fill="none" stroke="#000000" points="321.5,-636.5 499.5,-636.5 "/>
<text text-anchor="start" x="329.5" y="-616.5" font-family="Helvetica,sans-Serif" font-size="20.00" fill="#000000">+ Animal()</text>
<text text-anchor="start" x="329.5" y="-594.5" font-family="Helvetica,sans-Serif" font-size="20.00" fill="#000000">+ Animal()</text>
<text text-anchor="start" x="329.5" y="-572.5" font-family="Helvetica,sans-Serif" font-size="20.00" fill="#000000">+ ~Animal()</text>
<text text-anchor="start" x="329.5" y="-550.5" font-family="Helvetica,sans-Serif" font-size="20.00" fill="#000000">+ getNome()</text>
<text text-anchor="start" x="329.5" y="-528.5" font-family="Helvetica,sans-Serif" font-size="20.00" fill="#000000">+ getEspecie()</text>
<text text-anchor="start" x="329.5" y="-506.5" font-family="Helvetica,sans-Serif" font-size="20.00" fill="#000000">+ getVeterinario()</text>
<text text-anchor="start" x="329.5" y="-484.5" font-family="Helvetica,sans-Serif" font-size="20.00" fill="#000000">+ getTratador()</text>
<text text-anchor="start" x="329.5" y="-462.5" font-family="Helvetica,sans-Serif" font-size="20.00" fill="#000000">+ getPerigoso()</text>
<text text-anchor="start" x="329.5" y="-440.5" font-family="Helvetica,sans-Serif" font-size="20.00" fill="#000000">+ getClassificacao()</text>
<text text-anchor="start" x="329.5" y="-418.5" font-family="Helvetica,sans-Serif" font-size="20.00" fill="#000000">+ getClasse()</text>
<text text-anchor="start" x="329.5" y="-396.5" font-family="Helvetica,sans-Serif" font-size="20.00" fill="#000000">+ printOutDados()</text>
<text text-anchor="start" x="329.5" y="-374.5" font-family="Helvetica,sans-Serif" font-size="20.00" fill="#000000">+ operator==()</text>
</a>
</g>
</g>
<!-- Node1&#45;&gt;Node0 -->
<g id="edge1" class="edge">
<title>Node1&#45;&gt;Node0</title>
<path fill="none" stroke="#191970" d="M410.5,-354.0665C410.5,-344.9314 410.5,-336.0773 410.5,-327.6428"/>
<polygon fill="none" stroke="#191970" points="407.0001,-354.0828 410.5,-364.0828 414.0001,-354.0829 407.0001,-354.0828"/>
</g>
</g>
</svg>
