<?xml version="1.0" encoding="UTF-8" standalone="no"?>
<!DOCTYPE svg PUBLIC "-//W3C//DTD SVG 1.1//EN"
 "http://www.w3.org/Graphics/SVG/1.1/DTD/svg11.dtd">
<!-- Generated by graphviz version 2.43.0 (0)
 -->
<!-- Title: MamiferoExotico Pages: 1 -->
<svg width="805pt" height="1817pt"
 viewBox="0.00 0.00 804.75 1817.00" xmlns="http://www.w3.org/2000/svg" xmlns:xlink="http://www.w3.org/1999/xlink">
<g id="graph0" class="graph" transform="scale(1 1) rotate(0) translate(4 1813)">
<title>MamiferoExotico</title>
<polygon fill="white" stroke="transparent" points="-4,4 -4,-1813 800.75,-1813 800.75,4 -4,4"/>
<!-- Node1 -->
<g id="node1" class="node">
<title>Node1</title>
<g id="a_node1"><a xlink:title="Implementação de animal com Classe e Categoria.">
<polygon fill="#bfbfbf" stroke="black" points="536.75,-0.5 536.75,-134.5 771.75,-134.5 771.75,-0.5 536.75,-0.5"/>
<text text-anchor="middle" x="654.25" y="-114.5" font-family="Helvetica,sans-Serif" font-size="20.00">MamiferoExotico</text>
<polyline fill="none" stroke="black" points="536.75,-104.5 771.75,-104.5 "/>
<text text-anchor="middle" x="654.25" y="-84.5" font-family="Helvetica,sans-Serif" font-size="20.00"> </text>
<polyline fill="none" stroke="black" points="536.75,-74.5 771.75,-74.5 "/>
<text text-anchor="start" x="544.75" y="-54.5" font-family="Helvetica,sans-Serif" font-size="20.00">+ MamiferoExotico()</text>
<text text-anchor="start" x="544.75" y="-32.5" font-family="Helvetica,sans-Serif" font-size="20.00">+ MamiferoExotico()</text>
<text text-anchor="start" x="544.75" y="-10.5" font-family="Helvetica,sans-Serif" font-size="20.00">+ ~MamiferoExotico()</text>
</a>
</g>
</g>
<!-- Node2 -->
<g id="node2" class="node">
<title>Node2</title>
<g id="a_node2"><a xlink:href="classMamifero.html" target="_top" xlink:title="Classificação base para Mamiferos.">
<polygon fill="white" stroke="black" points="494.75,-172.5 494.75,-372.5 673.75,-372.5 673.75,-172.5 494.75,-172.5"/>
<text text-anchor="middle" x="584.25" y="-352.5" font-family="Helvetica,sans-Serif" font-size="20.00">Mamifero</text>
<polyline fill="none" stroke="black" points="494.75,-342.5 673.75,-342.5 "/>
<text text-anchor="middle" x="584.25" y="-322.5" font-family="Helvetica,sans-Serif" font-size="20.00"> </text>
<polyline fill="none" stroke="black" points="494.75,-312.5 673.75,-312.5 "/>
<text text-anchor="start" x="502.75" y="-292.5" font-family="Helvetica,sans-Serif" font-size="20.00">+ Mamifero()</text>
<text text-anchor="start" x="502.75" y="-270.5" font-family="Helvetica,sans-Serif" font-size="20.00">+ Mamifero()</text>
<text text-anchor="start" x="502.75" y="-248.5" font-family="Helvetica,sans-Serif" font-size="20.00">+ ~Mamifero()</text>
<text text-anchor="start" x="502.75" y="-226.5" font-family="Helvetica,sans-Serif" font-size="20.00">+ getGestacao()</text>
<text text-anchor="start" x="502.75" y="-204.5" font-family="Helvetica,sans-Serif" font-size="20.00">+ setGestacao()</text>
<text text-anchor="start" x="502.75" y="-182.5" font-family="Helvetica,sans-Serif" font-size="20.00">+ setGestacao()</text>
</a>
</g>
</g>
<!-- Node2&#45;&gt;Node1 -->
<g id="edge1" class="edge">
<title>Node2&#45;&gt;Node1</title>
<path fill="none" stroke="midnightblue" d="M621.74,-162.8C625.04,-153.23 628.31,-143.75 631.43,-134.69"/>
<polygon fill="none" stroke="midnightblue" points="618.38,-161.78 618.43,-172.38 625,-164.07 618.38,-161.78"/>
</g>
<!-- Node3 -->
<g id="node3" class="node">
<title>Node3</title>
<g id="a_node3"><a xlink:href="classAnimal.html" target="_top" xlink:title="Implementação base para o cadastro de animais.">
<polygon fill="white" stroke="black" points="222.75,-410.5 222.75,-720.5 445.75,-720.5 445.75,-410.5 222.75,-410.5"/>
<text text-anchor="middle" x="334.25" y="-700.5" font-family="Helvetica,sans-Serif" font-size="20.00">Animal</text>
<polyline fill="none" stroke="black" points="222.75,-690.5 445.75,-690.5 "/>
<text text-anchor="middle" x="334.25" y="-670.5" font-family="Helvetica,sans-Serif" font-size="20.00"> </text>
<polyline fill="none" stroke="black" points="222.75,-660.5 445.75,-660.5 "/>
<text text-anchor="start" x="230.75" y="-640.5" font-family="Helvetica,sans-Serif" font-size="20.00">+ Animal()</text>
<text text-anchor="start" x="230.75" y="-618.5" font-family="Helvetica,sans-Serif" font-size="20.00">+ Animal()</text>
<text text-anchor="start" x="230.75" y="-596.5" font-family="Helvetica,sans-Serif" font-size="20.00">+ ~Animal()</text>
<text text-anchor="start" x="230.75" y="-574.5" font-family="Helvetica,sans-Serif" font-size="20.00">+ getNome()</text>
<text text-anchor="start" x="230.75" y="-552.5" font-family="Helvetica,sans-Serif" font-size="20.00">+ getEspecie()</text>
<text text-anchor="start" x="230.75" y="-530.5" font-family="Helvetica,sans-Serif" font-size="20.00">+ getAmeacadoPor()</text>
<text text-anchor="start" x="230.75" y="-508.5" font-family="Helvetica,sans-Serif" font-size="20.00">+ getVeterinario()</text>
<text text-anchor="start" x="230.75" y="-486.5" font-family="Helvetica,sans-Serif" font-size="20.00">+ getTratador()</text>
<text text-anchor="start" x="230.75" y="-464.5" font-family="Helvetica,sans-Serif" font-size="20.00">+ getPerigoso()</text>
<text text-anchor="start" x="230.75" y="-442.5" font-family="Helvetica,sans-Serif" font-size="20.00">+ setNome()</text>
<text text-anchor="start" x="230.75" y="-420.5" font-family="Helvetica,sans-Serif" font-size="20.00">e 15 mais...</text>
</a>
</g>
</g>
<!-- Node3&#45;&gt;Node2 -->
<g id="edge2" class="edge">
<title>Node3&#45;&gt;Node2</title>
<path fill="none" stroke="midnightblue" d="M452.78,-426.53C468.43,-408.32 484.21,-389.95 499.14,-372.57"/>
<polygon fill="none" stroke="midnightblue" points="449.95,-424.45 446.09,-434.32 455.26,-429.02 449.95,-424.45"/>
</g>
<!-- Node4 -->
<g id="node4" class="node">
<title>Node4</title>
<g id="a_node4"><a xlink:href="classTratador.html" target="_top" xlink:title="Implementação dos tratadores.">
<polygon fill="white" stroke="black" points="300.25,-779.5 300.25,-1001.5 500.25,-1001.5 500.25,-779.5 300.25,-779.5"/>
<text text-anchor="middle" x="400.25" y="-981.5" font-family="Helvetica,sans-Serif" font-size="20.00">Tratador</text>
<polyline fill="none" stroke="black" points="300.25,-971.5 500.25,-971.5 "/>
<text text-anchor="middle" x="400.25" y="-951.5" font-family="Helvetica,sans-Serif" font-size="20.00"> </text>
<polyline fill="none" stroke="black" points="300.25,-941.5 500.25,-941.5 "/>
<text text-anchor="start" x="308.25" y="-921.5" font-family="Helvetica,sans-Serif" font-size="20.00">+ Tratador()</text>
<text text-anchor="start" x="308.25" y="-899.5" font-family="Helvetica,sans-Serif" font-size="20.00">+ Tratador()</text>
<text text-anchor="start" x="308.25" y="-877.5" font-family="Helvetica,sans-Serif" font-size="20.00">+ ~Tratador()</text>
<text text-anchor="start" x="308.25" y="-855.5" font-family="Helvetica,sans-Serif" font-size="20.00">+ getUniforme()</text>
<text text-anchor="start" x="308.25" y="-833.5" font-family="Helvetica,sans-Serif" font-size="20.00">+ setUniforme()</text>
<text text-anchor="start" x="308.25" y="-811.5" font-family="Helvetica,sans-Serif" font-size="20.00">+ setUniforme()</text>
<text text-anchor="start" x="308.25" y="-789.5" font-family="Helvetica,sans-Serif" font-size="20.00">+ printOutDados()</text>
</a>
</g>
</g>
<!-- Node4&#45;&gt;Node3 -->
<g id="edge3" class="edge">
<title>Node4&#45;&gt;Node3</title>
<path fill="none" stroke="#404040" d="M340.57,-779.28C338.52,-773.19 336.72,-767.08 335.25,-761 333.05,-751.88 331.32,-742.46 329.98,-732.89"/>
<polygon fill="none" stroke="#404040" points="329.94,-732.63 325.24,-727.16 328.48,-720.72 333.18,-726.18 329.94,-732.63"/>
<text text-anchor="middle" x="386.75" y="-745" font-family="Helvetica,sans-Serif" font-size="20.00"> #tratador</text>
</g>
<!-- Node5 -->
<g id="node5" class="node">
<title>Node5</title>
<g id="a_node5"><a xlink:href="classPessoa.html" target="_top" xlink:title="Classe base dos funcionarios.">
<polygon fill="white" stroke="black" points="273.25,-1239.5 273.25,-1615.5 473.25,-1615.5 473.25,-1239.5 273.25,-1239.5"/>
<text text-anchor="middle" x="373.25" y="-1595.5" font-family="Helvetica,sans-Serif" font-size="20.00">Pessoa</text>
<polyline fill="none" stroke="black" points="273.25,-1585.5 473.25,-1585.5 "/>
<text text-anchor="middle" x="373.25" y="-1565.5" font-family="Helvetica,sans-Serif" font-size="20.00"> </text>
<polyline fill="none" stroke="black" points="273.25,-1555.5 473.25,-1555.5 "/>
<text text-anchor="start" x="281.25" y="-1535.5" font-family="Helvetica,sans-Serif" font-size="20.00">+ Pessoa()</text>
<text text-anchor="start" x="281.25" y="-1513.5" font-family="Helvetica,sans-Serif" font-size="20.00">+ Pessoa()</text>
<text text-anchor="start" x="281.25" y="-1491.5" font-family="Helvetica,sans-Serif" font-size="20.00">+ ~Pessoa()</text>
<text text-anchor="start" x="281.25" y="-1469.5" font-family="Helvetica,sans-Serif" font-size="20.00">+ getNome()</text>
<text text-anchor="start" x="281.25" y="-1447.5" font-family="Helvetica,sans-Serif" font-size="20.00">+ setNome()</text>
<text text-anchor="start" x="281.25" y="-1425.5" font-family="Helvetica,sans-Serif" font-size="20.00">+ setNome()</text>
<text text-anchor="start" x="281.25" y="-1403.5" font-family="Helvetica,sans-Serif" font-size="20.00">+ getTelefone()</text>
<text text-anchor="start" x="281.25" y="-1381.5" font-family="Helvetica,sans-Serif" font-size="20.00">+ setTelefone()</text>
<text text-anchor="start" x="281.25" y="-1359.5" font-family="Helvetica,sans-Serif" font-size="20.00">+ setTelefone()</text>
<text text-anchor="start" x="281.25" y="-1337.5" font-family="Helvetica,sans-Serif" font-size="20.00">+ getEmail()</text>
<text text-anchor="start" x="281.25" y="-1315.5" font-family="Helvetica,sans-Serif" font-size="20.00">+ setEmail()</text>
<text text-anchor="start" x="281.25" y="-1293.5" font-family="Helvetica,sans-Serif" font-size="20.00">+ setEmail()</text>
<text text-anchor="start" x="281.25" y="-1271.5" font-family="Helvetica,sans-Serif" font-size="20.00">+ printOutDados()</text>
<text text-anchor="start" x="281.25" y="-1249.5" font-family="Helvetica,sans-Serif" font-size="20.00">+ operator==()</text>
</a>
</g>
</g>
<!-- Node5&#45;&gt;Node4 -->
<g id="edge4" class="edge">
<title>Node5&#45;&gt;Node4</title>
<path fill="none" stroke="midnightblue" d="M383.22,-1229.09C387.09,-1152.3 391.38,-1067.23 394.69,-1001.69"/>
<polygon fill="none" stroke="midnightblue" points="379.71,-1229.22 382.7,-1239.38 386.7,-1229.57 379.71,-1229.22"/>
</g>
<!-- Node9 -->
<g id="node9" class="node">
<title>Node9</title>
<g id="a_node9"><a xlink:href="classVeterinario.html" target="_top" xlink:title="Implementação dos veterinarios.">
<polygon fill="white" stroke="black" points="82.25,-779.5 82.25,-1001.5 282.25,-1001.5 282.25,-779.5 82.25,-779.5"/>
<text text-anchor="middle" x="182.25" y="-981.5" font-family="Helvetica,sans-Serif" font-size="20.00">Veterinario</text>
<polyline fill="none" stroke="black" points="82.25,-971.5 282.25,-971.5 "/>
<text text-anchor="middle" x="182.25" y="-951.5" font-family="Helvetica,sans-Serif" font-size="20.00"> </text>
<polyline fill="none" stroke="black" points="82.25,-941.5 282.25,-941.5 "/>
<text text-anchor="start" x="90.25" y="-921.5" font-family="Helvetica,sans-Serif" font-size="20.00">+ Veterinario()</text>
<text text-anchor="start" x="90.25" y="-899.5" font-family="Helvetica,sans-Serif" font-size="20.00">+ Veterinario()</text>
<text text-anchor="start" x="90.25" y="-877.5" font-family="Helvetica,sans-Serif" font-size="20.00">+ ~Veterinario()</text>
<text text-anchor="start" x="90.25" y="-855.5" font-family="Helvetica,sans-Serif" font-size="20.00">+ getCRMV()</text>
<text text-anchor="start" x="90.25" y="-833.5" font-family="Helvetica,sans-Serif" font-size="20.00">+ setCRMV()</text>
<text text-anchor="start" x="90.25" y="-811.5" font-family="Helvetica,sans-Serif" font-size="20.00">+ setCRMV()</text>
<text text-anchor="start" x="90.25" y="-789.5" font-family="Helvetica,sans-Serif" font-size="20.00">+ printOutDados()</text>
</a>
</g>
</g>
<!-- Node5&#45;&gt;Node9 -->
<g id="edge10" class="edge">
<title>Node5&#45;&gt;Node9</title>
<path fill="none" stroke="midnightblue" d="M302.94,-1229.56C275.49,-1152.65 245.04,-1067.36 221.59,-1001.69"/>
<polygon fill="none" stroke="midnightblue" points="299.79,-1231.14 306.45,-1239.38 306.38,-1228.79 299.79,-1231.14"/>
</g>
<!-- Node6 -->
<g id="node6" class="node">
<title>Node6</title>
<g id="a_node6"><a xlink:title=" ">
<polygon fill="white" stroke="#bfbfbf" points="240.25,-1718.5 240.25,-1808.5 314.25,-1808.5 314.25,-1718.5 240.25,-1718.5"/>
<text text-anchor="middle" x="277.25" y="-1788.5" font-family="Helvetica,sans-Serif" font-size="20.00">string</text>
<polyline fill="none" stroke="#bfbfbf" points="240.25,-1778.5 314.25,-1778.5 "/>
<text text-anchor="middle" x="277.25" y="-1758.5" font-family="Helvetica,sans-Serif" font-size="20.00"> </text>
<polyline fill="none" stroke="#bfbfbf" points="240.25,-1748.5 314.25,-1748.5 "/>
<text text-anchor="middle" x="277.25" y="-1728.5" font-family="Helvetica,sans-Serif" font-size="20.00"> </text>
</a>
</g>
</g>
<!-- Node6&#45;&gt;Node3 -->
<g id="edge8" class="edge">
<title>Node6&#45;&gt;Node3</title>
<path fill="none" stroke="#404040" d="M239.92,-1741.06C224.07,-1730.41 206.47,-1716.32 194.25,-1700 6.95,-1449.69 -23.19,-1330.38 14.25,-1020 27.46,-910.52 14.32,-872.21 73.25,-779 108.24,-723.67 162.58,-676.07 212.65,-640.03"/>
<polygon fill="none" stroke="#404040" points="212.81,-639.92 215.39,-633.19 222.6,-632.98 220.02,-639.71 212.81,-639.92"/>
<text text-anchor="middle" x="90.25" y="-1137.5" font-family="Helvetica,sans-Serif" font-size="20.00"> #especie</text>
<text text-anchor="middle" x="90.25" y="-1115.5" font-family="Helvetica,sans-Serif" font-size="20.00">#ameacadoPor</text>
<text text-anchor="middle" x="90.25" y="-1093.5" font-family="Helvetica,sans-Serif" font-size="20.00">#nome</text>
</g>
<!-- Node6&#45;&gt;Node5 -->
<g id="edge5" class="edge">
<title>Node6&#45;&gt;Node5</title>
<path fill="none" stroke="#404040" d="M289.9,-1718.49C296.95,-1693.98 306.27,-1661.54 316.13,-1627.25"/>
<polygon fill="none" stroke="#404040" points="316.17,-1627.09 313.99,-1620.22 319.49,-1615.56 321.68,-1622.43 316.17,-1627.09"/>
<text text-anchor="middle" x="362.75" y="-1684" font-family="Helvetica,sans-Serif" font-size="20.00"> #email</text>
<text text-anchor="middle" x="362.75" y="-1662" font-family="Helvetica,sans-Serif" font-size="20.00">#nome</text>
<text text-anchor="middle" x="362.75" y="-1640" font-family="Helvetica,sans-Serif" font-size="20.00">#telefone</text>
</g>
<!-- Node6&#45;&gt;Node9 -->
<g id="edge11" class="edge">
<title>Node6&#45;&gt;Node9</title>
<path fill="none" stroke="#404040" d="M243.18,-1718.45C223.9,-1690.71 201.62,-1653.22 191.25,-1616 160.73,-1506.41 168.85,-1190 176.24,-1013.74"/>
<polygon fill="none" stroke="#404040" points="176.25,-1013.54 172.51,-1007.38 176.76,-1001.56 180.5,-1007.72 176.25,-1013.54"/>
<text text-anchor="middle" x="227.75" y="-1422.5" font-family="Helvetica,sans-Serif" font-size="20.00"> &#45;CRMV</text>
</g>
<!-- Node10 -->
<g id="node10" class="node">
<title>Node10</title>
<g id="a_node10"><a xlink:href="classExotico.html" target="_top" xlink:title="Umas das definições de categoria para Animal.">
<polygon fill="white" stroke="black" points="653.75,-1020.5 653.75,-1220.5 796.75,-1220.5 796.75,-1020.5 653.75,-1020.5"/>
<text text-anchor="middle" x="725.25" y="-1200.5" font-family="Helvetica,sans-Serif" font-size="20.00">Exotico</text>
<polyline fill="none" stroke="black" points="653.75,-1190.5 796.75,-1190.5 "/>
<text text-anchor="middle" x="725.25" y="-1170.5" font-family="Helvetica,sans-Serif" font-size="20.00"> </text>
<polyline fill="none" stroke="black" points="653.75,-1160.5 796.75,-1160.5 "/>
<text text-anchor="start" x="661.75" y="-1140.5" font-family="Helvetica,sans-Serif" font-size="20.00">+ Exotico()</text>
<text text-anchor="start" x="661.75" y="-1118.5" font-family="Helvetica,sans-Serif" font-size="20.00">+ Exotico()</text>
<text text-anchor="start" x="661.75" y="-1096.5" font-family="Helvetica,sans-Serif" font-size="20.00">+ ~Exotico()</text>
<text text-anchor="start" x="661.75" y="-1074.5" font-family="Helvetica,sans-Serif" font-size="20.00">+ getLocal()</text>
<text text-anchor="start" x="661.75" y="-1052.5" font-family="Helvetica,sans-Serif" font-size="20.00">+ setLocal()</text>
<text text-anchor="start" x="661.75" y="-1030.5" font-family="Helvetica,sans-Serif" font-size="20.00">+ setLocal()</text>
</a>
</g>
</g>
<!-- Node6&#45;&gt;Node10 -->
<g id="edge14" class="edge">
<title>Node6&#45;&gt;Node10</title>
<path fill="none" stroke="#404040" d="M314.39,-1756.96C383.16,-1744.68 530.31,-1708.54 607.25,-1616 697.4,-1507.57 720.99,-1341.89 725.98,-1232.64"/>
<polygon fill="none" stroke="#404040" points="725.99,-1232.59 722.23,-1226.43 726.47,-1220.6 730.22,-1226.76 725.99,-1232.59"/>
<text text-anchor="middle" x="623.75" y="-1662" font-family="Helvetica,sans-Serif" font-size="20.00"> #local</text>
</g>
<!-- Node7 -->
<g id="node7" class="node">
<title>Node7</title>
<g id="a_node7"><a xlink:title=" ">
<polygon fill="white" stroke="#bfbfbf" points="491.75,-1382.5 491.75,-1472.5 598.75,-1472.5 598.75,-1382.5 491.75,-1382.5"/>
<text text-anchor="middle" x="545.25" y="-1452.5" font-family="Helvetica,sans-Serif" font-size="20.00">Uniforme</text>
<polyline fill="none" stroke="#bfbfbf" points="491.75,-1442.5 598.75,-1442.5 "/>
<text text-anchor="middle" x="545.25" y="-1422.5" font-family="Helvetica,sans-Serif" font-size="20.00"> </text>
<polyline fill="none" stroke="#bfbfbf" points="491.75,-1412.5 598.75,-1412.5 "/>
<text text-anchor="middle" x="545.25" y="-1392.5" font-family="Helvetica,sans-Serif" font-size="20.00"> </text>
</a>
</g>
</g>
<!-- Node7&#45;&gt;Node4 -->
<g id="edge6" class="edge">
<title>Node7&#45;&gt;Node4</title>
<path fill="none" stroke="#404040" d="M533.26,-1382.26C511.58,-1302.27 465.16,-1130.98 433.32,-1013.51"/>
<polygon fill="none" stroke="#404040" points="433.23,-1013.18 427.8,-1008.44 430.09,-1001.6 435.52,-1006.34 433.23,-1013.18"/>
<text text-anchor="middle" x="537.75" y="-1115.5" font-family="Helvetica,sans-Serif" font-size="20.00"> &#45;uniforme</text>
</g>
<!-- Node8 -->
<g id="node8" class="node">
<title>Node8</title>
<g id="a_node8"><a xlink:title=" ">
<polygon fill="white" stroke="#bfbfbf" points="536.75,-845.5 536.75,-935.5 595.75,-935.5 595.75,-845.5 536.75,-845.5"/>
<text text-anchor="middle" x="566.25" y="-915.5" font-family="Helvetica,sans-Serif" font-size="20.00">bool</text>
<polyline fill="none" stroke="#bfbfbf" points="536.75,-905.5 595.75,-905.5 "/>
<text text-anchor="middle" x="566.25" y="-885.5" font-family="Helvetica,sans-Serif" font-size="20.00"> </text>
<polyline fill="none" stroke="#bfbfbf" points="536.75,-875.5 595.75,-875.5 "/>
<text text-anchor="middle" x="566.25" y="-855.5" font-family="Helvetica,sans-Serif" font-size="20.00"> </text>
</a>
</g>
</g>
<!-- Node8&#45;&gt;Node2 -->
<g id="edge12" class="edge">
<title>Node8&#45;&gt;Node2</title>
<path fill="none" stroke="#404040" d="M567.65,-845.49C568.43,-820.68 569.41,-789.11 570.25,-761 574.11,-632.03 578.34,-483.85 581.13,-385.04"/>
<polygon fill="none" stroke="#404040" points="581.13,-384.93 577.3,-378.82 581.47,-372.94 585.3,-379.05 581.13,-384.93"/>
<text text-anchor="middle" x="637.75" y="-560.5" font-family="Helvetica,sans-Serif" font-size="20.00"> #gestacao</text>
</g>
<!-- Node8&#45;&gt;Node3 -->
<g id="edge7" class="edge">
<title>Node8&#45;&gt;Node3</title>
<path fill="none" stroke="#404040" d="M552.15,-845.3C543.03,-822.84 529.1,-796.64 509.25,-779 492.22,-763.86 479.03,-775.25 461.25,-761 453.58,-754.85 444.23,-743.99 434.11,-730.44"/>
<polygon fill="none" stroke="#404040" points="434.05,-730.36 427.28,-727.86 426.99,-720.65 433.76,-723.15 434.05,-730.36"/>
<text text-anchor="middle" x="515.75" y="-745" font-family="Helvetica,sans-Serif" font-size="20.00"> #perigoso</text>
</g>
<!-- Node9&#45;&gt;Node3 -->
<g id="edge9" class="edge">
<title>Node9&#45;&gt;Node3</title>
<path fill="none" stroke="#404040" d="M185.87,-779.21C188.46,-765.38 192.12,-751.65 197.25,-739 202.47,-726.13 208.97,-713.43 216.28,-701.12"/>
<polygon fill="none" stroke="#404040" points="216.3,-701.1 216.04,-693.89 222.6,-690.88 222.85,-698.09 216.3,-701.1"/>
<text text-anchor="middle" x="262.25" y="-745" font-family="Helvetica,sans-Serif" font-size="20.00"> #veterinario</text>
</g>
<!-- Node10&#45;&gt;Node1 -->
<g id="edge13" class="edge">
<title>Node10&#45;&gt;Node1</title>
<path fill="none" stroke="midnightblue" d="M725.25,-1010.01C725.25,-936.71 725.25,-838.07 725.25,-751 725.25,-751 725.25,-751 725.25,-271.5 725.25,-223.9 707.64,-173.36 689.96,-134.61"/>
<polygon fill="none" stroke="midnightblue" points="721.75,-1010.18 725.25,-1020.18 728.75,-1010.18 721.75,-1010.18"/>
</g>
</g>
</svg>
