<?xml version="1.0" encoding="UTF-8" standalone="no"?>
<!DOCTYPE svg PUBLIC "-//W3C//DTD SVG 1.1//EN"
 "http://www.w3.org/Graphics/SVG/1.1/DTD/svg11.dtd">
<!-- Generated by graphviz version 2.40.1 (20161225.0304)
 -->
<!-- Title: MamiferoExotico Pages: 1 -->
<!--zoomable 1618 -->
<svg id="main" version="1.1" xmlns="http://www.w3.org/2000/svg" xmlns:xlink="http://www.w3.org/1999/xlink" xml:space="preserve" onload="init(evt)">
<style type="text/css"><![CDATA[
.edge:hover path { stroke: red; }
.edge:hover polygon { stroke: red; fill: red; }
]]></style>
<script type="text/javascript"><![CDATA[
var edges = document.getElementsByTagName('g');
if (edges && edges.length) {
  for (var i=0;i<edges.length;i++) {
    if (edges[i].id.substr(0,4)=='edge') {
      edges[i].setAttribute('class','edge');
    }
  }
}
]]></script>
        <defs>
                <circle id="rim" cx="0" cy="0" r="7"/>
                <circle id="rim2" cx="0" cy="0" r="3.5"/>
                <g id="zoomPlus">
                        <use xlink:href="#rim" fill="#404040">
                                <set attributeName="fill" to="#808080" begin="zoomplus.mouseover" end="zoomplus.mouseout"/>
                        </use>
                        <path d="M-4,0h8M0,-4v8" fill="none" stroke="white" stroke-width="1.5" pointer-events="none"/>
                </g>
                <g id="zoomMin">
                        <use xlink:href="#rim" fill="#404040">
                                <set attributeName="fill" to="#808080" begin="zoomminus.mouseover" end="zoomminus.mouseout"/>
                        </use>
                        <path d="M-4,0h8" fill="none" stroke="white" stroke-width="1.5" pointer-events="none"/>
                </g>
                <g id="dirArrow">
                        <path fill="none" stroke="white" stroke-width="1.5" d="M0,-3.0v7 M-2.5,-0.5L0,-3.0L2.5,-0.5"/>
                </g>
               <g id="resetDef">
                       <use xlink:href="#rim2" fill="#404040">
                               <set attributeName="fill" to="#808080" begin="reset.mouseover" end="reset.mouseout"/>
                       </use>
               </g>
        </defs>

<script type="text/javascript">
var viewWidth = 790;
var viewHeight = 1618;
var sectionId = 'dynsection-1';
</script>
<script xlink:href="svgpan.js"/>
<svg id="graph" class="graph">
<g id="viewport">
<title>MamiferoExotico</title>
<polygon fill="#ffffff" stroke="transparent" points="-4,4 -4,-1614 785.9802,-1614 785.9802,4 -4,4"/>
<!-- Node4 -->
<g id="node1" class="node">
<title>Node4</title>
<polygon fill="#bfbfbf" stroke="#000000" points="68.4802,-.5 68.4802,-112.5 259.4802,-112.5 259.4802,-.5 68.4802,-.5"/>
<text text-anchor="middle" x="163.9802" y="-92.5" font-family="Helvetica,sans-Serif" font-size="20.00" fill="#000000">MamiferoExotico</text>
<polyline fill="none" stroke="#000000" points="68.4802,-82.5 259.4802,-82.5 "/>
<text text-anchor="middle" x="163.9802" y="-62.5" font-family="Helvetica,sans-Serif" font-size="20.00" fill="#000000"> </text>
<polyline fill="none" stroke="#000000" points="68.4802,-52.5 259.4802,-52.5 "/>
<text text-anchor="start" x="76.4802" y="-32.5" font-family="Helvetica,sans-Serif" font-size="20.00" fill="#000000">+ MamiferoExotico()</text>
<text text-anchor="start" x="76.4802" y="-10.5" font-family="Helvetica,sans-Serif" font-size="20.00" fill="#000000">+ ~MamiferoExotico()</text>
</g>
<!-- Node5 -->
<g id="node2" class="node">
<title>Node5</title>
<g id="a_node2"><a xlink:href="classMamifero.html" target="_top" xlink:title="Classificação base para Mamiferos. ">
<polygon fill="#ffffff" stroke="#000000" points="45.4802,-325.5 45.4802,-459.5 192.4802,-459.5 192.4802,-325.5 45.4802,-325.5"/>
<text text-anchor="middle" x="118.9802" y="-439.5" font-family="Helvetica,sans-Serif" font-size="20.00" fill="#000000">Mamifero</text>
<polyline fill="none" stroke="#000000" points="45.4802,-429.5 192.4802,-429.5 "/>
<text text-anchor="middle" x="118.9802" y="-409.5" font-family="Helvetica,sans-Serif" font-size="20.00" fill="#000000"> </text>
<polyline fill="none" stroke="#000000" points="45.4802,-399.5 192.4802,-399.5 "/>
<text text-anchor="start" x="53.4802" y="-379.5" font-family="Helvetica,sans-Serif" font-size="20.00" fill="#000000">+ Mamifero()</text>
<text text-anchor="start" x="53.4802" y="-357.5" font-family="Helvetica,sans-Serif" font-size="20.00" fill="#000000">+ ~Mamifero()</text>
<text text-anchor="start" x="53.4802" y="-335.5" font-family="Helvetica,sans-Serif" font-size="20.00" fill="#000000">+ getGestacao()</text>
</a>
</g>
</g>
<!-- Node5&#45;&gt;Node4 -->
<g id="edge1" class="edge">
<title>Node5&#45;&gt;Node4</title>
<path fill="none" stroke="#191970" d="M129.3308,-315.2151C137.6104,-253.3947 149.0249,-168.1665 156.4528,-112.7041"/>
<polygon fill="none" stroke="#191970" points="125.8369,-314.9368 127.9785,-325.3129 132.775,-315.8661 125.8369,-314.9368"/>
</g>
<!-- Node6 -->
<g id="node3" class="node">
<title>Node6</title>
<polygon fill="#ffffff" stroke="#bfbfbf" points="22.4802,-935.5 22.4802,-1025.5 73.4802,-1025.5 73.4802,-935.5 22.4802,-935.5"/>
<text text-anchor="middle" x="47.9802" y="-1005.5" font-family="Helvetica,sans-Serif" font-size="20.00" fill="#000000">bool</text>
<polyline fill="none" stroke="#bfbfbf" points="22.4802,-995.5 73.4802,-995.5 "/>
<text text-anchor="middle" x="47.9802" y="-975.5" font-family="Helvetica,sans-Serif" font-size="20.00" fill="#000000"> </text>
<polyline fill="none" stroke="#bfbfbf" points="22.4802,-965.5 73.4802,-965.5 "/>
<text text-anchor="middle" x="47.9802" y="-945.5" font-family="Helvetica,sans-Serif" font-size="20.00" fill="#000000"> </text>
</g>
<!-- Node6&#45;&gt;Node5 -->
<g id="edge2" class="edge">
<title>Node6&#45;&gt;Node5</title>
<path fill="none" stroke="#404040" d="M22.3418,-939.9723C9.3495,-915.0124 -2.9406,-881.9652 .9802,-851 18.191,-715.0723 63.0193,-561.7623 92.2017,-471.3389"/>
<polygon fill="none" stroke="#404040" points="92.237,-471.2302 90.287,-464.2878 95.9454,-459.8176 97.8954,-466.76 92.237,-471.2302"/>
<text text-anchor="middle" x="45.4802" y="-857" font-family="Helvetica,sans-Serif" font-size="20.00" fill="#000000"> #gestacao</text>
</g>
<!-- Node8 -->
<g id="node5" class="node">
<title>Node8</title>
<g id="a_node5"><a xlink:href="classAnimal.html" target="_top" xlink:title="Implementação base para o cadastro de animais. ">
<polygon fill="#ffffff" stroke="#000000" points="177.4802,-478.5 177.4802,-832.5 362.4802,-832.5 362.4802,-478.5 177.4802,-478.5"/>
<text text-anchor="middle" x="269.9802" y="-812.5" font-family="Helvetica,sans-Serif" font-size="20.00" fill="#000000">Animal</text>
<polyline fill="none" stroke="#000000" points="177.4802,-802.5 362.4802,-802.5 "/>
<text text-anchor="middle" x="269.9802" y="-782.5" font-family="Helvetica,sans-Serif" font-size="20.00" fill="#000000"> </text>
<polyline fill="none" stroke="#000000" points="177.4802,-772.5 362.4802,-772.5 "/>
<text text-anchor="start" x="185.4802" y="-752.5" font-family="Helvetica,sans-Serif" font-size="20.00" fill="#000000">+ Animal()</text>
<text text-anchor="start" x="185.4802" y="-730.5" font-family="Helvetica,sans-Serif" font-size="20.00" fill="#000000">+ Animal()</text>
<text text-anchor="start" x="185.4802" y="-708.5" font-family="Helvetica,sans-Serif" font-size="20.00" fill="#000000">+ ~Animal()</text>
<text text-anchor="start" x="185.4802" y="-686.5" font-family="Helvetica,sans-Serif" font-size="20.00" fill="#000000">+ getNome()</text>
<text text-anchor="start" x="185.4802" y="-664.5" font-family="Helvetica,sans-Serif" font-size="20.00" fill="#000000">+ getEspecie()</text>
<text text-anchor="start" x="185.4802" y="-642.5" font-family="Helvetica,sans-Serif" font-size="20.00" fill="#000000">+ getAmeacadoPor()</text>
<text text-anchor="start" x="185.4802" y="-620.5" font-family="Helvetica,sans-Serif" font-size="20.00" fill="#000000">+ getVeterinario()</text>
<text text-anchor="start" x="185.4802" y="-598.5" font-family="Helvetica,sans-Serif" font-size="20.00" fill="#000000">+ getTratador()</text>
<text text-anchor="start" x="185.4802" y="-576.5" font-family="Helvetica,sans-Serif" font-size="20.00" fill="#000000">+ getPerigoso()</text>
<text text-anchor="start" x="185.4802" y="-554.5" font-family="Helvetica,sans-Serif" font-size="20.00" fill="#000000">+ getClassificacao()</text>
<text text-anchor="start" x="185.4802" y="-532.5" font-family="Helvetica,sans-Serif" font-size="20.00" fill="#000000">+ getClasse()</text>
<text text-anchor="start" x="185.4802" y="-510.5" font-family="Helvetica,sans-Serif" font-size="20.00" fill="#000000">+ printOutDados()</text>
<text text-anchor="start" x="185.4802" y="-488.5" font-family="Helvetica,sans-Serif" font-size="20.00" fill="#000000">+ operator==()</text>
</a>
</g>
</g>
<!-- Node6&#45;&gt;Node8 -->
<g id="edge9" class="edge">
<title>Node6&#45;&gt;Node8</title>
<path fill="none" stroke="#404040" d="M64.1161,-935.4554C74.1982,-909.7981 88.4018,-877.5717 104.9802,-851 123.7259,-820.9544 146.8014,-790.6593 169.6909,-763.1849"/>
<polygon fill="none" stroke="#404040" points="169.7116,-763.1603 170.5156,-755.9941 177.4398,-753.9801 176.6358,-761.1462 169.7116,-763.1603"/>
<text text-anchor="middle" x="147.9802" y="-857" font-family="Helvetica,sans-Serif" font-size="20.00" fill="#000000"> #perigoso</text>
</g>
<!-- Node7 -->
<g id="node4" class="node">
<title>Node7</title>
<g id="a_node4"><a xlink:href="classExotico.html" target="_top" xlink:title="Umas das definições de categoria para Animal. ">
<polygon fill="#ffffff" stroke="#000000" points="212.9802,-150.5 212.9802,-306.5 326.9802,-306.5 326.9802,-150.5 212.9802,-150.5"/>
<text text-anchor="middle" x="269.9802" y="-286.5" font-family="Helvetica,sans-Serif" font-size="20.00" fill="#000000">Exotico</text>
<polyline fill="none" stroke="#000000" points="212.9802,-276.5 326.9802,-276.5 "/>
<text text-anchor="middle" x="269.9802" y="-256.5" font-family="Helvetica,sans-Serif" font-size="20.00" fill="#000000"> </text>
<polyline fill="none" stroke="#000000" points="212.9802,-246.5 326.9802,-246.5 "/>
<text text-anchor="start" x="220.9802" y="-226.5" font-family="Helvetica,sans-Serif" font-size="20.00" fill="#000000">+ Exotico()</text>
<text text-anchor="start" x="220.9802" y="-204.5" font-family="Helvetica,sans-Serif" font-size="20.00" fill="#000000">+ Exotico()</text>
<text text-anchor="start" x="220.9802" y="-182.5" font-family="Helvetica,sans-Serif" font-size="20.00" fill="#000000">+ ~Exotico()</text>
<text text-anchor="start" x="220.9802" y="-160.5" font-family="Helvetica,sans-Serif" font-size="20.00" fill="#000000">+ getLocal()</text>
</a>
</g>
</g>
<!-- Node7&#45;&gt;Node4 -->
<g id="edge3" class="edge">
<title>Node7&#45;&gt;Node4</title>
<path fill="none" stroke="#191970" d="M216.4585,-141.6534C210.3876,-131.8026 204.3259,-121.9667 198.592,-112.6626"/>
<polygon fill="none" stroke="#191970" points="213.5616,-143.6241 221.7878,-150.301 219.5209,-139.9515 213.5616,-143.6241"/>
</g>
<!-- Node8&#45;&gt;Node7 -->
<g id="edge4" class="edge">
<title>Node8&#45;&gt;Node7</title>
<path fill="none" stroke="#191970" d="M269.9802,-468.2288C269.9802,-411.4135 269.9802,-352.0823 269.9802,-306.6587"/>
<polygon fill="none" stroke="#191970" points="266.4803,-468.4318 269.9802,-478.4318 273.4803,-468.4319 266.4803,-468.4318"/>
</g>
<!-- Node9 -->
<g id="node6" class="node">
<title>Node9</title>
<g id="a_node6"><a xlink:href="classTratador.html" target="_top" xlink:title="Implementação dos tratadores. ">
<polygon fill="#ffffff" stroke="#000000" points="438.9802,-891.5 438.9802,-1069.5 602.9802,-1069.5 602.9802,-891.5 438.9802,-891.5"/>
<text text-anchor="middle" x="520.9802" y="-1049.5" font-family="Helvetica,sans-Serif" font-size="20.00" fill="#000000">Tratador</text>
<polyline fill="none" stroke="#000000" points="438.9802,-1039.5 602.9802,-1039.5 "/>
<text text-anchor="middle" x="520.9802" y="-1019.5" font-family="Helvetica,sans-Serif" font-size="20.00" fill="#000000"> </text>
<polyline fill="none" stroke="#000000" points="438.9802,-1009.5 602.9802,-1009.5 "/>
<text text-anchor="start" x="446.9802" y="-989.5" font-family="Helvetica,sans-Serif" font-size="20.00" fill="#000000">+ Tratador()</text>
<text text-anchor="start" x="446.9802" y="-967.5" font-family="Helvetica,sans-Serif" font-size="20.00" fill="#000000">+ Tratador()</text>
<text text-anchor="start" x="446.9802" y="-945.5" font-family="Helvetica,sans-Serif" font-size="20.00" fill="#000000">+ ~Tratador()</text>
<text text-anchor="start" x="446.9802" y="-923.5" font-family="Helvetica,sans-Serif" font-size="20.00" fill="#000000">+ getUniforme()</text>
<text text-anchor="start" x="446.9802" y="-901.5" font-family="Helvetica,sans-Serif" font-size="20.00" fill="#000000">+ printOutDados()</text>
</a>
</g>
</g>
<!-- Node9&#45;&gt;Node8 -->
<g id="edge5" class="edge">
<title>Node9&#45;&gt;Node8</title>
<path fill="none" stroke="#404040" d="M452.9082,-891.2583C442.5645,-877.7553 432.0021,-863.9991 421.9802,-851 405.2129,-829.2516 387.35,-806.1851 369.982,-783.8122"/>
<polygon fill="none" stroke="#404040" points="369.9337,-783.75 363.0943,-781.4645 362.5735,-774.2722 369.4129,-776.5577 369.9337,-783.75"/>
<text text-anchor="middle" x="478.4802" y="-857" font-family="Helvetica,sans-Serif" font-size="20.00" fill="#000000"> #tratador</text>
</g>
<!-- Node10 -->
<g id="node7" class="node">
<title>Node10</title>
<g id="a_node7"><a xlink:href="classPessoa.html" target="_top" xlink:title="Classe base dos funcionarios. ">
<polygon fill="#ffffff" stroke="#000000" points="426.9802,-1172.5 426.9802,-1416.5 590.9802,-1416.5 590.9802,-1172.5 426.9802,-1172.5"/>
<text text-anchor="middle" x="508.9802" y="-1396.5" font-family="Helvetica,sans-Serif" font-size="20.00" fill="#000000">Pessoa</text>
<polyline fill="none" stroke="#000000" points="426.9802,-1386.5 590.9802,-1386.5 "/>
<text text-anchor="middle" x="508.9802" y="-1366.5" font-family="Helvetica,sans-Serif" font-size="20.00" fill="#000000"> </text>
<polyline fill="none" stroke="#000000" points="426.9802,-1356.5 590.9802,-1356.5 "/>
<text text-anchor="start" x="434.9802" y="-1336.5" font-family="Helvetica,sans-Serif" font-size="20.00" fill="#000000">+ Pessoa()</text>
<text text-anchor="start" x="434.9802" y="-1314.5" font-family="Helvetica,sans-Serif" font-size="20.00" fill="#000000">+ Pessoa()</text>
<text text-anchor="start" x="434.9802" y="-1292.5" font-family="Helvetica,sans-Serif" font-size="20.00" fill="#000000">+ ~Pessoa()</text>
<text text-anchor="start" x="434.9802" y="-1270.5" font-family="Helvetica,sans-Serif" font-size="20.00" fill="#000000">+ getNome()</text>
<text text-anchor="start" x="434.9802" y="-1248.5" font-family="Helvetica,sans-Serif" font-size="20.00" fill="#000000">+ getTelefone()</text>
<text text-anchor="start" x="434.9802" y="-1226.5" font-family="Helvetica,sans-Serif" font-size="20.00" fill="#000000">+ getEmail()</text>
<text text-anchor="start" x="434.9802" y="-1204.5" font-family="Helvetica,sans-Serif" font-size="20.00" fill="#000000">+ printOutDados()</text>
<text text-anchor="start" x="434.9802" y="-1182.5" font-family="Helvetica,sans-Serif" font-size="20.00" fill="#000000">+ operator==()</text>
</a>
</g>
</g>
<!-- Node10&#45;&gt;Node9 -->
<g id="edge6" class="edge">
<title>Node10&#45;&gt;Node9</title>
<path fill="none" stroke="#191970" d="M514.0381,-1162.152C515.227,-1131.0404 516.4667,-1098.6041 517.5638,-1069.8956"/>
<polygon fill="none" stroke="#191970" points="510.5386,-1162.0739 513.6541,-1172.2003 517.5335,-1162.3413 510.5386,-1162.0739"/>
</g>
<!-- Node13 -->
<g id="node10" class="node">
<title>Node13</title>
<g id="a_node10"><a xlink:href="classVeterinario.html" target="_top" xlink:title="Implementação dos veterinarios. ">
<polygon fill="#ffffff" stroke="#000000" points="256.9802,-891.5 256.9802,-1069.5 420.9802,-1069.5 420.9802,-891.5 256.9802,-891.5"/>
<text text-anchor="middle" x="338.9802" y="-1049.5" font-family="Helvetica,sans-Serif" font-size="20.00" fill="#000000">Veterinario</text>
<polyline fill="none" stroke="#000000" points="256.9802,-1039.5 420.9802,-1039.5 "/>
<text text-anchor="middle" x="338.9802" y="-1019.5" font-family="Helvetica,sans-Serif" font-size="20.00" fill="#000000"> </text>
<polyline fill="none" stroke="#000000" points="256.9802,-1009.5 420.9802,-1009.5 "/>
<text text-anchor="start" x="264.9802" y="-989.5" font-family="Helvetica,sans-Serif" font-size="20.00" fill="#000000">+ Veterinario()</text>
<text text-anchor="start" x="264.9802" y="-967.5" font-family="Helvetica,sans-Serif" font-size="20.00" fill="#000000">+ Veterinario()</text>
<text text-anchor="start" x="264.9802" y="-945.5" font-family="Helvetica,sans-Serif" font-size="20.00" fill="#000000">+ ~Veterinario()</text>
<text text-anchor="start" x="264.9802" y="-923.5" font-family="Helvetica,sans-Serif" font-size="20.00" fill="#000000">+ getCRMV()</text>
<text text-anchor="start" x="264.9802" y="-901.5" font-family="Helvetica,sans-Serif" font-size="20.00" fill="#000000">+ printOutDados()</text>
</a>
</g>
</g>
<!-- Node10&#45;&gt;Node13 -->
<g id="edge12" class="edge">
<title>Node10&#45;&gt;Node13</title>
<path fill="none" stroke="#191970" d="M437.9827,-1163.3635C420.9394,-1131.8835 403.1237,-1098.9769 387.3791,-1069.8956"/>
<polygon fill="none" stroke="#191970" points="434.928,-1165.0728 442.767,-1172.2003 441.0838,-1161.74 434.928,-1165.0728"/>
</g>
<!-- Node11 -->
<g id="node8" class="node">
<title>Node11</title>
<polygon fill="#ffffff" stroke="#bfbfbf" points="393.9802,-1519.5 393.9802,-1609.5 457.9802,-1609.5 457.9802,-1519.5 393.9802,-1519.5"/>
<text text-anchor="middle" x="425.9802" y="-1589.5" font-family="Helvetica,sans-Serif" font-size="20.00" fill="#000000">string</text>
<polyline fill="none" stroke="#bfbfbf" points="393.9802,-1579.5 457.9802,-1579.5 "/>
<text text-anchor="middle" x="425.9802" y="-1559.5" font-family="Helvetica,sans-Serif" font-size="20.00" fill="#000000"> </text>
<polyline fill="none" stroke="#bfbfbf" points="393.9802,-1549.5 457.9802,-1549.5 "/>
<text text-anchor="middle" x="425.9802" y="-1529.5" font-family="Helvetica,sans-Serif" font-size="20.00" fill="#000000"> </text>
</g>
<!-- Node11&#45;&gt;Node7 -->
<g id="edge14" class="edge">
<title>Node11&#45;&gt;Node7</title>
<path fill="none" stroke="#404040" d="M458.2171,-1557.8108C518.4468,-1543.4966 647.5922,-1503.869 709.9802,-1417 742.1192,-1372.2497 728.9802,-1349.5954 728.9802,-1294.5 728.9802,-1294.5 728.9802,-1294.5 728.9802,-655.5 728.9802,-444.7301 466.3217,-308.4939 338.3891,-254.6381"/>
<polygon fill="none" stroke="#404040" points="338.2679,-254.5878 331.1928,-255.9819 327.1848,-249.9872 334.2599,-248.5932 338.2679,-254.5878"/>
<text text-anchor="middle" x="755.4802" y="-975.5" font-family="Helvetica,sans-Serif" font-size="20.00" fill="#000000"> #local</text>
</g>
<!-- Node11&#45;&gt;Node8 -->
<g id="edge10" class="edge">
<title>Node11&#45;&gt;Node8</title>
<path fill="none" stroke="#404040" d="M393.9346,-1541.5358C380.246,-1530.4882 364.9339,-1516.3206 353.9802,-1501 256.8667,-1365.1712 242.6092,-1317.7554 209.9802,-1154 189.7855,-1052.6487 201.1631,-938.259 219.2016,-844.6435"/>
<polygon fill="none" stroke="#404040" points="219.2257,-844.521 216.464,-837.8597 221.5507,-832.7483 224.3125,-839.4097 219.2257,-844.521"/>
<text text-anchor="middle" x="271.4802" y="-1138" font-family="Helvetica,sans-Serif" font-size="20.00" fill="#000000"> #especie</text>
<text text-anchor="middle" x="271.4802" y="-1116" font-family="Helvetica,sans-Serif" font-size="20.00" fill="#000000">#ameacadoPor</text>
<text text-anchor="middle" x="271.4802" y="-1094" font-family="Helvetica,sans-Serif" font-size="20.00" fill="#000000">#nome</text>
</g>
<!-- Node11&#45;&gt;Node10 -->
<g id="edge7" class="edge">
<title>Node11&#45;&gt;Node10</title>
<path fill="none" stroke="#404040" d="M439.8725,-1519.3081C447.6334,-1494.0618 457.7518,-1461.1466 467.8417,-1428.3241"/>
<polygon fill="none" stroke="#404040" points="467.8794,-1428.2012 465.819,-1421.2907 471.4055,-1416.731 473.4658,-1423.6415 467.8794,-1428.2012"/>
<text text-anchor="middle" x="503.4802" y="-1485" font-family="Helvetica,sans-Serif" font-size="20.00" fill="#000000"> #email</text>
<text text-anchor="middle" x="503.4802" y="-1463" font-family="Helvetica,sans-Serif" font-size="20.00" fill="#000000">#nome</text>
<text text-anchor="middle" x="503.4802" y="-1441" font-family="Helvetica,sans-Serif" font-size="20.00" fill="#000000">#telefone</text>
</g>
<!-- Node11&#45;&gt;Node13 -->
<g id="edge13" class="edge">
<title>Node11&#45;&gt;Node13</title>
<path fill="none" stroke="#404040" d="M396.8542,-1519.3693C380.3325,-1491.1593 361.1705,-1453.3884 351.9802,-1417 336.5845,-1356.0417 335.6812,-1190.8494 336.954,-1082.0732"/>
<polygon fill="none" stroke="#404040" points="336.9579,-1081.7563 333.0343,-1075.706 337.1101,-1069.7573 341.0337,-1075.8075 336.9579,-1081.7563"/>
<text text-anchor="middle" x="384.9802" y="-1289.5" font-family="Helvetica,sans-Serif" font-size="20.00" fill="#000000"> &#45;CRMV</text>
</g>
<!-- Node12 -->
<g id="node9" class="node">
<title>Node12</title>
<polygon fill="#ffffff" stroke="#bfbfbf" points="608.9802,-1249.5 608.9802,-1339.5 700.9802,-1339.5 700.9802,-1249.5 608.9802,-1249.5"/>
<text text-anchor="middle" x="654.9802" y="-1319.5" font-family="Helvetica,sans-Serif" font-size="20.00" fill="#000000">Uniforme</text>
<polyline fill="none" stroke="#bfbfbf" points="608.9802,-1309.5 700.9802,-1309.5 "/>
<text text-anchor="middle" x="654.9802" y="-1289.5" font-family="Helvetica,sans-Serif" font-size="20.00" fill="#000000"> </text>
<polyline fill="none" stroke="#bfbfbf" points="608.9802,-1279.5 700.9802,-1279.5 "/>
<text text-anchor="middle" x="654.9802" y="-1259.5" font-family="Helvetica,sans-Serif" font-size="20.00" fill="#000000"> </text>
</g>
<!-- Node12&#45;&gt;Node9 -->
<g id="edge8" class="edge">
<title>Node12&#45;&gt;Node9</title>
<path fill="none" stroke="#404040" d="M635.6385,-1249.177C616.9188,-1205.3115 587.9079,-1137.3307 563.7524,-1080.7275"/>
<polygon fill="none" stroke="#404040" points="563.7007,-1080.606 557.6666,-1076.6576 558.9905,-1069.569 565.0246,-1073.5175 563.7007,-1080.606"/>
<text text-anchor="middle" x="633.9802" y="-1116" font-family="Helvetica,sans-Serif" font-size="20.00" fill="#000000"> &#45;uniforme</text>
</g>
<!-- Node13&#45;&gt;Node8 -->
<g id="edge11" class="edge">
<title>Node13&#45;&gt;Node8</title>
<path fill="none" stroke="#404040" d="M320.0344,-891.2624C316.8882,-876.4435 313.5238,-860.5965 310.0829,-844.3897"/>
<polygon fill="none" stroke="#404040" points="310.0582,-844.273 304.8993,-839.2345 307.566,-832.5346 312.7249,-837.573 310.0582,-844.273"/>
<text text-anchor="middle" x="366.4802" y="-857" font-family="Helvetica,sans-Serif" font-size="20.00" fill="#000000"> #veterinario</text>
</g>
</g>
</svg>
        <g id="navigator" transform="translate(0 0)" fill="#404254">
                <rect fill="#f2f5e9" fill-opacity="0.5" stroke="#606060" stroke-width=".5" x="0" y="0" width="60" height="60"/>
                <use id="zoomplus" xlink:href="#zoomPlus" x="17" y="9" onmousedown="handleZoom(evt,'in')"/>
                <use id="zoomminus" xlink:href="#zoomMin" x="42" y="9" onmousedown="handleZoom(evt,'out')"/>
                <use id="reset" xlink:href="#resetDef" x="30" y="36" onmousedown="handleReset()"/>
                <g id="arrowUp" xlink:href="#dirArrow" transform="translate(30 24)" onmousedown="handlePan(0,-1)">
                  <use xlink:href="#rim" fill="#404040">
                        <set attributeName="fill" to="#808080" begin="arrowUp.mouseover" end="arrowUp.mouseout"/>
                  </use>
                  <path fill="none" stroke="white" stroke-width="1.5" d="M0,-3.0v7 M-2.5,-0.5L0,-3.0L2.5,-0.5"/>
                </g>
                <g id="arrowRight" xlink:href="#dirArrow" transform="rotate(90) translate(36 -43)" onmousedown="handlePan(1,0)">
                  <use xlink:href="#rim" fill="#404040">
                        <set attributeName="fill" to="#808080" begin="arrowRight.mouseover" end="arrowRight.mouseout"/>
                  </use>
                  <path fill="none" stroke="white" stroke-width="1.5" d="M0,-3.0v7 M-2.5,-0.5L0,-3.0L2.5,-0.5"/>
                </g>
                <g id="arrowDown" xlink:href="#dirArrow" transform="rotate(180) translate(-30 -48)" onmousedown="handlePan(0,1)">
                  <use xlink:href="#rim" fill="#404040">
                        <set attributeName="fill" to="#808080" begin="arrowDown.mouseover" end="arrowDown.mouseout"/>
                  </use>
                  <path fill="none" stroke="white" stroke-width="1.5" d="M0,-3.0v7 M-2.5,-0.5L0,-3.0L2.5,-0.5"/>
                </g>
                <g id="arrowLeft" xlink:href="#dirArrow" transform="rotate(270) translate(-36 17)" onmousedown="handlePan(-1,0)">
                  <use xlink:href="#rim" fill="#404040">
                        <set attributeName="fill" to="#808080" begin="arrowLeft.mouseover" end="arrowLeft.mouseout"/>
                  </use>
                  <path fill="none" stroke="white" stroke-width="1.5" d="M0,-3.0v7 M-2.5,-0.5L0,-3.0L2.5,-0.5"/>
                </g>
        </g>
        <svg viewBox="0 0 15 15" width="100%" height="30px" preserveAspectRatio="xMaxYMin meet">
         <g id="arrow_out" transform="scale(0.3 0.3)">
          <a xlink:href="classMamiferoExotico__coll__graph_org.svg" target="_base">
           <rect id="button" ry="5" rx="5" y="6" x="6" height="38" width="38"
                fill="#f2f5e9" fill-opacity="0.5" stroke="#606060" stroke-width="1.0"/>
           <path id="arrow"
             d="M 11.500037,31.436501 C 11.940474,20.09759 22.043105,11.32322 32.158766,21.979434 L 37.068811,17.246167 C 37.068811,17.246167 37.088388,32 37.088388,32 L 22.160133,31.978069 C 22.160133,31.978069 26.997745,27.140456 26.997745,27.140456 C 18.528582,18.264221 13.291696,25.230495 11.500037,31.436501 z"
             style="fill:#404040;"/>
          </a>
         </g>
        </svg>
</svg>
