<?xml version="1.0" encoding="UTF-8" standalone="no"?>
<!DOCTYPE svg PUBLIC "-//W3C//DTD SVG 1.1//EN"
 "http://www.w3.org/Graphics/SVG/1.1/DTD/svg11.dtd">
<!-- Generated by graphviz version 2.43.0 (0)
 -->
<!-- Title: Anfibio Pages: 1 -->
<svg width="715pt" height="1334pt"
 viewBox="0.00 0.00 714.93 1334.00" xmlns="http://www.w3.org/2000/svg" xmlns:xlink="http://www.w3.org/1999/xlink">
<g id="graph0" class="graph" transform="scale(1 1) rotate(0) translate(4 1330)">
<title>Anfibio</title>
<polygon fill="white" stroke="transparent" points="-4,4 -4,-1330 710.93,-1330 710.93,4 -4,4"/>
<!-- Node1 -->
<g id="node1" class="node">
<title>Node1</title>
<g id="a_node1"><a xlink:title="Classificação base para Anfibios.">
<polygon fill="#bfbfbf" stroke="black" points="489.93,-0.5 489.93,-156.5 639.93,-156.5 639.93,-0.5 489.93,-0.5"/>
<text text-anchor="middle" x="564.93" y="-136.5" font-family="Helvetica,sans-Serif" font-size="20.00">Anfibio</text>
<polyline fill="none" stroke="black" points="489.93,-126.5 639.93,-126.5 "/>
<text text-anchor="middle" x="564.93" y="-106.5" font-family="Helvetica,sans-Serif" font-size="20.00"> </text>
<polyline fill="none" stroke="black" points="489.93,-96.5 639.93,-96.5 "/>
<text text-anchor="start" x="497.93" y="-76.5" font-family="Helvetica,sans-Serif" font-size="20.00">+ Anfibio()</text>
<text text-anchor="start" x="497.93" y="-54.5" font-family="Helvetica,sans-Serif" font-size="20.00">+ ~Anfibio()</text>
<text text-anchor="start" x="497.93" y="-32.5" font-family="Helvetica,sans-Serif" font-size="20.00">+ getCauda()</text>
<text text-anchor="start" x="497.93" y="-10.5" font-family="Helvetica,sans-Serif" font-size="20.00">+ getPata()</text>
</a>
</g>
</g>
<!-- Node2 -->
<g id="node2" class="node">
<title>Node2</title>
<g id="a_node2"><a xlink:href="classAnimal.html" target="_top" xlink:title="Implementação base para o cadastro de animais.">
<polygon fill="white" stroke="black" points="375.43,-194.5 375.43,-548.5 598.43,-548.5 598.43,-194.5 375.43,-194.5"/>
<text text-anchor="middle" x="486.93" y="-528.5" font-family="Helvetica,sans-Serif" font-size="20.00">Animal</text>
<polyline fill="none" stroke="black" points="375.43,-518.5 598.43,-518.5 "/>
<text text-anchor="middle" x="486.93" y="-498.5" font-family="Helvetica,sans-Serif" font-size="20.00"> </text>
<polyline fill="none" stroke="black" points="375.43,-488.5 598.43,-488.5 "/>
<text text-anchor="start" x="383.43" y="-468.5" font-family="Helvetica,sans-Serif" font-size="20.00">+ Animal()</text>
<text text-anchor="start" x="383.43" y="-446.5" font-family="Helvetica,sans-Serif" font-size="20.00">+ Animal()</text>
<text text-anchor="start" x="383.43" y="-424.5" font-family="Helvetica,sans-Serif" font-size="20.00">+ ~Animal()</text>
<text text-anchor="start" x="383.43" y="-402.5" font-family="Helvetica,sans-Serif" font-size="20.00">+ getNome()</text>
<text text-anchor="start" x="383.43" y="-380.5" font-family="Helvetica,sans-Serif" font-size="20.00">+ getEspecie()</text>
<text text-anchor="start" x="383.43" y="-358.5" font-family="Helvetica,sans-Serif" font-size="20.00">+ getAmeacadoPor()</text>
<text text-anchor="start" x="383.43" y="-336.5" font-family="Helvetica,sans-Serif" font-size="20.00">+ getVeterinario()</text>
<text text-anchor="start" x="383.43" y="-314.5" font-family="Helvetica,sans-Serif" font-size="20.00">+ getTratador()</text>
<text text-anchor="start" x="383.43" y="-292.5" font-family="Helvetica,sans-Serif" font-size="20.00">+ getPerigoso()</text>
<text text-anchor="start" x="383.43" y="-270.5" font-family="Helvetica,sans-Serif" font-size="20.00">+ getClassificacao()</text>
<text text-anchor="start" x="383.43" y="-248.5" font-family="Helvetica,sans-Serif" font-size="20.00">+ getClasse()</text>
<text text-anchor="start" x="383.43" y="-226.5" font-family="Helvetica,sans-Serif" font-size="20.00">+ printOutDados()</text>
<text text-anchor="start" x="383.43" y="-204.5" font-family="Helvetica,sans-Serif" font-size="20.00">+ operator==()</text>
</a>
</g>
</g>
<!-- Node2&#45;&gt;Node1 -->
<g id="edge1" class="edge">
<title>Node2&#45;&gt;Node1</title>
<path fill="none" stroke="midnightblue" d="M536.81,-184.41C539.39,-174.8 541.89,-165.45 544.28,-156.54"/>
<polygon fill="none" stroke="midnightblue" points="533.43,-183.53 534.22,-194.09 540.19,-185.34 533.43,-183.53"/>
</g>
<!-- Node3 -->
<g id="node3" class="node">
<title>Node3</title>
<g id="a_node3"><a xlink:href="classTratador.html" target="_top" xlink:title="Implementação dos tratadores.">
<polygon fill="white" stroke="black" points="258.93,-607.5 258.93,-785.5 458.93,-785.5 458.93,-607.5 258.93,-607.5"/>
<text text-anchor="middle" x="358.93" y="-765.5" font-family="Helvetica,sans-Serif" font-size="20.00">Tratador</text>
<polyline fill="none" stroke="black" points="258.93,-755.5 458.93,-755.5 "/>
<text text-anchor="middle" x="358.93" y="-735.5" font-family="Helvetica,sans-Serif" font-size="20.00"> </text>
<polyline fill="none" stroke="black" points="258.93,-725.5 458.93,-725.5 "/>
<text text-anchor="start" x="266.93" y="-705.5" font-family="Helvetica,sans-Serif" font-size="20.00">+ Tratador()</text>
<text text-anchor="start" x="266.93" y="-683.5" font-family="Helvetica,sans-Serif" font-size="20.00">+ Tratador()</text>
<text text-anchor="start" x="266.93" y="-661.5" font-family="Helvetica,sans-Serif" font-size="20.00">+ ~Tratador()</text>
<text text-anchor="start" x="266.93" y="-639.5" font-family="Helvetica,sans-Serif" font-size="20.00">+ getUniforme()</text>
<text text-anchor="start" x="266.93" y="-617.5" font-family="Helvetica,sans-Serif" font-size="20.00">+ printOutDados()</text>
</a>
</g>
</g>
<!-- Node3&#45;&gt;Node2 -->
<g id="edge2" class="edge">
<title>Node3&#45;&gt;Node2</title>
<path fill="none" stroke="#404040" d="M361.12,-607.34C362.99,-593.63 365.79,-579.78 369.93,-567 370.67,-564.72 371.44,-562.43 372.25,-560.14"/>
<polygon fill="none" stroke="#404040" points="372.31,-559.97 370.65,-552.95 376.48,-548.72 378.15,-555.74 372.31,-559.97"/>
<text text-anchor="middle" x="421.43" y="-573" font-family="Helvetica,sans-Serif" font-size="20.00"> #tratador</text>
</g>
<!-- Node4 -->
<g id="node4" class="node">
<title>Node4</title>
<g id="a_node4"><a xlink:href="classPessoa.html" target="_top" xlink:title="Classe base dos funcionarios.">
<polygon fill="white" stroke="black" points="110.93,-888.5 110.93,-1132.5 310.93,-1132.5 310.93,-888.5 110.93,-888.5"/>
<text text-anchor="middle" x="210.93" y="-1112.5" font-family="Helvetica,sans-Serif" font-size="20.00">Pessoa</text>
<polyline fill="none" stroke="black" points="110.93,-1102.5 310.93,-1102.5 "/>
<text text-anchor="middle" x="210.93" y="-1082.5" font-family="Helvetica,sans-Serif" font-size="20.00"> </text>
<polyline fill="none" stroke="black" points="110.93,-1072.5 310.93,-1072.5 "/>
<text text-anchor="start" x="118.93" y="-1052.5" font-family="Helvetica,sans-Serif" font-size="20.00">+ Pessoa()</text>
<text text-anchor="start" x="118.93" y="-1030.5" font-family="Helvetica,sans-Serif" font-size="20.00">+ Pessoa()</text>
<text text-anchor="start" x="118.93" y="-1008.5" font-family="Helvetica,sans-Serif" font-size="20.00">+ ~Pessoa()</text>
<text text-anchor="start" x="118.93" y="-986.5" font-family="Helvetica,sans-Serif" font-size="20.00">+ getNome()</text>
<text text-anchor="start" x="118.93" y="-964.5" font-family="Helvetica,sans-Serif" font-size="20.00">+ getTelefone()</text>
<text text-anchor="start" x="118.93" y="-942.5" font-family="Helvetica,sans-Serif" font-size="20.00">+ getEmail()</text>
<text text-anchor="start" x="118.93" y="-920.5" font-family="Helvetica,sans-Serif" font-size="20.00">+ printOutDados()</text>
<text text-anchor="start" x="118.93" y="-898.5" font-family="Helvetica,sans-Serif" font-size="20.00">+ operator==()</text>
</a>
</g>
</g>
<!-- Node4&#45;&gt;Node3 -->
<g id="edge3" class="edge">
<title>Node4&#45;&gt;Node3</title>
<path fill="none" stroke="midnightblue" d="M272.77,-879.14C287.72,-847.62 303.35,-814.67 317.13,-785.62"/>
<polygon fill="none" stroke="midnightblue" points="269.49,-877.89 268.37,-888.43 275.81,-880.89 269.49,-877.89"/>
</g>
<!-- Node8 -->
<g id="node8" class="node">
<title>Node8</title>
<g id="a_node8"><a xlink:href="classVeterinario.html" target="_top" xlink:title="Implementação dos veterinarios.">
<polygon fill="white" stroke="black" points="40.93,-607.5 40.93,-785.5 240.93,-785.5 240.93,-607.5 40.93,-607.5"/>
<text text-anchor="middle" x="140.93" y="-765.5" font-family="Helvetica,sans-Serif" font-size="20.00">Veterinario</text>
<polyline fill="none" stroke="black" points="40.93,-755.5 240.93,-755.5 "/>
<text text-anchor="middle" x="140.93" y="-735.5" font-family="Helvetica,sans-Serif" font-size="20.00"> </text>
<polyline fill="none" stroke="black" points="40.93,-725.5 240.93,-725.5 "/>
<text text-anchor="start" x="48.93" y="-705.5" font-family="Helvetica,sans-Serif" font-size="20.00">+ Veterinario()</text>
<text text-anchor="start" x="48.93" y="-683.5" font-family="Helvetica,sans-Serif" font-size="20.00">+ Veterinario()</text>
<text text-anchor="start" x="48.93" y="-661.5" font-family="Helvetica,sans-Serif" font-size="20.00">+ ~Veterinario()</text>
<text text-anchor="start" x="48.93" y="-639.5" font-family="Helvetica,sans-Serif" font-size="20.00">+ getCRMV()</text>
<text text-anchor="start" x="48.93" y="-617.5" font-family="Helvetica,sans-Serif" font-size="20.00">+ printOutDados()</text>
</a>
</g>
</g>
<!-- Node4&#45;&gt;Node8 -->
<g id="edge9" class="edge">
<title>Node4&#45;&gt;Node8</title>
<path fill="none" stroke="midnightblue" d="M181.5,-878.33C174.49,-847.06 167.17,-814.42 160.7,-785.62"/>
<polygon fill="none" stroke="midnightblue" points="178.16,-879.43 183.77,-888.43 184.99,-877.9 178.16,-879.43"/>
</g>
<!-- Node5 -->
<g id="node5" class="node">
<title>Node5</title>
<g id="a_node5"><a xlink:title=" ">
<polygon fill="white" stroke="#bfbfbf" points="173.93,-1235.5 173.93,-1325.5 247.93,-1325.5 247.93,-1235.5 173.93,-1235.5"/>
<text text-anchor="middle" x="210.93" y="-1305.5" font-family="Helvetica,sans-Serif" font-size="20.00">string</text>
<polyline fill="none" stroke="#bfbfbf" points="173.93,-1295.5 247.93,-1295.5 "/>
<text text-anchor="middle" x="210.93" y="-1275.5" font-family="Helvetica,sans-Serif" font-size="20.00"> </text>
<polyline fill="none" stroke="#bfbfbf" points="173.93,-1265.5 247.93,-1265.5 "/>
<text text-anchor="middle" x="210.93" y="-1245.5" font-family="Helvetica,sans-Serif" font-size="20.00"> </text>
</a>
</g>
</g>
<!-- Node5&#45;&gt;Node2 -->
<g id="edge7" class="edge">
<title>Node5&#45;&gt;Node2</title>
<path fill="none" stroke="#404040" d="M248.35,-1268.13C302.29,-1249.55 400.33,-1207.13 444.93,-1133 500.82,-1040.13 502.35,-754.31 496.23,-560.77"/>
<polygon fill="none" stroke="#404040" points="496.22,-560.73 492.03,-554.86 495.83,-548.74 500.03,-554.6 496.22,-560.73"/>
<text text-anchor="middle" x="573.93" y="-854" font-family="Helvetica,sans-Serif" font-size="20.00"> #especie</text>
<text text-anchor="middle" x="573.93" y="-832" font-family="Helvetica,sans-Serif" font-size="20.00">#ameacadoPor</text>
<text text-anchor="middle" x="573.93" y="-810" font-family="Helvetica,sans-Serif" font-size="20.00">#nome</text>
</g>
<!-- Node5&#45;&gt;Node4 -->
<g id="edge4" class="edge">
<title>Node5&#45;&gt;Node4</title>
<path fill="none" stroke="#404040" d="M210.93,-1235.25C210.93,-1210.22 210.93,-1177.47 210.93,-1144.77"/>
<polygon fill="none" stroke="#404040" points="210.93,-1144.74 206.93,-1138.74 210.93,-1132.74 214.93,-1138.74 210.93,-1144.74"/>
<text text-anchor="middle" x="259.43" y="-1201" font-family="Helvetica,sans-Serif" font-size="20.00"> #email</text>
<text text-anchor="middle" x="259.43" y="-1179" font-family="Helvetica,sans-Serif" font-size="20.00">#nome</text>
<text text-anchor="middle" x="259.43" y="-1157" font-family="Helvetica,sans-Serif" font-size="20.00">#telefone</text>
</g>
<!-- Node5&#45;&gt;Node8 -->
<g id="edge10" class="edge">
<title>Node5&#45;&gt;Node8</title>
<path fill="none" stroke="#404040" d="M173.58,-1262.27C129.61,-1239.65 58.8,-1195.38 28.93,-1133 -18.09,-1034.79 0.34,-993.07 28.93,-888 37.59,-856.18 53.06,-824.26 69.79,-795.89"/>
<polygon fill="none" stroke="#404040" points="69.8,-795.87 69.48,-788.67 76,-785.6 76.32,-792.8 69.8,-795.87"/>
<text text-anchor="middle" x="65.43" y="-1005.5" font-family="Helvetica,sans-Serif" font-size="20.00"> &#45;CRMV</text>
</g>
<!-- Node6 -->
<g id="node6" class="node">
<title>Node6</title>
<g id="a_node6"><a xlink:title=" ">
<polygon fill="white" stroke="#bfbfbf" points="329.43,-965.5 329.43,-1055.5 436.43,-1055.5 436.43,-965.5 329.43,-965.5"/>
<text text-anchor="middle" x="382.93" y="-1035.5" font-family="Helvetica,sans-Serif" font-size="20.00">Uniforme</text>
<polyline fill="none" stroke="#bfbfbf" points="329.43,-1025.5 436.43,-1025.5 "/>
<text text-anchor="middle" x="382.93" y="-1005.5" font-family="Helvetica,sans-Serif" font-size="20.00"> </text>
<polyline fill="none" stroke="#bfbfbf" points="329.43,-995.5 436.43,-995.5 "/>
<text text-anchor="middle" x="382.93" y="-975.5" font-family="Helvetica,sans-Serif" font-size="20.00"> </text>
</a>
</g>
</g>
<!-- Node6&#45;&gt;Node3 -->
<g id="edge5" class="edge">
<title>Node6&#45;&gt;Node3</title>
<path fill="none" stroke="#404040" d="M374.77,-965.38C370.08,-938.03 364.62,-902.09 361.93,-870 359.99,-846.74 358.95,-821.66 358.45,-798.02"/>
<polygon fill="none" stroke="#404040" points="358.44,-797.81 354.34,-791.88 358.23,-785.81 362.34,-791.74 358.44,-797.81"/>
<text text-anchor="middle" x="413.43" y="-832" font-family="Helvetica,sans-Serif" font-size="20.00"> &#45;uniforme</text>
</g>
<!-- Node7 -->
<g id="node7" class="node">
<title>Node7</title>
<g id="a_node7"><a xlink:title=" ">
<polygon fill="white" stroke="#bfbfbf" points="564.43,-651.5 564.43,-741.5 623.43,-741.5 623.43,-651.5 564.43,-651.5"/>
<text text-anchor="middle" x="593.93" y="-721.5" font-family="Helvetica,sans-Serif" font-size="20.00">bool</text>
<polyline fill="none" stroke="#bfbfbf" points="564.43,-711.5 623.43,-711.5 "/>
<text text-anchor="middle" x="593.93" y="-691.5" font-family="Helvetica,sans-Serif" font-size="20.00"> </text>
<polyline fill="none" stroke="#bfbfbf" points="564.43,-681.5 623.43,-681.5 "/>
<text text-anchor="middle" x="593.93" y="-661.5" font-family="Helvetica,sans-Serif" font-size="20.00"> </text>
</a>
</g>
</g>
<!-- Node7&#45;&gt;Node1 -->
<g id="edge11" class="edge">
<title>Node7&#45;&gt;Node1</title>
<path fill="none" stroke="#404040" d="M612.5,-651.25C619.44,-632.42 626.48,-609.99 629.93,-589 631.52,-579.35 630.23,-576.77 629.93,-567 624.82,-400.99 641,-356.56 606.93,-194 605.16,-185.52 602.88,-176.83 600.3,-168.21"/>
<polygon fill="none" stroke="#404040" points="600.22,-167.97 594.6,-163.45 596.61,-156.52 602.23,-161.05 600.22,-167.97"/>
<text text-anchor="middle" x="667.93" y="-377.5" font-family="Helvetica,sans-Serif" font-size="20.00"> #pata</text>
<text text-anchor="middle" x="667.93" y="-355.5" font-family="Helvetica,sans-Serif" font-size="20.00">#cauda</text>
</g>
<!-- Node7&#45;&gt;Node2 -->
<g id="edge6" class="edge">
<title>Node7&#45;&gt;Node2</title>
<path fill="none" stroke="#404040" d="M564.28,-660.83C548.93,-641.04 531.28,-615.04 520.93,-589 517.25,-579.72 513.96,-570.08 511.03,-560.23"/>
<polygon fill="none" stroke="#404040" points="511,-560.14 505.52,-555.45 507.74,-548.59 513.22,-553.28 511,-560.14"/>
<text text-anchor="middle" x="575.43" y="-573" font-family="Helvetica,sans-Serif" font-size="20.00"> #perigoso</text>
</g>
<!-- Node8&#45;&gt;Node2 -->
<g id="edge8" class="edge">
<title>Node8&#45;&gt;Node2</title>
<path fill="none" stroke="#404040" d="M197.23,-607.26C207.73,-593.2 219.13,-579.27 230.93,-567 271.04,-525.31 320.63,-485.49 365.46,-452.87"/>
<polygon fill="none" stroke="#404040" points="365.51,-452.83 368.04,-446.08 375.24,-445.81 372.72,-452.56 365.51,-452.83"/>
<text text-anchor="middle" x="295.93" y="-573" font-family="Helvetica,sans-Serif" font-size="20.00"> #veterinario</text>
</g>
</g>
</svg>
