<?xml version="1.0" encoding="UTF-8" standalone="no"?>
<!DOCTYPE svg PUBLIC "-//W3C//DTD SVG 1.1//EN"
 "http://www.w3.org/Graphics/SVG/1.1/DTD/svg11.dtd">
<!-- Generated by graphviz version 2.40.1 (20161225.0304)
 -->
<!-- Title: ReptilNativo Pages: 1 -->
<!--zoomable 1527 -->
<svg id="main" version="1.1" xmlns="http://www.w3.org/2000/svg" xmlns:xlink="http://www.w3.org/1999/xlink" xml:space="preserve" onload="init(evt)">
<style type="text/css"><![CDATA[
.edge:hover path { stroke: red; }
.edge:hover polygon { stroke: red; fill: red; }
]]></style>
<script type="text/javascript"><![CDATA[
var edges = document.getElementsByTagName('g');
if (edges && edges.length) {
  for (var i=0;i<edges.length;i++) {
    if (edges[i].id.substr(0,4)=='edge') {
      edges[i].setAttribute('class','edge');
    }
  }
}
]]></script>
        <defs>
                <circle id="rim" cx="0" cy="0" r="7"/>
                <circle id="rim2" cx="0" cy="0" r="3.5"/>
                <g id="zoomPlus">
                        <use xlink:href="#rim" fill="#404040">
                                <set attributeName="fill" to="#808080" begin="zoomplus.mouseover" end="zoomplus.mouseout"/>
                        </use>
                        <path d="M-4,0h8M0,-4v8" fill="none" stroke="white" stroke-width="1.5" pointer-events="none"/>
                </g>
                <g id="zoomMin">
                        <use xlink:href="#rim" fill="#404040">
                                <set attributeName="fill" to="#808080" begin="zoomminus.mouseover" end="zoomminus.mouseout"/>
                        </use>
                        <path d="M-4,0h8" fill="none" stroke="white" stroke-width="1.5" pointer-events="none"/>
                </g>
                <g id="dirArrow">
                        <path fill="none" stroke="white" stroke-width="1.5" d="M0,-3.0v7 M-2.5,-0.5L0,-3.0L2.5,-0.5"/>
                </g>
               <g id="resetDef">
                       <use xlink:href="#rim2" fill="#404040">
                               <set attributeName="fill" to="#808080" begin="reset.mouseover" end="reset.mouseout"/>
                       </use>
               </g>
        </defs>

<script type="text/javascript">
var viewWidth = 624;
var viewHeight = 1527;
var sectionId = 'dynsection-1';
</script>
<script xlink:href="svgpan.js"/>
<svg id="graph" class="graph">
<g id="viewport">
<title>ReptilNativo</title>
<polygon fill="#ffffff" stroke="transparent" points="-4,4 -4,-1523 620.4682,-1523 620.4682,4 -4,4"/>
<!-- Node4 -->
<g id="node1" class="node">
<title>Node4</title>
<polygon fill="#bfbfbf" stroke="#000000" points="180.9682,-.5 180.9682,-112.5 335.9682,-112.5 335.9682,-.5 180.9682,-.5"/>
<text text-anchor="middle" x="258.4682" y="-92.5" font-family="Helvetica,sans-Serif" font-size="20.00" fill="#000000">ReptilNativo</text>
<polyline fill="none" stroke="#000000" points="180.9682,-82.5 335.9682,-82.5 "/>
<text text-anchor="middle" x="258.4682" y="-62.5" font-family="Helvetica,sans-Serif" font-size="20.00" fill="#000000"> </text>
<polyline fill="none" stroke="#000000" points="180.9682,-52.5 335.9682,-52.5 "/>
<text text-anchor="start" x="188.9682" y="-32.5" font-family="Helvetica,sans-Serif" font-size="20.00" fill="#000000">+ ReptilNativo()</text>
<text text-anchor="start" x="188.9682" y="-10.5" font-family="Helvetica,sans-Serif" font-size="20.00" fill="#000000">+ ~ReptilNativo()</text>
</g>
<!-- Node5 -->
<g id="node2" class="node">
<title>Node5</title>
<g id="a_node2"><a xlink:href="classReptil.html" target="_top" xlink:title="Classificação base para Repteis. ">
<polygon fill="#ffffff" stroke="#000000" points="137.4682,-161.5 137.4682,-317.5 243.4682,-317.5 243.4682,-161.5 137.4682,-161.5"/>
<text text-anchor="middle" x="190.4682" y="-297.5" font-family="Helvetica,sans-Serif" font-size="20.00" fill="#000000">Reptil</text>
<polyline fill="none" stroke="#000000" points="137.4682,-287.5 243.4682,-287.5 "/>
<text text-anchor="middle" x="190.4682" y="-267.5" font-family="Helvetica,sans-Serif" font-size="20.00" fill="#000000"> </text>
<polyline fill="none" stroke="#000000" points="137.4682,-257.5 243.4682,-257.5 "/>
<text text-anchor="start" x="145.4682" y="-237.5" font-family="Helvetica,sans-Serif" font-size="20.00" fill="#000000">+ Reptil()</text>
<text text-anchor="start" x="145.4682" y="-215.5" font-family="Helvetica,sans-Serif" font-size="20.00" fill="#000000">+ Reptil()</text>
<text text-anchor="start" x="145.4682" y="-193.5" font-family="Helvetica,sans-Serif" font-size="20.00" fill="#000000">+ ~Reptil()</text>
<text text-anchor="start" x="145.4682" y="-171.5" font-family="Helvetica,sans-Serif" font-size="20.00" fill="#000000">+ getPele()</text>
</a>
</g>
</g>
<!-- Node5&#45;&gt;Node4 -->
<g id="edge1" class="edge">
<title>Node5&#45;&gt;Node4</title>
<path fill="none" stroke="#191970" d="M223.0971,-151.6901C228.0498,-138.3614 233.0414,-124.9281 237.6506,-112.524"/>
<polygon fill="none" stroke="#191970" points="219.706,-150.7678 219.5036,-161.3607 226.2676,-153.2061 219.706,-150.7678"/>
</g>
<!-- Node6 -->
<g id="node3" class="node">
<title>Node6</title>
<polygon fill="#ffffff" stroke="#bfbfbf" points="163.9682,-519.5 163.9682,-609.5 216.9682,-609.5 216.9682,-519.5 163.9682,-519.5"/>
<text text-anchor="middle" x="190.4682" y="-589.5" font-family="Helvetica,sans-Serif" font-size="20.00" fill="#000000">Pele</text>
<polyline fill="none" stroke="#bfbfbf" points="163.9682,-579.5 216.9682,-579.5 "/>
<text text-anchor="middle" x="190.4682" y="-559.5" font-family="Helvetica,sans-Serif" font-size="20.00" fill="#000000"> </text>
<polyline fill="none" stroke="#bfbfbf" points="163.9682,-549.5 216.9682,-549.5 "/>
<text text-anchor="middle" x="190.4682" y="-529.5" font-family="Helvetica,sans-Serif" font-size="20.00" fill="#000000"> </text>
</g>
<!-- Node6&#45;&gt;Node5 -->
<g id="edge2" class="edge">
<title>Node6&#45;&gt;Node5</title>
<path fill="none" stroke="#404040" d="M190.4682,-519.3101C190.4682,-470.5009 190.4682,-391.4568 190.4682,-329.8101"/>
<polygon fill="none" stroke="#404040" points="190.4683,-329.7268 186.4683,-323.7269 190.4682,-317.7268 194.4683,-323.7268 190.4683,-329.7268"/>
<text text-anchor="middle" x="215.4682" y="-353" font-family="Helvetica,sans-Serif" font-size="20.00" fill="#000000"> #pele</text>
</g>
<!-- Node7 -->
<g id="node4" class="node">
<title>Node7</title>
<g id="a_node4"><a xlink:href="classNativo.html" target="_top" xlink:title="Umas das definições de categoria para Animal. ">
<polygon fill="#ffffff" stroke="#000000" points="261.9682,-150.5 261.9682,-328.5 394.9682,-328.5 394.9682,-150.5 261.9682,-150.5"/>
<text text-anchor="middle" x="328.4682" y="-308.5" font-family="Helvetica,sans-Serif" font-size="20.00" fill="#000000">Nativo</text>
<polyline fill="none" stroke="#000000" points="261.9682,-298.5 394.9682,-298.5 "/>
<text text-anchor="middle" x="328.4682" y="-278.5" font-family="Helvetica,sans-Serif" font-size="20.00" fill="#000000"> </text>
<polyline fill="none" stroke="#000000" points="261.9682,-268.5 394.9682,-268.5 "/>
<text text-anchor="start" x="269.9682" y="-248.5" font-family="Helvetica,sans-Serif" font-size="20.00" fill="#000000">+ Nativo()</text>
<text text-anchor="start" x="269.9682" y="-226.5" font-family="Helvetica,sans-Serif" font-size="20.00" fill="#000000">+ Nativo()</text>
<text text-anchor="start" x="269.9682" y="-204.5" font-family="Helvetica,sans-Serif" font-size="20.00" fill="#000000">+ ~Nativo()</text>
<text text-anchor="start" x="269.9682" y="-182.5" font-family="Helvetica,sans-Serif" font-size="20.00" fill="#000000">+ getRegiao()</text>
<text text-anchor="start" x="269.9682" y="-160.5" font-family="Helvetica,sans-Serif" font-size="20.00" fill="#000000">+ getLicenca()</text>
</a>
</g>
</g>
<!-- Node7&#45;&gt;Node4 -->
<g id="edge3" class="edge">
<title>Node7&#45;&gt;Node4</title>
<path fill="none" stroke="#191970" d="M290.805,-141.0376C287.072,-131.2783 283.3795,-121.6252 279.8989,-112.526"/>
<polygon fill="none" stroke="#191970" points="287.5492,-142.3228 294.391,-150.4123 294.0873,-139.8219 287.5492,-142.3228"/>
</g>
<!-- Node8 -->
<g id="node5" class="node">
<title>Node8</title>
<g id="a_node5"><a xlink:href="classAnimal.html" target="_top" xlink:title="Implementação base para o cadastro de animais. ">
<polygon fill="#ffffff" stroke="#000000" points="234.9682,-387.5 234.9682,-741.5 419.9682,-741.5 419.9682,-387.5 234.9682,-387.5"/>
<text text-anchor="middle" x="327.4682" y="-721.5" font-family="Helvetica,sans-Serif" font-size="20.00" fill="#000000">Animal</text>
<polyline fill="none" stroke="#000000" points="234.9682,-711.5 419.9682,-711.5 "/>
<text text-anchor="middle" x="327.4682" y="-691.5" font-family="Helvetica,sans-Serif" font-size="20.00" fill="#000000"> </text>
<polyline fill="none" stroke="#000000" points="234.9682,-681.5 419.9682,-681.5 "/>
<text text-anchor="start" x="242.9682" y="-661.5" font-family="Helvetica,sans-Serif" font-size="20.00" fill="#000000">+ Animal()</text>
<text text-anchor="start" x="242.9682" y="-639.5" font-family="Helvetica,sans-Serif" font-size="20.00" fill="#000000">+ Animal()</text>
<text text-anchor="start" x="242.9682" y="-617.5" font-family="Helvetica,sans-Serif" font-size="20.00" fill="#000000">+ ~Animal()</text>
<text text-anchor="start" x="242.9682" y="-595.5" font-family="Helvetica,sans-Serif" font-size="20.00" fill="#000000">+ getNome()</text>
<text text-anchor="start" x="242.9682" y="-573.5" font-family="Helvetica,sans-Serif" font-size="20.00" fill="#000000">+ getEspecie()</text>
<text text-anchor="start" x="242.9682" y="-551.5" font-family="Helvetica,sans-Serif" font-size="20.00" fill="#000000">+ getAmeacadoPor()</text>
<text text-anchor="start" x="242.9682" y="-529.5" font-family="Helvetica,sans-Serif" font-size="20.00" fill="#000000">+ getVeterinario()</text>
<text text-anchor="start" x="242.9682" y="-507.5" font-family="Helvetica,sans-Serif" font-size="20.00" fill="#000000">+ getTratador()</text>
<text text-anchor="start" x="242.9682" y="-485.5" font-family="Helvetica,sans-Serif" font-size="20.00" fill="#000000">+ getPerigoso()</text>
<text text-anchor="start" x="242.9682" y="-463.5" font-family="Helvetica,sans-Serif" font-size="20.00" fill="#000000">+ getClassificacao()</text>
<text text-anchor="start" x="242.9682" y="-441.5" font-family="Helvetica,sans-Serif" font-size="20.00" fill="#000000">+ getClasse()</text>
<text text-anchor="start" x="242.9682" y="-419.5" font-family="Helvetica,sans-Serif" font-size="20.00" fill="#000000">+ printOutDados()</text>
<text text-anchor="start" x="242.9682" y="-397.5" font-family="Helvetica,sans-Serif" font-size="20.00" fill="#000000">+ operator==()</text>
</a>
</g>
</g>
<!-- Node8&#45;&gt;Node7 -->
<g id="edge4" class="edge">
<title>Node8&#45;&gt;Node7</title>
<path fill="none" stroke="#191970" d="M328.0455,-376.8772C328.0967,-360.2663 328.1467,-344.0144 328.1934,-328.8384"/>
<polygon fill="none" stroke="#191970" points="324.5445,-377.249 328.0136,-387.2597 331.5444,-377.2706 324.5445,-377.249"/>
</g>
<!-- Node9 -->
<g id="node6" class="node">
<title>Node9</title>
<g id="a_node6"><a xlink:href="classTratador.html" target="_top" xlink:title="Implementação dos tratadores. ">
<polygon fill="#ffffff" stroke="#000000" points="245.4682,-800.5 245.4682,-978.5 409.4682,-978.5 409.4682,-800.5 245.4682,-800.5"/>
<text text-anchor="middle" x="327.4682" y="-958.5" font-family="Helvetica,sans-Serif" font-size="20.00" fill="#000000">Tratador</text>
<polyline fill="none" stroke="#000000" points="245.4682,-948.5 409.4682,-948.5 "/>
<text text-anchor="middle" x="327.4682" y="-928.5" font-family="Helvetica,sans-Serif" font-size="20.00" fill="#000000"> </text>
<polyline fill="none" stroke="#000000" points="245.4682,-918.5 409.4682,-918.5 "/>
<text text-anchor="start" x="253.4682" y="-898.5" font-family="Helvetica,sans-Serif" font-size="20.00" fill="#000000">+ Tratador()</text>
<text text-anchor="start" x="253.4682" y="-876.5" font-family="Helvetica,sans-Serif" font-size="20.00" fill="#000000">+ Tratador()</text>
<text text-anchor="start" x="253.4682" y="-854.5" font-family="Helvetica,sans-Serif" font-size="20.00" fill="#000000">+ ~Tratador()</text>
<text text-anchor="start" x="253.4682" y="-832.5" font-family="Helvetica,sans-Serif" font-size="20.00" fill="#000000">+ getUniforme()</text>
<text text-anchor="start" x="253.4682" y="-810.5" font-family="Helvetica,sans-Serif" font-size="20.00" fill="#000000">+ printOutDados()</text>
</a>
</g>
</g>
<!-- Node9&#45;&gt;Node8 -->
<g id="edge5" class="edge">
<title>Node9&#45;&gt;Node8</title>
<path fill="none" stroke="#404040" d="M327.4682,-800.2624C327.4682,-785.5874 327.4682,-769.9041 327.4682,-753.8617"/>
<polygon fill="none" stroke="#404040" points="327.4683,-753.5346 323.4683,-747.5346 327.4682,-741.5346 331.4683,-747.5346 327.4683,-753.5346"/>
<text text-anchor="middle" x="367.9682" y="-766" font-family="Helvetica,sans-Serif" font-size="20.00" fill="#000000"> #tratador</text>
</g>
<!-- Node10 -->
<g id="node7" class="node">
<title>Node10</title>
<g id="a_node7"><a xlink:href="classPessoa.html" target="_top" xlink:title="Classe base dos funcionarios. ">
<polygon fill="#ffffff" stroke="#000000" points="229.4682,-1081.5 229.4682,-1325.5 393.4682,-1325.5 393.4682,-1081.5 229.4682,-1081.5"/>
<text text-anchor="middle" x="311.4682" y="-1305.5" font-family="Helvetica,sans-Serif" font-size="20.00" fill="#000000">Pessoa</text>
<polyline fill="none" stroke="#000000" points="229.4682,-1295.5 393.4682,-1295.5 "/>
<text text-anchor="middle" x="311.4682" y="-1275.5" font-family="Helvetica,sans-Serif" font-size="20.00" fill="#000000"> </text>
<polyline fill="none" stroke="#000000" points="229.4682,-1265.5 393.4682,-1265.5 "/>
<text text-anchor="start" x="237.4682" y="-1245.5" font-family="Helvetica,sans-Serif" font-size="20.00" fill="#000000">+ Pessoa()</text>
<text text-anchor="start" x="237.4682" y="-1223.5" font-family="Helvetica,sans-Serif" font-size="20.00" fill="#000000">+ Pessoa()</text>
<text text-anchor="start" x="237.4682" y="-1201.5" font-family="Helvetica,sans-Serif" font-size="20.00" fill="#000000">+ ~Pessoa()</text>
<text text-anchor="start" x="237.4682" y="-1179.5" font-family="Helvetica,sans-Serif" font-size="20.00" fill="#000000">+ getNome()</text>
<text text-anchor="start" x="237.4682" y="-1157.5" font-family="Helvetica,sans-Serif" font-size="20.00" fill="#000000">+ getTelefone()</text>
<text text-anchor="start" x="237.4682" y="-1135.5" font-family="Helvetica,sans-Serif" font-size="20.00" fill="#000000">+ getEmail()</text>
<text text-anchor="start" x="237.4682" y="-1113.5" font-family="Helvetica,sans-Serif" font-size="20.00" fill="#000000">+ printOutDados()</text>
<text text-anchor="start" x="237.4682" y="-1091.5" font-family="Helvetica,sans-Serif" font-size="20.00" fill="#000000">+ operator==()</text>
</a>
</g>
</g>
<!-- Node10&#45;&gt;Node9 -->
<g id="edge6" class="edge">
<title>Node10&#45;&gt;Node9</title>
<path fill="none" stroke="#191970" d="M318.2121,-1071.152C319.7974,-1040.0404 321.4502,-1007.6041 322.9131,-978.8956"/>
<polygon fill="none" stroke="#191970" points="314.7136,-1071.0351 317.7001,-1081.2003 321.7045,-1071.3914 314.7136,-1071.0351"/>
</g>
<!-- Node14 -->
<g id="node11" class="node">
<title>Node14</title>
<g id="a_node11"><a xlink:href="classVeterinario.html" target="_top" xlink:title="Implementação dos veterinarios. ">
<polygon fill="#ffffff" stroke="#000000" points="63.4682,-800.5 63.4682,-978.5 227.4682,-978.5 227.4682,-800.5 63.4682,-800.5"/>
<text text-anchor="middle" x="145.4682" y="-958.5" font-family="Helvetica,sans-Serif" font-size="20.00" fill="#000000">Veterinario</text>
<polyline fill="none" stroke="#000000" points="63.4682,-948.5 227.4682,-948.5 "/>
<text text-anchor="middle" x="145.4682" y="-928.5" font-family="Helvetica,sans-Serif" font-size="20.00" fill="#000000"> </text>
<polyline fill="none" stroke="#000000" points="63.4682,-918.5 227.4682,-918.5 "/>
<text text-anchor="start" x="71.4682" y="-898.5" font-family="Helvetica,sans-Serif" font-size="20.00" fill="#000000">+ Veterinario()</text>
<text text-anchor="start" x="71.4682" y="-876.5" font-family="Helvetica,sans-Serif" font-size="20.00" fill="#000000">+ Veterinario()</text>
<text text-anchor="start" x="71.4682" y="-854.5" font-family="Helvetica,sans-Serif" font-size="20.00" fill="#000000">+ ~Veterinario()</text>
<text text-anchor="start" x="71.4682" y="-832.5" font-family="Helvetica,sans-Serif" font-size="20.00" fill="#000000">+ getCRMV()</text>
<text text-anchor="start" x="71.4682" y="-810.5" font-family="Helvetica,sans-Serif" font-size="20.00" fill="#000000">+ printOutDados()</text>
</a>
</g>
</g>
<!-- Node10&#45;&gt;Node14 -->
<g id="edge12" class="edge">
<title>Node10&#45;&gt;Node14</title>
<path fill="none" stroke="#191970" d="M241.9279,-1071.9598C225.3504,-1040.6023 208.0368,-1007.8526 192.7283,-978.8956"/>
<polygon fill="none" stroke="#191970" points="239.045,-1073.9955 246.813,-1081.2003 245.2334,-1070.7238 239.045,-1073.9955"/>
</g>
<!-- Node11 -->
<g id="node8" class="node">
<title>Node11</title>
<polygon fill="#ffffff" stroke="#bfbfbf" points="196.4682,-1428.5 196.4682,-1518.5 260.4682,-1518.5 260.4682,-1428.5 196.4682,-1428.5"/>
<text text-anchor="middle" x="228.4682" y="-1498.5" font-family="Helvetica,sans-Serif" font-size="20.00" fill="#000000">string</text>
<polyline fill="none" stroke="#bfbfbf" points="196.4682,-1488.5 260.4682,-1488.5 "/>
<text text-anchor="middle" x="228.4682" y="-1468.5" font-family="Helvetica,sans-Serif" font-size="20.00" fill="#000000"> </text>
<polyline fill="none" stroke="#bfbfbf" points="196.4682,-1458.5 260.4682,-1458.5 "/>
<text text-anchor="middle" x="228.4682" y="-1438.5" font-family="Helvetica,sans-Serif" font-size="20.00" fill="#000000"> </text>
</g>
<!-- Node11&#45;&gt;Node7 -->
<g id="edge14" class="edge">
<title>Node11&#45;&gt;Node7</title>
<path fill="none" stroke="#404040" d="M260.8894,-1466.0123C320.2638,-1450.5665 446.4136,-1409.407 512.4682,-1326 547.3352,-1281.9736 543.4682,-1259.6607 543.4682,-1203.5 543.4682,-1203.5 543.4682,-1203.5 543.4682,-564.5 543.4682,-460.5237 465.9761,-364.2539 404.0377,-303.9133"/>
<polygon fill="none" stroke="#404040" points="403.6872,-303.5775 396.5876,-302.3141 395.0232,-295.2747 402.1228,-296.5381 403.6872,-303.5775"/>
<text text-anchor="middle" x="579.9682" y="-895.5" font-family="Helvetica,sans-Serif" font-size="20.00" fill="#000000"> #licenca</text>
<text text-anchor="middle" x="579.9682" y="-873.5" font-family="Helvetica,sans-Serif" font-size="20.00" fill="#000000">#regiao</text>
</g>
<!-- Node11&#45;&gt;Node8 -->
<g id="edge10" class="edge">
<title>Node11&#45;&gt;Node8</title>
<path fill="none" stroke="#404040" d="M196.1816,-1450.1532C182.6089,-1439.1324 167.4544,-1425.0917 156.4682,-1410 41.4454,-1251.9927 -18.2953,-1190.9893 5.4682,-997 16.4385,-907.4461 -6.6202,-866.3962 54.4682,-800 108.8058,-740.9413 163.4775,-792.9671 225.4682,-742 225.5669,-741.9189 225.6655,-741.8376 225.764,-741.7563"/>
<polygon fill="none" stroke="#404040" points="225.7145,-741.8 227.5622,-734.8296 234.707,-733.8542 232.8594,-740.8246 225.7145,-741.8"/>
<text text-anchor="middle" x="66.9682" y="-1047" font-family="Helvetica,sans-Serif" font-size="20.00" fill="#000000"> #especie</text>
<text text-anchor="middle" x="66.9682" y="-1025" font-family="Helvetica,sans-Serif" font-size="20.00" fill="#000000">#ameacadoPor</text>
<text text-anchor="middle" x="66.9682" y="-1003" font-family="Helvetica,sans-Serif" font-size="20.00" fill="#000000">#nome</text>
</g>
<!-- Node11&#45;&gt;Node10 -->
<g id="edge7" class="edge">
<title>Node11&#45;&gt;Node10</title>
<path fill="none" stroke="#404040" d="M242.3606,-1428.3081C250.1215,-1403.0618 260.2398,-1370.1466 270.3297,-1337.3241"/>
<polygon fill="none" stroke="#404040" points="270.3674,-1337.2012 268.3071,-1330.2907 273.8935,-1325.731 275.9539,-1332.6415 270.3674,-1337.2012"/>
<text text-anchor="middle" x="305.9682" y="-1394" font-family="Helvetica,sans-Serif" font-size="20.00" fill="#000000"> #email</text>
<text text-anchor="middle" x="305.9682" y="-1372" font-family="Helvetica,sans-Serif" font-size="20.00" fill="#000000">#nome</text>
<text text-anchor="middle" x="305.9682" y="-1350" font-family="Helvetica,sans-Serif" font-size="20.00" fill="#000000">#telefone</text>
</g>
<!-- Node11&#45;&gt;Node14 -->
<g id="edge13" class="edge">
<title>Node11&#45;&gt;Node14</title>
<path fill="none" stroke="#404040" d="M199.223,-1428.3991C182.6577,-1400.2001 163.4918,-1362.4301 154.4682,-1326 126.6784,-1213.8066 128.8021,-1080.3944 135.0628,-990.8505"/>
<polygon fill="none" stroke="#404040" points="135.0697,-990.7549 131.5206,-984.4777 135.9498,-978.7872 139.499,-985.0644 135.0697,-990.7549"/>
<text text-anchor="middle" x="187.4682" y="-1198.5" font-family="Helvetica,sans-Serif" font-size="20.00" fill="#000000"> &#45;CRMV</text>
</g>
<!-- Node12 -->
<g id="node9" class="node">
<title>Node12</title>
<polygon fill="#ffffff" stroke="#bfbfbf" points="411.4682,-1158.5 411.4682,-1248.5 503.4682,-1248.5 503.4682,-1158.5 411.4682,-1158.5"/>
<text text-anchor="middle" x="457.4682" y="-1228.5" font-family="Helvetica,sans-Serif" font-size="20.00" fill="#000000">Uniforme</text>
<polyline fill="none" stroke="#bfbfbf" points="411.4682,-1218.5 503.4682,-1218.5 "/>
<text text-anchor="middle" x="457.4682" y="-1198.5" font-family="Helvetica,sans-Serif" font-size="20.00" fill="#000000"> </text>
<polyline fill="none" stroke="#bfbfbf" points="411.4682,-1188.5 503.4682,-1188.5 "/>
<text text-anchor="middle" x="457.4682" y="-1168.5" font-family="Helvetica,sans-Serif" font-size="20.00" fill="#000000"> </text>
</g>
<!-- Node12&#45;&gt;Node9 -->
<g id="edge8" class="edge">
<title>Node12&#45;&gt;Node9</title>
<path fill="none" stroke="#404040" d="M438.704,-1158.177C420.5431,-1114.3115 392.3981,-1046.3307 368.9637,-989.7275"/>
<polygon fill="none" stroke="#404040" points="368.9343,-989.6564 362.9434,-985.6428 364.344,-978.569 370.3349,-982.5826 368.9343,-989.6564"/>
<text text-anchor="middle" x="437.4682" y="-1025" font-family="Helvetica,sans-Serif" font-size="20.00" fill="#000000"> &#45;uniforme</text>
</g>
<!-- Node13 -->
<g id="node10" class="node">
<title>Node13</title>
<polygon fill="#ffffff" stroke="#bfbfbf" points="427.9682,-844.5 427.9682,-934.5 478.9682,-934.5 478.9682,-844.5 427.9682,-844.5"/>
<text text-anchor="middle" x="453.4682" y="-914.5" font-family="Helvetica,sans-Serif" font-size="20.00" fill="#000000">bool</text>
<polyline fill="none" stroke="#bfbfbf" points="427.9682,-904.5 478.9682,-904.5 "/>
<text text-anchor="middle" x="453.4682" y="-884.5" font-family="Helvetica,sans-Serif" font-size="20.00" fill="#000000"> </text>
<polyline fill="none" stroke="#bfbfbf" points="427.9682,-874.5 478.9682,-874.5 "/>
<text text-anchor="middle" x="453.4682" y="-854.5" font-family="Helvetica,sans-Serif" font-size="20.00" fill="#000000"> </text>
</g>
<!-- Node13&#45;&gt;Node8 -->
<g id="edge9" class="edge">
<title>Node13&#45;&gt;Node8</title>
<path fill="none" stroke="#404040" d="M440.4605,-844.46C432.9054,-819.3798 422.8491,-787.7158 412.4682,-760 411.5808,-757.6307 410.6802,-755.2486 409.7677,-752.856"/>
<polygon fill="none" stroke="#404040" points="409.7402,-752.7846 403.8467,-748.6293 405.4156,-741.5909 411.3092,-745.7463 409.7402,-752.7846"/>
<text text-anchor="middle" x="462.4682" y="-766" font-family="Helvetica,sans-Serif" font-size="20.00" fill="#000000"> #perigoso</text>
</g>
<!-- Node14&#45;&gt;Node8 -->
<g id="edge11" class="edge">
<title>Node14&#45;&gt;Node8</title>
<path fill="none" stroke="#404040" d="M195.4413,-800.2624C205.974,-781.454 217.4342,-760.9894 229.0567,-740.2349"/>
<polygon fill="none" stroke="#404040" points="229.0944,-740.1674 228.5361,-732.9779 234.9577,-729.6973 235.5161,-736.8868 229.0944,-740.1674"/>
<text text-anchor="middle" x="265.9682" y="-766" font-family="Helvetica,sans-Serif" font-size="20.00" fill="#000000"> #veterinario</text>
</g>
</g>
</svg>
        <g id="navigator" transform="translate(0 0)" fill="#404254">
                <rect fill="#f2f5e9" fill-opacity="0.5" stroke="#606060" stroke-width=".5" x="0" y="0" width="60" height="60"/>
                <use id="zoomplus" xlink:href="#zoomPlus" x="17" y="9" onmousedown="handleZoom(evt,'in')"/>
                <use id="zoomminus" xlink:href="#zoomMin" x="42" y="9" onmousedown="handleZoom(evt,'out')"/>
                <use id="reset" xlink:href="#resetDef" x="30" y="36" onmousedown="handleReset()"/>
                <g id="arrowUp" xlink:href="#dirArrow" transform="translate(30 24)" onmousedown="handlePan(0,-1)">
                  <use xlink:href="#rim" fill="#404040">
                        <set attributeName="fill" to="#808080" begin="arrowUp.mouseover" end="arrowUp.mouseout"/>
                  </use>
                  <path fill="none" stroke="white" stroke-width="1.5" d="M0,-3.0v7 M-2.5,-0.5L0,-3.0L2.5,-0.5"/>
                </g>
                <g id="arrowRight" xlink:href="#dirArrow" transform="rotate(90) translate(36 -43)" onmousedown="handlePan(1,0)">
                  <use xlink:href="#rim" fill="#404040">
                        <set attributeName="fill" to="#808080" begin="arrowRight.mouseover" end="arrowRight.mouseout"/>
                  </use>
                  <path fill="none" stroke="white" stroke-width="1.5" d="M0,-3.0v7 M-2.5,-0.5L0,-3.0L2.5,-0.5"/>
                </g>
                <g id="arrowDown" xlink:href="#dirArrow" transform="rotate(180) translate(-30 -48)" onmousedown="handlePan(0,1)">
                  <use xlink:href="#rim" fill="#404040">
                        <set attributeName="fill" to="#808080" begin="arrowDown.mouseover" end="arrowDown.mouseout"/>
                  </use>
                  <path fill="none" stroke="white" stroke-width="1.5" d="M0,-3.0v7 M-2.5,-0.5L0,-3.0L2.5,-0.5"/>
                </g>
                <g id="arrowLeft" xlink:href="#dirArrow" transform="rotate(270) translate(-36 17)" onmousedown="handlePan(-1,0)">
                  <use xlink:href="#rim" fill="#404040">
                        <set attributeName="fill" to="#808080" begin="arrowLeft.mouseover" end="arrowLeft.mouseout"/>
                  </use>
                  <path fill="none" stroke="white" stroke-width="1.5" d="M0,-3.0v7 M-2.5,-0.5L0,-3.0L2.5,-0.5"/>
                </g>
        </g>
        <svg viewBox="0 0 15 15" width="100%" height="30px" preserveAspectRatio="xMaxYMin meet">
         <g id="arrow_out" transform="scale(0.3 0.3)">
          <a xlink:href="classReptilNativo__coll__graph_org.svg" target="_base">
           <rect id="button" ry="5" rx="5" y="6" x="6" height="38" width="38"
                fill="#f2f5e9" fill-opacity="0.5" stroke="#606060" stroke-width="1.0"/>
           <path id="arrow"
             d="M 11.500037,31.436501 C 11.940474,20.09759 22.043105,11.32322 32.158766,21.979434 L 37.068811,17.246167 C 37.068811,17.246167 37.088388,32 37.088388,32 L 22.160133,31.978069 C 22.160133,31.978069 26.997745,27.140456 26.997745,27.140456 C 18.528582,18.264221 13.291696,25.230495 11.500037,31.436501 z"
             style="fill:#404040;"/>
          </a>
         </g>
        </svg>
</svg>
