<?xml version="1.0" encoding="UTF-8" standalone="no"?>
<!DOCTYPE svg PUBLIC "-//W3C//DTD SVG 1.1//EN"
 "http://www.w3.org/Graphics/SVG/1.1/DTD/svg11.dtd">
<!-- Generated by graphviz version 2.40.1 (20161225.0304)
 -->
<!-- Title: MapeadorMenu Pages: 1 -->
<svg width="258pt" height="270pt"
 viewBox="0.00 0.00 258.00 270.00" xmlns="http://www.w3.org/2000/svg" xmlns:xlink="http://www.w3.org/1999/xlink">
<g id="graph0" class="graph" transform="scale(1 1) rotate(0) translate(4 266)">
<title>MapeadorMenu</title>
<polygon fill="#ffffff" stroke="transparent" points="-4,4 -4,-266 254,-266 254,4 -4,4"/>
<!-- Node1 -->
<g id="node1" class="node">
<title>Node1</title>
<polygon fill="#bfbfbf" stroke="#000000" points="38.5,-.5 38.5,-90.5 211.5,-90.5 211.5,-.5 38.5,-.5"/>
<text text-anchor="middle" x="125" y="-70.5" font-family="Helvetica,sans-Serif" font-size="20.00" fill="#000000">MapeadorMenu</text>
<polyline fill="none" stroke="#000000" points="38.5,-60.5 211.5,-60.5 "/>
<text text-anchor="middle" x="125" y="-40.5" font-family="Helvetica,sans-Serif" font-size="20.00" fill="#000000"> </text>
<polyline fill="none" stroke="#000000" points="38.5,-30.5 211.5,-30.5 "/>
<text text-anchor="start" x="46.5" y="-10.5" font-family="Helvetica,sans-Serif" font-size="20.00" fill="#000000">+ MapeadorMenu()</text>
</g>
<!-- Node2 -->
<g id="node2" class="node">
<title>Node2</title>
<polygon fill="#ffffff" stroke="#bfbfbf" points="0,-149.5 0,-261.5 250,-261.5 250,-149.5 0,-149.5"/>
<text text-anchor="start" x="8" y="-241.5" font-family="Helvetica,sans-Serif" font-size="20.00" fill="#000000">map&lt; char, std::function</text>
<text text-anchor="middle" x="125" y="-219.5" font-family="Helvetica,sans-Serif" font-size="20.00" fill="#000000">&lt; bool(Petshop *petshop)&gt; &gt;</text>
<polyline fill="none" stroke="#bfbfbf" points="0,-209.5 250,-209.5 "/>
<text text-anchor="middle" x="125" y="-189.5" font-family="Helvetica,sans-Serif" font-size="20.00" fill="#000000"> </text>
<polyline fill="none" stroke="#bfbfbf" points="0,-179.5 250,-179.5 "/>
<text text-anchor="middle" x="125" y="-159.5" font-family="Helvetica,sans-Serif" font-size="20.00" fill="#000000"> </text>
</g>
<!-- Node2&#45;&gt;Node1 -->
<g id="edge1" class="edge">
<title>Node2&#45;&gt;Node1</title>
<path fill="none" stroke="#404040" d="M125,-149.09C125,-134.1183 125,-117.9361 125,-102.9117"/>
<polygon fill="none" stroke="#404040" points="125.0001,-102.6155 121,-96.6155 125,-90.6155 129,-96.6155 125.0001,-102.6155"/>
<text text-anchor="middle" x="168" y="-115" font-family="Helvetica,sans-Serif" font-size="20.00" fill="#000000"> +escolhas</text>
</g>
</g>
</svg>
