<?xml version="1.0" encoding="UTF-8" standalone="no"?>
<!DOCTYPE svg PUBLIC "-//W3C//DTD SVG 1.1//EN"
 "http://www.w3.org/Graphics/SVG/1.1/DTD/svg11.dtd">
<!-- Generated by graphviz version 2.40.1 (20161225.0304)
 -->
<!-- Title: Nativo Pages: 1 -->
<svg width="709pt" height="859pt"
 viewBox="0.00 0.00 708.50 859.00" xmlns="http://www.w3.org/2000/svg" xmlns:xlink="http://www.w3.org/1999/xlink">
<g id="graph0" class="graph" transform="scale(1 1) rotate(0) translate(4 855)">
<title>Nativo</title>
<polygon fill="#ffffff" stroke="transparent" points="-4,4 -4,-855 704.5,-855 704.5,4 -4,4"/>
<!-- Node0 -->
<g id="node1" class="node">
<title>Node0</title>
<polygon fill="#bfbfbf" stroke="#000000" points="277.5,-149.5 277.5,-349.5 410.5,-349.5 410.5,-149.5 277.5,-149.5"/>
<text text-anchor="middle" x="344" y="-329.5" font-family="Helvetica,sans-Serif" font-size="20.00" fill="#000000">Nativo</text>
<polyline fill="none" stroke="#000000" points="277.5,-319.5 410.5,-319.5 "/>
<text text-anchor="start" x="285.5" y="-299.5" font-family="Helvetica,sans-Serif" font-size="20.00" fill="#000000"># regiao</text>
<text text-anchor="start" x="285.5" y="-277.5" font-family="Helvetica,sans-Serif" font-size="20.00" fill="#000000"># licenca</text>
<polyline fill="none" stroke="#000000" points="277.5,-267.5 410.5,-267.5 "/>
<text text-anchor="start" x="285.5" y="-247.5" font-family="Helvetica,sans-Serif" font-size="20.00" fill="#000000">+ Nativo()</text>
<text text-anchor="start" x="285.5" y="-225.5" font-family="Helvetica,sans-Serif" font-size="20.00" fill="#000000">+ Nativo()</text>
<text text-anchor="start" x="285.5" y="-203.5" font-family="Helvetica,sans-Serif" font-size="20.00" fill="#000000">+ ~Nativo()</text>
<text text-anchor="start" x="285.5" y="-181.5" font-family="Helvetica,sans-Serif" font-size="20.00" fill="#000000">+ getRegiao()</text>
<text text-anchor="start" x="285.5" y="-159.5" font-family="Helvetica,sans-Serif" font-size="20.00" fill="#000000">+ getLicenca()</text>
</g>
<!-- Node2 -->
<g id="node3" class="node">
<title>Node2</title>
<g id="a_node3"><a xlink:href="classAnfibioNativo.html" target="_top" xlink:title="Implementação de animal com Classe e Categoria. ">
<polygon fill="#ffffff" stroke="#000000" points="0,-.5 0,-112.5 166,-112.5 166,-.5 0,-.5"/>
<text text-anchor="middle" x="83" y="-92.5" font-family="Helvetica,sans-Serif" font-size="20.00" fill="#000000">AnfibioNativo</text>
<polyline fill="none" stroke="#000000" points="0,-82.5 166,-82.5 "/>
<text text-anchor="middle" x="83" y="-62.5" font-family="Helvetica,sans-Serif" font-size="20.00" fill="#000000"> </text>
<polyline fill="none" stroke="#000000" points="0,-52.5 166,-52.5 "/>
<text text-anchor="start" x="8" y="-32.5" font-family="Helvetica,sans-Serif" font-size="20.00" fill="#000000">+ AnfibioNativo()</text>
<text text-anchor="start" x="8" y="-10.5" font-family="Helvetica,sans-Serif" font-size="20.00" fill="#000000">+ ~AnfibioNativo()</text>
</a>
</g>
</g>
<!-- Node0&#45;&gt;Node2 -->
<g id="edge2" class="edge">
<title>Node0&#45;&gt;Node2</title>
<path fill="none" stroke="#191970" d="M269.2895,-194.2543C234.7615,-168.7221 193.8147,-138.4435 159.1154,-112.7846"/>
<polygon fill="none" stroke="#191970" points="267.3419,-197.1671 277.4634,-200.2986 271.5039,-191.5387 267.3419,-197.1671"/>
</g>
<!-- Node3 -->
<g id="node4" class="node">
<title>Node3</title>
<g id="a_node4"><a xlink:href="classAveNativa.html" target="_top" xlink:title="Implementação de animal com Classe e Categoria. ">
<polygon fill="#ffffff" stroke="#000000" points="184,-.5 184,-112.5 324,-112.5 324,-.5 184,-.5"/>
<text text-anchor="middle" x="254" y="-92.5" font-family="Helvetica,sans-Serif" font-size="20.00" fill="#000000">AveNativa</text>
<polyline fill="none" stroke="#000000" points="184,-82.5 324,-82.5 "/>
<text text-anchor="middle" x="254" y="-62.5" font-family="Helvetica,sans-Serif" font-size="20.00" fill="#000000"> </text>
<polyline fill="none" stroke="#000000" points="184,-52.5 324,-52.5 "/>
<text text-anchor="start" x="192" y="-32.5" font-family="Helvetica,sans-Serif" font-size="20.00" fill="#000000">+ AveNativa()</text>
<text text-anchor="start" x="192" y="-10.5" font-family="Helvetica,sans-Serif" font-size="20.00" fill="#000000">+ ~AveNativa()</text>
</a>
</g>
</g>
<!-- Node0&#45;&gt;Node3 -->
<g id="edge3" class="edge">
<title>Node0&#45;&gt;Node3</title>
<path fill="none" stroke="#191970" d="M293.0385,-140.216C288.6268,-130.7553 284.2929,-121.4615 280.2105,-112.707"/>
<polygon fill="none" stroke="#191970" points="289.8881,-141.7417 297.2865,-149.3255 296.2322,-138.7832 289.8881,-141.7417"/>
</g>
<!-- Node4 -->
<g id="node5" class="node">
<title>Node4</title>
<g id="a_node5"><a xlink:href="classMamiferoNativo.html" target="_top" xlink:title="Implementação de animal com Classe e Categoria. ">
<polygon fill="#ffffff" stroke="#000000" points="342.5,-.5 342.5,-112.5 527.5,-112.5 527.5,-.5 342.5,-.5"/>
<text text-anchor="middle" x="435" y="-92.5" font-family="Helvetica,sans-Serif" font-size="20.00" fill="#000000">MamiferoNativo</text>
<polyline fill="none" stroke="#000000" points="342.5,-82.5 527.5,-82.5 "/>
<text text-anchor="middle" x="435" y="-62.5" font-family="Helvetica,sans-Serif" font-size="20.00" fill="#000000"> </text>
<polyline fill="none" stroke="#000000" points="342.5,-52.5 527.5,-52.5 "/>
<text text-anchor="start" x="350.5" y="-32.5" font-family="Helvetica,sans-Serif" font-size="20.00" fill="#000000">+ MamiferoNativo()</text>
<text text-anchor="start" x="350.5" y="-10.5" font-family="Helvetica,sans-Serif" font-size="20.00" fill="#000000">+ ~MamiferoNativo()</text>
</a>
</g>
</g>
<!-- Node0&#45;&gt;Node4 -->
<g id="edge4" class="edge">
<title>Node0&#45;&gt;Node4</title>
<path fill="none" stroke="#191970" d="M395.5277,-140.216C399.9884,-130.7553 404.3705,-121.4615 408.4982,-112.707"/>
<polygon fill="none" stroke="#191970" points="392.3316,-138.7878 391.2325,-149.3255 398.6631,-141.7732 392.3316,-138.7878"/>
</g>
<!-- Node5 -->
<g id="node6" class="node">
<title>Node5</title>
<g id="a_node6"><a xlink:href="classReptilNativo.html" target="_top" xlink:title="Implementação de animal com Classe e Categoria. ">
<polygon fill="#ffffff" stroke="#000000" points="545.5,-.5 545.5,-112.5 700.5,-112.5 700.5,-.5 545.5,-.5"/>
<text text-anchor="middle" x="623" y="-92.5" font-family="Helvetica,sans-Serif" font-size="20.00" fill="#000000">ReptilNativo</text>
<polyline fill="none" stroke="#000000" points="545.5,-82.5 700.5,-82.5 "/>
<text text-anchor="middle" x="623" y="-62.5" font-family="Helvetica,sans-Serif" font-size="20.00" fill="#000000"> </text>
<polyline fill="none" stroke="#000000" points="545.5,-52.5 700.5,-52.5 "/>
<text text-anchor="start" x="553.5" y="-32.5" font-family="Helvetica,sans-Serif" font-size="20.00" fill="#000000">+ ReptilNativo()</text>
<text text-anchor="start" x="553.5" y="-10.5" font-family="Helvetica,sans-Serif" font-size="20.00" fill="#000000">+ ~ReptilNativo()</text>
</a>
</g>
</g>
<!-- Node0&#45;&gt;Node5 -->
<g id="edge5" class="edge">
<title>Node0&#45;&gt;Node5</title>
<path fill="none" stroke="#191970" d="M419.5234,-197.2562C458.5261,-170.2759 506.0456,-137.4039 545.351,-110.2142"/>
<polygon fill="none" stroke="#191970" points="417.0603,-194.7042 410.8275,-203.2717 421.0427,-200.461 417.0603,-194.7042"/>
</g>
<!-- Node1 -->
<g id="node2" class="node">
<title>Node1</title>
<g id="a_node2"><a xlink:href="classAnimal.html" target="_top" xlink:title="Implementação base para o cadastro de animais. ">
<polygon fill="#ffffff" stroke="#000000" points="251.5,-386.5 251.5,-850.5 436.5,-850.5 436.5,-386.5 251.5,-386.5"/>
<text text-anchor="middle" x="344" y="-830.5" font-family="Helvetica,sans-Serif" font-size="20.00" fill="#000000">Animal</text>
<polyline fill="none" stroke="#000000" points="251.5,-820.5 436.5,-820.5 "/>
<text text-anchor="start" x="259.5" y="-800.5" font-family="Helvetica,sans-Serif" font-size="20.00" fill="#000000"># nome</text>
<text text-anchor="start" x="259.5" y="-778.5" font-family="Helvetica,sans-Serif" font-size="20.00" fill="#000000"># especie</text>
<text text-anchor="start" x="259.5" y="-756.5" font-family="Helvetica,sans-Serif" font-size="20.00" fill="#000000"># ameacadoPor</text>
<text text-anchor="start" x="259.5" y="-734.5" font-family="Helvetica,sans-Serif" font-size="20.00" fill="#000000"># veterinario</text>
<text text-anchor="start" x="259.5" y="-712.5" font-family="Helvetica,sans-Serif" font-size="20.00" fill="#000000"># tratador</text>
<text text-anchor="start" x="259.5" y="-690.5" font-family="Helvetica,sans-Serif" font-size="20.00" fill="#000000"># perigoso</text>
<polyline fill="none" stroke="#000000" points="251.5,-680.5 436.5,-680.5 "/>
<text text-anchor="start" x="259.5" y="-660.5" font-family="Helvetica,sans-Serif" font-size="20.00" fill="#000000">+ Animal()</text>
<text text-anchor="start" x="259.5" y="-638.5" font-family="Helvetica,sans-Serif" font-size="20.00" fill="#000000">+ Animal()</text>
<text text-anchor="start" x="259.5" y="-616.5" font-family="Helvetica,sans-Serif" font-size="20.00" fill="#000000">+ ~Animal()</text>
<text text-anchor="start" x="259.5" y="-594.5" font-family="Helvetica,sans-Serif" font-size="20.00" fill="#000000">+ getNome()</text>
<text text-anchor="start" x="259.5" y="-572.5" font-family="Helvetica,sans-Serif" font-size="20.00" fill="#000000">+ getEspecie()</text>
<text text-anchor="start" x="259.5" y="-550.5" font-family="Helvetica,sans-Serif" font-size="20.00" fill="#000000">+ getAmeacadoPor()</text>
<text text-anchor="start" x="259.5" y="-528.5" font-family="Helvetica,sans-Serif" font-size="20.00" fill="#000000">+ getVeterinario()</text>
<text text-anchor="start" x="259.5" y="-506.5" font-family="Helvetica,sans-Serif" font-size="20.00" fill="#000000">+ getTratador()</text>
<text text-anchor="start" x="259.5" y="-484.5" font-family="Helvetica,sans-Serif" font-size="20.00" fill="#000000">+ getPerigoso()</text>
<text text-anchor="start" x="259.5" y="-462.5" font-family="Helvetica,sans-Serif" font-size="20.00" fill="#000000">+ getClassificacao()</text>
<text text-anchor="start" x="259.5" y="-440.5" font-family="Helvetica,sans-Serif" font-size="20.00" fill="#000000">+ getClasse()</text>
<text text-anchor="start" x="259.5" y="-418.5" font-family="Helvetica,sans-Serif" font-size="20.00" fill="#000000">+ printOutDados()</text>
<text text-anchor="start" x="259.5" y="-396.5" font-family="Helvetica,sans-Serif" font-size="20.00" fill="#000000">+ operator==()</text>
</a>
</g>
</g>
<!-- Node1&#45;&gt;Node0 -->
<g id="edge1" class="edge">
<title>Node1&#45;&gt;Node0</title>
<path fill="none" stroke="#191970" d="M344,-376.3279C344,-367.1385 344,-358.1614 344,-349.5011"/>
<polygon fill="none" stroke="#191970" points="340.5001,-376.3776 344,-386.3776 347.5001,-376.3776 340.5001,-376.3776"/>
</g>
</g>
</svg>
