<?xml version="1.0" encoding="UTF-8" standalone="no"?>
<!DOCTYPE svg PUBLIC "-//W3C//DTD SVG 1.1//EN"
 "http://www.w3.org/Graphics/SVG/1.1/DTD/svg11.dtd">
<!-- Generated by graphviz version 2.43.0 (0)
 -->
<!-- Title: MamiferoNativo Pages: 1 -->
<svg width="810pt" height="1883pt"
 viewBox="0.00 0.00 810.10 1883.00" xmlns="http://www.w3.org/2000/svg" xmlns:xlink="http://www.w3.org/1999/xlink">
<g id="graph0" class="graph" transform="scale(1 1) rotate(0) translate(4 1879)">
<title>MamiferoNativo</title>
<polygon fill="white" stroke="transparent" points="-4,4 -4,-1879 806.1,-1879 806.1,4 -4,4"/>
<!-- Node1 -->
<g id="node1" class="node">
<title>Node1</title>
<g id="a_node1"><a xlink:title="Implementação de animal com Classe e Categoria.">
<polygon fill="#bfbfbf" stroke="black" points="536.6,-0.5 536.6,-134.5 763.6,-134.5 763.6,-0.5 536.6,-0.5"/>
<text text-anchor="middle" x="650.1" y="-114.5" font-family="Helvetica,sans-Serif" font-size="20.00">MamiferoNativo</text>
<polyline fill="none" stroke="black" points="536.6,-104.5 763.6,-104.5 "/>
<text text-anchor="middle" x="650.1" y="-84.5" font-family="Helvetica,sans-Serif" font-size="20.00"> </text>
<polyline fill="none" stroke="black" points="536.6,-74.5 763.6,-74.5 "/>
<text text-anchor="start" x="544.6" y="-54.5" font-family="Helvetica,sans-Serif" font-size="20.00">+ MamiferoNativo()</text>
<text text-anchor="start" x="544.6" y="-32.5" font-family="Helvetica,sans-Serif" font-size="20.00">+ MamiferoNativo()</text>
<text text-anchor="start" x="544.6" y="-10.5" font-family="Helvetica,sans-Serif" font-size="20.00">+ ~MamiferoNativo()</text>
</a>
</g>
</g>
<!-- Node2 -->
<g id="node2" class="node">
<title>Node2</title>
<g id="a_node2"><a xlink:href="classMamifero.html" target="_top" xlink:title="Classificação base para Mamiferos.">
<polygon fill="white" stroke="black" points="490.6,-172.5 490.6,-372.5 669.6,-372.5 669.6,-172.5 490.6,-172.5"/>
<text text-anchor="middle" x="580.1" y="-352.5" font-family="Helvetica,sans-Serif" font-size="20.00">Mamifero</text>
<polyline fill="none" stroke="black" points="490.6,-342.5 669.6,-342.5 "/>
<text text-anchor="middle" x="580.1" y="-322.5" font-family="Helvetica,sans-Serif" font-size="20.00"> </text>
<polyline fill="none" stroke="black" points="490.6,-312.5 669.6,-312.5 "/>
<text text-anchor="start" x="498.6" y="-292.5" font-family="Helvetica,sans-Serif" font-size="20.00">+ Mamifero()</text>
<text text-anchor="start" x="498.6" y="-270.5" font-family="Helvetica,sans-Serif" font-size="20.00">+ Mamifero()</text>
<text text-anchor="start" x="498.6" y="-248.5" font-family="Helvetica,sans-Serif" font-size="20.00">+ ~Mamifero()</text>
<text text-anchor="start" x="498.6" y="-226.5" font-family="Helvetica,sans-Serif" font-size="20.00">+ getGestacao()</text>
<text text-anchor="start" x="498.6" y="-204.5" font-family="Helvetica,sans-Serif" font-size="20.00">+ setGestacao()</text>
<text text-anchor="start" x="498.6" y="-182.5" font-family="Helvetica,sans-Serif" font-size="20.00">+ setGestacao()</text>
</a>
</g>
</g>
<!-- Node2&#45;&gt;Node1 -->
<g id="edge1" class="edge">
<title>Node2&#45;&gt;Node1</title>
<path fill="none" stroke="midnightblue" d="M617.59,-162.8C620.89,-153.23 624.16,-143.75 627.28,-134.69"/>
<polygon fill="none" stroke="midnightblue" points="614.23,-161.78 614.28,-172.38 620.85,-164.07 614.23,-161.78"/>
</g>
<!-- Node3 -->
<g id="node3" class="node">
<title>Node3</title>
<g id="a_node3"><a xlink:href="classAnimal.html" target="_top" xlink:title="Implementação base para o cadastro de animais.">
<polygon fill="white" stroke="black" points="218.6,-410.5 218.6,-720.5 441.6,-720.5 441.6,-410.5 218.6,-410.5"/>
<text text-anchor="middle" x="330.1" y="-700.5" font-family="Helvetica,sans-Serif" font-size="20.00">Animal</text>
<polyline fill="none" stroke="black" points="218.6,-690.5 441.6,-690.5 "/>
<text text-anchor="middle" x="330.1" y="-670.5" font-family="Helvetica,sans-Serif" font-size="20.00"> </text>
<polyline fill="none" stroke="black" points="218.6,-660.5 441.6,-660.5 "/>
<text text-anchor="start" x="226.6" y="-640.5" font-family="Helvetica,sans-Serif" font-size="20.00">+ Animal()</text>
<text text-anchor="start" x="226.6" y="-618.5" font-family="Helvetica,sans-Serif" font-size="20.00">+ Animal()</text>
<text text-anchor="start" x="226.6" y="-596.5" font-family="Helvetica,sans-Serif" font-size="20.00">+ ~Animal()</text>
<text text-anchor="start" x="226.6" y="-574.5" font-family="Helvetica,sans-Serif" font-size="20.00">+ getNome()</text>
<text text-anchor="start" x="226.6" y="-552.5" font-family="Helvetica,sans-Serif" font-size="20.00">+ getEspecie()</text>
<text text-anchor="start" x="226.6" y="-530.5" font-family="Helvetica,sans-Serif" font-size="20.00">+ getAmeacadoPor()</text>
<text text-anchor="start" x="226.6" y="-508.5" font-family="Helvetica,sans-Serif" font-size="20.00">+ getVeterinario()</text>
<text text-anchor="start" x="226.6" y="-486.5" font-family="Helvetica,sans-Serif" font-size="20.00">+ getTratador()</text>
<text text-anchor="start" x="226.6" y="-464.5" font-family="Helvetica,sans-Serif" font-size="20.00">+ getPerigoso()</text>
<text text-anchor="start" x="226.6" y="-442.5" font-family="Helvetica,sans-Serif" font-size="20.00">+ setNome()</text>
<text text-anchor="start" x="226.6" y="-420.5" font-family="Helvetica,sans-Serif" font-size="20.00">e 15 mais...</text>
</a>
</g>
</g>
<!-- Node3&#45;&gt;Node2 -->
<g id="edge2" class="edge">
<title>Node3&#45;&gt;Node2</title>
<path fill="none" stroke="midnightblue" d="M448.63,-426.53C464.28,-408.32 480.06,-389.95 494.99,-372.57"/>
<polygon fill="none" stroke="midnightblue" points="445.8,-424.45 441.94,-434.32 451.11,-429.02 445.8,-424.45"/>
</g>
<!-- Node4 -->
<g id="node4" class="node">
<title>Node4</title>
<g id="a_node4"><a xlink:href="classTratador.html" target="_top" xlink:title="Implementação dos tratadores.">
<polygon fill="white" stroke="black" points="295.1,-779.5 295.1,-1001.5 495.1,-1001.5 495.1,-779.5 295.1,-779.5"/>
<text text-anchor="middle" x="395.1" y="-981.5" font-family="Helvetica,sans-Serif" font-size="20.00">Tratador</text>
<polyline fill="none" stroke="black" points="295.1,-971.5 495.1,-971.5 "/>
<text text-anchor="middle" x="395.1" y="-951.5" font-family="Helvetica,sans-Serif" font-size="20.00"> </text>
<polyline fill="none" stroke="black" points="295.1,-941.5 495.1,-941.5 "/>
<text text-anchor="start" x="303.1" y="-921.5" font-family="Helvetica,sans-Serif" font-size="20.00">+ Tratador()</text>
<text text-anchor="start" x="303.1" y="-899.5" font-family="Helvetica,sans-Serif" font-size="20.00">+ Tratador()</text>
<text text-anchor="start" x="303.1" y="-877.5" font-family="Helvetica,sans-Serif" font-size="20.00">+ ~Tratador()</text>
<text text-anchor="start" x="303.1" y="-855.5" font-family="Helvetica,sans-Serif" font-size="20.00">+ getUniforme()</text>
<text text-anchor="start" x="303.1" y="-833.5" font-family="Helvetica,sans-Serif" font-size="20.00">+ setUniforme()</text>
<text text-anchor="start" x="303.1" y="-811.5" font-family="Helvetica,sans-Serif" font-size="20.00">+ setUniforme()</text>
<text text-anchor="start" x="303.1" y="-789.5" font-family="Helvetica,sans-Serif" font-size="20.00">+ printOutDados()</text>
</a>
</g>
</g>
<!-- Node4&#45;&gt;Node3 -->
<g id="edge3" class="edge">
<title>Node4&#45;&gt;Node3</title>
<path fill="none" stroke="#404040" d="M336.34,-779.24C334.32,-773.16 332.54,-767.06 331.1,-761 328.93,-751.88 327.22,-742.44 325.89,-732.87"/>
<polygon fill="none" stroke="#404040" points="325.86,-732.61 321.17,-727.13 324.41,-720.7 329.11,-726.17 325.86,-732.61"/>
<text text-anchor="middle" x="382.6" y="-745" font-family="Helvetica,sans-Serif" font-size="20.00"> #tratador</text>
</g>
<!-- Node5 -->
<g id="node5" class="node">
<title>Node5</title>
<g id="a_node5"><a xlink:href="classPessoa.html" target="_top" xlink:title="Classe base dos funcionarios.">
<polygon fill="white" stroke="black" points="268.1,-1305.5 268.1,-1681.5 468.1,-1681.5 468.1,-1305.5 268.1,-1305.5"/>
<text text-anchor="middle" x="368.1" y="-1661.5" font-family="Helvetica,sans-Serif" font-size="20.00">Pessoa</text>
<polyline fill="none" stroke="black" points="268.1,-1651.5 468.1,-1651.5 "/>
<text text-anchor="middle" x="368.1" y="-1631.5" font-family="Helvetica,sans-Serif" font-size="20.00"> </text>
<polyline fill="none" stroke="black" points="268.1,-1621.5 468.1,-1621.5 "/>
<text text-anchor="start" x="276.1" y="-1601.5" font-family="Helvetica,sans-Serif" font-size="20.00">+ Pessoa()</text>
<text text-anchor="start" x="276.1" y="-1579.5" font-family="Helvetica,sans-Serif" font-size="20.00">+ Pessoa()</text>
<text text-anchor="start" x="276.1" y="-1557.5" font-family="Helvetica,sans-Serif" font-size="20.00">+ ~Pessoa()</text>
<text text-anchor="start" x="276.1" y="-1535.5" font-family="Helvetica,sans-Serif" font-size="20.00">+ getNome()</text>
<text text-anchor="start" x="276.1" y="-1513.5" font-family="Helvetica,sans-Serif" font-size="20.00">+ setNome()</text>
<text text-anchor="start" x="276.1" y="-1491.5" font-family="Helvetica,sans-Serif" font-size="20.00">+ setNome()</text>
<text text-anchor="start" x="276.1" y="-1469.5" font-family="Helvetica,sans-Serif" font-size="20.00">+ getTelefone()</text>
<text text-anchor="start" x="276.1" y="-1447.5" font-family="Helvetica,sans-Serif" font-size="20.00">+ setTelefone()</text>
<text text-anchor="start" x="276.1" y="-1425.5" font-family="Helvetica,sans-Serif" font-size="20.00">+ setTelefone()</text>
<text text-anchor="start" x="276.1" y="-1403.5" font-family="Helvetica,sans-Serif" font-size="20.00">+ getEmail()</text>
<text text-anchor="start" x="276.1" y="-1381.5" font-family="Helvetica,sans-Serif" font-size="20.00">+ setEmail()</text>
<text text-anchor="start" x="276.1" y="-1359.5" font-family="Helvetica,sans-Serif" font-size="20.00">+ setEmail()</text>
<text text-anchor="start" x="276.1" y="-1337.5" font-family="Helvetica,sans-Serif" font-size="20.00">+ printOutDados()</text>
<text text-anchor="start" x="276.1" y="-1315.5" font-family="Helvetica,sans-Serif" font-size="20.00">+ operator==()</text>
</a>
</g>
</g>
<!-- Node5&#45;&gt;Node4 -->
<g id="edge4" class="edge">
<title>Node5&#45;&gt;Node4</title>
<path fill="none" stroke="midnightblue" d="M376.98,-1294.95C381.35,-1197.57 386.46,-1083.79 390.14,-1001.92"/>
<polygon fill="none" stroke="midnightblue" points="373.47,-1295.08 376.52,-1305.22 380.46,-1295.39 373.47,-1295.08"/>
</g>
<!-- Node9 -->
<g id="node9" class="node">
<title>Node9</title>
<g id="a_node9"><a xlink:href="classVeterinario.html" target="_top" xlink:title="Implementação dos veterinarios.">
<polygon fill="white" stroke="black" points="77.1,-779.5 77.1,-1001.5 277.1,-1001.5 277.1,-779.5 77.1,-779.5"/>
<text text-anchor="middle" x="177.1" y="-981.5" font-family="Helvetica,sans-Serif" font-size="20.00">Veterinario</text>
<polyline fill="none" stroke="black" points="77.1,-971.5 277.1,-971.5 "/>
<text text-anchor="middle" x="177.1" y="-951.5" font-family="Helvetica,sans-Serif" font-size="20.00"> </text>
<polyline fill="none" stroke="black" points="77.1,-941.5 277.1,-941.5 "/>
<text text-anchor="start" x="85.1" y="-921.5" font-family="Helvetica,sans-Serif" font-size="20.00">+ Veterinario()</text>
<text text-anchor="start" x="85.1" y="-899.5" font-family="Helvetica,sans-Serif" font-size="20.00">+ Veterinario()</text>
<text text-anchor="start" x="85.1" y="-877.5" font-family="Helvetica,sans-Serif" font-size="20.00">+ ~Veterinario()</text>
<text text-anchor="start" x="85.1" y="-855.5" font-family="Helvetica,sans-Serif" font-size="20.00">+ getCRMV()</text>
<text text-anchor="start" x="85.1" y="-833.5" font-family="Helvetica,sans-Serif" font-size="20.00">+ setCRMV()</text>
<text text-anchor="start" x="85.1" y="-811.5" font-family="Helvetica,sans-Serif" font-size="20.00">+ setCRMV()</text>
<text text-anchor="start" x="85.1" y="-789.5" font-family="Helvetica,sans-Serif" font-size="20.00">+ printOutDados()</text>
</a>
</g>
</g>
<!-- Node5&#45;&gt;Node9 -->
<g id="edge10" class="edge">
<title>Node5&#45;&gt;Node9</title>
<path fill="none" stroke="midnightblue" d="M305.51,-1295.54C274.52,-1198.03 238.26,-1083.95 212.2,-1001.92"/>
<polygon fill="none" stroke="midnightblue" points="302.22,-1296.75 308.58,-1305.22 308.89,-1294.63 302.22,-1296.75"/>
</g>
<!-- Node6 -->
<g id="node6" class="node">
<title>Node6</title>
<g id="a_node6"><a xlink:title=" ">
<polygon fill="white" stroke="#bfbfbf" points="235.1,-1784.5 235.1,-1874.5 309.1,-1874.5 309.1,-1784.5 235.1,-1784.5"/>
<text text-anchor="middle" x="272.1" y="-1854.5" font-family="Helvetica,sans-Serif" font-size="20.00">string</text>
<polyline fill="none" stroke="#bfbfbf" points="235.1,-1844.5 309.1,-1844.5 "/>
<text text-anchor="middle" x="272.1" y="-1824.5" font-family="Helvetica,sans-Serif" font-size="20.00"> </text>
<polyline fill="none" stroke="#bfbfbf" points="235.1,-1814.5 309.1,-1814.5 "/>
<text text-anchor="middle" x="272.1" y="-1794.5" font-family="Helvetica,sans-Serif" font-size="20.00"> </text>
</a>
</g>
</g>
<!-- Node6&#45;&gt;Node3 -->
<g id="edge8" class="edge">
<title>Node6&#45;&gt;Node3</title>
<path fill="none" stroke="#404040" d="M235.08,-1807.42C219.09,-1796.76 201.3,-1782.55 189.1,-1766 -12.74,-1492.08 -18.31,-1358.41 17.1,-1020 28.5,-911.11 10.98,-872.4 68.1,-779 102.62,-722.56 157.7,-674.55 208.46,-638.52"/>
<polygon fill="none" stroke="#404040" points="208.71,-638.35 211.34,-631.63 218.55,-631.48 215.92,-638.19 208.71,-638.35"/>
<text text-anchor="middle" x="93.1" y="-1170.5" font-family="Helvetica,sans-Serif" font-size="20.00"> #especie</text>
<text text-anchor="middle" x="93.1" y="-1148.5" font-family="Helvetica,sans-Serif" font-size="20.00">#ameacadoPor</text>
<text text-anchor="middle" x="93.1" y="-1126.5" font-family="Helvetica,sans-Serif" font-size="20.00">#nome</text>
</g>
<!-- Node6&#45;&gt;Node5 -->
<g id="edge5" class="edge">
<title>Node6&#45;&gt;Node5</title>
<path fill="none" stroke="#404040" d="M284.75,-1784.49C291.8,-1759.98 301.12,-1727.54 310.98,-1693.25"/>
<polygon fill="none" stroke="#404040" points="311.02,-1693.09 308.84,-1686.22 314.34,-1681.56 316.52,-1688.43 311.02,-1693.09"/>
<text text-anchor="middle" x="357.6" y="-1750" font-family="Helvetica,sans-Serif" font-size="20.00"> #email</text>
<text text-anchor="middle" x="357.6" y="-1728" font-family="Helvetica,sans-Serif" font-size="20.00">#nome</text>
<text text-anchor="middle" x="357.6" y="-1706" font-family="Helvetica,sans-Serif" font-size="20.00">#telefone</text>
</g>
<!-- Node6&#45;&gt;Node9 -->
<g id="edge11" class="edge">
<title>Node6&#45;&gt;Node9</title>
<path fill="none" stroke="#404040" d="M238.01,-1784.45C218.73,-1756.71 196.45,-1719.22 186.1,-1682 168.76,-1619.6 172.1,-1219.53 175.05,-1013.61"/>
<polygon fill="none" stroke="#404040" points="175.05,-1013.54 171.14,-1007.48 175.22,-1001.54 179.14,-1007.59 175.05,-1013.54"/>
<text text-anchor="middle" x="222.6" y="-1488.5" font-family="Helvetica,sans-Serif" font-size="20.00"> &#45;CRMV</text>
</g>
<!-- Node10 -->
<g id="node10" class="node">
<title>Node10</title>
<g id="a_node10"><a xlink:href="classNativo.html" target="_top" xlink:title="Umas das definições de categoria para Animal.">
<polygon fill="white" stroke="black" points="640.1,-1020.5 640.1,-1286.5 802.1,-1286.5 802.1,-1020.5 640.1,-1020.5"/>
<text text-anchor="middle" x="721.1" y="-1266.5" font-family="Helvetica,sans-Serif" font-size="20.00">Nativo</text>
<polyline fill="none" stroke="black" points="640.1,-1256.5 802.1,-1256.5 "/>
<text text-anchor="middle" x="721.1" y="-1236.5" font-family="Helvetica,sans-Serif" font-size="20.00"> </text>
<polyline fill="none" stroke="black" points="640.1,-1226.5 802.1,-1226.5 "/>
<text text-anchor="start" x="648.1" y="-1206.5" font-family="Helvetica,sans-Serif" font-size="20.00">+ Nativo()</text>
<text text-anchor="start" x="648.1" y="-1184.5" font-family="Helvetica,sans-Serif" font-size="20.00">+ Nativo()</text>
<text text-anchor="start" x="648.1" y="-1162.5" font-family="Helvetica,sans-Serif" font-size="20.00">+ ~Nativo()</text>
<text text-anchor="start" x="648.1" y="-1140.5" font-family="Helvetica,sans-Serif" font-size="20.00">+ getRegiao()</text>
<text text-anchor="start" x="648.1" y="-1118.5" font-family="Helvetica,sans-Serif" font-size="20.00">+ setRegiao()</text>
<text text-anchor="start" x="648.1" y="-1096.5" font-family="Helvetica,sans-Serif" font-size="20.00">+ setRegiao()</text>
<text text-anchor="start" x="648.1" y="-1074.5" font-family="Helvetica,sans-Serif" font-size="20.00">+ getLicenca()</text>
<text text-anchor="start" x="648.1" y="-1052.5" font-family="Helvetica,sans-Serif" font-size="20.00">+ setLicenca()</text>
<text text-anchor="start" x="648.1" y="-1030.5" font-family="Helvetica,sans-Serif" font-size="20.00">+ setLicenca()</text>
</a>
</g>
</g>
<!-- Node6&#45;&gt;Node10 -->
<g id="edge14" class="edge">
<title>Node6&#45;&gt;Node10</title>
<path fill="none" stroke="#404040" d="M309.35,-1823.05C378.29,-1810.91 525.73,-1775.02 602.1,-1682 690.49,-1574.34 716.4,-1414.28 722.56,-1298.72"/>
<polygon fill="none" stroke="#404040" points="722.56,-1298.61 718.86,-1292.43 723.14,-1286.63 726.85,-1292.81 722.56,-1298.61"/>
<text text-anchor="middle" x="630.6" y="-1739" font-family="Helvetica,sans-Serif" font-size="20.00"> #licenca</text>
<text text-anchor="middle" x="630.6" y="-1717" font-family="Helvetica,sans-Serif" font-size="20.00">#regiao</text>
</g>
<!-- Node7 -->
<g id="node7" class="node">
<title>Node7</title>
<g id="a_node7"><a xlink:title=" ">
<polygon fill="white" stroke="#bfbfbf" points="486.6,-1448.5 486.6,-1538.5 593.6,-1538.5 593.6,-1448.5 486.6,-1448.5"/>
<text text-anchor="middle" x="540.1" y="-1518.5" font-family="Helvetica,sans-Serif" font-size="20.00">Uniforme</text>
<polyline fill="none" stroke="#bfbfbf" points="486.6,-1508.5 593.6,-1508.5 "/>
<text text-anchor="middle" x="540.1" y="-1488.5" font-family="Helvetica,sans-Serif" font-size="20.00"> </text>
<polyline fill="none" stroke="#bfbfbf" points="486.6,-1478.5 593.6,-1478.5 "/>
<text text-anchor="middle" x="540.1" y="-1458.5" font-family="Helvetica,sans-Serif" font-size="20.00"> </text>
</a>
</g>
</g>
<!-- Node7&#45;&gt;Node4 -->
<g id="edge6" class="edge">
<title>Node7&#45;&gt;Node4</title>
<path fill="none" stroke="#404040" d="M529.44,-1448.31C507.58,-1357.72 457.03,-1148.2 424.55,-1013.57"/>
<polygon fill="none" stroke="#404040" points="424.48,-1013.26 419.18,-1008.36 421.66,-1001.59 426.96,-1006.49 424.48,-1013.26"/>
<text text-anchor="middle" x="540.6" y="-1148.5" font-family="Helvetica,sans-Serif" font-size="20.00"> &#45;uniforme</text>
</g>
<!-- Node8 -->
<g id="node8" class="node">
<title>Node8</title>
<g id="a_node8"><a xlink:title=" ">
<polygon fill="white" stroke="#bfbfbf" points="532.6,-845.5 532.6,-935.5 591.6,-935.5 591.6,-845.5 532.6,-845.5"/>
<text text-anchor="middle" x="562.1" y="-915.5" font-family="Helvetica,sans-Serif" font-size="20.00">bool</text>
<polyline fill="none" stroke="#bfbfbf" points="532.6,-905.5 591.6,-905.5 "/>
<text text-anchor="middle" x="562.1" y="-885.5" font-family="Helvetica,sans-Serif" font-size="20.00"> </text>
<polyline fill="none" stroke="#bfbfbf" points="532.6,-875.5 591.6,-875.5 "/>
<text text-anchor="middle" x="562.1" y="-855.5" font-family="Helvetica,sans-Serif" font-size="20.00"> </text>
</a>
</g>
</g>
<!-- Node8&#45;&gt;Node2 -->
<g id="edge12" class="edge">
<title>Node8&#45;&gt;Node2</title>
<path fill="none" stroke="#404040" d="M563.5,-845.49C564.28,-820.68 565.26,-789.11 566.1,-761 569.96,-632.03 574.19,-483.85 576.98,-385.04"/>
<polygon fill="none" stroke="#404040" points="576.98,-384.93 573.15,-378.82 577.32,-372.94 581.15,-379.05 576.98,-384.93"/>
<text text-anchor="middle" x="633.6" y="-560.5" font-family="Helvetica,sans-Serif" font-size="20.00"> #gestacao</text>
</g>
<!-- Node8&#45;&gt;Node3 -->
<g id="edge7" class="edge">
<title>Node8&#45;&gt;Node3</title>
<path fill="none" stroke="#404040" d="M547.53,-845.35C538.19,-822.9 524.02,-796.7 504.1,-779 487.38,-764.14 474.51,-775.05 457.1,-761 449.45,-754.83 440.11,-743.95 430,-730.39"/>
<polygon fill="none" stroke="#404040" points="429.94,-730.3 423.18,-727.8 422.89,-720.59 429.65,-723.1 429.94,-730.3"/>
<text text-anchor="middle" x="511.6" y="-745" font-family="Helvetica,sans-Serif" font-size="20.00"> #perigoso</text>
</g>
<!-- Node9&#45;&gt;Node3 -->
<g id="edge9" class="edge">
<title>Node9&#45;&gt;Node3</title>
<path fill="none" stroke="#404040" d="M181.53,-779.19C184.19,-765.36 187.93,-751.64 193.1,-739 198.37,-726.14 204.89,-713.46 212.22,-701.16"/>
<polygon fill="none" stroke="#404040" points="212.24,-701.13 212,-693.92 218.56,-690.93 218.8,-698.13 212.24,-701.13"/>
<text text-anchor="middle" x="258.1" y="-745" font-family="Helvetica,sans-Serif" font-size="20.00"> #veterinario</text>
</g>
<!-- Node10&#45;&gt;Node1 -->
<g id="edge13" class="edge">
<title>Node10&#45;&gt;Node1</title>
<path fill="none" stroke="midnightblue" d="M721.1,-1010.27C721.1,-933.49 721.1,-837.06 721.1,-751 721.1,-751 721.1,-751 721.1,-271.5 721.1,-223.9 703.49,-173.36 685.81,-134.61"/>
<polygon fill="none" stroke="midnightblue" points="717.6,-1010.49 721.1,-1020.49 724.6,-1010.49 717.6,-1010.49"/>
</g>
</g>
</svg>
