<?xml version="1.0" encoding="UTF-8" standalone="no"?>
<!DOCTYPE svg PUBLIC "-//W3C//DTD SVG 1.1//EN"
 "http://www.w3.org/Graphics/SVG/1.1/DTD/svg11.dtd">
<!-- Generated by graphviz version 2.43.0 (0)
 -->
<!-- Title: Petshop Pages: 1 -->
<!--zoomable 705 -->
<svg id="main" version="1.1" xmlns="http://www.w3.org/2000/svg" xmlns:xlink="http://www.w3.org/1999/xlink" xml:space="preserve" onload="init(evt)">
<style type="text/css"><![CDATA[
.edge:hover path { stroke: red; }
.edge:hover polygon { stroke: red; fill: red; }
]]></style>
<script type="text/javascript"><![CDATA[
var edges = document.getElementsByTagName('g');
if (edges && edges.length) {
  for (var i=0;i<edges.length;i++) {
    if (edges[i].id.substr(0,4)=='edge') {
      edges[i].setAttribute('class','edge');
    }
  }
}
]]></script>
        <defs>
                <circle id="rim" cx="0" cy="0" r="7"/>
                <circle id="rim2" cx="0" cy="0" r="3.5"/>
                <g id="zoomPlus">
                        <use xlink:href="#rim" fill="#404040">
                                <set attributeName="fill" to="#808080" begin="zoomplus.mouseover" end="zoomplus.mouseout"/>
                        </use>
                        <path d="M-4,0h8M0,-4v8" fill="none" stroke="white" stroke-width="1.5" pointer-events="none"/>
                </g>
                <g id="zoomMin">
                        <use xlink:href="#rim" fill="#404040">
                                <set attributeName="fill" to="#808080" begin="zoomminus.mouseover" end="zoomminus.mouseout"/>
                        </use>
                        <path d="M-4,0h8" fill="none" stroke="white" stroke-width="1.5" pointer-events="none"/>
                </g>
                <g id="dirArrow">
                        <path fill="none" stroke="white" stroke-width="1.5" d="M0,-3.0v7 M-2.5,-0.5L0,-3.0L2.5,-0.5"/>
                </g>
               <g id="resetDef">
                       <use xlink:href="#rim2" fill="#404040">
                               <set attributeName="fill" to="#808080" begin="reset.mouseover" end="reset.mouseout"/>
                       </use>
               </g>
        </defs>

<script type="text/javascript">
var viewWidth = 1096;
var viewHeight = 705;
var sectionId = 'dynsection-0';
</script>
<script xlink:href="svgpan.js"/>
<svg id="graph" class="graph">
<g id="viewport">
<title>Petshop</title>
<polygon fill="white" stroke="transparent" points="-4,4 -4,-701 1092,-701 1092,4 -4,4"/>
<!-- Node1 -->
<g id="node1" class="node">
<title>Node1</title>
<g id="a_node1"><a xlink:title="Classe de controle.">
<polygon fill="#bfbfbf" stroke="black" points="410.5,-0.5 410.5,-332.5 663.5,-332.5 663.5,-0.5 410.5,-0.5"/>
<text text-anchor="middle" x="537" y="-312.5" font-family="Helvetica,sans-Serif" font-size="20.00">Petshop</text>
<polyline fill="none" stroke="black" points="410.5,-302.5 663.5,-302.5 "/>
<text text-anchor="middle" x="537" y="-282.5" font-family="Helvetica,sans-Serif" font-size="20.00"> </text>
<polyline fill="none" stroke="black" points="410.5,-272.5 663.5,-272.5 "/>
<text text-anchor="start" x="418.5" y="-252.5" font-family="Helvetica,sans-Serif" font-size="20.00">+ Petshop()</text>
<text text-anchor="start" x="418.5" y="-230.5" font-family="Helvetica,sans-Serif" font-size="20.00">+ ~Petshop()</text>
<text text-anchor="start" x="418.5" y="-208.5" font-family="Helvetica,sans-Serif" font-size="20.00">+ listarAnimais()</text>
<text text-anchor="start" x="418.5" y="-186.5" font-family="Helvetica,sans-Serif" font-size="20.00">+ listarTratadores()</text>
<text text-anchor="start" x="418.5" y="-164.5" font-family="Helvetica,sans-Serif" font-size="20.00">+ listarVeterinarios()</text>
<text text-anchor="start" x="418.5" y="-142.5" font-family="Helvetica,sans-Serif" font-size="20.00">+ criarVeterinario()</text>
<text text-anchor="start" x="418.5" y="-120.5" font-family="Helvetica,sans-Serif" font-size="20.00">+ criarTratador()</text>
<text text-anchor="start" x="418.5" y="-98.5" font-family="Helvetica,sans-Serif" font-size="20.00">+ criarAnimal()</text>
<text text-anchor="start" x="418.5" y="-76.5" font-family="Helvetica,sans-Serif" font-size="20.00">+ adicionarVeterinario()</text>
<text text-anchor="start" x="418.5" y="-54.5" font-family="Helvetica,sans-Serif" font-size="20.00">+ adicionarTratador()</text>
<text text-anchor="start" x="418.5" y="-32.5" font-family="Helvetica,sans-Serif" font-size="20.00">e 15 mais...</text>
<text text-anchor="start" x="418.5" y="-10.5" font-family="Helvetica,sans-Serif" font-size="20.00">&#45; findAnimal()</text>
</a>
</g>
</g>
<!-- Node2 -->
<g id="node2" class="node">
<title>Node2</title>
<g id="a_node2"><a xlink:title=" ">
<polygon fill="white" stroke="#bfbfbf" points="0,-391.5 0,-503.5 208,-503.5 208,-391.5 0,-391.5"/>
<text text-anchor="start" x="8" y="-483.5" font-family="Helvetica,sans-Serif" font-size="20.00">vector&lt; shared_ptr</text>
<text text-anchor="middle" x="104" y="-461.5" font-family="Helvetica,sans-Serif" font-size="20.00">&lt; Tratador &gt; &gt;</text>
<polyline fill="none" stroke="#bfbfbf" points="0,-451.5 208,-451.5 "/>
<text text-anchor="middle" x="104" y="-431.5" font-family="Helvetica,sans-Serif" font-size="20.00"> </text>
<polyline fill="none" stroke="#bfbfbf" points="0,-421.5 208,-421.5 "/>
<text text-anchor="middle" x="104" y="-401.5" font-family="Helvetica,sans-Serif" font-size="20.00"> </text>
</a>
</g>
</g>
<!-- Node2&#45;&gt;Node1 -->
<g id="edge1" class="edge">
<title>Node2&#45;&gt;Node1</title>
<path fill="none" stroke="#404040" d="M189.55,-391.38C249.44,-352.78 330.76,-300.39 399.67,-255.99"/>
<polygon fill="none" stroke="#404040" points="400.09,-255.72 402.97,-249.1 410.18,-249.22 407.3,-255.83 400.09,-255.72"/>
<text text-anchor="middle" x="303" y="-357" font-family="Helvetica,sans-Serif" font-size="20.00"> &#45;tratadores</text>
</g>
<!-- Node3 -->
<g id="node3" class="node">
<title>Node3</title>
<g id="a_node3"><a xlink:title=" ">
<polygon fill="white" stroke="#bfbfbf" points="226,-391.5 226,-503.5 434,-503.5 434,-391.5 226,-391.5"/>
<text text-anchor="start" x="234" y="-483.5" font-family="Helvetica,sans-Serif" font-size="20.00">vector&lt; shared_ptr</text>
<text text-anchor="middle" x="330" y="-461.5" font-family="Helvetica,sans-Serif" font-size="20.00">&lt; Animal &gt; &gt;</text>
<polyline fill="none" stroke="#bfbfbf" points="226,-451.5 434,-451.5 "/>
<text text-anchor="middle" x="330" y="-431.5" font-family="Helvetica,sans-Serif" font-size="20.00"> </text>
<polyline fill="none" stroke="#bfbfbf" points="226,-421.5 434,-421.5 "/>
<text text-anchor="middle" x="330" y="-401.5" font-family="Helvetica,sans-Serif" font-size="20.00"> </text>
</a>
</g>
</g>
<!-- Node3&#45;&gt;Node1 -->
<g id="edge2" class="edge">
<title>Node3&#45;&gt;Node1</title>
<path fill="none" stroke="#404040" d="M370.9,-391.38C381.83,-376.64 394.26,-359.89 407.28,-342.34"/>
<polygon fill="none" stroke="#404040" points="407.42,-342.15 407.79,-334.95 414.57,-332.51 414.21,-339.71 407.42,-342.15"/>
<text text-anchor="middle" x="442.5" y="-357" font-family="Helvetica,sans-Serif" font-size="20.00"> &#45;animais</text>
</g>
<!-- Node4 -->
<g id="node4" class="node">
<title>Node4</title>
<g id="a_node4"><a xlink:href="classFiltroAnimal.html" target="_top" xlink:title="Classe de filtragem.">
<polygon fill="white" stroke="black" points="452,-402.5 452,-492.5 622,-492.5 622,-402.5 452,-402.5"/>
<text text-anchor="middle" x="537" y="-472.5" font-family="Helvetica,sans-Serif" font-size="20.00">FiltroAnimal</text>
<polyline fill="none" stroke="black" points="452,-462.5 622,-462.5 "/>
<text text-anchor="middle" x="537" y="-442.5" font-family="Helvetica,sans-Serif" font-size="20.00"> </text>
<polyline fill="none" stroke="black" points="452,-432.5 622,-432.5 "/>
<text text-anchor="start" x="460" y="-412.5" font-family="Helvetica,sans-Serif" font-size="20.00">+ FiltroAnimal()</text>
</a>
</g>
</g>
<!-- Node4&#45;&gt;Node1 -->
<g id="edge3" class="edge">
<title>Node4&#45;&gt;Node1</title>
<path fill="none" stroke="#404040" d="M537,-402.29C537,-385.84 537,-366 537,-344.91"/>
<polygon fill="none" stroke="#404040" points="537,-344.72 533,-338.72 537,-332.72 541,-338.72 537,-344.72"/>
<text text-anchor="middle" x="570" y="-357" font-family="Helvetica,sans-Serif" font-size="20.00"> &#45;casts</text>
</g>
<!-- Node5 -->
<g id="node5" class="node">
<title>Node5</title>
<g id="a_node5"><a xlink:title=" ">
<polygon fill="white" stroke="#bfbfbf" points="314,-562.5 314,-696.5 640,-696.5 640,-562.5 314,-562.5"/>
<text text-anchor="start" x="322" y="-676.5" font-family="Helvetica,sans-Serif" font-size="20.00">map&lt; char, std::function</text>
<text text-anchor="start" x="322" y="-654.5" font-family="Helvetica,sans-Serif" font-size="20.00">&lt; shared_ptr&lt; Animal &gt;shared</text>
<text text-anchor="middle" x="477" y="-632.5" font-family="Helvetica,sans-Serif" font-size="20.00">_ptr&lt; Animal &gt; animal)&gt; &gt;</text>
<polyline fill="none" stroke="#bfbfbf" points="314,-622.5 640,-622.5 "/>
<text text-anchor="middle" x="477" y="-602.5" font-family="Helvetica,sans-Serif" font-size="20.00"> </text>
<polyline fill="none" stroke="#bfbfbf" points="314,-592.5 640,-592.5 "/>
<text text-anchor="middle" x="477" y="-572.5" font-family="Helvetica,sans-Serif" font-size="20.00"> </text>
</a>
</g>
</g>
<!-- Node5&#45;&gt;Node4 -->
<g id="edge4" class="edge">
<title>Node5&#45;&gt;Node4</title>
<path fill="none" stroke="#404040" d="M499,-562.5C505.4,-543.31 512.32,-522.55 518.47,-504.08"/>
<polygon fill="none" stroke="#404040" points="518.5,-503.99 516.61,-497.03 522.3,-492.6 524.2,-499.56 518.5,-503.99"/>
<text text-anchor="middle" x="547" y="-528" font-family="Helvetica,sans-Serif" font-size="20.00"> +filtro</text>
</g>
<!-- Node6 -->
<g id="node6" class="node">
<title>Node6</title>
<g id="a_node6"><a xlink:href="classMapeadorAnimal.html" target="_top" xlink:title="Mapeador de animais.">
<polygon fill="white" stroke="black" points="640.5,-402.5 640.5,-492.5 861.5,-492.5 861.5,-402.5 640.5,-402.5"/>
<text text-anchor="middle" x="751" y="-472.5" font-family="Helvetica,sans-Serif" font-size="20.00">MapeadorAnimal</text>
<polyline fill="none" stroke="black" points="640.5,-462.5 861.5,-462.5 "/>
<text text-anchor="middle" x="751" y="-442.5" font-family="Helvetica,sans-Serif" font-size="20.00"> </text>
<polyline fill="none" stroke="black" points="640.5,-432.5 861.5,-432.5 "/>
<text text-anchor="start" x="648.5" y="-412.5" font-family="Helvetica,sans-Serif" font-size="20.00">+ MapeadorAnimal()</text>
</a>
</g>
</g>
<!-- Node6&#45;&gt;Node1 -->
<g id="edge5" class="edge">
<title>Node6&#45;&gt;Node1</title>
<path fill="none" stroke="#404040" d="M717.09,-402.29C703.94,-385.15 687.97,-364.33 671.04,-342.25"/>
<polygon fill="none" stroke="#404040" points="671.03,-342.24 664.2,-339.91 663.73,-332.72 670.55,-335.04 671.03,-342.24"/>
<text text-anchor="middle" x="728" y="-357" font-family="Helvetica,sans-Serif" font-size="20.00"> &#45;mapa</text>
</g>
<!-- Node7 -->
<g id="node7" class="node">
<title>Node7</title>
<g id="a_node7"><a xlink:title=" ">
<polygon fill="white" stroke="#bfbfbf" points="658.5,-573.5 658.5,-685.5 963.5,-685.5 963.5,-573.5 658.5,-573.5"/>
<text text-anchor="start" x="666.5" y="-665.5" font-family="Helvetica,sans-Serif" font-size="20.00">map&lt; string, std::function</text>
<text text-anchor="middle" x="811" y="-643.5" font-family="Helvetica,sans-Serif" font-size="20.00">&lt; shared_ptr&lt; Animal &gt;)&gt; &gt;</text>
<polyline fill="none" stroke="#bfbfbf" points="658.5,-633.5 963.5,-633.5 "/>
<text text-anchor="middle" x="811" y="-613.5" font-family="Helvetica,sans-Serif" font-size="20.00"> </text>
<polyline fill="none" stroke="#bfbfbf" points="658.5,-603.5 963.5,-603.5 "/>
<text text-anchor="middle" x="811" y="-583.5" font-family="Helvetica,sans-Serif" font-size="20.00"> </text>
</a>
</g>
</g>
<!-- Node7&#45;&gt;Node6 -->
<g id="edge6" class="edge">
<title>Node7&#45;&gt;Node6</title>
<path fill="none" stroke="#404040" d="M792.51,-573.03C785.21,-551.14 776.84,-526.03 769.54,-504.13"/>
<polygon fill="none" stroke="#404040" points="769.52,-504.05 763.82,-499.62 765.72,-492.66 771.41,-497.09 769.52,-504.05"/>
<text text-anchor="middle" x="820.5" y="-528" font-family="Helvetica,sans-Serif" font-size="20.00"> +aMap</text>
</g>
<!-- Node8 -->
<g id="node8" class="node">
<title>Node8</title>
<g id="a_node8"><a xlink:title=" ">
<polygon fill="white" stroke="#bfbfbf" points="880,-391.5 880,-503.5 1088,-503.5 1088,-391.5 880,-391.5"/>
<text text-anchor="start" x="888" y="-483.5" font-family="Helvetica,sans-Serif" font-size="20.00">vector&lt; shared_ptr</text>
<text text-anchor="middle" x="984" y="-461.5" font-family="Helvetica,sans-Serif" font-size="20.00">&lt; Veterinario &gt; &gt;</text>
<polyline fill="none" stroke="#bfbfbf" points="880,-451.5 1088,-451.5 "/>
<text text-anchor="middle" x="984" y="-431.5" font-family="Helvetica,sans-Serif" font-size="20.00"> </text>
<polyline fill="none" stroke="#bfbfbf" points="880,-421.5 1088,-421.5 "/>
<text text-anchor="middle" x="984" y="-401.5" font-family="Helvetica,sans-Serif" font-size="20.00"> </text>
</a>
</g>
</g>
<!-- Node8&#45;&gt;Node1 -->
<g id="edge7" class="edge">
<title>Node8&#45;&gt;Node1</title>
<path fill="none" stroke="#404040" d="M895.69,-391.38C832.51,-351.95 746.26,-298.11 674.17,-253.11"/>
<polygon fill="none" stroke="#404040" points="673.82,-252.9 666.61,-253.11 663.64,-246.54 670.85,-246.33 673.82,-252.9"/>
<text text-anchor="middle" x="929.5" y="-357" font-family="Helvetica,sans-Serif" font-size="20.00"> &#45;veterinarios</text>
</g>
</g>
</svg>
        <g id="navigator" transform="translate(0 0)" fill="#404254">
                <rect fill="#f2f5e9" fill-opacity="0.5" stroke="#606060" stroke-width=".5" x="0" y="0" width="60" height="60"/>
                <use id="zoomplus" xlink:href="#zoomPlus" x="17" y="9" onmousedown="handleZoom(evt,'in')"/>
                <use id="zoomminus" xlink:href="#zoomMin" x="42" y="9" onmousedown="handleZoom(evt,'out')"/>
                <use id="reset" xlink:href="#resetDef" x="30" y="36" onmousedown="handleReset()"/>
                <g id="arrowUp" xlink:href="#dirArrow" transform="translate(30 24)" onmousedown="handlePan(0,-1)">
                  <use xlink:href="#rim" fill="#404040">
                        <set attributeName="fill" to="#808080" begin="arrowUp.mouseover" end="arrowUp.mouseout"/>
                  </use>
                  <path fill="none" stroke="white" stroke-width="1.5" d="M0,-3.0v7 M-2.5,-0.5L0,-3.0L2.5,-0.5"/>
                </g>
                <g id="arrowRight" xlink:href="#dirArrow" transform="rotate(90) translate(36 -43)" onmousedown="handlePan(1,0)">
                  <use xlink:href="#rim" fill="#404040">
                        <set attributeName="fill" to="#808080" begin="arrowRight.mouseover" end="arrowRight.mouseout"/>
                  </use>
                  <path fill="none" stroke="white" stroke-width="1.5" d="M0,-3.0v7 M-2.5,-0.5L0,-3.0L2.5,-0.5"/>
                </g>
                <g id="arrowDown" xlink:href="#dirArrow" transform="rotate(180) translate(-30 -48)" onmousedown="handlePan(0,1)">
                  <use xlink:href="#rim" fill="#404040">
                        <set attributeName="fill" to="#808080" begin="arrowDown.mouseover" end="arrowDown.mouseout"/>
                  </use>
                  <path fill="none" stroke="white" stroke-width="1.5" d="M0,-3.0v7 M-2.5,-0.5L0,-3.0L2.5,-0.5"/>
                </g>
                <g id="arrowLeft" xlink:href="#dirArrow" transform="rotate(270) translate(-36 17)" onmousedown="handlePan(-1,0)">
                  <use xlink:href="#rim" fill="#404040">
                        <set attributeName="fill" to="#808080" begin="arrowLeft.mouseover" end="arrowLeft.mouseout"/>
                  </use>
                  <path fill="none" stroke="white" stroke-width="1.5" d="M0,-3.0v7 M-2.5,-0.5L0,-3.0L2.5,-0.5"/>
                </g>
        </g>
        <svg viewBox="0 0 15 15" width="100%" height="30px" preserveAspectRatio="xMaxYMin meet">
         <g id="arrow_out" transform="scale(0.3 0.3)">
          <a xlink:href="classPetshop__coll__graph_org.svg" target="_base">
           <rect id="button" ry="5" rx="5" y="6" x="6" height="38" width="38"
                fill="#f2f5e9" fill-opacity="0.5" stroke="#606060" stroke-width="1.0"/>
           <path id="arrow"
             d="M 11.500037,31.436501 C 11.940474,20.09759 22.043105,11.32322 32.158766,21.979434 L 37.068811,17.246167 C 37.068811,17.246167 37.088388,32 37.088388,32 L 22.160133,31.978069 C 22.160133,31.978069 26.997745,27.140456 26.997745,27.140456 C 18.528582,18.264221 13.291696,25.230495 11.500037,31.436501 z"
             style="fill:#404040;"/>
          </a>
         </g>
        </svg>
</svg>
