<?xml version="1.0" encoding="UTF-8" standalone="no"?>
<!DOCTYPE svg PUBLIC "-//W3C//DTD SVG 1.1//EN"
 "http://www.w3.org/Graphics/SVG/1.1/DTD/svg11.dtd">
<!-- Generated by graphviz version 2.43.0 (0)
 -->
<!-- Title: Exotico Pages: 1 -->
<svg width="887pt" height="314pt"
 viewBox="0.00 0.00 887.00 314.00" xmlns="http://www.w3.org/2000/svg" xmlns:xlink="http://www.w3.org/1999/xlink">
<g id="graph0" class="graph" transform="scale(1 1) rotate(0) translate(4 310)">
<title>Exotico</title>
<polygon fill="white" stroke="transparent" points="-4,4 -4,-310 883,-310 883,4 -4,4"/>
<!-- Node1 -->
<g id="node1" class="node">
<title>Node1</title>
<g id="a_node1"><a xlink:title="Umas das definições de categoria para Animal.">
<polygon fill="#bfbfbf" stroke="black" points="360.5,-149.5 360.5,-305.5 503.5,-305.5 503.5,-149.5 360.5,-149.5"/>
<text text-anchor="middle" x="432" y="-285.5" font-family="Helvetica,sans-Serif" font-size="20.00">Exotico</text>
<polyline fill="none" stroke="black" points="360.5,-275.5 503.5,-275.5 "/>
<text text-anchor="start" x="368.5" y="-255.5" font-family="Helvetica,sans-Serif" font-size="20.00"># local</text>
<polyline fill="none" stroke="black" points="360.5,-245.5 503.5,-245.5 "/>
<text text-anchor="start" x="368.5" y="-225.5" font-family="Helvetica,sans-Serif" font-size="20.00">+ Exotico()</text>
<text text-anchor="start" x="368.5" y="-203.5" font-family="Helvetica,sans-Serif" font-size="20.00">+ Exotico()</text>
<text text-anchor="start" x="368.5" y="-181.5" font-family="Helvetica,sans-Serif" font-size="20.00">+ ~Exotico()</text>
<text text-anchor="start" x="368.5" y="-159.5" font-family="Helvetica,sans-Serif" font-size="20.00">+ getLocal()</text>
</a>
</g>
</g>
<!-- Node2 -->
<g id="node2" class="node">
<title>Node2</title>
<g id="a_node2"><a xlink:href="classAnfibioExotico.html" target="_top" xlink:title="Implementação de animal com Classe e Categoria.">
<polygon fill="white" stroke="black" points="0,-0.5 0,-112.5 212,-112.5 212,-0.5 0,-0.5"/>
<text text-anchor="middle" x="106" y="-92.5" font-family="Helvetica,sans-Serif" font-size="20.00">AnfibioExotico</text>
<polyline fill="none" stroke="black" points="0,-82.5 212,-82.5 "/>
<text text-anchor="middle" x="106" y="-62.5" font-family="Helvetica,sans-Serif" font-size="20.00"> </text>
<polyline fill="none" stroke="black" points="0,-52.5 212,-52.5 "/>
<text text-anchor="start" x="8" y="-32.5" font-family="Helvetica,sans-Serif" font-size="20.00">+ AnfibioExotico()</text>
<text text-anchor="start" x="8" y="-10.5" font-family="Helvetica,sans-Serif" font-size="20.00">+ ~AnfibioExotico()</text>
</a>
</g>
</g>
<!-- Node1&#45;&gt;Node2 -->
<g id="edge1" class="edge">
<title>Node1&#45;&gt;Node2</title>
<path fill="none" stroke="midnightblue" d="M351.37,-184.7C309.31,-162.9 257.33,-135.95 212.05,-112.48"/>
<polygon fill="none" stroke="midnightblue" points="349.97,-187.92 360.46,-189.41 353.19,-181.7 349.97,-187.92"/>
</g>
<!-- Node3 -->
<g id="node3" class="node">
<title>Node3</title>
<g id="a_node3"><a xlink:href="classAveExotica.html" target="_top" xlink:title="Implementação de animal com Classe e Categoria.">
<polygon fill="white" stroke="black" points="230.5,-0.5 230.5,-112.5 409.5,-112.5 409.5,-0.5 230.5,-0.5"/>
<text text-anchor="middle" x="320" y="-92.5" font-family="Helvetica,sans-Serif" font-size="20.00">AveExotica</text>
<polyline fill="none" stroke="black" points="230.5,-82.5 409.5,-82.5 "/>
<text text-anchor="middle" x="320" y="-62.5" font-family="Helvetica,sans-Serif" font-size="20.00"> </text>
<polyline fill="none" stroke="black" points="230.5,-52.5 409.5,-52.5 "/>
<text text-anchor="start" x="238.5" y="-32.5" font-family="Helvetica,sans-Serif" font-size="20.00">+ AveExotica()</text>
<text text-anchor="start" x="238.5" y="-10.5" font-family="Helvetica,sans-Serif" font-size="20.00">+ ~AveExotica()</text>
</a>
</g>
</g>
<!-- Node1&#45;&gt;Node3 -->
<g id="edge2" class="edge">
<title>Node1&#45;&gt;Node3</title>
<path fill="none" stroke="midnightblue" d="M375.33,-141C368.98,-131.4 362.63,-121.83 356.62,-112.76"/>
<polygon fill="none" stroke="midnightblue" points="372.47,-143.02 380.92,-149.42 378.31,-139.15 372.47,-143.02"/>
</g>
<!-- Node4 -->
<g id="node4" class="node">
<title>Node4</title>
<g id="a_node4"><a xlink:href="classMamiferoExotico.html" target="_top" xlink:title="Implementação de animal com Classe e Categoria.">
<polygon fill="white" stroke="black" points="427.5,-0.5 427.5,-112.5 662.5,-112.5 662.5,-0.5 427.5,-0.5"/>
<text text-anchor="middle" x="545" y="-92.5" font-family="Helvetica,sans-Serif" font-size="20.00">MamiferoExotico</text>
<polyline fill="none" stroke="black" points="427.5,-82.5 662.5,-82.5 "/>
<text text-anchor="middle" x="545" y="-62.5" font-family="Helvetica,sans-Serif" font-size="20.00"> </text>
<polyline fill="none" stroke="black" points="427.5,-52.5 662.5,-52.5 "/>
<text text-anchor="start" x="435.5" y="-32.5" font-family="Helvetica,sans-Serif" font-size="20.00">+ MamiferoExotico()</text>
<text text-anchor="start" x="435.5" y="-10.5" font-family="Helvetica,sans-Serif" font-size="20.00">+ ~MamiferoExotico()</text>
</a>
</g>
</g>
<!-- Node1&#45;&gt;Node4 -->
<g id="edge3" class="edge">
<title>Node1&#45;&gt;Node4</title>
<path fill="none" stroke="midnightblue" d="M489.17,-141C495.59,-131.4 501.99,-121.83 508.05,-112.76"/>
<polygon fill="none" stroke="midnightblue" points="486.19,-139.16 483.54,-149.42 492.01,-143.05 486.19,-139.16"/>
</g>
<!-- Node5 -->
<g id="node5" class="node">
<title>Node5</title>
<g id="a_node5"><a xlink:href="classReptilExotico.html" target="_top" xlink:title="Implementação de animal com Classe e Categoria.">
<polygon fill="white" stroke="black" points="681,-0.5 681,-112.5 879,-112.5 879,-0.5 681,-0.5"/>
<text text-anchor="middle" x="780" y="-92.5" font-family="Helvetica,sans-Serif" font-size="20.00">ReptilExotico</text>
<polyline fill="none" stroke="black" points="681,-82.5 879,-82.5 "/>
<text text-anchor="middle" x="780" y="-62.5" font-family="Helvetica,sans-Serif" font-size="20.00"> </text>
<polyline fill="none" stroke="black" points="681,-52.5 879,-52.5 "/>
<text text-anchor="start" x="689" y="-32.5" font-family="Helvetica,sans-Serif" font-size="20.00">+ ReptilExotico()</text>
<text text-anchor="start" x="689" y="-10.5" font-family="Helvetica,sans-Serif" font-size="20.00">+ ~ReptilExotico()</text>
</a>
</g>
</g>
<!-- Node1&#45;&gt;Node5 -->
<g id="edge4" class="edge">
<title>Node1&#45;&gt;Node5</title>
<path fill="none" stroke="midnightblue" d="M512.87,-189.07C559.56,-167.25 619.3,-139 672,-113 674.93,-111.55 677.9,-110.08 680.9,-108.59"/>
<polygon fill="none" stroke="midnightblue" points="511.29,-185.94 503.71,-193.34 514.25,-192.28 511.29,-185.94"/>
</g>
</g>
</svg>
