<?xml version="1.0" encoding="UTF-8" standalone="no"?>
<!DOCTYPE svg PUBLIC "-//W3C//DTD SVG 1.1//EN"
 "http://www.w3.org/Graphics/SVG/1.1/DTD/svg11.dtd">
<!-- Generated by graphviz version 2.40.1 (20161225.0304)
 -->
<!-- Title: Anfibio Pages: 1 -->
<svg width="132pt" height="336pt"
 viewBox="0.00 0.00 132.00 336.00" xmlns="http://www.w3.org/2000/svg" xmlns:xlink="http://www.w3.org/1999/xlink">
<g id="graph0" class="graph" transform="scale(1 1) rotate(0) translate(4 332)">
<title>Anfibio</title>
<polygon fill="#ffffff" stroke="transparent" points="-4,4 -4,-332 128,-332 128,4 -4,4"/>
<!-- Node4 -->
<g id="node1" class="node">
<title>Node4</title>
<polygon fill="#bfbfbf" stroke="#000000" points="0,-.5 0,-156.5 124,-156.5 124,-.5 0,-.5"/>
<text text-anchor="middle" x="62" y="-136.5" font-family="Helvetica,sans-Serif" font-size="20.00" fill="#000000">Anfibio</text>
<polyline fill="none" stroke="#000000" points="0,-126.5 124,-126.5 "/>
<text text-anchor="middle" x="62" y="-106.5" font-family="Helvetica,sans-Serif" font-size="20.00" fill="#000000"> </text>
<polyline fill="none" stroke="#000000" points="0,-96.5 124,-96.5 "/>
<text text-anchor="start" x="8" y="-76.5" font-family="Helvetica,sans-Serif" font-size="20.00" fill="#000000">+ Anfibio()</text>
<text text-anchor="start" x="8" y="-54.5" font-family="Helvetica,sans-Serif" font-size="20.00" fill="#000000">+ ~Anfibio()</text>
<text text-anchor="start" x="8" y="-32.5" font-family="Helvetica,sans-Serif" font-size="20.00" fill="#000000">+ getCauda()</text>
<text text-anchor="start" x="8" y="-10.5" font-family="Helvetica,sans-Serif" font-size="20.00" fill="#000000">+ getPata()</text>
</g>
<!-- Node5 -->
<g id="node2" class="node">
<title>Node5</title>
<polygon fill="#ffffff" stroke="#bfbfbf" points="36.5,-237.5 36.5,-327.5 87.5,-327.5 87.5,-237.5 36.5,-237.5"/>
<text text-anchor="middle" x="62" y="-307.5" font-family="Helvetica,sans-Serif" font-size="20.00" fill="#000000">bool</text>
<polyline fill="none" stroke="#bfbfbf" points="36.5,-297.5 87.5,-297.5 "/>
<text text-anchor="middle" x="62" y="-277.5" font-family="Helvetica,sans-Serif" font-size="20.00" fill="#000000"> </text>
<polyline fill="none" stroke="#bfbfbf" points="36.5,-267.5 87.5,-267.5 "/>
<text text-anchor="middle" x="62" y="-247.5" font-family="Helvetica,sans-Serif" font-size="20.00" fill="#000000"> </text>
</g>
<!-- Node5&#45;&gt;Node4 -->
<g id="edge1" class="edge">
<title>Node5&#45;&gt;Node4</title>
<path fill="none" stroke="#404040" d="M62,-237.4788C62,-217.2952 62,-192.7291 62,-169.0034"/>
<polygon fill="none" stroke="#404040" points="62.0001,-168.7006 58,-162.7007 62,-156.7006 66,-162.7006 62.0001,-168.7006"/>
<text text-anchor="middle" x="92.5" y="-203" font-family="Helvetica,sans-Serif" font-size="20.00" fill="#000000"> #pata</text>
<text text-anchor="middle" x="92.5" y="-181" font-family="Helvetica,sans-Serif" font-size="20.00" fill="#000000">#cauda</text>
</g>
</g>
</svg>
