<?xml version="1.0" encoding="UTF-8" standalone="no"?>
<!DOCTYPE svg PUBLIC "-//W3C//DTD SVG 1.1//EN"
 "http://www.w3.org/Graphics/SVG/1.1/DTD/svg11.dtd">
<!-- Generated by graphviz version 2.43.0 (0)
 -->
<!-- Title: ReptilNativo Pages: 1 -->
<svg width="364pt" height="991pt"
 viewBox="0.00 0.00 363.50 991.00" xmlns="http://www.w3.org/2000/svg" xmlns:xlink="http://www.w3.org/1999/xlink">
<g id="graph0" class="graph" transform="scale(1 1) rotate(0) translate(4 987)">
<title>ReptilNativo</title>
<polygon fill="white" stroke="transparent" points="-4,4 -4,-987 359.5,-987 359.5,4 -4,4"/>
<!-- Node1 -->
<g id="node1" class="node">
<title>Node1</title>
<g id="a_node1"><a xlink:title="Implementação de animal com Classe e Categoria.">
<polygon fill="#bfbfbf" stroke="black" points="97.5,-0.5 97.5,-134.5 287.5,-134.5 287.5,-0.5 97.5,-0.5"/>
<text text-anchor="middle" x="192.5" y="-114.5" font-family="Helvetica,sans-Serif" font-size="20.00">ReptilNativo</text>
<polyline fill="none" stroke="black" points="97.5,-104.5 287.5,-104.5 "/>
<text text-anchor="middle" x="192.5" y="-84.5" font-family="Helvetica,sans-Serif" font-size="20.00"> </text>
<polyline fill="none" stroke="black" points="97.5,-74.5 287.5,-74.5 "/>
<text text-anchor="start" x="105.5" y="-54.5" font-family="Helvetica,sans-Serif" font-size="20.00">+ ReptilNativo()</text>
<text text-anchor="start" x="105.5" y="-32.5" font-family="Helvetica,sans-Serif" font-size="20.00">+ ReptilNativo()</text>
<text text-anchor="start" x="105.5" y="-10.5" font-family="Helvetica,sans-Serif" font-size="20.00">+ ~ReptilNativo()</text>
</a>
</g>
</g>
<!-- Node2 -->
<g id="node2" class="node">
<title>Node2</title>
<g id="a_node2"><a xlink:href="classReptil.html" target="_top" xlink:title="Classificação base para Repteis.">
<polygon fill="white" stroke="black" points="48,-215.5 48,-415.5 175,-415.5 175,-215.5 48,-215.5"/>
<text text-anchor="middle" x="111.5" y="-395.5" font-family="Helvetica,sans-Serif" font-size="20.00">Reptil</text>
<polyline fill="none" stroke="black" points="48,-385.5 175,-385.5 "/>
<text text-anchor="start" x="56" y="-365.5" font-family="Helvetica,sans-Serif" font-size="20.00"># pele</text>
<polyline fill="none" stroke="black" points="48,-355.5 175,-355.5 "/>
<text text-anchor="start" x="56" y="-335.5" font-family="Helvetica,sans-Serif" font-size="20.00">+ Reptil()</text>
<text text-anchor="start" x="56" y="-313.5" font-family="Helvetica,sans-Serif" font-size="20.00">+ Reptil()</text>
<text text-anchor="start" x="56" y="-291.5" font-family="Helvetica,sans-Serif" font-size="20.00">+ ~Reptil()</text>
<text text-anchor="start" x="56" y="-269.5" font-family="Helvetica,sans-Serif" font-size="20.00">+ getPele()</text>
<text text-anchor="start" x="56" y="-247.5" font-family="Helvetica,sans-Serif" font-size="20.00">+ setPele()</text>
<text text-anchor="start" x="56" y="-225.5" font-family="Helvetica,sans-Serif" font-size="20.00">+ setPele()</text>
</a>
</g>
</g>
<!-- Node2&#45;&gt;Node1 -->
<g id="edge1" class="edge">
<title>Node2&#45;&gt;Node1</title>
<path fill="none" stroke="midnightblue" d="M147.36,-205.58C155.32,-181.42 163.52,-156.53 170.7,-134.69"/>
<polygon fill="none" stroke="midnightblue" points="144.02,-204.56 144.21,-215.15 150.66,-206.75 144.02,-204.56"/>
</g>
<!-- Node3 -->
<g id="node3" class="node">
<title>Node3</title>
<g id="a_node3"><a xlink:href="classAnimal.html" target="_top" xlink:title="Implementação base para o cadastro de animais.">
<polygon fill="white" stroke="black" points="0,-496.5 0,-982.5 223,-982.5 223,-496.5 0,-496.5"/>
<text text-anchor="middle" x="111.5" y="-962.5" font-family="Helvetica,sans-Serif" font-size="20.00">Animal</text>
<polyline fill="none" stroke="black" points="0,-952.5 223,-952.5 "/>
<text text-anchor="start" x="8" y="-932.5" font-family="Helvetica,sans-Serif" font-size="20.00"># nome</text>
<text text-anchor="start" x="8" y="-910.5" font-family="Helvetica,sans-Serif" font-size="20.00"># especie</text>
<text text-anchor="start" x="8" y="-888.5" font-family="Helvetica,sans-Serif" font-size="20.00"># ameacadoPor</text>
<text text-anchor="start" x="8" y="-866.5" font-family="Helvetica,sans-Serif" font-size="20.00"># veterinario</text>
<text text-anchor="start" x="8" y="-844.5" font-family="Helvetica,sans-Serif" font-size="20.00"># tratador</text>
<text text-anchor="start" x="8" y="-822.5" font-family="Helvetica,sans-Serif" font-size="20.00"># perigoso</text>
<polyline fill="none" stroke="black" points="0,-812.5 223,-812.5 "/>
<text text-anchor="start" x="8" y="-792.5" font-family="Helvetica,sans-Serif" font-size="20.00">+ Animal()</text>
<text text-anchor="start" x="8" y="-770.5" font-family="Helvetica,sans-Serif" font-size="20.00">+ Animal()</text>
<text text-anchor="start" x="8" y="-748.5" font-family="Helvetica,sans-Serif" font-size="20.00">+ ~Animal()</text>
<text text-anchor="start" x="8" y="-726.5" font-family="Helvetica,sans-Serif" font-size="20.00">+ getNome()</text>
<text text-anchor="start" x="8" y="-704.5" font-family="Helvetica,sans-Serif" font-size="20.00">+ getEspecie()</text>
<text text-anchor="start" x="8" y="-682.5" font-family="Helvetica,sans-Serif" font-size="20.00">+ getAmeacadoPor()</text>
<text text-anchor="start" x="8" y="-660.5" font-family="Helvetica,sans-Serif" font-size="20.00">+ getVeterinario()</text>
<text text-anchor="start" x="8" y="-638.5" font-family="Helvetica,sans-Serif" font-size="20.00">+ getTratador()</text>
<text text-anchor="start" x="8" y="-616.5" font-family="Helvetica,sans-Serif" font-size="20.00">+ getPerigoso()</text>
<text text-anchor="start" x="8" y="-594.5" font-family="Helvetica,sans-Serif" font-size="20.00">+ setNome()</text>
<text text-anchor="start" x="8" y="-572.5" font-family="Helvetica,sans-Serif" font-size="20.00">e 13 mais...</text>
<text text-anchor="start" x="8" y="-550.5" font-family="Helvetica,sans-Serif" font-size="20.00">+ getClassificacao()</text>
<text text-anchor="start" x="8" y="-528.5" font-family="Helvetica,sans-Serif" font-size="20.00">+ getClasse()</text>
<text text-anchor="start" x="8" y="-506.5" font-family="Helvetica,sans-Serif" font-size="20.00">+ printOutDetails()</text>
</a>
</g>
</g>
<!-- Node3&#45;&gt;Node2 -->
<g id="edge2" class="edge">
<title>Node3&#45;&gt;Node2</title>
<path fill="none" stroke="midnightblue" d="M111.5,-486.13C111.5,-461.43 111.5,-437.51 111.5,-415.81"/>
<polygon fill="none" stroke="midnightblue" points="108,-486.38 111.5,-496.38 115,-486.38 108,-486.38"/>
</g>
<!-- Node4 -->
<g id="node4" class="node">
<title>Node4</title>
<g id="a_node4"><a xlink:href="classNativo.html" target="_top" xlink:title="Umas das definições de categoria para Animal.">
<polygon fill="white" stroke="black" points="193.5,-171.5 193.5,-459.5 355.5,-459.5 355.5,-171.5 193.5,-171.5"/>
<text text-anchor="middle" x="274.5" y="-439.5" font-family="Helvetica,sans-Serif" font-size="20.00">Nativo</text>
<polyline fill="none" stroke="black" points="193.5,-429.5 355.5,-429.5 "/>
<text text-anchor="start" x="201.5" y="-409.5" font-family="Helvetica,sans-Serif" font-size="20.00"># regiao</text>
<text text-anchor="start" x="201.5" y="-387.5" font-family="Helvetica,sans-Serif" font-size="20.00"># licenca</text>
<polyline fill="none" stroke="black" points="193.5,-377.5 355.5,-377.5 "/>
<text text-anchor="start" x="201.5" y="-357.5" font-family="Helvetica,sans-Serif" font-size="20.00">+ Nativo()</text>
<text text-anchor="start" x="201.5" y="-335.5" font-family="Helvetica,sans-Serif" font-size="20.00">+ Nativo()</text>
<text text-anchor="start" x="201.5" y="-313.5" font-family="Helvetica,sans-Serif" font-size="20.00">+ ~Nativo()</text>
<text text-anchor="start" x="201.5" y="-291.5" font-family="Helvetica,sans-Serif" font-size="20.00">+ getRegiao()</text>
<text text-anchor="start" x="201.5" y="-269.5" font-family="Helvetica,sans-Serif" font-size="20.00">+ setRegiao()</text>
<text text-anchor="start" x="201.5" y="-247.5" font-family="Helvetica,sans-Serif" font-size="20.00">+ setRegiao()</text>
<text text-anchor="start" x="201.5" y="-225.5" font-family="Helvetica,sans-Serif" font-size="20.00">+ getLicenca()</text>
<text text-anchor="start" x="201.5" y="-203.5" font-family="Helvetica,sans-Serif" font-size="20.00">+ setLicenca()</text>
<text text-anchor="start" x="201.5" y="-181.5" font-family="Helvetica,sans-Serif" font-size="20.00">+ setLicenca()</text>
</a>
</g>
</g>
<!-- Node4&#45;&gt;Node1 -->
<g id="edge3" class="edge">
<title>Node4&#45;&gt;Node1</title>
<path fill="none" stroke="midnightblue" d="M223.55,-161.66C220.46,-152.38 217.45,-143.35 214.6,-134.79"/>
<polygon fill="none" stroke="midnightblue" points="220.32,-163.02 226.8,-171.4 226.96,-160.81 220.32,-163.02"/>
</g>
</g>
</svg>
