<?xml version="1.0" encoding="UTF-8" standalone="no"?>
<!DOCTYPE svg PUBLIC "-//W3C//DTD SVG 1.1//EN"
 "http://www.w3.org/Graphics/SVG/1.1/DTD/svg11.dtd">
<!-- Generated by graphviz version 2.43.0 (0)
 -->
<!-- Title: AveDomestica Pages: 1 -->
<svg width="387pt" height="837pt"
 viewBox="0.00 0.00 386.50 837.00" xmlns="http://www.w3.org/2000/svg" xmlns:xlink="http://www.w3.org/1999/xlink">
<g id="graph0" class="graph" transform="scale(1 1) rotate(0) translate(4 833)">
<title>AveDomestica</title>
<polygon fill="white" stroke="transparent" points="-4,4 -4,-833 382.5,-833 382.5,4 -4,4"/>
<!-- Node1 -->
<g id="node1" class="node">
<title>Node1</title>
<g id="a_node1"><a xlink:title="Implementação de animal com Classe e Categoria.">
<polygon fill="#bfbfbf" stroke="black" points="91,-0.5 91,-134.5 304,-134.5 304,-0.5 91,-0.5"/>
<text text-anchor="middle" x="197.5" y="-114.5" font-family="Helvetica,sans-Serif" font-size="20.00">AveDomestica</text>
<polyline fill="none" stroke="black" points="91,-104.5 304,-104.5 "/>
<text text-anchor="middle" x="197.5" y="-84.5" font-family="Helvetica,sans-Serif" font-size="20.00"> </text>
<polyline fill="none" stroke="black" points="91,-74.5 304,-74.5 "/>
<text text-anchor="start" x="99" y="-54.5" font-family="Helvetica,sans-Serif" font-size="20.00">+ AveDomestica()</text>
<text text-anchor="start" x="99" y="-32.5" font-family="Helvetica,sans-Serif" font-size="20.00">+ AveDomestica()</text>
<text text-anchor="start" x="99" y="-10.5" font-family="Helvetica,sans-Serif" font-size="20.00">+ ~AveDomestica()</text>
</a>
</g>
</g>
<!-- Node2 -->
<g id="node2" class="node">
<title>Node2</title>
<g id="a_node2"><a xlink:href="classAve.html" target="_top" xlink:title="Classificação base para Aves.">
<polygon fill="white" stroke="black" points="50.5,-171.5 50.5,-371.5 172.5,-371.5 172.5,-171.5 50.5,-171.5"/>
<text text-anchor="middle" x="111.5" y="-351.5" font-family="Helvetica,sans-Serif" font-size="20.00">Ave</text>
<polyline fill="none" stroke="black" points="50.5,-341.5 172.5,-341.5 "/>
<text text-anchor="start" x="58.5" y="-321.5" font-family="Helvetica,sans-Serif" font-size="20.00"># voa</text>
<polyline fill="none" stroke="black" points="50.5,-311.5 172.5,-311.5 "/>
<text text-anchor="start" x="58.5" y="-291.5" font-family="Helvetica,sans-Serif" font-size="20.00">+ Ave()</text>
<text text-anchor="start" x="58.5" y="-269.5" font-family="Helvetica,sans-Serif" font-size="20.00">+ Ave()</text>
<text text-anchor="start" x="58.5" y="-247.5" font-family="Helvetica,sans-Serif" font-size="20.00">+ ~Ave()</text>
<text text-anchor="start" x="58.5" y="-225.5" font-family="Helvetica,sans-Serif" font-size="20.00">+ getVoa()</text>
<text text-anchor="start" x="58.5" y="-203.5" font-family="Helvetica,sans-Serif" font-size="20.00">+ setVoa()</text>
<text text-anchor="start" x="58.5" y="-181.5" font-family="Helvetica,sans-Serif" font-size="20.00">+ setVoa()</text>
</a>
</g>
</g>
<!-- Node2&#45;&gt;Node1 -->
<g id="edge1" class="edge">
<title>Node2&#45;&gt;Node1</title>
<path fill="none" stroke="midnightblue" d="M157.72,-161.93C161.7,-152.59 165.63,-143.35 169.4,-134.51"/>
<polygon fill="none" stroke="midnightblue" points="154.44,-160.7 153.74,-171.28 160.88,-163.45 154.44,-160.7"/>
</g>
<!-- Node3 -->
<g id="node3" class="node">
<title>Node3</title>
<g id="a_node3"><a xlink:href="classAnimal.html" target="_top" xlink:title="Implementação base para o cadastro de animais.">
<polygon fill="white" stroke="black" points="0,-408.5 0,-828.5 223,-828.5 223,-408.5 0,-408.5"/>
<text text-anchor="middle" x="111.5" y="-808.5" font-family="Helvetica,sans-Serif" font-size="20.00">Animal</text>
<polyline fill="none" stroke="black" points="0,-798.5 223,-798.5 "/>
<text text-anchor="start" x="8" y="-778.5" font-family="Helvetica,sans-Serif" font-size="20.00"># nome</text>
<text text-anchor="start" x="8" y="-756.5" font-family="Helvetica,sans-Serif" font-size="20.00"># especie</text>
<text text-anchor="start" x="8" y="-734.5" font-family="Helvetica,sans-Serif" font-size="20.00"># ameacadoPor</text>
<text text-anchor="start" x="8" y="-712.5" font-family="Helvetica,sans-Serif" font-size="20.00"># veterinario</text>
<text text-anchor="start" x="8" y="-690.5" font-family="Helvetica,sans-Serif" font-size="20.00"># tratador</text>
<text text-anchor="start" x="8" y="-668.5" font-family="Helvetica,sans-Serif" font-size="20.00"># perigoso</text>
<polyline fill="none" stroke="black" points="0,-658.5 223,-658.5 "/>
<text text-anchor="start" x="8" y="-638.5" font-family="Helvetica,sans-Serif" font-size="20.00">+ Animal()</text>
<text text-anchor="start" x="8" y="-616.5" font-family="Helvetica,sans-Serif" font-size="20.00">+ Animal()</text>
<text text-anchor="start" x="8" y="-594.5" font-family="Helvetica,sans-Serif" font-size="20.00">+ ~Animal()</text>
<text text-anchor="start" x="8" y="-572.5" font-family="Helvetica,sans-Serif" font-size="20.00">+ getNome()</text>
<text text-anchor="start" x="8" y="-550.5" font-family="Helvetica,sans-Serif" font-size="20.00">+ getEspecie()</text>
<text text-anchor="start" x="8" y="-528.5" font-family="Helvetica,sans-Serif" font-size="20.00">+ getAmeacadoPor()</text>
<text text-anchor="start" x="8" y="-506.5" font-family="Helvetica,sans-Serif" font-size="20.00">+ getVeterinario()</text>
<text text-anchor="start" x="8" y="-484.5" font-family="Helvetica,sans-Serif" font-size="20.00">+ getTratador()</text>
<text text-anchor="start" x="8" y="-462.5" font-family="Helvetica,sans-Serif" font-size="20.00">+ getPerigoso()</text>
<text text-anchor="start" x="8" y="-440.5" font-family="Helvetica,sans-Serif" font-size="20.00">+ setNome()</text>
<text text-anchor="start" x="8" y="-418.5" font-family="Helvetica,sans-Serif" font-size="20.00">e 15 mais...</text>
</a>
</g>
</g>
<!-- Node3&#45;&gt;Node2 -->
<g id="edge2" class="edge">
<title>Node3&#45;&gt;Node2</title>
<path fill="none" stroke="midnightblue" d="M111.5,-398.09C111.5,-389.07 111.5,-380.23 111.5,-371.68"/>
<polygon fill="none" stroke="midnightblue" points="108,-398.36 111.5,-408.36 115,-398.36 108,-398.36"/>
</g>
<!-- Node4 -->
<g id="node4" class="node">
<title>Node4</title>
<g id="a_node4"><a xlink:href="classDomestico.html" target="_top" xlink:title="Umas das definições de categoria para Animal.">
<polygon fill="white" stroke="black" points="190.5,-171.5 190.5,-371.5 378.5,-371.5 378.5,-171.5 190.5,-171.5"/>
<text text-anchor="middle" x="284.5" y="-351.5" font-family="Helvetica,sans-Serif" font-size="20.00">Domestico</text>
<polyline fill="none" stroke="black" points="190.5,-341.5 378.5,-341.5 "/>
<text text-anchor="start" x="198.5" y="-321.5" font-family="Helvetica,sans-Serif" font-size="20.00"># adestrado</text>
<polyline fill="none" stroke="black" points="190.5,-311.5 378.5,-311.5 "/>
<text text-anchor="start" x="198.5" y="-291.5" font-family="Helvetica,sans-Serif" font-size="20.00">+ Domestico()</text>
<text text-anchor="start" x="198.5" y="-269.5" font-family="Helvetica,sans-Serif" font-size="20.00">+ Domestico()</text>
<text text-anchor="start" x="198.5" y="-247.5" font-family="Helvetica,sans-Serif" font-size="20.00">+ ~Domestico()</text>
<text text-anchor="start" x="198.5" y="-225.5" font-family="Helvetica,sans-Serif" font-size="20.00">+ getAdestrado()</text>
<text text-anchor="start" x="198.5" y="-203.5" font-family="Helvetica,sans-Serif" font-size="20.00">+ setAdestrado()</text>
<text text-anchor="start" x="198.5" y="-181.5" font-family="Helvetica,sans-Serif" font-size="20.00">+ setAdestrado()</text>
</a>
</g>
</g>
<!-- Node4&#45;&gt;Node1 -->
<g id="edge3" class="edge">
<title>Node4&#45;&gt;Node1</title>
<path fill="none" stroke="midnightblue" d="M237.74,-161.93C233.72,-152.59 229.74,-143.35 225.93,-134.51"/>
<polygon fill="none" stroke="midnightblue" points="234.59,-163.48 241.76,-171.28 241.02,-160.71 234.59,-163.48"/>
</g>
</g>
</svg>
