<?xml version="1.0" encoding="UTF-8" standalone="no"?>
<!DOCTYPE svg PUBLIC "-//W3C//DTD SVG 1.1//EN"
 "http://www.w3.org/Graphics/SVG/1.1/DTD/svg11.dtd">
<!-- Generated by graphviz version 2.43.0 (0)
 -->
<!-- Title: Mamifero Pages: 1 -->
<svg width="774pt" height="1510pt"
 viewBox="0.00 0.00 774.35 1510.00" xmlns="http://www.w3.org/2000/svg" xmlns:xlink="http://www.w3.org/1999/xlink">
<g id="graph0" class="graph" transform="scale(1 1) rotate(0) translate(4 1506)">
<title>Mamifero</title>
<polygon fill="white" stroke="transparent" points="-4,4 -4,-1506 770.35,-1506 770.35,4 -4,4"/>
<!-- Node1 -->
<g id="node1" class="node">
<title>Node1</title>
<g id="a_node1"><a xlink:title="Classificação base para Mamiferos.">
<polygon fill="#bfbfbf" stroke="black" points="489.85,-0.5 489.85,-200.5 668.85,-200.5 668.85,-0.5 489.85,-0.5"/>
<text text-anchor="middle" x="579.35" y="-180.5" font-family="Helvetica,sans-Serif" font-size="20.00">Mamifero</text>
<polyline fill="none" stroke="black" points="489.85,-170.5 668.85,-170.5 "/>
<text text-anchor="middle" x="579.35" y="-150.5" font-family="Helvetica,sans-Serif" font-size="20.00"> </text>
<polyline fill="none" stroke="black" points="489.85,-140.5 668.85,-140.5 "/>
<text text-anchor="start" x="497.85" y="-120.5" font-family="Helvetica,sans-Serif" font-size="20.00">+ Mamifero()</text>
<text text-anchor="start" x="497.85" y="-98.5" font-family="Helvetica,sans-Serif" font-size="20.00">+ Mamifero()</text>
<text text-anchor="start" x="497.85" y="-76.5" font-family="Helvetica,sans-Serif" font-size="20.00">+ ~Mamifero()</text>
<text text-anchor="start" x="497.85" y="-54.5" font-family="Helvetica,sans-Serif" font-size="20.00">+ getGestacao()</text>
<text text-anchor="start" x="497.85" y="-32.5" font-family="Helvetica,sans-Serif" font-size="20.00">+ setGestacao()</text>
<text text-anchor="start" x="497.85" y="-10.5" font-family="Helvetica,sans-Serif" font-size="20.00">+ setGestacao()</text>
</a>
</g>
</g>
<!-- Node2 -->
<g id="node2" class="node">
<title>Node2</title>
<g id="a_node2"><a xlink:href="classAnimal.html" target="_top" xlink:title="Implementação base para o cadastro de animais.">
<polygon fill="white" stroke="black" points="389.85,-238.5 389.85,-548.5 612.85,-548.5 612.85,-238.5 389.85,-238.5"/>
<text text-anchor="middle" x="501.35" y="-528.5" font-family="Helvetica,sans-Serif" font-size="20.00">Animal</text>
<polyline fill="none" stroke="black" points="389.85,-518.5 612.85,-518.5 "/>
<text text-anchor="middle" x="501.35" y="-498.5" font-family="Helvetica,sans-Serif" font-size="20.00"> </text>
<polyline fill="none" stroke="black" points="389.85,-488.5 612.85,-488.5 "/>
<text text-anchor="start" x="397.85" y="-468.5" font-family="Helvetica,sans-Serif" font-size="20.00">+ Animal()</text>
<text text-anchor="start" x="397.85" y="-446.5" font-family="Helvetica,sans-Serif" font-size="20.00">+ Animal()</text>
<text text-anchor="start" x="397.85" y="-424.5" font-family="Helvetica,sans-Serif" font-size="20.00">+ ~Animal()</text>
<text text-anchor="start" x="397.85" y="-402.5" font-family="Helvetica,sans-Serif" font-size="20.00">+ getNome()</text>
<text text-anchor="start" x="397.85" y="-380.5" font-family="Helvetica,sans-Serif" font-size="20.00">+ getEspecie()</text>
<text text-anchor="start" x="397.85" y="-358.5" font-family="Helvetica,sans-Serif" font-size="20.00">+ getAmeacadoPor()</text>
<text text-anchor="start" x="397.85" y="-336.5" font-family="Helvetica,sans-Serif" font-size="20.00">+ getVeterinario()</text>
<text text-anchor="start" x="397.85" y="-314.5" font-family="Helvetica,sans-Serif" font-size="20.00">+ getTratador()</text>
<text text-anchor="start" x="397.85" y="-292.5" font-family="Helvetica,sans-Serif" font-size="20.00">+ getPerigoso()</text>
<text text-anchor="start" x="397.85" y="-270.5" font-family="Helvetica,sans-Serif" font-size="20.00">+ setNome()</text>
<text text-anchor="start" x="397.85" y="-248.5" font-family="Helvetica,sans-Serif" font-size="20.00">e 15 mais...</text>
</a>
</g>
</g>
<!-- Node2&#45;&gt;Node1 -->
<g id="edge1" class="edge">
<title>Node2&#45;&gt;Node1</title>
<path fill="none" stroke="midnightblue" d="M545.29,-228.59C547.82,-219.13 550.33,-209.78 552.76,-200.7"/>
<polygon fill="none" stroke="midnightblue" points="541.84,-227.91 542.64,-238.48 548.6,-229.73 541.84,-227.91"/>
</g>
<!-- Node3 -->
<g id="node3" class="node">
<title>Node3</title>
<g id="a_node3"><a xlink:href="classTratador.html" target="_top" xlink:title="Implementação dos tratadores.">
<polygon fill="white" stroke="black" points="273.35,-607.5 273.35,-829.5 473.35,-829.5 473.35,-607.5 273.35,-607.5"/>
<text text-anchor="middle" x="373.35" y="-809.5" font-family="Helvetica,sans-Serif" font-size="20.00">Tratador</text>
<polyline fill="none" stroke="black" points="273.35,-799.5 473.35,-799.5 "/>
<text text-anchor="middle" x="373.35" y="-779.5" font-family="Helvetica,sans-Serif" font-size="20.00"> </text>
<polyline fill="none" stroke="black" points="273.35,-769.5 473.35,-769.5 "/>
<text text-anchor="start" x="281.35" y="-749.5" font-family="Helvetica,sans-Serif" font-size="20.00">+ Tratador()</text>
<text text-anchor="start" x="281.35" y="-727.5" font-family="Helvetica,sans-Serif" font-size="20.00">+ Tratador()</text>
<text text-anchor="start" x="281.35" y="-705.5" font-family="Helvetica,sans-Serif" font-size="20.00">+ ~Tratador()</text>
<text text-anchor="start" x="281.35" y="-683.5" font-family="Helvetica,sans-Serif" font-size="20.00">+ getUniforme()</text>
<text text-anchor="start" x="281.35" y="-661.5" font-family="Helvetica,sans-Serif" font-size="20.00">+ setUniforme()</text>
<text text-anchor="start" x="281.35" y="-639.5" font-family="Helvetica,sans-Serif" font-size="20.00">+ setUniforme()</text>
<text text-anchor="start" x="281.35" y="-617.5" font-family="Helvetica,sans-Serif" font-size="20.00">+ printOutDados()</text>
</a>
</g>
</g>
<!-- Node3&#45;&gt;Node2 -->
<g id="edge2" class="edge">
<title>Node3&#45;&gt;Node2</title>
<path fill="none" stroke="#404040" d="M374.72,-607.22C376.83,-593.45 379.92,-579.74 384.35,-567 385.19,-564.6 386.06,-562.2 386.98,-559.8"/>
<polygon fill="none" stroke="#404040" points="387.01,-559.72 385.58,-552.65 391.55,-548.61 392.98,-555.67 387.01,-559.72"/>
<text text-anchor="middle" x="435.85" y="-573" font-family="Helvetica,sans-Serif" font-size="20.00"> #tratador</text>
</g>
<!-- Node4 -->
<g id="node4" class="node">
<title>Node4</title>
<g id="a_node4"><a xlink:href="classPessoa.html" target="_top" xlink:title="Classe base dos funcionarios.">
<polygon fill="white" stroke="black" points="125.35,-932.5 125.35,-1308.5 325.35,-1308.5 325.35,-932.5 125.35,-932.5"/>
<text text-anchor="middle" x="225.35" y="-1288.5" font-family="Helvetica,sans-Serif" font-size="20.00">Pessoa</text>
<polyline fill="none" stroke="black" points="125.35,-1278.5 325.35,-1278.5 "/>
<text text-anchor="middle" x="225.35" y="-1258.5" font-family="Helvetica,sans-Serif" font-size="20.00"> </text>
<polyline fill="none" stroke="black" points="125.35,-1248.5 325.35,-1248.5 "/>
<text text-anchor="start" x="133.35" y="-1228.5" font-family="Helvetica,sans-Serif" font-size="20.00">+ Pessoa()</text>
<text text-anchor="start" x="133.35" y="-1206.5" font-family="Helvetica,sans-Serif" font-size="20.00">+ Pessoa()</text>
<text text-anchor="start" x="133.35" y="-1184.5" font-family="Helvetica,sans-Serif" font-size="20.00">+ ~Pessoa()</text>
<text text-anchor="start" x="133.35" y="-1162.5" font-family="Helvetica,sans-Serif" font-size="20.00">+ getNome()</text>
<text text-anchor="start" x="133.35" y="-1140.5" font-family="Helvetica,sans-Serif" font-size="20.00">+ setNome()</text>
<text text-anchor="start" x="133.35" y="-1118.5" font-family="Helvetica,sans-Serif" font-size="20.00">+ setNome()</text>
<text text-anchor="start" x="133.35" y="-1096.5" font-family="Helvetica,sans-Serif" font-size="20.00">+ getTelefone()</text>
<text text-anchor="start" x="133.35" y="-1074.5" font-family="Helvetica,sans-Serif" font-size="20.00">+ setTelefone()</text>
<text text-anchor="start" x="133.35" y="-1052.5" font-family="Helvetica,sans-Serif" font-size="20.00">+ setTelefone()</text>
<text text-anchor="start" x="133.35" y="-1030.5" font-family="Helvetica,sans-Serif" font-size="20.00">+ getEmail()</text>
<text text-anchor="start" x="133.35" y="-1008.5" font-family="Helvetica,sans-Serif" font-size="20.00">+ setEmail()</text>
<text text-anchor="start" x="133.35" y="-986.5" font-family="Helvetica,sans-Serif" font-size="20.00">+ setEmail()</text>
<text text-anchor="start" x="133.35" y="-964.5" font-family="Helvetica,sans-Serif" font-size="20.00">+ printOutDados()</text>
<text text-anchor="start" x="133.35" y="-942.5" font-family="Helvetica,sans-Serif" font-size="20.00">+ operator==()</text>
</a>
</g>
</g>
<!-- Node4&#45;&gt;Node3 -->
<g id="edge3" class="edge">
<title>Node4&#45;&gt;Node3</title>
<path fill="none" stroke="midnightblue" d="M298.1,-922.89C309.96,-890.82 321.87,-858.63 332.6,-829.63"/>
<polygon fill="none" stroke="midnightblue" points="294.77,-921.79 294.58,-932.38 301.34,-924.22 294.77,-921.79"/>
</g>
<!-- Node8 -->
<g id="node8" class="node">
<title>Node8</title>
<g id="a_node8"><a xlink:href="classVeterinario.html" target="_top" xlink:title="Implementação dos veterinarios.">
<polygon fill="white" stroke="black" points="55.35,-607.5 55.35,-829.5 255.35,-829.5 255.35,-607.5 55.35,-607.5"/>
<text text-anchor="middle" x="155.35" y="-809.5" font-family="Helvetica,sans-Serif" font-size="20.00">Veterinario</text>
<polyline fill="none" stroke="black" points="55.35,-799.5 255.35,-799.5 "/>
<text text-anchor="middle" x="155.35" y="-779.5" font-family="Helvetica,sans-Serif" font-size="20.00"> </text>
<polyline fill="none" stroke="black" points="55.35,-769.5 255.35,-769.5 "/>
<text text-anchor="start" x="63.35" y="-749.5" font-family="Helvetica,sans-Serif" font-size="20.00">+ Veterinario()</text>
<text text-anchor="start" x="63.35" y="-727.5" font-family="Helvetica,sans-Serif" font-size="20.00">+ Veterinario()</text>
<text text-anchor="start" x="63.35" y="-705.5" font-family="Helvetica,sans-Serif" font-size="20.00">+ ~Veterinario()</text>
<text text-anchor="start" x="63.35" y="-683.5" font-family="Helvetica,sans-Serif" font-size="20.00">+ getCRMV()</text>
<text text-anchor="start" x="63.35" y="-661.5" font-family="Helvetica,sans-Serif" font-size="20.00">+ setCRMV()</text>
<text text-anchor="start" x="63.35" y="-639.5" font-family="Helvetica,sans-Serif" font-size="20.00">+ setCRMV()</text>
<text text-anchor="start" x="63.35" y="-617.5" font-family="Helvetica,sans-Serif" font-size="20.00">+ printOutDados()</text>
</a>
</g>
</g>
<!-- Node4&#45;&gt;Node8 -->
<g id="edge9" class="edge">
<title>Node4&#45;&gt;Node8</title>
<path fill="none" stroke="midnightblue" d="M190.87,-922.48C185.28,-890.55 179.68,-858.51 174.62,-829.63"/>
<polygon fill="none" stroke="midnightblue" points="187.43,-923.14 192.61,-932.38 194.33,-921.93 187.43,-923.14"/>
</g>
<!-- Node5 -->
<g id="node5" class="node">
<title>Node5</title>
<g id="a_node5"><a xlink:title=" ">
<polygon fill="white" stroke="#bfbfbf" points="188.35,-1411.5 188.35,-1501.5 262.35,-1501.5 262.35,-1411.5 188.35,-1411.5"/>
<text text-anchor="middle" x="225.35" y="-1481.5" font-family="Helvetica,sans-Serif" font-size="20.00">string</text>
<polyline fill="none" stroke="#bfbfbf" points="188.35,-1471.5 262.35,-1471.5 "/>
<text text-anchor="middle" x="225.35" y="-1451.5" font-family="Helvetica,sans-Serif" font-size="20.00"> </text>
<polyline fill="none" stroke="#bfbfbf" points="188.35,-1441.5 262.35,-1441.5 "/>
<text text-anchor="middle" x="225.35" y="-1421.5" font-family="Helvetica,sans-Serif" font-size="20.00"> </text>
</a>
</g>
</g>
<!-- Node5&#45;&gt;Node2 -->
<g id="edge7" class="edge">
<title>Node5&#45;&gt;Node2</title>
<path fill="none" stroke="#404040" d="M262.56,-1444.43C316.72,-1426.12 415.57,-1383.89 459.35,-1309 531.01,-1186.42 523.1,-789.45 511.78,-560.84"/>
<polygon fill="none" stroke="#404040" points="511.78,-560.72 507.48,-554.92 511.17,-548.73 515.47,-554.52 511.78,-560.72"/>
<text text-anchor="middle" x="595.35" y="-898" font-family="Helvetica,sans-Serif" font-size="20.00"> #especie</text>
<text text-anchor="middle" x="595.35" y="-876" font-family="Helvetica,sans-Serif" font-size="20.00">#ameacadoPor</text>
<text text-anchor="middle" x="595.35" y="-854" font-family="Helvetica,sans-Serif" font-size="20.00">#nome</text>
</g>
<!-- Node5&#45;&gt;Node4 -->
<g id="edge4" class="edge">
<title>Node5&#45;&gt;Node4</title>
<path fill="none" stroke="#404040" d="M225.35,-1411.49C225.35,-1387.09 225.35,-1354.83 225.35,-1320.7"/>
<polygon fill="none" stroke="#404040" points="225.35,-1320.56 221.35,-1314.56 225.35,-1308.56 229.35,-1314.56 225.35,-1320.56"/>
<text text-anchor="middle" x="273.85" y="-1377" font-family="Helvetica,sans-Serif" font-size="20.00"> #email</text>
<text text-anchor="middle" x="273.85" y="-1355" font-family="Helvetica,sans-Serif" font-size="20.00">#nome</text>
<text text-anchor="middle" x="273.85" y="-1333" font-family="Helvetica,sans-Serif" font-size="20.00">#telefone</text>
</g>
<!-- Node5&#45;&gt;Node8 -->
<g id="edge10" class="edge">
<title>Node5&#45;&gt;Node8</title>
<path fill="none" stroke="#404040" d="M188,-1438.27C144.03,-1415.65 73.22,-1371.38 43.35,-1309 -29,-1157.87 3.11,-1094.65 43.35,-932 51.03,-900.95 64.17,-869.43 78.79,-840.51"/>
<polygon fill="none" stroke="#404040" points="78.95,-840.21 78.15,-833.05 84.46,-829.56 85.26,-836.73 78.95,-840.21"/>
<text text-anchor="middle" x="79.85" y="-1115.5" font-family="Helvetica,sans-Serif" font-size="20.00"> &#45;CRMV</text>
</g>
<!-- Node6 -->
<g id="node6" class="node">
<title>Node6</title>
<g id="a_node6"><a xlink:title=" ">
<polygon fill="white" stroke="#bfbfbf" points="343.85,-1075.5 343.85,-1165.5 450.85,-1165.5 450.85,-1075.5 343.85,-1075.5"/>
<text text-anchor="middle" x="397.35" y="-1145.5" font-family="Helvetica,sans-Serif" font-size="20.00">Uniforme</text>
<polyline fill="none" stroke="#bfbfbf" points="343.85,-1135.5 450.85,-1135.5 "/>
<text text-anchor="middle" x="397.35" y="-1115.5" font-family="Helvetica,sans-Serif" font-size="20.00"> </text>
<polyline fill="none" stroke="#bfbfbf" points="343.85,-1105.5 450.85,-1105.5 "/>
<text text-anchor="middle" x="397.35" y="-1085.5" font-family="Helvetica,sans-Serif" font-size="20.00"> </text>
</a>
</g>
</g>
<!-- Node6&#45;&gt;Node3 -->
<g id="edge5" class="edge">
<title>Node6&#45;&gt;Node3</title>
<path fill="none" stroke="#404040" d="M391.74,-1075.49C386.71,-1033.94 379.63,-969.85 376.35,-914 374.98,-890.64 374.13,-865.67 373.62,-841.69"/>
<polygon fill="none" stroke="#404040" points="373.62,-841.62 369.51,-835.7 373.39,-829.62 377.51,-835.55 373.62,-841.62"/>
<text text-anchor="middle" x="427.85" y="-876" font-family="Helvetica,sans-Serif" font-size="20.00"> &#45;uniforme</text>
</g>
<!-- Node7 -->
<g id="node7" class="node">
<title>Node7</title>
<g id="a_node7"><a xlink:title=" ">
<polygon fill="white" stroke="#bfbfbf" points="578.85,-673.5 578.85,-763.5 637.85,-763.5 637.85,-673.5 578.85,-673.5"/>
<text text-anchor="middle" x="608.35" y="-743.5" font-family="Helvetica,sans-Serif" font-size="20.00">bool</text>
<polyline fill="none" stroke="#bfbfbf" points="578.85,-733.5 637.85,-733.5 "/>
<text text-anchor="middle" x="608.35" y="-713.5" font-family="Helvetica,sans-Serif" font-size="20.00"> </text>
<polyline fill="none" stroke="#bfbfbf" points="578.85,-703.5 637.85,-703.5 "/>
<text text-anchor="middle" x="608.35" y="-683.5" font-family="Helvetica,sans-Serif" font-size="20.00"> </text>
</a>
</g>
</g>
<!-- Node7&#45;&gt;Node1 -->
<g id="edge11" class="edge">
<title>Node7&#45;&gt;Node1</title>
<path fill="none" stroke="#404040" d="M623.98,-673.24C631.8,-648.75 640.42,-617.58 644.35,-589 665.64,-434.12 649.98,-391.69 621.35,-238 619.79,-229.62 617.89,-221.03 615.77,-212.44"/>
<polygon fill="none" stroke="#404040" points="615.75,-212.36 610.38,-207.55 612.76,-200.74 618.13,-205.55 615.75,-212.36"/>
<text text-anchor="middle" x="709.85" y="-388.5" font-family="Helvetica,sans-Serif" font-size="20.00"> #gestacao</text>
</g>
<!-- Node7&#45;&gt;Node2 -->
<g id="edge6" class="edge">
<title>Node7&#45;&gt;Node2</title>
<path fill="none" stroke="#404040" d="M578.72,-674.12C563.57,-650.03 546.11,-618.94 535.35,-589 532.06,-579.83 529.07,-570.29 526.37,-560.59"/>
<polygon fill="none" stroke="#404040" points="526.29,-560.28 520.89,-555.5 523.22,-548.68 528.62,-553.45 526.29,-560.28"/>
<text text-anchor="middle" x="589.85" y="-573" font-family="Helvetica,sans-Serif" font-size="20.00"> #perigoso</text>
</g>
<!-- Node8&#45;&gt;Node2 -->
<g id="edge8" class="edge">
<title>Node8&#45;&gt;Node2</title>
<path fill="none" stroke="#404040" d="M213.38,-607.34C223.11,-593.03 233.84,-579.16 245.35,-567 283.99,-526.22 333.9,-489.91 379.39,-461.26"/>
<polygon fill="none" stroke="#404040" points="379.43,-461.23 382.42,-454.66 389.62,-454.89 386.64,-461.45 379.43,-461.23"/>
<text text-anchor="middle" x="310.35" y="-573" font-family="Helvetica,sans-Serif" font-size="20.00"> #veterinario</text>
</g>
</g>
</svg>
