<?xml version="1.0" encoding="UTF-8" standalone="no"?>
<!DOCTYPE svg PUBLIC "-//W3C//DTD SVG 1.1//EN"
 "http://www.w3.org/Graphics/SVG/1.1/DTD/svg11.dtd">
<!-- Generated by graphviz version 2.43.0 (0)
 -->
<!-- Title: ReptilNativo Pages: 1 -->
<!--zoomable 1618 -->
<svg id="main" version="1.1" xmlns="http://www.w3.org/2000/svg" xmlns:xlink="http://www.w3.org/1999/xlink" xml:space="preserve" onload="init(evt)">
<style type="text/css"><![CDATA[
.edge:hover path { stroke: red; }
.edge:hover polygon { stroke: red; fill: red; }
]]></style>
<script type="text/javascript"><![CDATA[
var edges = document.getElementsByTagName('g');
if (edges && edges.length) {
  for (var i=0;i<edges.length;i++) {
    if (edges[i].id.substr(0,4)=='edge') {
      edges[i].setAttribute('class','edge');
    }
  }
}
]]></script>
        <defs>
                <circle id="rim" cx="0" cy="0" r="7"/>
                <circle id="rim2" cx="0" cy="0" r="3.5"/>
                <g id="zoomPlus">
                        <use xlink:href="#rim" fill="#404040">
                                <set attributeName="fill" to="#808080" begin="zoomplus.mouseover" end="zoomplus.mouseout"/>
                        </use>
                        <path d="M-4,0h8M0,-4v8" fill="none" stroke="white" stroke-width="1.5" pointer-events="none"/>
                </g>
                <g id="zoomMin">
                        <use xlink:href="#rim" fill="#404040">
                                <set attributeName="fill" to="#808080" begin="zoomminus.mouseover" end="zoomminus.mouseout"/>
                        </use>
                        <path d="M-4,0h8" fill="none" stroke="white" stroke-width="1.5" pointer-events="none"/>
                </g>
                <g id="dirArrow">
                        <path fill="none" stroke="white" stroke-width="1.5" d="M0,-3.0v7 M-2.5,-0.5L0,-3.0L2.5,-0.5"/>
                </g>
               <g id="resetDef">
                       <use xlink:href="#rim2" fill="#404040">
                               <set attributeName="fill" to="#808080" begin="reset.mouseover" end="reset.mouseout"/>
                       </use>
               </g>
        </defs>

<script type="text/javascript">
var viewWidth = 712;
var viewHeight = 1618;
var sectionId = 'dynsection-1';
</script>
<script xlink:href="svgpan.js"/>
<svg id="graph" class="graph">
<g id="viewport">
<title>ReptilNativo</title>
<polygon fill="white" stroke="transparent" points="-4,4 -4,-1614 708.09,-1614 708.09,4 -4,4"/>
<!-- Node1 -->
<g id="node1" class="node">
<title>Node1</title>
<g id="a_node1"><a xlink:title="Implementação de animal com Classe e Categoria.">
<polygon fill="#bfbfbf" stroke="black" points="408.09,-0.5 408.09,-112.5 598.09,-112.5 598.09,-0.5 408.09,-0.5"/>
<text text-anchor="middle" x="503.09" y="-92.5" font-family="Helvetica,sans-Serif" font-size="20.00">ReptilNativo</text>
<polyline fill="none" stroke="black" points="408.09,-82.5 598.09,-82.5 "/>
<text text-anchor="middle" x="503.09" y="-62.5" font-family="Helvetica,sans-Serif" font-size="20.00"> </text>
<polyline fill="none" stroke="black" points="408.09,-52.5 598.09,-52.5 "/>
<text text-anchor="start" x="416.09" y="-32.5" font-family="Helvetica,sans-Serif" font-size="20.00">+ ReptilNativo()</text>
<text text-anchor="start" x="416.09" y="-10.5" font-family="Helvetica,sans-Serif" font-size="20.00">+ ~ReptilNativo()</text>
</a>
</g>
</g>
<!-- Node2 -->
<g id="node2" class="node">
<title>Node2</title>
<g id="a_node2"><a xlink:href="classReptil.html" target="_top" xlink:title="Classificação base para Repteis.">
<polygon fill="white" stroke="black" points="301.59,-150.5 301.59,-306.5 428.59,-306.5 428.59,-150.5 301.59,-150.5"/>
<text text-anchor="middle" x="365.09" y="-286.5" font-family="Helvetica,sans-Serif" font-size="20.00">Reptil</text>
<polyline fill="none" stroke="black" points="301.59,-276.5 428.59,-276.5 "/>
<text text-anchor="middle" x="365.09" y="-256.5" font-family="Helvetica,sans-Serif" font-size="20.00"> </text>
<polyline fill="none" stroke="black" points="301.59,-246.5 428.59,-246.5 "/>
<text text-anchor="start" x="309.59" y="-226.5" font-family="Helvetica,sans-Serif" font-size="20.00">+ Reptil()</text>
<text text-anchor="start" x="309.59" y="-204.5" font-family="Helvetica,sans-Serif" font-size="20.00">+ Reptil()</text>
<text text-anchor="start" x="309.59" y="-182.5" font-family="Helvetica,sans-Serif" font-size="20.00">+ ~Reptil()</text>
<text text-anchor="start" x="309.59" y="-160.5" font-family="Helvetica,sans-Serif" font-size="20.00">+ getPele()</text>
</a>
</g>
</g>
<!-- Node2&#45;&gt;Node1 -->
<g id="edge1" class="edge">
<title>Node2&#45;&gt;Node1</title>
<path fill="none" stroke="midnightblue" d="M434.14,-142.43C442.28,-132.41 450.41,-122.39 458.09,-112.93"/>
<polygon fill="none" stroke="midnightblue" points="431.21,-140.49 427.63,-150.46 436.65,-144.9 431.21,-140.49"/>
</g>
<!-- Node3 -->
<g id="node3" class="node">
<title>Node3</title>
<g id="a_node3"><a xlink:href="classAnimal.html" target="_top" xlink:title="Implementação base para o cadastro de animais.">
<polygon fill="white" stroke="black" points="253.59,-365.5 253.59,-719.5 476.59,-719.5 476.59,-365.5 253.59,-365.5"/>
<text text-anchor="middle" x="365.09" y="-699.5" font-family="Helvetica,sans-Serif" font-size="20.00">Animal</text>
<polyline fill="none" stroke="black" points="253.59,-689.5 476.59,-689.5 "/>
<text text-anchor="middle" x="365.09" y="-669.5" font-family="Helvetica,sans-Serif" font-size="20.00"> </text>
<polyline fill="none" stroke="black" points="253.59,-659.5 476.59,-659.5 "/>
<text text-anchor="start" x="261.59" y="-639.5" font-family="Helvetica,sans-Serif" font-size="20.00">+ Animal()</text>
<text text-anchor="start" x="261.59" y="-617.5" font-family="Helvetica,sans-Serif" font-size="20.00">+ Animal()</text>
<text text-anchor="start" x="261.59" y="-595.5" font-family="Helvetica,sans-Serif" font-size="20.00">+ ~Animal()</text>
<text text-anchor="start" x="261.59" y="-573.5" font-family="Helvetica,sans-Serif" font-size="20.00">+ getNome()</text>
<text text-anchor="start" x="261.59" y="-551.5" font-family="Helvetica,sans-Serif" font-size="20.00">+ getEspecie()</text>
<text text-anchor="start" x="261.59" y="-529.5" font-family="Helvetica,sans-Serif" font-size="20.00">+ getAmeacadoPor()</text>
<text text-anchor="start" x="261.59" y="-507.5" font-family="Helvetica,sans-Serif" font-size="20.00">+ getVeterinario()</text>
<text text-anchor="start" x="261.59" y="-485.5" font-family="Helvetica,sans-Serif" font-size="20.00">+ getTratador()</text>
<text text-anchor="start" x="261.59" y="-463.5" font-family="Helvetica,sans-Serif" font-size="20.00">+ getPerigoso()</text>
<text text-anchor="start" x="261.59" y="-441.5" font-family="Helvetica,sans-Serif" font-size="20.00">+ getClassificacao()</text>
<text text-anchor="start" x="261.59" y="-419.5" font-family="Helvetica,sans-Serif" font-size="20.00">+ getClasse()</text>
<text text-anchor="start" x="261.59" y="-397.5" font-family="Helvetica,sans-Serif" font-size="20.00">+ printOutDados()</text>
<text text-anchor="start" x="261.59" y="-375.5" font-family="Helvetica,sans-Serif" font-size="20.00">+ operator==()</text>
</a>
</g>
</g>
<!-- Node3&#45;&gt;Node2 -->
<g id="edge2" class="edge">
<title>Node3&#45;&gt;Node2</title>
<path fill="none" stroke="midnightblue" d="M365.09,-355.35C365.09,-338.29 365.09,-321.74 365.09,-306.55"/>
<polygon fill="none" stroke="midnightblue" points="361.59,-355.44 365.09,-365.44 368.59,-355.44 361.59,-355.44"/>
</g>
<!-- Node4 -->
<g id="node4" class="node">
<title>Node4</title>
<g id="a_node4"><a xlink:href="classTratador.html" target="_top" xlink:title="Implementação dos tratadores.">
<polygon fill="white" stroke="black" points="85.09,-778.5 85.09,-956.5 285.09,-956.5 285.09,-778.5 85.09,-778.5"/>
<text text-anchor="middle" x="185.09" y="-936.5" font-family="Helvetica,sans-Serif" font-size="20.00">Tratador</text>
<polyline fill="none" stroke="black" points="85.09,-926.5 285.09,-926.5 "/>
<text text-anchor="middle" x="185.09" y="-906.5" font-family="Helvetica,sans-Serif" font-size="20.00"> </text>
<polyline fill="none" stroke="black" points="85.09,-896.5 285.09,-896.5 "/>
<text text-anchor="start" x="93.09" y="-876.5" font-family="Helvetica,sans-Serif" font-size="20.00">+ Tratador()</text>
<text text-anchor="start" x="93.09" y="-854.5" font-family="Helvetica,sans-Serif" font-size="20.00">+ Tratador()</text>
<text text-anchor="start" x="93.09" y="-832.5" font-family="Helvetica,sans-Serif" font-size="20.00">+ ~Tratador()</text>
<text text-anchor="start" x="93.09" y="-810.5" font-family="Helvetica,sans-Serif" font-size="20.00">+ getUniforme()</text>
<text text-anchor="start" x="93.09" y="-788.5" font-family="Helvetica,sans-Serif" font-size="20.00">+ printOutDados()</text>
</a>
</g>
</g>
<!-- Node4&#45;&gt;Node3 -->
<g id="edge3" class="edge">
<title>Node4&#45;&gt;Node3</title>
<path fill="none" stroke="#404040" d="M234.27,-778.24C242.68,-763.15 251.7,-746.97 260.91,-730.43"/>
<polygon fill="none" stroke="#404040" points="261.16,-730 260.58,-722.81 267,-719.52 267.57,-726.71 261.16,-730"/>
<text text-anchor="middle" x="305.59" y="-744" font-family="Helvetica,sans-Serif" font-size="20.00"> #tratador</text>
</g>
<!-- Node5 -->
<g id="node5" class="node">
<title>Node5</title>
<g id="a_node5"><a xlink:href="classPessoa.html" target="_top" xlink:title="Classe base dos funcionarios.">
<polygon fill="white" stroke="black" points="264.09,-1172.5 264.09,-1416.5 464.09,-1416.5 464.09,-1172.5 264.09,-1172.5"/>
<text text-anchor="middle" x="364.09" y="-1396.5" font-family="Helvetica,sans-Serif" font-size="20.00">Pessoa</text>
<polyline fill="none" stroke="black" points="264.09,-1386.5 464.09,-1386.5 "/>
<text text-anchor="middle" x="364.09" y="-1366.5" font-family="Helvetica,sans-Serif" font-size="20.00"> </text>
<polyline fill="none" stroke="black" points="264.09,-1356.5 464.09,-1356.5 "/>
<text text-anchor="start" x="272.09" y="-1336.5" font-family="Helvetica,sans-Serif" font-size="20.00">+ Pessoa()</text>
<text text-anchor="start" x="272.09" y="-1314.5" font-family="Helvetica,sans-Serif" font-size="20.00">+ Pessoa()</text>
<text text-anchor="start" x="272.09" y="-1292.5" font-family="Helvetica,sans-Serif" font-size="20.00">+ ~Pessoa()</text>
<text text-anchor="start" x="272.09" y="-1270.5" font-family="Helvetica,sans-Serif" font-size="20.00">+ getNome()</text>
<text text-anchor="start" x="272.09" y="-1248.5" font-family="Helvetica,sans-Serif" font-size="20.00">+ getTelefone()</text>
<text text-anchor="start" x="272.09" y="-1226.5" font-family="Helvetica,sans-Serif" font-size="20.00">+ getEmail()</text>
<text text-anchor="start" x="272.09" y="-1204.5" font-family="Helvetica,sans-Serif" font-size="20.00">+ printOutDados()</text>
<text text-anchor="start" x="272.09" y="-1182.5" font-family="Helvetica,sans-Serif" font-size="20.00">+ operator==()</text>
</a>
</g>
</g>
<!-- Node5&#45;&gt;Node4 -->
<g id="edge4" class="edge">
<title>Node5&#45;&gt;Node4</title>
<path fill="none" stroke="midnightblue" d="M354.39,-1162.23C345.58,-1102.18 328.84,-1031.91 297.09,-975 293.56,-968.67 289.53,-962.5 285.14,-956.51"/>
<polygon fill="none" stroke="midnightblue" points="350.93,-1162.75 355.79,-1172.16 357.86,-1161.77 350.93,-1162.75"/>
</g>
<!-- Node9 -->
<g id="node9" class="node">
<title>Node9</title>
<g id="a_node9"><a xlink:href="classVeterinario.html" target="_top" xlink:title="Implementação dos veterinarios.">
<polygon fill="white" stroke="black" points="303.09,-778.5 303.09,-956.5 503.09,-956.5 503.09,-778.5 303.09,-778.5"/>
<text text-anchor="middle" x="403.09" y="-936.5" font-family="Helvetica,sans-Serif" font-size="20.00">Veterinario</text>
<polyline fill="none" stroke="black" points="303.09,-926.5 503.09,-926.5 "/>
<text text-anchor="middle" x="403.09" y="-906.5" font-family="Helvetica,sans-Serif" font-size="20.00"> </text>
<polyline fill="none" stroke="black" points="303.09,-896.5 503.09,-896.5 "/>
<text text-anchor="start" x="311.09" y="-876.5" font-family="Helvetica,sans-Serif" font-size="20.00">+ Veterinario()</text>
<text text-anchor="start" x="311.09" y="-854.5" font-family="Helvetica,sans-Serif" font-size="20.00">+ Veterinario()</text>
<text text-anchor="start" x="311.09" y="-832.5" font-family="Helvetica,sans-Serif" font-size="20.00">+ ~Veterinario()</text>
<text text-anchor="start" x="311.09" y="-810.5" font-family="Helvetica,sans-Serif" font-size="20.00">+ getCRMV()</text>
<text text-anchor="start" x="311.09" y="-788.5" font-family="Helvetica,sans-Serif" font-size="20.00">+ printOutDados()</text>
</a>
</g>
</g>
<!-- Node5&#45;&gt;Node9 -->
<g id="edge10" class="edge">
<title>Node5&#45;&gt;Node9</title>
<path fill="none" stroke="midnightblue" d="M376.14,-1162.11C382.27,-1095.39 389.54,-1016.12 394.99,-956.78"/>
<polygon fill="none" stroke="midnightblue" points="372.64,-1162 375.21,-1172.28 379.61,-1162.64 372.64,-1162"/>
</g>
<!-- Node6 -->
<g id="node6" class="node">
<title>Node6</title>
<g id="a_node6"><a xlink:title=" ">
<polygon fill="white" stroke="#bfbfbf" points="407.09,-1519.5 407.09,-1609.5 481.09,-1609.5 481.09,-1519.5 407.09,-1519.5"/>
<text text-anchor="middle" x="444.09" y="-1589.5" font-family="Helvetica,sans-Serif" font-size="20.00">string</text>
<polyline fill="none" stroke="#bfbfbf" points="407.09,-1579.5 481.09,-1579.5 "/>
<text text-anchor="middle" x="444.09" y="-1559.5" font-family="Helvetica,sans-Serif" font-size="20.00"> </text>
<polyline fill="none" stroke="#bfbfbf" points="407.09,-1549.5 481.09,-1549.5 "/>
<text text-anchor="middle" x="444.09" y="-1529.5" font-family="Helvetica,sans-Serif" font-size="20.00"> </text>
</a>
</g>
</g>
<!-- Node6&#45;&gt;Node3 -->
<g id="edge8" class="edge">
<title>Node6&#45;&gt;Node3</title>
<path fill="none" stroke="#404040" d="M407.07,-1555.97C341.99,-1540.88 206.66,-1500.93 129.09,-1417 44.42,-1325.4 53.22,-1276.76 31.09,-1154 1.23,-988.37 -36.33,-903.25 76.09,-778 126.38,-721.97 176.34,-763.55 243.25,-719.72"/>
<polygon fill="none" stroke="#404040" points="243.46,-719.57 246.03,-712.83 253.24,-712.61 250.67,-719.35 243.46,-719.57"/>
<text text-anchor="middle" x="107.09" y="-1081.5" font-family="Helvetica,sans-Serif" font-size="20.00"> #especie</text>
<text text-anchor="middle" x="107.09" y="-1059.5" font-family="Helvetica,sans-Serif" font-size="20.00">#ameacadoPor</text>
<text text-anchor="middle" x="107.09" y="-1037.5" font-family="Helvetica,sans-Serif" font-size="20.00">#nome</text>
</g>
<!-- Node6&#45;&gt;Node5 -->
<g id="edge5" class="edge">
<title>Node6&#45;&gt;Node5</title>
<path fill="none" stroke="#404040" d="M406.85,-1528.45C399.9,-1520.1 393.46,-1510.76 389.09,-1501 379.04,-1478.59 372.58,-1453.51 368.5,-1428.77"/>
<polygon fill="none" stroke="#404040" points="368.47,-1428.54 363.62,-1423.2 366.69,-1416.67 371.53,-1422.01 368.47,-1428.54"/>
<text text-anchor="middle" x="437.59" y="-1485" font-family="Helvetica,sans-Serif" font-size="20.00"> #email</text>
<text text-anchor="middle" x="437.59" y="-1463" font-family="Helvetica,sans-Serif" font-size="20.00">#nome</text>
<text text-anchor="middle" x="437.59" y="-1441" font-family="Helvetica,sans-Serif" font-size="20.00">#telefone</text>
</g>
<!-- Node6&#45;&gt;Node9 -->
<g id="edge11" class="edge">
<title>Node6&#45;&gt;Node9</title>
<path fill="none" stroke="#404040" d="M478.2,-1519.37C481.42,-1513.45 484.18,-1507.25 486.09,-1501 494.64,-1472.94 486.81,-1464.32 486.09,-1435 483.2,-1318 489.19,-1287.92 473.09,-1172 463.55,-1103.35 446.02,-1027.37 430.88,-968.6"/>
<polygon fill="none" stroke="#404040" points="430.81,-968.32 425.43,-963.52 427.79,-956.71 433.17,-961.51 430.81,-968.32"/>
<text text-anchor="middle" x="522.59" y="-1289.5" font-family="Helvetica,sans-Serif" font-size="20.00"> &#45;CRMV</text>
</g>
<!-- Node11 -->
<g id="node11" class="node">
<title>Node11</title>
<g id="a_node11"><a xlink:href="classNativo.html" target="_top" xlink:title="Umas das definições de categoria para Animal.">
<polygon fill="white" stroke="black" points="542.09,-975.5 542.09,-1153.5 704.09,-1153.5 704.09,-975.5 542.09,-975.5"/>
<text text-anchor="middle" x="623.09" y="-1133.5" font-family="Helvetica,sans-Serif" font-size="20.00">Nativo</text>
<polyline fill="none" stroke="black" points="542.09,-1123.5 704.09,-1123.5 "/>
<text text-anchor="middle" x="623.09" y="-1103.5" font-family="Helvetica,sans-Serif" font-size="20.00"> </text>
<polyline fill="none" stroke="black" points="542.09,-1093.5 704.09,-1093.5 "/>
<text text-anchor="start" x="550.09" y="-1073.5" font-family="Helvetica,sans-Serif" font-size="20.00">+ Nativo()</text>
<text text-anchor="start" x="550.09" y="-1051.5" font-family="Helvetica,sans-Serif" font-size="20.00">+ Nativo()</text>
<text text-anchor="start" x="550.09" y="-1029.5" font-family="Helvetica,sans-Serif" font-size="20.00">+ ~Nativo()</text>
<text text-anchor="start" x="550.09" y="-1007.5" font-family="Helvetica,sans-Serif" font-size="20.00">+ getRegiao()</text>
<text text-anchor="start" x="550.09" y="-985.5" font-family="Helvetica,sans-Serif" font-size="20.00">+ getLicenca()</text>
</a>
</g>
</g>
<!-- Node6&#45;&gt;Node11 -->
<g id="edge14" class="edge">
<title>Node6&#45;&gt;Node11</title>
<path fill="none" stroke="#404040" d="M481.1,-1535.59C513.05,-1509.06 557.13,-1465.99 577.09,-1417 609.84,-1336.58 620.47,-1238.04 623.4,-1165.78"/>
<polygon fill="none" stroke="#404040" points="623.41,-1165.5 619.63,-1159.36 623.84,-1153.51 627.62,-1159.65 623.41,-1165.5"/>
<text text-anchor="middle" x="613.59" y="-1474" font-family="Helvetica,sans-Serif" font-size="20.00"> #licenca</text>
<text text-anchor="middle" x="613.59" y="-1452" font-family="Helvetica,sans-Serif" font-size="20.00">#regiao</text>
</g>
<!-- Node7 -->
<g id="node7" class="node">
<title>Node7</title>
<g id="a_node7"><a xlink:title=" ">
<polygon fill="white" stroke="#bfbfbf" points="138.59,-1249.5 138.59,-1339.5 245.59,-1339.5 245.59,-1249.5 138.59,-1249.5"/>
<text text-anchor="middle" x="192.09" y="-1319.5" font-family="Helvetica,sans-Serif" font-size="20.00">Uniforme</text>
<polyline fill="none" stroke="#bfbfbf" points="138.59,-1309.5 245.59,-1309.5 "/>
<text text-anchor="middle" x="192.09" y="-1289.5" font-family="Helvetica,sans-Serif" font-size="20.00"> </text>
<polyline fill="none" stroke="#bfbfbf" points="138.59,-1279.5 245.59,-1279.5 "/>
<text text-anchor="middle" x="192.09" y="-1259.5" font-family="Helvetica,sans-Serif" font-size="20.00"> </text>
</a>
</g>
</g>
<!-- Node7&#45;&gt;Node4 -->
<g id="edge6" class="edge">
<title>Node7&#45;&gt;Node4</title>
<path fill="none" stroke="#404040" d="M191.36,-1249.22C190.27,-1183.26 188.2,-1057.45 186.73,-968.54"/>
<polygon fill="none" stroke="#404040" points="186.73,-968.52 182.64,-962.59 186.54,-956.52 190.63,-962.46 186.73,-968.52"/>
<text text-anchor="middle" x="241.59" y="-1059.5" font-family="Helvetica,sans-Serif" font-size="20.00"> &#45;uniforme</text>
</g>
<!-- Node8 -->
<g id="node8" class="node">
<title>Node8</title>
<g id="a_node8"><a xlink:title=" ">
<polygon fill="white" stroke="#bfbfbf" points="521.59,-822.5 521.59,-912.5 580.59,-912.5 580.59,-822.5 521.59,-822.5"/>
<text text-anchor="middle" x="551.09" y="-892.5" font-family="Helvetica,sans-Serif" font-size="20.00">bool</text>
<polyline fill="none" stroke="#bfbfbf" points="521.59,-882.5 580.59,-882.5 "/>
<text text-anchor="middle" x="551.09" y="-862.5" font-family="Helvetica,sans-Serif" font-size="20.00"> </text>
<polyline fill="none" stroke="#bfbfbf" points="521.59,-852.5 580.59,-852.5 "/>
<text text-anchor="middle" x="551.09" y="-832.5" font-family="Helvetica,sans-Serif" font-size="20.00"> </text>
</a>
</g>
</g>
<!-- Node8&#45;&gt;Node3 -->
<g id="edge7" class="edge">
<title>Node8&#45;&gt;Node3</title>
<path fill="none" stroke="#404040" d="M534.61,-822.41C524.58,-797.15 510.88,-765.17 496.09,-738 491.86,-730.23 487.4,-722.38 482.79,-714.52"/>
<polygon fill="none" stroke="#404040" points="482.77,-714.49 476.27,-711.38 476.64,-704.18 483.14,-707.29 482.77,-714.49"/>
<text text-anchor="middle" x="561.59" y="-744" font-family="Helvetica,sans-Serif" font-size="20.00"> #perigoso</text>
</g>
<!-- Node9&#45;&gt;Node3 -->
<g id="edge9" class="edge">
<title>Node9&#45;&gt;Node3</title>
<path fill="none" stroke="#404040" d="M370.03,-778.46C368.47,-772.27 367.13,-766.08 366.09,-760 364.52,-750.82 363.24,-741.38 362.21,-731.83"/>
<polygon fill="none" stroke="#404040" points="362.2,-731.63 357.64,-726.04 361.05,-719.68 365.6,-725.27 362.2,-731.63"/>
<text text-anchor="middle" x="431.09" y="-744" font-family="Helvetica,sans-Serif" font-size="20.00"> #veterinario</text>
</g>
<!-- Node10 -->
<g id="node10" class="node">
<title>Node10</title>
<g id="a_node10"><a xlink:title=" ">
<polygon fill="white" stroke="#bfbfbf" points="178.59,-497.5 178.59,-587.5 235.59,-587.5 235.59,-497.5 178.59,-497.5"/>
<text text-anchor="middle" x="207.09" y="-567.5" font-family="Helvetica,sans-Serif" font-size="20.00">Pele</text>
<polyline fill="none" stroke="#bfbfbf" points="178.59,-557.5 235.59,-557.5 "/>
<text text-anchor="middle" x="207.09" y="-537.5" font-family="Helvetica,sans-Serif" font-size="20.00"> </text>
<polyline fill="none" stroke="#bfbfbf" points="178.59,-527.5 235.59,-527.5 "/>
<text text-anchor="middle" x="207.09" y="-507.5" font-family="Helvetica,sans-Serif" font-size="20.00"> </text>
</a>
</g>
</g>
<!-- Node10&#45;&gt;Node2 -->
<g id="edge12" class="edge">
<title>Node10&#45;&gt;Node2</title>
<path fill="none" stroke="#404040" d="M209.97,-497.34C213.85,-460.31 222.91,-406.92 244.09,-365 256.6,-340.23 274.8,-316.49 293.31,-295.98"/>
<polygon fill="none" stroke="#404040" points="293.37,-295.91 294.51,-288.79 301.52,-287.1 300.39,-294.22 293.37,-295.91"/>
<text text-anchor="middle" x="300.59" y="-331" font-family="Helvetica,sans-Serif" font-size="20.00"> #pele</text>
</g>
<!-- Node11&#45;&gt;Node1 -->
<g id="edge13" class="edge">
<title>Node11&#45;&gt;Node1</title>
<path fill="none" stroke="midnightblue" d="M632.1,-965.29C637.01,-903.54 642.09,-822.18 642.09,-750 642.09,-750 642.09,-750 642.09,-227.5 642.09,-182.32 612.3,-142.54 580.31,-112.85"/>
<polygon fill="none" stroke="midnightblue" points="628.6,-965.16 631.28,-975.41 635.58,-965.73 628.6,-965.16"/>
</g>
</g>
</svg>
        <g id="navigator" transform="translate(0 0)" fill="#404254">
                <rect fill="#f2f5e9" fill-opacity="0.5" stroke="#606060" stroke-width=".5" x="0" y="0" width="60" height="60"/>
                <use id="zoomplus" xlink:href="#zoomPlus" x="17" y="9" onmousedown="handleZoom(evt,'in')"/>
                <use id="zoomminus" xlink:href="#zoomMin" x="42" y="9" onmousedown="handleZoom(evt,'out')"/>
                <use id="reset" xlink:href="#resetDef" x="30" y="36" onmousedown="handleReset()"/>
                <g id="arrowUp" xlink:href="#dirArrow" transform="translate(30 24)" onmousedown="handlePan(0,-1)">
                  <use xlink:href="#rim" fill="#404040">
                        <set attributeName="fill" to="#808080" begin="arrowUp.mouseover" end="arrowUp.mouseout"/>
                  </use>
                  <path fill="none" stroke="white" stroke-width="1.5" d="M0,-3.0v7 M-2.5,-0.5L0,-3.0L2.5,-0.5"/>
                </g>
                <g id="arrowRight" xlink:href="#dirArrow" transform="rotate(90) translate(36 -43)" onmousedown="handlePan(1,0)">
                  <use xlink:href="#rim" fill="#404040">
                        <set attributeName="fill" to="#808080" begin="arrowRight.mouseover" end="arrowRight.mouseout"/>
                  </use>
                  <path fill="none" stroke="white" stroke-width="1.5" d="M0,-3.0v7 M-2.5,-0.5L0,-3.0L2.5,-0.5"/>
                </g>
                <g id="arrowDown" xlink:href="#dirArrow" transform="rotate(180) translate(-30 -48)" onmousedown="handlePan(0,1)">
                  <use xlink:href="#rim" fill="#404040">
                        <set attributeName="fill" to="#808080" begin="arrowDown.mouseover" end="arrowDown.mouseout"/>
                  </use>
                  <path fill="none" stroke="white" stroke-width="1.5" d="M0,-3.0v7 M-2.5,-0.5L0,-3.0L2.5,-0.5"/>
                </g>
                <g id="arrowLeft" xlink:href="#dirArrow" transform="rotate(270) translate(-36 17)" onmousedown="handlePan(-1,0)">
                  <use xlink:href="#rim" fill="#404040">
                        <set attributeName="fill" to="#808080" begin="arrowLeft.mouseover" end="arrowLeft.mouseout"/>
                  </use>
                  <path fill="none" stroke="white" stroke-width="1.5" d="M0,-3.0v7 M-2.5,-0.5L0,-3.0L2.5,-0.5"/>
                </g>
        </g>
        <svg viewBox="0 0 15 15" width="100%" height="30px" preserveAspectRatio="xMaxYMin meet">
         <g id="arrow_out" transform="scale(0.3 0.3)">
          <a xlink:href="classReptilNativo__coll__graph_org.svg" target="_base">
           <rect id="button" ry="5" rx="5" y="6" x="6" height="38" width="38"
                fill="#f2f5e9" fill-opacity="0.5" stroke="#606060" stroke-width="1.0"/>
           <path id="arrow"
             d="M 11.500037,31.436501 C 11.940474,20.09759 22.043105,11.32322 32.158766,21.979434 L 37.068811,17.246167 C 37.068811,17.246167 37.088388,32 37.088388,32 L 22.160133,31.978069 C 22.160133,31.978069 26.997745,27.140456 26.997745,27.140456 C 18.528582,18.264221 13.291696,25.230495 11.500037,31.436501 z"
             style="fill:#404040;"/>
          </a>
         </g>
        </svg>
</svg>
