<?xml version="1.0" encoding="UTF-8" standalone="no"?>
<!DOCTYPE svg PUBLIC "-//W3C//DTD SVG 1.1//EN"
 "http://www.w3.org/Graphics/SVG/1.1/DTD/svg11.dtd">
<!-- Generated by graphviz version 2.43.0 (0)
 -->
<!-- Title: Tratador Pages: 1 -->
<!--zoomable 683 -->
<svg id="main" version="1.1" xmlns="http://www.w3.org/2000/svg" xmlns:xlink="http://www.w3.org/1999/xlink" xml:space="preserve" onload="init(evt)">
<style type="text/css"><![CDATA[
.edge:hover path { stroke: red; }
.edge:hover polygon { stroke: red; fill: red; }
]]></style>
<script type="text/javascript"><![CDATA[
var edges = document.getElementsByTagName('g');
if (edges && edges.length) {
  for (var i=0;i<edges.length;i++) {
    if (edges[i].id.substr(0,4)=='edge') {
      edges[i].setAttribute('class','edge');
    }
  }
}
]]></script>
        <defs>
                <circle id="rim" cx="0" cy="0" r="7"/>
                <circle id="rim2" cx="0" cy="0" r="3.5"/>
                <g id="zoomPlus">
                        <use xlink:href="#rim" fill="#404040">
                                <set attributeName="fill" to="#808080" begin="zoomplus.mouseover" end="zoomplus.mouseout"/>
                        </use>
                        <path d="M-4,0h8M0,-4v8" fill="none" stroke="white" stroke-width="1.5" pointer-events="none"/>
                </g>
                <g id="zoomMin">
                        <use xlink:href="#rim" fill="#404040">
                                <set attributeName="fill" to="#808080" begin="zoomminus.mouseover" end="zoomminus.mouseout"/>
                        </use>
                        <path d="M-4,0h8" fill="none" stroke="white" stroke-width="1.5" pointer-events="none"/>
                </g>
                <g id="dirArrow">
                        <path fill="none" stroke="white" stroke-width="1.5" d="M0,-3.0v7 M-2.5,-0.5L0,-3.0L2.5,-0.5"/>
                </g>
               <g id="resetDef">
                       <use xlink:href="#rim2" fill="#404040">
                               <set attributeName="fill" to="#808080" begin="reset.mouseover" end="reset.mouseout"/>
                       </use>
               </g>
        </defs>

<script type="text/javascript">
var viewWidth = 338;
var viewHeight = 683;
var sectionId = 'dynsection-1';
</script>
<script xlink:href="svgpan.js"/>
<svg id="graph" class="graph">
<g id="viewport">
<title>Tratador</title>
<polygon fill="white" stroke="transparent" points="-4,4 -4,-679 334,-679 334,4 -4,4"/>
<!-- Node1 -->
<g id="node1" class="node">
<title>Node1</title>
<g id="a_node1"><a xlink:title="Implementação dos tratadores.">
<polygon fill="#bfbfbf" stroke="black" points="86,-0.5 86,-178.5 286,-178.5 286,-0.5 86,-0.5"/>
<text text-anchor="middle" x="186" y="-158.5" font-family="Helvetica,sans-Serif" font-size="20.00">Tratador</text>
<polyline fill="none" stroke="black" points="86,-148.5 286,-148.5 "/>
<text text-anchor="middle" x="186" y="-128.5" font-family="Helvetica,sans-Serif" font-size="20.00"> </text>
<polyline fill="none" stroke="black" points="86,-118.5 286,-118.5 "/>
<text text-anchor="start" x="94" y="-98.5" font-family="Helvetica,sans-Serif" font-size="20.00">+ Tratador()</text>
<text text-anchor="start" x="94" y="-76.5" font-family="Helvetica,sans-Serif" font-size="20.00">+ Tratador()</text>
<text text-anchor="start" x="94" y="-54.5" font-family="Helvetica,sans-Serif" font-size="20.00">+ ~Tratador()</text>
<text text-anchor="start" x="94" y="-32.5" font-family="Helvetica,sans-Serif" font-size="20.00">+ getUniforme()</text>
<text text-anchor="start" x="94" y="-10.5" font-family="Helvetica,sans-Serif" font-size="20.00">+ printOutDados()</text>
</a>
</g>
</g>
<!-- Node2 -->
<g id="node2" class="node">
<title>Node2</title>
<g id="a_node2"><a xlink:href="classPessoa.html" target="_top" xlink:title="Classe base dos funcionarios.">
<polygon fill="white" stroke="black" points="0,-237.5 0,-481.5 200,-481.5 200,-237.5 0,-237.5"/>
<text text-anchor="middle" x="100" y="-461.5" font-family="Helvetica,sans-Serif" font-size="20.00">Pessoa</text>
<polyline fill="none" stroke="black" points="0,-451.5 200,-451.5 "/>
<text text-anchor="middle" x="100" y="-431.5" font-family="Helvetica,sans-Serif" font-size="20.00"> </text>
<polyline fill="none" stroke="black" points="0,-421.5 200,-421.5 "/>
<text text-anchor="start" x="8" y="-401.5" font-family="Helvetica,sans-Serif" font-size="20.00">+ Pessoa()</text>
<text text-anchor="start" x="8" y="-379.5" font-family="Helvetica,sans-Serif" font-size="20.00">+ Pessoa()</text>
<text text-anchor="start" x="8" y="-357.5" font-family="Helvetica,sans-Serif" font-size="20.00">+ ~Pessoa()</text>
<text text-anchor="start" x="8" y="-335.5" font-family="Helvetica,sans-Serif" font-size="20.00">+ getNome()</text>
<text text-anchor="start" x="8" y="-313.5" font-family="Helvetica,sans-Serif" font-size="20.00">+ getTelefone()</text>
<text text-anchor="start" x="8" y="-291.5" font-family="Helvetica,sans-Serif" font-size="20.00">+ getEmail()</text>
<text text-anchor="start" x="8" y="-269.5" font-family="Helvetica,sans-Serif" font-size="20.00">+ printOutDados()</text>
<text text-anchor="start" x="8" y="-247.5" font-family="Helvetica,sans-Serif" font-size="20.00">+ operator==()</text>
</a>
</g>
</g>
<!-- Node2&#45;&gt;Node1 -->
<g id="edge1" class="edge">
<title>Node2&#45;&gt;Node1</title>
<path fill="none" stroke="midnightblue" d="M141.99,-227.65C147.33,-211 152.69,-194.29 157.75,-178.54"/>
<polygon fill="none" stroke="midnightblue" points="138.57,-226.85 138.85,-237.44 145.24,-228.98 138.57,-226.85"/>
</g>
<!-- Node3 -->
<g id="node3" class="node">
<title>Node3</title>
<g id="a_node3"><a xlink:title=" ">
<polygon fill="white" stroke="#bfbfbf" points="63,-584.5 63,-674.5 137,-674.5 137,-584.5 63,-584.5"/>
<text text-anchor="middle" x="100" y="-654.5" font-family="Helvetica,sans-Serif" font-size="20.00">string</text>
<polyline fill="none" stroke="#bfbfbf" points="63,-644.5 137,-644.5 "/>
<text text-anchor="middle" x="100" y="-624.5" font-family="Helvetica,sans-Serif" font-size="20.00"> </text>
<polyline fill="none" stroke="#bfbfbf" points="63,-614.5 137,-614.5 "/>
<text text-anchor="middle" x="100" y="-594.5" font-family="Helvetica,sans-Serif" font-size="20.00"> </text>
</a>
</g>
</g>
<!-- Node3&#45;&gt;Node2 -->
<g id="edge2" class="edge">
<title>Node3&#45;&gt;Node2</title>
<path fill="none" stroke="#404040" d="M100,-584.25C100,-559.22 100,-526.47 100,-493.77"/>
<polygon fill="none" stroke="#404040" points="100,-493.74 96,-487.74 100,-481.74 104,-487.74 100,-493.74"/>
<text text-anchor="middle" x="148.5" y="-550" font-family="Helvetica,sans-Serif" font-size="20.00"> #email</text>
<text text-anchor="middle" x="148.5" y="-528" font-family="Helvetica,sans-Serif" font-size="20.00">#nome</text>
<text text-anchor="middle" x="148.5" y="-506" font-family="Helvetica,sans-Serif" font-size="20.00">#telefone</text>
</g>
<!-- Node4 -->
<g id="node4" class="node">
<title>Node4</title>
<g id="a_node4"><a xlink:title=" ">
<polygon fill="white" stroke="#bfbfbf" points="218.5,-314.5 218.5,-404.5 325.5,-404.5 325.5,-314.5 218.5,-314.5"/>
<text text-anchor="middle" x="272" y="-384.5" font-family="Helvetica,sans-Serif" font-size="20.00">Uniforme</text>
<polyline fill="none" stroke="#bfbfbf" points="218.5,-374.5 325.5,-374.5 "/>
<text text-anchor="middle" x="272" y="-354.5" font-family="Helvetica,sans-Serif" font-size="20.00"> </text>
<polyline fill="none" stroke="#bfbfbf" points="218.5,-344.5 325.5,-344.5 "/>
<text text-anchor="middle" x="272" y="-324.5" font-family="Helvetica,sans-Serif" font-size="20.00"> </text>
</a>
</g>
</g>
<!-- Node4&#45;&gt;Node1 -->
<g id="edge3" class="edge">
<title>Node4&#45;&gt;Node1</title>
<path fill="none" stroke="#404040" d="M257.8,-314.25C247,-280.61 231.73,-233.01 218.04,-190.35"/>
<polygon fill="none" stroke="#404040" points="217.99,-190.18 212.35,-185.69 214.32,-178.76 219.96,-183.25 217.99,-190.18"/>
<text text-anchor="middle" x="278.5" y="-203" font-family="Helvetica,sans-Serif" font-size="20.00"> &#45;uniforme</text>
</g>
</g>
</svg>
        <g id="navigator" transform="translate(0 0)" fill="#404254">
                <rect fill="#f2f5e9" fill-opacity="0.5" stroke="#606060" stroke-width=".5" x="0" y="0" width="60" height="60"/>
                <use id="zoomplus" xlink:href="#zoomPlus" x="17" y="9" onmousedown="handleZoom(evt,'in')"/>
                <use id="zoomminus" xlink:href="#zoomMin" x="42" y="9" onmousedown="handleZoom(evt,'out')"/>
                <use id="reset" xlink:href="#resetDef" x="30" y="36" onmousedown="handleReset()"/>
                <g id="arrowUp" xlink:href="#dirArrow" transform="translate(30 24)" onmousedown="handlePan(0,-1)">
                  <use xlink:href="#rim" fill="#404040">
                        <set attributeName="fill" to="#808080" begin="arrowUp.mouseover" end="arrowUp.mouseout"/>
                  </use>
                  <path fill="none" stroke="white" stroke-width="1.5" d="M0,-3.0v7 M-2.5,-0.5L0,-3.0L2.5,-0.5"/>
                </g>
                <g id="arrowRight" xlink:href="#dirArrow" transform="rotate(90) translate(36 -43)" onmousedown="handlePan(1,0)">
                  <use xlink:href="#rim" fill="#404040">
                        <set attributeName="fill" to="#808080" begin="arrowRight.mouseover" end="arrowRight.mouseout"/>
                  </use>
                  <path fill="none" stroke="white" stroke-width="1.5" d="M0,-3.0v7 M-2.5,-0.5L0,-3.0L2.5,-0.5"/>
                </g>
                <g id="arrowDown" xlink:href="#dirArrow" transform="rotate(180) translate(-30 -48)" onmousedown="handlePan(0,1)">
                  <use xlink:href="#rim" fill="#404040">
                        <set attributeName="fill" to="#808080" begin="arrowDown.mouseover" end="arrowDown.mouseout"/>
                  </use>
                  <path fill="none" stroke="white" stroke-width="1.5" d="M0,-3.0v7 M-2.5,-0.5L0,-3.0L2.5,-0.5"/>
                </g>
                <g id="arrowLeft" xlink:href="#dirArrow" transform="rotate(270) translate(-36 17)" onmousedown="handlePan(-1,0)">
                  <use xlink:href="#rim" fill="#404040">
                        <set attributeName="fill" to="#808080" begin="arrowLeft.mouseover" end="arrowLeft.mouseout"/>
                  </use>
                  <path fill="none" stroke="white" stroke-width="1.5" d="M0,-3.0v7 M-2.5,-0.5L0,-3.0L2.5,-0.5"/>
                </g>
        </g>
        <svg viewBox="0 0 15 15" width="100%" height="30px" preserveAspectRatio="xMaxYMin meet">
         <g id="arrow_out" transform="scale(0.3 0.3)">
          <a xlink:href="classTratador__coll__graph_org.svg" target="_base">
           <rect id="button" ry="5" rx="5" y="6" x="6" height="38" width="38"
                fill="#f2f5e9" fill-opacity="0.5" stroke="#606060" stroke-width="1.0"/>
           <path id="arrow"
             d="M 11.500037,31.436501 C 11.940474,20.09759 22.043105,11.32322 32.158766,21.979434 L 37.068811,17.246167 C 37.068811,17.246167 37.088388,32 37.088388,32 L 22.160133,31.978069 C 22.160133,31.978069 26.997745,27.140456 26.997745,27.140456 C 18.528582,18.264221 13.291696,25.230495 11.500037,31.436501 z"
             style="fill:#404040;"/>
          </a>
         </g>
        </svg>
</svg>
