<?xml version="1.0" encoding="UTF-8" standalone="no"?>
<!DOCTYPE svg PUBLIC "-//W3C//DTD SVG 1.1//EN"
 "http://www.w3.org/Graphics/SVG/1.1/DTD/svg11.dtd">
<!-- Generated by graphviz version 2.40.1 (20161225.0304)
 -->
<!-- Title: Petshop Pages: 1 -->
<svg width="846pt" height="705pt"
 viewBox="0.00 0.00 845.50 705.00" xmlns="http://www.w3.org/2000/svg" xmlns:xlink="http://www.w3.org/1999/xlink">
<g id="graph0" class="graph" transform="scale(1 1) rotate(0) translate(4 701)">
<title>Petshop</title>
<polygon fill="#ffffff" stroke="transparent" points="-4,4 -4,-701 841.5,-701 841.5,4 -4,4"/>
<!-- Node1 -->
<g id="node1" class="node">
<title>Node1</title>
<polygon fill="#bfbfbf" stroke="#000000" points="287,-.5 287,-376.5 496,-376.5 496,-.5 287,-.5"/>
<text text-anchor="middle" x="391.5" y="-356.5" font-family="Helvetica,sans-Serif" font-size="20.00" fill="#000000">Petshop</text>
<polyline fill="none" stroke="#000000" points="287,-346.5 496,-346.5 "/>
<text text-anchor="middle" x="391.5" y="-326.5" font-family="Helvetica,sans-Serif" font-size="20.00" fill="#000000"> </text>
<polyline fill="none" stroke="#000000" points="287,-316.5 496,-316.5 "/>
<text text-anchor="start" x="295" y="-296.5" font-family="Helvetica,sans-Serif" font-size="20.00" fill="#000000">+ Petshop()</text>
<text text-anchor="start" x="295" y="-274.5" font-family="Helvetica,sans-Serif" font-size="20.00" fill="#000000">+ ~Petshop()</text>
<text text-anchor="start" x="295" y="-252.5" font-family="Helvetica,sans-Serif" font-size="20.00" fill="#000000">+ listarAnimais()</text>
<text text-anchor="start" x="295" y="-230.5" font-family="Helvetica,sans-Serif" font-size="20.00" fill="#000000">+ listarTratadores()</text>
<text text-anchor="start" x="295" y="-208.5" font-family="Helvetica,sans-Serif" font-size="20.00" fill="#000000">+ listarVeterinarios()</text>
<text text-anchor="start" x="295" y="-186.5" font-family="Helvetica,sans-Serif" font-size="20.00" fill="#000000">+ criarVeterinario()</text>
<text text-anchor="start" x="295" y="-164.5" font-family="Helvetica,sans-Serif" font-size="20.00" fill="#000000">+ criarTratador()</text>
<text text-anchor="start" x="295" y="-142.5" font-family="Helvetica,sans-Serif" font-size="20.00" fill="#000000">+ criarAnimal()</text>
<text text-anchor="start" x="295" y="-120.5" font-family="Helvetica,sans-Serif" font-size="20.00" fill="#000000">+ adicionarVeterinario()</text>
<text text-anchor="start" x="295" y="-98.5" font-family="Helvetica,sans-Serif" font-size="20.00" fill="#000000">+ adicionarTratador()</text>
<text text-anchor="start" x="295" y="-76.5" font-family="Helvetica,sans-Serif" font-size="20.00" fill="#000000">e 10 mais...</text>
<text text-anchor="start" x="295" y="-54.5" font-family="Helvetica,sans-Serif" font-size="20.00" fill="#000000">&#45; findVeterinario()</text>
<text text-anchor="start" x="295" y="-32.5" font-family="Helvetica,sans-Serif" font-size="20.00" fill="#000000">&#45; findTratador()</text>
<text text-anchor="start" x="295" y="-10.5" font-family="Helvetica,sans-Serif" font-size="20.00" fill="#000000">&#45; findAnimal()</text>
</g>
<!-- Node2 -->
<g id="node2" class="node">
<title>Node2</title>
<polygon fill="#ffffff" stroke="#bfbfbf" points="0,-435.5 0,-525.5 197,-525.5 197,-435.5 0,-435.5"/>
<text text-anchor="middle" x="98.5" y="-505.5" font-family="Helvetica,sans-Serif" font-size="20.00" fill="#000000">vector&lt; Veterinario *&gt;</text>
<polyline fill="none" stroke="#bfbfbf" points="0,-495.5 197,-495.5 "/>
<text text-anchor="middle" x="98.5" y="-475.5" font-family="Helvetica,sans-Serif" font-size="20.00" fill="#000000"> </text>
<polyline fill="none" stroke="#bfbfbf" points="0,-465.5 197,-465.5 "/>
<text text-anchor="middle" x="98.5" y="-445.5" font-family="Helvetica,sans-Serif" font-size="20.00" fill="#000000"> </text>
</g>
<!-- Node2&#45;&gt;Node1 -->
<g id="edge1" class="edge">
<title>Node2&#45;&gt;Node1</title>
<path fill="none" stroke="#404040" d="M143.9598,-435.1954C179.8227,-399.4548 231.4362,-348.0175 278.2629,-301.3507"/>
<polygon fill="none" stroke="#404040" points="278.446,-301.1681 279.8723,-294.0994 286.9458,-292.6973 285.5195,-299.766 278.446,-301.1681"/>
<text text-anchor="middle" x="231.5" y="-401" font-family="Helvetica,sans-Serif" font-size="20.00" fill="#000000"> &#45;veterinarios</text>
</g>
<!-- Node3 -->
<g id="node3" class="node">
<title>Node3</title>
<polygon fill="#ffffff" stroke="#bfbfbf" points="215.5,-435.5 215.5,-525.5 379.5,-525.5 379.5,-435.5 215.5,-435.5"/>
<text text-anchor="middle" x="297.5" y="-505.5" font-family="Helvetica,sans-Serif" font-size="20.00" fill="#000000">vector&lt; Animal *&gt;</text>
<polyline fill="none" stroke="#bfbfbf" points="215.5,-495.5 379.5,-495.5 "/>
<text text-anchor="middle" x="297.5" y="-475.5" font-family="Helvetica,sans-Serif" font-size="20.00" fill="#000000"> </text>
<polyline fill="none" stroke="#bfbfbf" points="215.5,-465.5 379.5,-465.5 "/>
<text text-anchor="middle" x="297.5" y="-445.5" font-family="Helvetica,sans-Serif" font-size="20.00" fill="#000000"> </text>
</g>
<!-- Node3&#45;&gt;Node1 -->
<g id="edge2" class="edge">
<title>Node3&#45;&gt;Node1</title>
<path fill="none" stroke="#404040" d="M312.0844,-435.1954C316.5049,-421.4635 321.6714,-405.4144 327.2101,-388.209"/>
<polygon fill="none" stroke="#404040" points="327.2222,-388.1711 325.2533,-381.234 330.8995,-376.7484 332.8684,-383.6855 327.2222,-388.1711"/>
<text text-anchor="middle" x="360.5" y="-401" font-family="Helvetica,sans-Serif" font-size="20.00" fill="#000000"> &#45;animais</text>
</g>
<!-- Node4 -->
<g id="node4" class="node">
<title>Node4</title>
<polygon fill="#ffffff" stroke="#bfbfbf" points="397.5,-435.5 397.5,-525.5 575.5,-525.5 575.5,-435.5 397.5,-435.5"/>
<text text-anchor="middle" x="486.5" y="-505.5" font-family="Helvetica,sans-Serif" font-size="20.00" fill="#000000">vector&lt; Tratador *&gt;</text>
<polyline fill="none" stroke="#bfbfbf" points="397.5,-495.5 575.5,-495.5 "/>
<text text-anchor="middle" x="486.5" y="-475.5" font-family="Helvetica,sans-Serif" font-size="20.00" fill="#000000"> </text>
<polyline fill="none" stroke="#bfbfbf" points="397.5,-465.5 575.5,-465.5 "/>
<text text-anchor="middle" x="486.5" y="-445.5" font-family="Helvetica,sans-Serif" font-size="20.00" fill="#000000"> </text>
</g>
<!-- Node4&#45;&gt;Node1 -->
<g id="edge3" class="edge">
<title>Node4&#45;&gt;Node1</title>
<path fill="none" stroke="#404040" d="M471.7605,-435.1954C467.2929,-421.4635 462.0715,-405.4144 456.4738,-388.209"/>
<polygon fill="none" stroke="#404040" points="456.4578,-388.1597 450.7978,-383.6916 452.7452,-376.7484 458.4053,-381.2165 456.4578,-388.1597"/>
<text text-anchor="middle" x="511" y="-401" font-family="Helvetica,sans-Serif" font-size="20.00" fill="#000000"> &#45;tratadores</text>
</g>
<!-- Node5 -->
<g id="node5" class="node">
<title>Node5</title>
<g id="a_node5"><a xlink:href="classMapeadorAnimal.html" target="_top" xlink:title="Mapeador de animais. ">
<polygon fill="#ffffff" stroke="#000000" points="594,-435.5 594,-525.5 777,-525.5 777,-435.5 594,-435.5"/>
<text text-anchor="middle" x="685.5" y="-505.5" font-family="Helvetica,sans-Serif" font-size="20.00" fill="#000000">MapeadorAnimal</text>
<polyline fill="none" stroke="#000000" points="594,-495.5 777,-495.5 "/>
<text text-anchor="middle" x="685.5" y="-475.5" font-family="Helvetica,sans-Serif" font-size="20.00" fill="#000000"> </text>
<polyline fill="none" stroke="#000000" points="594,-465.5 777,-465.5 "/>
<text text-anchor="start" x="602" y="-445.5" font-family="Helvetica,sans-Serif" font-size="20.00" fill="#000000">+ MapeadorAnimal()</text>
</a>
</g>
</g>
<!-- Node5&#45;&gt;Node1 -->
<g id="edge4" class="edge">
<title>Node5&#45;&gt;Node1</title>
<path fill="none" stroke="#404040" d="M639.8851,-435.1954C603.8238,-399.3794 551.8915,-347.8004 504.8263,-301.0554"/>
<polygon fill="none" stroke="#404040" points="504.614,-300.8445 497.5381,-299.4544 496.0998,-292.3882 503.1756,-293.7783 504.614,-300.8445"/>
<text text-anchor="middle" x="641.5" y="-401" font-family="Helvetica,sans-Serif" font-size="20.00" fill="#000000"> &#45;mapa</text>
</g>
<!-- Node6 -->
<g id="node6" class="node">
<title>Node6</title>
<polygon fill="#ffffff" stroke="#bfbfbf" points="533.5,-584.5 533.5,-696.5 837.5,-696.5 837.5,-584.5 533.5,-584.5"/>
<text text-anchor="start" x="541.5" y="-676.5" font-family="Helvetica,sans-Serif" font-size="20.00" fill="#000000">map&lt; string, std::function</text>
<text text-anchor="middle" x="685.5" y="-654.5" font-family="Helvetica,sans-Serif" font-size="20.00" fill="#000000">&lt; Animal *(DadosAnimal dados)&gt; &gt;</text>
<polyline fill="none" stroke="#bfbfbf" points="533.5,-644.5 837.5,-644.5 "/>
<text text-anchor="middle" x="685.5" y="-624.5" font-family="Helvetica,sans-Serif" font-size="20.00" fill="#000000"> </text>
<polyline fill="none" stroke="#bfbfbf" points="533.5,-614.5 837.5,-614.5 "/>
<text text-anchor="middle" x="685.5" y="-594.5" font-family="Helvetica,sans-Serif" font-size="20.00" fill="#000000"> </text>
</g>
<!-- Node6&#45;&gt;Node5 -->
<g id="edge5" class="edge">
<title>Node6&#45;&gt;Node5</title>
<path fill="none" stroke="#404040" d="M685.5,-584.09C685.5,-569.1183 685.5,-552.9361 685.5,-537.9117"/>
<polygon fill="none" stroke="#404040" points="685.5001,-537.6155 681.5,-531.6155 685.5,-525.6155 689.5,-531.6155 685.5001,-537.6155"/>
<text text-anchor="middle" x="716" y="-550" font-family="Helvetica,sans-Serif" font-size="20.00" fill="#000000"> +aMap</text>
</g>
</g>
</svg>
