<?xml version="1.0" encoding="UTF-8" standalone="no"?>
<!DOCTYPE svg PUBLIC "-//W3C//DTD SVG 1.1//EN"
 "http://www.w3.org/Graphics/SVG/1.1/DTD/svg11.dtd">
<!-- Generated by graphviz version 2.43.0 (0)
 -->
<!-- Title: ReptilDomestico Pages: 1 -->
<svg width="974pt" height="1188pt"
 viewBox="0.00 0.00 973.50 1188.00" xmlns="http://www.w3.org/2000/svg" xmlns:xlink="http://www.w3.org/1999/xlink">
<g id="graph0" class="graph" transform="scale(1 1) rotate(0) translate(4 1184)">
<title>ReptilDomestico</title>
<polygon fill="white" stroke="transparent" points="-4,4 -4,-1184 969.5,-1184 969.5,4 -4,4"/>
<!-- Node1 -->
<g id="node1" class="node">
<title>Node1</title>
<g id="a_node1"><a xlink:title="Implementação de animal com Classe e Categoria.">
<polygon fill="#bfbfbf" stroke="black" points="23,-0.5 23,-134.5 255,-134.5 255,-0.5 23,-0.5"/>
<text text-anchor="middle" x="139" y="-114.5" font-family="Helvetica,sans-Serif" font-size="20.00">ReptilDomestico</text>
<polyline fill="none" stroke="black" points="23,-104.5 255,-104.5 "/>
<text text-anchor="middle" x="139" y="-84.5" font-family="Helvetica,sans-Serif" font-size="20.00"> </text>
<polyline fill="none" stroke="black" points="23,-74.5 255,-74.5 "/>
<text text-anchor="start" x="31" y="-54.5" font-family="Helvetica,sans-Serif" font-size="20.00">+ ReptilDomestico()</text>
<text text-anchor="start" x="31" y="-32.5" font-family="Helvetica,sans-Serif" font-size="20.00">+ ReptilDomestico()</text>
<text text-anchor="start" x="31" y="-10.5" font-family="Helvetica,sans-Serif" font-size="20.00">+ ~ReptilDomestico()</text>
</a>
</g>
</g>
<!-- Node2 -->
<g id="node2" class="node">
<title>Node2</title>
<g id="a_node2"><a xlink:href="classReptil.html" target="_top" xlink:title="Classificação base para Repteis.">
<polygon fill="white" stroke="black" points="148.5,-172.5 148.5,-372.5 275.5,-372.5 275.5,-172.5 148.5,-172.5"/>
<text text-anchor="middle" x="212" y="-352.5" font-family="Helvetica,sans-Serif" font-size="20.00">Reptil</text>
<polyline fill="none" stroke="black" points="148.5,-342.5 275.5,-342.5 "/>
<text text-anchor="middle" x="212" y="-322.5" font-family="Helvetica,sans-Serif" font-size="20.00"> </text>
<polyline fill="none" stroke="black" points="148.5,-312.5 275.5,-312.5 "/>
<text text-anchor="start" x="156.5" y="-292.5" font-family="Helvetica,sans-Serif" font-size="20.00">+ Reptil()</text>
<text text-anchor="start" x="156.5" y="-270.5" font-family="Helvetica,sans-Serif" font-size="20.00">+ Reptil()</text>
<text text-anchor="start" x="156.5" y="-248.5" font-family="Helvetica,sans-Serif" font-size="20.00">+ ~Reptil()</text>
<text text-anchor="start" x="156.5" y="-226.5" font-family="Helvetica,sans-Serif" font-size="20.00">+ getPele()</text>
<text text-anchor="start" x="156.5" y="-204.5" font-family="Helvetica,sans-Serif" font-size="20.00">+ setPele()</text>
<text text-anchor="start" x="156.5" y="-182.5" font-family="Helvetica,sans-Serif" font-size="20.00">+ setPele()</text>
</a>
</g>
</g>
<!-- Node2&#45;&gt;Node1 -->
<g id="edge1" class="edge">
<title>Node2&#45;&gt;Node1</title>
<path fill="none" stroke="midnightblue" d="M172.91,-162.8C169.47,-153.23 166.06,-143.75 162.8,-134.69"/>
<polygon fill="none" stroke="midnightblue" points="169.68,-164.15 176.36,-172.38 176.26,-161.78 169.68,-164.15"/>
</g>
<!-- Node3 -->
<g id="node3" class="node">
<title>Node3</title>
<g id="a_node3"><a xlink:href="classAnimal.html" target="_top" xlink:title="Implementação base para o cadastro de animais.">
<polygon fill="white" stroke="black" points="259.5,-610.5 259.5,-986.5 482.5,-986.5 482.5,-610.5 259.5,-610.5"/>
<text text-anchor="middle" x="371" y="-966.5" font-family="Helvetica,sans-Serif" font-size="20.00">Animal</text>
<polyline fill="none" stroke="black" points="259.5,-956.5 482.5,-956.5 "/>
<text text-anchor="middle" x="371" y="-936.5" font-family="Helvetica,sans-Serif" font-size="20.00"> </text>
<polyline fill="none" stroke="black" points="259.5,-926.5 482.5,-926.5 "/>
<text text-anchor="start" x="267.5" y="-906.5" font-family="Helvetica,sans-Serif" font-size="20.00">+ Animal()</text>
<text text-anchor="start" x="267.5" y="-884.5" font-family="Helvetica,sans-Serif" font-size="20.00">+ Animal()</text>
<text text-anchor="start" x="267.5" y="-862.5" font-family="Helvetica,sans-Serif" font-size="20.00">+ ~Animal()</text>
<text text-anchor="start" x="267.5" y="-840.5" font-family="Helvetica,sans-Serif" font-size="20.00">+ getNome()</text>
<text text-anchor="start" x="267.5" y="-818.5" font-family="Helvetica,sans-Serif" font-size="20.00">+ getEspecie()</text>
<text text-anchor="start" x="267.5" y="-796.5" font-family="Helvetica,sans-Serif" font-size="20.00">+ getAmeacadoPor()</text>
<text text-anchor="start" x="267.5" y="-774.5" font-family="Helvetica,sans-Serif" font-size="20.00">+ getVeterinario()</text>
<text text-anchor="start" x="267.5" y="-752.5" font-family="Helvetica,sans-Serif" font-size="20.00">+ getTratador()</text>
<text text-anchor="start" x="267.5" y="-730.5" font-family="Helvetica,sans-Serif" font-size="20.00">+ getPerigoso()</text>
<text text-anchor="start" x="267.5" y="-708.5" font-family="Helvetica,sans-Serif" font-size="20.00">+ setNome()</text>
<text text-anchor="start" x="267.5" y="-686.5" font-family="Helvetica,sans-Serif" font-size="20.00">e 13 mais...</text>
<text text-anchor="start" x="267.5" y="-664.5" font-family="Helvetica,sans-Serif" font-size="20.00">+ getClassificacao()</text>
<text text-anchor="start" x="267.5" y="-642.5" font-family="Helvetica,sans-Serif" font-size="20.00">+ getClasse()</text>
<text text-anchor="start" x="267.5" y="-620.5" font-family="Helvetica,sans-Serif" font-size="20.00">+ printOutDetails()</text>
</a>
</g>
</g>
<!-- Node3&#45;&gt;Node2 -->
<g id="edge2" class="edge">
<title>Node3&#45;&gt;Node2</title>
<path fill="none" stroke="midnightblue" d="M340.3,-600.54C326.38,-532.76 307.05,-457.28 281,-391 278.62,-384.95 275.96,-378.84 273.1,-372.75"/>
<polygon fill="none" stroke="midnightblue" points="336.9,-601.37 342.32,-610.48 343.76,-599.98 336.9,-601.37"/>
</g>
<!-- Node4 -->
<g id="node4" class="node">
<title>Node4</title>
<g id="a_node4"><a xlink:title=" ">
<polygon fill="white" stroke="#bfbfbf" points="690.5,-1089.5 690.5,-1179.5 965.5,-1179.5 965.5,-1089.5 690.5,-1089.5"/>
<text text-anchor="middle" x="828" y="-1159.5" font-family="Helvetica,sans-Serif" font-size="20.00">shared_ptr&lt; Veterinario &gt;</text>
<polyline fill="none" stroke="#bfbfbf" points="690.5,-1149.5 965.5,-1149.5 "/>
<text text-anchor="middle" x="828" y="-1129.5" font-family="Helvetica,sans-Serif" font-size="20.00"> </text>
<polyline fill="none" stroke="#bfbfbf" points="690.5,-1119.5 965.5,-1119.5 "/>
<text text-anchor="middle" x="828" y="-1099.5" font-family="Helvetica,sans-Serif" font-size="20.00"> </text>
</a>
</g>
</g>
<!-- Node4&#45;&gt;Node3 -->
<g id="edge3" class="edge">
<title>Node4&#45;&gt;Node3</title>
<path fill="none" stroke="#404040" d="M767.79,-1089.49C698.05,-1038.53 581.39,-953.27 492.57,-888.35"/>
<polygon fill="none" stroke="#404040" points="492.39,-888.22 485.19,-887.91 482.7,-881.14 489.91,-881.45 492.39,-888.22"/>
<text text-anchor="middle" x="805" y="-1033" font-family="Helvetica,sans-Serif" font-size="20.00"> #veterinario</text>
</g>
<!-- Node5 -->
<g id="node5" class="node">
<title>Node5</title>
<g id="a_node5"><a xlink:title=" ">
<polygon fill="white" stroke="#bfbfbf" points="136.5,-1089.5 136.5,-1179.5 195.5,-1179.5 195.5,-1089.5 136.5,-1089.5"/>
<text text-anchor="middle" x="166" y="-1159.5" font-family="Helvetica,sans-Serif" font-size="20.00">bool</text>
<polyline fill="none" stroke="#bfbfbf" points="136.5,-1149.5 195.5,-1149.5 "/>
<text text-anchor="middle" x="166" y="-1129.5" font-family="Helvetica,sans-Serif" font-size="20.00"> </text>
<polyline fill="none" stroke="#bfbfbf" points="136.5,-1119.5 195.5,-1119.5 "/>
<text text-anchor="middle" x="166" y="-1099.5" font-family="Helvetica,sans-Serif" font-size="20.00"> </text>
</a>
</g>
</g>
<!-- Node5&#45;&gt;Node3 -->
<g id="edge4" class="edge">
<title>Node5&#45;&gt;Node3</title>
<path fill="none" stroke="#404040" d="M195.67,-1099.26C202.95,-1090.3 210.51,-1080.48 217,-1071 218.64,-1068.61 236.36,-1037.53 259.24,-997.19"/>
<polygon fill="none" stroke="#404040" points="259.24,-997.18 258.72,-989.99 265.16,-986.75 265.68,-993.94 259.24,-997.18"/>
<text text-anchor="middle" x="306.5" y="-1033" font-family="Helvetica,sans-Serif" font-size="20.00"> #perigoso</text>
</g>
<!-- Node9 -->
<g id="node9" class="node">
<title>Node9</title>
<g id="a_node9"><a xlink:href="classDomestico.html" target="_top" xlink:title="Umas das definições de categoria para Animal.">
<polygon fill="white" stroke="black" points="0,-391.5 0,-591.5 188,-591.5 188,-391.5 0,-391.5"/>
<text text-anchor="middle" x="94" y="-571.5" font-family="Helvetica,sans-Serif" font-size="20.00">Domestico</text>
<polyline fill="none" stroke="black" points="0,-561.5 188,-561.5 "/>
<text text-anchor="middle" x="94" y="-541.5" font-family="Helvetica,sans-Serif" font-size="20.00"> </text>
<polyline fill="none" stroke="black" points="0,-531.5 188,-531.5 "/>
<text text-anchor="start" x="8" y="-511.5" font-family="Helvetica,sans-Serif" font-size="20.00">+ Domestico()</text>
<text text-anchor="start" x="8" y="-489.5" font-family="Helvetica,sans-Serif" font-size="20.00">+ Domestico()</text>
<text text-anchor="start" x="8" y="-467.5" font-family="Helvetica,sans-Serif" font-size="20.00">+ ~Domestico()</text>
<text text-anchor="start" x="8" y="-445.5" font-family="Helvetica,sans-Serif" font-size="20.00">+ getAdestrado()</text>
<text text-anchor="start" x="8" y="-423.5" font-family="Helvetica,sans-Serif" font-size="20.00">+ setAdestrado()</text>
<text text-anchor="start" x="8" y="-401.5" font-family="Helvetica,sans-Serif" font-size="20.00">+ setAdestrado()</text>
</a>
</g>
</g>
<!-- Node5&#45;&gt;Node9 -->
<g id="edge9" class="edge">
<title>Node5&#45;&gt;Node9</title>
<path fill="none" stroke="#404040" d="M136.17,-1117.82C119.24,-1107.13 99.56,-1091.24 90,-1071 19.32,-921.37 41.28,-724.71 65.91,-603.55"/>
<polygon fill="none" stroke="#404040" points="65.93,-603.44 63.23,-596.76 68.37,-591.7 71.07,-598.39 65.93,-603.44"/>
<text text-anchor="middle" x="151.5" y="-1033" font-family="Helvetica,sans-Serif" font-size="20.00"> #adestrado</text>
</g>
<!-- Node6 -->
<g id="node6" class="node">
<title>Node6</title>
<g id="a_node6"><a xlink:title=" ">
<polygon fill="white" stroke="#bfbfbf" points="331,-1089.5 331,-1179.5 405,-1179.5 405,-1089.5 331,-1089.5"/>
<text text-anchor="middle" x="368" y="-1159.5" font-family="Helvetica,sans-Serif" font-size="20.00">string</text>
<polyline fill="none" stroke="#bfbfbf" points="331,-1149.5 405,-1149.5 "/>
<text text-anchor="middle" x="368" y="-1129.5" font-family="Helvetica,sans-Serif" font-size="20.00"> </text>
<polyline fill="none" stroke="#bfbfbf" points="331,-1119.5 405,-1119.5 "/>
<text text-anchor="middle" x="368" y="-1099.5" font-family="Helvetica,sans-Serif" font-size="20.00"> </text>
</a>
</g>
</g>
<!-- Node6&#45;&gt;Node3 -->
<g id="edge5" class="edge">
<title>Node6&#45;&gt;Node3</title>
<path fill="none" stroke="#404040" d="M368.4,-1089.49C368.61,-1065.09 368.9,-1032.83 369.21,-998.7"/>
<polygon fill="none" stroke="#404040" points="369.21,-998.56 365.27,-992.52 369.32,-986.56 373.27,-992.59 369.21,-998.56"/>
<text text-anchor="middle" x="445" y="-1055" font-family="Helvetica,sans-Serif" font-size="20.00"> #especie</text>
<text text-anchor="middle" x="445" y="-1033" font-family="Helvetica,sans-Serif" font-size="20.00">#ameacadoPor</text>
<text text-anchor="middle" x="445" y="-1011" font-family="Helvetica,sans-Serif" font-size="20.00">#nome</text>
</g>
<!-- Node7 -->
<g id="node7" class="node">
<title>Node7</title>
<g id="a_node7"><a xlink:title=" ">
<polygon fill="white" stroke="#bfbfbf" points="423.5,-1089.5 423.5,-1179.5 672.5,-1179.5 672.5,-1089.5 423.5,-1089.5"/>
<text text-anchor="middle" x="548" y="-1159.5" font-family="Helvetica,sans-Serif" font-size="20.00">shared_ptr&lt; Tratador &gt;</text>
<polyline fill="none" stroke="#bfbfbf" points="423.5,-1149.5 672.5,-1149.5 "/>
<text text-anchor="middle" x="548" y="-1129.5" font-family="Helvetica,sans-Serif" font-size="20.00"> </text>
<polyline fill="none" stroke="#bfbfbf" points="423.5,-1119.5 672.5,-1119.5 "/>
<text text-anchor="middle" x="548" y="-1099.5" font-family="Helvetica,sans-Serif" font-size="20.00"> </text>
</a>
</g>
</g>
<!-- Node7&#45;&gt;Node3 -->
<g id="edge6" class="edge">
<title>Node7&#45;&gt;Node3</title>
<path fill="none" stroke="#404040" d="M545.17,-1089.2C542.32,-1063.73 536.57,-1031.6 525,-1005 515.38,-982.86 502.93,-960.9 489.3,-940.02"/>
<polygon fill="none" stroke="#404040" points="489.18,-939.85 482.52,-937.08 482.52,-929.87 489.17,-932.64 489.18,-939.85"/>
<text text-anchor="middle" x="593.5" y="-1033" font-family="Helvetica,sans-Serif" font-size="20.00"> #tratador</text>
</g>
<!-- Node8 -->
<g id="node8" class="node">
<title>Node8</title>
<g id="a_node8"><a xlink:title=" ">
<polygon fill="white" stroke="#bfbfbf" points="183.5,-753.5 183.5,-843.5 240.5,-843.5 240.5,-753.5 183.5,-753.5"/>
<text text-anchor="middle" x="212" y="-823.5" font-family="Helvetica,sans-Serif" font-size="20.00">Pele</text>
<polyline fill="none" stroke="#bfbfbf" points="183.5,-813.5 240.5,-813.5 "/>
<text text-anchor="middle" x="212" y="-793.5" font-family="Helvetica,sans-Serif" font-size="20.00"> </text>
<polyline fill="none" stroke="#bfbfbf" points="183.5,-783.5 240.5,-783.5 "/>
<text text-anchor="middle" x="212" y="-763.5" font-family="Helvetica,sans-Serif" font-size="20.00"> </text>
</a>
</g>
</g>
<!-- Node8&#45;&gt;Node2 -->
<g id="edge7" class="edge">
<title>Node8&#45;&gt;Node2</title>
<path fill="none" stroke="#404040" d="M212,-753.28C212,-672.69 212,-499.69 212,-384.97"/>
<polygon fill="none" stroke="#404040" points="212,-384.67 208,-378.67 212,-372.67 216,-378.67 212,-384.67"/>
<text text-anchor="middle" x="244.5" y="-486.5" font-family="Helvetica,sans-Serif" font-size="20.00"> #pele</text>
</g>
<!-- Node9&#45;&gt;Node1 -->
<g id="edge8" class="edge">
<title>Node9&#45;&gt;Node1</title>
<path fill="none" stroke="midnightblue" d="M105.68,-380.93C114.01,-302.84 124.93,-200.43 131.96,-134.54"/>
<polygon fill="none" stroke="midnightblue" points="102.16,-380.98 104.58,-391.29 109.12,-381.72 102.16,-380.98"/>
</g>
</g>
</svg>
