<?xml version="1.0" encoding="UTF-8" standalone="no"?>
<!DOCTYPE svg PUBLIC "-//W3C//DTD SVG 1.1//EN"
 "http://www.w3.org/Graphics/SVG/1.1/DTD/svg11.dtd">
<!-- Generated by graphviz version 2.43.0 (0)
 -->
<!-- Title: Mamifero Pages: 1 -->
<svg width="790pt" height="816pt"
 viewBox="0.00 0.00 790.00 816.00" xmlns="http://www.w3.org/2000/svg" xmlns:xlink="http://www.w3.org/1999/xlink">
<g id="graph0" class="graph" transform="scale(1 1) rotate(0) translate(4 812)">
<title>Mamifero</title>
<polygon fill="white" stroke="transparent" points="-4,4 -4,-812 786,-812 786,4 -4,4"/>
<!-- Node1 -->
<g id="node1" class="node">
<title>Node1</title>
<g id="a_node1"><a xlink:title="Classificação base para Mamiferos.">
<polygon fill="#bfbfbf" stroke="black" points="0,-0.5 0,-200.5 179,-200.5 179,-0.5 0,-0.5"/>
<text text-anchor="middle" x="89.5" y="-180.5" font-family="Helvetica,sans-Serif" font-size="20.00">Mamifero</text>
<polyline fill="none" stroke="black" points="0,-170.5 179,-170.5 "/>
<text text-anchor="middle" x="89.5" y="-150.5" font-family="Helvetica,sans-Serif" font-size="20.00"> </text>
<polyline fill="none" stroke="black" points="0,-140.5 179,-140.5 "/>
<text text-anchor="start" x="8" y="-120.5" font-family="Helvetica,sans-Serif" font-size="20.00">+ Mamifero()</text>
<text text-anchor="start" x="8" y="-98.5" font-family="Helvetica,sans-Serif" font-size="20.00">+ Mamifero()</text>
<text text-anchor="start" x="8" y="-76.5" font-family="Helvetica,sans-Serif" font-size="20.00">+ ~Mamifero()</text>
<text text-anchor="start" x="8" y="-54.5" font-family="Helvetica,sans-Serif" font-size="20.00">+ getGestacao()</text>
<text text-anchor="start" x="8" y="-32.5" font-family="Helvetica,sans-Serif" font-size="20.00">+ setGestacao()</text>
<text text-anchor="start" x="8" y="-10.5" font-family="Helvetica,sans-Serif" font-size="20.00">+ setGestacao()</text>
</a>
</g>
</g>
<!-- Node2 -->
<g id="node2" class="node">
<title>Node2</title>
<g id="a_node2"><a xlink:href="classAnimal.html" target="_top" xlink:title="Implementação base para o cadastro de animais.">
<polygon fill="white" stroke="black" points="154,-238.5 154,-614.5 377,-614.5 377,-238.5 154,-238.5"/>
<text text-anchor="middle" x="265.5" y="-594.5" font-family="Helvetica,sans-Serif" font-size="20.00">Animal</text>
<polyline fill="none" stroke="black" points="154,-584.5 377,-584.5 "/>
<text text-anchor="middle" x="265.5" y="-564.5" font-family="Helvetica,sans-Serif" font-size="20.00"> </text>
<polyline fill="none" stroke="black" points="154,-554.5 377,-554.5 "/>
<text text-anchor="start" x="162" y="-534.5" font-family="Helvetica,sans-Serif" font-size="20.00">+ Animal()</text>
<text text-anchor="start" x="162" y="-512.5" font-family="Helvetica,sans-Serif" font-size="20.00">+ Animal()</text>
<text text-anchor="start" x="162" y="-490.5" font-family="Helvetica,sans-Serif" font-size="20.00">+ ~Animal()</text>
<text text-anchor="start" x="162" y="-468.5" font-family="Helvetica,sans-Serif" font-size="20.00">+ getNome()</text>
<text text-anchor="start" x="162" y="-446.5" font-family="Helvetica,sans-Serif" font-size="20.00">+ getEspecie()</text>
<text text-anchor="start" x="162" y="-424.5" font-family="Helvetica,sans-Serif" font-size="20.00">+ getAmeacadoPor()</text>
<text text-anchor="start" x="162" y="-402.5" font-family="Helvetica,sans-Serif" font-size="20.00">+ getVeterinario()</text>
<text text-anchor="start" x="162" y="-380.5" font-family="Helvetica,sans-Serif" font-size="20.00">+ getTratador()</text>
<text text-anchor="start" x="162" y="-358.5" font-family="Helvetica,sans-Serif" font-size="20.00">+ getPerigoso()</text>
<text text-anchor="start" x="162" y="-336.5" font-family="Helvetica,sans-Serif" font-size="20.00">+ setNome()</text>
<text text-anchor="start" x="162" y="-314.5" font-family="Helvetica,sans-Serif" font-size="20.00">e 13 mais...</text>
<text text-anchor="start" x="162" y="-292.5" font-family="Helvetica,sans-Serif" font-size="20.00">+ getClassificacao()</text>
<text text-anchor="start" x="162" y="-270.5" font-family="Helvetica,sans-Serif" font-size="20.00">+ getClasse()</text>
<text text-anchor="start" x="162" y="-248.5" font-family="Helvetica,sans-Serif" font-size="20.00">+ printOutDetails()</text>
</a>
</g>
</g>
<!-- Node2&#45;&gt;Node1 -->
<g id="edge1" class="edge">
<title>Node2&#45;&gt;Node1</title>
<path fill="none" stroke="midnightblue" d="M158.98,-229.4C153.66,-219.61 148.43,-209.99 143.39,-200.7"/>
<polygon fill="none" stroke="midnightblue" points="156.04,-231.32 163.88,-238.44 162.19,-227.98 156.04,-231.32"/>
</g>
<!-- Node3 -->
<g id="node3" class="node">
<title>Node3</title>
<g id="a_node3"><a xlink:title=" ">
<polygon fill="white" stroke="#bfbfbf" points="507,-717.5 507,-807.5 782,-807.5 782,-717.5 507,-717.5"/>
<text text-anchor="middle" x="644.5" y="-787.5" font-family="Helvetica,sans-Serif" font-size="20.00">shared_ptr&lt; Veterinario &gt;</text>
<polyline fill="none" stroke="#bfbfbf" points="507,-777.5 782,-777.5 "/>
<text text-anchor="middle" x="644.5" y="-757.5" font-family="Helvetica,sans-Serif" font-size="20.00"> </text>
<polyline fill="none" stroke="#bfbfbf" points="507,-747.5 782,-747.5 "/>
<text text-anchor="middle" x="644.5" y="-727.5" font-family="Helvetica,sans-Serif" font-size="20.00"> </text>
</a>
</g>
</g>
<!-- Node3&#45;&gt;Node2 -->
<g id="edge2" class="edge">
<title>Node3&#45;&gt;Node2</title>
<path fill="none" stroke="#404040" d="M594.56,-717.49C541.85,-671.04 456.82,-596.1 386.4,-534.04"/>
<polygon fill="none" stroke="#404040" points="386.01,-533.7 378.86,-532.73 377,-525.77 384.15,-526.73 386.01,-533.7"/>
<text text-anchor="middle" x="636.5" y="-661" font-family="Helvetica,sans-Serif" font-size="20.00"> #veterinario</text>
</g>
<!-- Node4 -->
<g id="node4" class="node">
<title>Node4</title>
<g id="a_node4"><a xlink:title=" ">
<polygon fill="white" stroke="#bfbfbf" points="10,-717.5 10,-807.5 69,-807.5 69,-717.5 10,-717.5"/>
<text text-anchor="middle" x="39.5" y="-787.5" font-family="Helvetica,sans-Serif" font-size="20.00">bool</text>
<polyline fill="none" stroke="#bfbfbf" points="10,-777.5 69,-777.5 "/>
<text text-anchor="middle" x="39.5" y="-757.5" font-family="Helvetica,sans-Serif" font-size="20.00"> </text>
<polyline fill="none" stroke="#bfbfbf" points="10,-747.5 69,-747.5 "/>
<text text-anchor="middle" x="39.5" y="-727.5" font-family="Helvetica,sans-Serif" font-size="20.00"> </text>
</a>
</g>
</g>
<!-- Node4&#45;&gt;Node1 -->
<g id="edge6" class="edge">
<title>Node4&#45;&gt;Node1</title>
<path fill="none" stroke="#404040" d="M32.53,-717.48C19.53,-626.7 -4.05,-412.57 31.5,-238 33.23,-229.5 35.51,-220.87 38.16,-212.3"/>
<polygon fill="none" stroke="#404040" points="38.24,-212.06 36.32,-205.11 42,-200.66 43.92,-207.61 38.24,-212.06"/>
<text text-anchor="middle" x="88" y="-421.5" font-family="Helvetica,sans-Serif" font-size="20.00"> #gestacao</text>
</g>
<!-- Node4&#45;&gt;Node2 -->
<g id="edge3" class="edge">
<title>Node4&#45;&gt;Node2</title>
<path fill="none" stroke="#404040" d="M39.59,-717.33C42.01,-689.63 49.72,-655.11 71.5,-633 93.44,-610.73 114.04,-633.14 139.5,-615 141.2,-613.79 142.89,-612.54 144.56,-611.27"/>
<polygon fill="none" stroke="#404040" points="144.61,-611.23 146.76,-604.35 153.94,-603.68 151.79,-610.57 144.61,-611.23"/>
<text text-anchor="middle" x="126" y="-661" font-family="Helvetica,sans-Serif" font-size="20.00"> #perigoso</text>
</g>
<!-- Node5 -->
<g id="node5" class="node">
<title>Node5</title>
<g id="a_node5"><a xlink:title=" ">
<polygon fill="white" stroke="#bfbfbf" points="147.5,-717.5 147.5,-807.5 221.5,-807.5 221.5,-717.5 147.5,-717.5"/>
<text text-anchor="middle" x="184.5" y="-787.5" font-family="Helvetica,sans-Serif" font-size="20.00">string</text>
<polyline fill="none" stroke="#bfbfbf" points="147.5,-777.5 221.5,-777.5 "/>
<text text-anchor="middle" x="184.5" y="-757.5" font-family="Helvetica,sans-Serif" font-size="20.00"> </text>
<polyline fill="none" stroke="#bfbfbf" points="147.5,-747.5 221.5,-747.5 "/>
<text text-anchor="middle" x="184.5" y="-727.5" font-family="Helvetica,sans-Serif" font-size="20.00"> </text>
</a>
</g>
</g>
<!-- Node5&#45;&gt;Node2 -->
<g id="edge4" class="edge">
<title>Node5&#45;&gt;Node2</title>
<path fill="none" stroke="#404040" d="M183.28,-717.38C183.4,-692.4 184.93,-660.7 190.5,-633 190.94,-630.83 191.39,-628.64 191.87,-626.45"/>
<polygon fill="none" stroke="#404040" points="191.88,-626.4 189.33,-619.65 194.57,-614.7 197.12,-621.44 191.88,-626.4"/>
<text text-anchor="middle" x="266.5" y="-683" font-family="Helvetica,sans-Serif" font-size="20.00"> #especie</text>
<text text-anchor="middle" x="266.5" y="-661" font-family="Helvetica,sans-Serif" font-size="20.00">#ameacadoPor</text>
<text text-anchor="middle" x="266.5" y="-639" font-family="Helvetica,sans-Serif" font-size="20.00">#nome</text>
</g>
<!-- Node6 -->
<g id="node6" class="node">
<title>Node6</title>
<g id="a_node6"><a xlink:title=" ">
<polygon fill="white" stroke="#bfbfbf" points="240,-717.5 240,-807.5 489,-807.5 489,-717.5 240,-717.5"/>
<text text-anchor="middle" x="364.5" y="-787.5" font-family="Helvetica,sans-Serif" font-size="20.00">shared_ptr&lt; Tratador &gt;</text>
<polyline fill="none" stroke="#bfbfbf" points="240,-777.5 489,-777.5 "/>
<text text-anchor="middle" x="364.5" y="-757.5" font-family="Helvetica,sans-Serif" font-size="20.00"> </text>
<polyline fill="none" stroke="#bfbfbf" points="240,-747.5 489,-747.5 "/>
<text text-anchor="middle" x="364.5" y="-727.5" font-family="Helvetica,sans-Serif" font-size="20.00"> </text>
</a>
</g>
</g>
<!-- Node6&#45;&gt;Node2 -->
<g id="edge5" class="edge">
<title>Node6&#45;&gt;Node2</title>
<path fill="none" stroke="#404040" d="M359.04,-717.34C355.43,-692.34 349.97,-660.64 342.5,-633 341.88,-630.72 341.25,-628.44 340.61,-626.14"/>
<polygon fill="none" stroke="#404040" points="340.61,-626.14 335.1,-621.49 337.27,-614.61 342.78,-619.27 340.61,-626.14"/>
<text text-anchor="middle" x="407" y="-661" font-family="Helvetica,sans-Serif" font-size="20.00"> #tratador</text>
</g>
</g>
</svg>
