<?xml version="1.0" encoding="UTF-8" standalone="no"?>
<!DOCTYPE svg PUBLIC "-//W3C//DTD SVG 1.1//EN"
 "http://www.w3.org/Graphics/SVG/1.1/DTD/svg11.dtd">
<!-- Generated by graphviz version 2.43.0 (0)
 -->
<!-- Title: AveExotica Pages: 1 -->
<!--zoomable 1188 -->
<svg id="main" version="1.1" xmlns="http://www.w3.org/2000/svg" xmlns:xlink="http://www.w3.org/1999/xlink" xml:space="preserve" onload="init(evt)">
<style type="text/css"><![CDATA[
.edge:hover path { stroke: red; }
.edge:hover polygon { stroke: red; fill: red; }
]]></style>
<script type="text/javascript"><![CDATA[
var edges = document.getElementsByTagName('g');
if (edges && edges.length) {
  for (var i=0;i<edges.length;i++) {
    if (edges[i].id.substr(0,4)=='edge') {
      edges[i].setAttribute('class','edge');
    }
  }
}
]]></script>
        <defs>
                <circle id="rim" cx="0" cy="0" r="7"/>
                <circle id="rim2" cx="0" cy="0" r="3.5"/>
                <g id="zoomPlus">
                        <use xlink:href="#rim" fill="#404040">
                                <set attributeName="fill" to="#808080" begin="zoomplus.mouseover" end="zoomplus.mouseout"/>
                        </use>
                        <path d="M-4,0h8M0,-4v8" fill="none" stroke="white" stroke-width="1.5" pointer-events="none"/>
                </g>
                <g id="zoomMin">
                        <use xlink:href="#rim" fill="#404040">
                                <set attributeName="fill" to="#808080" begin="zoomminus.mouseover" end="zoomminus.mouseout"/>
                        </use>
                        <path d="M-4,0h8" fill="none" stroke="white" stroke-width="1.5" pointer-events="none"/>
                </g>
                <g id="dirArrow">
                        <path fill="none" stroke="white" stroke-width="1.5" d="M0,-3.0v7 M-2.5,-0.5L0,-3.0L2.5,-0.5"/>
                </g>
               <g id="resetDef">
                       <use xlink:href="#rim2" fill="#404040">
                               <set attributeName="fill" to="#808080" begin="reset.mouseover" end="reset.mouseout"/>
                       </use>
               </g>
        </defs>

<script type="text/javascript">
var viewWidth = 746;
var viewHeight = 1188;
var sectionId = 'dynsection-1';
</script>
<script xlink:href="svgpan.js"/>
<svg id="graph" class="graph">
<g id="viewport">
<title>AveExotica</title>
<polygon fill="white" stroke="transparent" points="-4,4 -4,-1184 741.5,-1184 741.5,4 -4,4"/>
<!-- Node1 -->
<g id="node1" class="node">
<title>Node1</title>
<g id="a_node1"><a xlink:title="Implementação de animal com Classe e Categoria.">
<polygon fill="#bfbfbf" stroke="black" points="282,-0.5 282,-134.5 461,-134.5 461,-0.5 282,-0.5"/>
<text text-anchor="middle" x="371.5" y="-114.5" font-family="Helvetica,sans-Serif" font-size="20.00">AveExotica</text>
<polyline fill="none" stroke="black" points="282,-104.5 461,-104.5 "/>
<text text-anchor="middle" x="371.5" y="-84.5" font-family="Helvetica,sans-Serif" font-size="20.00"> </text>
<polyline fill="none" stroke="black" points="282,-74.5 461,-74.5 "/>
<text text-anchor="start" x="290" y="-54.5" font-family="Helvetica,sans-Serif" font-size="20.00">+ AveExotica()</text>
<text text-anchor="start" x="290" y="-32.5" font-family="Helvetica,sans-Serif" font-size="20.00">+ AveExotica()</text>
<text text-anchor="start" x="290" y="-10.5" font-family="Helvetica,sans-Serif" font-size="20.00">+ ~AveExotica()</text>
</a>
</g>
</g>
<!-- Node2 -->
<g id="node2" class="node">
<title>Node2</title>
<g id="a_node2"><a xlink:href="classAve.html" target="_top" xlink:title="Classificação base para Aves.">
<polygon fill="white" stroke="black" points="237.5,-172.5 237.5,-372.5 359.5,-372.5 359.5,-172.5 237.5,-172.5"/>
<text text-anchor="middle" x="298.5" y="-352.5" font-family="Helvetica,sans-Serif" font-size="20.00">Ave</text>
<polyline fill="none" stroke="black" points="237.5,-342.5 359.5,-342.5 "/>
<text text-anchor="middle" x="298.5" y="-322.5" font-family="Helvetica,sans-Serif" font-size="20.00"> </text>
<polyline fill="none" stroke="black" points="237.5,-312.5 359.5,-312.5 "/>
<text text-anchor="start" x="245.5" y="-292.5" font-family="Helvetica,sans-Serif" font-size="20.00">+ Ave()</text>
<text text-anchor="start" x="245.5" y="-270.5" font-family="Helvetica,sans-Serif" font-size="20.00">+ Ave()</text>
<text text-anchor="start" x="245.5" y="-248.5" font-family="Helvetica,sans-Serif" font-size="20.00">+ ~Ave()</text>
<text text-anchor="start" x="245.5" y="-226.5" font-family="Helvetica,sans-Serif" font-size="20.00">+ getVoa()</text>
<text text-anchor="start" x="245.5" y="-204.5" font-family="Helvetica,sans-Serif" font-size="20.00">+ setVoa()</text>
<text text-anchor="start" x="245.5" y="-182.5" font-family="Helvetica,sans-Serif" font-size="20.00">+ setVoa()</text>
</a>
</g>
</g>
<!-- Node2&#45;&gt;Node1 -->
<g id="edge1" class="edge">
<title>Node2&#45;&gt;Node1</title>
<path fill="none" stroke="midnightblue" d="M337.59,-162.8C341.03,-153.23 344.44,-143.75 347.7,-134.69"/>
<polygon fill="none" stroke="midnightblue" points="334.24,-161.78 334.14,-172.38 340.82,-164.15 334.24,-161.78"/>
</g>
<!-- Node3 -->
<g id="node3" class="node">
<title>Node3</title>
<g id="a_node3"><a xlink:href="classAnimal.html" target="_top" xlink:title="Implementação base para o cadastro de animais.">
<polygon fill="white" stroke="black" points="187,-610.5 187,-986.5 410,-986.5 410,-610.5 187,-610.5"/>
<text text-anchor="middle" x="298.5" y="-966.5" font-family="Helvetica,sans-Serif" font-size="20.00">Animal</text>
<polyline fill="none" stroke="black" points="187,-956.5 410,-956.5 "/>
<text text-anchor="middle" x="298.5" y="-936.5" font-family="Helvetica,sans-Serif" font-size="20.00"> </text>
<polyline fill="none" stroke="black" points="187,-926.5 410,-926.5 "/>
<text text-anchor="start" x="195" y="-906.5" font-family="Helvetica,sans-Serif" font-size="20.00">+ Animal()</text>
<text text-anchor="start" x="195" y="-884.5" font-family="Helvetica,sans-Serif" font-size="20.00">+ Animal()</text>
<text text-anchor="start" x="195" y="-862.5" font-family="Helvetica,sans-Serif" font-size="20.00">+ ~Animal()</text>
<text text-anchor="start" x="195" y="-840.5" font-family="Helvetica,sans-Serif" font-size="20.00">+ getNome()</text>
<text text-anchor="start" x="195" y="-818.5" font-family="Helvetica,sans-Serif" font-size="20.00">+ getEspecie()</text>
<text text-anchor="start" x="195" y="-796.5" font-family="Helvetica,sans-Serif" font-size="20.00">+ getAmeacadoPor()</text>
<text text-anchor="start" x="195" y="-774.5" font-family="Helvetica,sans-Serif" font-size="20.00">+ getVeterinario()</text>
<text text-anchor="start" x="195" y="-752.5" font-family="Helvetica,sans-Serif" font-size="20.00">+ getTratador()</text>
<text text-anchor="start" x="195" y="-730.5" font-family="Helvetica,sans-Serif" font-size="20.00">+ getPerigoso()</text>
<text text-anchor="start" x="195" y="-708.5" font-family="Helvetica,sans-Serif" font-size="20.00">+ setNome()</text>
<text text-anchor="start" x="195" y="-686.5" font-family="Helvetica,sans-Serif" font-size="20.00">e 13 mais...</text>
<text text-anchor="start" x="195" y="-664.5" font-family="Helvetica,sans-Serif" font-size="20.00">+ getClassificacao()</text>
<text text-anchor="start" x="195" y="-642.5" font-family="Helvetica,sans-Serif" font-size="20.00">+ getClasse()</text>
<text text-anchor="start" x="195" y="-620.5" font-family="Helvetica,sans-Serif" font-size="20.00">+ printOutDetails()</text>
</a>
</g>
</g>
<!-- Node3&#45;&gt;Node2 -->
<g id="edge2" class="edge">
<title>Node3&#45;&gt;Node2</title>
<path fill="none" stroke="midnightblue" d="M298.5,-599.78C298.5,-522.24 298.5,-436.7 298.5,-372.66"/>
<polygon fill="none" stroke="midnightblue" points="295,-600.17 298.5,-610.17 302,-600.17 295,-600.17"/>
</g>
<!-- Node4 -->
<g id="node4" class="node">
<title>Node4</title>
<g id="a_node4"><a xlink:title=" ">
<polygon fill="white" stroke="#bfbfbf" points="77,-1089.5 77,-1179.5 352,-1179.5 352,-1089.5 77,-1089.5"/>
<text text-anchor="middle" x="214.5" y="-1159.5" font-family="Helvetica,sans-Serif" font-size="20.00">shared_ptr&lt; Veterinario &gt;</text>
<polyline fill="none" stroke="#bfbfbf" points="77,-1149.5 352,-1149.5 "/>
<text text-anchor="middle" x="214.5" y="-1129.5" font-family="Helvetica,sans-Serif" font-size="20.00"> </text>
<polyline fill="none" stroke="#bfbfbf" points="77,-1119.5 352,-1119.5 "/>
<text text-anchor="middle" x="214.5" y="-1099.5" font-family="Helvetica,sans-Serif" font-size="20.00"> </text>
</a>
</g>
</g>
<!-- Node4&#45;&gt;Node3 -->
<g id="edge3" class="edge">
<title>Node4&#45;&gt;Node3</title>
<path fill="none" stroke="#404040" d="M213.61,-1089.36C213.93,-1064.36 215.71,-1032.66 221.5,-1005 221.96,-1002.82 222.43,-1000.64 222.92,-998.45"/>
<polygon fill="none" stroke="#404040" points="222.95,-998.35 220.45,-991.59 225.73,-986.68 228.23,-993.44 222.95,-998.35"/>
<text text-anchor="middle" x="286.5" y="-1033" font-family="Helvetica,sans-Serif" font-size="20.00"> #veterinario</text>
</g>
<!-- Node5 -->
<g id="node5" class="node">
<title>Node5</title>
<g id="a_node5"><a xlink:title=" ">
<polygon fill="white" stroke="#bfbfbf" points="0,-1089.5 0,-1179.5 59,-1179.5 59,-1089.5 0,-1089.5"/>
<text text-anchor="middle" x="29.5" y="-1159.5" font-family="Helvetica,sans-Serif" font-size="20.00">bool</text>
<polyline fill="none" stroke="#bfbfbf" points="0,-1149.5 59,-1149.5 "/>
<text text-anchor="middle" x="29.5" y="-1129.5" font-family="Helvetica,sans-Serif" font-size="20.00"> </text>
<polyline fill="none" stroke="#bfbfbf" points="0,-1119.5 59,-1119.5 "/>
<text text-anchor="middle" x="29.5" y="-1099.5" font-family="Helvetica,sans-Serif" font-size="20.00"> </text>
</a>
</g>
</g>
<!-- Node5&#45;&gt;Node2 -->
<g id="edge7" class="edge">
<title>Node5&#45;&gt;Node2</title>
<path fill="none" stroke="#404040" d="M32.35,-1089.24C39.27,-997.58 60.93,-781.24 119.5,-610 147.29,-528.75 192.91,-443.4 231.13,-378.99"/>
<polygon fill="none" stroke="#404040" points="231.29,-378.73 230.93,-371.53 237.44,-368.43 237.8,-375.63 231.29,-378.73"/>
<text text-anchor="middle" x="149" y="-793.5" font-family="Helvetica,sans-Serif" font-size="20.00"> #voa</text>
</g>
<!-- Node5&#45;&gt;Node3 -->
<g id="edge4" class="edge">
<title>Node5&#45;&gt;Node3</title>
<path fill="none" stroke="#404040" d="M50.73,-1089.28C63.88,-1063.68 81.94,-1031.41 101.5,-1005 124.49,-973.96 151.81,-942.71 178.67,-914.28"/>
<polygon fill="none" stroke="#404040" points="178.71,-914.24 179.95,-907.14 186.98,-905.56 185.74,-912.66 178.71,-914.24"/>
<text text-anchor="middle" x="156" y="-1033" font-family="Helvetica,sans-Serif" font-size="20.00"> #perigoso</text>
</g>
<!-- Node6 -->
<g id="node6" class="node">
<title>Node6</title>
<g id="a_node6"><a xlink:title=" ">
<polygon fill="white" stroke="#bfbfbf" points="637.5,-1089.5 637.5,-1179.5 711.5,-1179.5 711.5,-1089.5 637.5,-1089.5"/>
<text text-anchor="middle" x="674.5" y="-1159.5" font-family="Helvetica,sans-Serif" font-size="20.00">string</text>
<polyline fill="none" stroke="#bfbfbf" points="637.5,-1149.5 711.5,-1149.5 "/>
<text text-anchor="middle" x="674.5" y="-1129.5" font-family="Helvetica,sans-Serif" font-size="20.00"> </text>
<polyline fill="none" stroke="#bfbfbf" points="637.5,-1119.5 711.5,-1119.5 "/>
<text text-anchor="middle" x="674.5" y="-1099.5" font-family="Helvetica,sans-Serif" font-size="20.00"> </text>
</a>
</g>
</g>
<!-- Node6&#45;&gt;Node3 -->
<g id="edge5" class="edge">
<title>Node6&#45;&gt;Node3</title>
<path fill="none" stroke="#404040" d="M637.25,-1094.11C634.42,-1092.19 631.5,-1090.46 628.5,-1089 576.88,-1063.79 544.9,-1107.46 500.5,-1071 476.49,-1051.28 493.1,-1031.87 477.5,-1005 460.84,-976.3 439.87,-947.9 418.21,-921.79"/>
<polygon fill="none" stroke="#404040" points="417.93,-921.46 411.01,-919.45 410.2,-912.28 417.13,-914.3 417.93,-921.46"/>
<text text-anchor="middle" x="576.5" y="-1055" font-family="Helvetica,sans-Serif" font-size="20.00"> #especie</text>
<text text-anchor="middle" x="576.5" y="-1033" font-family="Helvetica,sans-Serif" font-size="20.00">#ameacadoPor</text>
<text text-anchor="middle" x="576.5" y="-1011" font-family="Helvetica,sans-Serif" font-size="20.00">#nome</text>
</g>
<!-- Node8 -->
<g id="node8" class="node">
<title>Node8</title>
<g id="a_node8"><a xlink:href="classExotico.html" target="_top" xlink:title="Umas das definições de categoria para Animal.">
<polygon fill="white" stroke="black" points="546,-391.5 546,-591.5 689,-591.5 689,-391.5 546,-391.5"/>
<text text-anchor="middle" x="617.5" y="-571.5" font-family="Helvetica,sans-Serif" font-size="20.00">Exotico</text>
<polyline fill="none" stroke="black" points="546,-561.5 689,-561.5 "/>
<text text-anchor="middle" x="617.5" y="-541.5" font-family="Helvetica,sans-Serif" font-size="20.00"> </text>
<polyline fill="none" stroke="black" points="546,-531.5 689,-531.5 "/>
<text text-anchor="start" x="554" y="-511.5" font-family="Helvetica,sans-Serif" font-size="20.00">+ Exotico()</text>
<text text-anchor="start" x="554" y="-489.5" font-family="Helvetica,sans-Serif" font-size="20.00">+ Exotico()</text>
<text text-anchor="start" x="554" y="-467.5" font-family="Helvetica,sans-Serif" font-size="20.00">+ ~Exotico()</text>
<text text-anchor="start" x="554" y="-445.5" font-family="Helvetica,sans-Serif" font-size="20.00">+ getLocal()</text>
<text text-anchor="start" x="554" y="-423.5" font-family="Helvetica,sans-Serif" font-size="20.00">+ setLocal()</text>
<text text-anchor="start" x="554" y="-401.5" font-family="Helvetica,sans-Serif" font-size="20.00">+ setLocal()</text>
</a>
</g>
</g>
<!-- Node6&#45;&gt;Node8 -->
<g id="edge9" class="edge">
<title>Node6&#45;&gt;Node8</title>
<path fill="none" stroke="#404040" d="M670.58,-1089.44C661.77,-990.36 640.17,-747.44 627.4,-603.88"/>
<polygon fill="none" stroke="#404040" points="627.37,-603.54 622.86,-597.91 626.31,-591.58 630.83,-597.2 627.37,-603.54"/>
<text text-anchor="middle" x="703" y="-1033" font-family="Helvetica,sans-Serif" font-size="20.00"> #local</text>
</g>
<!-- Node7 -->
<g id="node7" class="node">
<title>Node7</title>
<g id="a_node7"><a xlink:title=" ">
<polygon fill="white" stroke="#bfbfbf" points="370,-1089.5 370,-1179.5 619,-1179.5 619,-1089.5 370,-1089.5"/>
<text text-anchor="middle" x="494.5" y="-1159.5" font-family="Helvetica,sans-Serif" font-size="20.00">shared_ptr&lt; Tratador &gt;</text>
<polyline fill="none" stroke="#bfbfbf" points="370,-1149.5 619,-1149.5 "/>
<text text-anchor="middle" x="494.5" y="-1129.5" font-family="Helvetica,sans-Serif" font-size="20.00"> </text>
<polyline fill="none" stroke="#bfbfbf" points="370,-1119.5 619,-1119.5 "/>
<text text-anchor="middle" x="494.5" y="-1099.5" font-family="Helvetica,sans-Serif" font-size="20.00"> </text>
</a>
</g>
</g>
<!-- Node7&#45;&gt;Node3 -->
<g id="edge6" class="edge">
<title>Node7&#45;&gt;Node3</title>
<path fill="none" stroke="#404040" d="M393.32,-1089.36C386.38,-1083.85 379.98,-1077.75 374.5,-1071 371.3,-1067.05 362.17,-1037.09 351.31,-998.41"/>
<polygon fill="none" stroke="#404040" points="351.27,-998.28 345.8,-993.57 348.04,-986.72 353.51,-991.42 351.27,-998.28"/>
<text text-anchor="middle" x="426" y="-1033" font-family="Helvetica,sans-Serif" font-size="20.00"> #tratador</text>
</g>
<!-- Node8&#45;&gt;Node1 -->
<g id="edge8" class="edge">
<title>Node8&#45;&gt;Node1</title>
<path fill="none" stroke="midnightblue" d="M554.46,-382.36C508.84,-304.09 448.64,-200.83 409.99,-134.54"/>
<polygon fill="none" stroke="midnightblue" points="551.61,-384.42 559.67,-391.29 557.66,-380.89 551.61,-384.42"/>
</g>
</g>
</svg>
        <g id="navigator" transform="translate(0 0)" fill="#404254">
                <rect fill="#f2f5e9" fill-opacity="0.5" stroke="#606060" stroke-width=".5" x="0" y="0" width="60" height="60"/>
                <use id="zoomplus" xlink:href="#zoomPlus" x="17" y="9" onmousedown="handleZoom(evt,'in')"/>
                <use id="zoomminus" xlink:href="#zoomMin" x="42" y="9" onmousedown="handleZoom(evt,'out')"/>
                <use id="reset" xlink:href="#resetDef" x="30" y="36" onmousedown="handleReset()"/>
                <g id="arrowUp" xlink:href="#dirArrow" transform="translate(30 24)" onmousedown="handlePan(0,-1)">
                  <use xlink:href="#rim" fill="#404040">
                        <set attributeName="fill" to="#808080" begin="arrowUp.mouseover" end="arrowUp.mouseout"/>
                  </use>
                  <path fill="none" stroke="white" stroke-width="1.5" d="M0,-3.0v7 M-2.5,-0.5L0,-3.0L2.5,-0.5"/>
                </g>
                <g id="arrowRight" xlink:href="#dirArrow" transform="rotate(90) translate(36 -43)" onmousedown="handlePan(1,0)">
                  <use xlink:href="#rim" fill="#404040">
                        <set attributeName="fill" to="#808080" begin="arrowRight.mouseover" end="arrowRight.mouseout"/>
                  </use>
                  <path fill="none" stroke="white" stroke-width="1.5" d="M0,-3.0v7 M-2.5,-0.5L0,-3.0L2.5,-0.5"/>
                </g>
                <g id="arrowDown" xlink:href="#dirArrow" transform="rotate(180) translate(-30 -48)" onmousedown="handlePan(0,1)">
                  <use xlink:href="#rim" fill="#404040">
                        <set attributeName="fill" to="#808080" begin="arrowDown.mouseover" end="arrowDown.mouseout"/>
                  </use>
                  <path fill="none" stroke="white" stroke-width="1.5" d="M0,-3.0v7 M-2.5,-0.5L0,-3.0L2.5,-0.5"/>
                </g>
                <g id="arrowLeft" xlink:href="#dirArrow" transform="rotate(270) translate(-36 17)" onmousedown="handlePan(-1,0)">
                  <use xlink:href="#rim" fill="#404040">
                        <set attributeName="fill" to="#808080" begin="arrowLeft.mouseover" end="arrowLeft.mouseout"/>
                  </use>
                  <path fill="none" stroke="white" stroke-width="1.5" d="M0,-3.0v7 M-2.5,-0.5L0,-3.0L2.5,-0.5"/>
                </g>
        </g>
        <svg viewBox="0 0 15 15" width="100%" height="30px" preserveAspectRatio="xMaxYMin meet">
         <g id="arrow_out" transform="scale(0.3 0.3)">
          <a xlink:href="classAveExotica__coll__graph_org.svg" target="_base">
           <rect id="button" ry="5" rx="5" y="6" x="6" height="38" width="38"
                fill="#f2f5e9" fill-opacity="0.5" stroke="#606060" stroke-width="1.0"/>
           <path id="arrow"
             d="M 11.500037,31.436501 C 11.940474,20.09759 22.043105,11.32322 32.158766,21.979434 L 37.068811,17.246167 C 37.068811,17.246167 37.088388,32 37.088388,32 L 22.160133,31.978069 C 22.160133,31.978069 26.997745,27.140456 26.997745,27.140456 C 18.528582,18.264221 13.291696,25.230495 11.500037,31.436501 z"
             style="fill:#404040;"/>
          </a>
         </g>
        </svg>
</svg>
