<?xml version="1.0" encoding="UTF-8" standalone="no"?>
<!DOCTYPE svg PUBLIC "-//W3C//DTD SVG 1.1//EN"
 "http://www.w3.org/Graphics/SVG/1.1/DTD/svg11.dtd">
<!-- Generated by graphviz version 2.43.0 (0)
 -->
<!-- Title: Animal Pages: 1 -->
<svg width="589pt" height="1360pt"
 viewBox="0.00 0.00 589.40 1360.00" xmlns="http://www.w3.org/2000/svg" xmlns:xlink="http://www.w3.org/1999/xlink">
<g id="graph0" class="graph" transform="scale(1 1) rotate(0) translate(4 1356)">
<title>Animal</title>
<polygon fill="white" stroke="transparent" points="-4,4 -4,-1356 585.4,-1356 585.4,4 -4,4"/>
<!-- Node1 -->
<g id="node1" class="node">
<title>Node1</title>
<g id="a_node1"><a xlink:title="Implementação base para o cadastro de animais.">
<polygon fill="#bfbfbf" stroke="black" points="172.9,-0.5 172.9,-376.5 395.9,-376.5 395.9,-0.5 172.9,-0.5"/>
<text text-anchor="middle" x="284.4" y="-356.5" font-family="Helvetica,sans-Serif" font-size="20.00">Animal</text>
<polyline fill="none" stroke="black" points="172.9,-346.5 395.9,-346.5 "/>
<text text-anchor="middle" x="284.4" y="-326.5" font-family="Helvetica,sans-Serif" font-size="20.00"> </text>
<polyline fill="none" stroke="black" points="172.9,-316.5 395.9,-316.5 "/>
<text text-anchor="start" x="180.9" y="-296.5" font-family="Helvetica,sans-Serif" font-size="20.00">+ Animal()</text>
<text text-anchor="start" x="180.9" y="-274.5" font-family="Helvetica,sans-Serif" font-size="20.00">+ Animal()</text>
<text text-anchor="start" x="180.9" y="-252.5" font-family="Helvetica,sans-Serif" font-size="20.00">+ ~Animal()</text>
<text text-anchor="start" x="180.9" y="-230.5" font-family="Helvetica,sans-Serif" font-size="20.00">+ getNome()</text>
<text text-anchor="start" x="180.9" y="-208.5" font-family="Helvetica,sans-Serif" font-size="20.00">+ getEspecie()</text>
<text text-anchor="start" x="180.9" y="-186.5" font-family="Helvetica,sans-Serif" font-size="20.00">+ getAmeacadoPor()</text>
<text text-anchor="start" x="180.9" y="-164.5" font-family="Helvetica,sans-Serif" font-size="20.00">+ getVeterinario()</text>
<text text-anchor="start" x="180.9" y="-142.5" font-family="Helvetica,sans-Serif" font-size="20.00">+ getTratador()</text>
<text text-anchor="start" x="180.9" y="-120.5" font-family="Helvetica,sans-Serif" font-size="20.00">+ getPerigoso()</text>
<text text-anchor="start" x="180.9" y="-98.5" font-family="Helvetica,sans-Serif" font-size="20.00">+ setNome()</text>
<text text-anchor="start" x="180.9" y="-76.5" font-family="Helvetica,sans-Serif" font-size="20.00">e 13 mais...</text>
<text text-anchor="start" x="180.9" y="-54.5" font-family="Helvetica,sans-Serif" font-size="20.00">+ getClassificacao()</text>
<text text-anchor="start" x="180.9" y="-32.5" font-family="Helvetica,sans-Serif" font-size="20.00">+ getClasse()</text>
<text text-anchor="start" x="180.9" y="-10.5" font-family="Helvetica,sans-Serif" font-size="20.00">+ printOutDetails()</text>
</a>
</g>
</g>
<!-- Node2 -->
<g id="node2" class="node">
<title>Node2</title>
<g id="a_node2"><a xlink:href="classTratador.html" target="_top" xlink:title="Implementação dos tratadores.">
<polygon fill="white" stroke="black" points="277.4,-435.5 277.4,-657.5 477.4,-657.5 477.4,-435.5 277.4,-435.5"/>
<text text-anchor="middle" x="377.4" y="-637.5" font-family="Helvetica,sans-Serif" font-size="20.00">Tratador</text>
<polyline fill="none" stroke="black" points="277.4,-627.5 477.4,-627.5 "/>
<text text-anchor="middle" x="377.4" y="-607.5" font-family="Helvetica,sans-Serif" font-size="20.00"> </text>
<polyline fill="none" stroke="black" points="277.4,-597.5 477.4,-597.5 "/>
<text text-anchor="start" x="285.4" y="-577.5" font-family="Helvetica,sans-Serif" font-size="20.00">+ Tratador()</text>
<text text-anchor="start" x="285.4" y="-555.5" font-family="Helvetica,sans-Serif" font-size="20.00">+ Tratador()</text>
<text text-anchor="start" x="285.4" y="-533.5" font-family="Helvetica,sans-Serif" font-size="20.00">+ ~Tratador()</text>
<text text-anchor="start" x="285.4" y="-511.5" font-family="Helvetica,sans-Serif" font-size="20.00">+ getUniforme()</text>
<text text-anchor="start" x="285.4" y="-489.5" font-family="Helvetica,sans-Serif" font-size="20.00">+ setUniforme()</text>
<text text-anchor="start" x="285.4" y="-467.5" font-family="Helvetica,sans-Serif" font-size="20.00">+ setUniforme()</text>
<text text-anchor="start" x="285.4" y="-445.5" font-family="Helvetica,sans-Serif" font-size="20.00">+ printOutDados()</text>
</a>
</g>
</g>
<!-- Node2&#45;&gt;Node1 -->
<g id="edge1" class="edge">
<title>Node2&#45;&gt;Node1</title>
<path fill="none" stroke="#404040" d="M348.61,-435.3C344.68,-420.26 340.56,-404.47 336.37,-388.44"/>
<polygon fill="none" stroke="#404040" points="336.35,-388.35 330.96,-383.56 333.31,-376.74 338.7,-381.54 336.35,-388.35"/>
<text text-anchor="middle" x="392.9" y="-401" font-family="Helvetica,sans-Serif" font-size="20.00"> #tratador</text>
</g>
<!-- Node3 -->
<g id="node3" class="node">
<title>Node3</title>
<g id="a_node3"><a xlink:href="classPessoa.html" target="_top" xlink:title="Classe base dos funcionarios.">
<polygon fill="white" stroke="black" points="250.4,-760.5 250.4,-1158.5 450.4,-1158.5 450.4,-760.5 250.4,-760.5"/>
<text text-anchor="middle" x="350.4" y="-1138.5" font-family="Helvetica,sans-Serif" font-size="20.00">Pessoa</text>
<polyline fill="none" stroke="black" points="250.4,-1128.5 450.4,-1128.5 "/>
<text text-anchor="middle" x="350.4" y="-1108.5" font-family="Helvetica,sans-Serif" font-size="20.00"> </text>
<polyline fill="none" stroke="black" points="250.4,-1098.5 450.4,-1098.5 "/>
<text text-anchor="start" x="258.4" y="-1078.5" font-family="Helvetica,sans-Serif" font-size="20.00">+ Pessoa()</text>
<text text-anchor="start" x="258.4" y="-1056.5" font-family="Helvetica,sans-Serif" font-size="20.00">+ Pessoa()</text>
<text text-anchor="start" x="258.4" y="-1034.5" font-family="Helvetica,sans-Serif" font-size="20.00">+ ~Pessoa()</text>
<text text-anchor="start" x="258.4" y="-1012.5" font-family="Helvetica,sans-Serif" font-size="20.00">+ getNome()</text>
<text text-anchor="start" x="258.4" y="-990.5" font-family="Helvetica,sans-Serif" font-size="20.00">+ setNome()</text>
<text text-anchor="start" x="258.4" y="-968.5" font-family="Helvetica,sans-Serif" font-size="20.00">+ setNome()</text>
<text text-anchor="start" x="258.4" y="-946.5" font-family="Helvetica,sans-Serif" font-size="20.00">+ getTelefone()</text>
<text text-anchor="start" x="258.4" y="-924.5" font-family="Helvetica,sans-Serif" font-size="20.00">+ setTelefone()</text>
<text text-anchor="start" x="258.4" y="-902.5" font-family="Helvetica,sans-Serif" font-size="20.00">+ setTelefone()</text>
<text text-anchor="start" x="258.4" y="-880.5" font-family="Helvetica,sans-Serif" font-size="20.00">+ getEmail()</text>
<text text-anchor="start" x="258.4" y="-858.5" font-family="Helvetica,sans-Serif" font-size="20.00">+ setEmail()</text>
<text text-anchor="start" x="258.4" y="-836.5" font-family="Helvetica,sans-Serif" font-size="20.00">+ setEmail()</text>
<text text-anchor="start" x="258.4" y="-814.5" font-family="Helvetica,sans-Serif" font-size="20.00">+ printOutDados()</text>
<text text-anchor="start" x="258.4" y="-792.5" font-family="Helvetica,sans-Serif" font-size="20.00">+ operator==()</text>
<text text-anchor="start" x="258.4" y="-770.5" font-family="Helvetica,sans-Serif" font-size="20.00">+ operator==()</text>
</a>
</g>
</g>
<!-- Node3&#45;&gt;Node2 -->
<g id="edge2" class="edge">
<title>Node3&#45;&gt;Node2</title>
<path fill="none" stroke="midnightblue" d="M364.11,-749.88C366.2,-718 368.29,-686.23 370.17,-657.62"/>
<polygon fill="none" stroke="midnightblue" points="360.59,-750.02 363.43,-760.22 367.57,-750.47 360.59,-750.02"/>
</g>
<!-- Node7 -->
<g id="node7" class="node">
<title>Node7</title>
<g id="a_node7"><a xlink:href="classVeterinario.html" target="_top" xlink:title="Implementação dos veterinarios.">
<polygon fill="white" stroke="black" points="59.4,-435.5 59.4,-657.5 259.4,-657.5 259.4,-435.5 59.4,-435.5"/>
<text text-anchor="middle" x="159.4" y="-637.5" font-family="Helvetica,sans-Serif" font-size="20.00">Veterinario</text>
<polyline fill="none" stroke="black" points="59.4,-627.5 259.4,-627.5 "/>
<text text-anchor="middle" x="159.4" y="-607.5" font-family="Helvetica,sans-Serif" font-size="20.00"> </text>
<polyline fill="none" stroke="black" points="59.4,-597.5 259.4,-597.5 "/>
<text text-anchor="start" x="67.4" y="-577.5" font-family="Helvetica,sans-Serif" font-size="20.00">+ Veterinario()</text>
<text text-anchor="start" x="67.4" y="-555.5" font-family="Helvetica,sans-Serif" font-size="20.00">+ Veterinario()</text>
<text text-anchor="start" x="67.4" y="-533.5" font-family="Helvetica,sans-Serif" font-size="20.00">+ ~Veterinario()</text>
<text text-anchor="start" x="67.4" y="-511.5" font-family="Helvetica,sans-Serif" font-size="20.00">+ getCRMV()</text>
<text text-anchor="start" x="67.4" y="-489.5" font-family="Helvetica,sans-Serif" font-size="20.00">+ setCRMV()</text>
<text text-anchor="start" x="67.4" y="-467.5" font-family="Helvetica,sans-Serif" font-size="20.00">+ setCRMV()</text>
<text text-anchor="start" x="67.4" y="-445.5" font-family="Helvetica,sans-Serif" font-size="20.00">+ printOutDados()</text>
</a>
</g>
</g>
<!-- Node3&#45;&gt;Node7 -->
<g id="edge8" class="edge">
<title>Node3&#45;&gt;Node7</title>
<path fill="none" stroke="midnightblue" d="M254.03,-751.12C239.02,-718.83 224.04,-686.6 210.58,-657.62"/>
<polygon fill="none" stroke="midnightblue" points="250.87,-752.63 258.26,-760.22 257.22,-749.68 250.87,-752.63"/>
</g>
<!-- Node4 -->
<g id="node4" class="node">
<title>Node4</title>
<g id="a_node4"><a xlink:title=" ">
<polygon fill="white" stroke="#bfbfbf" points="122.4,-1261.5 122.4,-1351.5 196.4,-1351.5 196.4,-1261.5 122.4,-1261.5"/>
<text text-anchor="middle" x="159.4" y="-1331.5" font-family="Helvetica,sans-Serif" font-size="20.00">string</text>
<polyline fill="none" stroke="#bfbfbf" points="122.4,-1321.5 196.4,-1321.5 "/>
<text text-anchor="middle" x="159.4" y="-1301.5" font-family="Helvetica,sans-Serif" font-size="20.00"> </text>
<polyline fill="none" stroke="#bfbfbf" points="122.4,-1291.5 196.4,-1291.5 "/>
<text text-anchor="middle" x="159.4" y="-1271.5" font-family="Helvetica,sans-Serif" font-size="20.00"> </text>
</a>
</g>
</g>
<!-- Node4&#45;&gt;Node1 -->
<g id="edge6" class="edge">
<title>Node4&#45;&gt;Node1</title>
<path fill="none" stroke="#404040" d="M137.52,-1261.25C89.68,-1159.57 -18.31,-900.71 3.4,-676 13.89,-567.38 0.3,-531.95 50.4,-435 78.41,-380.8 122.08,-330.26 164.14,-289.29"/>
<polygon fill="none" stroke="#404040" points="164.16,-289.28 165.71,-282.24 172.81,-280.97 171.25,-288.01 164.16,-289.28"/>
<text text-anchor="middle" x="79.4" y="-726" font-family="Helvetica,sans-Serif" font-size="20.00"> #especie</text>
<text text-anchor="middle" x="79.4" y="-704" font-family="Helvetica,sans-Serif" font-size="20.00">#ameacadoPor</text>
<text text-anchor="middle" x="79.4" y="-682" font-family="Helvetica,sans-Serif" font-size="20.00">#nome</text>
</g>
<!-- Node4&#45;&gt;Node3 -->
<g id="edge3" class="edge">
<title>Node4&#45;&gt;Node3</title>
<path fill="none" stroke="#404040" d="M183.78,-1261.46C199.65,-1232.8 221.56,-1193.22 244.28,-1152.18"/>
<polygon fill="none" stroke="#404040" points="244.42,-1151.94 243.82,-1144.75 250.23,-1141.44 250.82,-1148.63 244.42,-1151.94"/>
<text text-anchor="middle" x="274.9" y="-1227" font-family="Helvetica,sans-Serif" font-size="20.00"> #email</text>
<text text-anchor="middle" x="274.9" y="-1205" font-family="Helvetica,sans-Serif" font-size="20.00">#nome</text>
<text text-anchor="middle" x="274.9" y="-1183" font-family="Helvetica,sans-Serif" font-size="20.00">#telefone</text>
</g>
<!-- Node4&#45;&gt;Node7 -->
<g id="edge9" class="edge">
<title>Node4&#45;&gt;Node7</title>
<path fill="none" stroke="#404040" d="M159.4,-1261.47C159.4,-1147.92 159.4,-842.02 159.4,-669.74"/>
<polygon fill="none" stroke="#404040" points="159.4,-669.57 155.4,-663.57 159.4,-657.57 163.4,-663.57 159.4,-669.57"/>
<text text-anchor="middle" x="195.9" y="-954.5" font-family="Helvetica,sans-Serif" font-size="20.00"> &#45;CRMV</text>
</g>
<!-- Node5 -->
<g id="node5" class="node">
<title>Node5</title>
<g id="a_node5"><a xlink:title=" ">
<polygon fill="white" stroke="#bfbfbf" points="468.9,-914.5 468.9,-1004.5 575.9,-1004.5 575.9,-914.5 468.9,-914.5"/>
<text text-anchor="middle" x="522.4" y="-984.5" font-family="Helvetica,sans-Serif" font-size="20.00">Uniforme</text>
<polyline fill="none" stroke="#bfbfbf" points="468.9,-974.5 575.9,-974.5 "/>
<text text-anchor="middle" x="522.4" y="-954.5" font-family="Helvetica,sans-Serif" font-size="20.00"> </text>
<polyline fill="none" stroke="#bfbfbf" points="468.9,-944.5 575.9,-944.5 "/>
<text text-anchor="middle" x="522.4" y="-924.5" font-family="Helvetica,sans-Serif" font-size="20.00"> </text>
</a>
</g>
</g>
<!-- Node5&#45;&gt;Node2 -->
<g id="edge4" class="edge">
<title>Node5&#45;&gt;Node2</title>
<path fill="none" stroke="#404040" d="M509.27,-914.49C497.03,-874.09 477.91,-812.7 459.4,-760 448.97,-730.31 437.1,-698.54 425.69,-668.86"/>
<polygon fill="none" stroke="#404040" points="425.67,-668.79 419.78,-664.63 421.35,-657.59 427.24,-661.75 425.67,-668.79"/>
<text text-anchor="middle" x="501.9" y="-704" font-family="Helvetica,sans-Serif" font-size="20.00"> &#45;uniforme</text>
</g>
<!-- Node6 -->
<g id="node6" class="node">
<title>Node6</title>
<g id="a_node6"><a xlink:title=" ">
<polygon fill="white" stroke="#bfbfbf" points="495.9,-501.5 495.9,-591.5 554.9,-591.5 554.9,-501.5 495.9,-501.5"/>
<text text-anchor="middle" x="525.4" y="-571.5" font-family="Helvetica,sans-Serif" font-size="20.00">bool</text>
<polyline fill="none" stroke="#bfbfbf" points="495.9,-561.5 554.9,-561.5 "/>
<text text-anchor="middle" x="525.4" y="-541.5" font-family="Helvetica,sans-Serif" font-size="20.00"> </text>
<polyline fill="none" stroke="#bfbfbf" points="495.9,-531.5 554.9,-531.5 "/>
<text text-anchor="middle" x="525.4" y="-511.5" font-family="Helvetica,sans-Serif" font-size="20.00"> </text>
</a>
</g>
</g>
<!-- Node6&#45;&gt;Node1 -->
<g id="edge5" class="edge">
<title>Node6&#45;&gt;Node1</title>
<path fill="none" stroke="#404040" d="M513.74,-501.48C507.25,-480.59 498.1,-455.73 486.4,-435 463.49,-394.41 433.71,-353.88 404.09,-317.79"/>
<polygon fill="none" stroke="#404040" points="403.81,-317.46 396.9,-315.4 396.15,-308.23 403.06,-310.29 403.81,-317.46"/>
<text text-anchor="middle" x="526.9" y="-401" font-family="Helvetica,sans-Serif" font-size="20.00"> #perigoso</text>
</g>
<!-- Node7&#45;&gt;Node1 -->
<g id="edge7" class="edge">
<title>Node7&#45;&gt;Node1</title>
<path fill="none" stroke="#404040" d="M191.19,-435.44C195.47,-421.77 199.93,-408.02 204.4,-395 205.18,-392.73 205.97,-390.44 206.77,-388.14"/>
<polygon fill="none" stroke="#404040" points="206.86,-387.9 205.08,-380.92 210.84,-376.58 212.62,-383.57 206.86,-387.9"/>
<text text-anchor="middle" x="269.4" y="-401" font-family="Helvetica,sans-Serif" font-size="20.00"> #veterinario</text>
</g>
</g>
</svg>
