<?xml version="1.0" encoding="UTF-8" standalone="no"?>
<!DOCTYPE svg PUBLIC "-//W3C//DTD SVG 1.1//EN"
 "http://www.w3.org/Graphics/SVG/1.1/DTD/svg11.dtd">
<!-- Generated by graphviz version 2.43.0 (0)
 -->
<!-- Title: ReptilDomestico Pages: 1 -->
<!--zoomable 1640 -->
<svg id="main" version="1.1" xmlns="http://www.w3.org/2000/svg" xmlns:xlink="http://www.w3.org/1999/xlink" xml:space="preserve" onload="init(evt)">
<style type="text/css"><![CDATA[
.edge:hover path { stroke: red; }
.edge:hover polygon { stroke: red; fill: red; }
]]></style>
<script type="text/javascript"><![CDATA[
var edges = document.getElementsByTagName('g');
if (edges && edges.length) {
  for (var i=0;i<edges.length;i++) {
    if (edges[i].id.substr(0,4)=='edge') {
      edges[i].setAttribute('class','edge');
    }
  }
}
]]></script>
        <defs>
                <circle id="rim" cx="0" cy="0" r="7"/>
                <circle id="rim2" cx="0" cy="0" r="3.5"/>
                <g id="zoomPlus">
                        <use xlink:href="#rim" fill="#404040">
                                <set attributeName="fill" to="#808080" begin="zoomplus.mouseover" end="zoomplus.mouseout"/>
                        </use>
                        <path d="M-4,0h8M0,-4v8" fill="none" stroke="white" stroke-width="1.5" pointer-events="none"/>
                </g>
                <g id="zoomMin">
                        <use xlink:href="#rim" fill="#404040">
                                <set attributeName="fill" to="#808080" begin="zoomminus.mouseover" end="zoomminus.mouseout"/>
                        </use>
                        <path d="M-4,0h8" fill="none" stroke="white" stroke-width="1.5" pointer-events="none"/>
                </g>
                <g id="dirArrow">
                        <path fill="none" stroke="white" stroke-width="1.5" d="M0,-3.0v7 M-2.5,-0.5L0,-3.0L2.5,-0.5"/>
                </g>
               <g id="resetDef">
                       <use xlink:href="#rim2" fill="#404040">
                               <set attributeName="fill" to="#808080" begin="reset.mouseover" end="reset.mouseout"/>
                       </use>
               </g>
        </defs>

<script type="text/javascript">
var viewWidth = 779;
var viewHeight = 1640;
var sectionId = 'dynsection-1';
</script>
<script xlink:href="svgpan.js"/>
<svg id="graph" class="graph">
<g id="viewport">
<title>ReptilDomestico</title>
<polygon fill="white" stroke="transparent" points="-4,4 -4,-1636 774.93,-1636 774.93,4 -4,4"/>
<!-- Node1 -->
<g id="node1" class="node">
<title>Node1</title>
<g id="a_node1"><a xlink:title="Implementação de animal com Classe e Categoria.">
<polygon fill="#bfbfbf" stroke="black" points="478.93,-0.5 478.93,-112.5 710.93,-112.5 710.93,-0.5 478.93,-0.5"/>
<text text-anchor="middle" x="594.93" y="-92.5" font-family="Helvetica,sans-Serif" font-size="20.00">ReptilDomestico</text>
<polyline fill="none" stroke="black" points="478.93,-82.5 710.93,-82.5 "/>
<text text-anchor="middle" x="594.93" y="-62.5" font-family="Helvetica,sans-Serif" font-size="20.00"> </text>
<polyline fill="none" stroke="black" points="478.93,-52.5 710.93,-52.5 "/>
<text text-anchor="start" x="486.93" y="-32.5" font-family="Helvetica,sans-Serif" font-size="20.00">+ ReptilDomestico()</text>
<text text-anchor="start" x="486.93" y="-10.5" font-family="Helvetica,sans-Serif" font-size="20.00">+ ~ReptilDomestico()</text>
</a>
</g>
</g>
<!-- Node2 -->
<g id="node2" class="node">
<title>Node2</title>
<g id="a_node2"><a xlink:href="classReptil.html" target="_top" xlink:title="Classificação base para Repteis.">
<polygon fill="white" stroke="black" points="449.43,-150.5 449.43,-306.5 576.43,-306.5 576.43,-150.5 449.43,-150.5"/>
<text text-anchor="middle" x="512.93" y="-286.5" font-family="Helvetica,sans-Serif" font-size="20.00">Reptil</text>
<polyline fill="none" stroke="black" points="449.43,-276.5 576.43,-276.5 "/>
<text text-anchor="middle" x="512.93" y="-256.5" font-family="Helvetica,sans-Serif" font-size="20.00"> </text>
<polyline fill="none" stroke="black" points="449.43,-246.5 576.43,-246.5 "/>
<text text-anchor="start" x="457.43" y="-226.5" font-family="Helvetica,sans-Serif" font-size="20.00">+ Reptil()</text>
<text text-anchor="start" x="457.43" y="-204.5" font-family="Helvetica,sans-Serif" font-size="20.00">+ Reptil()</text>
<text text-anchor="start" x="457.43" y="-182.5" font-family="Helvetica,sans-Serif" font-size="20.00">+ ~Reptil()</text>
<text text-anchor="start" x="457.43" y="-160.5" font-family="Helvetica,sans-Serif" font-size="20.00">+ getPele()</text>
</a>
</g>
</g>
<!-- Node2&#45;&gt;Node1 -->
<g id="edge1" class="edge">
<title>Node2&#45;&gt;Node1</title>
<path fill="none" stroke="midnightblue" d="M554.54,-141.24C559.18,-131.62 563.81,-122.02 568.2,-112.93"/>
<polygon fill="none" stroke="midnightblue" points="551.29,-139.93 550.09,-150.46 557.59,-142.97 551.29,-139.93"/>
</g>
<!-- Node3 -->
<g id="node3" class="node">
<title>Node3</title>
<g id="a_node3"><a xlink:href="classAnimal.html" target="_top" xlink:title="Implementação base para o cadastro de animais.">
<polygon fill="white" stroke="black" points="247.43,-500.5 247.43,-854.5 470.43,-854.5 470.43,-500.5 247.43,-500.5"/>
<text text-anchor="middle" x="358.93" y="-834.5" font-family="Helvetica,sans-Serif" font-size="20.00">Animal</text>
<polyline fill="none" stroke="black" points="247.43,-824.5 470.43,-824.5 "/>
<text text-anchor="middle" x="358.93" y="-804.5" font-family="Helvetica,sans-Serif" font-size="20.00"> </text>
<polyline fill="none" stroke="black" points="247.43,-794.5 470.43,-794.5 "/>
<text text-anchor="start" x="255.43" y="-774.5" font-family="Helvetica,sans-Serif" font-size="20.00">+ Animal()</text>
<text text-anchor="start" x="255.43" y="-752.5" font-family="Helvetica,sans-Serif" font-size="20.00">+ Animal()</text>
<text text-anchor="start" x="255.43" y="-730.5" font-family="Helvetica,sans-Serif" font-size="20.00">+ ~Animal()</text>
<text text-anchor="start" x="255.43" y="-708.5" font-family="Helvetica,sans-Serif" font-size="20.00">+ getNome()</text>
<text text-anchor="start" x="255.43" y="-686.5" font-family="Helvetica,sans-Serif" font-size="20.00">+ getEspecie()</text>
<text text-anchor="start" x="255.43" y="-664.5" font-family="Helvetica,sans-Serif" font-size="20.00">+ getAmeacadoPor()</text>
<text text-anchor="start" x="255.43" y="-642.5" font-family="Helvetica,sans-Serif" font-size="20.00">+ getVeterinario()</text>
<text text-anchor="start" x="255.43" y="-620.5" font-family="Helvetica,sans-Serif" font-size="20.00">+ getTratador()</text>
<text text-anchor="start" x="255.43" y="-598.5" font-family="Helvetica,sans-Serif" font-size="20.00">+ getPerigoso()</text>
<text text-anchor="start" x="255.43" y="-576.5" font-family="Helvetica,sans-Serif" font-size="20.00">+ getClassificacao()</text>
<text text-anchor="start" x="255.43" y="-554.5" font-family="Helvetica,sans-Serif" font-size="20.00">+ getClasse()</text>
<text text-anchor="start" x="255.43" y="-532.5" font-family="Helvetica,sans-Serif" font-size="20.00">+ printOutDados()</text>
<text text-anchor="start" x="255.43" y="-510.5" font-family="Helvetica,sans-Serif" font-size="20.00">+ operator==()</text>
</a>
</g>
</g>
<!-- Node3&#45;&gt;Node2 -->
<g id="edge2" class="edge">
<title>Node3&#45;&gt;Node2</title>
<path fill="none" stroke="midnightblue" d="M422.84,-490.99C445.07,-426.47 468.8,-357.6 486.32,-306.74"/>
<polygon fill="none" stroke="midnightblue" points="419.53,-489.88 419.58,-500.48 426.14,-492.16 419.53,-489.88"/>
</g>
<!-- Node4 -->
<g id="node4" class="node">
<title>Node4</title>
<g id="a_node4"><a xlink:href="classTratador.html" target="_top" xlink:title="Implementação dos tratadores.">
<polygon fill="white" stroke="black" points="258.93,-913.5 258.93,-1091.5 458.93,-1091.5 458.93,-913.5 258.93,-913.5"/>
<text text-anchor="middle" x="358.93" y="-1071.5" font-family="Helvetica,sans-Serif" font-size="20.00">Tratador</text>
<polyline fill="none" stroke="black" points="258.93,-1061.5 458.93,-1061.5 "/>
<text text-anchor="middle" x="358.93" y="-1041.5" font-family="Helvetica,sans-Serif" font-size="20.00"> </text>
<polyline fill="none" stroke="black" points="258.93,-1031.5 458.93,-1031.5 "/>
<text text-anchor="start" x="266.93" y="-1011.5" font-family="Helvetica,sans-Serif" font-size="20.00">+ Tratador()</text>
<text text-anchor="start" x="266.93" y="-989.5" font-family="Helvetica,sans-Serif" font-size="20.00">+ Tratador()</text>
<text text-anchor="start" x="266.93" y="-967.5" font-family="Helvetica,sans-Serif" font-size="20.00">+ ~Tratador()</text>
<text text-anchor="start" x="266.93" y="-945.5" font-family="Helvetica,sans-Serif" font-size="20.00">+ getUniforme()</text>
<text text-anchor="start" x="266.93" y="-923.5" font-family="Helvetica,sans-Serif" font-size="20.00">+ printOutDados()</text>
</a>
</g>
</g>
<!-- Node4&#45;&gt;Node3 -->
<g id="edge3" class="edge">
<title>Node4&#45;&gt;Node3</title>
<path fill="none" stroke="#404040" d="M358.93,-913.24C358.93,-898.58 358.93,-882.89 358.93,-866.85"/>
<polygon fill="none" stroke="#404040" points="358.93,-866.52 354.93,-860.52 358.93,-854.52 362.93,-860.52 358.93,-866.52"/>
<text text-anchor="middle" x="410.43" y="-879" font-family="Helvetica,sans-Serif" font-size="20.00"> #tratador</text>
</g>
<!-- Node5 -->
<g id="node5" class="node">
<title>Node5</title>
<g id="a_node5"><a xlink:href="classPessoa.html" target="_top" xlink:title="Classe base dos funcionarios.">
<polygon fill="white" stroke="black" points="110.93,-1194.5 110.93,-1438.5 310.93,-1438.5 310.93,-1194.5 110.93,-1194.5"/>
<text text-anchor="middle" x="210.93" y="-1418.5" font-family="Helvetica,sans-Serif" font-size="20.00">Pessoa</text>
<polyline fill="none" stroke="black" points="110.93,-1408.5 310.93,-1408.5 "/>
<text text-anchor="middle" x="210.93" y="-1388.5" font-family="Helvetica,sans-Serif" font-size="20.00"> </text>
<polyline fill="none" stroke="black" points="110.93,-1378.5 310.93,-1378.5 "/>
<text text-anchor="start" x="118.93" y="-1358.5" font-family="Helvetica,sans-Serif" font-size="20.00">+ Pessoa()</text>
<text text-anchor="start" x="118.93" y="-1336.5" font-family="Helvetica,sans-Serif" font-size="20.00">+ Pessoa()</text>
<text text-anchor="start" x="118.93" y="-1314.5" font-family="Helvetica,sans-Serif" font-size="20.00">+ ~Pessoa()</text>
<text text-anchor="start" x="118.93" y="-1292.5" font-family="Helvetica,sans-Serif" font-size="20.00">+ getNome()</text>
<text text-anchor="start" x="118.93" y="-1270.5" font-family="Helvetica,sans-Serif" font-size="20.00">+ getTelefone()</text>
<text text-anchor="start" x="118.93" y="-1248.5" font-family="Helvetica,sans-Serif" font-size="20.00">+ getEmail()</text>
<text text-anchor="start" x="118.93" y="-1226.5" font-family="Helvetica,sans-Serif" font-size="20.00">+ printOutDados()</text>
<text text-anchor="start" x="118.93" y="-1204.5" font-family="Helvetica,sans-Serif" font-size="20.00">+ operator==()</text>
</a>
</g>
</g>
<!-- Node5&#45;&gt;Node4 -->
<g id="edge4" class="edge">
<title>Node5&#45;&gt;Node4</title>
<path fill="none" stroke="midnightblue" d="M272.77,-1185.14C287.72,-1153.62 303.35,-1120.67 317.13,-1091.62"/>
<polygon fill="none" stroke="midnightblue" points="269.49,-1183.89 268.37,-1194.43 275.81,-1186.89 269.49,-1183.89"/>
</g>
<!-- Node9 -->
<g id="node9" class="node">
<title>Node9</title>
<g id="a_node9"><a xlink:href="classVeterinario.html" target="_top" xlink:title="Implementação dos veterinarios.">
<polygon fill="white" stroke="black" points="40.93,-913.5 40.93,-1091.5 240.93,-1091.5 240.93,-913.5 40.93,-913.5"/>
<text text-anchor="middle" x="140.93" y="-1071.5" font-family="Helvetica,sans-Serif" font-size="20.00">Veterinario</text>
<polyline fill="none" stroke="black" points="40.93,-1061.5 240.93,-1061.5 "/>
<text text-anchor="middle" x="140.93" y="-1041.5" font-family="Helvetica,sans-Serif" font-size="20.00"> </text>
<polyline fill="none" stroke="black" points="40.93,-1031.5 240.93,-1031.5 "/>
<text text-anchor="start" x="48.93" y="-1011.5" font-family="Helvetica,sans-Serif" font-size="20.00">+ Veterinario()</text>
<text text-anchor="start" x="48.93" y="-989.5" font-family="Helvetica,sans-Serif" font-size="20.00">+ Veterinario()</text>
<text text-anchor="start" x="48.93" y="-967.5" font-family="Helvetica,sans-Serif" font-size="20.00">+ ~Veterinario()</text>
<text text-anchor="start" x="48.93" y="-945.5" font-family="Helvetica,sans-Serif" font-size="20.00">+ getCRMV()</text>
<text text-anchor="start" x="48.93" y="-923.5" font-family="Helvetica,sans-Serif" font-size="20.00">+ printOutDados()</text>
</a>
</g>
</g>
<!-- Node5&#45;&gt;Node9 -->
<g id="edge10" class="edge">
<title>Node5&#45;&gt;Node9</title>
<path fill="none" stroke="midnightblue" d="M181.5,-1184.33C174.49,-1153.06 167.17,-1120.42 160.7,-1091.62"/>
<polygon fill="none" stroke="midnightblue" points="178.16,-1185.43 183.77,-1194.43 184.99,-1183.9 178.16,-1185.43"/>
</g>
<!-- Node6 -->
<g id="node6" class="node">
<title>Node6</title>
<g id="a_node6"><a xlink:title=" ">
<polygon fill="white" stroke="#bfbfbf" points="173.93,-1541.5 173.93,-1631.5 247.93,-1631.5 247.93,-1541.5 173.93,-1541.5"/>
<text text-anchor="middle" x="210.93" y="-1611.5" font-family="Helvetica,sans-Serif" font-size="20.00">string</text>
<polyline fill="none" stroke="#bfbfbf" points="173.93,-1601.5 247.93,-1601.5 "/>
<text text-anchor="middle" x="210.93" y="-1581.5" font-family="Helvetica,sans-Serif" font-size="20.00"> </text>
<polyline fill="none" stroke="#bfbfbf" points="173.93,-1571.5 247.93,-1571.5 "/>
<text text-anchor="middle" x="210.93" y="-1551.5" font-family="Helvetica,sans-Serif" font-size="20.00"> </text>
</a>
</g>
</g>
<!-- Node6&#45;&gt;Node3 -->
<g id="edge8" class="edge">
<title>Node6&#45;&gt;Node3</title>
<path fill="none" stroke="#404040" d="M248.35,-1574.13C302.29,-1555.55 400.33,-1513.13 444.93,-1439 574.72,-1223.31 534.64,-1115.17 465.93,-873 465.28,-870.71 464.6,-868.41 463.89,-866.11"/>
<polygon fill="none" stroke="#404040" points="463.86,-866.01 458.18,-861.57 460.1,-854.62 465.78,-859.06 463.86,-866.01"/>
<text text-anchor="middle" x="605.93" y="-1160" font-family="Helvetica,sans-Serif" font-size="20.00"> #especie</text>
<text text-anchor="middle" x="605.93" y="-1138" font-family="Helvetica,sans-Serif" font-size="20.00">#ameacadoPor</text>
<text text-anchor="middle" x="605.93" y="-1116" font-family="Helvetica,sans-Serif" font-size="20.00">#nome</text>
</g>
<!-- Node6&#45;&gt;Node5 -->
<g id="edge5" class="edge">
<title>Node6&#45;&gt;Node5</title>
<path fill="none" stroke="#404040" d="M210.93,-1541.25C210.93,-1516.22 210.93,-1483.47 210.93,-1450.77"/>
<polygon fill="none" stroke="#404040" points="210.93,-1450.74 206.93,-1444.74 210.93,-1438.74 214.93,-1444.74 210.93,-1450.74"/>
<text text-anchor="middle" x="259.43" y="-1507" font-family="Helvetica,sans-Serif" font-size="20.00"> #email</text>
<text text-anchor="middle" x="259.43" y="-1485" font-family="Helvetica,sans-Serif" font-size="20.00">#nome</text>
<text text-anchor="middle" x="259.43" y="-1463" font-family="Helvetica,sans-Serif" font-size="20.00">#telefone</text>
</g>
<!-- Node6&#45;&gt;Node9 -->
<g id="edge11" class="edge">
<title>Node6&#45;&gt;Node9</title>
<path fill="none" stroke="#404040" d="M173.58,-1568.27C129.61,-1545.65 58.8,-1501.38 28.93,-1439 -18.09,-1340.79 0.34,-1299.07 28.93,-1194 37.59,-1162.18 53.06,-1130.26 69.79,-1101.89"/>
<polygon fill="none" stroke="#404040" points="69.8,-1101.87 69.48,-1094.67 76,-1091.6 76.32,-1098.8 69.8,-1101.87"/>
<text text-anchor="middle" x="65.43" y="-1311.5" font-family="Helvetica,sans-Serif" font-size="20.00"> &#45;CRMV</text>
</g>
<!-- Node7 -->
<g id="node7" class="node">
<title>Node7</title>
<g id="a_node7"><a xlink:title=" ">
<polygon fill="white" stroke="#bfbfbf" points="329.43,-1271.5 329.43,-1361.5 436.43,-1361.5 436.43,-1271.5 329.43,-1271.5"/>
<text text-anchor="middle" x="382.93" y="-1341.5" font-family="Helvetica,sans-Serif" font-size="20.00">Uniforme</text>
<polyline fill="none" stroke="#bfbfbf" points="329.43,-1331.5 436.43,-1331.5 "/>
<text text-anchor="middle" x="382.93" y="-1311.5" font-family="Helvetica,sans-Serif" font-size="20.00"> </text>
<polyline fill="none" stroke="#bfbfbf" points="329.43,-1301.5 436.43,-1301.5 "/>
<text text-anchor="middle" x="382.93" y="-1281.5" font-family="Helvetica,sans-Serif" font-size="20.00"> </text>
</a>
</g>
</g>
<!-- Node7&#45;&gt;Node4 -->
<g id="edge6" class="edge">
<title>Node7&#45;&gt;Node4</title>
<path fill="none" stroke="#404040" d="M374.77,-1271.38C370.08,-1244.03 364.62,-1208.09 361.93,-1176 359.99,-1152.74 358.95,-1127.66 358.45,-1104.02"/>
<polygon fill="none" stroke="#404040" points="358.44,-1103.81 354.34,-1097.88 358.23,-1091.81 362.34,-1097.74 358.44,-1103.81"/>
<text text-anchor="middle" x="413.43" y="-1138" font-family="Helvetica,sans-Serif" font-size="20.00"> &#45;uniforme</text>
</g>
<!-- Node8 -->
<g id="node8" class="node">
<title>Node8</title>
<g id="a_node8"><a xlink:title=" ">
<polygon fill="white" stroke="#bfbfbf" points="568.43,-957.5 568.43,-1047.5 627.43,-1047.5 627.43,-957.5 568.43,-957.5"/>
<text text-anchor="middle" x="597.93" y="-1027.5" font-family="Helvetica,sans-Serif" font-size="20.00">bool</text>
<polyline fill="none" stroke="#bfbfbf" points="568.43,-1017.5 627.43,-1017.5 "/>
<text text-anchor="middle" x="597.93" y="-997.5" font-family="Helvetica,sans-Serif" font-size="20.00"> </text>
<polyline fill="none" stroke="#bfbfbf" points="568.43,-987.5 627.43,-987.5 "/>
<text text-anchor="middle" x="597.93" y="-967.5" font-family="Helvetica,sans-Serif" font-size="20.00"> </text>
</a>
</g>
</g>
<!-- Node8&#45;&gt;Node3 -->
<g id="edge7" class="edge">
<title>Node8&#45;&gt;Node3</title>
<path fill="none" stroke="#404040" d="M568.23,-957.4C550.06,-931.7 525.63,-899.27 500.93,-873 492.51,-864.04 488.14,-864.15 479.93,-855 479.55,-854.57 479.16,-854.13 478.77,-853.7"/>
<polygon fill="none" stroke="#404040" points="478.55,-853.45 471.6,-851.55 470.68,-844.4 477.63,-846.3 478.55,-853.45"/>
<text text-anchor="middle" x="572.43" y="-879" font-family="Helvetica,sans-Serif" font-size="20.00"> #perigoso</text>
</g>
<!-- Node11 -->
<g id="node11" class="node">
<title>Node11</title>
<g id="a_node11"><a xlink:href="classDomestico.html" target="_top" xlink:title="Umas das definições de categoria para Animal.">
<polygon fill="white" stroke="black" points="582.93,-325.5 582.93,-481.5 770.93,-481.5 770.93,-325.5 582.93,-325.5"/>
<text text-anchor="middle" x="676.93" y="-461.5" font-family="Helvetica,sans-Serif" font-size="20.00">Domestico</text>
<polyline fill="none" stroke="black" points="582.93,-451.5 770.93,-451.5 "/>
<text text-anchor="middle" x="676.93" y="-431.5" font-family="Helvetica,sans-Serif" font-size="20.00"> </text>
<polyline fill="none" stroke="black" points="582.93,-421.5 770.93,-421.5 "/>
<text text-anchor="start" x="590.93" y="-401.5" font-family="Helvetica,sans-Serif" font-size="20.00">+ Domestico()</text>
<text text-anchor="start" x="590.93" y="-379.5" font-family="Helvetica,sans-Serif" font-size="20.00">+ Domestico()</text>
<text text-anchor="start" x="590.93" y="-357.5" font-family="Helvetica,sans-Serif" font-size="20.00">+ ~Domestico()</text>
<text text-anchor="start" x="590.93" y="-335.5" font-family="Helvetica,sans-Serif" font-size="20.00">+ getAdestrado()</text>
</a>
</g>
</g>
<!-- Node8&#45;&gt;Node11 -->
<g id="edge14" class="edge">
<title>Node8&#45;&gt;Node11</title>
<path fill="none" stroke="#404040" d="M613.82,-957.47C620.09,-938.48 626.77,-915.88 630.93,-895 658.57,-756.51 669.69,-592.62 674.11,-493.71"/>
<polygon fill="none" stroke="#404040" points="674.11,-493.67 670.37,-487.5 674.63,-481.68 678.36,-487.84 674.11,-493.67"/>
<text text-anchor="middle" x="695.43" y="-879" font-family="Helvetica,sans-Serif" font-size="20.00"> #adestrado</text>
</g>
<!-- Node9&#45;&gt;Node3 -->
<g id="edge9" class="edge">
<title>Node9&#45;&gt;Node3</title>
<path fill="none" stroke="#404040" d="M198.26,-913.18C207.14,-899.69 216.24,-885.95 224.93,-873 230.03,-865.4 235.27,-857.64 240.56,-849.82"/>
<polygon fill="none" stroke="#404040" points="240.57,-849.81 240.63,-842.6 247.31,-839.88 247.25,-847.09 240.57,-849.81"/>
<text text-anchor="middle" x="289.93" y="-879" font-family="Helvetica,sans-Serif" font-size="20.00"> #veterinario</text>
</g>
<!-- Node10 -->
<g id="node10" class="node">
<title>Node10</title>
<g id="a_node10"><a xlink:title=" ">
<polygon fill="white" stroke="#bfbfbf" points="488.43,-632.5 488.43,-722.5 545.43,-722.5 545.43,-632.5 488.43,-632.5"/>
<text text-anchor="middle" x="516.93" y="-702.5" font-family="Helvetica,sans-Serif" font-size="20.00">Pele</text>
<polyline fill="none" stroke="#bfbfbf" points="488.43,-692.5 545.43,-692.5 "/>
<text text-anchor="middle" x="516.93" y="-672.5" font-family="Helvetica,sans-Serif" font-size="20.00"> </text>
<polyline fill="none" stroke="#bfbfbf" points="488.43,-662.5 545.43,-662.5 "/>
<text text-anchor="middle" x="516.93" y="-642.5" font-family="Helvetica,sans-Serif" font-size="20.00"> </text>
</a>
</g>
</g>
<!-- Node10&#45;&gt;Node2 -->
<g id="edge12" class="edge">
<title>Node10&#45;&gt;Node2</title>
<path fill="none" stroke="#404040" d="M514.61,-632.49C512.65,-593.07 510,-533.7 508.93,-482 507.5,-412.24 507.47,-394.76 508.93,-325 508.98,-322.95 509.02,-320.87 509.08,-318.77"/>
<polygon fill="none" stroke="#404040" points="509.08,-318.63 505.25,-312.52 509.43,-306.63 513.25,-312.74 509.08,-318.63"/>
<text text-anchor="middle" x="541.43" y="-398.5" font-family="Helvetica,sans-Serif" font-size="20.00"> #pele</text>
</g>
<!-- Node11&#45;&gt;Node1 -->
<g id="edge13" class="edge">
<title>Node11&#45;&gt;Node1</title>
<path fill="none" stroke="midnightblue" d="M656.15,-315.05C641.02,-251.41 621,-167.18 608.05,-112.67"/>
<polygon fill="none" stroke="midnightblue" points="652.81,-316.16 658.53,-325.08 659.62,-314.54 652.81,-316.16"/>
</g>
</g>
</svg>
        <g id="navigator" transform="translate(0 0)" fill="#404254">
                <rect fill="#f2f5e9" fill-opacity="0.5" stroke="#606060" stroke-width=".5" x="0" y="0" width="60" height="60"/>
                <use id="zoomplus" xlink:href="#zoomPlus" x="17" y="9" onmousedown="handleZoom(evt,'in')"/>
                <use id="zoomminus" xlink:href="#zoomMin" x="42" y="9" onmousedown="handleZoom(evt,'out')"/>
                <use id="reset" xlink:href="#resetDef" x="30" y="36" onmousedown="handleReset()"/>
                <g id="arrowUp" xlink:href="#dirArrow" transform="translate(30 24)" onmousedown="handlePan(0,-1)">
                  <use xlink:href="#rim" fill="#404040">
                        <set attributeName="fill" to="#808080" begin="arrowUp.mouseover" end="arrowUp.mouseout"/>
                  </use>
                  <path fill="none" stroke="white" stroke-width="1.5" d="M0,-3.0v7 M-2.5,-0.5L0,-3.0L2.5,-0.5"/>
                </g>
                <g id="arrowRight" xlink:href="#dirArrow" transform="rotate(90) translate(36 -43)" onmousedown="handlePan(1,0)">
                  <use xlink:href="#rim" fill="#404040">
                        <set attributeName="fill" to="#808080" begin="arrowRight.mouseover" end="arrowRight.mouseout"/>
                  </use>
                  <path fill="none" stroke="white" stroke-width="1.5" d="M0,-3.0v7 M-2.5,-0.5L0,-3.0L2.5,-0.5"/>
                </g>
                <g id="arrowDown" xlink:href="#dirArrow" transform="rotate(180) translate(-30 -48)" onmousedown="handlePan(0,1)">
                  <use xlink:href="#rim" fill="#404040">
                        <set attributeName="fill" to="#808080" begin="arrowDown.mouseover" end="arrowDown.mouseout"/>
                  </use>
                  <path fill="none" stroke="white" stroke-width="1.5" d="M0,-3.0v7 M-2.5,-0.5L0,-3.0L2.5,-0.5"/>
                </g>
                <g id="arrowLeft" xlink:href="#dirArrow" transform="rotate(270) translate(-36 17)" onmousedown="handlePan(-1,0)">
                  <use xlink:href="#rim" fill="#404040">
                        <set attributeName="fill" to="#808080" begin="arrowLeft.mouseover" end="arrowLeft.mouseout"/>
                  </use>
                  <path fill="none" stroke="white" stroke-width="1.5" d="M0,-3.0v7 M-2.5,-0.5L0,-3.0L2.5,-0.5"/>
                </g>
        </g>
        <svg viewBox="0 0 15 15" width="100%" height="30px" preserveAspectRatio="xMaxYMin meet">
         <g id="arrow_out" transform="scale(0.3 0.3)">
          <a xlink:href="classReptilDomestico__coll__graph_org.svg" target="_base">
           <rect id="button" ry="5" rx="5" y="6" x="6" height="38" width="38"
                fill="#f2f5e9" fill-opacity="0.5" stroke="#606060" stroke-width="1.0"/>
           <path id="arrow"
             d="M 11.500037,31.436501 C 11.940474,20.09759 22.043105,11.32322 32.158766,21.979434 L 37.068811,17.246167 C 37.068811,17.246167 37.088388,32 37.088388,32 L 22.160133,31.978069 C 22.160133,31.978069 26.997745,27.140456 26.997745,27.140456 C 18.528582,18.264221 13.291696,25.230495 11.500037,31.436501 z"
             style="fill:#404040;"/>
          </a>
         </g>
        </svg>
</svg>
