<?xml version="1.0" encoding="UTF-8" standalone="no"?>
<!DOCTYPE svg PUBLIC "-//W3C//DTD SVG 1.1//EN"
 "http://www.w3.org/Graphics/SVG/1.1/DTD/svg11.dtd">
<!-- Generated by graphviz version 2.43.0 (0)
 -->
<!-- Title: AveNativa Pages: 1 -->
<!--zoomable 1883 -->
<svg id="main" version="1.1" xmlns="http://www.w3.org/2000/svg" xmlns:xlink="http://www.w3.org/1999/xlink" xml:space="preserve" onload="init(evt)">
<style type="text/css"><![CDATA[
.edge:hover path { stroke: red; }
.edge:hover polygon { stroke: red; fill: red; }
]]></style>
<script type="text/javascript"><![CDATA[
var edges = document.getElementsByTagName('g');
if (edges && edges.length) {
  for (var i=0;i<edges.length;i++) {
    if (edges[i].id.substr(0,4)=='edge') {
      edges[i].setAttribute('class','edge');
    }
  }
}
]]></script>
        <defs>
                <circle id="rim" cx="0" cy="0" r="7"/>
                <circle id="rim2" cx="0" cy="0" r="3.5"/>
                <g id="zoomPlus">
                        <use xlink:href="#rim" fill="#404040">
                                <set attributeName="fill" to="#808080" begin="zoomplus.mouseover" end="zoomplus.mouseout"/>
                        </use>
                        <path d="M-4,0h8M0,-4v8" fill="none" stroke="white" stroke-width="1.5" pointer-events="none"/>
                </g>
                <g id="zoomMin">
                        <use xlink:href="#rim" fill="#404040">
                                <set attributeName="fill" to="#808080" begin="zoomminus.mouseover" end="zoomminus.mouseout"/>
                        </use>
                        <path d="M-4,0h8" fill="none" stroke="white" stroke-width="1.5" pointer-events="none"/>
                </g>
                <g id="dirArrow">
                        <path fill="none" stroke="white" stroke-width="1.5" d="M0,-3.0v7 M-2.5,-0.5L0,-3.0L2.5,-0.5"/>
                </g>
               <g id="resetDef">
                       <use xlink:href="#rim2" fill="#404040">
                               <set attributeName="fill" to="#808080" begin="reset.mouseover" end="reset.mouseout"/>
                       </use>
               </g>
        </defs>

<script type="text/javascript">
var viewWidth = 757;
var viewHeight = 1883;
var sectionId = 'dynsection-1';
</script>
<script xlink:href="svgpan.js"/>
<svg id="graph" class="graph">
<g id="viewport">
<title>AveNativa</title>
<polygon fill="white" stroke="transparent" points="-4,4 -4,-1879 753.1,-1879 753.1,4 -4,4"/>
<!-- Node1 -->
<g id="node1" class="node">
<title>Node1</title>
<g id="a_node1"><a xlink:title="Implementação de animal com Classe e Categoria.">
<polygon fill="#bfbfbf" stroke="black" points="537.6,-0.5 537.6,-134.5 708.6,-134.5 708.6,-0.5 537.6,-0.5"/>
<text text-anchor="middle" x="623.1" y="-114.5" font-family="Helvetica,sans-Serif" font-size="20.00">AveNativa</text>
<polyline fill="none" stroke="black" points="537.6,-104.5 708.6,-104.5 "/>
<text text-anchor="middle" x="623.1" y="-84.5" font-family="Helvetica,sans-Serif" font-size="20.00"> </text>
<polyline fill="none" stroke="black" points="537.6,-74.5 708.6,-74.5 "/>
<text text-anchor="start" x="545.6" y="-54.5" font-family="Helvetica,sans-Serif" font-size="20.00">+ AveNativa()</text>
<text text-anchor="start" x="545.6" y="-32.5" font-family="Helvetica,sans-Serif" font-size="20.00">+ AveNativa()</text>
<text text-anchor="start" x="545.6" y="-10.5" font-family="Helvetica,sans-Serif" font-size="20.00">+ ~AveNativa()</text>
</a>
</g>
</g>
<!-- Node2 -->
<g id="node2" class="node">
<title>Node2</title>
<g id="a_node2"><a xlink:href="classAve.html" target="_top" xlink:title="Classificação base para Aves.">
<polygon fill="white" stroke="black" points="518.1,-172.5 518.1,-372.5 640.1,-372.5 640.1,-172.5 518.1,-172.5"/>
<text text-anchor="middle" x="579.1" y="-352.5" font-family="Helvetica,sans-Serif" font-size="20.00">Ave</text>
<polyline fill="none" stroke="black" points="518.1,-342.5 640.1,-342.5 "/>
<text text-anchor="middle" x="579.1" y="-322.5" font-family="Helvetica,sans-Serif" font-size="20.00"> </text>
<polyline fill="none" stroke="black" points="518.1,-312.5 640.1,-312.5 "/>
<text text-anchor="start" x="526.1" y="-292.5" font-family="Helvetica,sans-Serif" font-size="20.00">+ Ave()</text>
<text text-anchor="start" x="526.1" y="-270.5" font-family="Helvetica,sans-Serif" font-size="20.00">+ Ave()</text>
<text text-anchor="start" x="526.1" y="-248.5" font-family="Helvetica,sans-Serif" font-size="20.00">+ ~Ave()</text>
<text text-anchor="start" x="526.1" y="-226.5" font-family="Helvetica,sans-Serif" font-size="20.00">+ getVoa()</text>
<text text-anchor="start" x="526.1" y="-204.5" font-family="Helvetica,sans-Serif" font-size="20.00">+ setVoa()</text>
<text text-anchor="start" x="526.1" y="-182.5" font-family="Helvetica,sans-Serif" font-size="20.00">+ setVoa()</text>
</a>
</g>
</g>
<!-- Node2&#45;&gt;Node1 -->
<g id="edge1" class="edge">
<title>Node2&#45;&gt;Node1</title>
<path fill="none" stroke="midnightblue" d="M602.73,-162.5C604.78,-153.03 606.81,-143.65 608.75,-134.69"/>
<polygon fill="none" stroke="midnightblue" points="599.28,-161.86 600.59,-172.38 606.13,-163.35 599.28,-161.86"/>
</g>
<!-- Node3 -->
<g id="node3" class="node">
<title>Node3</title>
<g id="a_node3"><a xlink:href="classAnimal.html" target="_top" xlink:title="Implementação base para o cadastro de animais.">
<polygon fill="white" stroke="black" points="218.6,-410.5 218.6,-720.5 441.6,-720.5 441.6,-410.5 218.6,-410.5"/>
<text text-anchor="middle" x="330.1" y="-700.5" font-family="Helvetica,sans-Serif" font-size="20.00">Animal</text>
<polyline fill="none" stroke="black" points="218.6,-690.5 441.6,-690.5 "/>
<text text-anchor="middle" x="330.1" y="-670.5" font-family="Helvetica,sans-Serif" font-size="20.00"> </text>
<polyline fill="none" stroke="black" points="218.6,-660.5 441.6,-660.5 "/>
<text text-anchor="start" x="226.6" y="-640.5" font-family="Helvetica,sans-Serif" font-size="20.00">+ Animal()</text>
<text text-anchor="start" x="226.6" y="-618.5" font-family="Helvetica,sans-Serif" font-size="20.00">+ Animal()</text>
<text text-anchor="start" x="226.6" y="-596.5" font-family="Helvetica,sans-Serif" font-size="20.00">+ ~Animal()</text>
<text text-anchor="start" x="226.6" y="-574.5" font-family="Helvetica,sans-Serif" font-size="20.00">+ getNome()</text>
<text text-anchor="start" x="226.6" y="-552.5" font-family="Helvetica,sans-Serif" font-size="20.00">+ getEspecie()</text>
<text text-anchor="start" x="226.6" y="-530.5" font-family="Helvetica,sans-Serif" font-size="20.00">+ getAmeacadoPor()</text>
<text text-anchor="start" x="226.6" y="-508.5" font-family="Helvetica,sans-Serif" font-size="20.00">+ getVeterinario()</text>
<text text-anchor="start" x="226.6" y="-486.5" font-family="Helvetica,sans-Serif" font-size="20.00">+ getTratador()</text>
<text text-anchor="start" x="226.6" y="-464.5" font-family="Helvetica,sans-Serif" font-size="20.00">+ getPerigoso()</text>
<text text-anchor="start" x="226.6" y="-442.5" font-family="Helvetica,sans-Serif" font-size="20.00">+ setNome()</text>
<text text-anchor="start" x="226.6" y="-420.5" font-family="Helvetica,sans-Serif" font-size="20.00">e 15 mais...</text>
</a>
</g>
</g>
<!-- Node3&#45;&gt;Node2 -->
<g id="edge2" class="edge">
<title>Node3&#45;&gt;Node2</title>
<path fill="none" stroke="midnightblue" d="M448.6,-426.01C472.56,-398.01 496.82,-369.66 517.81,-345.13"/>
<polygon fill="none" stroke="midnightblue" points="445.7,-424.02 441.86,-433.9 451.02,-428.57 445.7,-424.02"/>
</g>
<!-- Node4 -->
<g id="node4" class="node">
<title>Node4</title>
<g id="a_node4"><a xlink:href="classTratador.html" target="_top" xlink:title="Implementação dos tratadores.">
<polygon fill="white" stroke="black" points="295.1,-779.5 295.1,-1001.5 495.1,-1001.5 495.1,-779.5 295.1,-779.5"/>
<text text-anchor="middle" x="395.1" y="-981.5" font-family="Helvetica,sans-Serif" font-size="20.00">Tratador</text>
<polyline fill="none" stroke="black" points="295.1,-971.5 495.1,-971.5 "/>
<text text-anchor="middle" x="395.1" y="-951.5" font-family="Helvetica,sans-Serif" font-size="20.00"> </text>
<polyline fill="none" stroke="black" points="295.1,-941.5 495.1,-941.5 "/>
<text text-anchor="start" x="303.1" y="-921.5" font-family="Helvetica,sans-Serif" font-size="20.00">+ Tratador()</text>
<text text-anchor="start" x="303.1" y="-899.5" font-family="Helvetica,sans-Serif" font-size="20.00">+ Tratador()</text>
<text text-anchor="start" x="303.1" y="-877.5" font-family="Helvetica,sans-Serif" font-size="20.00">+ ~Tratador()</text>
<text text-anchor="start" x="303.1" y="-855.5" font-family="Helvetica,sans-Serif" font-size="20.00">+ getUniforme()</text>
<text text-anchor="start" x="303.1" y="-833.5" font-family="Helvetica,sans-Serif" font-size="20.00">+ setUniforme()</text>
<text text-anchor="start" x="303.1" y="-811.5" font-family="Helvetica,sans-Serif" font-size="20.00">+ setUniforme()</text>
<text text-anchor="start" x="303.1" y="-789.5" font-family="Helvetica,sans-Serif" font-size="20.00">+ printOutDados()</text>
</a>
</g>
</g>
<!-- Node4&#45;&gt;Node3 -->
<g id="edge3" class="edge">
<title>Node4&#45;&gt;Node3</title>
<path fill="none" stroke="#404040" d="M336.34,-779.24C334.32,-773.16 332.54,-767.06 331.1,-761 328.93,-751.88 327.22,-742.44 325.89,-732.87"/>
<polygon fill="none" stroke="#404040" points="325.86,-732.61 321.17,-727.13 324.41,-720.7 329.11,-726.17 325.86,-732.61"/>
<text text-anchor="middle" x="382.6" y="-745" font-family="Helvetica,sans-Serif" font-size="20.00"> #tratador</text>
</g>
<!-- Node5 -->
<g id="node5" class="node">
<title>Node5</title>
<g id="a_node5"><a xlink:href="classPessoa.html" target="_top" xlink:title="Classe base dos funcionarios.">
<polygon fill="white" stroke="black" points="268.1,-1305.5 268.1,-1681.5 468.1,-1681.5 468.1,-1305.5 268.1,-1305.5"/>
<text text-anchor="middle" x="368.1" y="-1661.5" font-family="Helvetica,sans-Serif" font-size="20.00">Pessoa</text>
<polyline fill="none" stroke="black" points="268.1,-1651.5 468.1,-1651.5 "/>
<text text-anchor="middle" x="368.1" y="-1631.5" font-family="Helvetica,sans-Serif" font-size="20.00"> </text>
<polyline fill="none" stroke="black" points="268.1,-1621.5 468.1,-1621.5 "/>
<text text-anchor="start" x="276.1" y="-1601.5" font-family="Helvetica,sans-Serif" font-size="20.00">+ Pessoa()</text>
<text text-anchor="start" x="276.1" y="-1579.5" font-family="Helvetica,sans-Serif" font-size="20.00">+ Pessoa()</text>
<text text-anchor="start" x="276.1" y="-1557.5" font-family="Helvetica,sans-Serif" font-size="20.00">+ ~Pessoa()</text>
<text text-anchor="start" x="276.1" y="-1535.5" font-family="Helvetica,sans-Serif" font-size="20.00">+ getNome()</text>
<text text-anchor="start" x="276.1" y="-1513.5" font-family="Helvetica,sans-Serif" font-size="20.00">+ setNome()</text>
<text text-anchor="start" x="276.1" y="-1491.5" font-family="Helvetica,sans-Serif" font-size="20.00">+ setNome()</text>
<text text-anchor="start" x="276.1" y="-1469.5" font-family="Helvetica,sans-Serif" font-size="20.00">+ getTelefone()</text>
<text text-anchor="start" x="276.1" y="-1447.5" font-family="Helvetica,sans-Serif" font-size="20.00">+ setTelefone()</text>
<text text-anchor="start" x="276.1" y="-1425.5" font-family="Helvetica,sans-Serif" font-size="20.00">+ setTelefone()</text>
<text text-anchor="start" x="276.1" y="-1403.5" font-family="Helvetica,sans-Serif" font-size="20.00">+ getEmail()</text>
<text text-anchor="start" x="276.1" y="-1381.5" font-family="Helvetica,sans-Serif" font-size="20.00">+ setEmail()</text>
<text text-anchor="start" x="276.1" y="-1359.5" font-family="Helvetica,sans-Serif" font-size="20.00">+ setEmail()</text>
<text text-anchor="start" x="276.1" y="-1337.5" font-family="Helvetica,sans-Serif" font-size="20.00">+ printOutDados()</text>
<text text-anchor="start" x="276.1" y="-1315.5" font-family="Helvetica,sans-Serif" font-size="20.00">+ operator==()</text>
</a>
</g>
</g>
<!-- Node5&#45;&gt;Node4 -->
<g id="edge4" class="edge">
<title>Node5&#45;&gt;Node4</title>
<path fill="none" stroke="midnightblue" d="M376.98,-1294.95C381.35,-1197.57 386.46,-1083.79 390.14,-1001.92"/>
<polygon fill="none" stroke="midnightblue" points="373.47,-1295.08 376.52,-1305.22 380.46,-1295.39 373.47,-1295.08"/>
</g>
<!-- Node9 -->
<g id="node9" class="node">
<title>Node9</title>
<g id="a_node9"><a xlink:href="classVeterinario.html" target="_top" xlink:title="Implementação dos veterinarios.">
<polygon fill="white" stroke="black" points="77.1,-779.5 77.1,-1001.5 277.1,-1001.5 277.1,-779.5 77.1,-779.5"/>
<text text-anchor="middle" x="177.1" y="-981.5" font-family="Helvetica,sans-Serif" font-size="20.00">Veterinario</text>
<polyline fill="none" stroke="black" points="77.1,-971.5 277.1,-971.5 "/>
<text text-anchor="middle" x="177.1" y="-951.5" font-family="Helvetica,sans-Serif" font-size="20.00"> </text>
<polyline fill="none" stroke="black" points="77.1,-941.5 277.1,-941.5 "/>
<text text-anchor="start" x="85.1" y="-921.5" font-family="Helvetica,sans-Serif" font-size="20.00">+ Veterinario()</text>
<text text-anchor="start" x="85.1" y="-899.5" font-family="Helvetica,sans-Serif" font-size="20.00">+ Veterinario()</text>
<text text-anchor="start" x="85.1" y="-877.5" font-family="Helvetica,sans-Serif" font-size="20.00">+ ~Veterinario()</text>
<text text-anchor="start" x="85.1" y="-855.5" font-family="Helvetica,sans-Serif" font-size="20.00">+ getCRMV()</text>
<text text-anchor="start" x="85.1" y="-833.5" font-family="Helvetica,sans-Serif" font-size="20.00">+ setCRMV()</text>
<text text-anchor="start" x="85.1" y="-811.5" font-family="Helvetica,sans-Serif" font-size="20.00">+ setCRMV()</text>
<text text-anchor="start" x="85.1" y="-789.5" font-family="Helvetica,sans-Serif" font-size="20.00">+ printOutDados()</text>
</a>
</g>
</g>
<!-- Node5&#45;&gt;Node9 -->
<g id="edge10" class="edge">
<title>Node5&#45;&gt;Node9</title>
<path fill="none" stroke="midnightblue" d="M305.51,-1295.54C274.52,-1198.03 238.26,-1083.95 212.2,-1001.92"/>
<polygon fill="none" stroke="midnightblue" points="302.22,-1296.75 308.58,-1305.22 308.89,-1294.63 302.22,-1296.75"/>
</g>
<!-- Node6 -->
<g id="node6" class="node">
<title>Node6</title>
<g id="a_node6"><a xlink:title=" ">
<polygon fill="white" stroke="#bfbfbf" points="235.1,-1784.5 235.1,-1874.5 309.1,-1874.5 309.1,-1784.5 235.1,-1784.5"/>
<text text-anchor="middle" x="272.1" y="-1854.5" font-family="Helvetica,sans-Serif" font-size="20.00">string</text>
<polyline fill="none" stroke="#bfbfbf" points="235.1,-1844.5 309.1,-1844.5 "/>
<text text-anchor="middle" x="272.1" y="-1824.5" font-family="Helvetica,sans-Serif" font-size="20.00"> </text>
<polyline fill="none" stroke="#bfbfbf" points="235.1,-1814.5 309.1,-1814.5 "/>
<text text-anchor="middle" x="272.1" y="-1794.5" font-family="Helvetica,sans-Serif" font-size="20.00"> </text>
</a>
</g>
</g>
<!-- Node6&#45;&gt;Node3 -->
<g id="edge8" class="edge">
<title>Node6&#45;&gt;Node3</title>
<path fill="none" stroke="#404040" d="M235.08,-1807.42C219.09,-1796.76 201.3,-1782.55 189.1,-1766 -12.74,-1492.08 -18.31,-1358.41 17.1,-1020 28.5,-911.11 10.98,-872.4 68.1,-779 102.62,-722.56 157.7,-674.55 208.46,-638.52"/>
<polygon fill="none" stroke="#404040" points="208.71,-638.35 211.34,-631.63 218.55,-631.48 215.92,-638.19 208.71,-638.35"/>
<text text-anchor="middle" x="93.1" y="-1170.5" font-family="Helvetica,sans-Serif" font-size="20.00"> #especie</text>
<text text-anchor="middle" x="93.1" y="-1148.5" font-family="Helvetica,sans-Serif" font-size="20.00">#ameacadoPor</text>
<text text-anchor="middle" x="93.1" y="-1126.5" font-family="Helvetica,sans-Serif" font-size="20.00">#nome</text>
</g>
<!-- Node6&#45;&gt;Node5 -->
<g id="edge5" class="edge">
<title>Node6&#45;&gt;Node5</title>
<path fill="none" stroke="#404040" d="M284.75,-1784.49C291.8,-1759.98 301.12,-1727.54 310.98,-1693.25"/>
<polygon fill="none" stroke="#404040" points="311.02,-1693.09 308.84,-1686.22 314.34,-1681.56 316.52,-1688.43 311.02,-1693.09"/>
<text text-anchor="middle" x="357.6" y="-1750" font-family="Helvetica,sans-Serif" font-size="20.00"> #email</text>
<text text-anchor="middle" x="357.6" y="-1728" font-family="Helvetica,sans-Serif" font-size="20.00">#nome</text>
<text text-anchor="middle" x="357.6" y="-1706" font-family="Helvetica,sans-Serif" font-size="20.00">#telefone</text>
</g>
<!-- Node6&#45;&gt;Node9 -->
<g id="edge11" class="edge">
<title>Node6&#45;&gt;Node9</title>
<path fill="none" stroke="#404040" d="M238.01,-1784.45C218.73,-1756.71 196.45,-1719.22 186.1,-1682 168.76,-1619.6 172.1,-1219.53 175.05,-1013.61"/>
<polygon fill="none" stroke="#404040" points="175.05,-1013.54 171.14,-1007.48 175.22,-1001.54 179.14,-1007.59 175.05,-1013.54"/>
<text text-anchor="middle" x="222.6" y="-1488.5" font-family="Helvetica,sans-Serif" font-size="20.00"> &#45;CRMV</text>
</g>
<!-- Node10 -->
<g id="node10" class="node">
<title>Node10</title>
<g id="a_node10"><a xlink:href="classNativo.html" target="_top" xlink:title="Umas das definições de categoria para Animal.">
<polygon fill="white" stroke="black" points="587.1,-1020.5 587.1,-1286.5 749.1,-1286.5 749.1,-1020.5 587.1,-1020.5"/>
<text text-anchor="middle" x="668.1" y="-1266.5" font-family="Helvetica,sans-Serif" font-size="20.00">Nativo</text>
<polyline fill="none" stroke="black" points="587.1,-1256.5 749.1,-1256.5 "/>
<text text-anchor="middle" x="668.1" y="-1236.5" font-family="Helvetica,sans-Serif" font-size="20.00"> </text>
<polyline fill="none" stroke="black" points="587.1,-1226.5 749.1,-1226.5 "/>
<text text-anchor="start" x="595.1" y="-1206.5" font-family="Helvetica,sans-Serif" font-size="20.00">+ Nativo()</text>
<text text-anchor="start" x="595.1" y="-1184.5" font-family="Helvetica,sans-Serif" font-size="20.00">+ Nativo()</text>
<text text-anchor="start" x="595.1" y="-1162.5" font-family="Helvetica,sans-Serif" font-size="20.00">+ ~Nativo()</text>
<text text-anchor="start" x="595.1" y="-1140.5" font-family="Helvetica,sans-Serif" font-size="20.00">+ getRegiao()</text>
<text text-anchor="start" x="595.1" y="-1118.5" font-family="Helvetica,sans-Serif" font-size="20.00">+ setRegiao()</text>
<text text-anchor="start" x="595.1" y="-1096.5" font-family="Helvetica,sans-Serif" font-size="20.00">+ setRegiao()</text>
<text text-anchor="start" x="595.1" y="-1074.5" font-family="Helvetica,sans-Serif" font-size="20.00">+ getLicenca()</text>
<text text-anchor="start" x="595.1" y="-1052.5" font-family="Helvetica,sans-Serif" font-size="20.00">+ setLicenca()</text>
<text text-anchor="start" x="595.1" y="-1030.5" font-family="Helvetica,sans-Serif" font-size="20.00">+ setLicenca()</text>
</a>
</g>
</g>
<!-- Node6&#45;&gt;Node10 -->
<g id="edge14" class="edge">
<title>Node6&#45;&gt;Node10</title>
<path fill="none" stroke="#404040" d="M309.12,-1823.9C379.04,-1813.07 529.98,-1779.13 602.1,-1682 683.48,-1572.42 692.86,-1413.4 686.27,-1298.64"/>
<polygon fill="none" stroke="#404040" points="686.27,-1298.6 681.9,-1292.86 685.51,-1286.62 689.88,-1292.36 686.27,-1298.6"/>
<text text-anchor="middle" x="631.6" y="-1739" font-family="Helvetica,sans-Serif" font-size="20.00"> #licenca</text>
<text text-anchor="middle" x="631.6" y="-1717" font-family="Helvetica,sans-Serif" font-size="20.00">#regiao</text>
</g>
<!-- Node7 -->
<g id="node7" class="node">
<title>Node7</title>
<g id="a_node7"><a xlink:title=" ">
<polygon fill="white" stroke="#bfbfbf" points="486.6,-1448.5 486.6,-1538.5 593.6,-1538.5 593.6,-1448.5 486.6,-1448.5"/>
<text text-anchor="middle" x="540.1" y="-1518.5" font-family="Helvetica,sans-Serif" font-size="20.00">Uniforme</text>
<polyline fill="none" stroke="#bfbfbf" points="486.6,-1508.5 593.6,-1508.5 "/>
<text text-anchor="middle" x="540.1" y="-1488.5" font-family="Helvetica,sans-Serif" font-size="20.00"> </text>
<polyline fill="none" stroke="#bfbfbf" points="486.6,-1478.5 593.6,-1478.5 "/>
<text text-anchor="middle" x="540.1" y="-1458.5" font-family="Helvetica,sans-Serif" font-size="20.00"> </text>
</a>
</g>
</g>
<!-- Node7&#45;&gt;Node4 -->
<g id="edge6" class="edge">
<title>Node7&#45;&gt;Node4</title>
<path fill="none" stroke="#404040" d="M524.65,-1448.4C510.52,-1407.05 489.66,-1343.34 475.1,-1287 451.63,-1196.2 430.83,-1092.2 416.32,-1013.65"/>
<polygon fill="none" stroke="#404040" points="416.31,-1013.56 411.29,-1008.38 414.14,-1001.76 419.16,-1006.94 416.31,-1013.56"/>
<text text-anchor="middle" x="526.6" y="-1148.5" font-family="Helvetica,sans-Serif" font-size="20.00"> &#45;uniforme</text>
</g>
<!-- Node8 -->
<g id="node8" class="node">
<title>Node8</title>
<g id="a_node8"><a xlink:title=" ">
<polygon fill="white" stroke="#bfbfbf" points="532.6,-845.5 532.6,-935.5 591.6,-935.5 591.6,-845.5 532.6,-845.5"/>
<text text-anchor="middle" x="562.1" y="-915.5" font-family="Helvetica,sans-Serif" font-size="20.00">bool</text>
<polyline fill="none" stroke="#bfbfbf" points="532.6,-905.5 591.6,-905.5 "/>
<text text-anchor="middle" x="562.1" y="-885.5" font-family="Helvetica,sans-Serif" font-size="20.00"> </text>
<polyline fill="none" stroke="#bfbfbf" points="532.6,-875.5 591.6,-875.5 "/>
<text text-anchor="middle" x="562.1" y="-855.5" font-family="Helvetica,sans-Serif" font-size="20.00"> </text>
</a>
</g>
</g>
<!-- Node8&#45;&gt;Node2 -->
<g id="edge12" class="edge">
<title>Node8&#45;&gt;Node2</title>
<path fill="none" stroke="#404040" d="M563.52,-845.49C564.31,-820.68 565.29,-789.11 566.1,-761 569.83,-632.03 573.73,-483.85 576.27,-385.04"/>
<polygon fill="none" stroke="#404040" points="576.27,-384.94 572.43,-378.83 576.58,-372.94 580.42,-379.04 576.27,-384.94"/>
<text text-anchor="middle" x="605.6" y="-560.5" font-family="Helvetica,sans-Serif" font-size="20.00"> #voa</text>
</g>
<!-- Node8&#45;&gt;Node3 -->
<g id="edge7" class="edge">
<title>Node8&#45;&gt;Node3</title>
<path fill="none" stroke="#404040" d="M547.53,-845.35C538.19,-822.9 524.02,-796.7 504.1,-779 487.38,-764.14 474.51,-775.05 457.1,-761 449.45,-754.83 440.11,-743.95 430,-730.39"/>
<polygon fill="none" stroke="#404040" points="429.94,-730.3 423.18,-727.8 422.89,-720.59 429.65,-723.1 429.94,-730.3"/>
<text text-anchor="middle" x="511.6" y="-745" font-family="Helvetica,sans-Serif" font-size="20.00"> #perigoso</text>
</g>
<!-- Node9&#45;&gt;Node3 -->
<g id="edge9" class="edge">
<title>Node9&#45;&gt;Node3</title>
<path fill="none" stroke="#404040" d="M181.53,-779.19C184.19,-765.36 187.93,-751.64 193.1,-739 198.37,-726.14 204.89,-713.46 212.22,-701.16"/>
<polygon fill="none" stroke="#404040" points="212.24,-701.13 212,-693.92 218.56,-690.93 218.8,-698.13 212.24,-701.13"/>
<text text-anchor="middle" x="258.1" y="-745" font-family="Helvetica,sans-Serif" font-size="20.00"> #veterinario</text>
</g>
<!-- Node10&#45;&gt;Node1 -->
<g id="edge13" class="edge">
<title>Node10&#45;&gt;Node1</title>
<path fill="none" stroke="midnightblue" d="M668.1,-1010.27C668.1,-933.49 668.1,-837.06 668.1,-751 668.1,-751 668.1,-751 668.1,-271.5 668.1,-225.11 656.76,-174.15 645.47,-134.89"/>
<polygon fill="none" stroke="midnightblue" points="664.6,-1010.49 668.1,-1020.49 671.6,-1010.49 664.6,-1010.49"/>
</g>
</g>
</svg>
        <g id="navigator" transform="translate(0 0)" fill="#404254">
                <rect fill="#f2f5e9" fill-opacity="0.5" stroke="#606060" stroke-width=".5" x="0" y="0" width="60" height="60"/>
                <use id="zoomplus" xlink:href="#zoomPlus" x="17" y="9" onmousedown="handleZoom(evt,'in')"/>
                <use id="zoomminus" xlink:href="#zoomMin" x="42" y="9" onmousedown="handleZoom(evt,'out')"/>
                <use id="reset" xlink:href="#resetDef" x="30" y="36" onmousedown="handleReset()"/>
                <g id="arrowUp" xlink:href="#dirArrow" transform="translate(30 24)" onmousedown="handlePan(0,-1)">
                  <use xlink:href="#rim" fill="#404040">
                        <set attributeName="fill" to="#808080" begin="arrowUp.mouseover" end="arrowUp.mouseout"/>
                  </use>
                  <path fill="none" stroke="white" stroke-width="1.5" d="M0,-3.0v7 M-2.5,-0.5L0,-3.0L2.5,-0.5"/>
                </g>
                <g id="arrowRight" xlink:href="#dirArrow" transform="rotate(90) translate(36 -43)" onmousedown="handlePan(1,0)">
                  <use xlink:href="#rim" fill="#404040">
                        <set attributeName="fill" to="#808080" begin="arrowRight.mouseover" end="arrowRight.mouseout"/>
                  </use>
                  <path fill="none" stroke="white" stroke-width="1.5" d="M0,-3.0v7 M-2.5,-0.5L0,-3.0L2.5,-0.5"/>
                </g>
                <g id="arrowDown" xlink:href="#dirArrow" transform="rotate(180) translate(-30 -48)" onmousedown="handlePan(0,1)">
                  <use xlink:href="#rim" fill="#404040">
                        <set attributeName="fill" to="#808080" begin="arrowDown.mouseover" end="arrowDown.mouseout"/>
                  </use>
                  <path fill="none" stroke="white" stroke-width="1.5" d="M0,-3.0v7 M-2.5,-0.5L0,-3.0L2.5,-0.5"/>
                </g>
                <g id="arrowLeft" xlink:href="#dirArrow" transform="rotate(270) translate(-36 17)" onmousedown="handlePan(-1,0)">
                  <use xlink:href="#rim" fill="#404040">
                        <set attributeName="fill" to="#808080" begin="arrowLeft.mouseover" end="arrowLeft.mouseout"/>
                  </use>
                  <path fill="none" stroke="white" stroke-width="1.5" d="M0,-3.0v7 M-2.5,-0.5L0,-3.0L2.5,-0.5"/>
                </g>
        </g>
        <svg viewBox="0 0 15 15" width="100%" height="30px" preserveAspectRatio="xMaxYMin meet">
         <g id="arrow_out" transform="scale(0.3 0.3)">
          <a xlink:href="classAveNativa__coll__graph_org.svg" target="_base">
           <rect id="button" ry="5" rx="5" y="6" x="6" height="38" width="38"
                fill="#f2f5e9" fill-opacity="0.5" stroke="#606060" stroke-width="1.0"/>
           <path id="arrow"
             d="M 11.500037,31.436501 C 11.940474,20.09759 22.043105,11.32322 32.158766,21.979434 L 37.068811,17.246167 C 37.068811,17.246167 37.088388,32 37.088388,32 L 22.160133,31.978069 C 22.160133,31.978069 26.997745,27.140456 26.997745,27.140456 C 18.528582,18.264221 13.291696,25.230495 11.500037,31.436501 z"
             style="fill:#404040;"/>
          </a>
         </g>
        </svg>
</svg>
