<?xml version="1.0" encoding="UTF-8" standalone="no"?>
<!DOCTYPE svg PUBLIC "-//W3C//DTD SVG 1.1//EN"
 "http://www.w3.org/Graphics/SVG/1.1/DTD/svg11.dtd">
<!-- Generated by graphviz version 2.43.0 (0)
 -->
<!-- Title: MamiferoExotico Pages: 1 -->
<!--zoomable 1553 -->
<svg id="main" version="1.1" xmlns="http://www.w3.org/2000/svg" xmlns:xlink="http://www.w3.org/1999/xlink" xml:space="preserve" onload="init(evt)">
<style type="text/css"><![CDATA[
.edge:hover path { stroke: red; }
.edge:hover polygon { stroke: red; fill: red; }
]]></style>
<script type="text/javascript"><![CDATA[
var edges = document.getElementsByTagName('g');
if (edges && edges.length) {
  for (var i=0;i<edges.length;i++) {
    if (edges[i].id.substr(0,4)=='edge') {
      edges[i].setAttribute('class','edge');
    }
  }
}
]]></script>
        <defs>
                <circle id="rim" cx="0" cy="0" r="7"/>
                <circle id="rim2" cx="0" cy="0" r="3.5"/>
                <g id="zoomPlus">
                        <use xlink:href="#rim" fill="#404040">
                                <set attributeName="fill" to="#808080" begin="zoomplus.mouseover" end="zoomplus.mouseout"/>
                        </use>
                        <path d="M-4,0h8M0,-4v8" fill="none" stroke="white" stroke-width="1.5" pointer-events="none"/>
                </g>
                <g id="zoomMin">
                        <use xlink:href="#rim" fill="#404040">
                                <set attributeName="fill" to="#808080" begin="zoomminus.mouseover" end="zoomminus.mouseout"/>
                        </use>
                        <path d="M-4,0h8" fill="none" stroke="white" stroke-width="1.5" pointer-events="none"/>
                </g>
                <g id="dirArrow">
                        <path fill="none" stroke="white" stroke-width="1.5" d="M0,-3.0v7 M-2.5,-0.5L0,-3.0L2.5,-0.5"/>
                </g>
               <g id="resetDef">
                       <use xlink:href="#rim2" fill="#404040">
                               <set attributeName="fill" to="#808080" begin="reset.mouseover" end="reset.mouseout"/>
                       </use>
               </g>
        </defs>

<script type="text/javascript">
var viewWidth = 795;
var viewHeight = 1553;
var sectionId = 'dynsection-1';
</script>
<script xlink:href="svgpan.js"/>
<svg id="graph" class="graph">
<g id="viewport">
<title>MamiferoExotico</title>
<polygon fill="white" stroke="transparent" points="-4,4 -4,-1549 790.54,-1549 790.54,4 -4,4"/>
<!-- Node1 -->
<g id="node1" class="node">
<title>Node1</title>
<g id="a_node1"><a xlink:title="Implementação de animal com Classe e Categoria.">
<polygon fill="#bfbfbf" stroke="black" points="526.54,-0.5 526.54,-112.5 761.54,-112.5 761.54,-0.5 526.54,-0.5"/>
<text text-anchor="middle" x="644.04" y="-92.5" font-family="Helvetica,sans-Serif" font-size="20.00">MamiferoExotico</text>
<polyline fill="none" stroke="black" points="526.54,-82.5 761.54,-82.5 "/>
<text text-anchor="middle" x="644.04" y="-62.5" font-family="Helvetica,sans-Serif" font-size="20.00"> </text>
<polyline fill="none" stroke="black" points="526.54,-52.5 761.54,-52.5 "/>
<text text-anchor="start" x="534.54" y="-32.5" font-family="Helvetica,sans-Serif" font-size="20.00">+ MamiferoExotico()</text>
<text text-anchor="start" x="534.54" y="-10.5" font-family="Helvetica,sans-Serif" font-size="20.00">+ ~MamiferoExotico()</text>
</a>
</g>
</g>
<!-- Node2 -->
<g id="node2" class="node">
<title>Node2</title>
<g id="a_node2"><a xlink:href="classMamifero.html" target="_top" xlink:title="Classificação base para Mamiferos.">
<polygon fill="white" stroke="black" points="484.54,-150.5 484.54,-284.5 663.54,-284.5 663.54,-150.5 484.54,-150.5"/>
<text text-anchor="middle" x="574.04" y="-264.5" font-family="Helvetica,sans-Serif" font-size="20.00">Mamifero</text>
<polyline fill="none" stroke="black" points="484.54,-254.5 663.54,-254.5 "/>
<text text-anchor="middle" x="574.04" y="-234.5" font-family="Helvetica,sans-Serif" font-size="20.00"> </text>
<polyline fill="none" stroke="black" points="484.54,-224.5 663.54,-224.5 "/>
<text text-anchor="start" x="492.54" y="-204.5" font-family="Helvetica,sans-Serif" font-size="20.00">+ Mamifero()</text>
<text text-anchor="start" x="492.54" y="-182.5" font-family="Helvetica,sans-Serif" font-size="20.00">+ ~Mamifero()</text>
<text text-anchor="start" x="492.54" y="-160.5" font-family="Helvetica,sans-Serif" font-size="20.00">+ getGestacao()</text>
</a>
</g>
</g>
<!-- Node2&#45;&gt;Node1 -->
<g id="edge1" class="edge">
<title>Node2&#45;&gt;Node1</title>
<path fill="none" stroke="midnightblue" d="M607.26,-141.04C611.42,-131.59 615.61,-122.06 619.61,-112.99"/>
<polygon fill="none" stroke="midnightblue" points="603.94,-139.89 603.11,-150.45 610.35,-142.71 603.94,-139.89"/>
</g>
<!-- Node3 -->
<g id="node3" class="node">
<title>Node3</title>
<g id="a_node3"><a xlink:href="classAnimal.html" target="_top" xlink:title="Implementação base para o cadastro de animais.">
<polygon fill="white" stroke="black" points="212.54,-322.5 212.54,-676.5 435.54,-676.5 435.54,-322.5 212.54,-322.5"/>
<text text-anchor="middle" x="324.04" y="-656.5" font-family="Helvetica,sans-Serif" font-size="20.00">Animal</text>
<polyline fill="none" stroke="black" points="212.54,-646.5 435.54,-646.5 "/>
<text text-anchor="middle" x="324.04" y="-626.5" font-family="Helvetica,sans-Serif" font-size="20.00"> </text>
<polyline fill="none" stroke="black" points="212.54,-616.5 435.54,-616.5 "/>
<text text-anchor="start" x="220.54" y="-596.5" font-family="Helvetica,sans-Serif" font-size="20.00">+ Animal()</text>
<text text-anchor="start" x="220.54" y="-574.5" font-family="Helvetica,sans-Serif" font-size="20.00">+ Animal()</text>
<text text-anchor="start" x="220.54" y="-552.5" font-family="Helvetica,sans-Serif" font-size="20.00">+ ~Animal()</text>
<text text-anchor="start" x="220.54" y="-530.5" font-family="Helvetica,sans-Serif" font-size="20.00">+ getNome()</text>
<text text-anchor="start" x="220.54" y="-508.5" font-family="Helvetica,sans-Serif" font-size="20.00">+ getEspecie()</text>
<text text-anchor="start" x="220.54" y="-486.5" font-family="Helvetica,sans-Serif" font-size="20.00">+ getAmeacadoPor()</text>
<text text-anchor="start" x="220.54" y="-464.5" font-family="Helvetica,sans-Serif" font-size="20.00">+ getVeterinario()</text>
<text text-anchor="start" x="220.54" y="-442.5" font-family="Helvetica,sans-Serif" font-size="20.00">+ getTratador()</text>
<text text-anchor="start" x="220.54" y="-420.5" font-family="Helvetica,sans-Serif" font-size="20.00">+ getPerigoso()</text>
<text text-anchor="start" x="220.54" y="-398.5" font-family="Helvetica,sans-Serif" font-size="20.00">+ getClassificacao()</text>
<text text-anchor="start" x="220.54" y="-376.5" font-family="Helvetica,sans-Serif" font-size="20.00">+ getClasse()</text>
<text text-anchor="start" x="220.54" y="-354.5" font-family="Helvetica,sans-Serif" font-size="20.00">+ printOutDados()</text>
<text text-anchor="start" x="220.54" y="-332.5" font-family="Helvetica,sans-Serif" font-size="20.00">+ operator==()</text>
</a>
</g>
</g>
<!-- Node3&#45;&gt;Node2 -->
<g id="edge2" class="edge">
<title>Node3&#45;&gt;Node2</title>
<path fill="none" stroke="midnightblue" d="M442.61,-365.7C467.76,-337.52 493.27,-308.96 515.03,-284.58"/>
<polygon fill="none" stroke="midnightblue" points="439.92,-363.45 435.87,-373.24 445.14,-368.11 439.92,-363.45"/>
</g>
<!-- Node4 -->
<g id="node4" class="node">
<title>Node4</title>
<g id="a_node4"><a xlink:href="classTratador.html" target="_top" xlink:title="Implementação dos tratadores.">
<polygon fill="white" stroke="black" points="290.04,-735.5 290.04,-913.5 490.04,-913.5 490.04,-735.5 290.04,-735.5"/>
<text text-anchor="middle" x="390.04" y="-893.5" font-family="Helvetica,sans-Serif" font-size="20.00">Tratador</text>
<polyline fill="none" stroke="black" points="290.04,-883.5 490.04,-883.5 "/>
<text text-anchor="middle" x="390.04" y="-863.5" font-family="Helvetica,sans-Serif" font-size="20.00"> </text>
<polyline fill="none" stroke="black" points="290.04,-853.5 490.04,-853.5 "/>
<text text-anchor="start" x="298.04" y="-833.5" font-family="Helvetica,sans-Serif" font-size="20.00">+ Tratador()</text>
<text text-anchor="start" x="298.04" y="-811.5" font-family="Helvetica,sans-Serif" font-size="20.00">+ Tratador()</text>
<text text-anchor="start" x="298.04" y="-789.5" font-family="Helvetica,sans-Serif" font-size="20.00">+ ~Tratador()</text>
<text text-anchor="start" x="298.04" y="-767.5" font-family="Helvetica,sans-Serif" font-size="20.00">+ getUniforme()</text>
<text text-anchor="start" x="298.04" y="-745.5" font-family="Helvetica,sans-Serif" font-size="20.00">+ printOutDados()</text>
</a>
</g>
</g>
<!-- Node4&#45;&gt;Node3 -->
<g id="edge3" class="edge">
<title>Node4&#45;&gt;Node3</title>
<path fill="none" stroke="#404040" d="M331.52,-735.35C328.98,-729.29 326.78,-723.15 325.04,-717 322.41,-707.74 320.3,-698.18 318.63,-688.45"/>
<polygon fill="none" stroke="#404040" points="318.62,-688.38 313.76,-683.05 316.8,-676.52 321.67,-681.84 318.62,-688.38"/>
<text text-anchor="middle" x="376.54" y="-701" font-family="Helvetica,sans-Serif" font-size="20.00"> #tratador</text>
</g>
<!-- Node5 -->
<g id="node5" class="node">
<title>Node5</title>
<g id="a_node5"><a xlink:href="classPessoa.html" target="_top" xlink:title="Classe base dos funcionarios.">
<polygon fill="white" stroke="black" points="263.04,-1107.5 263.04,-1351.5 463.04,-1351.5 463.04,-1107.5 263.04,-1107.5"/>
<text text-anchor="middle" x="363.04" y="-1331.5" font-family="Helvetica,sans-Serif" font-size="20.00">Pessoa</text>
<polyline fill="none" stroke="black" points="263.04,-1321.5 463.04,-1321.5 "/>
<text text-anchor="middle" x="363.04" y="-1301.5" font-family="Helvetica,sans-Serif" font-size="20.00"> </text>
<polyline fill="none" stroke="black" points="263.04,-1291.5 463.04,-1291.5 "/>
<text text-anchor="start" x="271.04" y="-1271.5" font-family="Helvetica,sans-Serif" font-size="20.00">+ Pessoa()</text>
<text text-anchor="start" x="271.04" y="-1249.5" font-family="Helvetica,sans-Serif" font-size="20.00">+ Pessoa()</text>
<text text-anchor="start" x="271.04" y="-1227.5" font-family="Helvetica,sans-Serif" font-size="20.00">+ ~Pessoa()</text>
<text text-anchor="start" x="271.04" y="-1205.5" font-family="Helvetica,sans-Serif" font-size="20.00">+ getNome()</text>
<text text-anchor="start" x="271.04" y="-1183.5" font-family="Helvetica,sans-Serif" font-size="20.00">+ getTelefone()</text>
<text text-anchor="start" x="271.04" y="-1161.5" font-family="Helvetica,sans-Serif" font-size="20.00">+ getEmail()</text>
<text text-anchor="start" x="271.04" y="-1139.5" font-family="Helvetica,sans-Serif" font-size="20.00">+ printOutDados()</text>
<text text-anchor="start" x="271.04" y="-1117.5" font-family="Helvetica,sans-Serif" font-size="20.00">+ operator==()</text>
</a>
</g>
</g>
<!-- Node5&#45;&gt;Node4 -->
<g id="edge4" class="edge">
<title>Node5&#45;&gt;Node4</title>
<path fill="none" stroke="midnightblue" d="M371.85,-1096.98C375.88,-1036.85 380.54,-967.23 384.14,-913.55"/>
<polygon fill="none" stroke="midnightblue" points="368.33,-1097.1 371.15,-1107.31 375.32,-1097.57 368.33,-1097.1"/>
</g>
<!-- Node9 -->
<g id="node9" class="node">
<title>Node9</title>
<g id="a_node9"><a xlink:href="classVeterinario.html" target="_top" xlink:title="Implementação dos veterinarios.">
<polygon fill="white" stroke="black" points="72.04,-735.5 72.04,-913.5 272.04,-913.5 272.04,-735.5 72.04,-735.5"/>
<text text-anchor="middle" x="172.04" y="-893.5" font-family="Helvetica,sans-Serif" font-size="20.00">Veterinario</text>
<polyline fill="none" stroke="black" points="72.04,-883.5 272.04,-883.5 "/>
<text text-anchor="middle" x="172.04" y="-863.5" font-family="Helvetica,sans-Serif" font-size="20.00"> </text>
<polyline fill="none" stroke="black" points="72.04,-853.5 272.04,-853.5 "/>
<text text-anchor="start" x="80.04" y="-833.5" font-family="Helvetica,sans-Serif" font-size="20.00">+ Veterinario()</text>
<text text-anchor="start" x="80.04" y="-811.5" font-family="Helvetica,sans-Serif" font-size="20.00">+ Veterinario()</text>
<text text-anchor="start" x="80.04" y="-789.5" font-family="Helvetica,sans-Serif" font-size="20.00">+ ~Veterinario()</text>
<text text-anchor="start" x="80.04" y="-767.5" font-family="Helvetica,sans-Serif" font-size="20.00">+ getCRMV()</text>
<text text-anchor="start" x="80.04" y="-745.5" font-family="Helvetica,sans-Serif" font-size="20.00">+ printOutDados()</text>
</a>
</g>
</g>
<!-- Node5&#45;&gt;Node9 -->
<g id="edge10" class="edge">
<title>Node5&#45;&gt;Node9</title>
<path fill="none" stroke="midnightblue" d="M301.23,-1098.1C272.61,-1037.71 239.36,-967.56 213.76,-913.55"/>
<polygon fill="none" stroke="midnightblue" points="298.15,-1099.78 305.6,-1107.31 304.48,-1096.78 298.15,-1099.78"/>
</g>
<!-- Node6 -->
<g id="node6" class="node">
<title>Node6</title>
<g id="a_node6"><a xlink:title=" ">
<polygon fill="white" stroke="#bfbfbf" points="230.04,-1454.5 230.04,-1544.5 304.04,-1544.5 304.04,-1454.5 230.04,-1454.5"/>
<text text-anchor="middle" x="267.04" y="-1524.5" font-family="Helvetica,sans-Serif" font-size="20.00">string</text>
<polyline fill="none" stroke="#bfbfbf" points="230.04,-1514.5 304.04,-1514.5 "/>
<text text-anchor="middle" x="267.04" y="-1494.5" font-family="Helvetica,sans-Serif" font-size="20.00"> </text>
<polyline fill="none" stroke="#bfbfbf" points="230.04,-1484.5 304.04,-1484.5 "/>
<text text-anchor="middle" x="267.04" y="-1464.5" font-family="Helvetica,sans-Serif" font-size="20.00"> </text>
</a>
</g>
</g>
<!-- Node6&#45;&gt;Node3 -->
<g id="edge8" class="edge">
<title>Node6&#45;&gt;Node3</title>
<path fill="none" stroke="#404040" d="M229.68,-1475.85C214.19,-1465.15 196.88,-1451.36 184.04,-1436 31.96,-1254.07 -22.59,-1167 9.04,-932 21.14,-842.03 15.34,-812.25 63.04,-735 98.82,-677.06 153.12,-625 202.95,-584.74"/>
<polygon fill="none" stroke="#404040" points="203.14,-584.59 205.33,-577.72 212.52,-577.1 210.32,-583.97 203.14,-584.59"/>
<text text-anchor="middle" x="85.04" y="-1027.5" font-family="Helvetica,sans-Serif" font-size="20.00"> #especie</text>
<text text-anchor="middle" x="85.04" y="-1005.5" font-family="Helvetica,sans-Serif" font-size="20.00">#ameacadoPor</text>
<text text-anchor="middle" x="85.04" y="-983.5" font-family="Helvetica,sans-Serif" font-size="20.00">#nome</text>
</g>
<!-- Node6&#45;&gt;Node5 -->
<g id="edge5" class="edge">
<title>Node6&#45;&gt;Node5</title>
<path fill="none" stroke="#404040" d="M282.89,-1454.25C291.89,-1429.11 303.69,-1396.18 315.45,-1363.34"/>
<polygon fill="none" stroke="#404040" points="315.56,-1363.04 313.82,-1356.04 319.61,-1351.74 321.35,-1358.74 315.56,-1363.04"/>
<text text-anchor="middle" x="361.54" y="-1420" font-family="Helvetica,sans-Serif" font-size="20.00"> #email</text>
<text text-anchor="middle" x="361.54" y="-1398" font-family="Helvetica,sans-Serif" font-size="20.00">#nome</text>
<text text-anchor="middle" x="361.54" y="-1376" font-family="Helvetica,sans-Serif" font-size="20.00">#telefone</text>
</g>
<!-- Node6&#45;&gt;Node9 -->
<g id="edge11" class="edge">
<title>Node6&#45;&gt;Node9</title>
<path fill="none" stroke="#404040" d="M233.02,-1454.43C213.76,-1426.68 191.49,-1389.19 181.04,-1352 159.32,-1274.73 163.16,-1055.77 167.71,-925.84"/>
<polygon fill="none" stroke="#404040" points="167.72,-925.54 163.94,-919.4 168.16,-913.55 171.94,-919.69 167.72,-925.54"/>
<text text-anchor="middle" x="217.54" y="-1224.5" font-family="Helvetica,sans-Serif" font-size="20.00"> &#45;CRMV</text>
</g>
<!-- Node10 -->
<g id="node10" class="node">
<title>Node10</title>
<g id="a_node10"><a xlink:href="classExotico.html" target="_top" xlink:title="Umas das definições de categoria para Animal.">
<polygon fill="white" stroke="black" points="643.54,-932.5 643.54,-1088.5 786.54,-1088.5 786.54,-932.5 643.54,-932.5"/>
<text text-anchor="middle" x="715.04" y="-1068.5" font-family="Helvetica,sans-Serif" font-size="20.00">Exotico</text>
<polyline fill="none" stroke="black" points="643.54,-1058.5 786.54,-1058.5 "/>
<text text-anchor="middle" x="715.04" y="-1038.5" font-family="Helvetica,sans-Serif" font-size="20.00"> </text>
<polyline fill="none" stroke="black" points="643.54,-1028.5 786.54,-1028.5 "/>
<text text-anchor="start" x="651.54" y="-1008.5" font-family="Helvetica,sans-Serif" font-size="20.00">+ Exotico()</text>
<text text-anchor="start" x="651.54" y="-986.5" font-family="Helvetica,sans-Serif" font-size="20.00">+ Exotico()</text>
<text text-anchor="start" x="651.54" y="-964.5" font-family="Helvetica,sans-Serif" font-size="20.00">+ ~Exotico()</text>
<text text-anchor="start" x="651.54" y="-942.5" font-family="Helvetica,sans-Serif" font-size="20.00">+ getLocal()</text>
</a>
</g>
</g>
<!-- Node6&#45;&gt;Node10 -->
<g id="edge14" class="edge">
<title>Node6&#45;&gt;Node10</title>
<path fill="none" stroke="#404040" d="M304.23,-1492.16C372.1,-1478.67 516.46,-1440.77 597.04,-1352 660.57,-1282.01 690.21,-1176.03 703.83,-1100.92"/>
<polygon fill="none" stroke="#404040" points="703.91,-1100.5 701,-1093.9 705.96,-1088.67 708.88,-1095.27 703.91,-1100.5"/>
<text text-anchor="middle" x="612.54" y="-1398" font-family="Helvetica,sans-Serif" font-size="20.00"> #local</text>
</g>
<!-- Node7 -->
<g id="node7" class="node">
<title>Node7</title>
<g id="a_node7"><a xlink:title=" ">
<polygon fill="white" stroke="#bfbfbf" points="481.54,-1184.5 481.54,-1274.5 588.54,-1274.5 588.54,-1184.5 481.54,-1184.5"/>
<text text-anchor="middle" x="535.04" y="-1254.5" font-family="Helvetica,sans-Serif" font-size="20.00">Uniforme</text>
<polyline fill="none" stroke="#bfbfbf" points="481.54,-1244.5 588.54,-1244.5 "/>
<text text-anchor="middle" x="535.04" y="-1224.5" font-family="Helvetica,sans-Serif" font-size="20.00"> </text>
<polyline fill="none" stroke="#bfbfbf" points="481.54,-1214.5 588.54,-1214.5 "/>
<text text-anchor="middle" x="535.04" y="-1194.5" font-family="Helvetica,sans-Serif" font-size="20.00"> </text>
</a>
</g>
</g>
<!-- Node7&#45;&gt;Node4 -->
<g id="edge6" class="edge">
<title>Node7&#45;&gt;Node4</title>
<path fill="none" stroke="#404040" d="M519.1,-1184.22C496.83,-1122.31 455.77,-1008.19 425.92,-925.25"/>
<polygon fill="none" stroke="#404040" points="425.85,-925.05 420.06,-920.76 421.79,-913.76 427.59,-918.05 425.85,-925.05"/>
<text text-anchor="middle" x="535.54" y="-1005.5" font-family="Helvetica,sans-Serif" font-size="20.00"> &#45;uniforme</text>
</g>
<!-- Node8 -->
<g id="node8" class="node">
<title>Node8</title>
<g id="a_node8"><a xlink:title=" ">
<polygon fill="white" stroke="#bfbfbf" points="526.54,-779.5 526.54,-869.5 585.54,-869.5 585.54,-779.5 526.54,-779.5"/>
<text text-anchor="middle" x="556.04" y="-849.5" font-family="Helvetica,sans-Serif" font-size="20.00">bool</text>
<polyline fill="none" stroke="#bfbfbf" points="526.54,-839.5 585.54,-839.5 "/>
<text text-anchor="middle" x="556.04" y="-819.5" font-family="Helvetica,sans-Serif" font-size="20.00"> </text>
<polyline fill="none" stroke="#bfbfbf" points="526.54,-809.5 585.54,-809.5 "/>
<text text-anchor="middle" x="556.04" y="-789.5" font-family="Helvetica,sans-Serif" font-size="20.00"> </text>
</a>
</g>
</g>
<!-- Node8&#45;&gt;Node2 -->
<g id="edge12" class="edge">
<title>Node8&#45;&gt;Node2</title>
<path fill="none" stroke="#404040" d="M557.78,-779.46C558.52,-760.28 559.36,-737.53 560.04,-717 564.91,-568.46 569.54,-394.99 572.07,-296.8"/>
<polygon fill="none" stroke="#404040" points="572.07,-296.62 568.23,-290.52 572.38,-284.63 576.22,-290.73 572.07,-296.62"/>
<text text-anchor="middle" x="628.54" y="-494.5" font-family="Helvetica,sans-Serif" font-size="20.00"> #gestacao</text>
</g>
<!-- Node8&#45;&gt;Node3 -->
<g id="edge7" class="edge">
<title>Node8&#45;&gt;Node3</title>
<path fill="none" stroke="#404040" d="M534.99,-779.11C525.78,-763.45 513.69,-746.82 499.04,-735 481.3,-720.7 468.47,-731.67 451.04,-717 440.1,-707.79 429.87,-697.39 420.36,-686.25"/>
<polygon fill="none" stroke="#404040" points="420.16,-686 413.26,-683.9 412.54,-676.73 419.44,-678.82 420.16,-686"/>
<text text-anchor="middle" x="505.54" y="-701" font-family="Helvetica,sans-Serif" font-size="20.00"> #perigoso</text>
</g>
<!-- Node9&#45;&gt;Node3 -->
<g id="edge9" class="edge">
<title>Node9&#45;&gt;Node3</title>
<path fill="none" stroke="#404040" d="M176.43,-735.35C178.79,-721.56 182.19,-707.69 187.04,-695 192.39,-681 198.97,-667.05 206.34,-653.43"/>
<polygon fill="none" stroke="#404040" points="206.55,-653.06 205.98,-645.87 212.4,-642.59 212.97,-649.78 206.55,-653.06"/>
<text text-anchor="middle" x="252.04" y="-701" font-family="Helvetica,sans-Serif" font-size="20.00"> #veterinario</text>
</g>
<!-- Node10&#45;&gt;Node1 -->
<g id="edge13" class="edge">
<title>Node10&#45;&gt;Node1</title>
<path fill="none" stroke="midnightblue" d="M715.04,-922.15C715.04,-861.73 715.04,-779.48 715.04,-707 715.04,-707 715.04,-707 715.04,-216.5 715.04,-179.77 699.04,-142.09 682.24,-112.63"/>
<polygon fill="none" stroke="midnightblue" points="711.54,-922.41 715.04,-932.41 718.54,-922.41 711.54,-922.41"/>
</g>
</g>
</svg>
        <g id="navigator" transform="translate(0 0)" fill="#404254">
                <rect fill="#f2f5e9" fill-opacity="0.5" stroke="#606060" stroke-width=".5" x="0" y="0" width="60" height="60"/>
                <use id="zoomplus" xlink:href="#zoomPlus" x="17" y="9" onmousedown="handleZoom(evt,'in')"/>
                <use id="zoomminus" xlink:href="#zoomMin" x="42" y="9" onmousedown="handleZoom(evt,'out')"/>
                <use id="reset" xlink:href="#resetDef" x="30" y="36" onmousedown="handleReset()"/>
                <g id="arrowUp" xlink:href="#dirArrow" transform="translate(30 24)" onmousedown="handlePan(0,-1)">
                  <use xlink:href="#rim" fill="#404040">
                        <set attributeName="fill" to="#808080" begin="arrowUp.mouseover" end="arrowUp.mouseout"/>
                  </use>
                  <path fill="none" stroke="white" stroke-width="1.5" d="M0,-3.0v7 M-2.5,-0.5L0,-3.0L2.5,-0.5"/>
                </g>
                <g id="arrowRight" xlink:href="#dirArrow" transform="rotate(90) translate(36 -43)" onmousedown="handlePan(1,0)">
                  <use xlink:href="#rim" fill="#404040">
                        <set attributeName="fill" to="#808080" begin="arrowRight.mouseover" end="arrowRight.mouseout"/>
                  </use>
                  <path fill="none" stroke="white" stroke-width="1.5" d="M0,-3.0v7 M-2.5,-0.5L0,-3.0L2.5,-0.5"/>
                </g>
                <g id="arrowDown" xlink:href="#dirArrow" transform="rotate(180) translate(-30 -48)" onmousedown="handlePan(0,1)">
                  <use xlink:href="#rim" fill="#404040">
                        <set attributeName="fill" to="#808080" begin="arrowDown.mouseover" end="arrowDown.mouseout"/>
                  </use>
                  <path fill="none" stroke="white" stroke-width="1.5" d="M0,-3.0v7 M-2.5,-0.5L0,-3.0L2.5,-0.5"/>
                </g>
                <g id="arrowLeft" xlink:href="#dirArrow" transform="rotate(270) translate(-36 17)" onmousedown="handlePan(-1,0)">
                  <use xlink:href="#rim" fill="#404040">
                        <set attributeName="fill" to="#808080" begin="arrowLeft.mouseover" end="arrowLeft.mouseout"/>
                  </use>
                  <path fill="none" stroke="white" stroke-width="1.5" d="M0,-3.0v7 M-2.5,-0.5L0,-3.0L2.5,-0.5"/>
                </g>
        </g>
        <svg viewBox="0 0 15 15" width="100%" height="30px" preserveAspectRatio="xMaxYMin meet">
         <g id="arrow_out" transform="scale(0.3 0.3)">
          <a xlink:href="classMamiferoExotico__coll__graph_org.svg" target="_base">
           <rect id="button" ry="5" rx="5" y="6" x="6" height="38" width="38"
                fill="#f2f5e9" fill-opacity="0.5" stroke="#606060" stroke-width="1.0"/>
           <path id="arrow"
             d="M 11.500037,31.436501 C 11.940474,20.09759 22.043105,11.32322 32.158766,21.979434 L 37.068811,17.246167 C 37.068811,17.246167 37.088388,32 37.088388,32 L 22.160133,31.978069 C 22.160133,31.978069 26.997745,27.140456 26.997745,27.140456 C 18.528582,18.264221 13.291696,25.230495 11.500037,31.436501 z"
             style="fill:#404040;"/>
          </a>
         </g>
        </svg>
</svg>
