<?xml version="1.0" encoding="UTF-8" standalone="no"?>
<!DOCTYPE svg PUBLIC "-//W3C//DTD SVG 1.1//EN"
 "http://www.w3.org/Graphics/SVG/1.1/DTD/svg11.dtd">
<!-- Generated by graphviz version 2.43.0 (0)
 -->
<!-- Title: Anfibio Pages: 1 -->
<svg width="704pt" height="837pt"
 viewBox="0.00 0.00 704.00 837.00" xmlns="http://www.w3.org/2000/svg" xmlns:xlink="http://www.w3.org/1999/xlink">
<g id="graph0" class="graph" transform="scale(1 1) rotate(0) translate(4 833)">
<title>Anfibio</title>
<polygon fill="white" stroke="transparent" points="-4,4 -4,-833 700,-833 700,4 -4,4"/>
<!-- Node1 -->
<g id="node1" class="node">
<title>Node1</title>
<g id="a_node1"><a xlink:title="Classificação base para Anfibios.">
<polygon fill="#bfbfbf" stroke="black" points="294.5,-149.5 294.5,-327.5 444.5,-327.5 444.5,-149.5 294.5,-149.5"/>
<text text-anchor="middle" x="369.5" y="-307.5" font-family="Helvetica,sans-Serif" font-size="20.00">Anfibio</text>
<polyline fill="none" stroke="black" points="294.5,-297.5 444.5,-297.5 "/>
<text text-anchor="start" x="302.5" y="-277.5" font-family="Helvetica,sans-Serif" font-size="20.00"># cauda</text>
<text text-anchor="start" x="302.5" y="-255.5" font-family="Helvetica,sans-Serif" font-size="20.00"># pata</text>
<polyline fill="none" stroke="black" points="294.5,-245.5 444.5,-245.5 "/>
<text text-anchor="start" x="302.5" y="-225.5" font-family="Helvetica,sans-Serif" font-size="20.00">+ Anfibio()</text>
<text text-anchor="start" x="302.5" y="-203.5" font-family="Helvetica,sans-Serif" font-size="20.00">+ ~Anfibio()</text>
<text text-anchor="start" x="302.5" y="-181.5" font-family="Helvetica,sans-Serif" font-size="20.00">+ getCauda()</text>
<text text-anchor="start" x="302.5" y="-159.5" font-family="Helvetica,sans-Serif" font-size="20.00">+ getPata()</text>
</a>
</g>
</g>
<!-- Node3 -->
<g id="node3" class="node">
<title>Node3</title>
<g id="a_node3"><a xlink:href="classAnfibioDomestico.html" target="_top" xlink:title="Implementação de animal com Classe e Categoria.">
<polygon fill="white" stroke="black" points="0,-0.5 0,-112.5 245,-112.5 245,-0.5 0,-0.5"/>
<text text-anchor="middle" x="122.5" y="-92.5" font-family="Helvetica,sans-Serif" font-size="20.00">AnfibioDomestico</text>
<polyline fill="none" stroke="black" points="0,-82.5 245,-82.5 "/>
<text text-anchor="middle" x="122.5" y="-62.5" font-family="Helvetica,sans-Serif" font-size="20.00"> </text>
<polyline fill="none" stroke="black" points="0,-52.5 245,-52.5 "/>
<text text-anchor="start" x="8" y="-32.5" font-family="Helvetica,sans-Serif" font-size="20.00">+ AnfibioDomestico()</text>
<text text-anchor="start" x="8" y="-10.5" font-family="Helvetica,sans-Serif" font-size="20.00">+ ~AnfibioDomestico()</text>
</a>
</g>
</g>
<!-- Node1&#45;&gt;Node3 -->
<g id="edge2" class="edge">
<title>Node1&#45;&gt;Node3</title>
<path fill="none" stroke="midnightblue" d="M286.05,-176.69C257.58,-155.94 225.93,-132.87 198.11,-112.6"/>
<polygon fill="none" stroke="midnightblue" points="284.24,-179.7 294.39,-182.76 288.37,-174.04 284.24,-179.7"/>
</g>
<!-- Node4 -->
<g id="node4" class="node">
<title>Node4</title>
<g id="a_node4"><a xlink:href="classAnfibioExotico.html" target="_top" xlink:title="Implementação de animal com Classe e Categoria.">
<polygon fill="white" stroke="black" points="263.5,-0.5 263.5,-112.5 475.5,-112.5 475.5,-0.5 263.5,-0.5"/>
<text text-anchor="middle" x="369.5" y="-92.5" font-family="Helvetica,sans-Serif" font-size="20.00">AnfibioExotico</text>
<polyline fill="none" stroke="black" points="263.5,-82.5 475.5,-82.5 "/>
<text text-anchor="middle" x="369.5" y="-62.5" font-family="Helvetica,sans-Serif" font-size="20.00"> </text>
<polyline fill="none" stroke="black" points="263.5,-52.5 475.5,-52.5 "/>
<text text-anchor="start" x="271.5" y="-32.5" font-family="Helvetica,sans-Serif" font-size="20.00">+ AnfibioExotico()</text>
<text text-anchor="start" x="271.5" y="-10.5" font-family="Helvetica,sans-Serif" font-size="20.00">+ ~AnfibioExotico()</text>
</a>
</g>
</g>
<!-- Node1&#45;&gt;Node4 -->
<g id="edge3" class="edge">
<title>Node1&#45;&gt;Node4</title>
<path fill="none" stroke="midnightblue" d="M369.5,-139.12C369.5,-130.1 369.5,-121.18 369.5,-112.75"/>
<polygon fill="none" stroke="midnightblue" points="366,-139.35 369.5,-149.35 373,-139.35 366,-139.35"/>
</g>
<!-- Node5 -->
<g id="node5" class="node">
<title>Node5</title>
<g id="a_node5"><a xlink:href="classAnfibioNativo.html" target="_top" xlink:title="Implementação de animal com Classe e Categoria.">
<polygon fill="white" stroke="black" points="493,-0.5 493,-112.5 696,-112.5 696,-0.5 493,-0.5"/>
<text text-anchor="middle" x="594.5" y="-92.5" font-family="Helvetica,sans-Serif" font-size="20.00">AnfibioNativo</text>
<polyline fill="none" stroke="black" points="493,-82.5 696,-82.5 "/>
<text text-anchor="middle" x="594.5" y="-62.5" font-family="Helvetica,sans-Serif" font-size="20.00"> </text>
<polyline fill="none" stroke="black" points="493,-52.5 696,-52.5 "/>
<text text-anchor="start" x="501" y="-32.5" font-family="Helvetica,sans-Serif" font-size="20.00">+ AnfibioNativo()</text>
<text text-anchor="start" x="501" y="-10.5" font-family="Helvetica,sans-Serif" font-size="20.00">+ ~AnfibioNativo()</text>
</a>
</g>
</g>
<!-- Node1&#45;&gt;Node5 -->
<g id="edge4" class="edge">
<title>Node1&#45;&gt;Node5</title>
<path fill="none" stroke="midnightblue" d="M452.76,-170.89C476.66,-151.77 502.46,-131.13 525.41,-112.77"/>
<polygon fill="none" stroke="midnightblue" points="450.36,-168.33 444.73,-177.31 454.73,-173.8 450.36,-168.33"/>
</g>
<!-- Node2 -->
<g id="node2" class="node">
<title>Node2</title>
<g id="a_node2"><a xlink:href="classAnimal.html" target="_top" xlink:title="Implementação base para o cadastro de animais.">
<polygon fill="white" stroke="black" points="258,-364.5 258,-828.5 481,-828.5 481,-364.5 258,-364.5"/>
<text text-anchor="middle" x="369.5" y="-808.5" font-family="Helvetica,sans-Serif" font-size="20.00">Animal</text>
<polyline fill="none" stroke="black" points="258,-798.5 481,-798.5 "/>
<text text-anchor="start" x="266" y="-778.5" font-family="Helvetica,sans-Serif" font-size="20.00"># nome</text>
<text text-anchor="start" x="266" y="-756.5" font-family="Helvetica,sans-Serif" font-size="20.00"># especie</text>
<text text-anchor="start" x="266" y="-734.5" font-family="Helvetica,sans-Serif" font-size="20.00"># ameacadoPor</text>
<text text-anchor="start" x="266" y="-712.5" font-family="Helvetica,sans-Serif" font-size="20.00"># veterinario</text>
<text text-anchor="start" x="266" y="-690.5" font-family="Helvetica,sans-Serif" font-size="20.00"># tratador</text>
<text text-anchor="start" x="266" y="-668.5" font-family="Helvetica,sans-Serif" font-size="20.00"># perigoso</text>
<polyline fill="none" stroke="black" points="258,-658.5 481,-658.5 "/>
<text text-anchor="start" x="266" y="-638.5" font-family="Helvetica,sans-Serif" font-size="20.00">+ Animal()</text>
<text text-anchor="start" x="266" y="-616.5" font-family="Helvetica,sans-Serif" font-size="20.00">+ Animal()</text>
<text text-anchor="start" x="266" y="-594.5" font-family="Helvetica,sans-Serif" font-size="20.00">+ ~Animal()</text>
<text text-anchor="start" x="266" y="-572.5" font-family="Helvetica,sans-Serif" font-size="20.00">+ getNome()</text>
<text text-anchor="start" x="266" y="-550.5" font-family="Helvetica,sans-Serif" font-size="20.00">+ getEspecie()</text>
<text text-anchor="start" x="266" y="-528.5" font-family="Helvetica,sans-Serif" font-size="20.00">+ getAmeacadoPor()</text>
<text text-anchor="start" x="266" y="-506.5" font-family="Helvetica,sans-Serif" font-size="20.00">+ getVeterinario()</text>
<text text-anchor="start" x="266" y="-484.5" font-family="Helvetica,sans-Serif" font-size="20.00">+ getTratador()</text>
<text text-anchor="start" x="266" y="-462.5" font-family="Helvetica,sans-Serif" font-size="20.00">+ getPerigoso()</text>
<text text-anchor="start" x="266" y="-440.5" font-family="Helvetica,sans-Serif" font-size="20.00">+ getClassificacao()</text>
<text text-anchor="start" x="266" y="-418.5" font-family="Helvetica,sans-Serif" font-size="20.00">+ getClasse()</text>
<text text-anchor="start" x="266" y="-396.5" font-family="Helvetica,sans-Serif" font-size="20.00">+ printOutDados()</text>
<text text-anchor="start" x="266" y="-374.5" font-family="Helvetica,sans-Serif" font-size="20.00">+ operator==()</text>
</a>
</g>
</g>
<!-- Node2&#45;&gt;Node1 -->
<g id="edge1" class="edge">
<title>Node2&#45;&gt;Node1</title>
<path fill="none" stroke="midnightblue" d="M369.5,-353.99C369.5,-344.98 369.5,-336.22 369.5,-327.82"/>
<polygon fill="none" stroke="midnightblue" points="366,-354.26 369.5,-364.26 373,-354.26 366,-354.26"/>
</g>
</g>
</svg>
