<?xml version="1.0" encoding="UTF-8" standalone="no"?>
<!DOCTYPE svg PUBLIC "-//W3C//DTD SVG 1.1//EN"
 "http://www.w3.org/Graphics/SVG/1.1/DTD/svg11.dtd">
<!-- Generated by graphviz version 2.43.0 (0)
 -->
<!-- Title: MamiferoExotico Pages: 1 -->
<!--zoomable 1905 -->
<svg id="main" version="1.1" xmlns="http://www.w3.org/2000/svg" xmlns:xlink="http://www.w3.org/1999/xlink" xml:space="preserve" onload="init(evt)">
<style type="text/css"><![CDATA[
.edge:hover path { stroke: red; }
.edge:hover polygon { stroke: red; fill: red; }
]]></style>
<script type="text/javascript"><![CDATA[
var edges = document.getElementsByTagName('g');
if (edges && edges.length) {
  for (var i=0;i<edges.length;i++) {
    if (edges[i].id.substr(0,4)=='edge') {
      edges[i].setAttribute('class','edge');
    }
  }
}
]]></script>
        <defs>
                <circle id="rim" cx="0" cy="0" r="7"/>
                <circle id="rim2" cx="0" cy="0" r="3.5"/>
                <g id="zoomPlus">
                        <use xlink:href="#rim" fill="#404040">
                                <set attributeName="fill" to="#808080" begin="zoomplus.mouseover" end="zoomplus.mouseout"/>
                        </use>
                        <path d="M-4,0h8M0,-4v8" fill="none" stroke="white" stroke-width="1.5" pointer-events="none"/>
                </g>
                <g id="zoomMin">
                        <use xlink:href="#rim" fill="#404040">
                                <set attributeName="fill" to="#808080" begin="zoomminus.mouseover" end="zoomminus.mouseout"/>
                        </use>
                        <path d="M-4,0h8" fill="none" stroke="white" stroke-width="1.5" pointer-events="none"/>
                </g>
                <g id="dirArrow">
                        <path fill="none" stroke="white" stroke-width="1.5" d="M0,-3.0v7 M-2.5,-0.5L0,-3.0L2.5,-0.5"/>
                </g>
               <g id="resetDef">
                       <use xlink:href="#rim2" fill="#404040">
                               <set attributeName="fill" to="#808080" begin="reset.mouseover" end="reset.mouseout"/>
                       </use>
               </g>
        </defs>

<script type="text/javascript">
var viewWidth = 806;
var viewHeight = 1905;
var sectionId = 'dynsection-1';
</script>
<script xlink:href="svgpan.js"/>
<svg id="graph" class="graph">
<g id="viewport">
<title>MamiferoExotico</title>
<polygon fill="white" stroke="transparent" points="-4,4 -4,-1901 801.59,-1901 801.59,4 -4,4"/>
<!-- Node1 -->
<g id="node1" class="node">
<title>Node1</title>
<g id="a_node1"><a xlink:title="Implementação de animal com Classe e Categoria.">
<polygon fill="#bfbfbf" stroke="black" points="537.59,-0.5 537.59,-134.5 772.59,-134.5 772.59,-0.5 537.59,-0.5"/>
<text text-anchor="middle" x="655.09" y="-114.5" font-family="Helvetica,sans-Serif" font-size="20.00">MamiferoExotico</text>
<polyline fill="none" stroke="black" points="537.59,-104.5 772.59,-104.5 "/>
<text text-anchor="middle" x="655.09" y="-84.5" font-family="Helvetica,sans-Serif" font-size="20.00"> </text>
<polyline fill="none" stroke="black" points="537.59,-74.5 772.59,-74.5 "/>
<text text-anchor="start" x="545.59" y="-54.5" font-family="Helvetica,sans-Serif" font-size="20.00">+ MamiferoExotico()</text>
<text text-anchor="start" x="545.59" y="-32.5" font-family="Helvetica,sans-Serif" font-size="20.00">+ MamiferoExotico()</text>
<text text-anchor="start" x="545.59" y="-10.5" font-family="Helvetica,sans-Serif" font-size="20.00">+ ~MamiferoExotico()</text>
</a>
</g>
</g>
<!-- Node2 -->
<g id="node2" class="node">
<title>Node2</title>
<g id="a_node2"><a xlink:href="classMamifero.html" target="_top" xlink:title="Classificação base para Mamiferos.">
<polygon fill="white" stroke="black" points="495.59,-172.5 495.59,-372.5 674.59,-372.5 674.59,-172.5 495.59,-172.5"/>
<text text-anchor="middle" x="585.09" y="-352.5" font-family="Helvetica,sans-Serif" font-size="20.00">Mamifero</text>
<polyline fill="none" stroke="black" points="495.59,-342.5 674.59,-342.5 "/>
<text text-anchor="middle" x="585.09" y="-322.5" font-family="Helvetica,sans-Serif" font-size="20.00"> </text>
<polyline fill="none" stroke="black" points="495.59,-312.5 674.59,-312.5 "/>
<text text-anchor="start" x="503.59" y="-292.5" font-family="Helvetica,sans-Serif" font-size="20.00">+ Mamifero()</text>
<text text-anchor="start" x="503.59" y="-270.5" font-family="Helvetica,sans-Serif" font-size="20.00">+ Mamifero()</text>
<text text-anchor="start" x="503.59" y="-248.5" font-family="Helvetica,sans-Serif" font-size="20.00">+ ~Mamifero()</text>
<text text-anchor="start" x="503.59" y="-226.5" font-family="Helvetica,sans-Serif" font-size="20.00">+ getGestacao()</text>
<text text-anchor="start" x="503.59" y="-204.5" font-family="Helvetica,sans-Serif" font-size="20.00">+ setGestacao()</text>
<text text-anchor="start" x="503.59" y="-182.5" font-family="Helvetica,sans-Serif" font-size="20.00">+ setGestacao()</text>
</a>
</g>
</g>
<!-- Node2&#45;&gt;Node1 -->
<g id="edge1" class="edge">
<title>Node2&#45;&gt;Node1</title>
<path fill="none" stroke="midnightblue" d="M622.57,-162.8C625.87,-153.23 629.14,-143.75 632.26,-134.69"/>
<polygon fill="none" stroke="midnightblue" points="619.22,-161.78 619.27,-172.38 625.84,-164.07 619.22,-161.78"/>
</g>
<!-- Node3 -->
<g id="node3" class="node">
<title>Node3</title>
<g id="a_node3"><a xlink:href="classAnimal.html" target="_top" xlink:title="Implementação base para o cadastro de animais.">
<polygon fill="white" stroke="black" points="223.59,-410.5 223.59,-786.5 446.59,-786.5 446.59,-410.5 223.59,-410.5"/>
<text text-anchor="middle" x="335.09" y="-766.5" font-family="Helvetica,sans-Serif" font-size="20.00">Animal</text>
<polyline fill="none" stroke="black" points="223.59,-756.5 446.59,-756.5 "/>
<text text-anchor="middle" x="335.09" y="-736.5" font-family="Helvetica,sans-Serif" font-size="20.00"> </text>
<polyline fill="none" stroke="black" points="223.59,-726.5 446.59,-726.5 "/>
<text text-anchor="start" x="231.59" y="-706.5" font-family="Helvetica,sans-Serif" font-size="20.00">+ Animal()</text>
<text text-anchor="start" x="231.59" y="-684.5" font-family="Helvetica,sans-Serif" font-size="20.00">+ Animal()</text>
<text text-anchor="start" x="231.59" y="-662.5" font-family="Helvetica,sans-Serif" font-size="20.00">+ ~Animal()</text>
<text text-anchor="start" x="231.59" y="-640.5" font-family="Helvetica,sans-Serif" font-size="20.00">+ getNome()</text>
<text text-anchor="start" x="231.59" y="-618.5" font-family="Helvetica,sans-Serif" font-size="20.00">+ getEspecie()</text>
<text text-anchor="start" x="231.59" y="-596.5" font-family="Helvetica,sans-Serif" font-size="20.00">+ getAmeacadoPor()</text>
<text text-anchor="start" x="231.59" y="-574.5" font-family="Helvetica,sans-Serif" font-size="20.00">+ getVeterinario()</text>
<text text-anchor="start" x="231.59" y="-552.5" font-family="Helvetica,sans-Serif" font-size="20.00">+ getTratador()</text>
<text text-anchor="start" x="231.59" y="-530.5" font-family="Helvetica,sans-Serif" font-size="20.00">+ getPerigoso()</text>
<text text-anchor="start" x="231.59" y="-508.5" font-family="Helvetica,sans-Serif" font-size="20.00">+ setNome()</text>
<text text-anchor="start" x="231.59" y="-486.5" font-family="Helvetica,sans-Serif" font-size="20.00">e 13 mais...</text>
<text text-anchor="start" x="231.59" y="-464.5" font-family="Helvetica,sans-Serif" font-size="20.00">+ getClassificacao()</text>
<text text-anchor="start" x="231.59" y="-442.5" font-family="Helvetica,sans-Serif" font-size="20.00">+ getClasse()</text>
<text text-anchor="start" x="231.59" y="-420.5" font-family="Helvetica,sans-Serif" font-size="20.00">+ printOutDetails()</text>
</a>
</g>
</g>
<!-- Node3&#45;&gt;Node2 -->
<g id="edge2" class="edge">
<title>Node3&#45;&gt;Node2</title>
<path fill="none" stroke="midnightblue" d="M453.28,-444.33C472.04,-420.02 491,-395.44 508.47,-372.8"/>
<polygon fill="none" stroke="midnightblue" points="450.27,-442.5 446.93,-452.56 455.81,-446.78 450.27,-442.5"/>
</g>
<!-- Node4 -->
<g id="node4" class="node">
<title>Node4</title>
<g id="a_node4"><a xlink:href="classTratador.html" target="_top" xlink:title="Implementação dos tratadores.">
<polygon fill="white" stroke="black" points="301.09,-845.5 301.09,-1067.5 501.09,-1067.5 501.09,-845.5 301.09,-845.5"/>
<text text-anchor="middle" x="401.09" y="-1047.5" font-family="Helvetica,sans-Serif" font-size="20.00">Tratador</text>
<polyline fill="none" stroke="black" points="301.09,-1037.5 501.09,-1037.5 "/>
<text text-anchor="middle" x="401.09" y="-1017.5" font-family="Helvetica,sans-Serif" font-size="20.00"> </text>
<polyline fill="none" stroke="black" points="301.09,-1007.5 501.09,-1007.5 "/>
<text text-anchor="start" x="309.09" y="-987.5" font-family="Helvetica,sans-Serif" font-size="20.00">+ Tratador()</text>
<text text-anchor="start" x="309.09" y="-965.5" font-family="Helvetica,sans-Serif" font-size="20.00">+ Tratador()</text>
<text text-anchor="start" x="309.09" y="-943.5" font-family="Helvetica,sans-Serif" font-size="20.00">+ ~Tratador()</text>
<text text-anchor="start" x="309.09" y="-921.5" font-family="Helvetica,sans-Serif" font-size="20.00">+ getUniforme()</text>
<text text-anchor="start" x="309.09" y="-899.5" font-family="Helvetica,sans-Serif" font-size="20.00">+ setUniforme()</text>
<text text-anchor="start" x="309.09" y="-877.5" font-family="Helvetica,sans-Serif" font-size="20.00">+ setUniforme()</text>
<text text-anchor="start" x="309.09" y="-855.5" font-family="Helvetica,sans-Serif" font-size="20.00">+ printOutDados()</text>
</a>
</g>
</g>
<!-- Node4&#45;&gt;Node3 -->
<g id="edge3" class="edge">
<title>Node4&#45;&gt;Node3</title>
<path fill="none" stroke="#404040" d="M341.4,-845.28C339.35,-839.19 337.55,-833.08 336.09,-827 333.88,-817.82 332.07,-808.37 330.61,-798.78"/>
<polygon fill="none" stroke="#404040" points="330.57,-798.46 325.8,-793.06 328.95,-786.57 333.72,-791.98 330.57,-798.46"/>
<text text-anchor="middle" x="387.59" y="-811" font-family="Helvetica,sans-Serif" font-size="20.00"> #tratador</text>
</g>
<!-- Node5 -->
<g id="node5" class="node">
<title>Node5</title>
<g id="a_node5"><a xlink:href="classPessoa.html" target="_top" xlink:title="Classe base dos funcionarios.">
<polygon fill="white" stroke="black" points="274.09,-1305.5 274.09,-1703.5 474.09,-1703.5 474.09,-1305.5 274.09,-1305.5"/>
<text text-anchor="middle" x="374.09" y="-1683.5" font-family="Helvetica,sans-Serif" font-size="20.00">Pessoa</text>
<polyline fill="none" stroke="black" points="274.09,-1673.5 474.09,-1673.5 "/>
<text text-anchor="middle" x="374.09" y="-1653.5" font-family="Helvetica,sans-Serif" font-size="20.00"> </text>
<polyline fill="none" stroke="black" points="274.09,-1643.5 474.09,-1643.5 "/>
<text text-anchor="start" x="282.09" y="-1623.5" font-family="Helvetica,sans-Serif" font-size="20.00">+ Pessoa()</text>
<text text-anchor="start" x="282.09" y="-1601.5" font-family="Helvetica,sans-Serif" font-size="20.00">+ Pessoa()</text>
<text text-anchor="start" x="282.09" y="-1579.5" font-family="Helvetica,sans-Serif" font-size="20.00">+ ~Pessoa()</text>
<text text-anchor="start" x="282.09" y="-1557.5" font-family="Helvetica,sans-Serif" font-size="20.00">+ getNome()</text>
<text text-anchor="start" x="282.09" y="-1535.5" font-family="Helvetica,sans-Serif" font-size="20.00">+ setNome()</text>
<text text-anchor="start" x="282.09" y="-1513.5" font-family="Helvetica,sans-Serif" font-size="20.00">+ setNome()</text>
<text text-anchor="start" x="282.09" y="-1491.5" font-family="Helvetica,sans-Serif" font-size="20.00">+ getTelefone()</text>
<text text-anchor="start" x="282.09" y="-1469.5" font-family="Helvetica,sans-Serif" font-size="20.00">+ setTelefone()</text>
<text text-anchor="start" x="282.09" y="-1447.5" font-family="Helvetica,sans-Serif" font-size="20.00">+ setTelefone()</text>
<text text-anchor="start" x="282.09" y="-1425.5" font-family="Helvetica,sans-Serif" font-size="20.00">+ getEmail()</text>
<text text-anchor="start" x="282.09" y="-1403.5" font-family="Helvetica,sans-Serif" font-size="20.00">+ setEmail()</text>
<text text-anchor="start" x="282.09" y="-1381.5" font-family="Helvetica,sans-Serif" font-size="20.00">+ setEmail()</text>
<text text-anchor="start" x="282.09" y="-1359.5" font-family="Helvetica,sans-Serif" font-size="20.00">+ printOutDados()</text>
<text text-anchor="start" x="282.09" y="-1337.5" font-family="Helvetica,sans-Serif" font-size="20.00">+ operator==()</text>
<text text-anchor="start" x="282.09" y="-1315.5" font-family="Helvetica,sans-Serif" font-size="20.00">+ operator==()</text>
</a>
</g>
</g>
<!-- Node5&#45;&gt;Node4 -->
<g id="edge4" class="edge">
<title>Node5&#45;&gt;Node4</title>
<path fill="none" stroke="midnightblue" d="M384.41,-1294.85C388.23,-1217.51 392.42,-1132.85 395.64,-1067.7"/>
<polygon fill="none" stroke="midnightblue" points="380.89,-1295.06 383.89,-1305.22 387.88,-1295.41 380.89,-1295.06"/>
</g>
<!-- Node9 -->
<g id="node9" class="node">
<title>Node9</title>
<g id="a_node9"><a xlink:href="classVeterinario.html" target="_top" xlink:title="Implementação dos veterinarios.">
<polygon fill="white" stroke="black" points="83.09,-845.5 83.09,-1067.5 283.09,-1067.5 283.09,-845.5 83.09,-845.5"/>
<text text-anchor="middle" x="183.09" y="-1047.5" font-family="Helvetica,sans-Serif" font-size="20.00">Veterinario</text>
<polyline fill="none" stroke="black" points="83.09,-1037.5 283.09,-1037.5 "/>
<text text-anchor="middle" x="183.09" y="-1017.5" font-family="Helvetica,sans-Serif" font-size="20.00"> </text>
<polyline fill="none" stroke="black" points="83.09,-1007.5 283.09,-1007.5 "/>
<text text-anchor="start" x="91.09" y="-987.5" font-family="Helvetica,sans-Serif" font-size="20.00">+ Veterinario()</text>
<text text-anchor="start" x="91.09" y="-965.5" font-family="Helvetica,sans-Serif" font-size="20.00">+ Veterinario()</text>
<text text-anchor="start" x="91.09" y="-943.5" font-family="Helvetica,sans-Serif" font-size="20.00">+ ~Veterinario()</text>
<text text-anchor="start" x="91.09" y="-921.5" font-family="Helvetica,sans-Serif" font-size="20.00">+ getCRMV()</text>
<text text-anchor="start" x="91.09" y="-899.5" font-family="Helvetica,sans-Serif" font-size="20.00">+ setCRMV()</text>
<text text-anchor="start" x="91.09" y="-877.5" font-family="Helvetica,sans-Serif" font-size="20.00">+ setCRMV()</text>
<text text-anchor="start" x="91.09" y="-855.5" font-family="Helvetica,sans-Serif" font-size="20.00">+ printOutDados()</text>
</a>
</g>
</g>
<!-- Node5&#45;&gt;Node9 -->
<g id="edge10" class="edge">
<title>Node5&#45;&gt;Node9</title>
<path fill="none" stroke="midnightblue" d="M301.27,-1295.33C274.17,-1217.85 244.48,-1132.99 221.64,-1067.7"/>
<polygon fill="none" stroke="midnightblue" points="298.12,-1296.94 304.73,-1305.22 304.73,-1294.63 298.12,-1296.94"/>
</g>
<!-- Node6 -->
<g id="node6" class="node">
<title>Node6</title>
<g id="a_node6"><a xlink:title=" ">
<polygon fill="white" stroke="#bfbfbf" points="241.09,-1806.5 241.09,-1896.5 315.09,-1896.5 315.09,-1806.5 241.09,-1806.5"/>
<text text-anchor="middle" x="278.09" y="-1876.5" font-family="Helvetica,sans-Serif" font-size="20.00">string</text>
<polyline fill="none" stroke="#bfbfbf" points="241.09,-1866.5 315.09,-1866.5 "/>
<text text-anchor="middle" x="278.09" y="-1846.5" font-family="Helvetica,sans-Serif" font-size="20.00"> </text>
<polyline fill="none" stroke="#bfbfbf" points="241.09,-1836.5 315.09,-1836.5 "/>
<text text-anchor="middle" x="278.09" y="-1816.5" font-family="Helvetica,sans-Serif" font-size="20.00"> </text>
</a>
</g>
</g>
<!-- Node6&#45;&gt;Node3 -->
<g id="edge8" class="edge">
<title>Node6&#45;&gt;Node3</title>
<path fill="none" stroke="#404040" d="M241.07,-1829.42C225.08,-1818.76 207.29,-1804.55 195.09,-1788 3.99,-1528.72 -23.48,-1405.78 15.09,-1086 28.3,-976.52 18.53,-940.25 74.09,-845 109.35,-784.55 164.02,-729.82 214.24,-687.46"/>
<polygon fill="none" stroke="#404040" points="214.34,-687.37 216.39,-680.46 223.56,-679.69 221.51,-686.6 214.34,-687.37"/>
<text text-anchor="middle" x="91.09" y="-1203.5" font-family="Helvetica,sans-Serif" font-size="20.00"> #especie</text>
<text text-anchor="middle" x="91.09" y="-1181.5" font-family="Helvetica,sans-Serif" font-size="20.00">#ameacadoPor</text>
<text text-anchor="middle" x="91.09" y="-1159.5" font-family="Helvetica,sans-Serif" font-size="20.00">#nome</text>
</g>
<!-- Node6&#45;&gt;Node5 -->
<g id="edge5" class="edge">
<title>Node6&#45;&gt;Node5</title>
<path fill="none" stroke="#404040" d="M290.35,-1806.46C297.13,-1782.06 306.13,-1749.75 315.69,-1715.36"/>
<polygon fill="none" stroke="#404040" points="315.74,-1715.18 313.5,-1708.33 318.96,-1703.62 321.21,-1710.47 315.74,-1715.18"/>
<text text-anchor="middle" x="360.59" y="-1772" font-family="Helvetica,sans-Serif" font-size="20.00"> #email</text>
<text text-anchor="middle" x="360.59" y="-1750" font-family="Helvetica,sans-Serif" font-size="20.00">#nome</text>
<text text-anchor="middle" x="360.59" y="-1728" font-family="Helvetica,sans-Serif" font-size="20.00">#telefone</text>
</g>
<!-- Node6&#45;&gt;Node9 -->
<g id="edge11" class="edge">
<title>Node6&#45;&gt;Node9</title>
<path fill="none" stroke="#404040" d="M244.01,-1806.45C224.73,-1778.71 202.45,-1741.22 192.09,-1704 160.45,-1590.33 169.26,-1260.76 176.99,-1079.88"/>
<polygon fill="none" stroke="#404040" points="177,-1079.64 173.27,-1073.48 177.52,-1067.66 181.26,-1073.82 177,-1079.64"/>
<text text-anchor="middle" x="228.59" y="-1499.5" font-family="Helvetica,sans-Serif" font-size="20.00"> &#45;CRMV</text>
</g>
<!-- Node10 -->
<g id="node10" class="node">
<title>Node10</title>
<g id="a_node10"><a xlink:href="classExotico.html" target="_top" xlink:title="Umas das definições de categoria para Animal.">
<polygon fill="white" stroke="black" points="654.59,-1086.5 654.59,-1286.5 797.59,-1286.5 797.59,-1086.5 654.59,-1086.5"/>
<text text-anchor="middle" x="726.09" y="-1266.5" font-family="Helvetica,sans-Serif" font-size="20.00">Exotico</text>
<polyline fill="none" stroke="black" points="654.59,-1256.5 797.59,-1256.5 "/>
<text text-anchor="middle" x="726.09" y="-1236.5" font-family="Helvetica,sans-Serif" font-size="20.00"> </text>
<polyline fill="none" stroke="black" points="654.59,-1226.5 797.59,-1226.5 "/>
<text text-anchor="start" x="662.59" y="-1206.5" font-family="Helvetica,sans-Serif" font-size="20.00">+ Exotico()</text>
<text text-anchor="start" x="662.59" y="-1184.5" font-family="Helvetica,sans-Serif" font-size="20.00">+ Exotico()</text>
<text text-anchor="start" x="662.59" y="-1162.5" font-family="Helvetica,sans-Serif" font-size="20.00">+ ~Exotico()</text>
<text text-anchor="start" x="662.59" y="-1140.5" font-family="Helvetica,sans-Serif" font-size="20.00">+ getLocal()</text>
<text text-anchor="start" x="662.59" y="-1118.5" font-family="Helvetica,sans-Serif" font-size="20.00">+ setLocal()</text>
<text text-anchor="start" x="662.59" y="-1096.5" font-family="Helvetica,sans-Serif" font-size="20.00">+ setLocal()</text>
</a>
</g>
</g>
<!-- Node6&#45;&gt;Node10 -->
<g id="edge14" class="edge">
<title>Node6&#45;&gt;Node10</title>
<path fill="none" stroke="#404040" d="M315.31,-1845.03C384.22,-1832.86 531.59,-1796.91 608.09,-1704 702.79,-1588.98 724.89,-1412.75 728.35,-1298.8"/>
<polygon fill="none" stroke="#404040" points="728.36,-1298.6 724.51,-1292.5 728.66,-1286.6 732.51,-1292.7 728.36,-1298.6"/>
<text text-anchor="middle" x="624.59" y="-1750" font-family="Helvetica,sans-Serif" font-size="20.00"> #local</text>
</g>
<!-- Node7 -->
<g id="node7" class="node">
<title>Node7</title>
<g id="a_node7"><a xlink:title=" ">
<polygon fill="white" stroke="#bfbfbf" points="492.59,-1459.5 492.59,-1549.5 599.59,-1549.5 599.59,-1459.5 492.59,-1459.5"/>
<text text-anchor="middle" x="546.09" y="-1529.5" font-family="Helvetica,sans-Serif" font-size="20.00">Uniforme</text>
<polyline fill="none" stroke="#bfbfbf" points="492.59,-1519.5 599.59,-1519.5 "/>
<text text-anchor="middle" x="546.09" y="-1499.5" font-family="Helvetica,sans-Serif" font-size="20.00"> </text>
<polyline fill="none" stroke="#bfbfbf" points="492.59,-1489.5 599.59,-1489.5 "/>
<text text-anchor="middle" x="546.09" y="-1469.5" font-family="Helvetica,sans-Serif" font-size="20.00"> </text>
</a>
</g>
</g>
<!-- Node7&#45;&gt;Node4 -->
<g id="edge6" class="edge">
<title>Node7&#45;&gt;Node4</title>
<path fill="none" stroke="#404040" d="M534.35,-1459.28C512.62,-1377.47 465.45,-1199.85 433.47,-1079.44"/>
<polygon fill="none" stroke="#404040" points="433.41,-1079.21 428.01,-1074.44 430.33,-1067.61 435.74,-1072.38 433.41,-1079.21"/>
<text text-anchor="middle" x="538.59" y="-1181.5" font-family="Helvetica,sans-Serif" font-size="20.00"> &#45;uniforme</text>
</g>
<!-- Node8 -->
<g id="node8" class="node">
<title>Node8</title>
<g id="a_node8"><a xlink:title=" ">
<polygon fill="white" stroke="#bfbfbf" points="537.59,-911.5 537.59,-1001.5 596.59,-1001.5 596.59,-911.5 537.59,-911.5"/>
<text text-anchor="middle" x="567.09" y="-981.5" font-family="Helvetica,sans-Serif" font-size="20.00">bool</text>
<polyline fill="none" stroke="#bfbfbf" points="537.59,-971.5 596.59,-971.5 "/>
<text text-anchor="middle" x="567.09" y="-951.5" font-family="Helvetica,sans-Serif" font-size="20.00"> </text>
<polyline fill="none" stroke="#bfbfbf" points="537.59,-941.5 596.59,-941.5 "/>
<text text-anchor="middle" x="567.09" y="-921.5" font-family="Helvetica,sans-Serif" font-size="20.00"> </text>
</a>
</g>
</g>
<!-- Node8&#45;&gt;Node2 -->
<g id="edge12" class="edge">
<title>Node8&#45;&gt;Node2</title>
<path fill="none" stroke="#404040" d="M568.52,-911.49C569.32,-886.68 570.3,-855.11 571.09,-827 575.41,-673.84 579.78,-496.82 582.46,-385.03"/>
<polygon fill="none" stroke="#404040" points="582.47,-384.74 578.61,-378.64 582.75,-372.74 586.61,-378.84 582.47,-384.74"/>
<text text-anchor="middle" x="638.59" y="-593.5" font-family="Helvetica,sans-Serif" font-size="20.00"> #gestacao</text>
</g>
<!-- Node8&#45;&gt;Node3 -->
<g id="edge7" class="edge">
<title>Node8&#45;&gt;Node3</title>
<path fill="none" stroke="#404040" d="M552.99,-911.3C543.87,-888.84 529.93,-862.64 510.09,-845 493.06,-829.86 479.37,-841.85 462.09,-827 451.3,-817.73 441.25,-807.3 431.92,-796.14"/>
<polygon fill="none" stroke="#404040" points="431.77,-795.95 424.89,-793.79 424.24,-786.6 431.12,-788.77 431.77,-795.95"/>
<text text-anchor="middle" x="516.59" y="-811" font-family="Helvetica,sans-Serif" font-size="20.00"> #perigoso</text>
</g>
<!-- Node9&#45;&gt;Node3 -->
<g id="edge9" class="edge">
<title>Node9&#45;&gt;Node3</title>
<path fill="none" stroke="#404040" d="M188.64,-845.2C191.12,-831.43 194.51,-817.73 199.09,-805 204.28,-790.56 210.69,-776.14 217.87,-762.01"/>
<polygon fill="none" stroke="#404040" points="217.93,-761.89 217.17,-754.72 223.5,-751.26 224.26,-758.43 217.93,-761.89"/>
<text text-anchor="middle" x="264.09" y="-811" font-family="Helvetica,sans-Serif" font-size="20.00"> #veterinario</text>
</g>
<!-- Node10&#45;&gt;Node1 -->
<g id="edge13" class="edge">
<title>Node10&#45;&gt;Node1</title>
<path fill="none" stroke="midnightblue" d="M726.09,-1076.01C726.09,-1002.71 726.09,-904.07 726.09,-817 726.09,-817 726.09,-817 726.09,-271.5 726.09,-223.9 708.48,-173.36 690.8,-134.61"/>
<polygon fill="none" stroke="midnightblue" points="722.59,-1076.18 726.09,-1086.18 729.59,-1076.18 722.59,-1076.18"/>
</g>
</g>
</svg>
        <g id="navigator" transform="translate(0 0)" fill="#404254">
                <rect fill="#f2f5e9" fill-opacity="0.5" stroke="#606060" stroke-width=".5" x="0" y="0" width="60" height="60"/>
                <use id="zoomplus" xlink:href="#zoomPlus" x="17" y="9" onmousedown="handleZoom(evt,'in')"/>
                <use id="zoomminus" xlink:href="#zoomMin" x="42" y="9" onmousedown="handleZoom(evt,'out')"/>
                <use id="reset" xlink:href="#resetDef" x="30" y="36" onmousedown="handleReset()"/>
                <g id="arrowUp" xlink:href="#dirArrow" transform="translate(30 24)" onmousedown="handlePan(0,-1)">
                  <use xlink:href="#rim" fill="#404040">
                        <set attributeName="fill" to="#808080" begin="arrowUp.mouseover" end="arrowUp.mouseout"/>
                  </use>
                  <path fill="none" stroke="white" stroke-width="1.5" d="M0,-3.0v7 M-2.5,-0.5L0,-3.0L2.5,-0.5"/>
                </g>
                <g id="arrowRight" xlink:href="#dirArrow" transform="rotate(90) translate(36 -43)" onmousedown="handlePan(1,0)">
                  <use xlink:href="#rim" fill="#404040">
                        <set attributeName="fill" to="#808080" begin="arrowRight.mouseover" end="arrowRight.mouseout"/>
                  </use>
                  <path fill="none" stroke="white" stroke-width="1.5" d="M0,-3.0v7 M-2.5,-0.5L0,-3.0L2.5,-0.5"/>
                </g>
                <g id="arrowDown" xlink:href="#dirArrow" transform="rotate(180) translate(-30 -48)" onmousedown="handlePan(0,1)">
                  <use xlink:href="#rim" fill="#404040">
                        <set attributeName="fill" to="#808080" begin="arrowDown.mouseover" end="arrowDown.mouseout"/>
                  </use>
                  <path fill="none" stroke="white" stroke-width="1.5" d="M0,-3.0v7 M-2.5,-0.5L0,-3.0L2.5,-0.5"/>
                </g>
                <g id="arrowLeft" xlink:href="#dirArrow" transform="rotate(270) translate(-36 17)" onmousedown="handlePan(-1,0)">
                  <use xlink:href="#rim" fill="#404040">
                        <set attributeName="fill" to="#808080" begin="arrowLeft.mouseover" end="arrowLeft.mouseout"/>
                  </use>
                  <path fill="none" stroke="white" stroke-width="1.5" d="M0,-3.0v7 M-2.5,-0.5L0,-3.0L2.5,-0.5"/>
                </g>
        </g>
        <svg viewBox="0 0 15 15" width="100%" height="30px" preserveAspectRatio="xMaxYMin meet">
         <g id="arrow_out" transform="scale(0.3 0.3)">
          <a xlink:href="classMamiferoExotico__coll__graph_org.svg" target="_base">
           <rect id="button" ry="5" rx="5" y="6" x="6" height="38" width="38"
                fill="#f2f5e9" fill-opacity="0.5" stroke="#606060" stroke-width="1.0"/>
           <path id="arrow"
             d="M 11.500037,31.436501 C 11.940474,20.09759 22.043105,11.32322 32.158766,21.979434 L 37.068811,17.246167 C 37.068811,17.246167 37.088388,32 37.088388,32 L 22.160133,31.978069 C 22.160133,31.978069 26.997745,27.140456 26.997745,27.140456 C 18.528582,18.264221 13.291696,25.230495 11.500037,31.436501 z"
             style="fill:#404040;"/>
          </a>
         </g>
        </svg>
</svg>
