<?xml version="1.0" encoding="UTF-8" standalone="no"?>
<!DOCTYPE svg PUBLIC "-//W3C//DTD SVG 1.1//EN"
 "http://www.w3.org/Graphics/SVG/1.1/DTD/svg11.dtd">
<!-- Generated by graphviz version 2.43.0 (0)
 -->
<!-- Title: Mamifero Pages: 1 -->
<!--zoomable 1598 -->
<svg id="main" version="1.1" xmlns="http://www.w3.org/2000/svg" xmlns:xlink="http://www.w3.org/1999/xlink" xml:space="preserve" onload="init(evt)">
<style type="text/css"><![CDATA[
.edge:hover path { stroke: red; }
.edge:hover polygon { stroke: red; fill: red; }
]]></style>
<script type="text/javascript"><![CDATA[
var edges = document.getElementsByTagName('g');
if (edges && edges.length) {
  for (var i=0;i<edges.length;i++) {
    if (edges[i].id.substr(0,4)=='edge') {
      edges[i].setAttribute('class','edge');
    }
  }
}
]]></script>
        <defs>
                <circle id="rim" cx="0" cy="0" r="7"/>
                <circle id="rim2" cx="0" cy="0" r="3.5"/>
                <g id="zoomPlus">
                        <use xlink:href="#rim" fill="#404040">
                                <set attributeName="fill" to="#808080" begin="zoomplus.mouseover" end="zoomplus.mouseout"/>
                        </use>
                        <path d="M-4,0h8M0,-4v8" fill="none" stroke="white" stroke-width="1.5" pointer-events="none"/>
                </g>
                <g id="zoomMin">
                        <use xlink:href="#rim" fill="#404040">
                                <set attributeName="fill" to="#808080" begin="zoomminus.mouseover" end="zoomminus.mouseout"/>
                        </use>
                        <path d="M-4,0h8" fill="none" stroke="white" stroke-width="1.5" pointer-events="none"/>
                </g>
                <g id="dirArrow">
                        <path fill="none" stroke="white" stroke-width="1.5" d="M0,-3.0v7 M-2.5,-0.5L0,-3.0L2.5,-0.5"/>
                </g>
               <g id="resetDef">
                       <use xlink:href="#rim2" fill="#404040">
                               <set attributeName="fill" to="#808080" begin="reset.mouseover" end="reset.mouseout"/>
                       </use>
               </g>
        </defs>

<script type="text/javascript">
var viewWidth = 767;
var viewHeight = 1598;
var sectionId = 'dynsection-1';
</script>
<script xlink:href="svgpan.js"/>
<svg id="graph" class="graph">
<g id="viewport">
<title>Mamifero</title>
<polygon fill="white" stroke="transparent" points="-4,4 -4,-1594 762.88,-1594 762.88,4 -4,4"/>
<!-- Node1 -->
<g id="node1" class="node">
<title>Node1</title>
<g id="a_node1"><a xlink:title="Classificação base para Mamiferos.">
<polygon fill="#bfbfbf" stroke="black" points="492.38,-0.5 492.38,-200.5 671.38,-200.5 671.38,-0.5 492.38,-0.5"/>
<text text-anchor="middle" x="581.88" y="-180.5" font-family="Helvetica,sans-Serif" font-size="20.00">Mamifero</text>
<polyline fill="none" stroke="black" points="492.38,-170.5 671.38,-170.5 "/>
<text text-anchor="middle" x="581.88" y="-150.5" font-family="Helvetica,sans-Serif" font-size="20.00"> </text>
<polyline fill="none" stroke="black" points="492.38,-140.5 671.38,-140.5 "/>
<text text-anchor="start" x="500.38" y="-120.5" font-family="Helvetica,sans-Serif" font-size="20.00">+ Mamifero()</text>
<text text-anchor="start" x="500.38" y="-98.5" font-family="Helvetica,sans-Serif" font-size="20.00">+ Mamifero()</text>
<text text-anchor="start" x="500.38" y="-76.5" font-family="Helvetica,sans-Serif" font-size="20.00">+ ~Mamifero()</text>
<text text-anchor="start" x="500.38" y="-54.5" font-family="Helvetica,sans-Serif" font-size="20.00">+ getGestacao()</text>
<text text-anchor="start" x="500.38" y="-32.5" font-family="Helvetica,sans-Serif" font-size="20.00">+ setGestacao()</text>
<text text-anchor="start" x="500.38" y="-10.5" font-family="Helvetica,sans-Serif" font-size="20.00">+ setGestacao()</text>
</a>
</g>
</g>
<!-- Node2 -->
<g id="node2" class="node">
<title>Node2</title>
<g id="a_node2"><a xlink:href="classAnimal.html" target="_top" xlink:title="Implementação base para o cadastro de animais.">
<polygon fill="white" stroke="black" points="392.38,-238.5 392.38,-614.5 615.38,-614.5 615.38,-238.5 392.38,-238.5"/>
<text text-anchor="middle" x="503.88" y="-594.5" font-family="Helvetica,sans-Serif" font-size="20.00">Animal</text>
<polyline fill="none" stroke="black" points="392.38,-584.5 615.38,-584.5 "/>
<text text-anchor="middle" x="503.88" y="-564.5" font-family="Helvetica,sans-Serif" font-size="20.00"> </text>
<polyline fill="none" stroke="black" points="392.38,-554.5 615.38,-554.5 "/>
<text text-anchor="start" x="400.38" y="-534.5" font-family="Helvetica,sans-Serif" font-size="20.00">+ Animal()</text>
<text text-anchor="start" x="400.38" y="-512.5" font-family="Helvetica,sans-Serif" font-size="20.00">+ Animal()</text>
<text text-anchor="start" x="400.38" y="-490.5" font-family="Helvetica,sans-Serif" font-size="20.00">+ ~Animal()</text>
<text text-anchor="start" x="400.38" y="-468.5" font-family="Helvetica,sans-Serif" font-size="20.00">+ getNome()</text>
<text text-anchor="start" x="400.38" y="-446.5" font-family="Helvetica,sans-Serif" font-size="20.00">+ getEspecie()</text>
<text text-anchor="start" x="400.38" y="-424.5" font-family="Helvetica,sans-Serif" font-size="20.00">+ getAmeacadoPor()</text>
<text text-anchor="start" x="400.38" y="-402.5" font-family="Helvetica,sans-Serif" font-size="20.00">+ getVeterinario()</text>
<text text-anchor="start" x="400.38" y="-380.5" font-family="Helvetica,sans-Serif" font-size="20.00">+ getTratador()</text>
<text text-anchor="start" x="400.38" y="-358.5" font-family="Helvetica,sans-Serif" font-size="20.00">+ getPerigoso()</text>
<text text-anchor="start" x="400.38" y="-336.5" font-family="Helvetica,sans-Serif" font-size="20.00">+ setNome()</text>
<text text-anchor="start" x="400.38" y="-314.5" font-family="Helvetica,sans-Serif" font-size="20.00">e 13 mais...</text>
<text text-anchor="start" x="400.38" y="-292.5" font-family="Helvetica,sans-Serif" font-size="20.00">+ getClassificacao()</text>
<text text-anchor="start" x="400.38" y="-270.5" font-family="Helvetica,sans-Serif" font-size="20.00">+ getClasse()</text>
<text text-anchor="start" x="400.38" y="-248.5" font-family="Helvetica,sans-Serif" font-size="20.00">+ printOutDetails()</text>
</a>
</g>
</g>
<!-- Node2&#45;&gt;Node1 -->
<g id="edge1" class="edge">
<title>Node2&#45;&gt;Node1</title>
<path fill="none" stroke="midnightblue" d="M551.31,-228.5C553.59,-219.02 555.83,-209.71 558,-200.7"/>
<polygon fill="none" stroke="midnightblue" points="547.85,-227.89 548.91,-238.44 554.66,-229.53 547.85,-227.89"/>
</g>
<!-- Node3 -->
<g id="node3" class="node">
<title>Node3</title>
<g id="a_node3"><a xlink:href="classTratador.html" target="_top" xlink:title="Implementação dos tratadores.">
<polygon fill="white" stroke="black" points="275.88,-673.5 275.88,-895.5 475.88,-895.5 475.88,-673.5 275.88,-673.5"/>
<text text-anchor="middle" x="375.88" y="-875.5" font-family="Helvetica,sans-Serif" font-size="20.00">Tratador</text>
<polyline fill="none" stroke="black" points="275.88,-865.5 475.88,-865.5 "/>
<text text-anchor="middle" x="375.88" y="-845.5" font-family="Helvetica,sans-Serif" font-size="20.00"> </text>
<polyline fill="none" stroke="black" points="275.88,-835.5 475.88,-835.5 "/>
<text text-anchor="start" x="283.88" y="-815.5" font-family="Helvetica,sans-Serif" font-size="20.00">+ Tratador()</text>
<text text-anchor="start" x="283.88" y="-793.5" font-family="Helvetica,sans-Serif" font-size="20.00">+ Tratador()</text>
<text text-anchor="start" x="283.88" y="-771.5" font-family="Helvetica,sans-Serif" font-size="20.00">+ ~Tratador()</text>
<text text-anchor="start" x="283.88" y="-749.5" font-family="Helvetica,sans-Serif" font-size="20.00">+ getUniforme()</text>
<text text-anchor="start" x="283.88" y="-727.5" font-family="Helvetica,sans-Serif" font-size="20.00">+ setUniforme()</text>
<text text-anchor="start" x="283.88" y="-705.5" font-family="Helvetica,sans-Serif" font-size="20.00">+ setUniforme()</text>
<text text-anchor="start" x="283.88" y="-683.5" font-family="Helvetica,sans-Serif" font-size="20.00">+ printOutDados()</text>
</a>
</g>
</g>
<!-- Node3&#45;&gt;Node2 -->
<g id="edge2" class="edge">
<title>Node3&#45;&gt;Node2</title>
<path fill="none" stroke="#404040" d="M378.27,-673.13C380.22,-659.45 382.99,-645.78 386.88,-633 387.58,-630.72 388.3,-628.43 389.05,-626.15"/>
<polygon fill="none" stroke="#404040" points="389.08,-626.05 387.27,-619.07 393.02,-614.71 394.83,-621.69 389.08,-626.05"/>
<text text-anchor="middle" x="438.38" y="-639" font-family="Helvetica,sans-Serif" font-size="20.00"> #tratador</text>
</g>
<!-- Node4 -->
<g id="node4" class="node">
<title>Node4</title>
<g id="a_node4"><a xlink:href="classPessoa.html" target="_top" xlink:title="Classe base dos funcionarios.">
<polygon fill="white" stroke="black" points="127.88,-998.5 127.88,-1396.5 327.88,-1396.5 327.88,-998.5 127.88,-998.5"/>
<text text-anchor="middle" x="227.88" y="-1376.5" font-family="Helvetica,sans-Serif" font-size="20.00">Pessoa</text>
<polyline fill="none" stroke="black" points="127.88,-1366.5 327.88,-1366.5 "/>
<text text-anchor="middle" x="227.88" y="-1346.5" font-family="Helvetica,sans-Serif" font-size="20.00"> </text>
<polyline fill="none" stroke="black" points="127.88,-1336.5 327.88,-1336.5 "/>
<text text-anchor="start" x="135.88" y="-1316.5" font-family="Helvetica,sans-Serif" font-size="20.00">+ Pessoa()</text>
<text text-anchor="start" x="135.88" y="-1294.5" font-family="Helvetica,sans-Serif" font-size="20.00">+ Pessoa()</text>
<text text-anchor="start" x="135.88" y="-1272.5" font-family="Helvetica,sans-Serif" font-size="20.00">+ ~Pessoa()</text>
<text text-anchor="start" x="135.88" y="-1250.5" font-family="Helvetica,sans-Serif" font-size="20.00">+ getNome()</text>
<text text-anchor="start" x="135.88" y="-1228.5" font-family="Helvetica,sans-Serif" font-size="20.00">+ setNome()</text>
<text text-anchor="start" x="135.88" y="-1206.5" font-family="Helvetica,sans-Serif" font-size="20.00">+ setNome()</text>
<text text-anchor="start" x="135.88" y="-1184.5" font-family="Helvetica,sans-Serif" font-size="20.00">+ getTelefone()</text>
<text text-anchor="start" x="135.88" y="-1162.5" font-family="Helvetica,sans-Serif" font-size="20.00">+ setTelefone()</text>
<text text-anchor="start" x="135.88" y="-1140.5" font-family="Helvetica,sans-Serif" font-size="20.00">+ setTelefone()</text>
<text text-anchor="start" x="135.88" y="-1118.5" font-family="Helvetica,sans-Serif" font-size="20.00">+ getEmail()</text>
<text text-anchor="start" x="135.88" y="-1096.5" font-family="Helvetica,sans-Serif" font-size="20.00">+ setEmail()</text>
<text text-anchor="start" x="135.88" y="-1074.5" font-family="Helvetica,sans-Serif" font-size="20.00">+ setEmail()</text>
<text text-anchor="start" x="135.88" y="-1052.5" font-family="Helvetica,sans-Serif" font-size="20.00">+ printOutDados()</text>
<text text-anchor="start" x="135.88" y="-1030.5" font-family="Helvetica,sans-Serif" font-size="20.00">+ operator==()</text>
<text text-anchor="start" x="135.88" y="-1008.5" font-family="Helvetica,sans-Serif" font-size="20.00">+ operator==()</text>
</a>
</g>
</g>
<!-- Node4&#45;&gt;Node3 -->
<g id="edge3" class="edge">
<title>Node4&#45;&gt;Node3</title>
<path fill="none" stroke="midnightblue" d="M302.71,-988.7C314.29,-956.55 325.84,-924.48 336.23,-895.62"/>
<polygon fill="none" stroke="midnightblue" points="299.37,-987.63 299.28,-998.22 305.96,-990 299.37,-987.63"/>
</g>
<!-- Node8 -->
<g id="node8" class="node">
<title>Node8</title>
<g id="a_node8"><a xlink:href="classVeterinario.html" target="_top" xlink:title="Implementação dos veterinarios.">
<polygon fill="white" stroke="black" points="57.88,-673.5 57.88,-895.5 257.88,-895.5 257.88,-673.5 57.88,-673.5"/>
<text text-anchor="middle" x="157.88" y="-875.5" font-family="Helvetica,sans-Serif" font-size="20.00">Veterinario</text>
<polyline fill="none" stroke="black" points="57.88,-865.5 257.88,-865.5 "/>
<text text-anchor="middle" x="157.88" y="-845.5" font-family="Helvetica,sans-Serif" font-size="20.00"> </text>
<polyline fill="none" stroke="black" points="57.88,-835.5 257.88,-835.5 "/>
<text text-anchor="start" x="65.88" y="-815.5" font-family="Helvetica,sans-Serif" font-size="20.00">+ Veterinario()</text>
<text text-anchor="start" x="65.88" y="-793.5" font-family="Helvetica,sans-Serif" font-size="20.00">+ Veterinario()</text>
<text text-anchor="start" x="65.88" y="-771.5" font-family="Helvetica,sans-Serif" font-size="20.00">+ ~Veterinario()</text>
<text text-anchor="start" x="65.88" y="-749.5" font-family="Helvetica,sans-Serif" font-size="20.00">+ getCRMV()</text>
<text text-anchor="start" x="65.88" y="-727.5" font-family="Helvetica,sans-Serif" font-size="20.00">+ setCRMV()</text>
<text text-anchor="start" x="65.88" y="-705.5" font-family="Helvetica,sans-Serif" font-size="20.00">+ setCRMV()</text>
<text text-anchor="start" x="65.88" y="-683.5" font-family="Helvetica,sans-Serif" font-size="20.00">+ printOutDados()</text>
</a>
</g>
</g>
<!-- Node4&#45;&gt;Node8 -->
<g id="edge9" class="edge">
<title>Node4&#45;&gt;Node8</title>
<path fill="none" stroke="midnightblue" d="M192.42,-988.29C186.97,-956.28 181.53,-924.35 176.64,-895.62"/>
<polygon fill="none" stroke="midnightblue" points="188.98,-988.95 194.11,-998.22 195.88,-987.78 188.98,-988.95"/>
</g>
<!-- Node5 -->
<g id="node5" class="node">
<title>Node5</title>
<g id="a_node5"><a xlink:title=" ">
<polygon fill="white" stroke="#bfbfbf" points="190.88,-1499.5 190.88,-1589.5 264.88,-1589.5 264.88,-1499.5 190.88,-1499.5"/>
<text text-anchor="middle" x="227.88" y="-1569.5" font-family="Helvetica,sans-Serif" font-size="20.00">string</text>
<polyline fill="none" stroke="#bfbfbf" points="190.88,-1559.5 264.88,-1559.5 "/>
<text text-anchor="middle" x="227.88" y="-1539.5" font-family="Helvetica,sans-Serif" font-size="20.00"> </text>
<polyline fill="none" stroke="#bfbfbf" points="190.88,-1529.5 264.88,-1529.5 "/>
<text text-anchor="middle" x="227.88" y="-1509.5" font-family="Helvetica,sans-Serif" font-size="20.00"> </text>
</a>
</g>
</g>
<!-- Node5&#45;&gt;Node2 -->
<g id="edge7" class="edge">
<title>Node5&#45;&gt;Node2</title>
<path fill="none" stroke="#404040" d="M265.12,-1532.44C319.31,-1514.15 418.2,-1471.95 461.88,-1397 535.32,-1270.99 528.63,-871.96 516.61,-626.85"/>
<polygon fill="none" stroke="#404040" points="516.6,-626.56 512.3,-620.77 516,-614.57 520.29,-620.37 516.6,-626.56"/>
<text text-anchor="middle" x="600.88" y="-964" font-family="Helvetica,sans-Serif" font-size="20.00"> #especie</text>
<text text-anchor="middle" x="600.88" y="-942" font-family="Helvetica,sans-Serif" font-size="20.00">#ameacadoPor</text>
<text text-anchor="middle" x="600.88" y="-920" font-family="Helvetica,sans-Serif" font-size="20.00">#nome</text>
</g>
<!-- Node5&#45;&gt;Node4 -->
<g id="edge4" class="edge">
<title>Node5&#45;&gt;Node4</title>
<path fill="none" stroke="#404040" d="M227.88,-1499.46C227.88,-1475.16 227.88,-1443.03 227.88,-1408.8"/>
<polygon fill="none" stroke="#404040" points="227.88,-1408.62 223.88,-1402.62 227.88,-1396.62 231.88,-1402.62 227.88,-1408.62"/>
<text text-anchor="middle" x="276.38" y="-1465" font-family="Helvetica,sans-Serif" font-size="20.00"> #email</text>
<text text-anchor="middle" x="276.38" y="-1443" font-family="Helvetica,sans-Serif" font-size="20.00">#nome</text>
<text text-anchor="middle" x="276.38" y="-1421" font-family="Helvetica,sans-Serif" font-size="20.00">#telefone</text>
</g>
<!-- Node5&#45;&gt;Node8 -->
<g id="edge10" class="edge">
<title>Node5&#45;&gt;Node8</title>
<path fill="none" stroke="#404040" d="M190.53,-1526.27C146.56,-1503.65 75.75,-1459.38 45.88,-1397 -30.7,-1237.05 3.29,-1170.14 45.88,-998 53.56,-966.95 66.7,-935.43 81.32,-906.51"/>
<polygon fill="none" stroke="#404040" points="81.48,-906.21 80.68,-899.05 86.99,-895.56 87.79,-902.73 81.48,-906.21"/>
<text text-anchor="middle" x="82.38" y="-1192.5" font-family="Helvetica,sans-Serif" font-size="20.00"> &#45;CRMV</text>
</g>
<!-- Node6 -->
<g id="node6" class="node">
<title>Node6</title>
<g id="a_node6"><a xlink:title=" ">
<polygon fill="white" stroke="#bfbfbf" points="346.38,-1152.5 346.38,-1242.5 453.38,-1242.5 453.38,-1152.5 346.38,-1152.5"/>
<text text-anchor="middle" x="399.88" y="-1222.5" font-family="Helvetica,sans-Serif" font-size="20.00">Uniforme</text>
<polyline fill="none" stroke="#bfbfbf" points="346.38,-1212.5 453.38,-1212.5 "/>
<text text-anchor="middle" x="399.88" y="-1192.5" font-family="Helvetica,sans-Serif" font-size="20.00"> </text>
<polyline fill="none" stroke="#bfbfbf" points="346.38,-1182.5 453.38,-1182.5 "/>
<text text-anchor="middle" x="399.88" y="-1162.5" font-family="Helvetica,sans-Serif" font-size="20.00"> </text>
</a>
</g>
</g>
<!-- Node6&#45;&gt;Node3 -->
<g id="edge5" class="edge">
<title>Node6&#45;&gt;Node3</title>
<path fill="none" stroke="#404040" d="M394.52,-1152.21C389.49,-1108.51 382.23,-1039.76 378.88,-980 377.57,-956.64 376.75,-931.67 376.25,-907.68"/>
<polygon fill="none" stroke="#404040" points="376.25,-907.62 372.13,-901.69 376.02,-895.62 380.13,-901.54 376.25,-907.62"/>
<text text-anchor="middle" x="430.38" y="-942" font-family="Helvetica,sans-Serif" font-size="20.00"> &#45;uniforme</text>
</g>
<!-- Node7 -->
<g id="node7" class="node">
<title>Node7</title>
<g id="a_node7"><a xlink:title=" ">
<polygon fill="white" stroke="#bfbfbf" points="581.38,-739.5 581.38,-829.5 640.38,-829.5 640.38,-739.5 581.38,-739.5"/>
<text text-anchor="middle" x="610.88" y="-809.5" font-family="Helvetica,sans-Serif" font-size="20.00">bool</text>
<polyline fill="none" stroke="#bfbfbf" points="581.38,-799.5 640.38,-799.5 "/>
<text text-anchor="middle" x="610.88" y="-779.5" font-family="Helvetica,sans-Serif" font-size="20.00"> </text>
<polyline fill="none" stroke="#bfbfbf" points="581.38,-769.5 640.38,-769.5 "/>
<text text-anchor="middle" x="610.88" y="-749.5" font-family="Helvetica,sans-Serif" font-size="20.00"> </text>
</a>
</g>
</g>
<!-- Node7&#45;&gt;Node1 -->
<g id="edge11" class="edge">
<title>Node7&#45;&gt;Node1</title>
<path fill="none" stroke="#404040" d="M626.51,-739.24C634.33,-714.75 642.95,-683.58 646.88,-655 648.21,-645.31 647.17,-642.77 646.88,-633 641.77,-457.22 655.07,-411.06 623.88,-238 622.37,-229.61 620.51,-221.02 618.41,-212.42"/>
<polygon fill="none" stroke="#404040" points="618.39,-212.34 613.03,-207.51 615.43,-200.71 620.79,-205.54 618.39,-212.34"/>
<text text-anchor="middle" x="702.38" y="-421.5" font-family="Helvetica,sans-Serif" font-size="20.00"> #gestacao</text>
</g>
<!-- Node7&#45;&gt;Node2 -->
<g id="edge6" class="edge">
<title>Node7&#45;&gt;Node2</title>
<path fill="none" stroke="#404040" d="M581.32,-740.81C566,-716.66 548.35,-685.32 537.88,-655 534.71,-645.81 531.83,-636.31 529.22,-626.64"/>
<polygon fill="none" stroke="#404040" points="529.16,-626.39 523.79,-621.58 526.17,-614.77 531.54,-619.59 529.16,-626.39"/>
<text text-anchor="middle" x="592.38" y="-639" font-family="Helvetica,sans-Serif" font-size="20.00"> #perigoso</text>
</g>
<!-- Node8&#45;&gt;Node2 -->
<g id="edge8" class="edge">
<title>Node8&#45;&gt;Node2</title>
<path fill="none" stroke="#404040" d="M217.39,-673.42C226.83,-659.26 237.08,-645.4 247.88,-633 287.11,-587.97 337.12,-545.37 382.52,-510.75"/>
<polygon fill="none" stroke="#404040" points="382.55,-510.73 384.93,-503.92 392.13,-503.49 389.75,-510.3 382.55,-510.73"/>
<text text-anchor="middle" x="312.88" y="-639" font-family="Helvetica,sans-Serif" font-size="20.00"> #veterinario</text>
</g>
</g>
</svg>
        <g id="navigator" transform="translate(0 0)" fill="#404254">
                <rect fill="#f2f5e9" fill-opacity="0.5" stroke="#606060" stroke-width=".5" x="0" y="0" width="60" height="60"/>
                <use id="zoomplus" xlink:href="#zoomPlus" x="17" y="9" onmousedown="handleZoom(evt,'in')"/>
                <use id="zoomminus" xlink:href="#zoomMin" x="42" y="9" onmousedown="handleZoom(evt,'out')"/>
                <use id="reset" xlink:href="#resetDef" x="30" y="36" onmousedown="handleReset()"/>
                <g id="arrowUp" xlink:href="#dirArrow" transform="translate(30 24)" onmousedown="handlePan(0,-1)">
                  <use xlink:href="#rim" fill="#404040">
                        <set attributeName="fill" to="#808080" begin="arrowUp.mouseover" end="arrowUp.mouseout"/>
                  </use>
                  <path fill="none" stroke="white" stroke-width="1.5" d="M0,-3.0v7 M-2.5,-0.5L0,-3.0L2.5,-0.5"/>
                </g>
                <g id="arrowRight" xlink:href="#dirArrow" transform="rotate(90) translate(36 -43)" onmousedown="handlePan(1,0)">
                  <use xlink:href="#rim" fill="#404040">
                        <set attributeName="fill" to="#808080" begin="arrowRight.mouseover" end="arrowRight.mouseout"/>
                  </use>
                  <path fill="none" stroke="white" stroke-width="1.5" d="M0,-3.0v7 M-2.5,-0.5L0,-3.0L2.5,-0.5"/>
                </g>
                <g id="arrowDown" xlink:href="#dirArrow" transform="rotate(180) translate(-30 -48)" onmousedown="handlePan(0,1)">
                  <use xlink:href="#rim" fill="#404040">
                        <set attributeName="fill" to="#808080" begin="arrowDown.mouseover" end="arrowDown.mouseout"/>
                  </use>
                  <path fill="none" stroke="white" stroke-width="1.5" d="M0,-3.0v7 M-2.5,-0.5L0,-3.0L2.5,-0.5"/>
                </g>
                <g id="arrowLeft" xlink:href="#dirArrow" transform="rotate(270) translate(-36 17)" onmousedown="handlePan(-1,0)">
                  <use xlink:href="#rim" fill="#404040">
                        <set attributeName="fill" to="#808080" begin="arrowLeft.mouseover" end="arrowLeft.mouseout"/>
                  </use>
                  <path fill="none" stroke="white" stroke-width="1.5" d="M0,-3.0v7 M-2.5,-0.5L0,-3.0L2.5,-0.5"/>
                </g>
        </g>
        <svg viewBox="0 0 15 15" width="100%" height="30px" preserveAspectRatio="xMaxYMin meet">
         <g id="arrow_out" transform="scale(0.3 0.3)">
          <a xlink:href="classMamifero__coll__graph_org.svg" target="_base">
           <rect id="button" ry="5" rx="5" y="6" x="6" height="38" width="38"
                fill="#f2f5e9" fill-opacity="0.5" stroke="#606060" stroke-width="1.0"/>
           <path id="arrow"
             d="M 11.500037,31.436501 C 11.940474,20.09759 22.043105,11.32322 32.158766,21.979434 L 37.068811,17.246167 C 37.068811,17.246167 37.088388,32 37.088388,32 L 22.160133,31.978069 C 22.160133,31.978069 26.997745,27.140456 26.997745,27.140456 C 18.528582,18.264221 13.291696,25.230495 11.500037,31.436501 z"
             style="fill:#404040;"/>
          </a>
         </g>
        </svg>
</svg>
