<?xml version="1.0" encoding="UTF-8" standalone="no"?>
<!DOCTYPE svg PUBLIC "-//W3C//DTD SVG 1.1//EN"
 "http://www.w3.org/Graphics/SVG/1.1/DTD/svg11.dtd">
<!-- Generated by graphviz version 2.43.0 (0)
 -->
<!-- Title: Tratador Pages: 1 -->
<svg width="338pt" height="683pt"
 viewBox="0.00 0.00 338.00 683.00" xmlns="http://www.w3.org/2000/svg" xmlns:xlink="http://www.w3.org/1999/xlink">
<g id="graph0" class="graph" transform="scale(1 1) rotate(0) translate(4 679)">
<title>Tratador</title>
<polygon fill="white" stroke="transparent" points="-4,4 -4,-679 334,-679 334,4 -4,4"/>
<!-- Node1 -->
<g id="node1" class="node">
<title>Node1</title>
<g id="a_node1"><a xlink:title="Implementação dos tratadores.">
<polygon fill="#bfbfbf" stroke="black" points="86,-0.5 86,-178.5 286,-178.5 286,-0.5 86,-0.5"/>
<text text-anchor="middle" x="186" y="-158.5" font-family="Helvetica,sans-Serif" font-size="20.00">Tratador</text>
<polyline fill="none" stroke="black" points="86,-148.5 286,-148.5 "/>
<text text-anchor="middle" x="186" y="-128.5" font-family="Helvetica,sans-Serif" font-size="20.00"> </text>
<polyline fill="none" stroke="black" points="86,-118.5 286,-118.5 "/>
<text text-anchor="start" x="94" y="-98.5" font-family="Helvetica,sans-Serif" font-size="20.00">+ Tratador()</text>
<text text-anchor="start" x="94" y="-76.5" font-family="Helvetica,sans-Serif" font-size="20.00">+ Tratador()</text>
<text text-anchor="start" x="94" y="-54.5" font-family="Helvetica,sans-Serif" font-size="20.00">+ ~Tratador()</text>
<text text-anchor="start" x="94" y="-32.5" font-family="Helvetica,sans-Serif" font-size="20.00">+ getUniforme()</text>
<text text-anchor="start" x="94" y="-10.5" font-family="Helvetica,sans-Serif" font-size="20.00">+ printOutDados()</text>
</a>
</g>
</g>
<!-- Node2 -->
<g id="node2" class="node">
<title>Node2</title>
<g id="a_node2"><a xlink:href="classPessoa.html" target="_top" xlink:title="Classe base dos funcionarios.">
<polygon fill="white" stroke="black" points="0,-237.5 0,-481.5 200,-481.5 200,-237.5 0,-237.5"/>
<text text-anchor="middle" x="100" y="-461.5" font-family="Helvetica,sans-Serif" font-size="20.00">Pessoa</text>
<polyline fill="none" stroke="black" points="0,-451.5 200,-451.5 "/>
<text text-anchor="middle" x="100" y="-431.5" font-family="Helvetica,sans-Serif" font-size="20.00"> </text>
<polyline fill="none" stroke="black" points="0,-421.5 200,-421.5 "/>
<text text-anchor="start" x="8" y="-401.5" font-family="Helvetica,sans-Serif" font-size="20.00">+ Pessoa()</text>
<text text-anchor="start" x="8" y="-379.5" font-family="Helvetica,sans-Serif" font-size="20.00">+ Pessoa()</text>
<text text-anchor="start" x="8" y="-357.5" font-family="Helvetica,sans-Serif" font-size="20.00">+ ~Pessoa()</text>
<text text-anchor="start" x="8" y="-335.5" font-family="Helvetica,sans-Serif" font-size="20.00">+ getNome()</text>
<text text-anchor="start" x="8" y="-313.5" font-family="Helvetica,sans-Serif" font-size="20.00">+ getTelefone()</text>
<text text-anchor="start" x="8" y="-291.5" font-family="Helvetica,sans-Serif" font-size="20.00">+ getEmail()</text>
<text text-anchor="start" x="8" y="-269.5" font-family="Helvetica,sans-Serif" font-size="20.00">+ printOutDados()</text>
<text text-anchor="start" x="8" y="-247.5" font-family="Helvetica,sans-Serif" font-size="20.00">+ operator==()</text>
</a>
</g>
</g>
<!-- Node2&#45;&gt;Node1 -->
<g id="edge1" class="edge">
<title>Node2&#45;&gt;Node1</title>
<path fill="none" stroke="midnightblue" d="M141.99,-227.65C147.33,-211 152.69,-194.29 157.75,-178.54"/>
<polygon fill="none" stroke="midnightblue" points="138.57,-226.85 138.85,-237.44 145.24,-228.98 138.57,-226.85"/>
</g>
<!-- Node3 -->
<g id="node3" class="node">
<title>Node3</title>
<g id="a_node3"><a xlink:title=" ">
<polygon fill="white" stroke="#bfbfbf" points="63,-584.5 63,-674.5 137,-674.5 137,-584.5 63,-584.5"/>
<text text-anchor="middle" x="100" y="-654.5" font-family="Helvetica,sans-Serif" font-size="20.00">string</text>
<polyline fill="none" stroke="#bfbfbf" points="63,-644.5 137,-644.5 "/>
<text text-anchor="middle" x="100" y="-624.5" font-family="Helvetica,sans-Serif" font-size="20.00"> </text>
<polyline fill="none" stroke="#bfbfbf" points="63,-614.5 137,-614.5 "/>
<text text-anchor="middle" x="100" y="-594.5" font-family="Helvetica,sans-Serif" font-size="20.00"> </text>
</a>
</g>
</g>
<!-- Node3&#45;&gt;Node2 -->
<g id="edge2" class="edge">
<title>Node3&#45;&gt;Node2</title>
<path fill="none" stroke="#404040" d="M100,-584.25C100,-559.22 100,-526.47 100,-493.77"/>
<polygon fill="none" stroke="#404040" points="100,-493.74 96,-487.74 100,-481.74 104,-487.74 100,-493.74"/>
<text text-anchor="middle" x="148.5" y="-550" font-family="Helvetica,sans-Serif" font-size="20.00"> #email</text>
<text text-anchor="middle" x="148.5" y="-528" font-family="Helvetica,sans-Serif" font-size="20.00">#nome</text>
<text text-anchor="middle" x="148.5" y="-506" font-family="Helvetica,sans-Serif" font-size="20.00">#telefone</text>
</g>
<!-- Node4 -->
<g id="node4" class="node">
<title>Node4</title>
<g id="a_node4"><a xlink:title=" ">
<polygon fill="white" stroke="#bfbfbf" points="218.5,-314.5 218.5,-404.5 325.5,-404.5 325.5,-314.5 218.5,-314.5"/>
<text text-anchor="middle" x="272" y="-384.5" font-family="Helvetica,sans-Serif" font-size="20.00">Uniforme</text>
<polyline fill="none" stroke="#bfbfbf" points="218.5,-374.5 325.5,-374.5 "/>
<text text-anchor="middle" x="272" y="-354.5" font-family="Helvetica,sans-Serif" font-size="20.00"> </text>
<polyline fill="none" stroke="#bfbfbf" points="218.5,-344.5 325.5,-344.5 "/>
<text text-anchor="middle" x="272" y="-324.5" font-family="Helvetica,sans-Serif" font-size="20.00"> </text>
</a>
</g>
</g>
<!-- Node4&#45;&gt;Node1 -->
<g id="edge3" class="edge">
<title>Node4&#45;&gt;Node1</title>
<path fill="none" stroke="#404040" d="M257.8,-314.25C247,-280.61 231.73,-233.01 218.04,-190.35"/>
<polygon fill="none" stroke="#404040" points="217.99,-190.18 212.35,-185.69 214.32,-178.76 219.96,-183.25 217.99,-190.18"/>
<text text-anchor="middle" x="278.5" y="-203" font-family="Helvetica,sans-Serif" font-size="20.00"> &#45;uniforme</text>
</g>
</g>
</svg>
