<?xml version="1.0" encoding="UTF-8" standalone="no"?>
<!DOCTYPE svg PUBLIC "-//W3C//DTD SVG 1.1//EN"
 "http://www.w3.org/Graphics/SVG/1.1/DTD/svg11.dtd">
<!-- Generated by graphviz version 2.40.1 (20161225.0304)
 -->
<!-- Title: MamiferoDomestico Pages: 1 -->
<!--zoomable 1618 -->
<svg id="main" version="1.1" xmlns="http://www.w3.org/2000/svg" xmlns:xlink="http://www.w3.org/1999/xlink" xml:space="preserve" onload="init(evt)">
<style type="text/css"><![CDATA[
.edge:hover path { stroke: red; }
.edge:hover polygon { stroke: red; fill: red; }
]]></style>
<script type="text/javascript"><![CDATA[
var edges = document.getElementsByTagName('g');
if (edges && edges.length) {
  for (var i=0;i<edges.length;i++) {
    if (edges[i].id.substr(0,4)=='edge') {
      edges[i].setAttribute('class','edge');
    }
  }
}
]]></script>
        <defs>
                <circle id="rim" cx="0" cy="0" r="7"/>
                <circle id="rim2" cx="0" cy="0" r="3.5"/>
                <g id="zoomPlus">
                        <use xlink:href="#rim" fill="#404040">
                                <set attributeName="fill" to="#808080" begin="zoomplus.mouseover" end="zoomplus.mouseout"/>
                        </use>
                        <path d="M-4,0h8M0,-4v8" fill="none" stroke="white" stroke-width="1.5" pointer-events="none"/>
                </g>
                <g id="zoomMin">
                        <use xlink:href="#rim" fill="#404040">
                                <set attributeName="fill" to="#808080" begin="zoomminus.mouseover" end="zoomminus.mouseout"/>
                        </use>
                        <path d="M-4,0h8" fill="none" stroke="white" stroke-width="1.5" pointer-events="none"/>
                </g>
                <g id="dirArrow">
                        <path fill="none" stroke="white" stroke-width="1.5" d="M0,-3.0v7 M-2.5,-0.5L0,-3.0L2.5,-0.5"/>
                </g>
               <g id="resetDef">
                       <use xlink:href="#rim2" fill="#404040">
                               <set attributeName="fill" to="#808080" begin="reset.mouseover" end="reset.mouseout"/>
                       </use>
               </g>
        </defs>

<script type="text/javascript">
var viewWidth = 782;
var viewHeight = 1618;
var sectionId = 'dynsection-1';
</script>
<script xlink:href="svgpan.js"/>
<svg id="graph" class="graph">
<g id="viewport">
<title>MamiferoDomestico</title>
<polygon fill="#ffffff" stroke="transparent" points="-4,4 -4,-1614 778,-1614 778,4 -4,4"/>
<!-- Node4 -->
<g id="node1" class="node">
<title>Node4</title>
<polygon fill="#bfbfbf" stroke="#000000" points="0,-.5 0,-112.5 218,-112.5 218,-.5 0,-.5"/>
<text text-anchor="middle" x="109" y="-92.5" font-family="Helvetica,sans-Serif" font-size="20.00" fill="#000000">MamiferoDomestico</text>
<polyline fill="none" stroke="#000000" points="0,-82.5 218,-82.5 "/>
<text text-anchor="middle" x="109" y="-62.5" font-family="Helvetica,sans-Serif" font-size="20.00" fill="#000000"> </text>
<polyline fill="none" stroke="#000000" points="0,-52.5 218,-52.5 "/>
<text text-anchor="start" x="8" y="-32.5" font-family="Helvetica,sans-Serif" font-size="20.00" fill="#000000">+ MamiferoDomestico()</text>
<text text-anchor="start" x="8" y="-10.5" font-family="Helvetica,sans-Serif" font-size="20.00" fill="#000000">+ ~MamiferoDomestico()</text>
</g>
<!-- Node5 -->
<g id="node2" class="node">
<title>Node5</title>
<g id="a_node2"><a xlink:href="classMamifero.html" target="_top" xlink:title="Classificação base para Mamiferos. ">
<polygon fill="#ffffff" stroke="#000000" points="23.5,-325.5 23.5,-459.5 170.5,-459.5 170.5,-325.5 23.5,-325.5"/>
<text text-anchor="middle" x="97" y="-439.5" font-family="Helvetica,sans-Serif" font-size="20.00" fill="#000000">Mamifero</text>
<polyline fill="none" stroke="#000000" points="23.5,-429.5 170.5,-429.5 "/>
<text text-anchor="middle" x="97" y="-409.5" font-family="Helvetica,sans-Serif" font-size="20.00" fill="#000000"> </text>
<polyline fill="none" stroke="#000000" points="23.5,-399.5 170.5,-399.5 "/>
<text text-anchor="start" x="31.5" y="-379.5" font-family="Helvetica,sans-Serif" font-size="20.00" fill="#000000">+ Mamifero()</text>
<text text-anchor="start" x="31.5" y="-357.5" font-family="Helvetica,sans-Serif" font-size="20.00" fill="#000000">+ ~Mamifero()</text>
<text text-anchor="start" x="31.5" y="-335.5" font-family="Helvetica,sans-Serif" font-size="20.00" fill="#000000">+ getGestacao()</text>
</a>
</g>
</g>
<!-- Node5&#45;&gt;Node4 -->
<g id="edge1" class="edge">
<title>Node5&#45;&gt;Node4</title>
<path fill="none" stroke="#191970" d="M99.7602,-315.2151C101.968,-253.3947 105.0119,-168.1665 106.9927,-112.7041"/>
<polygon fill="none" stroke="#191970" points="96.2588,-315.1944 99.3995,-325.3129 103.2543,-315.4443 96.2588,-315.1944"/>
</g>
<!-- Node6 -->
<g id="node3" class="node">
<title>Node6</title>
<polygon fill="#ffffff" stroke="#bfbfbf" points="175.5,-935.5 175.5,-1025.5 226.5,-1025.5 226.5,-935.5 175.5,-935.5"/>
<text text-anchor="middle" x="201" y="-1005.5" font-family="Helvetica,sans-Serif" font-size="20.00" fill="#000000">bool</text>
<polyline fill="none" stroke="#bfbfbf" points="175.5,-995.5 226.5,-995.5 "/>
<text text-anchor="middle" x="201" y="-975.5" font-family="Helvetica,sans-Serif" font-size="20.00" fill="#000000"> </text>
<polyline fill="none" stroke="#bfbfbf" points="175.5,-965.5 226.5,-965.5 "/>
<text text-anchor="middle" x="201" y="-945.5" font-family="Helvetica,sans-Serif" font-size="20.00" fill="#000000"> </text>
</g>
<!-- Node6&#45;&gt;Node5 -->
<g id="edge2" class="edge">
<title>Node6&#45;&gt;Node5</title>
<path fill="none" stroke="#404040" d="M175.4004,-963.0217C150.2824,-944.1658 113.5534,-911.5982 98,-873 44.4996,-740.2304 62.271,-569.5677 79.8061,-471.4613"/>
<polygon fill="none" stroke="#404040" points="79.8221,-471.374 76.974,-464.7492 81.9938,-459.5722 84.8419,-466.197 79.8221,-471.374"/>
<text text-anchor="middle" x="142.5" y="-857" font-family="Helvetica,sans-Serif" font-size="20.00" fill="#000000"> #gestacao</text>
</g>
<!-- Node7 -->
<g id="node4" class="node">
<title>Node7</title>
<g id="a_node4"><a xlink:href="classDomestico.html" target="_top" xlink:title="Umas das definições de categoria para Animal. ">
<polygon fill="#ffffff" stroke="#000000" points="125.5,-150.5 125.5,-306.5 280.5,-306.5 280.5,-150.5 125.5,-150.5"/>
<text text-anchor="middle" x="203" y="-286.5" font-family="Helvetica,sans-Serif" font-size="20.00" fill="#000000">Domestico</text>
<polyline fill="none" stroke="#000000" points="125.5,-276.5 280.5,-276.5 "/>
<text text-anchor="middle" x="203" y="-256.5" font-family="Helvetica,sans-Serif" font-size="20.00" fill="#000000"> </text>
<polyline fill="none" stroke="#000000" points="125.5,-246.5 280.5,-246.5 "/>
<text text-anchor="start" x="133.5" y="-226.5" font-family="Helvetica,sans-Serif" font-size="20.00" fill="#000000">+ Domestico()</text>
<text text-anchor="start" x="133.5" y="-204.5" font-family="Helvetica,sans-Serif" font-size="20.00" fill="#000000">+ Domestico()</text>
<text text-anchor="start" x="133.5" y="-182.5" font-family="Helvetica,sans-Serif" font-size="20.00" fill="#000000">+ ~Domestico()</text>
<text text-anchor="start" x="133.5" y="-160.5" font-family="Helvetica,sans-Serif" font-size="20.00" fill="#000000">+ getAdestrado()</text>
</a>
</g>
</g>
<!-- Node6&#45;&gt;Node7 -->
<g id="edge14" class="edge">
<title>Node6&#45;&gt;Node7</title>
<path fill="none" stroke="#404040" d="M201.1199,-935.4322C201.4416,-814.4497 202.329,-480.7902 202.7595,-318.9203"/>
<polygon fill="none" stroke="#404040" points="202.7602,-318.6257 198.7762,-312.6151 202.7922,-306.6258 206.7762,-312.6364 202.7602,-318.6257"/>
<text text-anchor="middle" x="251.5" y="-650.5" font-family="Helvetica,sans-Serif" font-size="20.00" fill="#000000"> #adestrado</text>
</g>
<!-- Node8 -->
<g id="node5" class="node">
<title>Node8</title>
<g id="a_node5"><a xlink:href="classAnimal.html" target="_top" xlink:title="Implementação base para o cadastro de animais. ">
<polygon fill="#ffffff" stroke="#000000" points="316.5,-478.5 316.5,-832.5 501.5,-832.5 501.5,-478.5 316.5,-478.5"/>
<text text-anchor="middle" x="409" y="-812.5" font-family="Helvetica,sans-Serif" font-size="20.00" fill="#000000">Animal</text>
<polyline fill="none" stroke="#000000" points="316.5,-802.5 501.5,-802.5 "/>
<text text-anchor="middle" x="409" y="-782.5" font-family="Helvetica,sans-Serif" font-size="20.00" fill="#000000"> </text>
<polyline fill="none" stroke="#000000" points="316.5,-772.5 501.5,-772.5 "/>
<text text-anchor="start" x="324.5" y="-752.5" font-family="Helvetica,sans-Serif" font-size="20.00" fill="#000000">+ Animal()</text>
<text text-anchor="start" x="324.5" y="-730.5" font-family="Helvetica,sans-Serif" font-size="20.00" fill="#000000">+ Animal()</text>
<text text-anchor="start" x="324.5" y="-708.5" font-family="Helvetica,sans-Serif" font-size="20.00" fill="#000000">+ ~Animal()</text>
<text text-anchor="start" x="324.5" y="-686.5" font-family="Helvetica,sans-Serif" font-size="20.00" fill="#000000">+ getNome()</text>
<text text-anchor="start" x="324.5" y="-664.5" font-family="Helvetica,sans-Serif" font-size="20.00" fill="#000000">+ getEspecie()</text>
<text text-anchor="start" x="324.5" y="-642.5" font-family="Helvetica,sans-Serif" font-size="20.00" fill="#000000">+ getAmeacadoPor()</text>
<text text-anchor="start" x="324.5" y="-620.5" font-family="Helvetica,sans-Serif" font-size="20.00" fill="#000000">+ getVeterinario()</text>
<text text-anchor="start" x="324.5" y="-598.5" font-family="Helvetica,sans-Serif" font-size="20.00" fill="#000000">+ getTratador()</text>
<text text-anchor="start" x="324.5" y="-576.5" font-family="Helvetica,sans-Serif" font-size="20.00" fill="#000000">+ getPerigoso()</text>
<text text-anchor="start" x="324.5" y="-554.5" font-family="Helvetica,sans-Serif" font-size="20.00" fill="#000000">+ getClassificacao()</text>
<text text-anchor="start" x="324.5" y="-532.5" font-family="Helvetica,sans-Serif" font-size="20.00" fill="#000000">+ getClasse()</text>
<text text-anchor="start" x="324.5" y="-510.5" font-family="Helvetica,sans-Serif" font-size="20.00" fill="#000000">+ printOutDados()</text>
<text text-anchor="start" x="324.5" y="-488.5" font-family="Helvetica,sans-Serif" font-size="20.00" fill="#000000">+ operator==()</text>
</a>
</g>
</g>
<!-- Node6&#45;&gt;Node8 -->
<g id="edge9" class="edge">
<title>Node6&#45;&gt;Node8</title>
<path fill="none" stroke="#404040" d="M201.8422,-935.3484C204.752,-907.5335 213.0381,-873.0875 235,-851 256.7404,-829.1352 277.3679,-851.5466 302,-833 303.6798,-831.7352 305.3386,-830.4357 306.9766,-829.1036"/>
<polygon fill="none" stroke="#404040" points="307.0795,-829.0141 308.9786,-822.0576 316.1304,-821.1349 314.2313,-828.0915 307.0795,-829.0141"/>
<text text-anchor="middle" x="278" y="-857" font-family="Helvetica,sans-Serif" font-size="20.00" fill="#000000"> #perigoso</text>
</g>
<!-- Node7&#45;&gt;Node4 -->
<g id="edge3" class="edge">
<title>Node7&#45;&gt;Node4</title>
<path fill="none" stroke="#191970" d="M155.3742,-141.3549C150.0452,-131.604 144.7269,-121.8727 139.6935,-112.6626"/>
<polygon fill="none" stroke="#191970" points="152.3963,-143.2044 160.2633,-150.301 158.5389,-139.8474 152.3963,-143.2044"/>
</g>
<!-- Node8&#45;&gt;Node7 -->
<g id="edge4" class="edge">
<title>Node8&#45;&gt;Node7</title>
<path fill="none" stroke="#191970" d="M319.1643,-469.2872C291.5998,-412.1511 262.7566,-352.3644 240.7066,-306.6587"/>
<polygon fill="none" stroke="#191970" points="316.0785,-470.946 323.576,-478.4318 322.3832,-467.9044 316.0785,-470.946"/>
</g>
<!-- Node9 -->
<g id="node6" class="node">
<title>Node9</title>
<g id="a_node6"><a xlink:href="classTratador.html" target="_top" xlink:title="Implementação dos tratadores. ">
<polygon fill="#ffffff" stroke="#000000" points="381,-891.5 381,-1069.5 545,-1069.5 545,-891.5 381,-891.5"/>
<text text-anchor="middle" x="463" y="-1049.5" font-family="Helvetica,sans-Serif" font-size="20.00" fill="#000000">Tratador</text>
<polyline fill="none" stroke="#000000" points="381,-1039.5 545,-1039.5 "/>
<text text-anchor="middle" x="463" y="-1019.5" font-family="Helvetica,sans-Serif" font-size="20.00" fill="#000000"> </text>
<polyline fill="none" stroke="#000000" points="381,-1009.5 545,-1009.5 "/>
<text text-anchor="start" x="389" y="-989.5" font-family="Helvetica,sans-Serif" font-size="20.00" fill="#000000">+ Tratador()</text>
<text text-anchor="start" x="389" y="-967.5" font-family="Helvetica,sans-Serif" font-size="20.00" fill="#000000">+ Tratador()</text>
<text text-anchor="start" x="389" y="-945.5" font-family="Helvetica,sans-Serif" font-size="20.00" fill="#000000">+ ~Tratador()</text>
<text text-anchor="start" x="389" y="-923.5" font-family="Helvetica,sans-Serif" font-size="20.00" fill="#000000">+ getUniforme()</text>
<text text-anchor="start" x="389" y="-901.5" font-family="Helvetica,sans-Serif" font-size="20.00" fill="#000000">+ printOutDados()</text>
</a>
</g>
</g>
<!-- Node9&#45;&gt;Node8 -->
<g id="edge5" class="edge">
<title>Node9&#45;&gt;Node8</title>
<path fill="none" stroke="#404040" d="M448.1728,-891.2624C445.7106,-876.4435 443.0776,-860.5965 440.3848,-844.3897"/>
<polygon fill="none" stroke="#404040" points="440.3819,-844.3723 435.4526,-839.1091 438.415,-832.5346 443.3444,-837.7978 440.3819,-844.3723"/>
<text text-anchor="middle" x="484.5" y="-857" font-family="Helvetica,sans-Serif" font-size="20.00" fill="#000000"> #tratador</text>
</g>
<!-- Node10 -->
<g id="node7" class="node">
<title>Node10</title>
<g id="a_node7"><a xlink:href="classPessoa.html" target="_top" xlink:title="Classe base dos funcionarios. ">
<polygon fill="#ffffff" stroke="#000000" points="527,-1172.5 527,-1416.5 691,-1416.5 691,-1172.5 527,-1172.5"/>
<text text-anchor="middle" x="609" y="-1396.5" font-family="Helvetica,sans-Serif" font-size="20.00" fill="#000000">Pessoa</text>
<polyline fill="none" stroke="#000000" points="527,-1386.5 691,-1386.5 "/>
<text text-anchor="middle" x="609" y="-1366.5" font-family="Helvetica,sans-Serif" font-size="20.00" fill="#000000"> </text>
<polyline fill="none" stroke="#000000" points="527,-1356.5 691,-1356.5 "/>
<text text-anchor="start" x="535" y="-1336.5" font-family="Helvetica,sans-Serif" font-size="20.00" fill="#000000">+ Pessoa()</text>
<text text-anchor="start" x="535" y="-1314.5" font-family="Helvetica,sans-Serif" font-size="20.00" fill="#000000">+ Pessoa()</text>
<text text-anchor="start" x="535" y="-1292.5" font-family="Helvetica,sans-Serif" font-size="20.00" fill="#000000">+ ~Pessoa()</text>
<text text-anchor="start" x="535" y="-1270.5" font-family="Helvetica,sans-Serif" font-size="20.00" fill="#000000">+ getNome()</text>
<text text-anchor="start" x="535" y="-1248.5" font-family="Helvetica,sans-Serif" font-size="20.00" fill="#000000">+ getTelefone()</text>
<text text-anchor="start" x="535" y="-1226.5" font-family="Helvetica,sans-Serif" font-size="20.00" fill="#000000">+ getEmail()</text>
<text text-anchor="start" x="535" y="-1204.5" font-family="Helvetica,sans-Serif" font-size="20.00" fill="#000000">+ printOutDados()</text>
<text text-anchor="start" x="535" y="-1182.5" font-family="Helvetica,sans-Serif" font-size="20.00" fill="#000000">+ operator==()</text>
</a>
</g>
</g>
<!-- Node10&#45;&gt;Node9 -->
<g id="edge6" class="edge">
<title>Node10&#45;&gt;Node9</title>
<path fill="none" stroke="#191970" d="M580.7143,-1162.5487C572.8387,-1137.0765 563.0434,-1111.1389 551,-1088 547.7707,-1081.7956 544.1438,-1075.6174 540.2507,-1069.539"/>
<polygon fill="none" stroke="#191970" points="577.4092,-1163.7121 583.6394,-1172.2816 584.113,-1161.6973 577.4092,-1163.7121"/>
</g>
<!-- Node13 -->
<g id="node10" class="node">
<title>Node13</title>
<g id="a_node10"><a xlink:href="classVeterinario.html" target="_top" xlink:title="Implementação dos veterinarios. ">
<polygon fill="#ffffff" stroke="#000000" points="563,-891.5 563,-1069.5 727,-1069.5 727,-891.5 563,-891.5"/>
<text text-anchor="middle" x="645" y="-1049.5" font-family="Helvetica,sans-Serif" font-size="20.00" fill="#000000">Veterinario</text>
<polyline fill="none" stroke="#000000" points="563,-1039.5 727,-1039.5 "/>
<text text-anchor="middle" x="645" y="-1019.5" font-family="Helvetica,sans-Serif" font-size="20.00" fill="#000000"> </text>
<polyline fill="none" stroke="#000000" points="563,-1009.5 727,-1009.5 "/>
<text text-anchor="start" x="571" y="-989.5" font-family="Helvetica,sans-Serif" font-size="20.00" fill="#000000">+ Veterinario()</text>
<text text-anchor="start" x="571" y="-967.5" font-family="Helvetica,sans-Serif" font-size="20.00" fill="#000000">+ Veterinario()</text>
<text text-anchor="start" x="571" y="-945.5" font-family="Helvetica,sans-Serif" font-size="20.00" fill="#000000">+ ~Veterinario()</text>
<text text-anchor="start" x="571" y="-923.5" font-family="Helvetica,sans-Serif" font-size="20.00" fill="#000000">+ getCRMV()</text>
<text text-anchor="start" x="571" y="-901.5" font-family="Helvetica,sans-Serif" font-size="20.00" fill="#000000">+ printOutDados()</text>
</a>
</g>
</g>
<!-- Node10&#45;&gt;Node13 -->
<g id="edge12" class="edge">
<title>Node10&#45;&gt;Node13</title>
<path fill="none" stroke="#191970" d="M624.1737,-1162.152C627.7406,-1131.0404 631.4594,-1098.6041 634.7508,-1069.8956"/>
<polygon fill="none" stroke="#191970" points="620.6835,-1161.8667 623.0216,-1172.2003 627.638,-1162.6641 620.6835,-1161.8667"/>
</g>
<!-- Node11 -->
<g id="node8" class="node">
<title>Node11</title>
<polygon fill="#ffffff" stroke="#bfbfbf" points="577,-1519.5 577,-1609.5 641,-1609.5 641,-1519.5 577,-1519.5"/>
<text text-anchor="middle" x="609" y="-1589.5" font-family="Helvetica,sans-Serif" font-size="20.00" fill="#000000">string</text>
<polyline fill="none" stroke="#bfbfbf" points="577,-1579.5 641,-1579.5 "/>
<text text-anchor="middle" x="609" y="-1559.5" font-family="Helvetica,sans-Serif" font-size="20.00" fill="#000000"> </text>
<polyline fill="none" stroke="#bfbfbf" points="577,-1549.5 641,-1549.5 "/>
<text text-anchor="middle" x="609" y="-1529.5" font-family="Helvetica,sans-Serif" font-size="20.00" fill="#000000"> </text>
</g>
<!-- Node11&#45;&gt;Node8 -->
<g id="edge10" class="edge">
<title>Node11&#45;&gt;Node8</title>
<path fill="none" stroke="#404040" d="M576.9274,-1549.633C532.2309,-1527.2547 451.7824,-1480.6585 408,-1417 339.3241,-1317.1469 352.1439,-1274.1099 336,-1154 322.2422,-1051.6424 336.705,-937.6581 356.2827,-844.5471"/>
<polygon fill="none" stroke="#404040" points="356.3034,-844.4501 353.6512,-837.7445 358.8209,-832.7172 361.4732,-839.4228 356.3034,-844.4501"/>
<text text-anchor="middle" x="397.5" y="-1138" font-family="Helvetica,sans-Serif" font-size="20.00" fill="#000000"> #especie</text>
<text text-anchor="middle" x="397.5" y="-1116" font-family="Helvetica,sans-Serif" font-size="20.00" fill="#000000">#ameacadoPor</text>
<text text-anchor="middle" x="397.5" y="-1094" font-family="Helvetica,sans-Serif" font-size="20.00" fill="#000000">#nome</text>
</g>
<!-- Node11&#45;&gt;Node10 -->
<g id="edge7" class="edge">
<title>Node11&#45;&gt;Node10</title>
<path fill="none" stroke="#404040" d="M609,-1519.3081C609,-1494.172 609,-1461.4339 609,-1428.7541"/>
<polygon fill="none" stroke="#404040" points="609.0001,-1428.731 605,-1422.731 609,-1416.731 613,-1422.7309 609.0001,-1428.731"/>
<text text-anchor="middle" x="647.5" y="-1485" font-family="Helvetica,sans-Serif" font-size="20.00" fill="#000000"> #email</text>
<text text-anchor="middle" x="647.5" y="-1463" font-family="Helvetica,sans-Serif" font-size="20.00" fill="#000000">#nome</text>
<text text-anchor="middle" x="647.5" y="-1441" font-family="Helvetica,sans-Serif" font-size="20.00" fill="#000000">#telefone</text>
</g>
<!-- Node11&#45;&gt;Node13 -->
<g id="edge13" class="edge">
<title>Node11&#45;&gt;Node13</title>
<path fill="none" stroke="#404040" d="M641.0929,-1547.7025C658.5405,-1536.8117 678.7905,-1520.9367 690,-1501 708.4263,-1468.228 697.7739,-1454.531 700,-1417 706.4473,-1308.3022 715.1774,-1279.826 700,-1172 695.8048,-1142.196 688.1076,-1110.5291 679.7736,-1081.7087"/>
<polygon fill="none" stroke="#404040" points="679.7052,-1081.4775 674.167,-1076.8592 676.3,-1069.9708 681.8382,-1074.5891 679.7052,-1081.4775"/>
<text text-anchor="middle" x="741" y="-1289.5" font-family="Helvetica,sans-Serif" font-size="20.00" fill="#000000"> &#45;CRMV</text>
</g>
<!-- Node12 -->
<g id="node9" class="node">
<title>Node12</title>
<polygon fill="#ffffff" stroke="#bfbfbf" points="417,-1249.5 417,-1339.5 509,-1339.5 509,-1249.5 417,-1249.5"/>
<text text-anchor="middle" x="463" y="-1319.5" font-family="Helvetica,sans-Serif" font-size="20.00" fill="#000000">Uniforme</text>
<polyline fill="none" stroke="#bfbfbf" points="417,-1309.5 509,-1309.5 "/>
<text text-anchor="middle" x="463" y="-1289.5" font-family="Helvetica,sans-Serif" font-size="20.00" fill="#000000"> </text>
<polyline fill="none" stroke="#bfbfbf" points="417,-1279.5 509,-1279.5 "/>
<text text-anchor="middle" x="463" y="-1259.5" font-family="Helvetica,sans-Serif" font-size="20.00" fill="#000000"> </text>
</g>
<!-- Node12&#45;&gt;Node9 -->
<g id="edge8" class="edge">
<title>Node12&#45;&gt;Node9</title>
<path fill="none" stroke="#404040" d="M463,-1249.177C463,-1205.5856 463,-1138.1795 463,-1081.7901"/>
<polygon fill="none" stroke="#404040" points="463.0001,-1081.569 459,-1075.5691 463,-1069.569 467,-1075.569 463.0001,-1081.569"/>
<text text-anchor="middle" x="505" y="-1116" font-family="Helvetica,sans-Serif" font-size="20.00" fill="#000000"> &#45;uniforme</text>
</g>
<!-- Node13&#45;&gt;Node8 -->
<g id="edge11" class="edge">
<title>Node13&#45;&gt;Node8</title>
<path fill="none" stroke="#404040" d="M580.1998,-891.2624C558.0929,-860.8186 532.8352,-826.0358 508.6341,-792.708"/>
<polygon fill="none" stroke="#404040" points="508.5532,-792.5966 501.7911,-790.0919 501.5022,-782.8865 508.2644,-785.3912 508.5532,-792.5966"/>
<text text-anchor="middle" x="612.5" y="-857" font-family="Helvetica,sans-Serif" font-size="20.00" fill="#000000"> #veterinario</text>
</g>
</g>
</svg>
        <g id="navigator" transform="translate(0 0)" fill="#404254">
                <rect fill="#f2f5e9" fill-opacity="0.5" stroke="#606060" stroke-width=".5" x="0" y="0" width="60" height="60"/>
                <use id="zoomplus" xlink:href="#zoomPlus" x="17" y="9" onmousedown="handleZoom(evt,'in')"/>
                <use id="zoomminus" xlink:href="#zoomMin" x="42" y="9" onmousedown="handleZoom(evt,'out')"/>
                <use id="reset" xlink:href="#resetDef" x="30" y="36" onmousedown="handleReset()"/>
                <g id="arrowUp" xlink:href="#dirArrow" transform="translate(30 24)" onmousedown="handlePan(0,-1)">
                  <use xlink:href="#rim" fill="#404040">
                        <set attributeName="fill" to="#808080" begin="arrowUp.mouseover" end="arrowUp.mouseout"/>
                  </use>
                  <path fill="none" stroke="white" stroke-width="1.5" d="M0,-3.0v7 M-2.5,-0.5L0,-3.0L2.5,-0.5"/>
                </g>
                <g id="arrowRight" xlink:href="#dirArrow" transform="rotate(90) translate(36 -43)" onmousedown="handlePan(1,0)">
                  <use xlink:href="#rim" fill="#404040">
                        <set attributeName="fill" to="#808080" begin="arrowRight.mouseover" end="arrowRight.mouseout"/>
                  </use>
                  <path fill="none" stroke="white" stroke-width="1.5" d="M0,-3.0v7 M-2.5,-0.5L0,-3.0L2.5,-0.5"/>
                </g>
                <g id="arrowDown" xlink:href="#dirArrow" transform="rotate(180) translate(-30 -48)" onmousedown="handlePan(0,1)">
                  <use xlink:href="#rim" fill="#404040">
                        <set attributeName="fill" to="#808080" begin="arrowDown.mouseover" end="arrowDown.mouseout"/>
                  </use>
                  <path fill="none" stroke="white" stroke-width="1.5" d="M0,-3.0v7 M-2.5,-0.5L0,-3.0L2.5,-0.5"/>
                </g>
                <g id="arrowLeft" xlink:href="#dirArrow" transform="rotate(270) translate(-36 17)" onmousedown="handlePan(-1,0)">
                  <use xlink:href="#rim" fill="#404040">
                        <set attributeName="fill" to="#808080" begin="arrowLeft.mouseover" end="arrowLeft.mouseout"/>
                  </use>
                  <path fill="none" stroke="white" stroke-width="1.5" d="M0,-3.0v7 M-2.5,-0.5L0,-3.0L2.5,-0.5"/>
                </g>
        </g>
        <svg viewBox="0 0 15 15" width="100%" height="30px" preserveAspectRatio="xMaxYMin meet">
         <g id="arrow_out" transform="scale(0.3 0.3)">
          <a xlink:href="classMamiferoDomestico__coll__graph_org.svg" target="_base">
           <rect id="button" ry="5" rx="5" y="6" x="6" height="38" width="38"
                fill="#f2f5e9" fill-opacity="0.5" stroke="#606060" stroke-width="1.0"/>
           <path id="arrow"
             d="M 11.500037,31.436501 C 11.940474,20.09759 22.043105,11.32322 32.158766,21.979434 L 37.068811,17.246167 C 37.068811,17.246167 37.088388,32 37.088388,32 L 22.160133,31.978069 C 22.160133,31.978069 26.997745,27.140456 26.997745,27.140456 C 18.528582,18.264221 13.291696,25.230495 11.500037,31.436501 z"
             style="fill:#404040;"/>
          </a>
         </g>
        </svg>
</svg>
