<?xml version="1.0" encoding="UTF-8" standalone="no"?>
<!DOCTYPE svg PUBLIC "-//W3C//DTD SVG 1.1//EN"
 "http://www.w3.org/Graphics/SVG/1.1/DTD/svg11.dtd">
<!-- Generated by graphviz version 2.43.0 (0)
 -->
<!-- Title: MapeadorMenu Pages: 1 -->
<svg width="318pt" height="270pt"
 viewBox="0.00 0.00 318.00 270.00" xmlns="http://www.w3.org/2000/svg" xmlns:xlink="http://www.w3.org/1999/xlink">
<g id="graph0" class="graph" transform="scale(1 1) rotate(0) translate(4 266)">
<title>MapeadorMenu</title>
<polygon fill="white" stroke="transparent" points="-4,4 -4,-266 314,-266 314,4 -4,4"/>
<!-- Node1 -->
<g id="node1" class="node">
<title>Node1</title>
<g id="a_node1"><a xlink:title="Classe mapeadora de funções para o menu.">
<polygon fill="#bfbfbf" stroke="black" points="51,-0.5 51,-90.5 259,-90.5 259,-0.5 51,-0.5"/>
<text text-anchor="middle" x="155" y="-70.5" font-family="Helvetica,sans-Serif" font-size="20.00">MapeadorMenu</text>
<polyline fill="none" stroke="black" points="51,-60.5 259,-60.5 "/>
<text text-anchor="middle" x="155" y="-40.5" font-family="Helvetica,sans-Serif" font-size="20.00"> </text>
<polyline fill="none" stroke="black" points="51,-30.5 259,-30.5 "/>
<text text-anchor="start" x="59" y="-10.5" font-family="Helvetica,sans-Serif" font-size="20.00">+ MapeadorMenu()</text>
</a>
</g>
</g>
<!-- Node2 -->
<g id="node2" class="node">
<title>Node2</title>
<g id="a_node2"><a xlink:title=" ">
<polygon fill="white" stroke="#bfbfbf" points="0,-149.5 0,-261.5 310,-261.5 310,-149.5 0,-149.5"/>
<text text-anchor="start" x="8" y="-241.5" font-family="Helvetica,sans-Serif" font-size="20.00">map&lt; char, std::function</text>
<text text-anchor="middle" x="155" y="-219.5" font-family="Helvetica,sans-Serif" font-size="20.00">&lt; bool(Petshop *petshop)&gt; &gt;</text>
<polyline fill="none" stroke="#bfbfbf" points="0,-209.5 310,-209.5 "/>
<text text-anchor="middle" x="155" y="-189.5" font-family="Helvetica,sans-Serif" font-size="20.00"> </text>
<polyline fill="none" stroke="#bfbfbf" points="0,-179.5 310,-179.5 "/>
<text text-anchor="middle" x="155" y="-159.5" font-family="Helvetica,sans-Serif" font-size="20.00"> </text>
</a>
</g>
</g>
<!-- Node2&#45;&gt;Node1 -->
<g id="edge1" class="edge">
<title>Node2&#45;&gt;Node1</title>
<path fill="none" stroke="#404040" d="M155,-149.24C155,-134.22 155,-117.94 155,-102.87"/>
<polygon fill="none" stroke="#404040" points="155,-102.54 151,-96.54 155,-90.54 159,-96.54 155,-102.54"/>
<text text-anchor="middle" x="209.5" y="-115" font-family="Helvetica,sans-Serif" font-size="20.00"> +escolhas</text>
</g>
</g>
</svg>
