<?xml version="1.0" encoding="UTF-8" standalone="no"?>
<!DOCTYPE svg PUBLIC "-//W3C//DTD SVG 1.1//EN"
 "http://www.w3.org/Graphics/SVG/1.1/DTD/svg11.dtd">
<!-- Generated by graphviz version 2.43.0 (0)
 -->
<!-- Title: Ave Pages: 1 -->
<svg width="607pt" height="903pt"
 viewBox="0.00 0.00 607.00 903.00" xmlns="http://www.w3.org/2000/svg" xmlns:xlink="http://www.w3.org/1999/xlink">
<g id="graph0" class="graph" transform="scale(1 1) rotate(0) translate(4 899)">
<title>Ave</title>
<polygon fill="white" stroke="transparent" points="-4,4 -4,-899 603,-899 603,4 -4,4"/>
<!-- Node1 -->
<g id="node1" class="node">
<title>Node1</title>
<g id="a_node1"><a xlink:title="Classificação base para Aves.">
<polygon fill="#bfbfbf" stroke="black" points="259.5,-171.5 259.5,-371.5 381.5,-371.5 381.5,-171.5 259.5,-171.5"/>
<text text-anchor="middle" x="320.5" y="-351.5" font-family="Helvetica,sans-Serif" font-size="20.00">Ave</text>
<polyline fill="none" stroke="black" points="259.5,-341.5 381.5,-341.5 "/>
<text text-anchor="start" x="267.5" y="-321.5" font-family="Helvetica,sans-Serif" font-size="20.00"># voa</text>
<polyline fill="none" stroke="black" points="259.5,-311.5 381.5,-311.5 "/>
<text text-anchor="start" x="267.5" y="-291.5" font-family="Helvetica,sans-Serif" font-size="20.00">+ Ave()</text>
<text text-anchor="start" x="267.5" y="-269.5" font-family="Helvetica,sans-Serif" font-size="20.00">+ Ave()</text>
<text text-anchor="start" x="267.5" y="-247.5" font-family="Helvetica,sans-Serif" font-size="20.00">+ ~Ave()</text>
<text text-anchor="start" x="267.5" y="-225.5" font-family="Helvetica,sans-Serif" font-size="20.00">+ getVoa()</text>
<text text-anchor="start" x="267.5" y="-203.5" font-family="Helvetica,sans-Serif" font-size="20.00">+ setVoa()</text>
<text text-anchor="start" x="267.5" y="-181.5" font-family="Helvetica,sans-Serif" font-size="20.00">+ setVoa()</text>
</a>
</g>
</g>
<!-- Node3 -->
<g id="node3" class="node">
<title>Node3</title>
<g id="a_node3"><a xlink:href="classAveDomestica.html" target="_top" xlink:title="Implementação de animal com Classe e Categoria.">
<polygon fill="white" stroke="black" points="0,-0.5 0,-134.5 213,-134.5 213,-0.5 0,-0.5"/>
<text text-anchor="middle" x="106.5" y="-114.5" font-family="Helvetica,sans-Serif" font-size="20.00">AveDomestica</text>
<polyline fill="none" stroke="black" points="0,-104.5 213,-104.5 "/>
<text text-anchor="middle" x="106.5" y="-84.5" font-family="Helvetica,sans-Serif" font-size="20.00"> </text>
<polyline fill="none" stroke="black" points="0,-74.5 213,-74.5 "/>
<text text-anchor="start" x="8" y="-54.5" font-family="Helvetica,sans-Serif" font-size="20.00">+ AveDomestica()</text>
<text text-anchor="start" x="8" y="-32.5" font-family="Helvetica,sans-Serif" font-size="20.00">+ AveDomestica()</text>
<text text-anchor="start" x="8" y="-10.5" font-family="Helvetica,sans-Serif" font-size="20.00">+ ~AveDomestica()</text>
</a>
</g>
</g>
<!-- Node1&#45;&gt;Node3 -->
<g id="edge2" class="edge">
<title>Node1&#45;&gt;Node3</title>
<path fill="none" stroke="midnightblue" d="M252.09,-205.93C228.01,-183.19 200.91,-157.61 176.68,-134.74"/>
<polygon fill="none" stroke="midnightblue" points="249.79,-208.57 259.46,-212.89 254.59,-203.48 249.79,-208.57"/>
</g>
<!-- Node4 -->
<g id="node4" class="node">
<title>Node4</title>
<g id="a_node4"><a xlink:href="classAveExotica.html" target="_top" xlink:title="Implementação de animal com Classe e Categoria.">
<polygon fill="white" stroke="black" points="231,-0.5 231,-134.5 410,-134.5 410,-0.5 231,-0.5"/>
<text text-anchor="middle" x="320.5" y="-114.5" font-family="Helvetica,sans-Serif" font-size="20.00">AveExotica</text>
<polyline fill="none" stroke="black" points="231,-104.5 410,-104.5 "/>
<text text-anchor="middle" x="320.5" y="-84.5" font-family="Helvetica,sans-Serif" font-size="20.00"> </text>
<polyline fill="none" stroke="black" points="231,-74.5 410,-74.5 "/>
<text text-anchor="start" x="239" y="-54.5" font-family="Helvetica,sans-Serif" font-size="20.00">+ AveExotica()</text>
<text text-anchor="start" x="239" y="-32.5" font-family="Helvetica,sans-Serif" font-size="20.00">+ AveExotica()</text>
<text text-anchor="start" x="239" y="-10.5" font-family="Helvetica,sans-Serif" font-size="20.00">+ ~AveExotica()</text>
</a>
</g>
</g>
<!-- Node1&#45;&gt;Node4 -->
<g id="edge3" class="edge">
<title>Node1&#45;&gt;Node4</title>
<path fill="none" stroke="midnightblue" d="M320.5,-161.05C320.5,-152.02 320.5,-143.07 320.5,-134.51"/>
<polygon fill="none" stroke="midnightblue" points="317,-161.28 320.5,-171.28 324,-161.28 317,-161.28"/>
</g>
<!-- Node5 -->
<g id="node5" class="node">
<title>Node5</title>
<g id="a_node5"><a xlink:href="classAveNativa.html" target="_top" xlink:title="Implementação de animal com Classe e Categoria.">
<polygon fill="white" stroke="black" points="428,-0.5 428,-134.5 599,-134.5 599,-0.5 428,-0.5"/>
<text text-anchor="middle" x="513.5" y="-114.5" font-family="Helvetica,sans-Serif" font-size="20.00">AveNativa</text>
<polyline fill="none" stroke="black" points="428,-104.5 599,-104.5 "/>
<text text-anchor="middle" x="513.5" y="-84.5" font-family="Helvetica,sans-Serif" font-size="20.00"> </text>
<polyline fill="none" stroke="black" points="428,-74.5 599,-74.5 "/>
<text text-anchor="start" x="436" y="-54.5" font-family="Helvetica,sans-Serif" font-size="20.00">+ AveNativa()</text>
<text text-anchor="start" x="436" y="-32.5" font-family="Helvetica,sans-Serif" font-size="20.00">+ AveNativa()</text>
<text text-anchor="start" x="436" y="-10.5" font-family="Helvetica,sans-Serif" font-size="20.00">+ ~AveNativa()</text>
</a>
</g>
</g>
<!-- Node1&#45;&gt;Node5 -->
<g id="edge4" class="edge">
<title>Node1&#45;&gt;Node5</title>
<path fill="none" stroke="midnightblue" d="M388.57,-199.25C408.61,-178.28 430.44,-155.43 450.17,-134.78"/>
<polygon fill="none" stroke="midnightblue" points="385.94,-196.94 381.57,-206.59 391.01,-201.77 385.94,-196.94"/>
</g>
<!-- Node2 -->
<g id="node2" class="node">
<title>Node2</title>
<g id="a_node2"><a xlink:href="classAnimal.html" target="_top" xlink:title="Implementação base para o cadastro de animais.">
<polygon fill="white" stroke="black" points="209,-408.5 209,-894.5 432,-894.5 432,-408.5 209,-408.5"/>
<text text-anchor="middle" x="320.5" y="-874.5" font-family="Helvetica,sans-Serif" font-size="20.00">Animal</text>
<polyline fill="none" stroke="black" points="209,-864.5 432,-864.5 "/>
<text text-anchor="start" x="217" y="-844.5" font-family="Helvetica,sans-Serif" font-size="20.00"># nome</text>
<text text-anchor="start" x="217" y="-822.5" font-family="Helvetica,sans-Serif" font-size="20.00"># especie</text>
<text text-anchor="start" x="217" y="-800.5" font-family="Helvetica,sans-Serif" font-size="20.00"># ameacadoPor</text>
<text text-anchor="start" x="217" y="-778.5" font-family="Helvetica,sans-Serif" font-size="20.00"># veterinario</text>
<text text-anchor="start" x="217" y="-756.5" font-family="Helvetica,sans-Serif" font-size="20.00"># tratador</text>
<text text-anchor="start" x="217" y="-734.5" font-family="Helvetica,sans-Serif" font-size="20.00"># perigoso</text>
<polyline fill="none" stroke="black" points="209,-724.5 432,-724.5 "/>
<text text-anchor="start" x="217" y="-704.5" font-family="Helvetica,sans-Serif" font-size="20.00">+ Animal()</text>
<text text-anchor="start" x="217" y="-682.5" font-family="Helvetica,sans-Serif" font-size="20.00">+ Animal()</text>
<text text-anchor="start" x="217" y="-660.5" font-family="Helvetica,sans-Serif" font-size="20.00">+ ~Animal()</text>
<text text-anchor="start" x="217" y="-638.5" font-family="Helvetica,sans-Serif" font-size="20.00">+ getNome()</text>
<text text-anchor="start" x="217" y="-616.5" font-family="Helvetica,sans-Serif" font-size="20.00">+ getEspecie()</text>
<text text-anchor="start" x="217" y="-594.5" font-family="Helvetica,sans-Serif" font-size="20.00">+ getAmeacadoPor()</text>
<text text-anchor="start" x="217" y="-572.5" font-family="Helvetica,sans-Serif" font-size="20.00">+ getVeterinario()</text>
<text text-anchor="start" x="217" y="-550.5" font-family="Helvetica,sans-Serif" font-size="20.00">+ getTratador()</text>
<text text-anchor="start" x="217" y="-528.5" font-family="Helvetica,sans-Serif" font-size="20.00">+ getPerigoso()</text>
<text text-anchor="start" x="217" y="-506.5" font-family="Helvetica,sans-Serif" font-size="20.00">+ setNome()</text>
<text text-anchor="start" x="217" y="-484.5" font-family="Helvetica,sans-Serif" font-size="20.00">e 13 mais...</text>
<text text-anchor="start" x="217" y="-462.5" font-family="Helvetica,sans-Serif" font-size="20.00">+ getClassificacao()</text>
<text text-anchor="start" x="217" y="-440.5" font-family="Helvetica,sans-Serif" font-size="20.00">+ getClasse()</text>
<text text-anchor="start" x="217" y="-418.5" font-family="Helvetica,sans-Serif" font-size="20.00">+ printOutDetails()</text>
</a>
</g>
</g>
<!-- Node2&#45;&gt;Node1 -->
<g id="edge1" class="edge">
<title>Node2&#45;&gt;Node1</title>
<path fill="none" stroke="midnightblue" d="M320.5,-398.4C320.5,-389.22 320.5,-380.28 320.5,-371.65"/>
<polygon fill="none" stroke="midnightblue" points="317,-398.43 320.5,-408.43 324,-398.43 317,-398.43"/>
</g>
</g>
</svg>
