<?xml version="1.0" encoding="UTF-8" standalone="no"?>
<!DOCTYPE svg PUBLIC "-//W3C//DTD SVG 1.1//EN"
 "http://www.w3.org/Graphics/SVG/1.1/DTD/svg11.dtd">
<!-- Generated by graphviz version 2.43.0 (0)
 -->
<!-- Title: Mamifero Pages: 1 -->
<svg width="751pt" height="1312pt"
 viewBox="0.00 0.00 750.93 1312.00" xmlns="http://www.w3.org/2000/svg" xmlns:xlink="http://www.w3.org/1999/xlink">
<g id="graph0" class="graph" transform="scale(1 1) rotate(0) translate(4 1308)">
<title>Mamifero</title>
<polygon fill="white" stroke="transparent" points="-4,4 -4,-1308 746.93,-1308 746.93,4 -4,4"/>
<!-- Node1 -->
<g id="node1" class="node">
<title>Node1</title>
<g id="a_node1"><a xlink:title="Classificação base para Mamiferos.">
<polygon fill="#bfbfbf" stroke="black" points="475.43,-0.5 475.43,-134.5 654.43,-134.5 654.43,-0.5 475.43,-0.5"/>
<text text-anchor="middle" x="564.93" y="-114.5" font-family="Helvetica,sans-Serif" font-size="20.00">Mamifero</text>
<polyline fill="none" stroke="black" points="475.43,-104.5 654.43,-104.5 "/>
<text text-anchor="middle" x="564.93" y="-84.5" font-family="Helvetica,sans-Serif" font-size="20.00"> </text>
<polyline fill="none" stroke="black" points="475.43,-74.5 654.43,-74.5 "/>
<text text-anchor="start" x="483.43" y="-54.5" font-family="Helvetica,sans-Serif" font-size="20.00">+ Mamifero()</text>
<text text-anchor="start" x="483.43" y="-32.5" font-family="Helvetica,sans-Serif" font-size="20.00">+ ~Mamifero()</text>
<text text-anchor="start" x="483.43" y="-10.5" font-family="Helvetica,sans-Serif" font-size="20.00">+ getGestacao()</text>
</a>
</g>
</g>
<!-- Node2 -->
<g id="node2" class="node">
<title>Node2</title>
<g id="a_node2"><a xlink:href="classAnimal.html" target="_top" xlink:title="Implementação base para o cadastro de animais.">
<polygon fill="white" stroke="black" points="375.43,-172.5 375.43,-526.5 598.43,-526.5 598.43,-172.5 375.43,-172.5"/>
<text text-anchor="middle" x="486.93" y="-506.5" font-family="Helvetica,sans-Serif" font-size="20.00">Animal</text>
<polyline fill="none" stroke="black" points="375.43,-496.5 598.43,-496.5 "/>
<text text-anchor="middle" x="486.93" y="-476.5" font-family="Helvetica,sans-Serif" font-size="20.00"> </text>
<polyline fill="none" stroke="black" points="375.43,-466.5 598.43,-466.5 "/>
<text text-anchor="start" x="383.43" y="-446.5" font-family="Helvetica,sans-Serif" font-size="20.00">+ Animal()</text>
<text text-anchor="start" x="383.43" y="-424.5" font-family="Helvetica,sans-Serif" font-size="20.00">+ Animal()</text>
<text text-anchor="start" x="383.43" y="-402.5" font-family="Helvetica,sans-Serif" font-size="20.00">+ ~Animal()</text>
<text text-anchor="start" x="383.43" y="-380.5" font-family="Helvetica,sans-Serif" font-size="20.00">+ getNome()</text>
<text text-anchor="start" x="383.43" y="-358.5" font-family="Helvetica,sans-Serif" font-size="20.00">+ getEspecie()</text>
<text text-anchor="start" x="383.43" y="-336.5" font-family="Helvetica,sans-Serif" font-size="20.00">+ getAmeacadoPor()</text>
<text text-anchor="start" x="383.43" y="-314.5" font-family="Helvetica,sans-Serif" font-size="20.00">+ getVeterinario()</text>
<text text-anchor="start" x="383.43" y="-292.5" font-family="Helvetica,sans-Serif" font-size="20.00">+ getTratador()</text>
<text text-anchor="start" x="383.43" y="-270.5" font-family="Helvetica,sans-Serif" font-size="20.00">+ getPerigoso()</text>
<text text-anchor="start" x="383.43" y="-248.5" font-family="Helvetica,sans-Serif" font-size="20.00">+ getClassificacao()</text>
<text text-anchor="start" x="383.43" y="-226.5" font-family="Helvetica,sans-Serif" font-size="20.00">+ getClasse()</text>
<text text-anchor="start" x="383.43" y="-204.5" font-family="Helvetica,sans-Serif" font-size="20.00">+ printOutDados()</text>
<text text-anchor="start" x="383.43" y="-182.5" font-family="Helvetica,sans-Serif" font-size="20.00">+ operator==()</text>
</a>
</g>
</g>
<!-- Node2&#45;&gt;Node1 -->
<g id="edge1" class="edge">
<title>Node2&#45;&gt;Node1</title>
<path fill="none" stroke="midnightblue" d="M538.74,-162.52C541.46,-152.78 544.08,-143.37 546.54,-134.51"/>
<polygon fill="none" stroke="midnightblue" points="535.31,-161.79 536,-172.36 542.05,-163.67 535.31,-161.79"/>
</g>
<!-- Node3 -->
<g id="node3" class="node">
<title>Node3</title>
<g id="a_node3"><a xlink:href="classTratador.html" target="_top" xlink:title="Implementação dos tratadores.">
<polygon fill="white" stroke="black" points="258.93,-585.5 258.93,-763.5 458.93,-763.5 458.93,-585.5 258.93,-585.5"/>
<text text-anchor="middle" x="358.93" y="-743.5" font-family="Helvetica,sans-Serif" font-size="20.00">Tratador</text>
<polyline fill="none" stroke="black" points="258.93,-733.5 458.93,-733.5 "/>
<text text-anchor="middle" x="358.93" y="-713.5" font-family="Helvetica,sans-Serif" font-size="20.00"> </text>
<polyline fill="none" stroke="black" points="258.93,-703.5 458.93,-703.5 "/>
<text text-anchor="start" x="266.93" y="-683.5" font-family="Helvetica,sans-Serif" font-size="20.00">+ Tratador()</text>
<text text-anchor="start" x="266.93" y="-661.5" font-family="Helvetica,sans-Serif" font-size="20.00">+ Tratador()</text>
<text text-anchor="start" x="266.93" y="-639.5" font-family="Helvetica,sans-Serif" font-size="20.00">+ ~Tratador()</text>
<text text-anchor="start" x="266.93" y="-617.5" font-family="Helvetica,sans-Serif" font-size="20.00">+ getUniforme()</text>
<text text-anchor="start" x="266.93" y="-595.5" font-family="Helvetica,sans-Serif" font-size="20.00">+ printOutDados()</text>
</a>
</g>
</g>
<!-- Node3&#45;&gt;Node2 -->
<g id="edge2" class="edge">
<title>Node3&#45;&gt;Node2</title>
<path fill="none" stroke="#404040" d="M361.12,-585.34C362.99,-571.63 365.79,-557.78 369.93,-545 370.67,-542.72 371.44,-540.43 372.25,-538.14"/>
<polygon fill="none" stroke="#404040" points="372.31,-537.97 370.65,-530.95 376.48,-526.72 378.15,-533.74 372.31,-537.97"/>
<text text-anchor="middle" x="421.43" y="-551" font-family="Helvetica,sans-Serif" font-size="20.00"> #tratador</text>
</g>
<!-- Node4 -->
<g id="node4" class="node">
<title>Node4</title>
<g id="a_node4"><a xlink:href="classPessoa.html" target="_top" xlink:title="Classe base dos funcionarios.">
<polygon fill="white" stroke="black" points="110.93,-866.5 110.93,-1110.5 310.93,-1110.5 310.93,-866.5 110.93,-866.5"/>
<text text-anchor="middle" x="210.93" y="-1090.5" font-family="Helvetica,sans-Serif" font-size="20.00">Pessoa</text>
<polyline fill="none" stroke="black" points="110.93,-1080.5 310.93,-1080.5 "/>
<text text-anchor="middle" x="210.93" y="-1060.5" font-family="Helvetica,sans-Serif" font-size="20.00"> </text>
<polyline fill="none" stroke="black" points="110.93,-1050.5 310.93,-1050.5 "/>
<text text-anchor="start" x="118.93" y="-1030.5" font-family="Helvetica,sans-Serif" font-size="20.00">+ Pessoa()</text>
<text text-anchor="start" x="118.93" y="-1008.5" font-family="Helvetica,sans-Serif" font-size="20.00">+ Pessoa()</text>
<text text-anchor="start" x="118.93" y="-986.5" font-family="Helvetica,sans-Serif" font-size="20.00">+ ~Pessoa()</text>
<text text-anchor="start" x="118.93" y="-964.5" font-family="Helvetica,sans-Serif" font-size="20.00">+ getNome()</text>
<text text-anchor="start" x="118.93" y="-942.5" font-family="Helvetica,sans-Serif" font-size="20.00">+ getTelefone()</text>
<text text-anchor="start" x="118.93" y="-920.5" font-family="Helvetica,sans-Serif" font-size="20.00">+ getEmail()</text>
<text text-anchor="start" x="118.93" y="-898.5" font-family="Helvetica,sans-Serif" font-size="20.00">+ printOutDados()</text>
<text text-anchor="start" x="118.93" y="-876.5" font-family="Helvetica,sans-Serif" font-size="20.00">+ operator==()</text>
</a>
</g>
</g>
<!-- Node4&#45;&gt;Node3 -->
<g id="edge3" class="edge">
<title>Node4&#45;&gt;Node3</title>
<path fill="none" stroke="midnightblue" d="M272.77,-857.14C287.72,-825.62 303.35,-792.67 317.13,-763.62"/>
<polygon fill="none" stroke="midnightblue" points="269.49,-855.89 268.37,-866.43 275.81,-858.89 269.49,-855.89"/>
</g>
<!-- Node8 -->
<g id="node8" class="node">
<title>Node8</title>
<g id="a_node8"><a xlink:href="classVeterinario.html" target="_top" xlink:title="Implementação dos veterinarios.">
<polygon fill="white" stroke="black" points="40.93,-585.5 40.93,-763.5 240.93,-763.5 240.93,-585.5 40.93,-585.5"/>
<text text-anchor="middle" x="140.93" y="-743.5" font-family="Helvetica,sans-Serif" font-size="20.00">Veterinario</text>
<polyline fill="none" stroke="black" points="40.93,-733.5 240.93,-733.5 "/>
<text text-anchor="middle" x="140.93" y="-713.5" font-family="Helvetica,sans-Serif" font-size="20.00"> </text>
<polyline fill="none" stroke="black" points="40.93,-703.5 240.93,-703.5 "/>
<text text-anchor="start" x="48.93" y="-683.5" font-family="Helvetica,sans-Serif" font-size="20.00">+ Veterinario()</text>
<text text-anchor="start" x="48.93" y="-661.5" font-family="Helvetica,sans-Serif" font-size="20.00">+ Veterinario()</text>
<text text-anchor="start" x="48.93" y="-639.5" font-family="Helvetica,sans-Serif" font-size="20.00">+ ~Veterinario()</text>
<text text-anchor="start" x="48.93" y="-617.5" font-family="Helvetica,sans-Serif" font-size="20.00">+ getCRMV()</text>
<text text-anchor="start" x="48.93" y="-595.5" font-family="Helvetica,sans-Serif" font-size="20.00">+ printOutDados()</text>
</a>
</g>
</g>
<!-- Node4&#45;&gt;Node8 -->
<g id="edge9" class="edge">
<title>Node4&#45;&gt;Node8</title>
<path fill="none" stroke="midnightblue" d="M181.5,-856.33C174.49,-825.06 167.17,-792.42 160.7,-763.62"/>
<polygon fill="none" stroke="midnightblue" points="178.16,-857.43 183.77,-866.43 184.99,-855.9 178.16,-857.43"/>
</g>
<!-- Node5 -->
<g id="node5" class="node">
<title>Node5</title>
<g id="a_node5"><a xlink:title=" ">
<polygon fill="white" stroke="#bfbfbf" points="173.93,-1213.5 173.93,-1303.5 247.93,-1303.5 247.93,-1213.5 173.93,-1213.5"/>
<text text-anchor="middle" x="210.93" y="-1283.5" font-family="Helvetica,sans-Serif" font-size="20.00">string</text>
<polyline fill="none" stroke="#bfbfbf" points="173.93,-1273.5 247.93,-1273.5 "/>
<text text-anchor="middle" x="210.93" y="-1253.5" font-family="Helvetica,sans-Serif" font-size="20.00"> </text>
<polyline fill="none" stroke="#bfbfbf" points="173.93,-1243.5 247.93,-1243.5 "/>
<text text-anchor="middle" x="210.93" y="-1223.5" font-family="Helvetica,sans-Serif" font-size="20.00"> </text>
</a>
</g>
</g>
<!-- Node5&#45;&gt;Node2 -->
<g id="edge7" class="edge">
<title>Node5&#45;&gt;Node2</title>
<path fill="none" stroke="#404040" d="M248.35,-1246.13C302.29,-1227.55 400.33,-1185.13 444.93,-1111 500.82,-1018.13 502.35,-732.31 496.23,-538.77"/>
<polygon fill="none" stroke="#404040" points="496.22,-538.73 492.03,-532.86 495.83,-526.74 500.03,-532.6 496.22,-538.73"/>
<text text-anchor="middle" x="573.93" y="-832" font-family="Helvetica,sans-Serif" font-size="20.00"> #especie</text>
<text text-anchor="middle" x="573.93" y="-810" font-family="Helvetica,sans-Serif" font-size="20.00">#ameacadoPor</text>
<text text-anchor="middle" x="573.93" y="-788" font-family="Helvetica,sans-Serif" font-size="20.00">#nome</text>
</g>
<!-- Node5&#45;&gt;Node4 -->
<g id="edge4" class="edge">
<title>Node5&#45;&gt;Node4</title>
<path fill="none" stroke="#404040" d="M210.93,-1213.25C210.93,-1188.22 210.93,-1155.47 210.93,-1122.77"/>
<polygon fill="none" stroke="#404040" points="210.93,-1122.74 206.93,-1116.74 210.93,-1110.74 214.93,-1116.74 210.93,-1122.74"/>
<text text-anchor="middle" x="259.43" y="-1179" font-family="Helvetica,sans-Serif" font-size="20.00"> #email</text>
<text text-anchor="middle" x="259.43" y="-1157" font-family="Helvetica,sans-Serif" font-size="20.00">#nome</text>
<text text-anchor="middle" x="259.43" y="-1135" font-family="Helvetica,sans-Serif" font-size="20.00">#telefone</text>
</g>
<!-- Node5&#45;&gt;Node8 -->
<g id="edge10" class="edge">
<title>Node5&#45;&gt;Node8</title>
<path fill="none" stroke="#404040" d="M173.58,-1240.27C129.61,-1217.65 58.8,-1173.38 28.93,-1111 -18.09,-1012.79 0.34,-971.07 28.93,-866 37.59,-834.18 53.06,-802.26 69.79,-773.89"/>
<polygon fill="none" stroke="#404040" points="69.8,-773.87 69.48,-766.67 76,-763.6 76.32,-770.8 69.8,-773.87"/>
<text text-anchor="middle" x="65.43" y="-983.5" font-family="Helvetica,sans-Serif" font-size="20.00"> &#45;CRMV</text>
</g>
<!-- Node6 -->
<g id="node6" class="node">
<title>Node6</title>
<g id="a_node6"><a xlink:title=" ">
<polygon fill="white" stroke="#bfbfbf" points="329.43,-943.5 329.43,-1033.5 436.43,-1033.5 436.43,-943.5 329.43,-943.5"/>
<text text-anchor="middle" x="382.93" y="-1013.5" font-family="Helvetica,sans-Serif" font-size="20.00">Uniforme</text>
<polyline fill="none" stroke="#bfbfbf" points="329.43,-1003.5 436.43,-1003.5 "/>
<text text-anchor="middle" x="382.93" y="-983.5" font-family="Helvetica,sans-Serif" font-size="20.00"> </text>
<polyline fill="none" stroke="#bfbfbf" points="329.43,-973.5 436.43,-973.5 "/>
<text text-anchor="middle" x="382.93" y="-953.5" font-family="Helvetica,sans-Serif" font-size="20.00"> </text>
</a>
</g>
</g>
<!-- Node6&#45;&gt;Node3 -->
<g id="edge5" class="edge">
<title>Node6&#45;&gt;Node3</title>
<path fill="none" stroke="#404040" d="M374.77,-943.38C370.08,-916.03 364.62,-880.09 361.93,-848 359.99,-824.74 358.95,-799.66 358.45,-776.02"/>
<polygon fill="none" stroke="#404040" points="358.44,-775.81 354.34,-769.88 358.23,-763.81 362.34,-769.74 358.44,-775.81"/>
<text text-anchor="middle" x="413.43" y="-810" font-family="Helvetica,sans-Serif" font-size="20.00"> &#45;uniforme</text>
</g>
<!-- Node7 -->
<g id="node7" class="node">
<title>Node7</title>
<g id="a_node7"><a xlink:title=" ">
<polygon fill="white" stroke="#bfbfbf" points="564.43,-629.5 564.43,-719.5 623.43,-719.5 623.43,-629.5 564.43,-629.5"/>
<text text-anchor="middle" x="593.93" y="-699.5" font-family="Helvetica,sans-Serif" font-size="20.00">bool</text>
<polyline fill="none" stroke="#bfbfbf" points="564.43,-689.5 623.43,-689.5 "/>
<text text-anchor="middle" x="593.93" y="-669.5" font-family="Helvetica,sans-Serif" font-size="20.00"> </text>
<polyline fill="none" stroke="#bfbfbf" points="564.43,-659.5 623.43,-659.5 "/>
<text text-anchor="middle" x="593.93" y="-639.5" font-family="Helvetica,sans-Serif" font-size="20.00"> </text>
</a>
</g>
</g>
<!-- Node7&#45;&gt;Node1 -->
<g id="edge11" class="edge">
<title>Node7&#45;&gt;Node1</title>
<path fill="none" stroke="#404040" d="M612.5,-629.25C619.44,-610.42 626.48,-587.99 629.93,-567 631.52,-557.35 630.23,-554.77 629.93,-545 624.82,-378.99 643.75,-333.96 606.93,-172 604.98,-163.39 602.38,-154.56 599.45,-145.88"/>
<polygon fill="none" stroke="#404040" points="599.45,-145.87 593.66,-141.56 595.41,-134.57 601.2,-138.87 599.45,-145.87"/>
<text text-anchor="middle" x="686.43" y="-344.5" font-family="Helvetica,sans-Serif" font-size="20.00"> #gestacao</text>
</g>
<!-- Node7&#45;&gt;Node2 -->
<g id="edge6" class="edge">
<title>Node7&#45;&gt;Node2</title>
<path fill="none" stroke="#404040" d="M564.28,-638.83C548.93,-619.04 531.28,-593.04 520.93,-567 517.25,-557.72 513.96,-548.08 511.03,-538.23"/>
<polygon fill="none" stroke="#404040" points="511,-538.14 505.52,-533.45 507.74,-526.59 513.22,-531.28 511,-538.14"/>
<text text-anchor="middle" x="575.43" y="-551" font-family="Helvetica,sans-Serif" font-size="20.00"> #perigoso</text>
</g>
<!-- Node8&#45;&gt;Node2 -->
<g id="edge8" class="edge">
<title>Node8&#45;&gt;Node2</title>
<path fill="none" stroke="#404040" d="M197.23,-585.26C207.73,-571.2 219.13,-557.27 230.93,-545 271.04,-503.31 320.63,-463.49 365.46,-430.87"/>
<polygon fill="none" stroke="#404040" points="365.51,-430.83 368.04,-424.08 375.24,-423.81 372.72,-430.56 365.51,-430.83"/>
<text text-anchor="middle" x="295.93" y="-551" font-family="Helvetica,sans-Serif" font-size="20.00"> #veterinario</text>
</g>
</g>
</svg>
