<?xml version="1.0" encoding="UTF-8" standalone="no"?>
<!DOCTYPE svg PUBLIC "-//W3C//DTD SVG 1.1//EN"
 "http://www.w3.org/Graphics/SVG/1.1/DTD/svg11.dtd">
<!-- Generated by graphviz version 2.40.1 (20161225.0304)
 -->
<!-- Title: AnfibioExotico Pages: 1 -->
<svg width="782pt" height="1662pt"
 viewBox="0.00 0.00 782.00 1662.00" xmlns="http://www.w3.org/2000/svg" xmlns:xlink="http://www.w3.org/1999/xlink">
<g id="graph0" class="graph" transform="scale(1 1) rotate(0) translate(4 1658)">
<title>AnfibioExotico</title>
<polygon fill="#ffffff" stroke="transparent" points="-4,4 -4,-1658 778,-1658 778,4 -4,4"/>
<!-- Node4 -->
<g id="node1" class="node">
<title>Node4</title>
<polygon fill="#bfbfbf" stroke="#000000" points="77.5,-.5 77.5,-112.5 250.5,-112.5 250.5,-.5 77.5,-.5"/>
<text text-anchor="middle" x="164" y="-92.5" font-family="Helvetica,sans-Serif" font-size="20.00" fill="#000000">AnfibioExotico</text>
<polyline fill="none" stroke="#000000" points="77.5,-82.5 250.5,-82.5 "/>
<text text-anchor="middle" x="164" y="-62.5" font-family="Helvetica,sans-Serif" font-size="20.00" fill="#000000"> </text>
<polyline fill="none" stroke="#000000" points="77.5,-52.5 250.5,-52.5 "/>
<text text-anchor="start" x="85.5" y="-32.5" font-family="Helvetica,sans-Serif" font-size="20.00" fill="#000000">+ AnfibioExotico()</text>
<text text-anchor="start" x="85.5" y="-10.5" font-family="Helvetica,sans-Serif" font-size="20.00" fill="#000000">+ ~AnfibioExotico()</text>
</g>
<!-- Node5 -->
<g id="node2" class="node">
<title>Node5</title>
<g id="a_node2"><a xlink:href="classAnfibio.html" target="_top" xlink:title="Classificação base para Anfibios. ">
<polygon fill="#ffffff" stroke="#000000" points="0,-325.5 0,-481.5 124,-481.5 124,-325.5 0,-325.5"/>
<text text-anchor="middle" x="62" y="-461.5" font-family="Helvetica,sans-Serif" font-size="20.00" fill="#000000">Anfibio</text>
<polyline fill="none" stroke="#000000" points="0,-451.5 124,-451.5 "/>
<text text-anchor="middle" x="62" y="-431.5" font-family="Helvetica,sans-Serif" font-size="20.00" fill="#000000"> </text>
<polyline fill="none" stroke="#000000" points="0,-421.5 124,-421.5 "/>
<text text-anchor="start" x="8" y="-401.5" font-family="Helvetica,sans-Serif" font-size="20.00" fill="#000000">+ Anfibio()</text>
<text text-anchor="start" x="8" y="-379.5" font-family="Helvetica,sans-Serif" font-size="20.00" fill="#000000">+ ~Anfibio()</text>
<text text-anchor="start" x="8" y="-357.5" font-family="Helvetica,sans-Serif" font-size="20.00" fill="#000000">+ getCauda()</text>
<text text-anchor="start" x="8" y="-335.5" font-family="Helvetica,sans-Serif" font-size="20.00" fill="#000000">+ getPata()</text>
</a>
</g>
</g>
<!-- Node5&#45;&gt;Node4 -->
<g id="edge1" class="edge">
<title>Node5&#45;&gt;Node4</title>
<path fill="none" stroke="#191970" d="M87.8541,-315.5454C106.593,-251.7965 131.3727,-167.4967 147.4954,-112.6481"/>
<polygon fill="none" stroke="#191970" points="84.4803,-314.6126 85.018,-325.1938 91.1961,-316.5867 84.4803,-314.6126"/>
</g>
<!-- Node6 -->
<g id="node3" class="node">
<title>Node6</title>
<polygon fill="#ffffff" stroke="#bfbfbf" points="28.5,-979.5 28.5,-1069.5 79.5,-1069.5 79.5,-979.5 28.5,-979.5"/>
<text text-anchor="middle" x="54" y="-1049.5" font-family="Helvetica,sans-Serif" font-size="20.00" fill="#000000">bool</text>
<polyline fill="none" stroke="#bfbfbf" points="28.5,-1039.5 79.5,-1039.5 "/>
<text text-anchor="middle" x="54" y="-1019.5" font-family="Helvetica,sans-Serif" font-size="20.00" fill="#000000"> </text>
<polyline fill="none" stroke="#bfbfbf" points="28.5,-1009.5 79.5,-1009.5 "/>
<text text-anchor="middle" x="54" y="-989.5" font-family="Helvetica,sans-Serif" font-size="20.00" fill="#000000"> </text>
</g>
<!-- Node6&#45;&gt;Node5 -->
<g id="edge2" class="edge">
<title>Node6&#45;&gt;Node5</title>
<path fill="none" stroke="#404040" d="M33.1712,-979.4779C25.5248,-960.6061 17.8103,-938.1662 14,-917 10.5353,-897.7538 13.0042,-892.5302 14,-873 20.7447,-740.7121 38.1129,-588.2711 49.9973,-493.8856"/>
<polygon fill="none" stroke="#404040" points="50.0182,-493.72 46.8044,-487.2647 51.5271,-481.8153 54.7409,-488.2706 50.0182,-493.72"/>
<text text-anchor="middle" x="44.5" y="-901" font-family="Helvetica,sans-Serif" font-size="20.00" fill="#000000"> #pata</text>
<text text-anchor="middle" x="44.5" y="-879" font-family="Helvetica,sans-Serif" font-size="20.00" fill="#000000">#cauda</text>
</g>
<!-- Node8 -->
<g id="node5" class="node">
<title>Node8</title>
<g id="a_node5"><a xlink:href="classAnimal.html" target="_top" xlink:title="Implementação base para o cadastro de animais. ">
<polygon fill="#ffffff" stroke="#000000" points="169.5,-500.5 169.5,-854.5 354.5,-854.5 354.5,-500.5 169.5,-500.5"/>
<text text-anchor="middle" x="262" y="-834.5" font-family="Helvetica,sans-Serif" font-size="20.00" fill="#000000">Animal</text>
<polyline fill="none" stroke="#000000" points="169.5,-824.5 354.5,-824.5 "/>
<text text-anchor="middle" x="262" y="-804.5" font-family="Helvetica,sans-Serif" font-size="20.00" fill="#000000"> </text>
<polyline fill="none" stroke="#000000" points="169.5,-794.5 354.5,-794.5 "/>
<text text-anchor="start" x="177.5" y="-774.5" font-family="Helvetica,sans-Serif" font-size="20.00" fill="#000000">+ Animal()</text>
<text text-anchor="start" x="177.5" y="-752.5" font-family="Helvetica,sans-Serif" font-size="20.00" fill="#000000">+ Animal()</text>
<text text-anchor="start" x="177.5" y="-730.5" font-family="Helvetica,sans-Serif" font-size="20.00" fill="#000000">+ ~Animal()</text>
<text text-anchor="start" x="177.5" y="-708.5" font-family="Helvetica,sans-Serif" font-size="20.00" fill="#000000">+ getNome()</text>
<text text-anchor="start" x="177.5" y="-686.5" font-family="Helvetica,sans-Serif" font-size="20.00" fill="#000000">+ getEspecie()</text>
<text text-anchor="start" x="177.5" y="-664.5" font-family="Helvetica,sans-Serif" font-size="20.00" fill="#000000">+ getAmeacadoPor()</text>
<text text-anchor="start" x="177.5" y="-642.5" font-family="Helvetica,sans-Serif" font-size="20.00" fill="#000000">+ getVeterinario()</text>
<text text-anchor="start" x="177.5" y="-620.5" font-family="Helvetica,sans-Serif" font-size="20.00" fill="#000000">+ getTratador()</text>
<text text-anchor="start" x="177.5" y="-598.5" font-family="Helvetica,sans-Serif" font-size="20.00" fill="#000000">+ getPerigoso()</text>
<text text-anchor="start" x="177.5" y="-576.5" font-family="Helvetica,sans-Serif" font-size="20.00" fill="#000000">+ getClassificacao()</text>
<text text-anchor="start" x="177.5" y="-554.5" font-family="Helvetica,sans-Serif" font-size="20.00" fill="#000000">+ getClasse()</text>
<text text-anchor="start" x="177.5" y="-532.5" font-family="Helvetica,sans-Serif" font-size="20.00" fill="#000000">+ printOutDados()</text>
<text text-anchor="start" x="177.5" y="-510.5" font-family="Helvetica,sans-Serif" font-size="20.00" fill="#000000">+ operator==()</text>
</a>
</g>
</g>
<!-- Node6&#45;&gt;Node8 -->
<g id="edge9" class="edge">
<title>Node6&#45;&gt;Node8</title>
<path fill="none" stroke="#404040" d="M61.6232,-979.1798C68.0922,-948.0345 79.2196,-906.4334 97,-873 114.2373,-840.5878 137.5446,-808.7252 161.2053,-780.4362"/>
<polygon fill="none" stroke="#404040" points="161.4657,-780.1297 162.3016,-772.9672 169.2347,-770.9839 168.3988,-778.1465 161.4657,-780.1297"/>
<text text-anchor="middle" x="140" y="-890" font-family="Helvetica,sans-Serif" font-size="20.00" fill="#000000"> #perigoso</text>
</g>
<!-- Node7 -->
<g id="node4" class="node">
<title>Node7</title>
<g id="a_node4"><a xlink:href="classExotico.html" target="_top" xlink:title="Umas das definições de categoria para Animal. ">
<polygon fill="#ffffff" stroke="#000000" points="205,-150.5 205,-306.5 319,-306.5 319,-150.5 205,-150.5"/>
<text text-anchor="middle" x="262" y="-286.5" font-family="Helvetica,sans-Serif" font-size="20.00" fill="#000000">Exotico</text>
<polyline fill="none" stroke="#000000" points="205,-276.5 319,-276.5 "/>
<text text-anchor="middle" x="262" y="-256.5" font-family="Helvetica,sans-Serif" font-size="20.00" fill="#000000"> </text>
<polyline fill="none" stroke="#000000" points="205,-246.5 319,-246.5 "/>
<text text-anchor="start" x="213" y="-226.5" font-family="Helvetica,sans-Serif" font-size="20.00" fill="#000000">+ Exotico()</text>
<text text-anchor="start" x="213" y="-204.5" font-family="Helvetica,sans-Serif" font-size="20.00" fill="#000000">+ Exotico()</text>
<text text-anchor="start" x="213" y="-182.5" font-family="Helvetica,sans-Serif" font-size="20.00" fill="#000000">+ ~Exotico()</text>
<text text-anchor="start" x="213" y="-160.5" font-family="Helvetica,sans-Serif" font-size="20.00" fill="#000000">+ getLocal()</text>
</a>
</g>
</g>
<!-- Node7&#45;&gt;Node4 -->
<g id="edge3" class="edge">
<title>Node7&#45;&gt;Node4</title>
<path fill="none" stroke="#191970" d="M212.3476,-141.3549C206.7918,-131.604 201.2472,-121.8727 195.9996,-112.6626"/>
<polygon fill="none" stroke="#191970" points="209.4532,-143.345 217.4448,-150.301 215.5352,-139.8797 209.4532,-143.345"/>
</g>
<!-- Node8&#45;&gt;Node7 -->
<g id="edge4" class="edge">
<title>Node8&#45;&gt;Node7</title>
<path fill="none" stroke="#191970" d="M262,-490.0852C262,-425.7861 262,-357.3128 262,-306.5565"/>
<polygon fill="none" stroke="#191970" points="258.5001,-490.3656 262,-500.3656 265.5001,-490.3657 258.5001,-490.3656"/>
</g>
<!-- Node9 -->
<g id="node6" class="node">
<title>Node9</title>
<g id="a_node6"><a xlink:href="classTratador.html" target="_top" xlink:title="Implementação dos tratadores. ">
<polygon fill="#ffffff" stroke="#000000" points="431,-935.5 431,-1113.5 595,-1113.5 595,-935.5 431,-935.5"/>
<text text-anchor="middle" x="513" y="-1093.5" font-family="Helvetica,sans-Serif" font-size="20.00" fill="#000000">Tratador</text>
<polyline fill="none" stroke="#000000" points="431,-1083.5 595,-1083.5 "/>
<text text-anchor="middle" x="513" y="-1063.5" font-family="Helvetica,sans-Serif" font-size="20.00" fill="#000000"> </text>
<polyline fill="none" stroke="#000000" points="431,-1053.5 595,-1053.5 "/>
<text text-anchor="start" x="439" y="-1033.5" font-family="Helvetica,sans-Serif" font-size="20.00" fill="#000000">+ Tratador()</text>
<text text-anchor="start" x="439" y="-1011.5" font-family="Helvetica,sans-Serif" font-size="20.00" fill="#000000">+ Tratador()</text>
<text text-anchor="start" x="439" y="-989.5" font-family="Helvetica,sans-Serif" font-size="20.00" fill="#000000">+ ~Tratador()</text>
<text text-anchor="start" x="439" y="-967.5" font-family="Helvetica,sans-Serif" font-size="20.00" fill="#000000">+ getUniforme()</text>
<text text-anchor="start" x="439" y="-945.5" font-family="Helvetica,sans-Serif" font-size="20.00" fill="#000000">+ printOutDados()</text>
</a>
</g>
</g>
<!-- Node9&#45;&gt;Node8 -->
<g id="edge5" class="edge">
<title>Node9&#45;&gt;Node8</title>
<path fill="none" stroke="#404040" d="M458.0092,-935.4123C444.6428,-914.6679 430.1216,-892.8497 416,-873 399.1595,-849.3287 380.542,-824.6058 362.2427,-801.0165"/>
<polygon fill="none" stroke="#404040" points="362.0767,-800.8035 355.234,-798.5281 354.7025,-791.3366 361.5452,-793.612 362.0767,-800.8035"/>
<text text-anchor="middle" x="483.5" y="-890" font-family="Helvetica,sans-Serif" font-size="20.00" fill="#000000"> #tratador</text>
</g>
<!-- Node10 -->
<g id="node7" class="node">
<title>Node10</title>
<g id="a_node7"><a xlink:href="classPessoa.html" target="_top" xlink:title="Classe base dos funcionarios. ">
<polygon fill="#ffffff" stroke="#000000" points="419,-1216.5 419,-1460.5 583,-1460.5 583,-1216.5 419,-1216.5"/>
<text text-anchor="middle" x="501" y="-1440.5" font-family="Helvetica,sans-Serif" font-size="20.00" fill="#000000">Pessoa</text>
<polyline fill="none" stroke="#000000" points="419,-1430.5 583,-1430.5 "/>
<text text-anchor="middle" x="501" y="-1410.5" font-family="Helvetica,sans-Serif" font-size="20.00" fill="#000000"> </text>
<polyline fill="none" stroke="#000000" points="419,-1400.5 583,-1400.5 "/>
<text text-anchor="start" x="427" y="-1380.5" font-family="Helvetica,sans-Serif" font-size="20.00" fill="#000000">+ Pessoa()</text>
<text text-anchor="start" x="427" y="-1358.5" font-family="Helvetica,sans-Serif" font-size="20.00" fill="#000000">+ Pessoa()</text>
<text text-anchor="start" x="427" y="-1336.5" font-family="Helvetica,sans-Serif" font-size="20.00" fill="#000000">+ ~Pessoa()</text>
<text text-anchor="start" x="427" y="-1314.5" font-family="Helvetica,sans-Serif" font-size="20.00" fill="#000000">+ getNome()</text>
<text text-anchor="start" x="427" y="-1292.5" font-family="Helvetica,sans-Serif" font-size="20.00" fill="#000000">+ getTelefone()</text>
<text text-anchor="start" x="427" y="-1270.5" font-family="Helvetica,sans-Serif" font-size="20.00" fill="#000000">+ getEmail()</text>
<text text-anchor="start" x="427" y="-1248.5" font-family="Helvetica,sans-Serif" font-size="20.00" fill="#000000">+ printOutDados()</text>
<text text-anchor="start" x="427" y="-1226.5" font-family="Helvetica,sans-Serif" font-size="20.00" fill="#000000">+ operator==()</text>
</a>
</g>
</g>
<!-- Node10&#45;&gt;Node9 -->
<g id="edge6" class="edge">
<title>Node10&#45;&gt;Node9</title>
<path fill="none" stroke="#191970" d="M506.0579,-1206.152C507.2469,-1175.0404 508.4865,-1142.6041 509.5836,-1113.8956"/>
<polygon fill="none" stroke="#191970" points="502.5584,-1206.0739 505.6739,-1216.2003 509.5533,-1206.3413 502.5584,-1206.0739"/>
</g>
<!-- Node13 -->
<g id="node10" class="node">
<title>Node13</title>
<g id="a_node10"><a xlink:href="classVeterinario.html" target="_top" xlink:title="Implementação dos veterinarios. ">
<polygon fill="#ffffff" stroke="#000000" points="249,-935.5 249,-1113.5 413,-1113.5 413,-935.5 249,-935.5"/>
<text text-anchor="middle" x="331" y="-1093.5" font-family="Helvetica,sans-Serif" font-size="20.00" fill="#000000">Veterinario</text>
<polyline fill="none" stroke="#000000" points="249,-1083.5 413,-1083.5 "/>
<text text-anchor="middle" x="331" y="-1063.5" font-family="Helvetica,sans-Serif" font-size="20.00" fill="#000000"> </text>
<polyline fill="none" stroke="#000000" points="249,-1053.5 413,-1053.5 "/>
<text text-anchor="start" x="257" y="-1033.5" font-family="Helvetica,sans-Serif" font-size="20.00" fill="#000000">+ Veterinario()</text>
<text text-anchor="start" x="257" y="-1011.5" font-family="Helvetica,sans-Serif" font-size="20.00" fill="#000000">+ Veterinario()</text>
<text text-anchor="start" x="257" y="-989.5" font-family="Helvetica,sans-Serif" font-size="20.00" fill="#000000">+ ~Veterinario()</text>
<text text-anchor="start" x="257" y="-967.5" font-family="Helvetica,sans-Serif" font-size="20.00" fill="#000000">+ getCRMV()</text>
<text text-anchor="start" x="257" y="-945.5" font-family="Helvetica,sans-Serif" font-size="20.00" fill="#000000">+ printOutDados()</text>
</a>
</g>
</g>
<!-- Node10&#45;&gt;Node13 -->
<g id="edge12" class="edge">
<title>Node10&#45;&gt;Node13</title>
<path fill="none" stroke="#191970" d="M430.0025,-1207.3635C412.9592,-1175.8835 395.1436,-1142.9769 379.3989,-1113.8956"/>
<polygon fill="none" stroke="#191970" points="426.9478,-1209.0728 434.7868,-1216.2003 433.1036,-1205.74 426.9478,-1209.0728"/>
</g>
<!-- Node11 -->
<g id="node8" class="node">
<title>Node11</title>
<polygon fill="#ffffff" stroke="#bfbfbf" points="386,-1563.5 386,-1653.5 450,-1653.5 450,-1563.5 386,-1563.5"/>
<text text-anchor="middle" x="418" y="-1633.5" font-family="Helvetica,sans-Serif" font-size="20.00" fill="#000000">string</text>
<polyline fill="none" stroke="#bfbfbf" points="386,-1623.5 450,-1623.5 "/>
<text text-anchor="middle" x="418" y="-1603.5" font-family="Helvetica,sans-Serif" font-size="20.00" fill="#000000"> </text>
<polyline fill="none" stroke="#bfbfbf" points="386,-1593.5 450,-1593.5 "/>
<text text-anchor="middle" x="418" y="-1573.5" font-family="Helvetica,sans-Serif" font-size="20.00" fill="#000000"> </text>
</g>
<!-- Node11&#45;&gt;Node7 -->
<g id="edge14" class="edge">
<title>Node11&#45;&gt;Node7</title>
<path fill="none" stroke="#404040" d="M450.2369,-1601.8108C510.4666,-1587.4966 639.6121,-1547.869 702,-1461 734.139,-1416.2497 721,-1393.5954 721,-1338.5 721,-1338.5 721,-1338.5 721,-677.5 721,-461.6242 458.3415,-315.4177 330.4089,-257.0085"/>
<polygon fill="none" stroke="#404040" points="330.1454,-256.8898 323.0319,-258.072 319.2046,-251.9604 326.3182,-250.7782 330.1454,-256.8898"/>
<text text-anchor="middle" x="747.5" y="-1019.5" font-family="Helvetica,sans-Serif" font-size="20.00" fill="#000000"> #local</text>
</g>
<!-- Node11&#45;&gt;Node8 -->
<g id="edge10" class="edge">
<title>Node11&#45;&gt;Node8</title>
<path fill="none" stroke="#404040" d="M385.9544,-1585.5358C372.2658,-1574.4882 356.9537,-1560.3206 346,-1545 248.8865,-1409.1712 234.6291,-1361.7554 202,-1198 180.3284,-1089.237 192.9075,-966.0151 212.029,-866.775"/>
<polygon fill="none" stroke="#404040" points="212.0699,-866.5673 209.3063,-859.9068 214.3915,-854.794 217.1551,-861.4545 212.0699,-866.5673"/>
<text text-anchor="middle" x="263.5" y="-1182" font-family="Helvetica,sans-Serif" font-size="20.00" fill="#000000"> #especie</text>
<text text-anchor="middle" x="263.5" y="-1160" font-family="Helvetica,sans-Serif" font-size="20.00" fill="#000000">#ameacadoPor</text>
<text text-anchor="middle" x="263.5" y="-1138" font-family="Helvetica,sans-Serif" font-size="20.00" fill="#000000">#nome</text>
</g>
<!-- Node11&#45;&gt;Node10 -->
<g id="edge7" class="edge">
<title>Node11&#45;&gt;Node10</title>
<path fill="none" stroke="#404040" d="M431.8923,-1563.3081C439.6532,-1538.0618 449.7716,-1505.1466 459.8615,-1472.3241"/>
<polygon fill="none" stroke="#404040" points="459.8992,-1472.2012 457.8388,-1465.2907 463.4253,-1460.731 465.4857,-1467.6415 459.8992,-1472.2012"/>
<text text-anchor="middle" x="495.5" y="-1529" font-family="Helvetica,sans-Serif" font-size="20.00" fill="#000000"> #email</text>
<text text-anchor="middle" x="495.5" y="-1507" font-family="Helvetica,sans-Serif" font-size="20.00" fill="#000000">#nome</text>
<text text-anchor="middle" x="495.5" y="-1485" font-family="Helvetica,sans-Serif" font-size="20.00" fill="#000000">#telefone</text>
</g>
<!-- Node11&#45;&gt;Node13 -->
<g id="edge13" class="edge">
<title>Node11&#45;&gt;Node13</title>
<path fill="none" stroke="#404040" d="M388.874,-1563.3693C372.3523,-1535.1593 353.1903,-1497.3884 344,-1461 328.6043,-1400.0417 327.701,-1234.8494 328.9738,-1126.0732"/>
<polygon fill="none" stroke="#404040" points="328.9777,-1125.7563 325.0541,-1119.706 329.1299,-1113.7573 333.0535,-1119.8075 328.9777,-1125.7563"/>
<text text-anchor="middle" x="377" y="-1333.5" font-family="Helvetica,sans-Serif" font-size="20.00" fill="#000000"> &#45;CRMV</text>
</g>
<!-- Node12 -->
<g id="node9" class="node">
<title>Node12</title>
<polygon fill="#ffffff" stroke="#bfbfbf" points="601,-1293.5 601,-1383.5 693,-1383.5 693,-1293.5 601,-1293.5"/>
<text text-anchor="middle" x="647" y="-1363.5" font-family="Helvetica,sans-Serif" font-size="20.00" fill="#000000">Uniforme</text>
<polyline fill="none" stroke="#bfbfbf" points="601,-1353.5 693,-1353.5 "/>
<text text-anchor="middle" x="647" y="-1333.5" font-family="Helvetica,sans-Serif" font-size="20.00" fill="#000000"> </text>
<polyline fill="none" stroke="#bfbfbf" points="601,-1323.5 693,-1323.5 "/>
<text text-anchor="middle" x="647" y="-1303.5" font-family="Helvetica,sans-Serif" font-size="20.00" fill="#000000"> </text>
</g>
<!-- Node12&#45;&gt;Node9 -->
<g id="edge8" class="edge">
<title>Node12&#45;&gt;Node9</title>
<path fill="none" stroke="#404040" d="M627.6584,-1293.177C608.9387,-1249.3115 579.9277,-1181.3307 555.7722,-1124.7275"/>
<polygon fill="none" stroke="#404040" points="555.7205,-1124.606 549.6864,-1120.6576 551.0104,-1113.569 557.0444,-1117.5175 555.7205,-1124.606"/>
<text text-anchor="middle" x="626" y="-1160" font-family="Helvetica,sans-Serif" font-size="20.00" fill="#000000"> &#45;uniforme</text>
</g>
<!-- Node13&#45;&gt;Node8 -->
<g id="edge11" class="edge">
<title>Node13&#45;&gt;Node8</title>
<path fill="none" stroke="#404040" d="M313.2308,-935.1389C308.9929,-913.8266 304.3106,-890.2794 299.5502,-866.3396"/>
<polygon fill="none" stroke="#404040" points="299.5491,-866.3334 294.4557,-861.2288 297.2087,-854.5638 302.3021,-859.6685 299.5491,-866.3334"/>
<text text-anchor="middle" x="360.5" y="-890" font-family="Helvetica,sans-Serif" font-size="20.00" fill="#000000"> #veterinario</text>
</g>
</g>
</svg>
