<?xml version="1.0" encoding="UTF-8" standalone="no"?>
<!DOCTYPE svg PUBLIC "-//W3C//DTD SVG 1.1//EN"
 "http://www.w3.org/Graphics/SVG/1.1/DTD/svg11.dtd">
<!-- Generated by graphviz version 2.43.0 (0)
 -->
<!-- Title: AveExotica Pages: 1 -->
<svg width="743pt" height="1575pt"
 viewBox="0.00 0.00 742.54 1575.00" xmlns="http://www.w3.org/2000/svg" xmlns:xlink="http://www.w3.org/1999/xlink">
<g id="graph0" class="graph" transform="scale(1 1) rotate(0) translate(4 1571)">
<title>AveExotica</title>
<polygon fill="white" stroke="transparent" points="-4,4 -4,-1571 738.54,-1571 738.54,4 -4,4"/>
<!-- Node1 -->
<g id="node1" class="node">
<title>Node1</title>
<g id="a_node1"><a xlink:title="Implementação de animal com Classe e Categoria.">
<polygon fill="#bfbfbf" stroke="black" points="528.54,-0.5 528.54,-112.5 707.54,-112.5 707.54,-0.5 528.54,-0.5"/>
<text text-anchor="middle" x="618.04" y="-92.5" font-family="Helvetica,sans-Serif" font-size="20.00">AveExotica</text>
<polyline fill="none" stroke="black" points="528.54,-82.5 707.54,-82.5 "/>
<text text-anchor="middle" x="618.04" y="-62.5" font-family="Helvetica,sans-Serif" font-size="20.00"> </text>
<polyline fill="none" stroke="black" points="528.54,-52.5 707.54,-52.5 "/>
<text text-anchor="start" x="536.54" y="-32.5" font-family="Helvetica,sans-Serif" font-size="20.00">+ AveExotica()</text>
<text text-anchor="start" x="536.54" y="-10.5" font-family="Helvetica,sans-Serif" font-size="20.00">+ ~AveExotica()</text>
</a>
</g>
</g>
<!-- Node2 -->
<g id="node2" class="node">
<title>Node2</title>
<g id="a_node2"><a xlink:href="classAve.html" target="_top" xlink:title="Classificação base para Aves.">
<polygon fill="white" stroke="black" points="513.04,-150.5 513.04,-306.5 635.04,-306.5 635.04,-150.5 513.04,-150.5"/>
<text text-anchor="middle" x="574.04" y="-286.5" font-family="Helvetica,sans-Serif" font-size="20.00">Ave</text>
<polyline fill="none" stroke="black" points="513.04,-276.5 635.04,-276.5 "/>
<text text-anchor="middle" x="574.04" y="-256.5" font-family="Helvetica,sans-Serif" font-size="20.00"> </text>
<polyline fill="none" stroke="black" points="513.04,-246.5 635.04,-246.5 "/>
<text text-anchor="start" x="521.04" y="-226.5" font-family="Helvetica,sans-Serif" font-size="20.00">+ Ave()</text>
<text text-anchor="start" x="521.04" y="-204.5" font-family="Helvetica,sans-Serif" font-size="20.00">+ Ave()</text>
<text text-anchor="start" x="521.04" y="-182.5" font-family="Helvetica,sans-Serif" font-size="20.00">+ ~Ave()</text>
<text text-anchor="start" x="521.04" y="-160.5" font-family="Helvetica,sans-Serif" font-size="20.00">+ getVoa()</text>
</a>
</g>
</g>
<!-- Node2&#45;&gt;Node1 -->
<g id="edge1" class="edge">
<title>Node2&#45;&gt;Node1</title>
<path fill="none" stroke="midnightblue" d="M596.52,-140.65C598.95,-131.22 601.39,-121.83 603.69,-112.93"/>
<polygon fill="none" stroke="midnightblue" points="593.09,-139.9 593.98,-150.46 599.87,-141.65 593.09,-139.9"/>
</g>
<!-- Node3 -->
<g id="node3" class="node">
<title>Node3</title>
<g id="a_node3"><a xlink:href="classAnimal.html" target="_top" xlink:title="Implementação base para o cadastro de animais.">
<polygon fill="white" stroke="black" points="213.54,-344.5 213.54,-698.5 436.54,-698.5 436.54,-344.5 213.54,-344.5"/>
<text text-anchor="middle" x="325.04" y="-678.5" font-family="Helvetica,sans-Serif" font-size="20.00">Animal</text>
<polyline fill="none" stroke="black" points="213.54,-668.5 436.54,-668.5 "/>
<text text-anchor="middle" x="325.04" y="-648.5" font-family="Helvetica,sans-Serif" font-size="20.00"> </text>
<polyline fill="none" stroke="black" points="213.54,-638.5 436.54,-638.5 "/>
<text text-anchor="start" x="221.54" y="-618.5" font-family="Helvetica,sans-Serif" font-size="20.00">+ Animal()</text>
<text text-anchor="start" x="221.54" y="-596.5" font-family="Helvetica,sans-Serif" font-size="20.00">+ Animal()</text>
<text text-anchor="start" x="221.54" y="-574.5" font-family="Helvetica,sans-Serif" font-size="20.00">+ ~Animal()</text>
<text text-anchor="start" x="221.54" y="-552.5" font-family="Helvetica,sans-Serif" font-size="20.00">+ getNome()</text>
<text text-anchor="start" x="221.54" y="-530.5" font-family="Helvetica,sans-Serif" font-size="20.00">+ getEspecie()</text>
<text text-anchor="start" x="221.54" y="-508.5" font-family="Helvetica,sans-Serif" font-size="20.00">+ getAmeacadoPor()</text>
<text text-anchor="start" x="221.54" y="-486.5" font-family="Helvetica,sans-Serif" font-size="20.00">+ getVeterinario()</text>
<text text-anchor="start" x="221.54" y="-464.5" font-family="Helvetica,sans-Serif" font-size="20.00">+ getTratador()</text>
<text text-anchor="start" x="221.54" y="-442.5" font-family="Helvetica,sans-Serif" font-size="20.00">+ getPerigoso()</text>
<text text-anchor="start" x="221.54" y="-420.5" font-family="Helvetica,sans-Serif" font-size="20.00">+ getClassificacao()</text>
<text text-anchor="start" x="221.54" y="-398.5" font-family="Helvetica,sans-Serif" font-size="20.00">+ getClasse()</text>
<text text-anchor="start" x="221.54" y="-376.5" font-family="Helvetica,sans-Serif" font-size="20.00">+ printOutDados()</text>
<text text-anchor="start" x="221.54" y="-354.5" font-family="Helvetica,sans-Serif" font-size="20.00">+ operator==()</text>
</a>
</g>
</g>
<!-- Node3&#45;&gt;Node2 -->
<g id="edge2" class="edge">
<title>Node3&#45;&gt;Node2</title>
<path fill="none" stroke="midnightblue" d="M443.54,-382.01C467.49,-354.01 491.75,-325.66 512.74,-301.13"/>
<polygon fill="none" stroke="midnightblue" points="440.63,-380.02 436.79,-389.9 445.95,-384.57 440.63,-380.02"/>
</g>
<!-- Node4 -->
<g id="node4" class="node">
<title>Node4</title>
<g id="a_node4"><a xlink:href="classTratador.html" target="_top" xlink:title="Implementação dos tratadores.">
<polygon fill="white" stroke="black" points="290.04,-757.5 290.04,-935.5 490.04,-935.5 490.04,-757.5 290.04,-757.5"/>
<text text-anchor="middle" x="390.04" y="-915.5" font-family="Helvetica,sans-Serif" font-size="20.00">Tratador</text>
<polyline fill="none" stroke="black" points="290.04,-905.5 490.04,-905.5 "/>
<text text-anchor="middle" x="390.04" y="-885.5" font-family="Helvetica,sans-Serif" font-size="20.00"> </text>
<polyline fill="none" stroke="black" points="290.04,-875.5 490.04,-875.5 "/>
<text text-anchor="start" x="298.04" y="-855.5" font-family="Helvetica,sans-Serif" font-size="20.00">+ Tratador()</text>
<text text-anchor="start" x="298.04" y="-833.5" font-family="Helvetica,sans-Serif" font-size="20.00">+ Tratador()</text>
<text text-anchor="start" x="298.04" y="-811.5" font-family="Helvetica,sans-Serif" font-size="20.00">+ ~Tratador()</text>
<text text-anchor="start" x="298.04" y="-789.5" font-family="Helvetica,sans-Serif" font-size="20.00">+ getUniforme()</text>
<text text-anchor="start" x="298.04" y="-767.5" font-family="Helvetica,sans-Serif" font-size="20.00">+ printOutDados()</text>
</a>
</g>
</g>
<!-- Node4&#45;&gt;Node3 -->
<g id="edge3" class="edge">
<title>Node4&#45;&gt;Node3</title>
<path fill="none" stroke="#404040" d="M332.42,-757.31C329.92,-751.26 327.75,-745.13 326.04,-739 323.49,-729.9 321.43,-720.5 319.8,-710.95"/>
<polygon fill="none" stroke="#404040" points="319.75,-710.64 314.89,-705.31 317.94,-698.78 322.8,-704.11 319.75,-710.64"/>
<text text-anchor="middle" x="377.54" y="-723" font-family="Helvetica,sans-Serif" font-size="20.00"> #tratador</text>
</g>
<!-- Node5 -->
<g id="node5" class="node">
<title>Node5</title>
<g id="a_node5"><a xlink:href="classPessoa.html" target="_top" xlink:title="Classe base dos funcionarios.">
<polygon fill="white" stroke="black" points="263.04,-1129.5 263.04,-1373.5 463.04,-1373.5 463.04,-1129.5 263.04,-1129.5"/>
<text text-anchor="middle" x="363.04" y="-1353.5" font-family="Helvetica,sans-Serif" font-size="20.00">Pessoa</text>
<polyline fill="none" stroke="black" points="263.04,-1343.5 463.04,-1343.5 "/>
<text text-anchor="middle" x="363.04" y="-1323.5" font-family="Helvetica,sans-Serif" font-size="20.00"> </text>
<polyline fill="none" stroke="black" points="263.04,-1313.5 463.04,-1313.5 "/>
<text text-anchor="start" x="271.04" y="-1293.5" font-family="Helvetica,sans-Serif" font-size="20.00">+ Pessoa()</text>
<text text-anchor="start" x="271.04" y="-1271.5" font-family="Helvetica,sans-Serif" font-size="20.00">+ Pessoa()</text>
<text text-anchor="start" x="271.04" y="-1249.5" font-family="Helvetica,sans-Serif" font-size="20.00">+ ~Pessoa()</text>
<text text-anchor="start" x="271.04" y="-1227.5" font-family="Helvetica,sans-Serif" font-size="20.00">+ getNome()</text>
<text text-anchor="start" x="271.04" y="-1205.5" font-family="Helvetica,sans-Serif" font-size="20.00">+ getTelefone()</text>
<text text-anchor="start" x="271.04" y="-1183.5" font-family="Helvetica,sans-Serif" font-size="20.00">+ getEmail()</text>
<text text-anchor="start" x="271.04" y="-1161.5" font-family="Helvetica,sans-Serif" font-size="20.00">+ printOutDados()</text>
<text text-anchor="start" x="271.04" y="-1139.5" font-family="Helvetica,sans-Serif" font-size="20.00">+ operator==()</text>
</a>
</g>
</g>
<!-- Node5&#45;&gt;Node4 -->
<g id="edge4" class="edge">
<title>Node5&#45;&gt;Node4</title>
<path fill="none" stroke="midnightblue" d="M371.85,-1118.98C375.88,-1058.85 380.54,-989.23 384.14,-935.55"/>
<polygon fill="none" stroke="midnightblue" points="368.33,-1119.1 371.15,-1129.31 375.32,-1119.57 368.33,-1119.1"/>
</g>
<!-- Node9 -->
<g id="node9" class="node">
<title>Node9</title>
<g id="a_node9"><a xlink:href="classVeterinario.html" target="_top" xlink:title="Implementação dos veterinarios.">
<polygon fill="white" stroke="black" points="72.04,-757.5 72.04,-935.5 272.04,-935.5 272.04,-757.5 72.04,-757.5"/>
<text text-anchor="middle" x="172.04" y="-915.5" font-family="Helvetica,sans-Serif" font-size="20.00">Veterinario</text>
<polyline fill="none" stroke="black" points="72.04,-905.5 272.04,-905.5 "/>
<text text-anchor="middle" x="172.04" y="-885.5" font-family="Helvetica,sans-Serif" font-size="20.00"> </text>
<polyline fill="none" stroke="black" points="72.04,-875.5 272.04,-875.5 "/>
<text text-anchor="start" x="80.04" y="-855.5" font-family="Helvetica,sans-Serif" font-size="20.00">+ Veterinario()</text>
<text text-anchor="start" x="80.04" y="-833.5" font-family="Helvetica,sans-Serif" font-size="20.00">+ Veterinario()</text>
<text text-anchor="start" x="80.04" y="-811.5" font-family="Helvetica,sans-Serif" font-size="20.00">+ ~Veterinario()</text>
<text text-anchor="start" x="80.04" y="-789.5" font-family="Helvetica,sans-Serif" font-size="20.00">+ getCRMV()</text>
<text text-anchor="start" x="80.04" y="-767.5" font-family="Helvetica,sans-Serif" font-size="20.00">+ printOutDados()</text>
</a>
</g>
</g>
<!-- Node5&#45;&gt;Node9 -->
<g id="edge10" class="edge">
<title>Node5&#45;&gt;Node9</title>
<path fill="none" stroke="midnightblue" d="M301.23,-1120.1C272.61,-1059.71 239.36,-989.56 213.76,-935.55"/>
<polygon fill="none" stroke="midnightblue" points="298.15,-1121.78 305.6,-1129.31 304.48,-1118.78 298.15,-1121.78"/>
</g>
<!-- Node6 -->
<g id="node6" class="node">
<title>Node6</title>
<g id="a_node6"><a xlink:title=" ">
<polygon fill="white" stroke="#bfbfbf" points="230.04,-1476.5 230.04,-1566.5 304.04,-1566.5 304.04,-1476.5 230.04,-1476.5"/>
<text text-anchor="middle" x="267.04" y="-1546.5" font-family="Helvetica,sans-Serif" font-size="20.00">string</text>
<polyline fill="none" stroke="#bfbfbf" points="230.04,-1536.5 304.04,-1536.5 "/>
<text text-anchor="middle" x="267.04" y="-1516.5" font-family="Helvetica,sans-Serif" font-size="20.00"> </text>
<polyline fill="none" stroke="#bfbfbf" points="230.04,-1506.5 304.04,-1506.5 "/>
<text text-anchor="middle" x="267.04" y="-1486.5" font-family="Helvetica,sans-Serif" font-size="20.00"> </text>
</a>
</g>
</g>
<!-- Node6&#45;&gt;Node3 -->
<g id="edge8" class="edge">
<title>Node6&#45;&gt;Node3</title>
<path fill="none" stroke="#404040" d="M229.68,-1497.85C214.19,-1487.15 196.88,-1473.36 184.04,-1458 31.96,-1276.07 -22.59,-1189 9.04,-954 21.14,-864.03 15.26,-834.2 63.04,-757 99.02,-698.85 153.69,-646.68 203.79,-606.4"/>
<polygon fill="none" stroke="#404040" points="204.02,-606.22 206.23,-599.36 213.42,-598.76 211.2,-605.63 204.02,-606.22"/>
<text text-anchor="middle" x="85.04" y="-1049.5" font-family="Helvetica,sans-Serif" font-size="20.00"> #especie</text>
<text text-anchor="middle" x="85.04" y="-1027.5" font-family="Helvetica,sans-Serif" font-size="20.00">#ameacadoPor</text>
<text text-anchor="middle" x="85.04" y="-1005.5" font-family="Helvetica,sans-Serif" font-size="20.00">#nome</text>
</g>
<!-- Node6&#45;&gt;Node5 -->
<g id="edge5" class="edge">
<title>Node6&#45;&gt;Node5</title>
<path fill="none" stroke="#404040" d="M282.89,-1476.25C291.89,-1451.11 303.69,-1418.18 315.45,-1385.34"/>
<polygon fill="none" stroke="#404040" points="315.56,-1385.04 313.82,-1378.04 319.61,-1373.74 321.35,-1380.74 315.56,-1385.04"/>
<text text-anchor="middle" x="361.54" y="-1442" font-family="Helvetica,sans-Serif" font-size="20.00"> #email</text>
<text text-anchor="middle" x="361.54" y="-1420" font-family="Helvetica,sans-Serif" font-size="20.00">#nome</text>
<text text-anchor="middle" x="361.54" y="-1398" font-family="Helvetica,sans-Serif" font-size="20.00">#telefone</text>
</g>
<!-- Node6&#45;&gt;Node9 -->
<g id="edge11" class="edge">
<title>Node6&#45;&gt;Node9</title>
<path fill="none" stroke="#404040" d="M233.02,-1476.43C213.76,-1448.68 191.49,-1411.19 181.04,-1374 159.32,-1296.73 163.16,-1077.77 167.71,-947.84"/>
<polygon fill="none" stroke="#404040" points="167.72,-947.54 163.94,-941.4 168.16,-935.55 171.94,-941.69 167.72,-947.54"/>
<text text-anchor="middle" x="217.54" y="-1246.5" font-family="Helvetica,sans-Serif" font-size="20.00"> &#45;CRMV</text>
</g>
<!-- Node10 -->
<g id="node10" class="node">
<title>Node10</title>
<g id="a_node10"><a xlink:href="classExotico.html" target="_top" xlink:title="Umas das definições de categoria para Animal.">
<polygon fill="white" stroke="black" points="591.54,-954.5 591.54,-1110.5 734.54,-1110.5 734.54,-954.5 591.54,-954.5"/>
<text text-anchor="middle" x="663.04" y="-1090.5" font-family="Helvetica,sans-Serif" font-size="20.00">Exotico</text>
<polyline fill="none" stroke="black" points="591.54,-1080.5 734.54,-1080.5 "/>
<text text-anchor="middle" x="663.04" y="-1060.5" font-family="Helvetica,sans-Serif" font-size="20.00"> </text>
<polyline fill="none" stroke="black" points="591.54,-1050.5 734.54,-1050.5 "/>
<text text-anchor="start" x="599.54" y="-1030.5" font-family="Helvetica,sans-Serif" font-size="20.00">+ Exotico()</text>
<text text-anchor="start" x="599.54" y="-1008.5" font-family="Helvetica,sans-Serif" font-size="20.00">+ Exotico()</text>
<text text-anchor="start" x="599.54" y="-986.5" font-family="Helvetica,sans-Serif" font-size="20.00">+ ~Exotico()</text>
<text text-anchor="start" x="599.54" y="-964.5" font-family="Helvetica,sans-Serif" font-size="20.00">+ getLocal()</text>
</a>
</g>
</g>
<!-- Node6&#45;&gt;Node10 -->
<g id="edge14" class="edge">
<title>Node6&#45;&gt;Node10</title>
<path fill="none" stroke="#404040" d="M304.11,-1515.44C373.46,-1503.91 522.49,-1468.88 597.04,-1374 653.07,-1302.69 666.01,-1197.42 667.18,-1122.84"/>
<polygon fill="none" stroke="#404040" points="667.18,-1122.68 663.22,-1116.66 667.27,-1110.69 671.22,-1116.71 667.18,-1122.68"/>
<text text-anchor="middle" x="613.54" y="-1420" font-family="Helvetica,sans-Serif" font-size="20.00"> #local</text>
</g>
<!-- Node7 -->
<g id="node7" class="node">
<title>Node7</title>
<g id="a_node7"><a xlink:title=" ">
<polygon fill="white" stroke="#bfbfbf" points="481.54,-1206.5 481.54,-1296.5 588.54,-1296.5 588.54,-1206.5 481.54,-1206.5"/>
<text text-anchor="middle" x="535.04" y="-1276.5" font-family="Helvetica,sans-Serif" font-size="20.00">Uniforme</text>
<polyline fill="none" stroke="#bfbfbf" points="481.54,-1266.5 588.54,-1266.5 "/>
<text text-anchor="middle" x="535.04" y="-1246.5" font-family="Helvetica,sans-Serif" font-size="20.00"> </text>
<polyline fill="none" stroke="#bfbfbf" points="481.54,-1236.5 588.54,-1236.5 "/>
<text text-anchor="middle" x="535.04" y="-1216.5" font-family="Helvetica,sans-Serif" font-size="20.00"> </text>
</a>
</g>
</g>
<!-- Node7&#45;&gt;Node4 -->
<g id="edge6" class="edge">
<title>Node7&#45;&gt;Node4</title>
<path fill="none" stroke="#404040" d="M516.62,-1206.45C505.37,-1179.12 490.92,-1143.19 479.04,-1111 459.21,-1057.32 438.67,-996.88 422.33,-947.44"/>
<polygon fill="none" stroke="#404040" points="422.24,-947.16 416.56,-942.72 418.48,-935.77 424.16,-940.21 422.24,-947.16"/>
<text text-anchor="middle" x="530.54" y="-1027.5" font-family="Helvetica,sans-Serif" font-size="20.00"> &#45;uniforme</text>
</g>
<!-- Node8 -->
<g id="node8" class="node">
<title>Node8</title>
<g id="a_node8"><a xlink:title=" ">
<polygon fill="white" stroke="#bfbfbf" points="527.54,-801.5 527.54,-891.5 586.54,-891.5 586.54,-801.5 527.54,-801.5"/>
<text text-anchor="middle" x="557.04" y="-871.5" font-family="Helvetica,sans-Serif" font-size="20.00">bool</text>
<polyline fill="none" stroke="#bfbfbf" points="527.54,-861.5 586.54,-861.5 "/>
<text text-anchor="middle" x="557.04" y="-841.5" font-family="Helvetica,sans-Serif" font-size="20.00"> </text>
<polyline fill="none" stroke="#bfbfbf" points="527.54,-831.5 586.54,-831.5 "/>
<text text-anchor="middle" x="557.04" y="-811.5" font-family="Helvetica,sans-Serif" font-size="20.00"> </text>
</a>
</g>
</g>
<!-- Node8&#45;&gt;Node2 -->
<g id="edge12" class="edge">
<title>Node8&#45;&gt;Node2</title>
<path fill="none" stroke="#404040" d="M558.81,-801.46C559.55,-782.28 560.39,-759.53 561.04,-739 565.68,-591.76 569.78,-420.55 572.08,-318.82"/>
<polygon fill="none" stroke="#404040" points="572.08,-318.76 568.22,-312.67 572.35,-306.76 576.22,-312.85 572.08,-318.76"/>
<text text-anchor="middle" x="601.54" y="-516.5" font-family="Helvetica,sans-Serif" font-size="20.00"> #voa</text>
</g>
<!-- Node8&#45;&gt;Node3 -->
<g id="edge7" class="edge">
<title>Node8&#45;&gt;Node3</title>
<path fill="none" stroke="#404040" d="M535.44,-801.17C526.04,-785.52 513.77,-768.87 499.04,-757 481.62,-742.97 469.1,-753.46 452.04,-739 441.13,-729.76 430.93,-719.32 421.44,-708.16"/>
<polygon fill="none" stroke="#404040" points="421.23,-707.91 414.34,-705.8 413.63,-698.62 420.53,-700.73 421.23,-707.91"/>
<text text-anchor="middle" x="506.54" y="-723" font-family="Helvetica,sans-Serif" font-size="20.00"> #perigoso</text>
</g>
<!-- Node9&#45;&gt;Node3 -->
<g id="edge9" class="edge">
<title>Node9&#45;&gt;Node3</title>
<path fill="none" stroke="#404040" d="M177.2,-757.34C179.65,-743.55 183.13,-729.69 188.04,-717 193.41,-703.09 199.99,-689.24 207.34,-675.7"/>
<polygon fill="none" stroke="#404040" points="207.51,-675.39 206.96,-668.2 213.38,-664.92 213.94,-672.11 207.51,-675.39"/>
<text text-anchor="middle" x="253.04" y="-723" font-family="Helvetica,sans-Serif" font-size="20.00"> #veterinario</text>
</g>
<!-- Node10&#45;&gt;Node1 -->
<g id="edge13" class="edge">
<title>Node10&#45;&gt;Node1</title>
<path fill="none" stroke="midnightblue" d="M663.04,-944.15C663.04,-883.73 663.04,-801.48 663.04,-729 663.04,-729 663.04,-729 663.04,-227.5 663.04,-188.27 651.7,-145.59 640.4,-112.81"/>
<polygon fill="none" stroke="midnightblue" points="659.54,-944.41 663.04,-954.41 666.54,-944.41 659.54,-944.41"/>
</g>
</g>
</svg>
