<?xml version="1.0" encoding="UTF-8" standalone="no"?>
<!DOCTYPE svg PUBLIC "-//W3C//DTD SVG 1.1//EN"
 "http://www.w3.org/Graphics/SVG/1.1/DTD/svg11.dtd">
<!-- Generated by graphviz version 2.40.1 (20161225.0304)
 -->
<!-- Title: MamiferoNativo Pages: 1 -->
<!--zoomable 1640 -->
<svg id="main" version="1.1" xmlns="http://www.w3.org/2000/svg" xmlns:xlink="http://www.w3.org/1999/xlink" xml:space="preserve" onload="init(evt)">
<style type="text/css"><![CDATA[
.edge:hover path { stroke: red; }
.edge:hover polygon { stroke: red; fill: red; }
]]></style>
<script type="text/javascript"><![CDATA[
var edges = document.getElementsByTagName('g');
if (edges && edges.length) {
  for (var i=0;i<edges.length;i++) {
    if (edges[i].id.substr(0,4)=='edge') {
      edges[i].setAttribute('class','edge');
    }
  }
}
]]></script>
        <defs>
                <circle id="rim" cx="0" cy="0" r="7"/>
                <circle id="rim2" cx="0" cy="0" r="3.5"/>
                <g id="zoomPlus">
                        <use xlink:href="#rim" fill="#404040">
                                <set attributeName="fill" to="#808080" begin="zoomplus.mouseover" end="zoomplus.mouseout"/>
                        </use>
                        <path d="M-4,0h8M0,-4v8" fill="none" stroke="white" stroke-width="1.5" pointer-events="none"/>
                </g>
                <g id="zoomMin">
                        <use xlink:href="#rim" fill="#404040">
                                <set attributeName="fill" to="#808080" begin="zoomminus.mouseover" end="zoomminus.mouseout"/>
                        </use>
                        <path d="M-4,0h8" fill="none" stroke="white" stroke-width="1.5" pointer-events="none"/>
                </g>
                <g id="dirArrow">
                        <path fill="none" stroke="white" stroke-width="1.5" d="M0,-3.0v7 M-2.5,-0.5L0,-3.0L2.5,-0.5"/>
                </g>
               <g id="resetDef">
                       <use xlink:href="#rim2" fill="#404040">
                               <set attributeName="fill" to="#808080" begin="reset.mouseover" end="reset.mouseout"/>
                       </use>
               </g>
        </defs>

<script type="text/javascript">
var viewWidth = 833;
var viewHeight = 1640;
var sectionId = 'dynsection-1';
</script>
<script xlink:href="svgpan.js"/>
<svg id="graph" class="graph">
<g id="viewport">
<title>MamiferoNativo</title>
<polygon fill="#ffffff" stroke="transparent" points="-4,4 -4,-1636 828.5,-1636 828.5,4 -4,4"/>
<!-- Node4 -->
<g id="node1" class="node">
<title>Node4</title>
<polygon fill="#bfbfbf" stroke="#000000" points="88,-.5 88,-112.5 273,-112.5 273,-.5 88,-.5"/>
<text text-anchor="middle" x="180.5" y="-92.5" font-family="Helvetica,sans-Serif" font-size="20.00" fill="#000000">MamiferoNativo</text>
<polyline fill="none" stroke="#000000" points="88,-82.5 273,-82.5 "/>
<text text-anchor="middle" x="180.5" y="-62.5" font-family="Helvetica,sans-Serif" font-size="20.00" fill="#000000"> </text>
<polyline fill="none" stroke="#000000" points="88,-52.5 273,-52.5 "/>
<text text-anchor="start" x="96" y="-32.5" font-family="Helvetica,sans-Serif" font-size="20.00" fill="#000000">+ MamiferoNativo()</text>
<text text-anchor="start" x="96" y="-10.5" font-family="Helvetica,sans-Serif" font-size="20.00" fill="#000000">+ ~MamiferoNativo()</text>
</g>
<!-- Node5 -->
<g id="node2" class="node">
<title>Node5</title>
<g id="a_node2"><a xlink:href="classMamifero.html" target="_top" xlink:title="Classificação base para Mamiferos. ">
<polygon fill="#ffffff" stroke="#000000" points="0,-347.5 0,-481.5 147,-481.5 147,-347.5 0,-347.5"/>
<text text-anchor="middle" x="73.5" y="-461.5" font-family="Helvetica,sans-Serif" font-size="20.00" fill="#000000">Mamifero</text>
<polyline fill="none" stroke="#000000" points="0,-451.5 147,-451.5 "/>
<text text-anchor="middle" x="73.5" y="-431.5" font-family="Helvetica,sans-Serif" font-size="20.00" fill="#000000"> </text>
<polyline fill="none" stroke="#000000" points="0,-421.5 147,-421.5 "/>
<text text-anchor="start" x="8" y="-401.5" font-family="Helvetica,sans-Serif" font-size="20.00" fill="#000000">+ Mamifero()</text>
<text text-anchor="start" x="8" y="-379.5" font-family="Helvetica,sans-Serif" font-size="20.00" fill="#000000">+ ~Mamifero()</text>
<text text-anchor="start" x="8" y="-357.5" font-family="Helvetica,sans-Serif" font-size="20.00" fill="#000000">+ getGestacao()</text>
</a>
</g>
</g>
<!-- Node5&#45;&gt;Node4 -->
<g id="edge1" class="edge">
<title>Node5&#45;&gt;Node4</title>
<path fill="none" stroke="#191970" d="M96.5412,-337.4089C116.7437,-269.8154 145.6358,-173.1484 163.7174,-112.6512"/>
<polygon fill="none" stroke="#191970" points="93.1362,-336.5794 93.6259,-347.1629 99.843,-338.584 93.1362,-336.5794"/>
</g>
<!-- Node6 -->
<g id="node3" class="node">
<title>Node6</title>
<polygon fill="#ffffff" stroke="#bfbfbf" points="45,-957.5 45,-1047.5 96,-1047.5 96,-957.5 45,-957.5"/>
<text text-anchor="middle" x="70.5" y="-1027.5" font-family="Helvetica,sans-Serif" font-size="20.00" fill="#000000">bool</text>
<polyline fill="none" stroke="#bfbfbf" points="45,-1017.5 96,-1017.5 "/>
<text text-anchor="middle" x="70.5" y="-997.5" font-family="Helvetica,sans-Serif" font-size="20.00" fill="#000000"> </text>
<polyline fill="none" stroke="#bfbfbf" points="45,-987.5 96,-987.5 "/>
<text text-anchor="middle" x="70.5" y="-967.5" font-family="Helvetica,sans-Serif" font-size="20.00" fill="#000000"> </text>
</g>
<!-- Node6&#45;&gt;Node5 -->
<g id="edge2" class="edge">
<title>Node6&#45;&gt;Node5</title>
<path fill="none" stroke="#404040" d="M45.8011,-957.3221C36.9023,-938.6137 27.9598,-916.3336 23.5,-895 21.4992,-885.4291 22.9692,-882.7634 23.5,-873 30.7695,-739.2831 49.88,-584.5971 62.2579,-493.4077"/>
<polygon fill="none" stroke="#404040" points="62.258,-493.4062 59.1072,-486.9199 63.8827,-481.5167 67.0335,-488.0031 62.258,-493.4062"/>
<text text-anchor="middle" x="68" y="-879" font-family="Helvetica,sans-Serif" font-size="20.00" fill="#000000"> #gestacao</text>
</g>
<!-- Node8 -->
<g id="node5" class="node">
<title>Node8</title>
<g id="a_node5"><a xlink:href="classAnimal.html" target="_top" xlink:title="Implementação base para o cadastro de animais. ">
<polygon fill="#ffffff" stroke="#000000" points="200,-500.5 200,-854.5 385,-854.5 385,-500.5 200,-500.5"/>
<text text-anchor="middle" x="292.5" y="-834.5" font-family="Helvetica,sans-Serif" font-size="20.00" fill="#000000">Animal</text>
<polyline fill="none" stroke="#000000" points="200,-824.5 385,-824.5 "/>
<text text-anchor="middle" x="292.5" y="-804.5" font-family="Helvetica,sans-Serif" font-size="20.00" fill="#000000"> </text>
<polyline fill="none" stroke="#000000" points="200,-794.5 385,-794.5 "/>
<text text-anchor="start" x="208" y="-774.5" font-family="Helvetica,sans-Serif" font-size="20.00" fill="#000000">+ Animal()</text>
<text text-anchor="start" x="208" y="-752.5" font-family="Helvetica,sans-Serif" font-size="20.00" fill="#000000">+ Animal()</text>
<text text-anchor="start" x="208" y="-730.5" font-family="Helvetica,sans-Serif" font-size="20.00" fill="#000000">+ ~Animal()</text>
<text text-anchor="start" x="208" y="-708.5" font-family="Helvetica,sans-Serif" font-size="20.00" fill="#000000">+ getNome()</text>
<text text-anchor="start" x="208" y="-686.5" font-family="Helvetica,sans-Serif" font-size="20.00" fill="#000000">+ getEspecie()</text>
<text text-anchor="start" x="208" y="-664.5" font-family="Helvetica,sans-Serif" font-size="20.00" fill="#000000">+ getAmeacadoPor()</text>
<text text-anchor="start" x="208" y="-642.5" font-family="Helvetica,sans-Serif" font-size="20.00" fill="#000000">+ getVeterinario()</text>
<text text-anchor="start" x="208" y="-620.5" font-family="Helvetica,sans-Serif" font-size="20.00" fill="#000000">+ getTratador()</text>
<text text-anchor="start" x="208" y="-598.5" font-family="Helvetica,sans-Serif" font-size="20.00" fill="#000000">+ getPerigoso()</text>
<text text-anchor="start" x="208" y="-576.5" font-family="Helvetica,sans-Serif" font-size="20.00" fill="#000000">+ getClassificacao()</text>
<text text-anchor="start" x="208" y="-554.5" font-family="Helvetica,sans-Serif" font-size="20.00" fill="#000000">+ getClasse()</text>
<text text-anchor="start" x="208" y="-532.5" font-family="Helvetica,sans-Serif" font-size="20.00" fill="#000000">+ printOutDados()</text>
<text text-anchor="start" x="208" y="-510.5" font-family="Helvetica,sans-Serif" font-size="20.00" fill="#000000">+ operator==()</text>
</a>
</g>
</g>
<!-- Node6&#45;&gt;Node8 -->
<g id="edge9" class="edge">
<title>Node6&#45;&gt;Node8</title>
<path fill="none" stroke="#404040" d="M86.6359,-957.4554C96.718,-931.7981 110.9216,-899.5717 127.5,-873 146.2457,-842.9544 169.3212,-812.6593 192.2107,-785.1849"/>
<polygon fill="none" stroke="#404040" points="192.2315,-785.1603 193.0355,-777.9941 199.9596,-775.9801 199.1556,-783.1462 192.2315,-785.1603"/>
<text text-anchor="middle" x="170.5" y="-879" font-family="Helvetica,sans-Serif" font-size="20.00" fill="#000000"> #perigoso</text>
</g>
<!-- Node7 -->
<g id="node4" class="node">
<title>Node7</title>
<g id="a_node4"><a xlink:href="classNativo.html" target="_top" xlink:title="Umas das definições de categoria para Animal. ">
<polygon fill="#ffffff" stroke="#000000" points="226,-150.5 226,-328.5 359,-328.5 359,-150.5 226,-150.5"/>
<text text-anchor="middle" x="292.5" y="-308.5" font-family="Helvetica,sans-Serif" font-size="20.00" fill="#000000">Nativo</text>
<polyline fill="none" stroke="#000000" points="226,-298.5 359,-298.5 "/>
<text text-anchor="middle" x="292.5" y="-278.5" font-family="Helvetica,sans-Serif" font-size="20.00" fill="#000000"> </text>
<polyline fill="none" stroke="#000000" points="226,-268.5 359,-268.5 "/>
<text text-anchor="start" x="234" y="-248.5" font-family="Helvetica,sans-Serif" font-size="20.00" fill="#000000">+ Nativo()</text>
<text text-anchor="start" x="234" y="-226.5" font-family="Helvetica,sans-Serif" font-size="20.00" fill="#000000">+ Nativo()</text>
<text text-anchor="start" x="234" y="-204.5" font-family="Helvetica,sans-Serif" font-size="20.00" fill="#000000">+ ~Nativo()</text>
<text text-anchor="start" x="234" y="-182.5" font-family="Helvetica,sans-Serif" font-size="20.00" fill="#000000">+ getRegiao()</text>
<text text-anchor="start" x="234" y="-160.5" font-family="Helvetica,sans-Serif" font-size="20.00" fill="#000000">+ getLicenca()</text>
</a>
</g>
</g>
<!-- Node7&#45;&gt;Node4 -->
<g id="edge3" class="edge">
<title>Node7&#45;&gt;Node4</title>
<path fill="none" stroke="#191970" d="M232.6084,-141.6414C226.5097,-131.6766 220.4729,-121.8128 214.7891,-112.526"/>
<polygon fill="none" stroke="#191970" points="229.7709,-143.71 237.9764,-150.4123 235.7415,-140.0559 229.7709,-143.71"/>
</g>
<!-- Node8&#45;&gt;Node7 -->
<g id="edge4" class="edge">
<title>Node8&#45;&gt;Node7</title>
<path fill="none" stroke="#191970" d="M292.5,-490.2392C292.5,-434.2208 292.5,-375.3719 292.5,-328.7745"/>
<polygon fill="none" stroke="#191970" points="289.0001,-490.2956 292.5,-500.2956 296.0001,-490.2957 289.0001,-490.2956"/>
</g>
<!-- Node9 -->
<g id="node6" class="node">
<title>Node9</title>
<g id="a_node6"><a xlink:href="classTratador.html" target="_top" xlink:title="Implementação dos tratadores. ">
<polygon fill="#ffffff" stroke="#000000" points="461.5,-913.5 461.5,-1091.5 625.5,-1091.5 625.5,-913.5 461.5,-913.5"/>
<text text-anchor="middle" x="543.5" y="-1071.5" font-family="Helvetica,sans-Serif" font-size="20.00" fill="#000000">Tratador</text>
<polyline fill="none" stroke="#000000" points="461.5,-1061.5 625.5,-1061.5 "/>
<text text-anchor="middle" x="543.5" y="-1041.5" font-family="Helvetica,sans-Serif" font-size="20.00" fill="#000000"> </text>
<polyline fill="none" stroke="#000000" points="461.5,-1031.5 625.5,-1031.5 "/>
<text text-anchor="start" x="469.5" y="-1011.5" font-family="Helvetica,sans-Serif" font-size="20.00" fill="#000000">+ Tratador()</text>
<text text-anchor="start" x="469.5" y="-989.5" font-family="Helvetica,sans-Serif" font-size="20.00" fill="#000000">+ Tratador()</text>
<text text-anchor="start" x="469.5" y="-967.5" font-family="Helvetica,sans-Serif" font-size="20.00" fill="#000000">+ ~Tratador()</text>
<text text-anchor="start" x="469.5" y="-945.5" font-family="Helvetica,sans-Serif" font-size="20.00" fill="#000000">+ getUniforme()</text>
<text text-anchor="start" x="469.5" y="-923.5" font-family="Helvetica,sans-Serif" font-size="20.00" fill="#000000">+ printOutDados()</text>
</a>
</g>
</g>
<!-- Node9&#45;&gt;Node8 -->
<g id="edge5" class="edge">
<title>Node9&#45;&gt;Node8</title>
<path fill="none" stroke="#404040" d="M475.428,-913.2583C465.0843,-899.7553 454.5219,-885.9991 444.5,-873 427.7327,-851.2516 409.8698,-828.1851 392.5018,-805.8122"/>
<polygon fill="none" stroke="#404040" points="392.4535,-805.75 385.6141,-803.4645 385.0933,-796.2722 391.9327,-798.5577 392.4535,-805.75"/>
<text text-anchor="middle" x="501" y="-879" font-family="Helvetica,sans-Serif" font-size="20.00" fill="#000000"> #tratador</text>
</g>
<!-- Node10 -->
<g id="node7" class="node">
<title>Node10</title>
<g id="a_node7"><a xlink:href="classPessoa.html" target="_top" xlink:title="Classe base dos funcionarios. ">
<polygon fill="#ffffff" stroke="#000000" points="449.5,-1194.5 449.5,-1438.5 613.5,-1438.5 613.5,-1194.5 449.5,-1194.5"/>
<text text-anchor="middle" x="531.5" y="-1418.5" font-family="Helvetica,sans-Serif" font-size="20.00" fill="#000000">Pessoa</text>
<polyline fill="none" stroke="#000000" points="449.5,-1408.5 613.5,-1408.5 "/>
<text text-anchor="middle" x="531.5" y="-1388.5" font-family="Helvetica,sans-Serif" font-size="20.00" fill="#000000"> </text>
<polyline fill="none" stroke="#000000" points="449.5,-1378.5 613.5,-1378.5 "/>
<text text-anchor="start" x="457.5" y="-1358.5" font-family="Helvetica,sans-Serif" font-size="20.00" fill="#000000">+ Pessoa()</text>
<text text-anchor="start" x="457.5" y="-1336.5" font-family="Helvetica,sans-Serif" font-size="20.00" fill="#000000">+ Pessoa()</text>
<text text-anchor="start" x="457.5" y="-1314.5" font-family="Helvetica,sans-Serif" font-size="20.00" fill="#000000">+ ~Pessoa()</text>
<text text-anchor="start" x="457.5" y="-1292.5" font-family="Helvetica,sans-Serif" font-size="20.00" fill="#000000">+ getNome()</text>
<text text-anchor="start" x="457.5" y="-1270.5" font-family="Helvetica,sans-Serif" font-size="20.00" fill="#000000">+ getTelefone()</text>
<text text-anchor="start" x="457.5" y="-1248.5" font-family="Helvetica,sans-Serif" font-size="20.00" fill="#000000">+ getEmail()</text>
<text text-anchor="start" x="457.5" y="-1226.5" font-family="Helvetica,sans-Serif" font-size="20.00" fill="#000000">+ printOutDados()</text>
<text text-anchor="start" x="457.5" y="-1204.5" font-family="Helvetica,sans-Serif" font-size="20.00" fill="#000000">+ operator==()</text>
</a>
</g>
</g>
<!-- Node10&#45;&gt;Node9 -->
<g id="edge6" class="edge">
<title>Node10&#45;&gt;Node9</title>
<path fill="none" stroke="#191970" d="M536.5579,-1184.152C537.7469,-1153.0404 538.9865,-1120.6041 540.0836,-1091.8956"/>
<polygon fill="none" stroke="#191970" points="533.0584,-1184.0739 536.1739,-1194.2003 540.0533,-1184.3413 533.0584,-1184.0739"/>
</g>
<!-- Node13 -->
<g id="node10" class="node">
<title>Node13</title>
<g id="a_node10"><a xlink:href="classVeterinario.html" target="_top" xlink:title="Implementação dos veterinarios. ">
<polygon fill="#ffffff" stroke="#000000" points="279.5,-913.5 279.5,-1091.5 443.5,-1091.5 443.5,-913.5 279.5,-913.5"/>
<text text-anchor="middle" x="361.5" y="-1071.5" font-family="Helvetica,sans-Serif" font-size="20.00" fill="#000000">Veterinario</text>
<polyline fill="none" stroke="#000000" points="279.5,-1061.5 443.5,-1061.5 "/>
<text text-anchor="middle" x="361.5" y="-1041.5" font-family="Helvetica,sans-Serif" font-size="20.00" fill="#000000"> </text>
<polyline fill="none" stroke="#000000" points="279.5,-1031.5 443.5,-1031.5 "/>
<text text-anchor="start" x="287.5" y="-1011.5" font-family="Helvetica,sans-Serif" font-size="20.00" fill="#000000">+ Veterinario()</text>
<text text-anchor="start" x="287.5" y="-989.5" font-family="Helvetica,sans-Serif" font-size="20.00" fill="#000000">+ Veterinario()</text>
<text text-anchor="start" x="287.5" y="-967.5" font-family="Helvetica,sans-Serif" font-size="20.00" fill="#000000">+ ~Veterinario()</text>
<text text-anchor="start" x="287.5" y="-945.5" font-family="Helvetica,sans-Serif" font-size="20.00" fill="#000000">+ getCRMV()</text>
<text text-anchor="start" x="287.5" y="-923.5" font-family="Helvetica,sans-Serif" font-size="20.00" fill="#000000">+ printOutDados()</text>
</a>
</g>
</g>
<!-- Node10&#45;&gt;Node13 -->
<g id="edge12" class="edge">
<title>Node10&#45;&gt;Node13</title>
<path fill="none" stroke="#191970" d="M460.5025,-1185.3635C443.4592,-1153.8835 425.6436,-1120.9769 409.8989,-1091.8956"/>
<polygon fill="none" stroke="#191970" points="457.4478,-1187.0728 465.2868,-1194.2003 463.6036,-1183.74 457.4478,-1187.0728"/>
</g>
<!-- Node11 -->
<g id="node8" class="node">
<title>Node11</title>
<polygon fill="#ffffff" stroke="#bfbfbf" points="416.5,-1541.5 416.5,-1631.5 480.5,-1631.5 480.5,-1541.5 416.5,-1541.5"/>
<text text-anchor="middle" x="448.5" y="-1611.5" font-family="Helvetica,sans-Serif" font-size="20.00" fill="#000000">string</text>
<polyline fill="none" stroke="#bfbfbf" points="416.5,-1601.5 480.5,-1601.5 "/>
<text text-anchor="middle" x="448.5" y="-1581.5" font-family="Helvetica,sans-Serif" font-size="20.00" fill="#000000"> </text>
<polyline fill="none" stroke="#bfbfbf" points="416.5,-1571.5 480.5,-1571.5 "/>
<text text-anchor="middle" x="448.5" y="-1551.5" font-family="Helvetica,sans-Serif" font-size="20.00" fill="#000000"> </text>
</g>
<!-- Node11&#45;&gt;Node7 -->
<g id="edge14" class="edge">
<title>Node11&#45;&gt;Node7</title>
<path fill="none" stroke="#404040" d="M480.7369,-1579.8108C540.9666,-1565.4966 670.1121,-1525.869 732.5,-1439 764.639,-1394.2497 751.5,-1371.5954 751.5,-1316.5 751.5,-1316.5 751.5,-1316.5 751.5,-677.5 751.5,-469.3307 501.3398,-329.8079 370.3803,-271.0299"/>
<polygon fill="none" stroke="#404040" points="370.2144,-270.9564 363.1085,-272.1838 359.2425,-266.0965 366.3484,-264.8692 370.2144,-270.9564"/>
<text text-anchor="middle" x="788" y="-1008.5" font-family="Helvetica,sans-Serif" font-size="20.00" fill="#000000"> #licenca</text>
<text text-anchor="middle" x="788" y="-986.5" font-family="Helvetica,sans-Serif" font-size="20.00" fill="#000000">#regiao</text>
</g>
<!-- Node11&#45;&gt;Node8 -->
<g id="edge10" class="edge">
<title>Node11&#45;&gt;Node8</title>
<path fill="none" stroke="#404040" d="M416.4544,-1563.5358C402.7658,-1552.4882 387.4537,-1538.3206 376.5,-1523 279.3865,-1387.1712 265.1291,-1339.7554 232.5,-1176 212.3053,-1074.6487 223.6829,-960.259 241.7214,-866.6435"/>
<polygon fill="none" stroke="#404040" points="241.7456,-866.521 238.9839,-859.8597 244.0706,-854.7483 246.8323,-861.4097 241.7456,-866.521"/>
<text text-anchor="middle" x="294" y="-1160" font-family="Helvetica,sans-Serif" font-size="20.00" fill="#000000"> #especie</text>
<text text-anchor="middle" x="294" y="-1138" font-family="Helvetica,sans-Serif" font-size="20.00" fill="#000000">#ameacadoPor</text>
<text text-anchor="middle" x="294" y="-1116" font-family="Helvetica,sans-Serif" font-size="20.00" fill="#000000">#nome</text>
</g>
<!-- Node11&#45;&gt;Node10 -->
<g id="edge7" class="edge">
<title>Node11&#45;&gt;Node10</title>
<path fill="none" stroke="#404040" d="M462.3923,-1541.3081C470.1532,-1516.0618 480.2716,-1483.1466 490.3615,-1450.3241"/>
<polygon fill="none" stroke="#404040" points="490.3992,-1450.2012 488.3388,-1443.2907 493.9253,-1438.731 495.9857,-1445.6415 490.3992,-1450.2012"/>
<text text-anchor="middle" x="526" y="-1507" font-family="Helvetica,sans-Serif" font-size="20.00" fill="#000000"> #email</text>
<text text-anchor="middle" x="526" y="-1485" font-family="Helvetica,sans-Serif" font-size="20.00" fill="#000000">#nome</text>
<text text-anchor="middle" x="526" y="-1463" font-family="Helvetica,sans-Serif" font-size="20.00" fill="#000000">#telefone</text>
</g>
<!-- Node11&#45;&gt;Node13 -->
<g id="edge13" class="edge">
<title>Node11&#45;&gt;Node13</title>
<path fill="none" stroke="#404040" d="M419.374,-1541.3693C402.8523,-1513.1593 383.6903,-1475.3884 374.5,-1439 359.1043,-1378.0417 358.201,-1212.8494 359.4738,-1104.0732"/>
<polygon fill="none" stroke="#404040" points="359.4777,-1103.7563 355.5541,-1097.706 359.6299,-1091.7573 363.5535,-1097.8075 359.4777,-1103.7563"/>
<text text-anchor="middle" x="407.5" y="-1311.5" font-family="Helvetica,sans-Serif" font-size="20.00" fill="#000000"> &#45;CRMV</text>
</g>
<!-- Node12 -->
<g id="node9" class="node">
<title>Node12</title>
<polygon fill="#ffffff" stroke="#bfbfbf" points="631.5,-1271.5 631.5,-1361.5 723.5,-1361.5 723.5,-1271.5 631.5,-1271.5"/>
<text text-anchor="middle" x="677.5" y="-1341.5" font-family="Helvetica,sans-Serif" font-size="20.00" fill="#000000">Uniforme</text>
<polyline fill="none" stroke="#bfbfbf" points="631.5,-1331.5 723.5,-1331.5 "/>
<text text-anchor="middle" x="677.5" y="-1311.5" font-family="Helvetica,sans-Serif" font-size="20.00" fill="#000000"> </text>
<polyline fill="none" stroke="#bfbfbf" points="631.5,-1301.5 723.5,-1301.5 "/>
<text text-anchor="middle" x="677.5" y="-1281.5" font-family="Helvetica,sans-Serif" font-size="20.00" fill="#000000"> </text>
</g>
<!-- Node12&#45;&gt;Node9 -->
<g id="edge8" class="edge">
<title>Node12&#45;&gt;Node9</title>
<path fill="none" stroke="#404040" d="M658.1584,-1271.177C639.4387,-1227.3115 610.4277,-1159.3307 586.2722,-1102.7275"/>
<polygon fill="none" stroke="#404040" points="586.2205,-1102.606 580.1864,-1098.6576 581.5104,-1091.569 587.5444,-1095.5175 586.2205,-1102.606"/>
<text text-anchor="middle" x="656.5" y="-1138" font-family="Helvetica,sans-Serif" font-size="20.00" fill="#000000"> &#45;uniforme</text>
</g>
<!-- Node13&#45;&gt;Node8 -->
<g id="edge11" class="edge">
<title>Node13&#45;&gt;Node8</title>
<path fill="none" stroke="#404040" d="M342.5542,-913.2624C339.408,-898.4435 336.0436,-882.5965 332.6027,-866.3897"/>
<polygon fill="none" stroke="#404040" points="332.578,-866.273 327.4191,-861.2345 330.0858,-854.5346 335.2447,-859.573 332.578,-866.273"/>
<text text-anchor="middle" x="389" y="-879" font-family="Helvetica,sans-Serif" font-size="20.00" fill="#000000"> #veterinario</text>
</g>
</g>
</svg>
        <g id="navigator" transform="translate(0 0)" fill="#404254">
                <rect fill="#f2f5e9" fill-opacity="0.5" stroke="#606060" stroke-width=".5" x="0" y="0" width="60" height="60"/>
                <use id="zoomplus" xlink:href="#zoomPlus" x="17" y="9" onmousedown="handleZoom(evt,'in')"/>
                <use id="zoomminus" xlink:href="#zoomMin" x="42" y="9" onmousedown="handleZoom(evt,'out')"/>
                <use id="reset" xlink:href="#resetDef" x="30" y="36" onmousedown="handleReset()"/>
                <g id="arrowUp" xlink:href="#dirArrow" transform="translate(30 24)" onmousedown="handlePan(0,-1)">
                  <use xlink:href="#rim" fill="#404040">
                        <set attributeName="fill" to="#808080" begin="arrowUp.mouseover" end="arrowUp.mouseout"/>
                  </use>
                  <path fill="none" stroke="white" stroke-width="1.5" d="M0,-3.0v7 M-2.5,-0.5L0,-3.0L2.5,-0.5"/>
                </g>
                <g id="arrowRight" xlink:href="#dirArrow" transform="rotate(90) translate(36 -43)" onmousedown="handlePan(1,0)">
                  <use xlink:href="#rim" fill="#404040">
                        <set attributeName="fill" to="#808080" begin="arrowRight.mouseover" end="arrowRight.mouseout"/>
                  </use>
                  <path fill="none" stroke="white" stroke-width="1.5" d="M0,-3.0v7 M-2.5,-0.5L0,-3.0L2.5,-0.5"/>
                </g>
                <g id="arrowDown" xlink:href="#dirArrow" transform="rotate(180) translate(-30 -48)" onmousedown="handlePan(0,1)">
                  <use xlink:href="#rim" fill="#404040">
                        <set attributeName="fill" to="#808080" begin="arrowDown.mouseover" end="arrowDown.mouseout"/>
                  </use>
                  <path fill="none" stroke="white" stroke-width="1.5" d="M0,-3.0v7 M-2.5,-0.5L0,-3.0L2.5,-0.5"/>
                </g>
                <g id="arrowLeft" xlink:href="#dirArrow" transform="rotate(270) translate(-36 17)" onmousedown="handlePan(-1,0)">
                  <use xlink:href="#rim" fill="#404040">
                        <set attributeName="fill" to="#808080" begin="arrowLeft.mouseover" end="arrowLeft.mouseout"/>
                  </use>
                  <path fill="none" stroke="white" stroke-width="1.5" d="M0,-3.0v7 M-2.5,-0.5L0,-3.0L2.5,-0.5"/>
                </g>
        </g>
        <svg viewBox="0 0 15 15" width="100%" height="30px" preserveAspectRatio="xMaxYMin meet">
         <g id="arrow_out" transform="scale(0.3 0.3)">
          <a xlink:href="classMamiferoNativo__coll__graph_org.svg" target="_base">
           <rect id="button" ry="5" rx="5" y="6" x="6" height="38" width="38"
                fill="#f2f5e9" fill-opacity="0.5" stroke="#606060" stroke-width="1.0"/>
           <path id="arrow"
             d="M 11.500037,31.436501 C 11.940474,20.09759 22.043105,11.32322 32.158766,21.979434 L 37.068811,17.246167 C 37.068811,17.246167 37.088388,32 37.088388,32 L 22.160133,31.978069 C 22.160133,31.978069 26.997745,27.140456 26.997745,27.140456 C 18.528582,18.264221 13.291696,25.230495 11.500037,31.436501 z"
             style="fill:#404040;"/>
          </a>
         </g>
        </svg>
</svg>
