<?xml version="1.0" encoding="UTF-8" standalone="no"?>
<!DOCTYPE svg PUBLIC "-//W3C//DTD SVG 1.1//EN"
 "http://www.w3.org/Graphics/SVG/1.1/DTD/svg11.dtd">
<!-- Generated by graphviz version 2.43.0 (0)
 -->
<!-- Title: AnfibioDomestico Pages: 1 -->
<svg width="969pt" height="1254pt"
 viewBox="0.00 0.00 968.50 1254.00" xmlns="http://www.w3.org/2000/svg" xmlns:xlink="http://www.w3.org/1999/xlink">
<g id="graph0" class="graph" transform="scale(1 1) rotate(0) translate(4 1250)">
<title>AnfibioDomestico</title>
<polygon fill="white" stroke="transparent" points="-4,4 -4,-1250 964.5,-1250 964.5,4 -4,4"/>
<!-- Node1 -->
<g id="node1" class="node">
<title>Node1</title>
<g id="a_node1"><a xlink:title="Implementação de animal com Classe e Categoria.">
<polygon fill="#bfbfbf" stroke="black" points="689,-0.5 689,-134.5 934,-134.5 934,-0.5 689,-0.5"/>
<text text-anchor="middle" x="811.5" y="-114.5" font-family="Helvetica,sans-Serif" font-size="20.00">AnfibioDomestico</text>
<polyline fill="none" stroke="black" points="689,-104.5 934,-104.5 "/>
<text text-anchor="middle" x="811.5" y="-84.5" font-family="Helvetica,sans-Serif" font-size="20.00"> </text>
<polyline fill="none" stroke="black" points="689,-74.5 934,-74.5 "/>
<text text-anchor="start" x="697" y="-54.5" font-family="Helvetica,sans-Serif" font-size="20.00">+ AnfibioDomestico()</text>
<text text-anchor="start" x="697" y="-32.5" font-family="Helvetica,sans-Serif" font-size="20.00">+ AnfibioDomestico()</text>
<text text-anchor="start" x="697" y="-10.5" font-family="Helvetica,sans-Serif" font-size="20.00">+ ~AnfibioDomestico()</text>
</a>
</g>
</g>
<!-- Node2 -->
<g id="node2" class="node">
<title>Node2</title>
<g id="a_node2"><a xlink:href="classAnfibio.html" target="_top" xlink:title="Classificação base para Anfibios.">
<polygon fill="white" stroke="black" points="682.5,-172.5 682.5,-438.5 832.5,-438.5 832.5,-172.5 682.5,-172.5"/>
<text text-anchor="middle" x="757.5" y="-418.5" font-family="Helvetica,sans-Serif" font-size="20.00">Anfibio</text>
<polyline fill="none" stroke="black" points="682.5,-408.5 832.5,-408.5 "/>
<text text-anchor="middle" x="757.5" y="-388.5" font-family="Helvetica,sans-Serif" font-size="20.00"> </text>
<polyline fill="none" stroke="black" points="682.5,-378.5 832.5,-378.5 "/>
<text text-anchor="start" x="690.5" y="-358.5" font-family="Helvetica,sans-Serif" font-size="20.00">+ Anfibio()</text>
<text text-anchor="start" x="690.5" y="-336.5" font-family="Helvetica,sans-Serif" font-size="20.00">+ Anfibio()</text>
<text text-anchor="start" x="690.5" y="-314.5" font-family="Helvetica,sans-Serif" font-size="20.00">+ ~Anfibio()</text>
<text text-anchor="start" x="690.5" y="-292.5" font-family="Helvetica,sans-Serif" font-size="20.00">+ getCauda()</text>
<text text-anchor="start" x="690.5" y="-270.5" font-family="Helvetica,sans-Serif" font-size="20.00">+ setCauda()</text>
<text text-anchor="start" x="690.5" y="-248.5" font-family="Helvetica,sans-Serif" font-size="20.00">+ setCauda()</text>
<text text-anchor="start" x="690.5" y="-226.5" font-family="Helvetica,sans-Serif" font-size="20.00">+ getPata()</text>
<text text-anchor="start" x="690.5" y="-204.5" font-family="Helvetica,sans-Serif" font-size="20.00">+ setPata()</text>
<text text-anchor="start" x="690.5" y="-182.5" font-family="Helvetica,sans-Serif" font-size="20.00">+ setPata()</text>
</a>
</g>
</g>
<!-- Node2&#45;&gt;Node1 -->
<g id="edge1" class="edge">
<title>Node2&#45;&gt;Node1</title>
<path fill="none" stroke="midnightblue" d="M790.03,-162.31C792.22,-152.74 794.36,-143.39 796.39,-134.53"/>
<polygon fill="none" stroke="midnightblue" points="786.55,-161.83 787.74,-172.36 793.38,-163.39 786.55,-161.83"/>
</g>
<!-- Node3 -->
<g id="node3" class="node">
<title>Node3</title>
<g id="a_node3"><a xlink:href="classAnimal.html" target="_top" xlink:title="Implementação base para o cadastro de animais.">
<polygon fill="white" stroke="black" points="396,-676.5 396,-1052.5 619,-1052.5 619,-676.5 396,-676.5"/>
<text text-anchor="middle" x="507.5" y="-1032.5" font-family="Helvetica,sans-Serif" font-size="20.00">Animal</text>
<polyline fill="none" stroke="black" points="396,-1022.5 619,-1022.5 "/>
<text text-anchor="middle" x="507.5" y="-1002.5" font-family="Helvetica,sans-Serif" font-size="20.00"> </text>
<polyline fill="none" stroke="black" points="396,-992.5 619,-992.5 "/>
<text text-anchor="start" x="404" y="-972.5" font-family="Helvetica,sans-Serif" font-size="20.00">+ Animal()</text>
<text text-anchor="start" x="404" y="-950.5" font-family="Helvetica,sans-Serif" font-size="20.00">+ Animal()</text>
<text text-anchor="start" x="404" y="-928.5" font-family="Helvetica,sans-Serif" font-size="20.00">+ ~Animal()</text>
<text text-anchor="start" x="404" y="-906.5" font-family="Helvetica,sans-Serif" font-size="20.00">+ getNome()</text>
<text text-anchor="start" x="404" y="-884.5" font-family="Helvetica,sans-Serif" font-size="20.00">+ getEspecie()</text>
<text text-anchor="start" x="404" y="-862.5" font-family="Helvetica,sans-Serif" font-size="20.00">+ getAmeacadoPor()</text>
<text text-anchor="start" x="404" y="-840.5" font-family="Helvetica,sans-Serif" font-size="20.00">+ getVeterinario()</text>
<text text-anchor="start" x="404" y="-818.5" font-family="Helvetica,sans-Serif" font-size="20.00">+ getTratador()</text>
<text text-anchor="start" x="404" y="-796.5" font-family="Helvetica,sans-Serif" font-size="20.00">+ getPerigoso()</text>
<text text-anchor="start" x="404" y="-774.5" font-family="Helvetica,sans-Serif" font-size="20.00">+ setNome()</text>
<text text-anchor="start" x="404" y="-752.5" font-family="Helvetica,sans-Serif" font-size="20.00">e 13 mais...</text>
<text text-anchor="start" x="404" y="-730.5" font-family="Helvetica,sans-Serif" font-size="20.00">+ getClassificacao()</text>
<text text-anchor="start" x="404" y="-708.5" font-family="Helvetica,sans-Serif" font-size="20.00">+ getClasse()</text>
<text text-anchor="start" x="404" y="-686.5" font-family="Helvetica,sans-Serif" font-size="20.00">+ printOutDetails()</text>
</a>
</g>
</g>
<!-- Node3&#45;&gt;Node2 -->
<g id="edge2" class="edge">
<title>Node3&#45;&gt;Node2</title>
<path fill="none" stroke="midnightblue" d="M595.57,-667.28C629.58,-591.5 667.6,-506.79 698.25,-438.5"/>
<polygon fill="none" stroke="midnightblue" points="592.34,-665.92 591.44,-676.48 598.73,-668.79 592.34,-665.92"/>
</g>
<!-- Node4 -->
<g id="node4" class="node">
<title>Node4</title>
<g id="a_node4"><a xlink:title=" ">
<polygon fill="white" stroke="#bfbfbf" points="0,-1155.5 0,-1245.5 275,-1245.5 275,-1155.5 0,-1155.5"/>
<text text-anchor="middle" x="137.5" y="-1225.5" font-family="Helvetica,sans-Serif" font-size="20.00">shared_ptr&lt; Veterinario &gt;</text>
<polyline fill="none" stroke="#bfbfbf" points="0,-1215.5 275,-1215.5 "/>
<text text-anchor="middle" x="137.5" y="-1195.5" font-family="Helvetica,sans-Serif" font-size="20.00"> </text>
<polyline fill="none" stroke="#bfbfbf" points="0,-1185.5 275,-1185.5 "/>
<text text-anchor="middle" x="137.5" y="-1165.5" font-family="Helvetica,sans-Serif" font-size="20.00"> </text>
</a>
</g>
</g>
<!-- Node4&#45;&gt;Node3 -->
<g id="edge3" class="edge">
<title>Node4&#45;&gt;Node3</title>
<path fill="none" stroke="#404040" d="M152.45,-1155.34C162.96,-1128.83 179,-1095.6 200.5,-1071 251.88,-1012.23 323.79,-962.89 385.11,-927.3"/>
<polygon fill="none" stroke="#404040" points="385.22,-927.23 388.44,-920.78 395.63,-921.26 392.42,-927.72 385.22,-927.23"/>
<text text-anchor="middle" x="265.5" y="-1099" font-family="Helvetica,sans-Serif" font-size="20.00"> #veterinario</text>
</g>
<!-- Node5 -->
<g id="node5" class="node">
<title>Node5</title>
<g id="a_node5"><a xlink:title=" ">
<polygon fill="white" stroke="#bfbfbf" points="728,-1155.5 728,-1245.5 787,-1245.5 787,-1155.5 728,-1155.5"/>
<text text-anchor="middle" x="757.5" y="-1225.5" font-family="Helvetica,sans-Serif" font-size="20.00">bool</text>
<polyline fill="none" stroke="#bfbfbf" points="728,-1215.5 787,-1215.5 "/>
<text text-anchor="middle" x="757.5" y="-1195.5" font-family="Helvetica,sans-Serif" font-size="20.00"> </text>
<polyline fill="none" stroke="#bfbfbf" points="728,-1185.5 787,-1185.5 "/>
<text text-anchor="middle" x="757.5" y="-1165.5" font-family="Helvetica,sans-Serif" font-size="20.00"> </text>
</a>
</g>
</g>
<!-- Node5&#45;&gt;Node2 -->
<g id="edge7" class="edge">
<title>Node5&#45;&gt;Node2</title>
<path fill="none" stroke="#404040" d="M757.5,-1155.22C757.5,-1028.06 757.5,-657.73 757.5,-450.75"/>
<polygon fill="none" stroke="#404040" points="757.5,-450.57 753.5,-444.57 757.5,-438.57 761.5,-444.57 757.5,-450.57"/>
<text text-anchor="middle" x="796.5" y="-870.5" font-family="Helvetica,sans-Serif" font-size="20.00"> #pata</text>
<text text-anchor="middle" x="796.5" y="-848.5" font-family="Helvetica,sans-Serif" font-size="20.00">#cauda</text>
</g>
<!-- Node5&#45;&gt;Node3 -->
<g id="edge4" class="edge">
<title>Node5&#45;&gt;Node3</title>
<path fill="none" stroke="#404040" d="M727.91,-1191.48C700.16,-1182.52 659.32,-1165.41 634.5,-1137 614.06,-1113.61 623.65,-1099.59 611.5,-1071 610.49,-1068.63 609.47,-1066.25 608.43,-1063.85"/>
<polygon fill="none" stroke="#404040" points="608.32,-1063.59 602.24,-1059.71 603.48,-1052.61 609.56,-1056.49 608.32,-1063.59"/>
<text text-anchor="middle" x="689" y="-1099" font-family="Helvetica,sans-Serif" font-size="20.00"> #perigoso</text>
</g>
<!-- Node8 -->
<g id="node8" class="node">
<title>Node8</title>
<g id="a_node8"><a xlink:href="classDomestico.html" target="_top" xlink:title="Umas das definições de categoria para Animal.">
<polygon fill="white" stroke="black" points="772.5,-457.5 772.5,-657.5 960.5,-657.5 960.5,-457.5 772.5,-457.5"/>
<text text-anchor="middle" x="866.5" y="-637.5" font-family="Helvetica,sans-Serif" font-size="20.00">Domestico</text>
<polyline fill="none" stroke="black" points="772.5,-627.5 960.5,-627.5 "/>
<text text-anchor="middle" x="866.5" y="-607.5" font-family="Helvetica,sans-Serif" font-size="20.00"> </text>
<polyline fill="none" stroke="black" points="772.5,-597.5 960.5,-597.5 "/>
<text text-anchor="start" x="780.5" y="-577.5" font-family="Helvetica,sans-Serif" font-size="20.00">+ Domestico()</text>
<text text-anchor="start" x="780.5" y="-555.5" font-family="Helvetica,sans-Serif" font-size="20.00">+ Domestico()</text>
<text text-anchor="start" x="780.5" y="-533.5" font-family="Helvetica,sans-Serif" font-size="20.00">+ ~Domestico()</text>
<text text-anchor="start" x="780.5" y="-511.5" font-family="Helvetica,sans-Serif" font-size="20.00">+ getAdestrado()</text>
<text text-anchor="start" x="780.5" y="-489.5" font-family="Helvetica,sans-Serif" font-size="20.00">+ setAdestrado()</text>
<text text-anchor="start" x="780.5" y="-467.5" font-family="Helvetica,sans-Serif" font-size="20.00">+ setAdestrado()</text>
</a>
</g>
</g>
<!-- Node5&#45;&gt;Node8 -->
<g id="edge9" class="edge">
<title>Node5&#45;&gt;Node8</title>
<path fill="none" stroke="#404040" d="M787.17,-1158.51C805.84,-1130.32 828.41,-1091.21 839.5,-1053 876.51,-925.45 878.69,-771.78 874.59,-669.96"/>
<polygon fill="none" stroke="#404040" points="874.59,-669.79 870.33,-663.97 874.06,-657.8 878.32,-663.62 874.59,-669.79"/>
<text text-anchor="middle" x="894" y="-1099" font-family="Helvetica,sans-Serif" font-size="20.00"> #adestrado</text>
</g>
<!-- Node6 -->
<g id="node6" class="node">
<title>Node6</title>
<g id="a_node6"><a xlink:title=" ">
<polygon fill="white" stroke="#bfbfbf" points="293.5,-1155.5 293.5,-1245.5 367.5,-1245.5 367.5,-1155.5 293.5,-1155.5"/>
<text text-anchor="middle" x="330.5" y="-1225.5" font-family="Helvetica,sans-Serif" font-size="20.00">string</text>
<polyline fill="none" stroke="#bfbfbf" points="293.5,-1215.5 367.5,-1215.5 "/>
<text text-anchor="middle" x="330.5" y="-1195.5" font-family="Helvetica,sans-Serif" font-size="20.00"> </text>
<polyline fill="none" stroke="#bfbfbf" points="293.5,-1185.5 367.5,-1185.5 "/>
<text text-anchor="middle" x="330.5" y="-1165.5" font-family="Helvetica,sans-Serif" font-size="20.00"> </text>
</a>
</g>
</g>
<!-- Node6&#45;&gt;Node3 -->
<g id="edge5" class="edge">
<title>Node6&#45;&gt;Node3</title>
<path fill="none" stroke="#404040" d="M332.41,-1155.49C334.79,-1129.96 340.04,-1097.69 351.5,-1071 361.46,-1047.82 374.58,-1024.89 389.01,-1003.22"/>
<polygon fill="none" stroke="#404040" points="389.19,-1002.94 389.26,-995.73 395.95,-993.02 395.88,-1000.24 389.19,-1002.94"/>
<text text-anchor="middle" x="427.5" y="-1121" font-family="Helvetica,sans-Serif" font-size="20.00"> #especie</text>
<text text-anchor="middle" x="427.5" y="-1099" font-family="Helvetica,sans-Serif" font-size="20.00">#ameacadoPor</text>
<text text-anchor="middle" x="427.5" y="-1077" font-family="Helvetica,sans-Serif" font-size="20.00">#nome</text>
</g>
<!-- Node7 -->
<g id="node7" class="node">
<title>Node7</title>
<g id="a_node7"><a xlink:title=" ">
<polygon fill="white" stroke="#bfbfbf" points="386,-1155.5 386,-1245.5 635,-1245.5 635,-1155.5 386,-1155.5"/>
<text text-anchor="middle" x="510.5" y="-1225.5" font-family="Helvetica,sans-Serif" font-size="20.00">shared_ptr&lt; Tratador &gt;</text>
<polyline fill="none" stroke="#bfbfbf" points="386,-1215.5 635,-1215.5 "/>
<text text-anchor="middle" x="510.5" y="-1195.5" font-family="Helvetica,sans-Serif" font-size="20.00"> </text>
<polyline fill="none" stroke="#bfbfbf" points="386,-1185.5 635,-1185.5 "/>
<text text-anchor="middle" x="510.5" y="-1165.5" font-family="Helvetica,sans-Serif" font-size="20.00"> </text>
</a>
</g>
</g>
<!-- Node7&#45;&gt;Node3 -->
<g id="edge6" class="edge">
<title>Node7&#45;&gt;Node3</title>
<path fill="none" stroke="#404040" d="M508.93,-1155.46C508.76,-1149.26 508.61,-1142.97 508.5,-1137 508.08,-1113.72 507.79,-1089.31 507.59,-1065.08"/>
<polygon fill="none" stroke="#404040" points="507.59,-1064.82 503.54,-1058.85 507.5,-1052.82 511.54,-1058.79 507.59,-1064.82"/>
<text text-anchor="middle" x="560" y="-1099" font-family="Helvetica,sans-Serif" font-size="20.00"> #tratador</text>
</g>
<!-- Node8&#45;&gt;Node1 -->
<g id="edge8" class="edge">
<title>Node8&#45;&gt;Node1</title>
<path fill="none" stroke="midnightblue" d="M865.69,-447.17C863.59,-369.81 857.61,-263.91 841.5,-172 839.35,-159.75 836.3,-146.87 832.95,-134.53"/>
<polygon fill="none" stroke="midnightblue" points="862.2,-447.51 865.95,-457.42 869.19,-447.33 862.2,-447.51"/>
</g>
</g>
</svg>
