<?xml version="1.0" encoding="UTF-8" standalone="no"?>
<!DOCTYPE svg PUBLIC "-//W3C//DTD SVG 1.1//EN"
 "http://www.w3.org/Graphics/SVG/1.1/DTD/svg11.dtd">
<!-- Generated by graphviz version 2.43.0 (0)
 -->
<!-- Title: MapeadorAnimal Pages: 1 -->
<svg width="286pt" height="270pt"
 viewBox="0.00 0.00 286.00 270.00" xmlns="http://www.w3.org/2000/svg" xmlns:xlink="http://www.w3.org/1999/xlink">
<g id="graph0" class="graph" transform="scale(1 1) rotate(0) translate(4 266)">
<title>MapeadorAnimal</title>
<polygon fill="white" stroke="transparent" points="-4,4 -4,-266 282,-266 282,4 -4,4"/>
<!-- Node1 -->
<g id="node1" class="node">
<title>Node1</title>
<g id="a_node1"><a xlink:title="Mapeador de animais.">
<polygon fill="#bfbfbf" stroke="black" points="28.5,-0.5 28.5,-90.5 249.5,-90.5 249.5,-0.5 28.5,-0.5"/>
<text text-anchor="middle" x="139" y="-70.5" font-family="Helvetica,sans-Serif" font-size="20.00">MapeadorAnimal</text>
<polyline fill="none" stroke="black" points="28.5,-60.5 249.5,-60.5 "/>
<text text-anchor="middle" x="139" y="-40.5" font-family="Helvetica,sans-Serif" font-size="20.00"> </text>
<polyline fill="none" stroke="black" points="28.5,-30.5 249.5,-30.5 "/>
<text text-anchor="start" x="36.5" y="-10.5" font-family="Helvetica,sans-Serif" font-size="20.00">+ MapeadorAnimal()</text>
</a>
</g>
</g>
<!-- Node2 -->
<g id="node2" class="node">
<title>Node2</title>
<g id="a_node2"><a xlink:title=" ">
<polygon fill="white" stroke="#bfbfbf" points="0,-149.5 0,-261.5 278,-261.5 278,-149.5 0,-149.5"/>
<text text-anchor="start" x="8" y="-241.5" font-family="Helvetica,sans-Serif" font-size="20.00">map&lt; string, std::function</text>
<text text-anchor="middle" x="139" y="-219.5" font-family="Helvetica,sans-Serif" font-size="20.00">&lt; Animal *()&gt; &gt;</text>
<polyline fill="none" stroke="#bfbfbf" points="0,-209.5 278,-209.5 "/>
<text text-anchor="middle" x="139" y="-189.5" font-family="Helvetica,sans-Serif" font-size="20.00"> </text>
<polyline fill="none" stroke="#bfbfbf" points="0,-179.5 278,-179.5 "/>
<text text-anchor="middle" x="139" y="-159.5" font-family="Helvetica,sans-Serif" font-size="20.00"> </text>
</a>
</g>
</g>
<!-- Node2&#45;&gt;Node1 -->
<g id="edge1" class="edge">
<title>Node2&#45;&gt;Node1</title>
<path fill="none" stroke="#404040" d="M139,-149.24C139,-134.22 139,-117.94 139,-102.87"/>
<polygon fill="none" stroke="#404040" points="139,-102.54 135,-96.54 139,-90.54 143,-96.54 139,-102.54"/>
<text text-anchor="middle" x="177.5" y="-115" font-family="Helvetica,sans-Serif" font-size="20.00"> +aMap</text>
</g>
</g>
</svg>
