<?xml version="1.0" encoding="UTF-8" standalone="no"?>
<!DOCTYPE svg PUBLIC "-//W3C//DTD SVG 1.1//EN"
 "http://www.w3.org/Graphics/SVG/1.1/DTD/svg11.dtd">
<!-- Generated by graphviz version 2.43.0 (0)
 -->
<!-- Title: MamiferoNativo Pages: 1 -->
<svg width="811pt" height="1971pt"
 viewBox="0.00 0.00 811.20 1971.00" xmlns="http://www.w3.org/2000/svg" xmlns:xlink="http://www.w3.org/1999/xlink">
<g id="graph0" class="graph" transform="scale(1 1) rotate(0) translate(4 1967)">
<title>MamiferoNativo</title>
<polygon fill="white" stroke="transparent" points="-4,4 -4,-1967 807.2,-1967 807.2,4 -4,4"/>
<!-- Node1 -->
<g id="node1" class="node">
<title>Node1</title>
<g id="a_node1"><a xlink:title="Implementação de animal com Classe e Categoria.">
<polygon fill="#bfbfbf" stroke="black" points="537.7,-0.5 537.7,-134.5 764.7,-134.5 764.7,-0.5 537.7,-0.5"/>
<text text-anchor="middle" x="651.2" y="-114.5" font-family="Helvetica,sans-Serif" font-size="20.00">MamiferoNativo</text>
<polyline fill="none" stroke="black" points="537.7,-104.5 764.7,-104.5 "/>
<text text-anchor="middle" x="651.2" y="-84.5" font-family="Helvetica,sans-Serif" font-size="20.00"> </text>
<polyline fill="none" stroke="black" points="537.7,-74.5 764.7,-74.5 "/>
<text text-anchor="start" x="545.7" y="-54.5" font-family="Helvetica,sans-Serif" font-size="20.00">+ MamiferoNativo()</text>
<text text-anchor="start" x="545.7" y="-32.5" font-family="Helvetica,sans-Serif" font-size="20.00">+ MamiferoNativo()</text>
<text text-anchor="start" x="545.7" y="-10.5" font-family="Helvetica,sans-Serif" font-size="20.00">+ ~MamiferoNativo()</text>
</a>
</g>
</g>
<!-- Node2 -->
<g id="node2" class="node">
<title>Node2</title>
<g id="a_node2"><a xlink:href="classMamifero.html" target="_top" xlink:title="Classificação base para Mamiferos.">
<polygon fill="white" stroke="black" points="491.7,-172.5 491.7,-372.5 670.7,-372.5 670.7,-172.5 491.7,-172.5"/>
<text text-anchor="middle" x="581.2" y="-352.5" font-family="Helvetica,sans-Serif" font-size="20.00">Mamifero</text>
<polyline fill="none" stroke="black" points="491.7,-342.5 670.7,-342.5 "/>
<text text-anchor="middle" x="581.2" y="-322.5" font-family="Helvetica,sans-Serif" font-size="20.00"> </text>
<polyline fill="none" stroke="black" points="491.7,-312.5 670.7,-312.5 "/>
<text text-anchor="start" x="499.7" y="-292.5" font-family="Helvetica,sans-Serif" font-size="20.00">+ Mamifero()</text>
<text text-anchor="start" x="499.7" y="-270.5" font-family="Helvetica,sans-Serif" font-size="20.00">+ Mamifero()</text>
<text text-anchor="start" x="499.7" y="-248.5" font-family="Helvetica,sans-Serif" font-size="20.00">+ ~Mamifero()</text>
<text text-anchor="start" x="499.7" y="-226.5" font-family="Helvetica,sans-Serif" font-size="20.00">+ getGestacao()</text>
<text text-anchor="start" x="499.7" y="-204.5" font-family="Helvetica,sans-Serif" font-size="20.00">+ setGestacao()</text>
<text text-anchor="start" x="499.7" y="-182.5" font-family="Helvetica,sans-Serif" font-size="20.00">+ setGestacao()</text>
</a>
</g>
</g>
<!-- Node2&#45;&gt;Node1 -->
<g id="edge1" class="edge">
<title>Node2&#45;&gt;Node1</title>
<path fill="none" stroke="midnightblue" d="M618.69,-162.8C621.99,-153.23 625.26,-143.75 628.38,-134.69"/>
<polygon fill="none" stroke="midnightblue" points="615.34,-161.78 615.38,-172.38 621.95,-164.07 615.34,-161.78"/>
</g>
<!-- Node3 -->
<g id="node3" class="node">
<title>Node3</title>
<g id="a_node3"><a xlink:href="classAnimal.html" target="_top" xlink:title="Implementação base para o cadastro de animais.">
<polygon fill="white" stroke="black" points="219.7,-410.5 219.7,-786.5 442.7,-786.5 442.7,-410.5 219.7,-410.5"/>
<text text-anchor="middle" x="331.2" y="-766.5" font-family="Helvetica,sans-Serif" font-size="20.00">Animal</text>
<polyline fill="none" stroke="black" points="219.7,-756.5 442.7,-756.5 "/>
<text text-anchor="middle" x="331.2" y="-736.5" font-family="Helvetica,sans-Serif" font-size="20.00"> </text>
<polyline fill="none" stroke="black" points="219.7,-726.5 442.7,-726.5 "/>
<text text-anchor="start" x="227.7" y="-706.5" font-family="Helvetica,sans-Serif" font-size="20.00">+ Animal()</text>
<text text-anchor="start" x="227.7" y="-684.5" font-family="Helvetica,sans-Serif" font-size="20.00">+ Animal()</text>
<text text-anchor="start" x="227.7" y="-662.5" font-family="Helvetica,sans-Serif" font-size="20.00">+ ~Animal()</text>
<text text-anchor="start" x="227.7" y="-640.5" font-family="Helvetica,sans-Serif" font-size="20.00">+ getNome()</text>
<text text-anchor="start" x="227.7" y="-618.5" font-family="Helvetica,sans-Serif" font-size="20.00">+ getEspecie()</text>
<text text-anchor="start" x="227.7" y="-596.5" font-family="Helvetica,sans-Serif" font-size="20.00">+ getAmeacadoPor()</text>
<text text-anchor="start" x="227.7" y="-574.5" font-family="Helvetica,sans-Serif" font-size="20.00">+ getVeterinario()</text>
<text text-anchor="start" x="227.7" y="-552.5" font-family="Helvetica,sans-Serif" font-size="20.00">+ getTratador()</text>
<text text-anchor="start" x="227.7" y="-530.5" font-family="Helvetica,sans-Serif" font-size="20.00">+ getPerigoso()</text>
<text text-anchor="start" x="227.7" y="-508.5" font-family="Helvetica,sans-Serif" font-size="20.00">+ setNome()</text>
<text text-anchor="start" x="227.7" y="-486.5" font-family="Helvetica,sans-Serif" font-size="20.00">e 13 mais...</text>
<text text-anchor="start" x="227.7" y="-464.5" font-family="Helvetica,sans-Serif" font-size="20.00">+ getClassificacao()</text>
<text text-anchor="start" x="227.7" y="-442.5" font-family="Helvetica,sans-Serif" font-size="20.00">+ getClasse()</text>
<text text-anchor="start" x="227.7" y="-420.5" font-family="Helvetica,sans-Serif" font-size="20.00">+ printOutDetails()</text>
</a>
</g>
</g>
<!-- Node3&#45;&gt;Node2 -->
<g id="edge2" class="edge">
<title>Node3&#45;&gt;Node2</title>
<path fill="none" stroke="midnightblue" d="M449.39,-444.33C468.15,-420.02 487.11,-395.44 504.58,-372.8"/>
<polygon fill="none" stroke="midnightblue" points="446.38,-442.5 443.04,-452.56 451.92,-446.78 446.38,-442.5"/>
</g>
<!-- Node4 -->
<g id="node4" class="node">
<title>Node4</title>
<g id="a_node4"><a xlink:href="classTratador.html" target="_top" xlink:title="Implementação dos tratadores.">
<polygon fill="white" stroke="black" points="296.2,-845.5 296.2,-1067.5 496.2,-1067.5 496.2,-845.5 296.2,-845.5"/>
<text text-anchor="middle" x="396.2" y="-1047.5" font-family="Helvetica,sans-Serif" font-size="20.00">Tratador</text>
<polyline fill="none" stroke="black" points="296.2,-1037.5 496.2,-1037.5 "/>
<text text-anchor="middle" x="396.2" y="-1017.5" font-family="Helvetica,sans-Serif" font-size="20.00"> </text>
<polyline fill="none" stroke="black" points="296.2,-1007.5 496.2,-1007.5 "/>
<text text-anchor="start" x="304.2" y="-987.5" font-family="Helvetica,sans-Serif" font-size="20.00">+ Tratador()</text>
<text text-anchor="start" x="304.2" y="-965.5" font-family="Helvetica,sans-Serif" font-size="20.00">+ Tratador()</text>
<text text-anchor="start" x="304.2" y="-943.5" font-family="Helvetica,sans-Serif" font-size="20.00">+ ~Tratador()</text>
<text text-anchor="start" x="304.2" y="-921.5" font-family="Helvetica,sans-Serif" font-size="20.00">+ getUniforme()</text>
<text text-anchor="start" x="304.2" y="-899.5" font-family="Helvetica,sans-Serif" font-size="20.00">+ setUniforme()</text>
<text text-anchor="start" x="304.2" y="-877.5" font-family="Helvetica,sans-Serif" font-size="20.00">+ setUniforme()</text>
<text text-anchor="start" x="304.2" y="-855.5" font-family="Helvetica,sans-Serif" font-size="20.00">+ printOutDados()</text>
</a>
</g>
</g>
<!-- Node4&#45;&gt;Node3 -->
<g id="edge3" class="edge">
<title>Node4&#45;&gt;Node3</title>
<path fill="none" stroke="#404040" d="M337.43,-845.24C335.41,-839.17 333.64,-833.06 332.2,-827 330,-817.71 328.2,-808.15 326.75,-798.45"/>
<polygon fill="none" stroke="#404040" points="326.75,-798.44 321.99,-793.03 325.15,-786.55 329.92,-791.97 326.75,-798.44"/>
<text text-anchor="middle" x="383.7" y="-811" font-family="Helvetica,sans-Serif" font-size="20.00"> #tratador</text>
</g>
<!-- Node5 -->
<g id="node5" class="node">
<title>Node5</title>
<g id="a_node5"><a xlink:href="classPessoa.html" target="_top" xlink:title="Classe base dos funcionarios.">
<polygon fill="white" stroke="black" points="269.2,-1371.5 269.2,-1769.5 469.2,-1769.5 469.2,-1371.5 269.2,-1371.5"/>
<text text-anchor="middle" x="369.2" y="-1749.5" font-family="Helvetica,sans-Serif" font-size="20.00">Pessoa</text>
<polyline fill="none" stroke="black" points="269.2,-1739.5 469.2,-1739.5 "/>
<text text-anchor="middle" x="369.2" y="-1719.5" font-family="Helvetica,sans-Serif" font-size="20.00"> </text>
<polyline fill="none" stroke="black" points="269.2,-1709.5 469.2,-1709.5 "/>
<text text-anchor="start" x="277.2" y="-1689.5" font-family="Helvetica,sans-Serif" font-size="20.00">+ Pessoa()</text>
<text text-anchor="start" x="277.2" y="-1667.5" font-family="Helvetica,sans-Serif" font-size="20.00">+ Pessoa()</text>
<text text-anchor="start" x="277.2" y="-1645.5" font-family="Helvetica,sans-Serif" font-size="20.00">+ ~Pessoa()</text>
<text text-anchor="start" x="277.2" y="-1623.5" font-family="Helvetica,sans-Serif" font-size="20.00">+ getNome()</text>
<text text-anchor="start" x="277.2" y="-1601.5" font-family="Helvetica,sans-Serif" font-size="20.00">+ setNome()</text>
<text text-anchor="start" x="277.2" y="-1579.5" font-family="Helvetica,sans-Serif" font-size="20.00">+ setNome()</text>
<text text-anchor="start" x="277.2" y="-1557.5" font-family="Helvetica,sans-Serif" font-size="20.00">+ getTelefone()</text>
<text text-anchor="start" x="277.2" y="-1535.5" font-family="Helvetica,sans-Serif" font-size="20.00">+ setTelefone()</text>
<text text-anchor="start" x="277.2" y="-1513.5" font-family="Helvetica,sans-Serif" font-size="20.00">+ setTelefone()</text>
<text text-anchor="start" x="277.2" y="-1491.5" font-family="Helvetica,sans-Serif" font-size="20.00">+ getEmail()</text>
<text text-anchor="start" x="277.2" y="-1469.5" font-family="Helvetica,sans-Serif" font-size="20.00">+ setEmail()</text>
<text text-anchor="start" x="277.2" y="-1447.5" font-family="Helvetica,sans-Serif" font-size="20.00">+ setEmail()</text>
<text text-anchor="start" x="277.2" y="-1425.5" font-family="Helvetica,sans-Serif" font-size="20.00">+ printOutDados()</text>
<text text-anchor="start" x="277.2" y="-1403.5" font-family="Helvetica,sans-Serif" font-size="20.00">+ operator==()</text>
<text text-anchor="start" x="277.2" y="-1381.5" font-family="Helvetica,sans-Serif" font-size="20.00">+ operator==()</text>
</a>
</g>
</g>
<!-- Node5&#45;&gt;Node4 -->
<g id="edge4" class="edge">
<title>Node5&#45;&gt;Node4</title>
<path fill="none" stroke="midnightblue" d="M378.4,-1361.13C382.74,-1262.66 387.75,-1149.13 391.35,-1067.6"/>
<polygon fill="none" stroke="midnightblue" points="374.9,-1361.08 377.95,-1371.22 381.89,-1361.39 374.9,-1361.08"/>
</g>
<!-- Node9 -->
<g id="node9" class="node">
<title>Node9</title>
<g id="a_node9"><a xlink:href="classVeterinario.html" target="_top" xlink:title="Implementação dos veterinarios.">
<polygon fill="white" stroke="black" points="78.2,-845.5 78.2,-1067.5 278.2,-1067.5 278.2,-845.5 78.2,-845.5"/>
<text text-anchor="middle" x="178.2" y="-1047.5" font-family="Helvetica,sans-Serif" font-size="20.00">Veterinario</text>
<polyline fill="none" stroke="black" points="78.2,-1037.5 278.2,-1037.5 "/>
<text text-anchor="middle" x="178.2" y="-1017.5" font-family="Helvetica,sans-Serif" font-size="20.00"> </text>
<polyline fill="none" stroke="black" points="78.2,-1007.5 278.2,-1007.5 "/>
<text text-anchor="start" x="86.2" y="-987.5" font-family="Helvetica,sans-Serif" font-size="20.00">+ Veterinario()</text>
<text text-anchor="start" x="86.2" y="-965.5" font-family="Helvetica,sans-Serif" font-size="20.00">+ Veterinario()</text>
<text text-anchor="start" x="86.2" y="-943.5" font-family="Helvetica,sans-Serif" font-size="20.00">+ ~Veterinario()</text>
<text text-anchor="start" x="86.2" y="-921.5" font-family="Helvetica,sans-Serif" font-size="20.00">+ getCRMV()</text>
<text text-anchor="start" x="86.2" y="-899.5" font-family="Helvetica,sans-Serif" font-size="20.00">+ setCRMV()</text>
<text text-anchor="start" x="86.2" y="-877.5" font-family="Helvetica,sans-Serif" font-size="20.00">+ setCRMV()</text>
<text text-anchor="start" x="86.2" y="-855.5" font-family="Helvetica,sans-Serif" font-size="20.00">+ printOutDados()</text>
</a>
</g>
</g>
<!-- Node5&#45;&gt;Node9 -->
<g id="edge10" class="edge">
<title>Node5&#45;&gt;Node9</title>
<path fill="none" stroke="midnightblue" d="M304.27,-1361.43C273.52,-1262.89 238.04,-1149.21 212.57,-1067.6"/>
<polygon fill="none" stroke="midnightblue" points="301,-1362.72 307.32,-1371.22 307.69,-1360.64 301,-1362.72"/>
</g>
<!-- Node6 -->
<g id="node6" class="node">
<title>Node6</title>
<g id="a_node6"><a xlink:title=" ">
<polygon fill="white" stroke="#bfbfbf" points="236.2,-1872.5 236.2,-1962.5 310.2,-1962.5 310.2,-1872.5 236.2,-1872.5"/>
<text text-anchor="middle" x="273.2" y="-1942.5" font-family="Helvetica,sans-Serif" font-size="20.00">string</text>
<polyline fill="none" stroke="#bfbfbf" points="236.2,-1932.5 310.2,-1932.5 "/>
<text text-anchor="middle" x="273.2" y="-1912.5" font-family="Helvetica,sans-Serif" font-size="20.00"> </text>
<polyline fill="none" stroke="#bfbfbf" points="236.2,-1902.5 310.2,-1902.5 "/>
<text text-anchor="middle" x="273.2" y="-1882.5" font-family="Helvetica,sans-Serif" font-size="20.00"> </text>
</a>
</g>
</g>
<!-- Node6&#45;&gt;Node3 -->
<g id="edge8" class="edge">
<title>Node6&#45;&gt;Node3</title>
<path fill="none" stroke="#404040" d="M236.08,-1895.5C220.07,-1884.85 202.29,-1870.64 190.2,-1854 -15.32,-1570.96 -18.2,-1433.89 18.2,-1086 29.6,-977.11 15.45,-940.38 69.2,-845 103.92,-783.4 159.32,-728.18 210.25,-685.79"/>
<polygon fill="none" stroke="#404040" points="210.43,-685.65 212.52,-678.75 219.7,-678.03 217.6,-684.93 210.43,-685.65"/>
<text text-anchor="middle" x="94.2" y="-1236.5" font-family="Helvetica,sans-Serif" font-size="20.00"> #especie</text>
<text text-anchor="middle" x="94.2" y="-1214.5" font-family="Helvetica,sans-Serif" font-size="20.00">#ameacadoPor</text>
<text text-anchor="middle" x="94.2" y="-1192.5" font-family="Helvetica,sans-Serif" font-size="20.00">#nome</text>
</g>
<!-- Node6&#45;&gt;Node5 -->
<g id="edge5" class="edge">
<title>Node6&#45;&gt;Node5</title>
<path fill="none" stroke="#404040" d="M285.46,-1872.46C292.25,-1848.06 301.24,-1815.75 310.81,-1781.36"/>
<polygon fill="none" stroke="#404040" points="310.86,-1781.18 308.61,-1774.33 314.07,-1769.62 316.32,-1776.47 310.86,-1781.18"/>
<text text-anchor="middle" x="355.7" y="-1838" font-family="Helvetica,sans-Serif" font-size="20.00"> #email</text>
<text text-anchor="middle" x="355.7" y="-1816" font-family="Helvetica,sans-Serif" font-size="20.00">#nome</text>
<text text-anchor="middle" x="355.7" y="-1794" font-family="Helvetica,sans-Serif" font-size="20.00">#telefone</text>
</g>
<!-- Node6&#45;&gt;Node9 -->
<g id="edge11" class="edge">
<title>Node6&#45;&gt;Node9</title>
<path fill="none" stroke="#404040" d="M239.11,-1872.45C219.82,-1844.72 197.55,-1807.23 187.2,-1770 169.3,-1705.54 172.99,-1290.5 176.1,-1079.82"/>
<polygon fill="none" stroke="#404040" points="176.1,-1079.78 172.19,-1073.72 176.28,-1067.78 180.19,-1073.84 176.1,-1079.78"/>
<text text-anchor="middle" x="223.7" y="-1565.5" font-family="Helvetica,sans-Serif" font-size="20.00"> &#45;CRMV</text>
</g>
<!-- Node10 -->
<g id="node10" class="node">
<title>Node10</title>
<g id="a_node10"><a xlink:href="classNativo.html" target="_top" xlink:title="Umas das definições de categoria para Animal.">
<polygon fill="white" stroke="black" points="641.2,-1086.5 641.2,-1352.5 803.2,-1352.5 803.2,-1086.5 641.2,-1086.5"/>
<text text-anchor="middle" x="722.2" y="-1332.5" font-family="Helvetica,sans-Serif" font-size="20.00">Nativo</text>
<polyline fill="none" stroke="black" points="641.2,-1322.5 803.2,-1322.5 "/>
<text text-anchor="middle" x="722.2" y="-1302.5" font-family="Helvetica,sans-Serif" font-size="20.00"> </text>
<polyline fill="none" stroke="black" points="641.2,-1292.5 803.2,-1292.5 "/>
<text text-anchor="start" x="649.2" y="-1272.5" font-family="Helvetica,sans-Serif" font-size="20.00">+ Nativo()</text>
<text text-anchor="start" x="649.2" y="-1250.5" font-family="Helvetica,sans-Serif" font-size="20.00">+ Nativo()</text>
<text text-anchor="start" x="649.2" y="-1228.5" font-family="Helvetica,sans-Serif" font-size="20.00">+ ~Nativo()</text>
<text text-anchor="start" x="649.2" y="-1206.5" font-family="Helvetica,sans-Serif" font-size="20.00">+ getRegiao()</text>
<text text-anchor="start" x="649.2" y="-1184.5" font-family="Helvetica,sans-Serif" font-size="20.00">+ setRegiao()</text>
<text text-anchor="start" x="649.2" y="-1162.5" font-family="Helvetica,sans-Serif" font-size="20.00">+ setRegiao()</text>
<text text-anchor="start" x="649.2" y="-1140.5" font-family="Helvetica,sans-Serif" font-size="20.00">+ getLicenca()</text>
<text text-anchor="start" x="649.2" y="-1118.5" font-family="Helvetica,sans-Serif" font-size="20.00">+ setLicenca()</text>
<text text-anchor="start" x="649.2" y="-1096.5" font-family="Helvetica,sans-Serif" font-size="20.00">+ setLicenca()</text>
</a>
</g>
</g>
<!-- Node6&#45;&gt;Node10 -->
<g id="edge14" class="edge">
<title>Node6&#45;&gt;Node10</title>
<path fill="none" stroke="#404040" d="M310.25,-1911.16C379.21,-1899.17 527.14,-1863.47 603.2,-1770 696.06,-1655.91 720.83,-1485.72 725.5,-1365.02"/>
<polygon fill="none" stroke="#404040" points="725.5,-1364.76 721.71,-1358.63 725.91,-1352.76 729.7,-1358.89 725.5,-1364.76"/>
<text text-anchor="middle" x="631.7" y="-1827" font-family="Helvetica,sans-Serif" font-size="20.00"> #licenca</text>
<text text-anchor="middle" x="631.7" y="-1805" font-family="Helvetica,sans-Serif" font-size="20.00">#regiao</text>
</g>
<!-- Node7 -->
<g id="node7" class="node">
<title>Node7</title>
<g id="a_node7"><a xlink:title=" ">
<polygon fill="white" stroke="#bfbfbf" points="487.7,-1525.5 487.7,-1615.5 594.7,-1615.5 594.7,-1525.5 487.7,-1525.5"/>
<text text-anchor="middle" x="541.2" y="-1595.5" font-family="Helvetica,sans-Serif" font-size="20.00">Uniforme</text>
<polyline fill="none" stroke="#bfbfbf" points="487.7,-1585.5 594.7,-1585.5 "/>
<text text-anchor="middle" x="541.2" y="-1565.5" font-family="Helvetica,sans-Serif" font-size="20.00"> </text>
<polyline fill="none" stroke="#bfbfbf" points="487.7,-1555.5 594.7,-1555.5 "/>
<text text-anchor="middle" x="541.2" y="-1535.5" font-family="Helvetica,sans-Serif" font-size="20.00"> </text>
</a>
</g>
</g>
<!-- Node7&#45;&gt;Node4 -->
<g id="edge6" class="edge">
<title>Node7&#45;&gt;Node4</title>
<path fill="none" stroke="#404040" d="M530.78,-1525.49C508.93,-1433.28 457.69,-1216.99 425.11,-1079.52"/>
<polygon fill="none" stroke="#404040" points="425.08,-1079.38 419.81,-1074.46 422.31,-1067.7 427.59,-1072.62 425.08,-1079.38"/>
<text text-anchor="middle" x="537.7" y="-1214.5" font-family="Helvetica,sans-Serif" font-size="20.00"> &#45;uniforme</text>
</g>
<!-- Node8 -->
<g id="node8" class="node">
<title>Node8</title>
<g id="a_node8"><a xlink:title=" ">
<polygon fill="white" stroke="#bfbfbf" points="533.7,-911.5 533.7,-1001.5 592.7,-1001.5 592.7,-911.5 533.7,-911.5"/>
<text text-anchor="middle" x="563.2" y="-981.5" font-family="Helvetica,sans-Serif" font-size="20.00">bool</text>
<polyline fill="none" stroke="#bfbfbf" points="533.7,-971.5 592.7,-971.5 "/>
<text text-anchor="middle" x="563.2" y="-951.5" font-family="Helvetica,sans-Serif" font-size="20.00"> </text>
<polyline fill="none" stroke="#bfbfbf" points="533.7,-941.5 592.7,-941.5 "/>
<text text-anchor="middle" x="563.2" y="-921.5" font-family="Helvetica,sans-Serif" font-size="20.00"> </text>
</a>
</g>
</g>
<!-- Node8&#45;&gt;Node2 -->
<g id="edge12" class="edge">
<title>Node8&#45;&gt;Node2</title>
<path fill="none" stroke="#404040" d="M564.64,-911.49C565.43,-886.68 566.41,-855.11 567.2,-827 571.53,-673.84 575.89,-496.82 578.57,-385.03"/>
<polygon fill="none" stroke="#404040" points="578.58,-384.74 574.73,-378.64 578.87,-372.74 582.72,-378.84 578.58,-384.74"/>
<text text-anchor="middle" x="634.7" y="-593.5" font-family="Helvetica,sans-Serif" font-size="20.00"> #gestacao</text>
</g>
<!-- Node8&#45;&gt;Node3 -->
<g id="edge7" class="edge">
<title>Node8&#45;&gt;Node3</title>
<path fill="none" stroke="#404040" d="M548.64,-911.35C539.29,-888.9 525.12,-862.7 505.2,-845 488.49,-830.14 475.11,-841.64 458.2,-827 447.45,-817.69 437.42,-807.23 428.11,-796.05"/>
<polygon fill="none" stroke="#404040" points="427.95,-795.86 421.08,-793.68 420.45,-786.5 427.32,-788.68 427.95,-795.86"/>
<text text-anchor="middle" x="512.7" y="-811" font-family="Helvetica,sans-Serif" font-size="20.00"> #perigoso</text>
</g>
<!-- Node9&#45;&gt;Node3 -->
<g id="edge9" class="edge">
<title>Node9&#45;&gt;Node3</title>
<path fill="none" stroke="#404040" d="M184.56,-845.19C187.13,-831.42 190.58,-817.73 195.2,-805 200.42,-790.66 206.81,-776.33 213.97,-762.28"/>
<polygon fill="none" stroke="#404040" points="214,-762.22 213.25,-755.05 219.58,-751.6 220.33,-758.77 214,-762.22"/>
<text text-anchor="middle" x="260.2" y="-811" font-family="Helvetica,sans-Serif" font-size="20.00"> #veterinario</text>
</g>
<!-- Node10&#45;&gt;Node1 -->
<g id="edge13" class="edge">
<title>Node10&#45;&gt;Node1</title>
<path fill="none" stroke="midnightblue" d="M722.2,-1076.27C722.2,-999.49 722.2,-903.06 722.2,-817 722.2,-817 722.2,-817 722.2,-271.5 722.2,-223.9 704.59,-173.36 686.91,-134.61"/>
<polygon fill="none" stroke="midnightblue" points="718.7,-1076.49 722.2,-1086.49 725.7,-1076.49 718.7,-1076.49"/>
</g>
</g>
</svg>
