<?xml version="1.0" encoding="UTF-8" standalone="no"?>
<!DOCTYPE svg PUBLIC "-//W3C//DTD SVG 1.1//EN"
 "http://www.w3.org/Graphics/SVG/1.1/DTD/svg11.dtd">
<!-- Generated by graphviz version 2.40.1 (20161225.0304)
 -->
<!-- Title: AnfibioDomestico Pages: 1 -->
<svg width="321pt" height="837pt"
 viewBox="0.00 0.00 320.50 837.00" xmlns="http://www.w3.org/2000/svg" xmlns:xlink="http://www.w3.org/1999/xlink">
<g id="graph0" class="graph" transform="scale(1 1) rotate(0) translate(4 833)">
<title>AnfibioDomestico</title>
<polygon fill="#ffffff" stroke="transparent" points="-4,4 -4,-833 316.5,-833 316.5,4 -4,4"/>
<!-- Node0 -->
<g id="node1" class="node">
<title>Node0</title>
<polygon fill="#bfbfbf" stroke="#000000" points="41.5,-.5 41.5,-112.5 240.5,-112.5 240.5,-.5 41.5,-.5"/>
<text text-anchor="middle" x="141" y="-92.5" font-family="Helvetica,sans-Serif" font-size="20.00" fill="#000000">AnfibioDomestico</text>
<polyline fill="none" stroke="#000000" points="41.5,-82.5 240.5,-82.5 "/>
<text text-anchor="middle" x="141" y="-62.5" font-family="Helvetica,sans-Serif" font-size="20.00" fill="#000000"> </text>
<polyline fill="none" stroke="#000000" points="41.5,-52.5 240.5,-52.5 "/>
<text text-anchor="start" x="49.5" y="-32.5" font-family="Helvetica,sans-Serif" font-size="20.00" fill="#000000">+ AnfibioDomestico()</text>
<text text-anchor="start" x="49.5" y="-10.5" font-family="Helvetica,sans-Serif" font-size="20.00" fill="#000000">+ ~AnfibioDomestico()</text>
</g>
<!-- Node1 -->
<g id="node2" class="node">
<title>Node1</title>
<g id="a_node2"><a xlink:href="classAnfibio.html" target="_top" xlink:title="Classificação base para Anfibios. ">
<polygon fill="#ffffff" stroke="#000000" points="0,-149.5 0,-327.5 124,-327.5 124,-149.5 0,-149.5"/>
<text text-anchor="middle" x="62" y="-307.5" font-family="Helvetica,sans-Serif" font-size="20.00" fill="#000000">Anfibio</text>
<polyline fill="none" stroke="#000000" points="0,-297.5 124,-297.5 "/>
<text text-anchor="start" x="8" y="-277.5" font-family="Helvetica,sans-Serif" font-size="20.00" fill="#000000"># cauda</text>
<text text-anchor="start" x="8" y="-255.5" font-family="Helvetica,sans-Serif" font-size="20.00" fill="#000000"># pata</text>
<polyline fill="none" stroke="#000000" points="0,-245.5 124,-245.5 "/>
<text text-anchor="start" x="8" y="-225.5" font-family="Helvetica,sans-Serif" font-size="20.00" fill="#000000">+ Anfibio()</text>
<text text-anchor="start" x="8" y="-203.5" font-family="Helvetica,sans-Serif" font-size="20.00" fill="#000000">+ ~Anfibio()</text>
<text text-anchor="start" x="8" y="-181.5" font-family="Helvetica,sans-Serif" font-size="20.00" fill="#000000">+ getCauda()</text>
<text text-anchor="start" x="8" y="-159.5" font-family="Helvetica,sans-Serif" font-size="20.00" fill="#000000">+ getPata()</text>
</a>
</g>
</g>
<!-- Node1&#45;&gt;Node0 -->
<g id="edge1" class="edge">
<title>Node1&#45;&gt;Node0</title>
<path fill="none" stroke="#191970" d="M104.763,-139.9828C108.8269,-130.6202 112.8445,-121.3646 116.642,-112.6158"/>
<polygon fill="none" stroke="#191970" points="101.4612,-138.7994 100.69,-149.3661 107.8824,-141.5866 101.4612,-138.7994"/>
</g>
<!-- Node2 -->
<g id="node3" class="node">
<title>Node2</title>
<g id="a_node3"><a xlink:href="classDomestico.html" target="_top" xlink:title="Umas das definições de categoria para Animal. ">
<polygon fill="#ffffff" stroke="#000000" points="142.5,-160.5 142.5,-316.5 297.5,-316.5 297.5,-160.5 142.5,-160.5"/>
<text text-anchor="middle" x="220" y="-296.5" font-family="Helvetica,sans-Serif" font-size="20.00" fill="#000000">Domestico</text>
<polyline fill="none" stroke="#000000" points="142.5,-286.5 297.5,-286.5 "/>
<text text-anchor="start" x="150.5" y="-266.5" font-family="Helvetica,sans-Serif" font-size="20.00" fill="#000000"># adestrado</text>
<polyline fill="none" stroke="#000000" points="142.5,-256.5 297.5,-256.5 "/>
<text text-anchor="start" x="150.5" y="-236.5" font-family="Helvetica,sans-Serif" font-size="20.00" fill="#000000">+ Domestico()</text>
<text text-anchor="start" x="150.5" y="-214.5" font-family="Helvetica,sans-Serif" font-size="20.00" fill="#000000">+ Domestico()</text>
<text text-anchor="start" x="150.5" y="-192.5" font-family="Helvetica,sans-Serif" font-size="20.00" fill="#000000">+ ~Domestico()</text>
<text text-anchor="start" x="150.5" y="-170.5" font-family="Helvetica,sans-Serif" font-size="20.00" fill="#000000">+ getAdestrado()</text>
</a>
</g>
</g>
<!-- Node2&#45;&gt;Node0 -->
<g id="edge2" class="edge">
<title>Node2&#45;&gt;Node0</title>
<path fill="none" stroke="#191970" d="M181.9507,-150.8421C176.3184,-137.8663 170.6466,-124.7998 165.3944,-112.6997"/>
<polygon fill="none" stroke="#191970" points="178.846,-152.4799 186.0384,-160.2594 185.2672,-149.6926 178.846,-152.4799"/>
</g>
<!-- Node3 -->
<g id="node4" class="node">
<title>Node3</title>
<g id="a_node4"><a xlink:href="classAnimal.html" target="_top" xlink:title="Implementação base para o cadastro de animais. ">
<polygon fill="#ffffff" stroke="#000000" points="127.5,-364.5 127.5,-828.5 312.5,-828.5 312.5,-364.5 127.5,-364.5"/>
<text text-anchor="middle" x="220" y="-808.5" font-family="Helvetica,sans-Serif" font-size="20.00" fill="#000000">Animal</text>
<polyline fill="none" stroke="#000000" points="127.5,-798.5 312.5,-798.5 "/>
<text text-anchor="start" x="135.5" y="-778.5" font-family="Helvetica,sans-Serif" font-size="20.00" fill="#000000"># nome</text>
<text text-anchor="start" x="135.5" y="-756.5" font-family="Helvetica,sans-Serif" font-size="20.00" fill="#000000"># especie</text>
<text text-anchor="start" x="135.5" y="-734.5" font-family="Helvetica,sans-Serif" font-size="20.00" fill="#000000"># ameacadoPor</text>
<text text-anchor="start" x="135.5" y="-712.5" font-family="Helvetica,sans-Serif" font-size="20.00" fill="#000000"># veterinario</text>
<text text-anchor="start" x="135.5" y="-690.5" font-family="Helvetica,sans-Serif" font-size="20.00" fill="#000000"># tratador</text>
<text text-anchor="start" x="135.5" y="-668.5" font-family="Helvetica,sans-Serif" font-size="20.00" fill="#000000"># perigoso</text>
<polyline fill="none" stroke="#000000" points="127.5,-658.5 312.5,-658.5 "/>
<text text-anchor="start" x="135.5" y="-638.5" font-family="Helvetica,sans-Serif" font-size="20.00" fill="#000000">+ Animal()</text>
<text text-anchor="start" x="135.5" y="-616.5" font-family="Helvetica,sans-Serif" font-size="20.00" fill="#000000">+ Animal()</text>
<text text-anchor="start" x="135.5" y="-594.5" font-family="Helvetica,sans-Serif" font-size="20.00" fill="#000000">+ ~Animal()</text>
<text text-anchor="start" x="135.5" y="-572.5" font-family="Helvetica,sans-Serif" font-size="20.00" fill="#000000">+ getNome()</text>
<text text-anchor="start" x="135.5" y="-550.5" font-family="Helvetica,sans-Serif" font-size="20.00" fill="#000000">+ getEspecie()</text>
<text text-anchor="start" x="135.5" y="-528.5" font-family="Helvetica,sans-Serif" font-size="20.00" fill="#000000">+ getAmeacadoPor()</text>
<text text-anchor="start" x="135.5" y="-506.5" font-family="Helvetica,sans-Serif" font-size="20.00" fill="#000000">+ getVeterinario()</text>
<text text-anchor="start" x="135.5" y="-484.5" font-family="Helvetica,sans-Serif" font-size="20.00" fill="#000000">+ getTratador()</text>
<text text-anchor="start" x="135.5" y="-462.5" font-family="Helvetica,sans-Serif" font-size="20.00" fill="#000000">+ getPerigoso()</text>
<text text-anchor="start" x="135.5" y="-440.5" font-family="Helvetica,sans-Serif" font-size="20.00" fill="#000000">+ getClassificacao()</text>
<text text-anchor="start" x="135.5" y="-418.5" font-family="Helvetica,sans-Serif" font-size="20.00" fill="#000000">+ getClasse()</text>
<text text-anchor="start" x="135.5" y="-396.5" font-family="Helvetica,sans-Serif" font-size="20.00" fill="#000000">+ printOutDados()</text>
<text text-anchor="start" x="135.5" y="-374.5" font-family="Helvetica,sans-Serif" font-size="20.00" fill="#000000">+ operator==()</text>
</a>
</g>
</g>
<!-- Node3&#45;&gt;Node2 -->
<g id="edge3" class="edge">
<title>Node3&#45;&gt;Node2</title>
<path fill="none" stroke="#191970" d="M220,-354.2528C220,-341.0248 220,-328.3256 220,-316.5006"/>
<polygon fill="none" stroke="#191970" points="216.5001,-354.4656 220,-364.4657 223.5001,-354.4657 216.5001,-354.4656"/>
</g>
</g>
</svg>
