<?xml version="1.0" encoding="UTF-8" standalone="no"?>
<!DOCTYPE svg PUBLIC "-//W3C//DTD SVG 1.1//EN"
 "http://www.w3.org/Graphics/SVG/1.1/DTD/svg11.dtd">
<!-- Generated by graphviz version 2.43.0 (0)
 -->
<!-- Title: Anfibio Pages: 1 -->
<svg width="704pt" height="925pt"
 viewBox="0.00 0.00 704.00 925.00" xmlns="http://www.w3.org/2000/svg" xmlns:xlink="http://www.w3.org/1999/xlink">
<g id="graph0" class="graph" transform="scale(1 1) rotate(0) translate(4 921)">
<title>Anfibio</title>
<polygon fill="white" stroke="transparent" points="-4,4 -4,-921 700,-921 700,4 -4,4"/>
<!-- Node1 -->
<g id="node1" class="node">
<title>Node1</title>
<g id="a_node1"><a xlink:title="Classificação base para Anfibios.">
<polygon fill="#bfbfbf" stroke="black" points="294.5,-171.5 294.5,-459.5 444.5,-459.5 444.5,-171.5 294.5,-171.5"/>
<text text-anchor="middle" x="369.5" y="-439.5" font-family="Helvetica,sans-Serif" font-size="20.00">Anfibio</text>
<polyline fill="none" stroke="black" points="294.5,-429.5 444.5,-429.5 "/>
<text text-anchor="start" x="302.5" y="-409.5" font-family="Helvetica,sans-Serif" font-size="20.00"># cauda</text>
<text text-anchor="start" x="302.5" y="-387.5" font-family="Helvetica,sans-Serif" font-size="20.00"># pata</text>
<polyline fill="none" stroke="black" points="294.5,-377.5 444.5,-377.5 "/>
<text text-anchor="start" x="302.5" y="-357.5" font-family="Helvetica,sans-Serif" font-size="20.00">+ Anfibio()</text>
<text text-anchor="start" x="302.5" y="-335.5" font-family="Helvetica,sans-Serif" font-size="20.00">+ Anfibio()</text>
<text text-anchor="start" x="302.5" y="-313.5" font-family="Helvetica,sans-Serif" font-size="20.00">+ ~Anfibio()</text>
<text text-anchor="start" x="302.5" y="-291.5" font-family="Helvetica,sans-Serif" font-size="20.00">+ getCauda()</text>
<text text-anchor="start" x="302.5" y="-269.5" font-family="Helvetica,sans-Serif" font-size="20.00">+ setCauda()</text>
<text text-anchor="start" x="302.5" y="-247.5" font-family="Helvetica,sans-Serif" font-size="20.00">+ setCauda()</text>
<text text-anchor="start" x="302.5" y="-225.5" font-family="Helvetica,sans-Serif" font-size="20.00">+ getPata()</text>
<text text-anchor="start" x="302.5" y="-203.5" font-family="Helvetica,sans-Serif" font-size="20.00">+ setPata()</text>
<text text-anchor="start" x="302.5" y="-181.5" font-family="Helvetica,sans-Serif" font-size="20.00">+ setPata()</text>
</a>
</g>
</g>
<!-- Node3 -->
<g id="node3" class="node">
<title>Node3</title>
<g id="a_node3"><a xlink:href="classAnfibioDomestico.html" target="_top" xlink:title="Implementação de animal com Classe e Categoria.">
<polygon fill="white" stroke="black" points="0,-0.5 0,-134.5 245,-134.5 245,-0.5 0,-0.5"/>
<text text-anchor="middle" x="122.5" y="-114.5" font-family="Helvetica,sans-Serif" font-size="20.00">AnfibioDomestico</text>
<polyline fill="none" stroke="black" points="0,-104.5 245,-104.5 "/>
<text text-anchor="middle" x="122.5" y="-84.5" font-family="Helvetica,sans-Serif" font-size="20.00"> </text>
<polyline fill="none" stroke="black" points="0,-74.5 245,-74.5 "/>
<text text-anchor="start" x="8" y="-54.5" font-family="Helvetica,sans-Serif" font-size="20.00">+ AnfibioDomestico()</text>
<text text-anchor="start" x="8" y="-32.5" font-family="Helvetica,sans-Serif" font-size="20.00">+ AnfibioDomestico()</text>
<text text-anchor="start" x="8" y="-10.5" font-family="Helvetica,sans-Serif" font-size="20.00">+ ~AnfibioDomestico()</text>
</a>
</g>
</g>
<!-- Node1&#45;&gt;Node3 -->
<g id="edge2" class="edge">
<title>Node1&#45;&gt;Node3</title>
<path fill="none" stroke="midnightblue" d="M287.21,-232.54C255.25,-200.71 219.13,-164.74 188.88,-134.61"/>
<polygon fill="none" stroke="midnightblue" points="284.83,-235.11 294.39,-239.69 289.77,-230.15 284.83,-235.11"/>
</g>
<!-- Node4 -->
<g id="node4" class="node">
<title>Node4</title>
<g id="a_node4"><a xlink:href="classAnfibioExotico.html" target="_top" xlink:title="Implementação de animal com Classe e Categoria.">
<polygon fill="white" stroke="black" points="263.5,-0.5 263.5,-134.5 475.5,-134.5 475.5,-0.5 263.5,-0.5"/>
<text text-anchor="middle" x="369.5" y="-114.5" font-family="Helvetica,sans-Serif" font-size="20.00">AnfibioExotico</text>
<polyline fill="none" stroke="black" points="263.5,-104.5 475.5,-104.5 "/>
<text text-anchor="middle" x="369.5" y="-84.5" font-family="Helvetica,sans-Serif" font-size="20.00"> </text>
<polyline fill="none" stroke="black" points="263.5,-74.5 475.5,-74.5 "/>
<text text-anchor="start" x="271.5" y="-54.5" font-family="Helvetica,sans-Serif" font-size="20.00">+ AnfibioExotico()</text>
<text text-anchor="start" x="271.5" y="-32.5" font-family="Helvetica,sans-Serif" font-size="20.00">+ AnfibioExotico()</text>
<text text-anchor="start" x="271.5" y="-10.5" font-family="Helvetica,sans-Serif" font-size="20.00">+ ~AnfibioExotico()</text>
</a>
</g>
</g>
<!-- Node1&#45;&gt;Node4 -->
<g id="edge3" class="edge">
<title>Node1&#45;&gt;Node4</title>
<path fill="none" stroke="midnightblue" d="M369.5,-161.37C369.5,-152.19 369.5,-143.26 369.5,-134.79"/>
<polygon fill="none" stroke="midnightblue" points="366,-161.4 369.5,-171.4 373,-161.4 366,-161.4"/>
</g>
<!-- Node5 -->
<g id="node5" class="node">
<title>Node5</title>
<g id="a_node5"><a xlink:href="classAnfibioNativo.html" target="_top" xlink:title="Implementação de animal com Classe e Categoria.">
<polygon fill="white" stroke="black" points="493,-0.5 493,-134.5 696,-134.5 696,-0.5 493,-0.5"/>
<text text-anchor="middle" x="594.5" y="-114.5" font-family="Helvetica,sans-Serif" font-size="20.00">AnfibioNativo</text>
<polyline fill="none" stroke="black" points="493,-104.5 696,-104.5 "/>
<text text-anchor="middle" x="594.5" y="-84.5" font-family="Helvetica,sans-Serif" font-size="20.00"> </text>
<polyline fill="none" stroke="black" points="493,-74.5 696,-74.5 "/>
<text text-anchor="start" x="501" y="-54.5" font-family="Helvetica,sans-Serif" font-size="20.00">+ AnfibioNativo()</text>
<text text-anchor="start" x="501" y="-32.5" font-family="Helvetica,sans-Serif" font-size="20.00">+ AnfibioNativo()</text>
<text text-anchor="start" x="501" y="-10.5" font-family="Helvetica,sans-Serif" font-size="20.00">+ ~AnfibioNativo()</text>
</a>
</g>
</g>
<!-- Node1&#45;&gt;Node5 -->
<g id="edge4" class="edge">
<title>Node1&#45;&gt;Node5</title>
<path fill="none" stroke="midnightblue" d="M451.6,-224.74C478.82,-194.98 508.6,-162.41 533.9,-134.75"/>
<polygon fill="none" stroke="midnightblue" points="448.9,-222.5 444.73,-232.24 454.07,-227.23 448.9,-222.5"/>
</g>
<!-- Node2 -->
<g id="node2" class="node">
<title>Node2</title>
<g id="a_node2"><a xlink:href="classAnimal.html" target="_top" xlink:title="Implementação base para o cadastro de animais.">
<polygon fill="white" stroke="black" points="258,-496.5 258,-916.5 481,-916.5 481,-496.5 258,-496.5"/>
<text text-anchor="middle" x="369.5" y="-896.5" font-family="Helvetica,sans-Serif" font-size="20.00">Animal</text>
<polyline fill="none" stroke="black" points="258,-886.5 481,-886.5 "/>
<text text-anchor="start" x="266" y="-866.5" font-family="Helvetica,sans-Serif" font-size="20.00"># nome</text>
<text text-anchor="start" x="266" y="-844.5" font-family="Helvetica,sans-Serif" font-size="20.00"># especie</text>
<text text-anchor="start" x="266" y="-822.5" font-family="Helvetica,sans-Serif" font-size="20.00"># ameacadoPor</text>
<text text-anchor="start" x="266" y="-800.5" font-family="Helvetica,sans-Serif" font-size="20.00"># veterinario</text>
<text text-anchor="start" x="266" y="-778.5" font-family="Helvetica,sans-Serif" font-size="20.00"># tratador</text>
<text text-anchor="start" x="266" y="-756.5" font-family="Helvetica,sans-Serif" font-size="20.00"># perigoso</text>
<polyline fill="none" stroke="black" points="258,-746.5 481,-746.5 "/>
<text text-anchor="start" x="266" y="-726.5" font-family="Helvetica,sans-Serif" font-size="20.00">+ Animal()</text>
<text text-anchor="start" x="266" y="-704.5" font-family="Helvetica,sans-Serif" font-size="20.00">+ Animal()</text>
<text text-anchor="start" x="266" y="-682.5" font-family="Helvetica,sans-Serif" font-size="20.00">+ ~Animal()</text>
<text text-anchor="start" x="266" y="-660.5" font-family="Helvetica,sans-Serif" font-size="20.00">+ getNome()</text>
<text text-anchor="start" x="266" y="-638.5" font-family="Helvetica,sans-Serif" font-size="20.00">+ getEspecie()</text>
<text text-anchor="start" x="266" y="-616.5" font-family="Helvetica,sans-Serif" font-size="20.00">+ getAmeacadoPor()</text>
<text text-anchor="start" x="266" y="-594.5" font-family="Helvetica,sans-Serif" font-size="20.00">+ getVeterinario()</text>
<text text-anchor="start" x="266" y="-572.5" font-family="Helvetica,sans-Serif" font-size="20.00">+ getTratador()</text>
<text text-anchor="start" x="266" y="-550.5" font-family="Helvetica,sans-Serif" font-size="20.00">+ getPerigoso()</text>
<text text-anchor="start" x="266" y="-528.5" font-family="Helvetica,sans-Serif" font-size="20.00">+ setNome()</text>
<text text-anchor="start" x="266" y="-506.5" font-family="Helvetica,sans-Serif" font-size="20.00">e 15 mais...</text>
</a>
</g>
</g>
<!-- Node2&#45;&gt;Node1 -->
<g id="edge1" class="edge">
<title>Node2&#45;&gt;Node1</title>
<path fill="none" stroke="midnightblue" d="M369.5,-486.31C369.5,-477.33 369.5,-468.42 369.5,-459.66"/>
<polygon fill="none" stroke="midnightblue" points="366,-486.48 369.5,-496.48 373,-486.48 366,-486.48"/>
</g>
</g>
</svg>
