<?xml version="1.0" encoding="UTF-8" standalone="no"?>
<!DOCTYPE svg PUBLIC "-//W3C//DTD SVG 1.1//EN"
 "http://www.w3.org/Graphics/SVG/1.1/DTD/svg11.dtd">
<!-- Generated by graphviz version 2.43.0 (0)
 -->
<!-- Title: Anfibio Pages: 1 -->
<!--zoomable 837 -->
<svg id="main" version="1.1" xmlns="http://www.w3.org/2000/svg" xmlns:xlink="http://www.w3.org/1999/xlink" xml:space="preserve" onload="init(evt)">
<style type="text/css"><![CDATA[
.edge:hover path { stroke: red; }
.edge:hover polygon { stroke: red; fill: red; }
]]></style>
<script type="text/javascript"><![CDATA[
var edges = document.getElementsByTagName('g');
if (edges && edges.length) {
  for (var i=0;i<edges.length;i++) {
    if (edges[i].id.substr(0,4)=='edge') {
      edges[i].setAttribute('class','edge');
    }
  }
}
]]></script>
        <defs>
                <circle id="rim" cx="0" cy="0" r="7"/>
                <circle id="rim2" cx="0" cy="0" r="3.5"/>
                <g id="zoomPlus">
                        <use xlink:href="#rim" fill="#404040">
                                <set attributeName="fill" to="#808080" begin="zoomplus.mouseover" end="zoomplus.mouseout"/>
                        </use>
                        <path d="M-4,0h8M0,-4v8" fill="none" stroke="white" stroke-width="1.5" pointer-events="none"/>
                </g>
                <g id="zoomMin">
                        <use xlink:href="#rim" fill="#404040">
                                <set attributeName="fill" to="#808080" begin="zoomminus.mouseover" end="zoomminus.mouseout"/>
                        </use>
                        <path d="M-4,0h8" fill="none" stroke="white" stroke-width="1.5" pointer-events="none"/>
                </g>
                <g id="dirArrow">
                        <path fill="none" stroke="white" stroke-width="1.5" d="M0,-3.0v7 M-2.5,-0.5L0,-3.0L2.5,-0.5"/>
                </g>
               <g id="resetDef">
                       <use xlink:href="#rim2" fill="#404040">
                               <set attributeName="fill" to="#808080" begin="reset.mouseover" end="reset.mouseout"/>
                       </use>
               </g>
        </defs>

<script type="text/javascript">
var viewWidth = 704;
var viewHeight = 837;
var sectionId = 'dynsection-0';
</script>
<script xlink:href="svgpan.js"/>
<svg id="graph" class="graph">
<g id="viewport">
<title>Anfibio</title>
<polygon fill="white" stroke="transparent" points="-4,4 -4,-833 700,-833 700,4 -4,4"/>
<!-- Node1 -->
<g id="node1" class="node">
<title>Node1</title>
<g id="a_node1"><a xlink:title="Classificação base para Anfibios.">
<polygon fill="#bfbfbf" stroke="black" points="294.5,-149.5 294.5,-327.5 444.5,-327.5 444.5,-149.5 294.5,-149.5"/>
<text text-anchor="middle" x="369.5" y="-307.5" font-family="Helvetica,sans-Serif" font-size="20.00">Anfibio</text>
<polyline fill="none" stroke="black" points="294.5,-297.5 444.5,-297.5 "/>
<text text-anchor="start" x="302.5" y="-277.5" font-family="Helvetica,sans-Serif" font-size="20.00"># cauda</text>
<text text-anchor="start" x="302.5" y="-255.5" font-family="Helvetica,sans-Serif" font-size="20.00"># pata</text>
<polyline fill="none" stroke="black" points="294.5,-245.5 444.5,-245.5 "/>
<text text-anchor="start" x="302.5" y="-225.5" font-family="Helvetica,sans-Serif" font-size="20.00">+ Anfibio()</text>
<text text-anchor="start" x="302.5" y="-203.5" font-family="Helvetica,sans-Serif" font-size="20.00">+ ~Anfibio()</text>
<text text-anchor="start" x="302.5" y="-181.5" font-family="Helvetica,sans-Serif" font-size="20.00">+ getCauda()</text>
<text text-anchor="start" x="302.5" y="-159.5" font-family="Helvetica,sans-Serif" font-size="20.00">+ getPata()</text>
</a>
</g>
</g>
<!-- Node3 -->
<g id="node3" class="node">
<title>Node3</title>
<g id="a_node3"><a xlink:href="classAnfibioDomestico.html" target="_top" xlink:title="Implementação de animal com Classe e Categoria.">
<polygon fill="white" stroke="black" points="0,-0.5 0,-112.5 245,-112.5 245,-0.5 0,-0.5"/>
<text text-anchor="middle" x="122.5" y="-92.5" font-family="Helvetica,sans-Serif" font-size="20.00">AnfibioDomestico</text>
<polyline fill="none" stroke="black" points="0,-82.5 245,-82.5 "/>
<text text-anchor="middle" x="122.5" y="-62.5" font-family="Helvetica,sans-Serif" font-size="20.00"> </text>
<polyline fill="none" stroke="black" points="0,-52.5 245,-52.5 "/>
<text text-anchor="start" x="8" y="-32.5" font-family="Helvetica,sans-Serif" font-size="20.00">+ AnfibioDomestico()</text>
<text text-anchor="start" x="8" y="-10.5" font-family="Helvetica,sans-Serif" font-size="20.00">+ ~AnfibioDomestico()</text>
</a>
</g>
</g>
<!-- Node1&#45;&gt;Node3 -->
<g id="edge2" class="edge">
<title>Node1&#45;&gt;Node3</title>
<path fill="none" stroke="midnightblue" d="M286.05,-176.69C257.58,-155.94 225.93,-132.87 198.11,-112.6"/>
<polygon fill="none" stroke="midnightblue" points="284.24,-179.7 294.39,-182.76 288.37,-174.04 284.24,-179.7"/>
</g>
<!-- Node4 -->
<g id="node4" class="node">
<title>Node4</title>
<g id="a_node4"><a xlink:href="classAnfibioExotico.html" target="_top" xlink:title="Implementação de animal com Classe e Categoria.">
<polygon fill="white" stroke="black" points="263.5,-0.5 263.5,-112.5 475.5,-112.5 475.5,-0.5 263.5,-0.5"/>
<text text-anchor="middle" x="369.5" y="-92.5" font-family="Helvetica,sans-Serif" font-size="20.00">AnfibioExotico</text>
<polyline fill="none" stroke="black" points="263.5,-82.5 475.5,-82.5 "/>
<text text-anchor="middle" x="369.5" y="-62.5" font-family="Helvetica,sans-Serif" font-size="20.00"> </text>
<polyline fill="none" stroke="black" points="263.5,-52.5 475.5,-52.5 "/>
<text text-anchor="start" x="271.5" y="-32.5" font-family="Helvetica,sans-Serif" font-size="20.00">+ AnfibioExotico()</text>
<text text-anchor="start" x="271.5" y="-10.5" font-family="Helvetica,sans-Serif" font-size="20.00">+ ~AnfibioExotico()</text>
</a>
</g>
</g>
<!-- Node1&#45;&gt;Node4 -->
<g id="edge3" class="edge">
<title>Node1&#45;&gt;Node4</title>
<path fill="none" stroke="midnightblue" d="M369.5,-139.12C369.5,-130.1 369.5,-121.18 369.5,-112.75"/>
<polygon fill="none" stroke="midnightblue" points="366,-139.35 369.5,-149.35 373,-139.35 366,-139.35"/>
</g>
<!-- Node5 -->
<g id="node5" class="node">
<title>Node5</title>
<g id="a_node5"><a xlink:href="classAnfibioNativo.html" target="_top" xlink:title="Implementação de animal com Classe e Categoria.">
<polygon fill="white" stroke="black" points="493,-0.5 493,-112.5 696,-112.5 696,-0.5 493,-0.5"/>
<text text-anchor="middle" x="594.5" y="-92.5" font-family="Helvetica,sans-Serif" font-size="20.00">AnfibioNativo</text>
<polyline fill="none" stroke="black" points="493,-82.5 696,-82.5 "/>
<text text-anchor="middle" x="594.5" y="-62.5" font-family="Helvetica,sans-Serif" font-size="20.00"> </text>
<polyline fill="none" stroke="black" points="493,-52.5 696,-52.5 "/>
<text text-anchor="start" x="501" y="-32.5" font-family="Helvetica,sans-Serif" font-size="20.00">+ AnfibioNativo()</text>
<text text-anchor="start" x="501" y="-10.5" font-family="Helvetica,sans-Serif" font-size="20.00">+ ~AnfibioNativo()</text>
</a>
</g>
</g>
<!-- Node1&#45;&gt;Node5 -->
<g id="edge4" class="edge">
<title>Node1&#45;&gt;Node5</title>
<path fill="none" stroke="midnightblue" d="M452.76,-170.89C476.66,-151.77 502.46,-131.13 525.41,-112.77"/>
<polygon fill="none" stroke="midnightblue" points="450.36,-168.33 444.73,-177.31 454.73,-173.8 450.36,-168.33"/>
</g>
<!-- Node2 -->
<g id="node2" class="node">
<title>Node2</title>
<g id="a_node2"><a xlink:href="classAnimal.html" target="_top" xlink:title="Implementação base para o cadastro de animais.">
<polygon fill="white" stroke="black" points="258,-364.5 258,-828.5 481,-828.5 481,-364.5 258,-364.5"/>
<text text-anchor="middle" x="369.5" y="-808.5" font-family="Helvetica,sans-Serif" font-size="20.00">Animal</text>
<polyline fill="none" stroke="black" points="258,-798.5 481,-798.5 "/>
<text text-anchor="start" x="266" y="-778.5" font-family="Helvetica,sans-Serif" font-size="20.00"># nome</text>
<text text-anchor="start" x="266" y="-756.5" font-family="Helvetica,sans-Serif" font-size="20.00"># especie</text>
<text text-anchor="start" x="266" y="-734.5" font-family="Helvetica,sans-Serif" font-size="20.00"># ameacadoPor</text>
<text text-anchor="start" x="266" y="-712.5" font-family="Helvetica,sans-Serif" font-size="20.00"># veterinario</text>
<text text-anchor="start" x="266" y="-690.5" font-family="Helvetica,sans-Serif" font-size="20.00"># tratador</text>
<text text-anchor="start" x="266" y="-668.5" font-family="Helvetica,sans-Serif" font-size="20.00"># perigoso</text>
<polyline fill="none" stroke="black" points="258,-658.5 481,-658.5 "/>
<text text-anchor="start" x="266" y="-638.5" font-family="Helvetica,sans-Serif" font-size="20.00">+ Animal()</text>
<text text-anchor="start" x="266" y="-616.5" font-family="Helvetica,sans-Serif" font-size="20.00">+ Animal()</text>
<text text-anchor="start" x="266" y="-594.5" font-family="Helvetica,sans-Serif" font-size="20.00">+ ~Animal()</text>
<text text-anchor="start" x="266" y="-572.5" font-family="Helvetica,sans-Serif" font-size="20.00">+ getNome()</text>
<text text-anchor="start" x="266" y="-550.5" font-family="Helvetica,sans-Serif" font-size="20.00">+ getEspecie()</text>
<text text-anchor="start" x="266" y="-528.5" font-family="Helvetica,sans-Serif" font-size="20.00">+ getAmeacadoPor()</text>
<text text-anchor="start" x="266" y="-506.5" font-family="Helvetica,sans-Serif" font-size="20.00">+ getVeterinario()</text>
<text text-anchor="start" x="266" y="-484.5" font-family="Helvetica,sans-Serif" font-size="20.00">+ getTratador()</text>
<text text-anchor="start" x="266" y="-462.5" font-family="Helvetica,sans-Serif" font-size="20.00">+ getPerigoso()</text>
<text text-anchor="start" x="266" y="-440.5" font-family="Helvetica,sans-Serif" font-size="20.00">+ getClassificacao()</text>
<text text-anchor="start" x="266" y="-418.5" font-family="Helvetica,sans-Serif" font-size="20.00">+ getClasse()</text>
<text text-anchor="start" x="266" y="-396.5" font-family="Helvetica,sans-Serif" font-size="20.00">+ printOutDados()</text>
<text text-anchor="start" x="266" y="-374.5" font-family="Helvetica,sans-Serif" font-size="20.00">+ operator==()</text>
</a>
</g>
</g>
<!-- Node2&#45;&gt;Node1 -->
<g id="edge1" class="edge">
<title>Node2&#45;&gt;Node1</title>
<path fill="none" stroke="midnightblue" d="M369.5,-353.99C369.5,-344.98 369.5,-336.22 369.5,-327.82"/>
<polygon fill="none" stroke="midnightblue" points="366,-354.26 369.5,-364.26 373,-354.26 366,-354.26"/>
</g>
</g>
</svg>
        <g id="navigator" transform="translate(0 0)" fill="#404254">
                <rect fill="#f2f5e9" fill-opacity="0.5" stroke="#606060" stroke-width=".5" x="0" y="0" width="60" height="60"/>
                <use id="zoomplus" xlink:href="#zoomPlus" x="17" y="9" onmousedown="handleZoom(evt,'in')"/>
                <use id="zoomminus" xlink:href="#zoomMin" x="42" y="9" onmousedown="handleZoom(evt,'out')"/>
                <use id="reset" xlink:href="#resetDef" x="30" y="36" onmousedown="handleReset()"/>
                <g id="arrowUp" xlink:href="#dirArrow" transform="translate(30 24)" onmousedown="handlePan(0,-1)">
                  <use xlink:href="#rim" fill="#404040">
                        <set attributeName="fill" to="#808080" begin="arrowUp.mouseover" end="arrowUp.mouseout"/>
                  </use>
                  <path fill="none" stroke="white" stroke-width="1.5" d="M0,-3.0v7 M-2.5,-0.5L0,-3.0L2.5,-0.5"/>
                </g>
                <g id="arrowRight" xlink:href="#dirArrow" transform="rotate(90) translate(36 -43)" onmousedown="handlePan(1,0)">
                  <use xlink:href="#rim" fill="#404040">
                        <set attributeName="fill" to="#808080" begin="arrowRight.mouseover" end="arrowRight.mouseout"/>
                  </use>
                  <path fill="none" stroke="white" stroke-width="1.5" d="M0,-3.0v7 M-2.5,-0.5L0,-3.0L2.5,-0.5"/>
                </g>
                <g id="arrowDown" xlink:href="#dirArrow" transform="rotate(180) translate(-30 -48)" onmousedown="handlePan(0,1)">
                  <use xlink:href="#rim" fill="#404040">
                        <set attributeName="fill" to="#808080" begin="arrowDown.mouseover" end="arrowDown.mouseout"/>
                  </use>
                  <path fill="none" stroke="white" stroke-width="1.5" d="M0,-3.0v7 M-2.5,-0.5L0,-3.0L2.5,-0.5"/>
                </g>
                <g id="arrowLeft" xlink:href="#dirArrow" transform="rotate(270) translate(-36 17)" onmousedown="handlePan(-1,0)">
                  <use xlink:href="#rim" fill="#404040">
                        <set attributeName="fill" to="#808080" begin="arrowLeft.mouseover" end="arrowLeft.mouseout"/>
                  </use>
                  <path fill="none" stroke="white" stroke-width="1.5" d="M0,-3.0v7 M-2.5,-0.5L0,-3.0L2.5,-0.5"/>
                </g>
        </g>
        <svg viewBox="0 0 15 15" width="100%" height="30px" preserveAspectRatio="xMaxYMin meet">
         <g id="arrow_out" transform="scale(0.3 0.3)">
          <a xlink:href="classAnfibio__inherit__graph_org.svg" target="_base">
           <rect id="button" ry="5" rx="5" y="6" x="6" height="38" width="38"
                fill="#f2f5e9" fill-opacity="0.5" stroke="#606060" stroke-width="1.0"/>
           <path id="arrow"
             d="M 11.500037,31.436501 C 11.940474,20.09759 22.043105,11.32322 32.158766,21.979434 L 37.068811,17.246167 C 37.068811,17.246167 37.088388,32 37.088388,32 L 22.160133,31.978069 C 22.160133,31.978069 26.997745,27.140456 26.997745,27.140456 C 18.528582,18.264221 13.291696,25.230495 11.500037,31.436501 z"
             style="fill:#404040;"/>
          </a>
         </g>
        </svg>
</svg>
