<?xml version="1.0" encoding="UTF-8" standalone="no"?>
<!DOCTYPE svg PUBLIC "-//W3C//DTD SVG 1.1//EN"
 "http://www.w3.org/Graphics/SVG/1.1/DTD/svg11.dtd">
<!-- Generated by graphviz version 2.43.0 (0)
 -->
<!-- Title: Reptil Pages: 1 -->
<svg width="590pt" height="1619pt"
 viewBox="0.00 0.00 590.40 1619.00" xmlns="http://www.w3.org/2000/svg" xmlns:xlink="http://www.w3.org/1999/xlink">
<g id="graph0" class="graph" transform="scale(1 1) rotate(0) translate(4 1615)">
<title>Reptil</title>
<polygon fill="white" stroke="transparent" points="-4,4 -4,-1615 586.4,-1615 586.4,4 -4,4"/>
<!-- Node1 -->
<g id="node1" class="node">
<title>Node1</title>
<g id="a_node1"><a xlink:title="Classificação base para Repteis.">
<polygon fill="#bfbfbf" stroke="black" points="299.9,-0.5 299.9,-200.5 426.9,-200.5 426.9,-0.5 299.9,-0.5"/>
<text text-anchor="middle" x="363.4" y="-180.5" font-family="Helvetica,sans-Serif" font-size="20.00">Reptil</text>
<polyline fill="none" stroke="black" points="299.9,-170.5 426.9,-170.5 "/>
<text text-anchor="middle" x="363.4" y="-150.5" font-family="Helvetica,sans-Serif" font-size="20.00"> </text>
<polyline fill="none" stroke="black" points="299.9,-140.5 426.9,-140.5 "/>
<text text-anchor="start" x="307.9" y="-120.5" font-family="Helvetica,sans-Serif" font-size="20.00">+ Reptil()</text>
<text text-anchor="start" x="307.9" y="-98.5" font-family="Helvetica,sans-Serif" font-size="20.00">+ Reptil()</text>
<text text-anchor="start" x="307.9" y="-76.5" font-family="Helvetica,sans-Serif" font-size="20.00">+ ~Reptil()</text>
<text text-anchor="start" x="307.9" y="-54.5" font-family="Helvetica,sans-Serif" font-size="20.00">+ getPele()</text>
<text text-anchor="start" x="307.9" y="-32.5" font-family="Helvetica,sans-Serif" font-size="20.00">+ setPele()</text>
<text text-anchor="start" x="307.9" y="-10.5" font-family="Helvetica,sans-Serif" font-size="20.00">+ setPele()</text>
</a>
</g>
</g>
<!-- Node2 -->
<g id="node2" class="node">
<title>Node2</title>
<g id="a_node2"><a xlink:href="classAnimal.html" target="_top" xlink:title="Implementação base para o cadastro de animais.">
<polygon fill="white" stroke="black" points="172.9,-259.5 172.9,-635.5 395.9,-635.5 395.9,-259.5 172.9,-259.5"/>
<text text-anchor="middle" x="284.4" y="-615.5" font-family="Helvetica,sans-Serif" font-size="20.00">Animal</text>
<polyline fill="none" stroke="black" points="172.9,-605.5 395.9,-605.5 "/>
<text text-anchor="middle" x="284.4" y="-585.5" font-family="Helvetica,sans-Serif" font-size="20.00"> </text>
<polyline fill="none" stroke="black" points="172.9,-575.5 395.9,-575.5 "/>
<text text-anchor="start" x="180.9" y="-555.5" font-family="Helvetica,sans-Serif" font-size="20.00">+ Animal()</text>
<text text-anchor="start" x="180.9" y="-533.5" font-family="Helvetica,sans-Serif" font-size="20.00">+ Animal()</text>
<text text-anchor="start" x="180.9" y="-511.5" font-family="Helvetica,sans-Serif" font-size="20.00">+ ~Animal()</text>
<text text-anchor="start" x="180.9" y="-489.5" font-family="Helvetica,sans-Serif" font-size="20.00">+ getNome()</text>
<text text-anchor="start" x="180.9" y="-467.5" font-family="Helvetica,sans-Serif" font-size="20.00">+ getEspecie()</text>
<text text-anchor="start" x="180.9" y="-445.5" font-family="Helvetica,sans-Serif" font-size="20.00">+ getAmeacadoPor()</text>
<text text-anchor="start" x="180.9" y="-423.5" font-family="Helvetica,sans-Serif" font-size="20.00">+ getVeterinario()</text>
<text text-anchor="start" x="180.9" y="-401.5" font-family="Helvetica,sans-Serif" font-size="20.00">+ getTratador()</text>
<text text-anchor="start" x="180.9" y="-379.5" font-family="Helvetica,sans-Serif" font-size="20.00">+ getPerigoso()</text>
<text text-anchor="start" x="180.9" y="-357.5" font-family="Helvetica,sans-Serif" font-size="20.00">+ setNome()</text>
<text text-anchor="start" x="180.9" y="-335.5" font-family="Helvetica,sans-Serif" font-size="20.00">e 13 mais...</text>
<text text-anchor="start" x="180.9" y="-313.5" font-family="Helvetica,sans-Serif" font-size="20.00">+ getClassificacao()</text>
<text text-anchor="start" x="180.9" y="-291.5" font-family="Helvetica,sans-Serif" font-size="20.00">+ getClasse()</text>
<text text-anchor="start" x="180.9" y="-269.5" font-family="Helvetica,sans-Serif" font-size="20.00">+ printOutDetails()</text>
</a>
</g>
</g>
<!-- Node2&#45;&gt;Node1 -->
<g id="edge1" class="edge">
<title>Node2&#45;&gt;Node1</title>
<path fill="none" stroke="midnightblue" d="M329.51,-249.48C333.34,-232.77 337.1,-216.36 340.64,-200.91"/>
<polygon fill="none" stroke="midnightblue" points="326.07,-248.83 327.25,-259.36 332.9,-250.39 326.07,-248.83"/>
</g>
<!-- Node3 -->
<g id="node3" class="node">
<title>Node3</title>
<g id="a_node3"><a xlink:href="classTratador.html" target="_top" xlink:title="Implementação dos tratadores.">
<polygon fill="white" stroke="black" points="277.4,-694.5 277.4,-916.5 477.4,-916.5 477.4,-694.5 277.4,-694.5"/>
<text text-anchor="middle" x="377.4" y="-896.5" font-family="Helvetica,sans-Serif" font-size="20.00">Tratador</text>
<polyline fill="none" stroke="black" points="277.4,-886.5 477.4,-886.5 "/>
<text text-anchor="middle" x="377.4" y="-866.5" font-family="Helvetica,sans-Serif" font-size="20.00"> </text>
<polyline fill="none" stroke="black" points="277.4,-856.5 477.4,-856.5 "/>
<text text-anchor="start" x="285.4" y="-836.5" font-family="Helvetica,sans-Serif" font-size="20.00">+ Tratador()</text>
<text text-anchor="start" x="285.4" y="-814.5" font-family="Helvetica,sans-Serif" font-size="20.00">+ Tratador()</text>
<text text-anchor="start" x="285.4" y="-792.5" font-family="Helvetica,sans-Serif" font-size="20.00">+ ~Tratador()</text>
<text text-anchor="start" x="285.4" y="-770.5" font-family="Helvetica,sans-Serif" font-size="20.00">+ getUniforme()</text>
<text text-anchor="start" x="285.4" y="-748.5" font-family="Helvetica,sans-Serif" font-size="20.00">+ setUniforme()</text>
<text text-anchor="start" x="285.4" y="-726.5" font-family="Helvetica,sans-Serif" font-size="20.00">+ setUniforme()</text>
<text text-anchor="start" x="285.4" y="-704.5" font-family="Helvetica,sans-Serif" font-size="20.00">+ printOutDados()</text>
</a>
</g>
</g>
<!-- Node3&#45;&gt;Node2 -->
<g id="edge2" class="edge">
<title>Node3&#45;&gt;Node2</title>
<path fill="none" stroke="#404040" d="M348.61,-694.3C344.68,-679.26 340.56,-663.47 336.37,-647.44"/>
<polygon fill="none" stroke="#404040" points="336.35,-647.35 330.96,-642.56 333.31,-635.74 338.7,-640.54 336.35,-647.35"/>
<text text-anchor="middle" x="393.9" y="-660" font-family="Helvetica,sans-Serif" font-size="20.00"> #tratador</text>
</g>
<!-- Node4 -->
<g id="node4" class="node">
<title>Node4</title>
<g id="a_node4"><a xlink:href="classPessoa.html" target="_top" xlink:title="Classe base dos funcionarios.">
<polygon fill="white" stroke="black" points="250.4,-1019.5 250.4,-1417.5 450.4,-1417.5 450.4,-1019.5 250.4,-1019.5"/>
<text text-anchor="middle" x="350.4" y="-1397.5" font-family="Helvetica,sans-Serif" font-size="20.00">Pessoa</text>
<polyline fill="none" stroke="black" points="250.4,-1387.5 450.4,-1387.5 "/>
<text text-anchor="middle" x="350.4" y="-1367.5" font-family="Helvetica,sans-Serif" font-size="20.00"> </text>
<polyline fill="none" stroke="black" points="250.4,-1357.5 450.4,-1357.5 "/>
<text text-anchor="start" x="258.4" y="-1337.5" font-family="Helvetica,sans-Serif" font-size="20.00">+ Pessoa()</text>
<text text-anchor="start" x="258.4" y="-1315.5" font-family="Helvetica,sans-Serif" font-size="20.00">+ Pessoa()</text>
<text text-anchor="start" x="258.4" y="-1293.5" font-family="Helvetica,sans-Serif" font-size="20.00">+ ~Pessoa()</text>
<text text-anchor="start" x="258.4" y="-1271.5" font-family="Helvetica,sans-Serif" font-size="20.00">+ getNome()</text>
<text text-anchor="start" x="258.4" y="-1249.5" font-family="Helvetica,sans-Serif" font-size="20.00">+ setNome()</text>
<text text-anchor="start" x="258.4" y="-1227.5" font-family="Helvetica,sans-Serif" font-size="20.00">+ setNome()</text>
<text text-anchor="start" x="258.4" y="-1205.5" font-family="Helvetica,sans-Serif" font-size="20.00">+ getTelefone()</text>
<text text-anchor="start" x="258.4" y="-1183.5" font-family="Helvetica,sans-Serif" font-size="20.00">+ setTelefone()</text>
<text text-anchor="start" x="258.4" y="-1161.5" font-family="Helvetica,sans-Serif" font-size="20.00">+ setTelefone()</text>
<text text-anchor="start" x="258.4" y="-1139.5" font-family="Helvetica,sans-Serif" font-size="20.00">+ getEmail()</text>
<text text-anchor="start" x="258.4" y="-1117.5" font-family="Helvetica,sans-Serif" font-size="20.00">+ setEmail()</text>
<text text-anchor="start" x="258.4" y="-1095.5" font-family="Helvetica,sans-Serif" font-size="20.00">+ setEmail()</text>
<text text-anchor="start" x="258.4" y="-1073.5" font-family="Helvetica,sans-Serif" font-size="20.00">+ printOutDados()</text>
<text text-anchor="start" x="258.4" y="-1051.5" font-family="Helvetica,sans-Serif" font-size="20.00">+ operator==()</text>
<text text-anchor="start" x="258.4" y="-1029.5" font-family="Helvetica,sans-Serif" font-size="20.00">+ operator==()</text>
</a>
</g>
</g>
<!-- Node4&#45;&gt;Node3 -->
<g id="edge3" class="edge">
<title>Node4&#45;&gt;Node3</title>
<path fill="none" stroke="midnightblue" d="M364.11,-1008.88C366.2,-977 368.29,-945.23 370.17,-916.62"/>
<polygon fill="none" stroke="midnightblue" points="360.59,-1009.02 363.43,-1019.22 367.57,-1009.47 360.59,-1009.02"/>
</g>
<!-- Node8 -->
<g id="node8" class="node">
<title>Node8</title>
<g id="a_node8"><a xlink:href="classVeterinario.html" target="_top" xlink:title="Implementação dos veterinarios.">
<polygon fill="white" stroke="black" points="59.4,-694.5 59.4,-916.5 259.4,-916.5 259.4,-694.5 59.4,-694.5"/>
<text text-anchor="middle" x="159.4" y="-896.5" font-family="Helvetica,sans-Serif" font-size="20.00">Veterinario</text>
<polyline fill="none" stroke="black" points="59.4,-886.5 259.4,-886.5 "/>
<text text-anchor="middle" x="159.4" y="-866.5" font-family="Helvetica,sans-Serif" font-size="20.00"> </text>
<polyline fill="none" stroke="black" points="59.4,-856.5 259.4,-856.5 "/>
<text text-anchor="start" x="67.4" y="-836.5" font-family="Helvetica,sans-Serif" font-size="20.00">+ Veterinario()</text>
<text text-anchor="start" x="67.4" y="-814.5" font-family="Helvetica,sans-Serif" font-size="20.00">+ Veterinario()</text>
<text text-anchor="start" x="67.4" y="-792.5" font-family="Helvetica,sans-Serif" font-size="20.00">+ ~Veterinario()</text>
<text text-anchor="start" x="67.4" y="-770.5" font-family="Helvetica,sans-Serif" font-size="20.00">+ getCRMV()</text>
<text text-anchor="start" x="67.4" y="-748.5" font-family="Helvetica,sans-Serif" font-size="20.00">+ setCRMV()</text>
<text text-anchor="start" x="67.4" y="-726.5" font-family="Helvetica,sans-Serif" font-size="20.00">+ setCRMV()</text>
<text text-anchor="start" x="67.4" y="-704.5" font-family="Helvetica,sans-Serif" font-size="20.00">+ printOutDados()</text>
</a>
</g>
</g>
<!-- Node4&#45;&gt;Node8 -->
<g id="edge9" class="edge">
<title>Node4&#45;&gt;Node8</title>
<path fill="none" stroke="midnightblue" d="M254.03,-1010.12C239.02,-977.83 224.04,-945.6 210.58,-916.62"/>
<polygon fill="none" stroke="midnightblue" points="250.87,-1011.63 258.26,-1019.22 257.22,-1008.68 250.87,-1011.63"/>
</g>
<!-- Node5 -->
<g id="node5" class="node">
<title>Node5</title>
<g id="a_node5"><a xlink:title=" ">
<polygon fill="white" stroke="#bfbfbf" points="122.4,-1520.5 122.4,-1610.5 196.4,-1610.5 196.4,-1520.5 122.4,-1520.5"/>
<text text-anchor="middle" x="159.4" y="-1590.5" font-family="Helvetica,sans-Serif" font-size="20.00">string</text>
<polyline fill="none" stroke="#bfbfbf" points="122.4,-1580.5 196.4,-1580.5 "/>
<text text-anchor="middle" x="159.4" y="-1560.5" font-family="Helvetica,sans-Serif" font-size="20.00"> </text>
<polyline fill="none" stroke="#bfbfbf" points="122.4,-1550.5 196.4,-1550.5 "/>
<text text-anchor="middle" x="159.4" y="-1530.5" font-family="Helvetica,sans-Serif" font-size="20.00"> </text>
</a>
</g>
</g>
<!-- Node5&#45;&gt;Node2 -->
<g id="edge7" class="edge">
<title>Node5&#45;&gt;Node2</title>
<path fill="none" stroke="#404040" d="M137.52,-1520.25C89.68,-1418.57 -18.31,-1159.71 3.4,-935 13.89,-826.38 0.3,-790.95 50.4,-694 78.41,-639.8 122.08,-589.26 164.14,-548.29"/>
<polygon fill="none" stroke="#404040" points="164.16,-548.28 165.71,-541.24 172.81,-539.97 171.25,-547.01 164.16,-548.28"/>
<text text-anchor="middle" x="79.4" y="-985" font-family="Helvetica,sans-Serif" font-size="20.00"> #especie</text>
<text text-anchor="middle" x="79.4" y="-963" font-family="Helvetica,sans-Serif" font-size="20.00">#ameacadoPor</text>
<text text-anchor="middle" x="79.4" y="-941" font-family="Helvetica,sans-Serif" font-size="20.00">#nome</text>
</g>
<!-- Node5&#45;&gt;Node4 -->
<g id="edge4" class="edge">
<title>Node5&#45;&gt;Node4</title>
<path fill="none" stroke="#404040" d="M183.78,-1520.46C199.65,-1491.8 221.56,-1452.22 244.28,-1411.18"/>
<polygon fill="none" stroke="#404040" points="244.42,-1410.94 243.82,-1403.75 250.23,-1400.44 250.82,-1407.63 244.42,-1410.94"/>
<text text-anchor="middle" x="275.9" y="-1486" font-family="Helvetica,sans-Serif" font-size="20.00"> #email</text>
<text text-anchor="middle" x="275.9" y="-1464" font-family="Helvetica,sans-Serif" font-size="20.00">#nome</text>
<text text-anchor="middle" x="275.9" y="-1442" font-family="Helvetica,sans-Serif" font-size="20.00">#telefone</text>
</g>
<!-- Node5&#45;&gt;Node8 -->
<g id="edge10" class="edge">
<title>Node5&#45;&gt;Node8</title>
<path fill="none" stroke="#404040" d="M159.4,-1520.47C159.4,-1406.92 159.4,-1101.02 159.4,-928.74"/>
<polygon fill="none" stroke="#404040" points="159.4,-928.57 155.4,-922.57 159.4,-916.57 163.4,-922.57 159.4,-928.57"/>
<text text-anchor="middle" x="195.9" y="-1213.5" font-family="Helvetica,sans-Serif" font-size="20.00"> &#45;CRMV</text>
</g>
<!-- Node6 -->
<g id="node6" class="node">
<title>Node6</title>
<g id="a_node6"><a xlink:title=" ">
<polygon fill="white" stroke="#bfbfbf" points="468.9,-1173.5 468.9,-1263.5 575.9,-1263.5 575.9,-1173.5 468.9,-1173.5"/>
<text text-anchor="middle" x="522.4" y="-1243.5" font-family="Helvetica,sans-Serif" font-size="20.00">Uniforme</text>
<polyline fill="none" stroke="#bfbfbf" points="468.9,-1233.5 575.9,-1233.5 "/>
<text text-anchor="middle" x="522.4" y="-1213.5" font-family="Helvetica,sans-Serif" font-size="20.00"> </text>
<polyline fill="none" stroke="#bfbfbf" points="468.9,-1203.5 575.9,-1203.5 "/>
<text text-anchor="middle" x="522.4" y="-1183.5" font-family="Helvetica,sans-Serif" font-size="20.00"> </text>
</a>
</g>
</g>
<!-- Node6&#45;&gt;Node3 -->
<g id="edge5" class="edge">
<title>Node6&#45;&gt;Node3</title>
<path fill="none" stroke="#404040" d="M509.27,-1173.49C497.03,-1133.09 477.91,-1071.7 459.4,-1019 448.97,-989.31 437.1,-957.54 425.69,-927.86"/>
<polygon fill="none" stroke="#404040" points="425.67,-927.79 419.78,-923.63 421.35,-916.59 427.24,-920.75 425.67,-927.79"/>
<text text-anchor="middle" x="501.9" y="-963" font-family="Helvetica,sans-Serif" font-size="20.00"> &#45;uniforme</text>
</g>
<!-- Node7 -->
<g id="node7" class="node">
<title>Node7</title>
<g id="a_node7"><a xlink:title=" ">
<polygon fill="white" stroke="#bfbfbf" points="495.9,-760.5 495.9,-850.5 554.9,-850.5 554.9,-760.5 495.9,-760.5"/>
<text text-anchor="middle" x="525.4" y="-830.5" font-family="Helvetica,sans-Serif" font-size="20.00">bool</text>
<polyline fill="none" stroke="#bfbfbf" points="495.9,-820.5 554.9,-820.5 "/>
<text text-anchor="middle" x="525.4" y="-800.5" font-family="Helvetica,sans-Serif" font-size="20.00"> </text>
<polyline fill="none" stroke="#bfbfbf" points="495.9,-790.5 554.9,-790.5 "/>
<text text-anchor="middle" x="525.4" y="-770.5" font-family="Helvetica,sans-Serif" font-size="20.00"> </text>
</a>
</g>
</g>
<!-- Node7&#45;&gt;Node2 -->
<g id="edge6" class="edge">
<title>Node7&#45;&gt;Node2</title>
<path fill="none" stroke="#404040" d="M514.35,-760.44C507.98,-739.42 498.75,-714.47 486.4,-694 473.89,-673.26 469.35,-667.72 449.4,-654 434.15,-643.51 424.14,-647.89 405.78,-636.01"/>
<polygon fill="none" stroke="#404040" points="405.66,-635.92 398.46,-635.53 396.05,-628.74 403.25,-629.12 405.66,-635.92"/>
<text text-anchor="middle" x="527.9" y="-660" font-family="Helvetica,sans-Serif" font-size="20.00"> #perigoso</text>
</g>
<!-- Node8&#45;&gt;Node2 -->
<g id="edge8" class="edge">
<title>Node8&#45;&gt;Node2</title>
<path fill="none" stroke="#404040" d="M192.05,-694.48C196.39,-680.8 200.91,-667.04 205.4,-654 206.18,-651.73 206.97,-649.45 207.77,-647.16"/>
<polygon fill="none" stroke="#404040" points="207.85,-646.93 206.07,-639.95 211.84,-635.62 213.62,-642.6 207.85,-646.93"/>
<text text-anchor="middle" x="270.4" y="-660" font-family="Helvetica,sans-Serif" font-size="20.00"> #veterinario</text>
</g>
<!-- Node9 -->
<g id="node9" class="node">
<title>Node9</title>
<g id="a_node9"><a xlink:title=" ">
<polygon fill="white" stroke="#bfbfbf" points="413.9,-402.5 413.9,-492.5 470.9,-492.5 470.9,-402.5 413.9,-402.5"/>
<text text-anchor="middle" x="442.4" y="-472.5" font-family="Helvetica,sans-Serif" font-size="20.00">Pele</text>
<polyline fill="none" stroke="#bfbfbf" points="413.9,-462.5 470.9,-462.5 "/>
<text text-anchor="middle" x="442.4" y="-442.5" font-family="Helvetica,sans-Serif" font-size="20.00"> </text>
<polyline fill="none" stroke="#bfbfbf" points="413.9,-432.5 470.9,-432.5 "/>
<text text-anchor="middle" x="442.4" y="-412.5" font-family="Helvetica,sans-Serif" font-size="20.00"> </text>
</a>
</g>
</g>
<!-- Node9&#45;&gt;Node1 -->
<g id="edge11" class="edge">
<title>Node9&#45;&gt;Node1</title>
<path fill="none" stroke="#404040" d="M434.17,-402.41C426.89,-364.32 415.7,-307.86 404.4,-259 400.92,-243.97 397.07,-228.19 393.15,-212.67"/>
<polygon fill="none" stroke="#404040" points="393.1,-212.49 387.75,-207.66 390.15,-200.86 395.5,-205.69 393.1,-212.49"/>
<text text-anchor="middle" x="431.9" y="-225" font-family="Helvetica,sans-Serif" font-size="20.00"> #pele</text>
</g>
</g>
</svg>
