<?xml version="1.0" encoding="UTF-8" standalone="no"?>
<!DOCTYPE svg PUBLIC "-//W3C//DTD SVG 1.1//EN"
 "http://www.w3.org/Graphics/SVG/1.1/DTD/svg11.dtd">
<!-- Generated by graphviz version 2.43.0 (0)
 -->
<!-- Title: Pessoa Pages: 1 -->
<svg width="426pt" height="512pt"
 viewBox="0.00 0.00 426.00 512.00" xmlns="http://www.w3.org/2000/svg" xmlns:xlink="http://www.w3.org/1999/xlink">
<g id="graph0" class="graph" transform="scale(1 1) rotate(0) translate(4 508)">
<title>Pessoa</title>
<polygon fill="white" stroke="transparent" points="-4,4 -4,-508 422,-508 422,4 -4,4"/>
<!-- Node1 -->
<g id="node1" class="node">
<title>Node1</title>
<g id="a_node1"><a xlink:title="Classe base dos funcionarios.">
<polygon fill="#bfbfbf" stroke="black" points="109,-215.5 109,-503.5 309,-503.5 309,-215.5 109,-215.5"/>
<text text-anchor="middle" x="209" y="-483.5" font-family="Helvetica,sans-Serif" font-size="20.00">Pessoa</text>
<polyline fill="none" stroke="black" points="109,-473.5 309,-473.5 "/>
<text text-anchor="start" x="117" y="-453.5" font-family="Helvetica,sans-Serif" font-size="20.00"># nome</text>
<text text-anchor="start" x="117" y="-431.5" font-family="Helvetica,sans-Serif" font-size="20.00"># telefone</text>
<text text-anchor="start" x="117" y="-409.5" font-family="Helvetica,sans-Serif" font-size="20.00"># email</text>
<polyline fill="none" stroke="black" points="109,-399.5 309,-399.5 "/>
<text text-anchor="start" x="117" y="-379.5" font-family="Helvetica,sans-Serif" font-size="20.00">+ Pessoa()</text>
<text text-anchor="start" x="117" y="-357.5" font-family="Helvetica,sans-Serif" font-size="20.00">+ Pessoa()</text>
<text text-anchor="start" x="117" y="-335.5" font-family="Helvetica,sans-Serif" font-size="20.00">+ ~Pessoa()</text>
<text text-anchor="start" x="117" y="-313.5" font-family="Helvetica,sans-Serif" font-size="20.00">+ getNome()</text>
<text text-anchor="start" x="117" y="-291.5" font-family="Helvetica,sans-Serif" font-size="20.00">+ getTelefone()</text>
<text text-anchor="start" x="117" y="-269.5" font-family="Helvetica,sans-Serif" font-size="20.00">+ getEmail()</text>
<text text-anchor="start" x="117" y="-247.5" font-family="Helvetica,sans-Serif" font-size="20.00">+ printOutDados()</text>
<text text-anchor="start" x="117" y="-225.5" font-family="Helvetica,sans-Serif" font-size="20.00">+ operator==()</text>
</a>
</g>
</g>
<!-- Node2 -->
<g id="node2" class="node">
<title>Node2</title>
<g id="a_node2"><a xlink:href="classTratador.html" target="_top" xlink:title="Implementação dos tratadores.">
<polygon fill="white" stroke="black" points="0,-0.5 0,-178.5 200,-178.5 200,-0.5 0,-0.5"/>
<text text-anchor="middle" x="100" y="-158.5" font-family="Helvetica,sans-Serif" font-size="20.00">Tratador</text>
<polyline fill="none" stroke="black" points="0,-148.5 200,-148.5 "/>
<text text-anchor="start" x="8" y="-128.5" font-family="Helvetica,sans-Serif" font-size="20.00">&#45; uniforme</text>
<polyline fill="none" stroke="black" points="0,-118.5 200,-118.5 "/>
<text text-anchor="start" x="8" y="-98.5" font-family="Helvetica,sans-Serif" font-size="20.00">+ Tratador()</text>
<text text-anchor="start" x="8" y="-76.5" font-family="Helvetica,sans-Serif" font-size="20.00">+ Tratador()</text>
<text text-anchor="start" x="8" y="-54.5" font-family="Helvetica,sans-Serif" font-size="20.00">+ ~Tratador()</text>
<text text-anchor="start" x="8" y="-32.5" font-family="Helvetica,sans-Serif" font-size="20.00">+ getUniforme()</text>
<text text-anchor="start" x="8" y="-10.5" font-family="Helvetica,sans-Serif" font-size="20.00">+ printOutDados()</text>
</a>
</g>
</g>
<!-- Node1&#45;&gt;Node2 -->
<g id="edge1" class="edge">
<title>Node1&#45;&gt;Node2</title>
<path fill="none" stroke="midnightblue" d="M147.04,-206.15C143.26,-196.85 139.52,-187.68 135.92,-178.81"/>
<polygon fill="none" stroke="midnightblue" points="143.82,-207.53 150.83,-215.48 150.3,-204.89 143.82,-207.53"/>
</g>
<!-- Node3 -->
<g id="node3" class="node">
<title>Node3</title>
<g id="a_node3"><a xlink:href="classVeterinario.html" target="_top" xlink:title="Implementação dos veterinarios.">
<polygon fill="white" stroke="black" points="218,-0.5 218,-178.5 418,-178.5 418,-0.5 218,-0.5"/>
<text text-anchor="middle" x="318" y="-158.5" font-family="Helvetica,sans-Serif" font-size="20.00">Veterinario</text>
<polyline fill="none" stroke="black" points="218,-148.5 418,-148.5 "/>
<text text-anchor="start" x="226" y="-128.5" font-family="Helvetica,sans-Serif" font-size="20.00">&#45; CRMV</text>
<polyline fill="none" stroke="black" points="218,-118.5 418,-118.5 "/>
<text text-anchor="start" x="226" y="-98.5" font-family="Helvetica,sans-Serif" font-size="20.00">+ Veterinario()</text>
<text text-anchor="start" x="226" y="-76.5" font-family="Helvetica,sans-Serif" font-size="20.00">+ Veterinario()</text>
<text text-anchor="start" x="226" y="-54.5" font-family="Helvetica,sans-Serif" font-size="20.00">+ ~Veterinario()</text>
<text text-anchor="start" x="226" y="-32.5" font-family="Helvetica,sans-Serif" font-size="20.00">+ getCRMV()</text>
<text text-anchor="start" x="226" y="-10.5" font-family="Helvetica,sans-Serif" font-size="20.00">+ printOutDados()</text>
</a>
</g>
</g>
<!-- Node1&#45;&gt;Node3 -->
<g id="edge2" class="edge">
<title>Node1&#45;&gt;Node3</title>
<path fill="none" stroke="midnightblue" d="M270.96,-206.15C274.74,-196.85 278.48,-187.68 282.08,-178.81"/>
<polygon fill="none" stroke="midnightblue" points="267.7,-204.89 267.17,-215.48 274.18,-207.53 267.7,-204.89"/>
</g>
</g>
</svg>
