<?xml version="1.0" encoding="UTF-8" standalone="no"?>
<!DOCTYPE svg PUBLIC "-//W3C//DTD SVG 1.1//EN"
 "http://www.w3.org/Graphics/SVG/1.1/DTD/svg11.dtd">
<!-- Generated by graphviz version 2.40.1 (20161225.0304)
 -->
<!-- Title: AveExotica Pages: 1 -->
<!--zoomable 1640 -->
<svg id="main" version="1.1" xmlns="http://www.w3.org/2000/svg" xmlns:xlink="http://www.w3.org/1999/xlink" xml:space="preserve" onload="init(evt)">
<style type="text/css"><![CDATA[
.edge:hover path { stroke: red; }
.edge:hover polygon { stroke: red; fill: red; }
]]></style>
<script type="text/javascript"><![CDATA[
var edges = document.getElementsByTagName('g');
if (edges && edges.length) {
  for (var i=0;i<edges.length;i++) {
    if (edges[i].id.substr(0,4)=='edge') {
      edges[i].setAttribute('class','edge');
    }
  }
}
]]></script>
        <defs>
                <circle id="rim" cx="0" cy="0" r="7"/>
                <circle id="rim2" cx="0" cy="0" r="3.5"/>
                <g id="zoomPlus">
                        <use xlink:href="#rim" fill="#404040">
                                <set attributeName="fill" to="#808080" begin="zoomplus.mouseover" end="zoomplus.mouseout"/>
                        </use>
                        <path d="M-4,0h8M0,-4v8" fill="none" stroke="white" stroke-width="1.5" pointer-events="none"/>
                </g>
                <g id="zoomMin">
                        <use xlink:href="#rim" fill="#404040">
                                <set attributeName="fill" to="#808080" begin="zoomminus.mouseover" end="zoomminus.mouseout"/>
                        </use>
                        <path d="M-4,0h8" fill="none" stroke="white" stroke-width="1.5" pointer-events="none"/>
                </g>
                <g id="dirArrow">
                        <path fill="none" stroke="white" stroke-width="1.5" d="M0,-3.0v7 M-2.5,-0.5L0,-3.0L2.5,-0.5"/>
                </g>
               <g id="resetDef">
                       <use xlink:href="#rim2" fill="#404040">
                               <set attributeName="fill" to="#808080" begin="reset.mouseover" end="reset.mouseout"/>
                       </use>
               </g>
        </defs>

<script type="text/javascript">
var viewWidth = 763;
var viewHeight = 1640;
var sectionId = 'dynsection-1';
</script>
<script xlink:href="svgpan.js"/>
<svg id="graph" class="graph">
<g id="viewport">
<title>AveExotica</title>
<polygon fill="#ffffff" stroke="transparent" points="-4,4 -4,-1636 759,-1636 759,4 -4,4"/>
<!-- Node4 -->
<g id="node1" class="node">
<title>Node4</title>
<polygon fill="#bfbfbf" stroke="#000000" points="76,-.5 76,-112.5 222,-112.5 222,-.5 76,-.5"/>
<text text-anchor="middle" x="149" y="-92.5" font-family="Helvetica,sans-Serif" font-size="20.00" fill="#000000">AveExotica</text>
<polyline fill="none" stroke="#000000" points="76,-82.5 222,-82.5 "/>
<text text-anchor="middle" x="149" y="-62.5" font-family="Helvetica,sans-Serif" font-size="20.00" fill="#000000"> </text>
<polyline fill="none" stroke="#000000" points="76,-52.5 222,-52.5 "/>
<text text-anchor="start" x="84" y="-32.5" font-family="Helvetica,sans-Serif" font-size="20.00" fill="#000000">+ AveExotica()</text>
<text text-anchor="start" x="84" y="-10.5" font-family="Helvetica,sans-Serif" font-size="20.00" fill="#000000">+ ~AveExotica()</text>
</g>
<!-- Node5 -->
<g id="node2" class="node">
<title>Node5</title>
<g id="a_node2"><a xlink:href="classAve.html" target="_top" xlink:title="Classificação base para Aves. ">
<polygon fill="#ffffff" stroke="#000000" points="0,-325.5 0,-481.5 102,-481.5 102,-325.5 0,-325.5"/>
<text text-anchor="middle" x="51" y="-461.5" font-family="Helvetica,sans-Serif" font-size="20.00" fill="#000000">Ave</text>
<polyline fill="none" stroke="#000000" points="0,-451.5 102,-451.5 "/>
<text text-anchor="middle" x="51" y="-431.5" font-family="Helvetica,sans-Serif" font-size="20.00" fill="#000000"> </text>
<polyline fill="none" stroke="#000000" points="0,-421.5 102,-421.5 "/>
<text text-anchor="start" x="8" y="-401.5" font-family="Helvetica,sans-Serif" font-size="20.00" fill="#000000">+ Ave()</text>
<text text-anchor="start" x="8" y="-379.5" font-family="Helvetica,sans-Serif" font-size="20.00" fill="#000000">+ Ave()</text>
<text text-anchor="start" x="8" y="-357.5" font-family="Helvetica,sans-Serif" font-size="20.00" fill="#000000">+ ~Ave()</text>
<text text-anchor="start" x="8" y="-335.5" font-family="Helvetica,sans-Serif" font-size="20.00" fill="#000000">+ getVoa()</text>
</a>
</g>
</g>
<!-- Node5&#45;&gt;Node4 -->
<g id="edge1" class="edge">
<title>Node5&#45;&gt;Node4</title>
<path fill="none" stroke="#191970" d="M75.8402,-315.5454C93.8442,-251.7965 117.6522,-167.4967 133.1426,-112.6481"/>
<polygon fill="none" stroke="#191970" points="72.465,-314.6189 73.1153,-325.1938 79.2015,-316.5215 72.465,-314.6189"/>
</g>
<!-- Node6 -->
<g id="node3" class="node">
<title>Node6</title>
<polygon fill="#ffffff" stroke="#bfbfbf" points="17.5,-957.5 17.5,-1047.5 68.5,-1047.5 68.5,-957.5 17.5,-957.5"/>
<text text-anchor="middle" x="43" y="-1027.5" font-family="Helvetica,sans-Serif" font-size="20.00" fill="#000000">bool</text>
<polyline fill="none" stroke="#bfbfbf" points="17.5,-1017.5 68.5,-1017.5 "/>
<text text-anchor="middle" x="43" y="-997.5" font-family="Helvetica,sans-Serif" font-size="20.00" fill="#000000"> </text>
<polyline fill="none" stroke="#bfbfbf" points="17.5,-987.5 68.5,-987.5 "/>
<text text-anchor="middle" x="43" y="-967.5" font-family="Helvetica,sans-Serif" font-size="20.00" fill="#000000"> </text>
</g>
<!-- Node6&#45;&gt;Node5 -->
<g id="edge2" class="edge">
<title>Node6&#45;&gt;Node5</title>
<path fill="none" stroke="#404040" d="M31.1229,-957.3342C26.6829,-938.2474 22.1884,-915.6879 20,-895 18.9714,-885.2765 19.6777,-882.7725 20,-873 24.3591,-740.8164 35.6037,-588.0401 43.281,-493.5882"/>
<polygon fill="none" stroke="#404040" points="43.2905,-493.4708 39.7932,-487.1646 44.2691,-481.5107 47.7665,-487.817 43.2905,-493.4708"/>
<text text-anchor="middle" x="42.5" y="-879" font-family="Helvetica,sans-Serif" font-size="20.00" fill="#000000"> #voa</text>
</g>
<!-- Node8 -->
<g id="node5" class="node">
<title>Node8</title>
<g id="a_node5"><a xlink:href="classAnimal.html" target="_top" xlink:title="Implementação base para o cadastro de animais. ">
<polygon fill="#ffffff" stroke="#000000" points="150.5,-500.5 150.5,-854.5 335.5,-854.5 335.5,-500.5 150.5,-500.5"/>
<text text-anchor="middle" x="243" y="-834.5" font-family="Helvetica,sans-Serif" font-size="20.00" fill="#000000">Animal</text>
<polyline fill="none" stroke="#000000" points="150.5,-824.5 335.5,-824.5 "/>
<text text-anchor="middle" x="243" y="-804.5" font-family="Helvetica,sans-Serif" font-size="20.00" fill="#000000"> </text>
<polyline fill="none" stroke="#000000" points="150.5,-794.5 335.5,-794.5 "/>
<text text-anchor="start" x="158.5" y="-774.5" font-family="Helvetica,sans-Serif" font-size="20.00" fill="#000000">+ Animal()</text>
<text text-anchor="start" x="158.5" y="-752.5" font-family="Helvetica,sans-Serif" font-size="20.00" fill="#000000">+ Animal()</text>
<text text-anchor="start" x="158.5" y="-730.5" font-family="Helvetica,sans-Serif" font-size="20.00" fill="#000000">+ ~Animal()</text>
<text text-anchor="start" x="158.5" y="-708.5" font-family="Helvetica,sans-Serif" font-size="20.00" fill="#000000">+ getNome()</text>
<text text-anchor="start" x="158.5" y="-686.5" font-family="Helvetica,sans-Serif" font-size="20.00" fill="#000000">+ getEspecie()</text>
<text text-anchor="start" x="158.5" y="-664.5" font-family="Helvetica,sans-Serif" font-size="20.00" fill="#000000">+ getAmeacadoPor()</text>
<text text-anchor="start" x="158.5" y="-642.5" font-family="Helvetica,sans-Serif" font-size="20.00" fill="#000000">+ getVeterinario()</text>
<text text-anchor="start" x="158.5" y="-620.5" font-family="Helvetica,sans-Serif" font-size="20.00" fill="#000000">+ getTratador()</text>
<text text-anchor="start" x="158.5" y="-598.5" font-family="Helvetica,sans-Serif" font-size="20.00" fill="#000000">+ getPerigoso()</text>
<text text-anchor="start" x="158.5" y="-576.5" font-family="Helvetica,sans-Serif" font-size="20.00" fill="#000000">+ getClassificacao()</text>
<text text-anchor="start" x="158.5" y="-554.5" font-family="Helvetica,sans-Serif" font-size="20.00" fill="#000000">+ getClasse()</text>
<text text-anchor="start" x="158.5" y="-532.5" font-family="Helvetica,sans-Serif" font-size="20.00" fill="#000000">+ printOutDados()</text>
<text text-anchor="start" x="158.5" y="-510.5" font-family="Helvetica,sans-Serif" font-size="20.00" fill="#000000">+ operator==()</text>
</a>
</g>
</g>
<!-- Node6&#45;&gt;Node8 -->
<g id="edge9" class="edge">
<title>Node6&#45;&gt;Node8</title>
<path fill="none" stroke="#404040" d="M50.1887,-957.2532C55.4871,-931.5295 64.2227,-899.3042 78,-873 95.1255,-840.3032 118.5206,-808.2324 142.3099,-779.8269"/>
<polygon fill="none" stroke="#404040" points="142.6072,-779.4775 143.4494,-772.3157 150.3842,-770.3386 149.542,-777.5004 142.6072,-779.4775"/>
<text text-anchor="middle" x="121" y="-879" font-family="Helvetica,sans-Serif" font-size="20.00" fill="#000000"> #perigoso</text>
</g>
<!-- Node7 -->
<g id="node4" class="node">
<title>Node7</title>
<g id="a_node4"><a xlink:href="classExotico.html" target="_top" xlink:title="Umas das definições de categoria para Animal. ">
<polygon fill="#ffffff" stroke="#000000" points="186,-150.5 186,-306.5 300,-306.5 300,-150.5 186,-150.5"/>
<text text-anchor="middle" x="243" y="-286.5" font-family="Helvetica,sans-Serif" font-size="20.00" fill="#000000">Exotico</text>
<polyline fill="none" stroke="#000000" points="186,-276.5 300,-276.5 "/>
<text text-anchor="middle" x="243" y="-256.5" font-family="Helvetica,sans-Serif" font-size="20.00" fill="#000000"> </text>
<polyline fill="none" stroke="#000000" points="186,-246.5 300,-246.5 "/>
<text text-anchor="start" x="194" y="-226.5" font-family="Helvetica,sans-Serif" font-size="20.00" fill="#000000">+ Exotico()</text>
<text text-anchor="start" x="194" y="-204.5" font-family="Helvetica,sans-Serif" font-size="20.00" fill="#000000">+ Exotico()</text>
<text text-anchor="start" x="194" y="-182.5" font-family="Helvetica,sans-Serif" font-size="20.00" fill="#000000">+ ~Exotico()</text>
<text text-anchor="start" x="194" y="-160.5" font-family="Helvetica,sans-Serif" font-size="20.00" fill="#000000">+ getLocal()</text>
</a>
</g>
</g>
<!-- Node7&#45;&gt;Node4 -->
<g id="edge3" class="edge">
<title>Node7&#45;&gt;Node4</title>
<path fill="none" stroke="#191970" d="M195.3742,-141.3549C190.0452,-131.604 184.7269,-121.8727 179.6935,-112.6626"/>
<polygon fill="none" stroke="#191970" points="192.3963,-143.2044 200.2633,-150.301 198.5389,-139.8474 192.3963,-143.2044"/>
</g>
<!-- Node8&#45;&gt;Node7 -->
<g id="edge4" class="edge">
<title>Node8&#45;&gt;Node7</title>
<path fill="none" stroke="#191970" d="M243,-490.0852C243,-425.7861 243,-357.3128 243,-306.5565"/>
<polygon fill="none" stroke="#191970" points="239.5001,-490.3656 243,-500.3656 246.5001,-490.3657 239.5001,-490.3656"/>
</g>
<!-- Node9 -->
<g id="node6" class="node">
<title>Node9</title>
<g id="a_node6"><a xlink:href="classTratador.html" target="_top" xlink:title="Implementação dos tratadores. ">
<polygon fill="#ffffff" stroke="#000000" points="412,-913.5 412,-1091.5 576,-1091.5 576,-913.5 412,-913.5"/>
<text text-anchor="middle" x="494" y="-1071.5" font-family="Helvetica,sans-Serif" font-size="20.00" fill="#000000">Tratador</text>
<polyline fill="none" stroke="#000000" points="412,-1061.5 576,-1061.5 "/>
<text text-anchor="middle" x="494" y="-1041.5" font-family="Helvetica,sans-Serif" font-size="20.00" fill="#000000"> </text>
<polyline fill="none" stroke="#000000" points="412,-1031.5 576,-1031.5 "/>
<text text-anchor="start" x="420" y="-1011.5" font-family="Helvetica,sans-Serif" font-size="20.00" fill="#000000">+ Tratador()</text>
<text text-anchor="start" x="420" y="-989.5" font-family="Helvetica,sans-Serif" font-size="20.00" fill="#000000">+ Tratador()</text>
<text text-anchor="start" x="420" y="-967.5" font-family="Helvetica,sans-Serif" font-size="20.00" fill="#000000">+ ~Tratador()</text>
<text text-anchor="start" x="420" y="-945.5" font-family="Helvetica,sans-Serif" font-size="20.00" fill="#000000">+ getUniforme()</text>
<text text-anchor="start" x="420" y="-923.5" font-family="Helvetica,sans-Serif" font-size="20.00" fill="#000000">+ printOutDados()</text>
</a>
</g>
</g>
<!-- Node9&#45;&gt;Node8 -->
<g id="edge5" class="edge">
<title>Node9&#45;&gt;Node8</title>
<path fill="none" stroke="#404040" d="M425.928,-913.2583C415.5843,-899.7553 405.0219,-885.9991 395,-873 378.2327,-851.2516 360.3698,-828.1851 343.0018,-805.8122"/>
<polygon fill="none" stroke="#404040" points="342.9535,-805.75 336.1141,-803.4645 335.5933,-796.2722 342.4327,-798.5577 342.9535,-805.75"/>
<text text-anchor="middle" x="451.5" y="-879" font-family="Helvetica,sans-Serif" font-size="20.00" fill="#000000"> #tratador</text>
</g>
<!-- Node10 -->
<g id="node7" class="node">
<title>Node10</title>
<g id="a_node7"><a xlink:href="classPessoa.html" target="_top" xlink:title="Classe base dos funcionarios. ">
<polygon fill="#ffffff" stroke="#000000" points="400,-1194.5 400,-1438.5 564,-1438.5 564,-1194.5 400,-1194.5"/>
<text text-anchor="middle" x="482" y="-1418.5" font-family="Helvetica,sans-Serif" font-size="20.00" fill="#000000">Pessoa</text>
<polyline fill="none" stroke="#000000" points="400,-1408.5 564,-1408.5 "/>
<text text-anchor="middle" x="482" y="-1388.5" font-family="Helvetica,sans-Serif" font-size="20.00" fill="#000000"> </text>
<polyline fill="none" stroke="#000000" points="400,-1378.5 564,-1378.5 "/>
<text text-anchor="start" x="408" y="-1358.5" font-family="Helvetica,sans-Serif" font-size="20.00" fill="#000000">+ Pessoa()</text>
<text text-anchor="start" x="408" y="-1336.5" font-family="Helvetica,sans-Serif" font-size="20.00" fill="#000000">+ Pessoa()</text>
<text text-anchor="start" x="408" y="-1314.5" font-family="Helvetica,sans-Serif" font-size="20.00" fill="#000000">+ ~Pessoa()</text>
<text text-anchor="start" x="408" y="-1292.5" font-family="Helvetica,sans-Serif" font-size="20.00" fill="#000000">+ getNome()</text>
<text text-anchor="start" x="408" y="-1270.5" font-family="Helvetica,sans-Serif" font-size="20.00" fill="#000000">+ getTelefone()</text>
<text text-anchor="start" x="408" y="-1248.5" font-family="Helvetica,sans-Serif" font-size="20.00" fill="#000000">+ getEmail()</text>
<text text-anchor="start" x="408" y="-1226.5" font-family="Helvetica,sans-Serif" font-size="20.00" fill="#000000">+ printOutDados()</text>
<text text-anchor="start" x="408" y="-1204.5" font-family="Helvetica,sans-Serif" font-size="20.00" fill="#000000">+ operator==()</text>
</a>
</g>
</g>
<!-- Node10&#45;&gt;Node9 -->
<g id="edge6" class="edge">
<title>Node10&#45;&gt;Node9</title>
<path fill="none" stroke="#191970" d="M487.0579,-1184.152C488.2469,-1153.0404 489.4865,-1120.6041 490.5836,-1091.8956"/>
<polygon fill="none" stroke="#191970" points="483.5584,-1184.0739 486.6739,-1194.2003 490.5533,-1184.3413 483.5584,-1184.0739"/>
</g>
<!-- Node13 -->
<g id="node10" class="node">
<title>Node13</title>
<g id="a_node10"><a xlink:href="classVeterinario.html" target="_top" xlink:title="Implementação dos veterinarios. ">
<polygon fill="#ffffff" stroke="#000000" points="230,-913.5 230,-1091.5 394,-1091.5 394,-913.5 230,-913.5"/>
<text text-anchor="middle" x="312" y="-1071.5" font-family="Helvetica,sans-Serif" font-size="20.00" fill="#000000">Veterinario</text>
<polyline fill="none" stroke="#000000" points="230,-1061.5 394,-1061.5 "/>
<text text-anchor="middle" x="312" y="-1041.5" font-family="Helvetica,sans-Serif" font-size="20.00" fill="#000000"> </text>
<polyline fill="none" stroke="#000000" points="230,-1031.5 394,-1031.5 "/>
<text text-anchor="start" x="238" y="-1011.5" font-family="Helvetica,sans-Serif" font-size="20.00" fill="#000000">+ Veterinario()</text>
<text text-anchor="start" x="238" y="-989.5" font-family="Helvetica,sans-Serif" font-size="20.00" fill="#000000">+ Veterinario()</text>
<text text-anchor="start" x="238" y="-967.5" font-family="Helvetica,sans-Serif" font-size="20.00" fill="#000000">+ ~Veterinario()</text>
<text text-anchor="start" x="238" y="-945.5" font-family="Helvetica,sans-Serif" font-size="20.00" fill="#000000">+ getCRMV()</text>
<text text-anchor="start" x="238" y="-923.5" font-family="Helvetica,sans-Serif" font-size="20.00" fill="#000000">+ printOutDados()</text>
</a>
</g>
</g>
<!-- Node10&#45;&gt;Node13 -->
<g id="edge12" class="edge">
<title>Node10&#45;&gt;Node13</title>
<path fill="none" stroke="#191970" d="M411.0025,-1185.3635C393.9592,-1153.8835 376.1436,-1120.9769 360.3989,-1091.8956"/>
<polygon fill="none" stroke="#191970" points="407.9478,-1187.0728 415.7868,-1194.2003 414.1036,-1183.74 407.9478,-1187.0728"/>
</g>
<!-- Node11 -->
<g id="node8" class="node">
<title>Node11</title>
<polygon fill="#ffffff" stroke="#bfbfbf" points="367,-1541.5 367,-1631.5 431,-1631.5 431,-1541.5 367,-1541.5"/>
<text text-anchor="middle" x="399" y="-1611.5" font-family="Helvetica,sans-Serif" font-size="20.00" fill="#000000">string</text>
<polyline fill="none" stroke="#bfbfbf" points="367,-1601.5 431,-1601.5 "/>
<text text-anchor="middle" x="399" y="-1581.5" font-family="Helvetica,sans-Serif" font-size="20.00" fill="#000000"> </text>
<polyline fill="none" stroke="#bfbfbf" points="367,-1571.5 431,-1571.5 "/>
<text text-anchor="middle" x="399" y="-1551.5" font-family="Helvetica,sans-Serif" font-size="20.00" fill="#000000"> </text>
</g>
<!-- Node11&#45;&gt;Node7 -->
<g id="edge14" class="edge">
<title>Node11&#45;&gt;Node7</title>
<path fill="none" stroke="#404040" d="M431.2369,-1579.8108C491.4666,-1565.4966 620.6121,-1525.869 683,-1439 715.139,-1394.2497 702,-1371.5954 702,-1316.5 702,-1316.5 702,-1316.5 702,-677.5 702,-461.6242 439.3415,-315.4177 311.4089,-257.0085"/>
<polygon fill="none" stroke="#404040" points="311.1454,-256.8898 304.0319,-258.072 300.2046,-251.9604 307.3182,-250.7782 311.1454,-256.8898"/>
<text text-anchor="middle" x="728.5" y="-997.5" font-family="Helvetica,sans-Serif" font-size="20.00" fill="#000000"> #local</text>
</g>
<!-- Node11&#45;&gt;Node8 -->
<g id="edge10" class="edge">
<title>Node11&#45;&gt;Node8</title>
<path fill="none" stroke="#404040" d="M366.9544,-1563.5358C353.2658,-1552.4882 337.9537,-1538.3206 327,-1523 229.8865,-1387.1712 215.6291,-1339.7554 183,-1176 162.8053,-1074.6487 174.1829,-960.259 192.2214,-866.6435"/>
<polygon fill="none" stroke="#404040" points="192.2456,-866.521 189.4839,-859.8597 194.5706,-854.7483 197.3323,-861.4097 192.2456,-866.521"/>
<text text-anchor="middle" x="244.5" y="-1160" font-family="Helvetica,sans-Serif" font-size="20.00" fill="#000000"> #especie</text>
<text text-anchor="middle" x="244.5" y="-1138" font-family="Helvetica,sans-Serif" font-size="20.00" fill="#000000">#ameacadoPor</text>
<text text-anchor="middle" x="244.5" y="-1116" font-family="Helvetica,sans-Serif" font-size="20.00" fill="#000000">#nome</text>
</g>
<!-- Node11&#45;&gt;Node10 -->
<g id="edge7" class="edge">
<title>Node11&#45;&gt;Node10</title>
<path fill="none" stroke="#404040" d="M412.8923,-1541.3081C420.6532,-1516.0618 430.7716,-1483.1466 440.8615,-1450.3241"/>
<polygon fill="none" stroke="#404040" points="440.8992,-1450.2012 438.8388,-1443.2907 444.4253,-1438.731 446.4857,-1445.6415 440.8992,-1450.2012"/>
<text text-anchor="middle" x="476.5" y="-1507" font-family="Helvetica,sans-Serif" font-size="20.00" fill="#000000"> #email</text>
<text text-anchor="middle" x="476.5" y="-1485" font-family="Helvetica,sans-Serif" font-size="20.00" fill="#000000">#nome</text>
<text text-anchor="middle" x="476.5" y="-1463" font-family="Helvetica,sans-Serif" font-size="20.00" fill="#000000">#telefone</text>
</g>
<!-- Node11&#45;&gt;Node13 -->
<g id="edge13" class="edge">
<title>Node11&#45;&gt;Node13</title>
<path fill="none" stroke="#404040" d="M369.874,-1541.3693C353.3523,-1513.1593 334.1903,-1475.3884 325,-1439 309.6043,-1378.0417 308.701,-1212.8494 309.9738,-1104.0732"/>
<polygon fill="none" stroke="#404040" points="309.9777,-1103.7563 306.0541,-1097.706 310.1299,-1091.7573 314.0535,-1097.8075 309.9777,-1103.7563"/>
<text text-anchor="middle" x="358" y="-1311.5" font-family="Helvetica,sans-Serif" font-size="20.00" fill="#000000"> &#45;CRMV</text>
</g>
<!-- Node12 -->
<g id="node9" class="node">
<title>Node12</title>
<polygon fill="#ffffff" stroke="#bfbfbf" points="582,-1271.5 582,-1361.5 674,-1361.5 674,-1271.5 582,-1271.5"/>
<text text-anchor="middle" x="628" y="-1341.5" font-family="Helvetica,sans-Serif" font-size="20.00" fill="#000000">Uniforme</text>
<polyline fill="none" stroke="#bfbfbf" points="582,-1331.5 674,-1331.5 "/>
<text text-anchor="middle" x="628" y="-1311.5" font-family="Helvetica,sans-Serif" font-size="20.00" fill="#000000"> </text>
<polyline fill="none" stroke="#bfbfbf" points="582,-1301.5 674,-1301.5 "/>
<text text-anchor="middle" x="628" y="-1281.5" font-family="Helvetica,sans-Serif" font-size="20.00" fill="#000000"> </text>
</g>
<!-- Node12&#45;&gt;Node9 -->
<g id="edge8" class="edge">
<title>Node12&#45;&gt;Node9</title>
<path fill="none" stroke="#404040" d="M608.6584,-1271.177C589.9387,-1227.3115 560.9277,-1159.3307 536.7722,-1102.7275"/>
<polygon fill="none" stroke="#404040" points="536.7205,-1102.606 530.6864,-1098.6576 532.0104,-1091.569 538.0444,-1095.5175 536.7205,-1102.606"/>
<text text-anchor="middle" x="607" y="-1138" font-family="Helvetica,sans-Serif" font-size="20.00" fill="#000000"> &#45;uniforme</text>
</g>
<!-- Node13&#45;&gt;Node8 -->
<g id="edge11" class="edge">
<title>Node13&#45;&gt;Node8</title>
<path fill="none" stroke="#404040" d="M293.0542,-913.2624C289.908,-898.4435 286.5436,-882.5965 283.1027,-866.3897"/>
<polygon fill="none" stroke="#404040" points="283.078,-866.273 277.9191,-861.2345 280.5858,-854.5346 285.7447,-859.573 283.078,-866.273"/>
<text text-anchor="middle" x="339.5" y="-879" font-family="Helvetica,sans-Serif" font-size="20.00" fill="#000000"> #veterinario</text>
</g>
</g>
</svg>
        <g id="navigator" transform="translate(0 0)" fill="#404254">
                <rect fill="#f2f5e9" fill-opacity="0.5" stroke="#606060" stroke-width=".5" x="0" y="0" width="60" height="60"/>
                <use id="zoomplus" xlink:href="#zoomPlus" x="17" y="9" onmousedown="handleZoom(evt,'in')"/>
                <use id="zoomminus" xlink:href="#zoomMin" x="42" y="9" onmousedown="handleZoom(evt,'out')"/>
                <use id="reset" xlink:href="#resetDef" x="30" y="36" onmousedown="handleReset()"/>
                <g id="arrowUp" xlink:href="#dirArrow" transform="translate(30 24)" onmousedown="handlePan(0,-1)">
                  <use xlink:href="#rim" fill="#404040">
                        <set attributeName="fill" to="#808080" begin="arrowUp.mouseover" end="arrowUp.mouseout"/>
                  </use>
                  <path fill="none" stroke="white" stroke-width="1.5" d="M0,-3.0v7 M-2.5,-0.5L0,-3.0L2.5,-0.5"/>
                </g>
                <g id="arrowRight" xlink:href="#dirArrow" transform="rotate(90) translate(36 -43)" onmousedown="handlePan(1,0)">
                  <use xlink:href="#rim" fill="#404040">
                        <set attributeName="fill" to="#808080" begin="arrowRight.mouseover" end="arrowRight.mouseout"/>
                  </use>
                  <path fill="none" stroke="white" stroke-width="1.5" d="M0,-3.0v7 M-2.5,-0.5L0,-3.0L2.5,-0.5"/>
                </g>
                <g id="arrowDown" xlink:href="#dirArrow" transform="rotate(180) translate(-30 -48)" onmousedown="handlePan(0,1)">
                  <use xlink:href="#rim" fill="#404040">
                        <set attributeName="fill" to="#808080" begin="arrowDown.mouseover" end="arrowDown.mouseout"/>
                  </use>
                  <path fill="none" stroke="white" stroke-width="1.5" d="M0,-3.0v7 M-2.5,-0.5L0,-3.0L2.5,-0.5"/>
                </g>
                <g id="arrowLeft" xlink:href="#dirArrow" transform="rotate(270) translate(-36 17)" onmousedown="handlePan(-1,0)">
                  <use xlink:href="#rim" fill="#404040">
                        <set attributeName="fill" to="#808080" begin="arrowLeft.mouseover" end="arrowLeft.mouseout"/>
                  </use>
                  <path fill="none" stroke="white" stroke-width="1.5" d="M0,-3.0v7 M-2.5,-0.5L0,-3.0L2.5,-0.5"/>
                </g>
        </g>
        <svg viewBox="0 0 15 15" width="100%" height="30px" preserveAspectRatio="xMaxYMin meet">
         <g id="arrow_out" transform="scale(0.3 0.3)">
          <a xlink:href="classAveExotica__coll__graph_org.svg" target="_base">
           <rect id="button" ry="5" rx="5" y="6" x="6" height="38" width="38"
                fill="#f2f5e9" fill-opacity="0.5" stroke="#606060" stroke-width="1.0"/>
           <path id="arrow"
             d="M 11.500037,31.436501 C 11.940474,20.09759 22.043105,11.32322 32.158766,21.979434 L 37.068811,17.246167 C 37.068811,17.246167 37.088388,32 37.088388,32 L 22.160133,31.978069 C 22.160133,31.978069 26.997745,27.140456 26.997745,27.140456 C 18.528582,18.264221 13.291696,25.230495 11.500037,31.436501 z"
             style="fill:#404040;"/>
          </a>
         </g>
        </svg>
</svg>
