<?xml version="1.0" encoding="UTF-8" standalone="no"?>
<!DOCTYPE svg PUBLIC "-//W3C//DTD SVG 1.1//EN"
 "http://www.w3.org/Graphics/SVG/1.1/DTD/svg11.dtd">
<!-- Generated by graphviz version 2.43.0 (0)
 -->
<!-- Title: MamiferoExotico Pages: 1 -->
<svg width="745pt" height="1188pt"
 viewBox="0.00 0.00 744.50 1188.00" xmlns="http://www.w3.org/2000/svg" xmlns:xlink="http://www.w3.org/1999/xlink">
<g id="graph0" class="graph" transform="scale(1 1) rotate(0) translate(4 1184)">
<title>MamiferoExotico</title>
<polygon fill="white" stroke="transparent" points="-4,4 -4,-1184 740.5,-1184 740.5,4 -4,4"/>
<!-- Node1 -->
<g id="node1" class="node">
<title>Node1</title>
<g id="a_node1"><a xlink:title="Implementação de animal com Classe e Categoria.">
<polygon fill="#bfbfbf" stroke="black" points="324,-0.5 324,-134.5 559,-134.5 559,-0.5 324,-0.5"/>
<text text-anchor="middle" x="441.5" y="-114.5" font-family="Helvetica,sans-Serif" font-size="20.00">MamiferoExotico</text>
<polyline fill="none" stroke="black" points="324,-104.5 559,-104.5 "/>
<text text-anchor="middle" x="441.5" y="-84.5" font-family="Helvetica,sans-Serif" font-size="20.00"> </text>
<polyline fill="none" stroke="black" points="324,-74.5 559,-74.5 "/>
<text text-anchor="start" x="332" y="-54.5" font-family="Helvetica,sans-Serif" font-size="20.00">+ MamiferoExotico()</text>
<text text-anchor="start" x="332" y="-32.5" font-family="Helvetica,sans-Serif" font-size="20.00">+ MamiferoExotico()</text>
<text text-anchor="start" x="332" y="-10.5" font-family="Helvetica,sans-Serif" font-size="20.00">+ ~MamiferoExotico()</text>
</a>
</g>
</g>
<!-- Node2 -->
<g id="node2" class="node">
<title>Node2</title>
<g id="a_node2"><a xlink:href="classMamifero.html" target="_top" xlink:title="Classificação base para Mamiferos.">
<polygon fill="white" stroke="black" points="236,-172.5 236,-372.5 415,-372.5 415,-172.5 236,-172.5"/>
<text text-anchor="middle" x="325.5" y="-352.5" font-family="Helvetica,sans-Serif" font-size="20.00">Mamifero</text>
<polyline fill="none" stroke="black" points="236,-342.5 415,-342.5 "/>
<text text-anchor="middle" x="325.5" y="-322.5" font-family="Helvetica,sans-Serif" font-size="20.00"> </text>
<polyline fill="none" stroke="black" points="236,-312.5 415,-312.5 "/>
<text text-anchor="start" x="244" y="-292.5" font-family="Helvetica,sans-Serif" font-size="20.00">+ Mamifero()</text>
<text text-anchor="start" x="244" y="-270.5" font-family="Helvetica,sans-Serif" font-size="20.00">+ Mamifero()</text>
<text text-anchor="start" x="244" y="-248.5" font-family="Helvetica,sans-Serif" font-size="20.00">+ ~Mamifero()</text>
<text text-anchor="start" x="244" y="-226.5" font-family="Helvetica,sans-Serif" font-size="20.00">+ getGestacao()</text>
<text text-anchor="start" x="244" y="-204.5" font-family="Helvetica,sans-Serif" font-size="20.00">+ setGestacao()</text>
<text text-anchor="start" x="244" y="-182.5" font-family="Helvetica,sans-Serif" font-size="20.00">+ setGestacao()</text>
</a>
</g>
</g>
<!-- Node2&#45;&gt;Node1 -->
<g id="edge1" class="edge">
<title>Node2&#45;&gt;Node1</title>
<path fill="none" stroke="midnightblue" d="M387.1,-163.69C392.75,-153.82 398.34,-144.03 403.68,-134.69"/>
<polygon fill="none" stroke="midnightblue" points="384.06,-161.96 382.14,-172.38 390.14,-165.43 384.06,-161.96"/>
</g>
<!-- Node3 -->
<g id="node3" class="node">
<title>Node3</title>
<g id="a_node3"><a xlink:href="classAnimal.html" target="_top" xlink:title="Implementação base para o cadastro de animais.">
<polygon fill="white" stroke="black" points="214,-610.5 214,-986.5 437,-986.5 437,-610.5 214,-610.5"/>
<text text-anchor="middle" x="325.5" y="-966.5" font-family="Helvetica,sans-Serif" font-size="20.00">Animal</text>
<polyline fill="none" stroke="black" points="214,-956.5 437,-956.5 "/>
<text text-anchor="middle" x="325.5" y="-936.5" font-family="Helvetica,sans-Serif" font-size="20.00"> </text>
<polyline fill="none" stroke="black" points="214,-926.5 437,-926.5 "/>
<text text-anchor="start" x="222" y="-906.5" font-family="Helvetica,sans-Serif" font-size="20.00">+ Animal()</text>
<text text-anchor="start" x="222" y="-884.5" font-family="Helvetica,sans-Serif" font-size="20.00">+ Animal()</text>
<text text-anchor="start" x="222" y="-862.5" font-family="Helvetica,sans-Serif" font-size="20.00">+ ~Animal()</text>
<text text-anchor="start" x="222" y="-840.5" font-family="Helvetica,sans-Serif" font-size="20.00">+ getNome()</text>
<text text-anchor="start" x="222" y="-818.5" font-family="Helvetica,sans-Serif" font-size="20.00">+ getEspecie()</text>
<text text-anchor="start" x="222" y="-796.5" font-family="Helvetica,sans-Serif" font-size="20.00">+ getAmeacadoPor()</text>
<text text-anchor="start" x="222" y="-774.5" font-family="Helvetica,sans-Serif" font-size="20.00">+ getVeterinario()</text>
<text text-anchor="start" x="222" y="-752.5" font-family="Helvetica,sans-Serif" font-size="20.00">+ getTratador()</text>
<text text-anchor="start" x="222" y="-730.5" font-family="Helvetica,sans-Serif" font-size="20.00">+ getPerigoso()</text>
<text text-anchor="start" x="222" y="-708.5" font-family="Helvetica,sans-Serif" font-size="20.00">+ setNome()</text>
<text text-anchor="start" x="222" y="-686.5" font-family="Helvetica,sans-Serif" font-size="20.00">e 13 mais...</text>
<text text-anchor="start" x="222" y="-664.5" font-family="Helvetica,sans-Serif" font-size="20.00">+ getClassificacao()</text>
<text text-anchor="start" x="222" y="-642.5" font-family="Helvetica,sans-Serif" font-size="20.00">+ getClasse()</text>
<text text-anchor="start" x="222" y="-620.5" font-family="Helvetica,sans-Serif" font-size="20.00">+ printOutDetails()</text>
</a>
</g>
</g>
<!-- Node3&#45;&gt;Node2 -->
<g id="edge2" class="edge">
<title>Node3&#45;&gt;Node2</title>
<path fill="none" stroke="midnightblue" d="M325.5,-599.78C325.5,-522.24 325.5,-436.7 325.5,-372.66"/>
<polygon fill="none" stroke="midnightblue" points="322,-600.17 325.5,-610.17 329,-600.17 322,-600.17"/>
</g>
<!-- Node4 -->
<g id="node4" class="node">
<title>Node4</title>
<g id="a_node4"><a xlink:title=" ">
<polygon fill="white" stroke="#bfbfbf" points="77,-1089.5 77,-1179.5 352,-1179.5 352,-1089.5 77,-1089.5"/>
<text text-anchor="middle" x="214.5" y="-1159.5" font-family="Helvetica,sans-Serif" font-size="20.00">shared_ptr&lt; Veterinario &gt;</text>
<polyline fill="none" stroke="#bfbfbf" points="77,-1149.5 352,-1149.5 "/>
<text text-anchor="middle" x="214.5" y="-1129.5" font-family="Helvetica,sans-Serif" font-size="20.00"> </text>
<polyline fill="none" stroke="#bfbfbf" points="77,-1119.5 352,-1119.5 "/>
<text text-anchor="middle" x="214.5" y="-1099.5" font-family="Helvetica,sans-Serif" font-size="20.00"> </text>
</a>
</g>
</g>
<!-- Node4&#45;&gt;Node3 -->
<g id="edge3" class="edge">
<title>Node4&#45;&gt;Node3</title>
<path fill="none" stroke="#404040" d="M212.45,-1089.38C212.39,-1064.25 214.17,-1032.41 221.5,-1005 222.09,-1002.81 222.7,-1000.62 223.33,-998.43"/>
<polygon fill="none" stroke="#404040" points="223.41,-998.16 221.35,-991.25 226.93,-986.69 229,-993.6 223.41,-998.16"/>
<text text-anchor="middle" x="286.5" y="-1033" font-family="Helvetica,sans-Serif" font-size="20.00"> #veterinario</text>
</g>
<!-- Node5 -->
<g id="node5" class="node">
<title>Node5</title>
<g id="a_node5"><a xlink:title=" ">
<polygon fill="white" stroke="#bfbfbf" points="0,-1089.5 0,-1179.5 59,-1179.5 59,-1089.5 0,-1089.5"/>
<text text-anchor="middle" x="29.5" y="-1159.5" font-family="Helvetica,sans-Serif" font-size="20.00">bool</text>
<polyline fill="none" stroke="#bfbfbf" points="0,-1149.5 59,-1149.5 "/>
<text text-anchor="middle" x="29.5" y="-1129.5" font-family="Helvetica,sans-Serif" font-size="20.00"> </text>
<polyline fill="none" stroke="#bfbfbf" points="0,-1119.5 59,-1119.5 "/>
<text text-anchor="middle" x="29.5" y="-1099.5" font-family="Helvetica,sans-Serif" font-size="20.00"> </text>
</a>
</g>
</g>
<!-- Node5&#45;&gt;Node2 -->
<g id="edge7" class="edge">
<title>Node5&#45;&gt;Node2</title>
<path fill="none" stroke="#404040" d="M27.79,-1089.41C25.71,-997.17 28.6,-778.39 92.5,-610 124.09,-526.75 180.59,-444.37 230.04,-381.95"/>
<polygon fill="none" stroke="#404040" points="230.1,-381.88 230.72,-374.69 237.59,-372.5 236.97,-379.69 230.1,-381.88"/>
<text text-anchor="middle" x="149" y="-793.5" font-family="Helvetica,sans-Serif" font-size="20.00"> #gestacao</text>
</g>
<!-- Node5&#45;&gt;Node3 -->
<g id="edge4" class="edge">
<title>Node5&#45;&gt;Node3</title>
<path fill="none" stroke="#404040" d="M44.49,-1089.42C55.93,-1061.76 74.24,-1027.24 100.5,-1005 118.84,-989.47 131.41,-1000.19 151.5,-987 170.15,-974.75 188.18,-960.09 205.12,-944.44"/>
<polygon fill="none" stroke="#404040" points="205.15,-944.4 206.77,-937.38 213.88,-936.16 212.26,-943.19 205.15,-944.4"/>
<text text-anchor="middle" x="155" y="-1033" font-family="Helvetica,sans-Serif" font-size="20.00"> #perigoso</text>
</g>
<!-- Node6 -->
<g id="node6" class="node">
<title>Node6</title>
<g id="a_node6"><a xlink:title=" ">
<polygon fill="white" stroke="#bfbfbf" points="637.5,-1089.5 637.5,-1179.5 711.5,-1179.5 711.5,-1089.5 637.5,-1089.5"/>
<text text-anchor="middle" x="674.5" y="-1159.5" font-family="Helvetica,sans-Serif" font-size="20.00">string</text>
<polyline fill="none" stroke="#bfbfbf" points="637.5,-1149.5 711.5,-1149.5 "/>
<text text-anchor="middle" x="674.5" y="-1129.5" font-family="Helvetica,sans-Serif" font-size="20.00"> </text>
<polyline fill="none" stroke="#bfbfbf" points="637.5,-1119.5 711.5,-1119.5 "/>
<text text-anchor="middle" x="674.5" y="-1099.5" font-family="Helvetica,sans-Serif" font-size="20.00"> </text>
</a>
</g>
</g>
<!-- Node6&#45;&gt;Node3 -->
<g id="edge5" class="edge">
<title>Node6&#45;&gt;Node3</title>
<path fill="none" stroke="#404040" d="M637.25,-1094.11C634.42,-1092.19 631.5,-1090.46 628.5,-1089 576.88,-1063.79 544.9,-1107.46 500.5,-1071 476.49,-1051.28 492.01,-1032.47 477.5,-1005 467.57,-986.21 456.04,-967.26 443.85,-948.87"/>
<polygon fill="none" stroke="#404040" points="443.72,-948.67 437.05,-945.93 437.02,-938.72 443.69,-941.46 443.72,-948.67"/>
<text text-anchor="middle" x="576.5" y="-1055" font-family="Helvetica,sans-Serif" font-size="20.00"> #especie</text>
<text text-anchor="middle" x="576.5" y="-1033" font-family="Helvetica,sans-Serif" font-size="20.00">#ameacadoPor</text>
<text text-anchor="middle" x="576.5" y="-1011" font-family="Helvetica,sans-Serif" font-size="20.00">#nome</text>
</g>
<!-- Node8 -->
<g id="node8" class="node">
<title>Node8</title>
<g id="a_node8"><a xlink:href="classExotico.html" target="_top" xlink:title="Umas das definições de categoria para Animal.">
<polygon fill="white" stroke="black" points="545,-391.5 545,-591.5 688,-591.5 688,-391.5 545,-391.5"/>
<text text-anchor="middle" x="616.5" y="-571.5" font-family="Helvetica,sans-Serif" font-size="20.00">Exotico</text>
<polyline fill="none" stroke="black" points="545,-561.5 688,-561.5 "/>
<text text-anchor="middle" x="616.5" y="-541.5" font-family="Helvetica,sans-Serif" font-size="20.00"> </text>
<polyline fill="none" stroke="black" points="545,-531.5 688,-531.5 "/>
<text text-anchor="start" x="553" y="-511.5" font-family="Helvetica,sans-Serif" font-size="20.00">+ Exotico()</text>
<text text-anchor="start" x="553" y="-489.5" font-family="Helvetica,sans-Serif" font-size="20.00">+ Exotico()</text>
<text text-anchor="start" x="553" y="-467.5" font-family="Helvetica,sans-Serif" font-size="20.00">+ ~Exotico()</text>
<text text-anchor="start" x="553" y="-445.5" font-family="Helvetica,sans-Serif" font-size="20.00">+ getLocal()</text>
<text text-anchor="start" x="553" y="-423.5" font-family="Helvetica,sans-Serif" font-size="20.00">+ setLocal()</text>
<text text-anchor="start" x="553" y="-401.5" font-family="Helvetica,sans-Serif" font-size="20.00">+ setLocal()</text>
</a>
</g>
</g>
<!-- Node6&#45;&gt;Node8 -->
<g id="edge9" class="edge">
<title>Node6&#45;&gt;Node8</title>
<path fill="none" stroke="#404040" d="M670.51,-1089.44C661.55,-990.36 639.57,-747.44 626.58,-603.88"/>
<polygon fill="none" stroke="#404040" points="626.55,-603.53 622.02,-597.92 625.47,-591.58 629.99,-597.2 626.55,-603.53"/>
<text text-anchor="middle" x="702" y="-1033" font-family="Helvetica,sans-Serif" font-size="20.00"> #local</text>
</g>
<!-- Node7 -->
<g id="node7" class="node">
<title>Node7</title>
<g id="a_node7"><a xlink:title=" ">
<polygon fill="white" stroke="#bfbfbf" points="370,-1089.5 370,-1179.5 619,-1179.5 619,-1089.5 370,-1089.5"/>
<text text-anchor="middle" x="494.5" y="-1159.5" font-family="Helvetica,sans-Serif" font-size="20.00">shared_ptr&lt; Tratador &gt;</text>
<polyline fill="none" stroke="#bfbfbf" points="370,-1149.5 619,-1149.5 "/>
<text text-anchor="middle" x="494.5" y="-1129.5" font-family="Helvetica,sans-Serif" font-size="20.00"> </text>
<polyline fill="none" stroke="#bfbfbf" points="370,-1119.5 619,-1119.5 "/>
<text text-anchor="middle" x="494.5" y="-1099.5" font-family="Helvetica,sans-Serif" font-size="20.00"> </text>
</a>
</g>
</g>
<!-- Node7&#45;&gt;Node3 -->
<g id="edge6" class="edge">
<title>Node7&#45;&gt;Node3</title>
<path fill="none" stroke="#404040" d="M392.06,-1089.45C385.49,-1083.94 379.51,-1077.81 374.5,-1071 368.9,-1063.39 362.09,-1034.64 355.35,-998.53"/>
<polygon fill="none" stroke="#404040" points="355.32,-998.37 350.31,-993.18 353.17,-986.56 358.18,-991.75 355.32,-998.37"/>
<text text-anchor="middle" x="426" y="-1033" font-family="Helvetica,sans-Serif" font-size="20.00"> #tratador</text>
</g>
<!-- Node8&#45;&gt;Node1 -->
<g id="edge8" class="edge">
<title>Node8&#45;&gt;Node1</title>
<path fill="none" stroke="midnightblue" d="M571.46,-381.88C539.03,-303.68 496.32,-200.7 468.88,-134.54"/>
<polygon fill="none" stroke="midnightblue" points="568.3,-383.4 575.36,-391.29 574.76,-380.72 568.3,-383.4"/>
</g>
</g>
</svg>
