<?xml version="1.0" encoding="UTF-8" standalone="no"?>
<!DOCTYPE svg PUBLIC "-//W3C//DTD SVG 1.1//EN"
 "http://www.w3.org/Graphics/SVG/1.1/DTD/svg11.dtd">
<!-- Generated by graphviz version 2.43.0 (0)
 -->
<!-- Title: AnfibioExotico Pages: 1 -->
<svg width="356pt" height="925pt"
 viewBox="0.00 0.00 356.00 925.00" xmlns="http://www.w3.org/2000/svg" xmlns:xlink="http://www.w3.org/1999/xlink">
<g id="graph0" class="graph" transform="scale(1 1) rotate(0) translate(4 921)">
<title>AnfibioExotico</title>
<polygon fill="white" stroke="transparent" points="-4,4 -4,-921 352,-921 352,4 -4,4"/>
<!-- Node1 -->
<g id="node1" class="node">
<title>Node1</title>
<g id="a_node1"><a xlink:title="Implementação de animal com Classe e Categoria.">
<polygon fill="#bfbfbf" stroke="black" points="87.5,-0.5 87.5,-134.5 299.5,-134.5 299.5,-0.5 87.5,-0.5"/>
<text text-anchor="middle" x="193.5" y="-114.5" font-family="Helvetica,sans-Serif" font-size="20.00">AnfibioExotico</text>
<polyline fill="none" stroke="black" points="87.5,-104.5 299.5,-104.5 "/>
<text text-anchor="middle" x="193.5" y="-84.5" font-family="Helvetica,sans-Serif" font-size="20.00"> </text>
<polyline fill="none" stroke="black" points="87.5,-74.5 299.5,-74.5 "/>
<text text-anchor="start" x="95.5" y="-54.5" font-family="Helvetica,sans-Serif" font-size="20.00">+ AnfibioExotico()</text>
<text text-anchor="start" x="95.5" y="-32.5" font-family="Helvetica,sans-Serif" font-size="20.00">+ AnfibioExotico()</text>
<text text-anchor="start" x="95.5" y="-10.5" font-family="Helvetica,sans-Serif" font-size="20.00">+ ~AnfibioExotico()</text>
</a>
</g>
</g>
<!-- Node2 -->
<g id="node2" class="node">
<title>Node2</title>
<g id="a_node2"><a xlink:href="classAnfibio.html" target="_top" xlink:title="Classificação base para Anfibios.">
<polygon fill="white" stroke="black" points="36.5,-171.5 36.5,-459.5 186.5,-459.5 186.5,-171.5 36.5,-171.5"/>
<text text-anchor="middle" x="111.5" y="-439.5" font-family="Helvetica,sans-Serif" font-size="20.00">Anfibio</text>
<polyline fill="none" stroke="black" points="36.5,-429.5 186.5,-429.5 "/>
<text text-anchor="start" x="44.5" y="-409.5" font-family="Helvetica,sans-Serif" font-size="20.00"># cauda</text>
<text text-anchor="start" x="44.5" y="-387.5" font-family="Helvetica,sans-Serif" font-size="20.00"># pata</text>
<polyline fill="none" stroke="black" points="36.5,-377.5 186.5,-377.5 "/>
<text text-anchor="start" x="44.5" y="-357.5" font-family="Helvetica,sans-Serif" font-size="20.00">+ Anfibio()</text>
<text text-anchor="start" x="44.5" y="-335.5" font-family="Helvetica,sans-Serif" font-size="20.00">+ Anfibio()</text>
<text text-anchor="start" x="44.5" y="-313.5" font-family="Helvetica,sans-Serif" font-size="20.00">+ ~Anfibio()</text>
<text text-anchor="start" x="44.5" y="-291.5" font-family="Helvetica,sans-Serif" font-size="20.00">+ getCauda()</text>
<text text-anchor="start" x="44.5" y="-269.5" font-family="Helvetica,sans-Serif" font-size="20.00">+ setCauda()</text>
<text text-anchor="start" x="44.5" y="-247.5" font-family="Helvetica,sans-Serif" font-size="20.00">+ setCauda()</text>
<text text-anchor="start" x="44.5" y="-225.5" font-family="Helvetica,sans-Serif" font-size="20.00">+ getPata()</text>
<text text-anchor="start" x="44.5" y="-203.5" font-family="Helvetica,sans-Serif" font-size="20.00">+ setPata()</text>
<text text-anchor="start" x="44.5" y="-181.5" font-family="Helvetica,sans-Serif" font-size="20.00">+ setPata()</text>
</a>
</g>
</g>
<!-- Node2&#45;&gt;Node1 -->
<g id="edge1" class="edge">
<title>Node2&#45;&gt;Node1</title>
<path fill="none" stroke="midnightblue" d="M162.45,-161.66C165.54,-152.38 168.55,-143.35 171.4,-134.79"/>
<polygon fill="none" stroke="midnightblue" points="159.04,-160.81 159.2,-171.4 165.68,-163.02 159.04,-160.81"/>
</g>
<!-- Node3 -->
<g id="node3" class="node">
<title>Node3</title>
<g id="a_node3"><a xlink:href="classAnimal.html" target="_top" xlink:title="Implementação base para o cadastro de animais.">
<polygon fill="white" stroke="black" points="0,-496.5 0,-916.5 223,-916.5 223,-496.5 0,-496.5"/>
<text text-anchor="middle" x="111.5" y="-896.5" font-family="Helvetica,sans-Serif" font-size="20.00">Animal</text>
<polyline fill="none" stroke="black" points="0,-886.5 223,-886.5 "/>
<text text-anchor="start" x="8" y="-866.5" font-family="Helvetica,sans-Serif" font-size="20.00"># nome</text>
<text text-anchor="start" x="8" y="-844.5" font-family="Helvetica,sans-Serif" font-size="20.00"># especie</text>
<text text-anchor="start" x="8" y="-822.5" font-family="Helvetica,sans-Serif" font-size="20.00"># ameacadoPor</text>
<text text-anchor="start" x="8" y="-800.5" font-family="Helvetica,sans-Serif" font-size="20.00"># veterinario</text>
<text text-anchor="start" x="8" y="-778.5" font-family="Helvetica,sans-Serif" font-size="20.00"># tratador</text>
<text text-anchor="start" x="8" y="-756.5" font-family="Helvetica,sans-Serif" font-size="20.00"># perigoso</text>
<polyline fill="none" stroke="black" points="0,-746.5 223,-746.5 "/>
<text text-anchor="start" x="8" y="-726.5" font-family="Helvetica,sans-Serif" font-size="20.00">+ Animal()</text>
<text text-anchor="start" x="8" y="-704.5" font-family="Helvetica,sans-Serif" font-size="20.00">+ Animal()</text>
<text text-anchor="start" x="8" y="-682.5" font-family="Helvetica,sans-Serif" font-size="20.00">+ ~Animal()</text>
<text text-anchor="start" x="8" y="-660.5" font-family="Helvetica,sans-Serif" font-size="20.00">+ getNome()</text>
<text text-anchor="start" x="8" y="-638.5" font-family="Helvetica,sans-Serif" font-size="20.00">+ getEspecie()</text>
<text text-anchor="start" x="8" y="-616.5" font-family="Helvetica,sans-Serif" font-size="20.00">+ getAmeacadoPor()</text>
<text text-anchor="start" x="8" y="-594.5" font-family="Helvetica,sans-Serif" font-size="20.00">+ getVeterinario()</text>
<text text-anchor="start" x="8" y="-572.5" font-family="Helvetica,sans-Serif" font-size="20.00">+ getTratador()</text>
<text text-anchor="start" x="8" y="-550.5" font-family="Helvetica,sans-Serif" font-size="20.00">+ getPerigoso()</text>
<text text-anchor="start" x="8" y="-528.5" font-family="Helvetica,sans-Serif" font-size="20.00">+ setNome()</text>
<text text-anchor="start" x="8" y="-506.5" font-family="Helvetica,sans-Serif" font-size="20.00">e 15 mais...</text>
</a>
</g>
</g>
<!-- Node3&#45;&gt;Node2 -->
<g id="edge2" class="edge">
<title>Node3&#45;&gt;Node2</title>
<path fill="none" stroke="midnightblue" d="M111.5,-486.31C111.5,-477.33 111.5,-468.42 111.5,-459.66"/>
<polygon fill="none" stroke="midnightblue" points="108,-486.48 111.5,-496.48 115,-486.48 108,-486.48"/>
</g>
<!-- Node4 -->
<g id="node4" class="node">
<title>Node4</title>
<g id="a_node4"><a xlink:href="classExotico.html" target="_top" xlink:title="Umas das definições de categoria para Animal.">
<polygon fill="white" stroke="black" points="205,-215.5 205,-415.5 348,-415.5 348,-215.5 205,-215.5"/>
<text text-anchor="middle" x="276.5" y="-395.5" font-family="Helvetica,sans-Serif" font-size="20.00">Exotico</text>
<polyline fill="none" stroke="black" points="205,-385.5 348,-385.5 "/>
<text text-anchor="start" x="213" y="-365.5" font-family="Helvetica,sans-Serif" font-size="20.00"># local</text>
<polyline fill="none" stroke="black" points="205,-355.5 348,-355.5 "/>
<text text-anchor="start" x="213" y="-335.5" font-family="Helvetica,sans-Serif" font-size="20.00">+ Exotico()</text>
<text text-anchor="start" x="213" y="-313.5" font-family="Helvetica,sans-Serif" font-size="20.00">+ Exotico()</text>
<text text-anchor="start" x="213" y="-291.5" font-family="Helvetica,sans-Serif" font-size="20.00">+ ~Exotico()</text>
<text text-anchor="start" x="213" y="-269.5" font-family="Helvetica,sans-Serif" font-size="20.00">+ getLocal()</text>
<text text-anchor="start" x="213" y="-247.5" font-family="Helvetica,sans-Serif" font-size="20.00">+ setLocal()</text>
<text text-anchor="start" x="213" y="-225.5" font-family="Helvetica,sans-Serif" font-size="20.00">+ setLocal()</text>
</a>
</g>
</g>
<!-- Node4&#45;&gt;Node1 -->
<g id="edge3" class="edge">
<title>Node4&#45;&gt;Node1</title>
<path fill="none" stroke="midnightblue" d="M239.75,-205.58C231.6,-181.42 223.2,-156.53 215.83,-134.69"/>
<polygon fill="none" stroke="midnightblue" points="236.47,-206.8 242.98,-215.15 243.1,-204.56 236.47,-206.8"/>
</g>
</g>
</svg>
