<?xml version="1.0" encoding="UTF-8" standalone="no"?>
<!DOCTYPE svg PUBLIC "-//W3C//DTD SVG 1.1//EN"
 "http://www.w3.org/Graphics/SVG/1.1/DTD/svg11.dtd">
<!-- Generated by graphviz version 2.43.0 (0)
 -->
<!-- Title: Mamifero Pages: 1 -->
<svg width="775pt" height="793pt"
 viewBox="0.00 0.00 775.00 793.00" xmlns="http://www.w3.org/2000/svg" xmlns:xlink="http://www.w3.org/1999/xlink">
<g id="graph0" class="graph" transform="scale(1 1) rotate(0) translate(4 789)">
<title>Mamifero</title>
<polygon fill="white" stroke="transparent" points="-4,4 -4,-789 771,-789 771,4 -4,4"/>
<!-- Node1 -->
<g id="node1" class="node">
<title>Node1</title>
<g id="a_node1"><a xlink:title="Classificação base para Mamiferos.">
<polygon fill="#bfbfbf" stroke="black" points="315,-149.5 315,-283.5 494,-283.5 494,-149.5 315,-149.5"/>
<text text-anchor="middle" x="404.5" y="-263.5" font-family="Helvetica,sans-Serif" font-size="20.00">Mamifero</text>
<polyline fill="none" stroke="black" points="315,-253.5 494,-253.5 "/>
<text text-anchor="start" x="323" y="-233.5" font-family="Helvetica,sans-Serif" font-size="20.00"># gestacao</text>
<polyline fill="none" stroke="black" points="315,-223.5 494,-223.5 "/>
<text text-anchor="start" x="323" y="-203.5" font-family="Helvetica,sans-Serif" font-size="20.00">+ Mamifero()</text>
<text text-anchor="start" x="323" y="-181.5" font-family="Helvetica,sans-Serif" font-size="20.00">+ ~Mamifero()</text>
<text text-anchor="start" x="323" y="-159.5" font-family="Helvetica,sans-Serif" font-size="20.00">+ getGestacao()</text>
</a>
</g>
</g>
<!-- Node3 -->
<g id="node3" class="node">
<title>Node3</title>
<g id="a_node3"><a xlink:href="classMamiferoDomestico.html" target="_top" xlink:title="Implementação de animal com Classe e Categoria.">
<polygon fill="white" stroke="black" points="0,-0.5 0,-112.5 269,-112.5 269,-0.5 0,-0.5"/>
<text text-anchor="middle" x="134.5" y="-92.5" font-family="Helvetica,sans-Serif" font-size="20.00">MamiferoDomestico</text>
<polyline fill="none" stroke="black" points="0,-82.5 269,-82.5 "/>
<text text-anchor="middle" x="134.5" y="-62.5" font-family="Helvetica,sans-Serif" font-size="20.00"> </text>
<polyline fill="none" stroke="black" points="0,-52.5 269,-52.5 "/>
<text text-anchor="start" x="8" y="-32.5" font-family="Helvetica,sans-Serif" font-size="20.00">+ MamiferoDomestico()</text>
<text text-anchor="start" x="8" y="-10.5" font-family="Helvetica,sans-Serif" font-size="20.00">+ ~MamiferoDomestico()</text>
</a>
</g>
</g>
<!-- Node1&#45;&gt;Node3 -->
<g id="edge2" class="edge">
<title>Node1&#45;&gt;Node3</title>
<path fill="none" stroke="midnightblue" d="M306.14,-157.94C280.93,-143.19 253.88,-127.36 228.88,-112.73"/>
<polygon fill="none" stroke="midnightblue" points="304.57,-161.08 314.97,-163.11 308.11,-155.04 304.57,-161.08"/>
</g>
<!-- Node4 -->
<g id="node4" class="node">
<title>Node4</title>
<g id="a_node4"><a xlink:href="classMamiferoExotico.html" target="_top" xlink:title="Implementação de animal com Classe e Categoria.">
<polygon fill="white" stroke="black" points="287,-0.5 287,-112.5 522,-112.5 522,-0.5 287,-0.5"/>
<text text-anchor="middle" x="404.5" y="-92.5" font-family="Helvetica,sans-Serif" font-size="20.00">MamiferoExotico</text>
<polyline fill="none" stroke="black" points="287,-82.5 522,-82.5 "/>
<text text-anchor="middle" x="404.5" y="-62.5" font-family="Helvetica,sans-Serif" font-size="20.00"> </text>
<polyline fill="none" stroke="black" points="287,-52.5 522,-52.5 "/>
<text text-anchor="start" x="295" y="-32.5" font-family="Helvetica,sans-Serif" font-size="20.00">+ MamiferoExotico()</text>
<text text-anchor="start" x="295" y="-10.5" font-family="Helvetica,sans-Serif" font-size="20.00">+ ~MamiferoExotico()</text>
</a>
</g>
</g>
<!-- Node1&#45;&gt;Node4 -->
<g id="edge3" class="edge">
<title>Node1&#45;&gt;Node4</title>
<path fill="none" stroke="midnightblue" d="M404.5,-139.35C404.5,-130.4 404.5,-121.4 404.5,-112.82"/>
<polygon fill="none" stroke="midnightblue" points="401,-139.41 404.5,-149.41 408,-139.41 401,-139.41"/>
</g>
<!-- Node5 -->
<g id="node5" class="node">
<title>Node5</title>
<g id="a_node5"><a xlink:href="classMamiferoNativo.html" target="_top" xlink:title="Implementação de animal com Classe e Categoria.">
<polygon fill="white" stroke="black" points="540,-0.5 540,-112.5 767,-112.5 767,-0.5 540,-0.5"/>
<text text-anchor="middle" x="653.5" y="-92.5" font-family="Helvetica,sans-Serif" font-size="20.00">MamiferoNativo</text>
<polyline fill="none" stroke="black" points="540,-82.5 767,-82.5 "/>
<text text-anchor="middle" x="653.5" y="-62.5" font-family="Helvetica,sans-Serif" font-size="20.00"> </text>
<polyline fill="none" stroke="black" points="540,-52.5 767,-52.5 "/>
<text text-anchor="start" x="548" y="-32.5" font-family="Helvetica,sans-Serif" font-size="20.00">+ MamiferoNativo()</text>
<text text-anchor="start" x="548" y="-10.5" font-family="Helvetica,sans-Serif" font-size="20.00">+ ~MamiferoNativo()</text>
</a>
</g>
</g>
<!-- Node1&#45;&gt;Node5 -->
<g id="edge4" class="edge">
<title>Node1&#45;&gt;Node5</title>
<path fill="none" stroke="midnightblue" d="M502.68,-153.2C523.72,-139.85 545.82,-125.82 566.42,-112.76"/>
<polygon fill="none" stroke="midnightblue" points="500.61,-150.37 494.04,-158.68 504.36,-156.28 500.61,-150.37"/>
</g>
<!-- Node2 -->
<g id="node2" class="node">
<title>Node2</title>
<g id="a_node2"><a xlink:href="classAnimal.html" target="_top" xlink:title="Implementação base para o cadastro de animais.">
<polygon fill="white" stroke="black" points="293,-320.5 293,-784.5 516,-784.5 516,-320.5 293,-320.5"/>
<text text-anchor="middle" x="404.5" y="-764.5" font-family="Helvetica,sans-Serif" font-size="20.00">Animal</text>
<polyline fill="none" stroke="black" points="293,-754.5 516,-754.5 "/>
<text text-anchor="start" x="301" y="-734.5" font-family="Helvetica,sans-Serif" font-size="20.00"># nome</text>
<text text-anchor="start" x="301" y="-712.5" font-family="Helvetica,sans-Serif" font-size="20.00"># especie</text>
<text text-anchor="start" x="301" y="-690.5" font-family="Helvetica,sans-Serif" font-size="20.00"># ameacadoPor</text>
<text text-anchor="start" x="301" y="-668.5" font-family="Helvetica,sans-Serif" font-size="20.00"># veterinario</text>
<text text-anchor="start" x="301" y="-646.5" font-family="Helvetica,sans-Serif" font-size="20.00"># tratador</text>
<text text-anchor="start" x="301" y="-624.5" font-family="Helvetica,sans-Serif" font-size="20.00"># perigoso</text>
<polyline fill="none" stroke="black" points="293,-614.5 516,-614.5 "/>
<text text-anchor="start" x="301" y="-594.5" font-family="Helvetica,sans-Serif" font-size="20.00">+ Animal()</text>
<text text-anchor="start" x="301" y="-572.5" font-family="Helvetica,sans-Serif" font-size="20.00">+ Animal()</text>
<text text-anchor="start" x="301" y="-550.5" font-family="Helvetica,sans-Serif" font-size="20.00">+ ~Animal()</text>
<text text-anchor="start" x="301" y="-528.5" font-family="Helvetica,sans-Serif" font-size="20.00">+ getNome()</text>
<text text-anchor="start" x="301" y="-506.5" font-family="Helvetica,sans-Serif" font-size="20.00">+ getEspecie()</text>
<text text-anchor="start" x="301" y="-484.5" font-family="Helvetica,sans-Serif" font-size="20.00">+ getAmeacadoPor()</text>
<text text-anchor="start" x="301" y="-462.5" font-family="Helvetica,sans-Serif" font-size="20.00">+ getVeterinario()</text>
<text text-anchor="start" x="301" y="-440.5" font-family="Helvetica,sans-Serif" font-size="20.00">+ getTratador()</text>
<text text-anchor="start" x="301" y="-418.5" font-family="Helvetica,sans-Serif" font-size="20.00">+ getPerigoso()</text>
<text text-anchor="start" x="301" y="-396.5" font-family="Helvetica,sans-Serif" font-size="20.00">+ getClassificacao()</text>
<text text-anchor="start" x="301" y="-374.5" font-family="Helvetica,sans-Serif" font-size="20.00">+ getClasse()</text>
<text text-anchor="start" x="301" y="-352.5" font-family="Helvetica,sans-Serif" font-size="20.00">+ printOutDados()</text>
<text text-anchor="start" x="301" y="-330.5" font-family="Helvetica,sans-Serif" font-size="20.00">+ operator==()</text>
</a>
</g>
</g>
<!-- Node2&#45;&gt;Node1 -->
<g id="edge1" class="edge">
<title>Node2&#45;&gt;Node1</title>
<path fill="none" stroke="midnightblue" d="M404.5,-310.21C404.5,-300.91 404.5,-292 404.5,-283.63"/>
<polygon fill="none" stroke="midnightblue" points="401,-310.44 404.5,-320.44 408,-310.44 401,-310.44"/>
</g>
</g>
</svg>
