<?xml version="1.0" encoding="UTF-8" standalone="no"?>
<!DOCTYPE svg PUBLIC "-//W3C//DTD SVG 1.1//EN"
 "http://www.w3.org/Graphics/SVG/1.1/DTD/svg11.dtd">
<!-- Generated by graphviz version 2.40.1 (20161225.0304)
 -->
<!-- Title: MapeadorAnimal Pages: 1 -->
<svg width="312pt" height="270pt"
 viewBox="0.00 0.00 312.00 270.00" xmlns="http://www.w3.org/2000/svg" xmlns:xlink="http://www.w3.org/1999/xlink">
<g id="graph0" class="graph" transform="scale(1 1) rotate(0) translate(4 266)">
<title>MapeadorAnimal</title>
<polygon fill="#ffffff" stroke="transparent" points="-4,4 -4,-266 308,-266 308,4 -4,4"/>
<!-- Node1 -->
<g id="node1" class="node">
<title>Node1</title>
<polygon fill="#bfbfbf" stroke="#000000" points="60.5,-.5 60.5,-90.5 243.5,-90.5 243.5,-.5 60.5,-.5"/>
<text text-anchor="middle" x="152" y="-70.5" font-family="Helvetica,sans-Serif" font-size="20.00" fill="#000000">MapeadorAnimal</text>
<polyline fill="none" stroke="#000000" points="60.5,-60.5 243.5,-60.5 "/>
<text text-anchor="middle" x="152" y="-40.5" font-family="Helvetica,sans-Serif" font-size="20.00" fill="#000000"> </text>
<polyline fill="none" stroke="#000000" points="60.5,-30.5 243.5,-30.5 "/>
<text text-anchor="start" x="68.5" y="-10.5" font-family="Helvetica,sans-Serif" font-size="20.00" fill="#000000">+ MapeadorAnimal()</text>
</g>
<!-- Node2 -->
<g id="node2" class="node">
<title>Node2</title>
<polygon fill="#ffffff" stroke="#bfbfbf" points="0,-149.5 0,-261.5 304,-261.5 304,-149.5 0,-149.5"/>
<text text-anchor="start" x="8" y="-241.5" font-family="Helvetica,sans-Serif" font-size="20.00" fill="#000000">map&lt; string, std::function</text>
<text text-anchor="middle" x="152" y="-219.5" font-family="Helvetica,sans-Serif" font-size="20.00" fill="#000000">&lt; Animal *(DadosAnimal dados)&gt; &gt;</text>
<polyline fill="none" stroke="#bfbfbf" points="0,-209.5 304,-209.5 "/>
<text text-anchor="middle" x="152" y="-189.5" font-family="Helvetica,sans-Serif" font-size="20.00" fill="#000000"> </text>
<polyline fill="none" stroke="#bfbfbf" points="0,-179.5 304,-179.5 "/>
<text text-anchor="middle" x="152" y="-159.5" font-family="Helvetica,sans-Serif" font-size="20.00" fill="#000000"> </text>
</g>
<!-- Node2&#45;&gt;Node1 -->
<g id="edge1" class="edge">
<title>Node2&#45;&gt;Node1</title>
<path fill="none" stroke="#404040" d="M152,-149.09C152,-134.1183 152,-117.9361 152,-102.9117"/>
<polygon fill="none" stroke="#404040" points="152.0001,-102.6155 148,-96.6155 152,-90.6155 156,-96.6155 152.0001,-102.6155"/>
<text text-anchor="middle" x="182.5" y="-115" font-family="Helvetica,sans-Serif" font-size="20.00" fill="#000000"> +aMap</text>
</g>
</g>
</svg>
