<?xml version="1.0" encoding="UTF-8" standalone="no"?>
<!DOCTYPE svg PUBLIC "-//W3C//DTD SVG 1.1//EN"
 "http://www.w3.org/Graphics/SVG/1.1/DTD/svg11.dtd">
<!-- Generated by graphviz version 2.40.1 (20161225.0304)
 -->
<!-- Title: Animal Pages: 1 -->
<!--zoomable 1140 -->
<svg id="main" version="1.1" xmlns="http://www.w3.org/2000/svg" xmlns:xlink="http://www.w3.org/1999/xlink" xml:space="preserve" onload="init(evt)">
<style type="text/css"><![CDATA[
.edge:hover path { stroke: red; }
.edge:hover polygon { stroke: red; fill: red; }
]]></style>
<script type="text/javascript"><![CDATA[
var edges = document.getElementsByTagName('g');
if (edges && edges.length) {
  for (var i=0;i<edges.length;i++) {
    if (edges[i].id.substr(0,4)=='edge') {
      edges[i].setAttribute('class','edge');
    }
  }
}
]]></script>
        <defs>
                <circle id="rim" cx="0" cy="0" r="7"/>
                <circle id="rim2" cx="0" cy="0" r="3.5"/>
                <g id="zoomPlus">
                        <use xlink:href="#rim" fill="#404040">
                                <set attributeName="fill" to="#808080" begin="zoomplus.mouseover" end="zoomplus.mouseout"/>
                        </use>
                        <path d="M-4,0h8M0,-4v8" fill="none" stroke="white" stroke-width="1.5" pointer-events="none"/>
                </g>
                <g id="zoomMin">
                        <use xlink:href="#rim" fill="#404040">
                                <set attributeName="fill" to="#808080" begin="zoomminus.mouseover" end="zoomminus.mouseout"/>
                        </use>
                        <path d="M-4,0h8" fill="none" stroke="white" stroke-width="1.5" pointer-events="none"/>
                </g>
                <g id="dirArrow">
                        <path fill="none" stroke="white" stroke-width="1.5" d="M0,-3.0v7 M-2.5,-0.5L0,-3.0L2.5,-0.5"/>
                </g>
               <g id="resetDef">
                       <use xlink:href="#rim2" fill="#404040">
                               <set attributeName="fill" to="#808080" begin="reset.mouseover" end="reset.mouseout"/>
                       </use>
               </g>
        </defs>

<script type="text/javascript">
var viewWidth = 495;
var viewHeight = 1140;
var sectionId = 'dynsection-1';
</script>
<script xlink:href="svgpan.js"/>
<svg id="graph" class="graph">
<g id="viewport">
<title>Animal</title>
<polygon fill="#ffffff" stroke="transparent" points="-4,4 -4,-1136 491.2408,-1136 491.2408,4 -4,4"/>
<!-- Node16 -->
<g id="node1" class="node">
<title>Node16</title>
<polygon fill="#bfbfbf" stroke="#000000" points="141.7408,-.5 141.7408,-354.5 326.7408,-354.5 326.7408,-.5 141.7408,-.5"/>
<text text-anchor="middle" x="234.2408" y="-334.5" font-family="Helvetica,sans-Serif" font-size="20.00" fill="#000000">Animal</text>
<polyline fill="none" stroke="#000000" points="141.7408,-324.5 326.7408,-324.5 "/>
<text text-anchor="middle" x="234.2408" y="-304.5" font-family="Helvetica,sans-Serif" font-size="20.00" fill="#000000"> </text>
<polyline fill="none" stroke="#000000" points="141.7408,-294.5 326.7408,-294.5 "/>
<text text-anchor="start" x="149.7408" y="-274.5" font-family="Helvetica,sans-Serif" font-size="20.00" fill="#000000">+ Animal()</text>
<text text-anchor="start" x="149.7408" y="-252.5" font-family="Helvetica,sans-Serif" font-size="20.00" fill="#000000">+ Animal()</text>
<text text-anchor="start" x="149.7408" y="-230.5" font-family="Helvetica,sans-Serif" font-size="20.00" fill="#000000">+ ~Animal()</text>
<text text-anchor="start" x="149.7408" y="-208.5" font-family="Helvetica,sans-Serif" font-size="20.00" fill="#000000">+ getNome()</text>
<text text-anchor="start" x="149.7408" y="-186.5" font-family="Helvetica,sans-Serif" font-size="20.00" fill="#000000">+ getEspecie()</text>
<text text-anchor="start" x="149.7408" y="-164.5" font-family="Helvetica,sans-Serif" font-size="20.00" fill="#000000">+ getAmeacadoPor()</text>
<text text-anchor="start" x="149.7408" y="-142.5" font-family="Helvetica,sans-Serif" font-size="20.00" fill="#000000">+ getVeterinario()</text>
<text text-anchor="start" x="149.7408" y="-120.5" font-family="Helvetica,sans-Serif" font-size="20.00" fill="#000000">+ getTratador()</text>
<text text-anchor="start" x="149.7408" y="-98.5" font-family="Helvetica,sans-Serif" font-size="20.00" fill="#000000">+ getPerigoso()</text>
<text text-anchor="start" x="149.7408" y="-76.5" font-family="Helvetica,sans-Serif" font-size="20.00" fill="#000000">+ getClassificacao()</text>
<text text-anchor="start" x="149.7408" y="-54.5" font-family="Helvetica,sans-Serif" font-size="20.00" fill="#000000">+ getClasse()</text>
<text text-anchor="start" x="149.7408" y="-32.5" font-family="Helvetica,sans-Serif" font-size="20.00" fill="#000000">+ printOutDados()</text>
<text text-anchor="start" x="149.7408" y="-10.5" font-family="Helvetica,sans-Serif" font-size="20.00" fill="#000000">+ operator==()</text>
</g>
<!-- Node17 -->
<g id="node2" class="node">
<title>Node17</title>
<g id="a_node2"><a xlink:href="classTratador.html" target="_top" xlink:title="Implementação dos tratadores. ">
<polygon fill="#ffffff" stroke="#000000" points="229.2408,-413.5 229.2408,-591.5 393.2408,-591.5 393.2408,-413.5 229.2408,-413.5"/>
<text text-anchor="middle" x="311.2408" y="-571.5" font-family="Helvetica,sans-Serif" font-size="20.00" fill="#000000">Tratador</text>
<polyline fill="none" stroke="#000000" points="229.2408,-561.5 393.2408,-561.5 "/>
<text text-anchor="middle" x="311.2408" y="-541.5" font-family="Helvetica,sans-Serif" font-size="20.00" fill="#000000"> </text>
<polyline fill="none" stroke="#000000" points="229.2408,-531.5 393.2408,-531.5 "/>
<text text-anchor="start" x="237.2408" y="-511.5" font-family="Helvetica,sans-Serif" font-size="20.00" fill="#000000">+ Tratador()</text>
<text text-anchor="start" x="237.2408" y="-489.5" font-family="Helvetica,sans-Serif" font-size="20.00" fill="#000000">+ Tratador()</text>
<text text-anchor="start" x="237.2408" y="-467.5" font-family="Helvetica,sans-Serif" font-size="20.00" fill="#000000">+ ~Tratador()</text>
<text text-anchor="start" x="237.2408" y="-445.5" font-family="Helvetica,sans-Serif" font-size="20.00" fill="#000000">+ getUniforme()</text>
<text text-anchor="start" x="237.2408" y="-423.5" font-family="Helvetica,sans-Serif" font-size="20.00" fill="#000000">+ printOutDados()</text>
</a>
</g>
</g>
<!-- Node17&#45;&gt;Node16 -->
<g id="edge1" class="edge">
<title>Node17&#45;&gt;Node16</title>
<path fill="none" stroke="#404040" d="M290.0983,-413.2624C286.5874,-398.4435 282.8329,-382.5965 278.9931,-366.3897"/>
<polygon fill="none" stroke="#404040" points="278.9509,-366.2113 273.6754,-361.2952 276.1844,-354.5346 281.4599,-359.4508 278.9509,-366.2113"/>
<text text-anchor="middle" x="323.7408" y="-379" font-family="Helvetica,sans-Serif" font-size="20.00" fill="#000000"> #tratador</text>
</g>
<!-- Node18 -->
<g id="node3" class="node">
<title>Node18</title>
<g id="a_node3"><a xlink:href="classPessoa.html" target="_top" xlink:title="Classe base dos funcionarios. ">
<polygon fill="#ffffff" stroke="#000000" points="213.2408,-694.5 213.2408,-938.5 377.2408,-938.5 377.2408,-694.5 213.2408,-694.5"/>
<text text-anchor="middle" x="295.2408" y="-918.5" font-family="Helvetica,sans-Serif" font-size="20.00" fill="#000000">Pessoa</text>
<polyline fill="none" stroke="#000000" points="213.2408,-908.5 377.2408,-908.5 "/>
<text text-anchor="middle" x="295.2408" y="-888.5" font-family="Helvetica,sans-Serif" font-size="20.00" fill="#000000"> </text>
<polyline fill="none" stroke="#000000" points="213.2408,-878.5 377.2408,-878.5 "/>
<text text-anchor="start" x="221.2408" y="-858.5" font-family="Helvetica,sans-Serif" font-size="20.00" fill="#000000">+ Pessoa()</text>
<text text-anchor="start" x="221.2408" y="-836.5" font-family="Helvetica,sans-Serif" font-size="20.00" fill="#000000">+ Pessoa()</text>
<text text-anchor="start" x="221.2408" y="-814.5" font-family="Helvetica,sans-Serif" font-size="20.00" fill="#000000">+ ~Pessoa()</text>
<text text-anchor="start" x="221.2408" y="-792.5" font-family="Helvetica,sans-Serif" font-size="20.00" fill="#000000">+ getNome()</text>
<text text-anchor="start" x="221.2408" y="-770.5" font-family="Helvetica,sans-Serif" font-size="20.00" fill="#000000">+ getTelefone()</text>
<text text-anchor="start" x="221.2408" y="-748.5" font-family="Helvetica,sans-Serif" font-size="20.00" fill="#000000">+ getEmail()</text>
<text text-anchor="start" x="221.2408" y="-726.5" font-family="Helvetica,sans-Serif" font-size="20.00" fill="#000000">+ printOutDados()</text>
<text text-anchor="start" x="221.2408" y="-704.5" font-family="Helvetica,sans-Serif" font-size="20.00" fill="#000000">+ operator==()</text>
</a>
</g>
</g>
<!-- Node18&#45;&gt;Node17 -->
<g id="edge2" class="edge">
<title>Node18&#45;&gt;Node17</title>
<path fill="none" stroke="#191970" d="M301.9846,-684.152C303.5699,-653.0404 305.2227,-620.6041 306.6856,-591.8956"/>
<polygon fill="none" stroke="#191970" points="298.4861,-684.0351 301.4726,-694.2003 305.4771,-684.3914 298.4861,-684.0351"/>
</g>
<!-- Node22 -->
<g id="node7" class="node">
<title>Node22</title>
<g id="a_node7"><a xlink:href="classVeterinario.html" target="_top" xlink:title="Implementação dos veterinarios. ">
<polygon fill="#ffffff" stroke="#000000" points="47.2408,-413.5 47.2408,-591.5 211.2408,-591.5 211.2408,-413.5 47.2408,-413.5"/>
<text text-anchor="middle" x="129.2408" y="-571.5" font-family="Helvetica,sans-Serif" font-size="20.00" fill="#000000">Veterinario</text>
<polyline fill="none" stroke="#000000" points="47.2408,-561.5 211.2408,-561.5 "/>
<text text-anchor="middle" x="129.2408" y="-541.5" font-family="Helvetica,sans-Serif" font-size="20.00" fill="#000000"> </text>
<polyline fill="none" stroke="#000000" points="47.2408,-531.5 211.2408,-531.5 "/>
<text text-anchor="start" x="55.2408" y="-511.5" font-family="Helvetica,sans-Serif" font-size="20.00" fill="#000000">+ Veterinario()</text>
<text text-anchor="start" x="55.2408" y="-489.5" font-family="Helvetica,sans-Serif" font-size="20.00" fill="#000000">+ Veterinario()</text>
<text text-anchor="start" x="55.2408" y="-467.5" font-family="Helvetica,sans-Serif" font-size="20.00" fill="#000000">+ ~Veterinario()</text>
<text text-anchor="start" x="55.2408" y="-445.5" font-family="Helvetica,sans-Serif" font-size="20.00" fill="#000000">+ getCRMV()</text>
<text text-anchor="start" x="55.2408" y="-423.5" font-family="Helvetica,sans-Serif" font-size="20.00" fill="#000000">+ printOutDados()</text>
</a>
</g>
</g>
<!-- Node18&#45;&gt;Node22 -->
<g id="edge8" class="edge">
<title>Node18&#45;&gt;Node22</title>
<path fill="none" stroke="#191970" d="M225.7004,-684.9598C209.1229,-653.6023 191.8094,-620.8526 176.5009,-591.8956"/>
<polygon fill="none" stroke="#191970" points="222.8175,-686.9955 230.5855,-694.2003 229.006,-683.7238 222.8175,-686.9955"/>
</g>
<!-- Node19 -->
<g id="node4" class="node">
<title>Node19</title>
<polygon fill="#ffffff" stroke="#bfbfbf" points="97.2408,-1041.5 97.2408,-1131.5 161.2408,-1131.5 161.2408,-1041.5 97.2408,-1041.5"/>
<text text-anchor="middle" x="129.2408" y="-1111.5" font-family="Helvetica,sans-Serif" font-size="20.00" fill="#000000">string</text>
<polyline fill="none" stroke="#bfbfbf" points="97.2408,-1101.5 161.2408,-1101.5 "/>
<text text-anchor="middle" x="129.2408" y="-1081.5" font-family="Helvetica,sans-Serif" font-size="20.00" fill="#000000"> </text>
<polyline fill="none" stroke="#bfbfbf" points="97.2408,-1071.5 161.2408,-1071.5 "/>
<text text-anchor="middle" x="129.2408" y="-1051.5" font-family="Helvetica,sans-Serif" font-size="20.00" fill="#000000"> </text>
</g>
<!-- Node19&#45;&gt;Node16 -->
<g id="edge6" class="edge">
<title>Node19&#45;&gt;Node16</title>
<path fill="none" stroke="#404040" d="M105.9818,-1041.4389C65.4418,-957.9461 -12.5171,-772.8546 2.2408,-610 10.2736,-521.3577 .537,-493.6251 38.2408,-413 61.5528,-363.1501 98.033,-315.1302 133.231,-275.6025"/>
<polygon fill="none" stroke="#404040" points="133.622,-275.1695 134.6743,-268.0355 141.6642,-266.263 140.6119,-273.397 133.622,-275.1695"/>
<text text-anchor="middle" x="63.7408" y="-660" font-family="Helvetica,sans-Serif" font-size="20.00" fill="#000000"> #especie</text>
<text text-anchor="middle" x="63.7408" y="-638" font-family="Helvetica,sans-Serif" font-size="20.00" fill="#000000">#ameacadoPor</text>
<text text-anchor="middle" x="63.7408" y="-616" font-family="Helvetica,sans-Serif" font-size="20.00" fill="#000000">#nome</text>
</g>
<!-- Node19&#45;&gt;Node18 -->
<g id="edge3" class="edge">
<title>Node19&#45;&gt;Node18</title>
<path fill="none" stroke="#404040" d="M157.0254,-1041.3081C172.7506,-1015.7311 193.315,-982.2829 213.7568,-949.0342"/>
<polygon fill="none" stroke="#404040" points="213.8064,-948.9535 213.5414,-941.7472 220.0914,-938.731 220.3564,-945.9372 213.8064,-948.9535"/>
<text text-anchor="middle" x="245.7408" y="-1007" font-family="Helvetica,sans-Serif" font-size="20.00" fill="#000000"> #email</text>
<text text-anchor="middle" x="245.7408" y="-985" font-family="Helvetica,sans-Serif" font-size="20.00" fill="#000000">#nome</text>
<text text-anchor="middle" x="245.7408" y="-963" font-family="Helvetica,sans-Serif" font-size="20.00" fill="#000000">#telefone</text>
</g>
<!-- Node19&#45;&gt;Node22 -->
<g id="edge9" class="edge">
<title>Node19&#45;&gt;Node22</title>
<path fill="none" stroke="#404040" d="M129.2408,-1041.1605C129.2408,-947.8271 129.2408,-732.2378 129.2408,-603.8947"/>
<polygon fill="none" stroke="#404040" points="129.2409,-603.7538 125.2408,-597.7538 129.2408,-591.7538 133.2408,-597.7538 129.2409,-603.7538"/>
<text text-anchor="middle" x="162.2408" y="-811.5" font-family="Helvetica,sans-Serif" font-size="20.00" fill="#000000"> &#45;CRMV</text>
</g>
<!-- Node20 -->
<g id="node5" class="node">
<title>Node20</title>
<polygon fill="#ffffff" stroke="#bfbfbf" points="395.2408,-771.5 395.2408,-861.5 487.2408,-861.5 487.2408,-771.5 395.2408,-771.5"/>
<text text-anchor="middle" x="441.2408" y="-841.5" font-family="Helvetica,sans-Serif" font-size="20.00" fill="#000000">Uniforme</text>
<polyline fill="none" stroke="#bfbfbf" points="395.2408,-831.5 487.2408,-831.5 "/>
<text text-anchor="middle" x="441.2408" y="-811.5" font-family="Helvetica,sans-Serif" font-size="20.00" fill="#000000"> </text>
<polyline fill="none" stroke="#bfbfbf" points="395.2408,-801.5 487.2408,-801.5 "/>
<text text-anchor="middle" x="441.2408" y="-781.5" font-family="Helvetica,sans-Serif" font-size="20.00" fill="#000000"> </text>
</g>
<!-- Node20&#45;&gt;Node17 -->
<g id="edge4" class="edge">
<title>Node20&#45;&gt;Node17</title>
<path fill="none" stroke="#404040" d="M422.4765,-771.177C404.3156,-727.3115 376.1707,-659.3307 352.7362,-602.7275"/>
<polygon fill="none" stroke="#404040" points="352.7069,-602.6564 346.7159,-598.6428 348.1165,-591.569 354.1075,-595.5826 352.7069,-602.6564"/>
<text text-anchor="middle" x="421.2408" y="-638" font-family="Helvetica,sans-Serif" font-size="20.00" fill="#000000"> &#45;uniforme</text>
</g>
<!-- Node21 -->
<g id="node6" class="node">
<title>Node21</title>
<polygon fill="#ffffff" stroke="#bfbfbf" points="411.7408,-457.5 411.7408,-547.5 462.7408,-547.5 462.7408,-457.5 411.7408,-457.5"/>
<text text-anchor="middle" x="437.2408" y="-527.5" font-family="Helvetica,sans-Serif" font-size="20.00" fill="#000000">bool</text>
<polyline fill="none" stroke="#bfbfbf" points="411.7408,-517.5 462.7408,-517.5 "/>
<text text-anchor="middle" x="437.2408" y="-497.5" font-family="Helvetica,sans-Serif" font-size="20.00" fill="#000000"> </text>
<polyline fill="none" stroke="#bfbfbf" points="411.7408,-487.5 462.7408,-487.5 "/>
<text text-anchor="middle" x="437.2408" y="-467.5" font-family="Helvetica,sans-Serif" font-size="20.00" fill="#000000"> </text>
</g>
<!-- Node21&#45;&gt;Node16 -->
<g id="edge5" class="edge">
<title>Node21&#45;&gt;Node16</title>
<path fill="none" stroke="#404040" d="M422.0771,-457.3665C416.5522,-442.8568 409.7869,-426.9382 402.2408,-413 382.4912,-376.5209 357.9972,-339.066 333.8761,-305.0624"/>
<polygon fill="none" stroke="#404040" points="333.73,-304.8581 326.986,-302.3051 326.7488,-295.0978 333.4929,-297.6509 333.73,-304.8581"/>
<text text-anchor="middle" x="433.2408" y="-379" font-family="Helvetica,sans-Serif" font-size="20.00" fill="#000000"> #perigoso</text>
</g>
<!-- Node22&#45;&gt;Node16 -->
<g id="edge7" class="edge">
<title>Node22&#45;&gt;Node16</title>
<path fill="none" stroke="#404040" d="M158.0714,-413.2624C162.859,-398.4435 167.9788,-382.5965 173.2149,-366.3897"/>
<polygon fill="none" stroke="#404040" points="173.3558,-365.9534 171.3941,-359.0143 177.045,-354.5346 179.0067,-361.4738 173.3558,-365.9534"/>
<text text-anchor="middle" x="221.7408" y="-379" font-family="Helvetica,sans-Serif" font-size="20.00" fill="#000000"> #veterinario</text>
</g>
</g>
</svg>
        <g id="navigator" transform="translate(0 0)" fill="#404254">
                <rect fill="#f2f5e9" fill-opacity="0.5" stroke="#606060" stroke-width=".5" x="0" y="0" width="60" height="60"/>
                <use id="zoomplus" xlink:href="#zoomPlus" x="17" y="9" onmousedown="handleZoom(evt,'in')"/>
                <use id="zoomminus" xlink:href="#zoomMin" x="42" y="9" onmousedown="handleZoom(evt,'out')"/>
                <use id="reset" xlink:href="#resetDef" x="30" y="36" onmousedown="handleReset()"/>
                <g id="arrowUp" xlink:href="#dirArrow" transform="translate(30 24)" onmousedown="handlePan(0,-1)">
                  <use xlink:href="#rim" fill="#404040">
                        <set attributeName="fill" to="#808080" begin="arrowUp.mouseover" end="arrowUp.mouseout"/>
                  </use>
                  <path fill="none" stroke="white" stroke-width="1.5" d="M0,-3.0v7 M-2.5,-0.5L0,-3.0L2.5,-0.5"/>
                </g>
                <g id="arrowRight" xlink:href="#dirArrow" transform="rotate(90) translate(36 -43)" onmousedown="handlePan(1,0)">
                  <use xlink:href="#rim" fill="#404040">
                        <set attributeName="fill" to="#808080" begin="arrowRight.mouseover" end="arrowRight.mouseout"/>
                  </use>
                  <path fill="none" stroke="white" stroke-width="1.5" d="M0,-3.0v7 M-2.5,-0.5L0,-3.0L2.5,-0.5"/>
                </g>
                <g id="arrowDown" xlink:href="#dirArrow" transform="rotate(180) translate(-30 -48)" onmousedown="handlePan(0,1)">
                  <use xlink:href="#rim" fill="#404040">
                        <set attributeName="fill" to="#808080" begin="arrowDown.mouseover" end="arrowDown.mouseout"/>
                  </use>
                  <path fill="none" stroke="white" stroke-width="1.5" d="M0,-3.0v7 M-2.5,-0.5L0,-3.0L2.5,-0.5"/>
                </g>
                <g id="arrowLeft" xlink:href="#dirArrow" transform="rotate(270) translate(-36 17)" onmousedown="handlePan(-1,0)">
                  <use xlink:href="#rim" fill="#404040">
                        <set attributeName="fill" to="#808080" begin="arrowLeft.mouseover" end="arrowLeft.mouseout"/>
                  </use>
                  <path fill="none" stroke="white" stroke-width="1.5" d="M0,-3.0v7 M-2.5,-0.5L0,-3.0L2.5,-0.5"/>
                </g>
        </g>
        <svg viewBox="0 0 15 15" width="100%" height="30px" preserveAspectRatio="xMaxYMin meet">
         <g id="arrow_out" transform="scale(0.3 0.3)">
          <a xlink:href="classAnimal__coll__graph_org.svg" target="_base">
           <rect id="button" ry="5" rx="5" y="6" x="6" height="38" width="38"
                fill="#f2f5e9" fill-opacity="0.5" stroke="#606060" stroke-width="1.0"/>
           <path id="arrow"
             d="M 11.500037,31.436501 C 11.940474,20.09759 22.043105,11.32322 32.158766,21.979434 L 37.068811,17.246167 C 37.068811,17.246167 37.088388,32 37.088388,32 L 22.160133,31.978069 C 22.160133,31.978069 26.997745,27.140456 26.997745,27.140456 C 18.528582,18.264221 13.291696,25.230495 11.500037,31.436501 z"
             style="fill:#404040;"/>
          </a>
         </g>
        </svg>
</svg>
