<?xml version="1.0" encoding="UTF-8" standalone="no"?>
<!DOCTYPE svg PUBLIC "-//W3C//DTD SVG 1.1//EN"
 "http://www.w3.org/Graphics/SVG/1.1/DTD/svg11.dtd">
<!-- Generated by graphviz version 2.40.1 (20161225.0304)
 -->
<!-- Title: Reptil Pages: 1 -->
<svg width="114pt" height="314pt"
 viewBox="0.00 0.00 114.00 314.00" xmlns="http://www.w3.org/2000/svg" xmlns:xlink="http://www.w3.org/1999/xlink">
<g id="graph0" class="graph" transform="scale(1 1) rotate(0) translate(4 310)">
<title>Reptil</title>
<polygon fill="#ffffff" stroke="transparent" points="-4,4 -4,-310 110,-310 110,4 -4,4"/>
<!-- Node4 -->
<g id="node1" class="node">
<title>Node4</title>
<polygon fill="#bfbfbf" stroke="#000000" points="0,-.5 0,-156.5 106,-156.5 106,-.5 0,-.5"/>
<text text-anchor="middle" x="53" y="-136.5" font-family="Helvetica,sans-Serif" font-size="20.00" fill="#000000">Reptil</text>
<polyline fill="none" stroke="#000000" points="0,-126.5 106,-126.5 "/>
<text text-anchor="middle" x="53" y="-106.5" font-family="Helvetica,sans-Serif" font-size="20.00" fill="#000000"> </text>
<polyline fill="none" stroke="#000000" points="0,-96.5 106,-96.5 "/>
<text text-anchor="start" x="8" y="-76.5" font-family="Helvetica,sans-Serif" font-size="20.00" fill="#000000">+ Reptil()</text>
<text text-anchor="start" x="8" y="-54.5" font-family="Helvetica,sans-Serif" font-size="20.00" fill="#000000">+ Reptil()</text>
<text text-anchor="start" x="8" y="-32.5" font-family="Helvetica,sans-Serif" font-size="20.00" fill="#000000">+ ~Reptil()</text>
<text text-anchor="start" x="8" y="-10.5" font-family="Helvetica,sans-Serif" font-size="20.00" fill="#000000">+ getPele()</text>
</g>
<!-- Node5 -->
<g id="node2" class="node">
<title>Node5</title>
<polygon fill="#ffffff" stroke="#bfbfbf" points="26.5,-215.5 26.5,-305.5 79.5,-305.5 79.5,-215.5 26.5,-215.5"/>
<text text-anchor="middle" x="53" y="-285.5" font-family="Helvetica,sans-Serif" font-size="20.00" fill="#000000">Pele</text>
<polyline fill="none" stroke="#bfbfbf" points="26.5,-275.5 79.5,-275.5 "/>
<text text-anchor="middle" x="53" y="-255.5" font-family="Helvetica,sans-Serif" font-size="20.00" fill="#000000"> </text>
<polyline fill="none" stroke="#bfbfbf" points="26.5,-245.5 79.5,-245.5 "/>
<text text-anchor="middle" x="53" y="-225.5" font-family="Helvetica,sans-Serif" font-size="20.00" fill="#000000"> </text>
</g>
<!-- Node5&#45;&gt;Node4 -->
<g id="edge1" class="edge">
<title>Node5&#45;&gt;Node4</title>
<path fill="none" stroke="#404040" d="M53,-215.0432C53,-200.9479 53,-184.8883 53,-168.8555"/>
<polygon fill="none" stroke="#404040" points="53.0001,-168.6333 49,-162.6333 53,-156.6333 57,-162.6332 53.0001,-168.6333"/>
<text text-anchor="middle" x="78" y="-181" font-family="Helvetica,sans-Serif" font-size="20.00" fill="#000000"> #pele</text>
</g>
</g>
</svg>
