<?xml version="1.0" encoding="UTF-8" standalone="no"?>
<!DOCTYPE svg PUBLIC "-//W3C//DTD SVG 1.1//EN"
 "http://www.w3.org/Graphics/SVG/1.1/DTD/svg11.dtd">
<!-- Generated by graphviz version 2.43.0 (0)
 -->
<!-- Title: MapeadorMenu Pages: 1 -->
<svg width="304pt" height="292pt"
 viewBox="0.00 0.00 304.00 292.00" xmlns="http://www.w3.org/2000/svg" xmlns:xlink="http://www.w3.org/1999/xlink">
<g id="graph0" class="graph" transform="scale(1 1) rotate(0) translate(4 288)">
<title>MapeadorMenu</title>
<polygon fill="white" stroke="transparent" points="-4,4 -4,-288 300,-288 300,4 -4,4"/>
<!-- Node1 -->
<g id="node1" class="node">
<title>Node1</title>
<g id="a_node1"><a xlink:title="Classe mapeadora de funções para o menu.">
<polygon fill="#bfbfbf" stroke="black" points="44,-0.5 44,-90.5 252,-90.5 252,-0.5 44,-0.5"/>
<text text-anchor="middle" x="148" y="-70.5" font-family="Helvetica,sans-Serif" font-size="20.00">MapeadorMenu</text>
<polyline fill="none" stroke="black" points="44,-60.5 252,-60.5 "/>
<text text-anchor="middle" x="148" y="-40.5" font-family="Helvetica,sans-Serif" font-size="20.00"> </text>
<polyline fill="none" stroke="black" points="44,-30.5 252,-30.5 "/>
<text text-anchor="start" x="52" y="-10.5" font-family="Helvetica,sans-Serif" font-size="20.00">+ MapeadorMenu()</text>
</a>
</g>
</g>
<!-- Node2 -->
<g id="node2" class="node">
<title>Node2</title>
<g id="a_node2"><a xlink:title=" ">
<polygon fill="white" stroke="#bfbfbf" points="0,-149.5 0,-283.5 296,-283.5 296,-149.5 0,-149.5"/>
<text text-anchor="start" x="8" y="-263.5" font-family="Helvetica,sans-Serif" font-size="20.00">map&lt; char, std::function</text>
<text text-anchor="start" x="8" y="-241.5" font-family="Helvetica,sans-Serif" font-size="20.00">&lt; bool(shared_ptr&lt; Petshop</text>
<text text-anchor="middle" x="148" y="-219.5" font-family="Helvetica,sans-Serif" font-size="20.00"> &gt; petshop)&gt; &gt;</text>
<polyline fill="none" stroke="#bfbfbf" points="0,-209.5 296,-209.5 "/>
<text text-anchor="middle" x="148" y="-189.5" font-family="Helvetica,sans-Serif" font-size="20.00"> </text>
<polyline fill="none" stroke="#bfbfbf" points="0,-179.5 296,-179.5 "/>
<text text-anchor="middle" x="148" y="-159.5" font-family="Helvetica,sans-Serif" font-size="20.00"> </text>
</a>
</g>
</g>
<!-- Node2&#45;&gt;Node1 -->
<g id="edge1" class="edge">
<title>Node2&#45;&gt;Node1</title>
<path fill="none" stroke="#404040" d="M148,-149.19C148,-133.8 148,-117.57 148,-102.67"/>
<polygon fill="none" stroke="#404040" points="148,-102.51 144,-96.51 148,-90.51 152,-96.51 148,-102.51"/>
<text text-anchor="middle" x="202.5" y="-115" font-family="Helvetica,sans-Serif" font-size="20.00"> +escolhas</text>
</g>
</g>
</svg>
