<?xml version="1.0" encoding="UTF-8" standalone="no"?>
<!DOCTYPE svg PUBLIC "-//W3C//DTD SVG 1.1//EN"
 "http://www.w3.org/Graphics/SVG/1.1/DTD/svg11.dtd">
<!-- Generated by graphviz version 2.43.0 (0)
 -->
<!-- Title: Ave Pages: 1 -->
<svg width="780pt" height="816pt"
 viewBox="0.00 0.00 780.00 816.00" xmlns="http://www.w3.org/2000/svg" xmlns:xlink="http://www.w3.org/1999/xlink">
<g id="graph0" class="graph" transform="scale(1 1) rotate(0) translate(4 812)">
<title>Ave</title>
<polygon fill="white" stroke="transparent" points="-4,4 -4,-812 776,-812 776,4 -4,4"/>
<!-- Node1 -->
<g id="node1" class="node">
<title>Node1</title>
<g id="a_node1"><a xlink:title="Classificação base para Aves.">
<polygon fill="#bfbfbf" stroke="black" points="4.5,-0.5 4.5,-200.5 126.5,-200.5 126.5,-0.5 4.5,-0.5"/>
<text text-anchor="middle" x="65.5" y="-180.5" font-family="Helvetica,sans-Serif" font-size="20.00">Ave</text>
<polyline fill="none" stroke="black" points="4.5,-170.5 126.5,-170.5 "/>
<text text-anchor="middle" x="65.5" y="-150.5" font-family="Helvetica,sans-Serif" font-size="20.00"> </text>
<polyline fill="none" stroke="black" points="4.5,-140.5 126.5,-140.5 "/>
<text text-anchor="start" x="12.5" y="-120.5" font-family="Helvetica,sans-Serif" font-size="20.00">+ Ave()</text>
<text text-anchor="start" x="12.5" y="-98.5" font-family="Helvetica,sans-Serif" font-size="20.00">+ Ave()</text>
<text text-anchor="start" x="12.5" y="-76.5" font-family="Helvetica,sans-Serif" font-size="20.00">+ ~Ave()</text>
<text text-anchor="start" x="12.5" y="-54.5" font-family="Helvetica,sans-Serif" font-size="20.00">+ getVoa()</text>
<text text-anchor="start" x="12.5" y="-32.5" font-family="Helvetica,sans-Serif" font-size="20.00">+ setVoa()</text>
<text text-anchor="start" x="12.5" y="-10.5" font-family="Helvetica,sans-Serif" font-size="20.00">+ setVoa()</text>
</a>
</g>
</g>
<!-- Node2 -->
<g id="node2" class="node">
<title>Node2</title>
<g id="a_node2"><a xlink:href="classAnimal.html" target="_top" xlink:title="Implementação base para o cadastro de animais.">
<polygon fill="white" stroke="black" points="90,-238.5 90,-614.5 313,-614.5 313,-238.5 90,-238.5"/>
<text text-anchor="middle" x="201.5" y="-594.5" font-family="Helvetica,sans-Serif" font-size="20.00">Animal</text>
<polyline fill="none" stroke="black" points="90,-584.5 313,-584.5 "/>
<text text-anchor="middle" x="201.5" y="-564.5" font-family="Helvetica,sans-Serif" font-size="20.00"> </text>
<polyline fill="none" stroke="black" points="90,-554.5 313,-554.5 "/>
<text text-anchor="start" x="98" y="-534.5" font-family="Helvetica,sans-Serif" font-size="20.00">+ Animal()</text>
<text text-anchor="start" x="98" y="-512.5" font-family="Helvetica,sans-Serif" font-size="20.00">+ Animal()</text>
<text text-anchor="start" x="98" y="-490.5" font-family="Helvetica,sans-Serif" font-size="20.00">+ ~Animal()</text>
<text text-anchor="start" x="98" y="-468.5" font-family="Helvetica,sans-Serif" font-size="20.00">+ getNome()</text>
<text text-anchor="start" x="98" y="-446.5" font-family="Helvetica,sans-Serif" font-size="20.00">+ getEspecie()</text>
<text text-anchor="start" x="98" y="-424.5" font-family="Helvetica,sans-Serif" font-size="20.00">+ getAmeacadoPor()</text>
<text text-anchor="start" x="98" y="-402.5" font-family="Helvetica,sans-Serif" font-size="20.00">+ getVeterinario()</text>
<text text-anchor="start" x="98" y="-380.5" font-family="Helvetica,sans-Serif" font-size="20.00">+ getTratador()</text>
<text text-anchor="start" x="98" y="-358.5" font-family="Helvetica,sans-Serif" font-size="20.00">+ getPerigoso()</text>
<text text-anchor="start" x="98" y="-336.5" font-family="Helvetica,sans-Serif" font-size="20.00">+ setNome()</text>
<text text-anchor="start" x="98" y="-314.5" font-family="Helvetica,sans-Serif" font-size="20.00">e 13 mais...</text>
<text text-anchor="start" x="98" y="-292.5" font-family="Helvetica,sans-Serif" font-size="20.00">+ getClassificacao()</text>
<text text-anchor="start" x="98" y="-270.5" font-family="Helvetica,sans-Serif" font-size="20.00">+ getClasse()</text>
<text text-anchor="start" x="98" y="-248.5" font-family="Helvetica,sans-Serif" font-size="20.00">+ printOutDetails()</text>
</a>
</g>
</g>
<!-- Node2&#45;&gt;Node1 -->
<g id="edge1" class="edge">
<title>Node2&#45;&gt;Node1</title>
<path fill="none" stroke="midnightblue" d="M119.06,-229.1C114.99,-219.41 111,-209.9 107.14,-200.7"/>
<polygon fill="none" stroke="midnightblue" points="115.88,-230.57 122.98,-238.44 122.34,-227.86 115.88,-230.57"/>
</g>
<!-- Node3 -->
<g id="node3" class="node">
<title>Node3</title>
<g id="a_node3"><a xlink:title=" ">
<polygon fill="white" stroke="#bfbfbf" points="497,-717.5 497,-807.5 772,-807.5 772,-717.5 497,-717.5"/>
<text text-anchor="middle" x="634.5" y="-787.5" font-family="Helvetica,sans-Serif" font-size="20.00">shared_ptr&lt; Veterinario &gt;</text>
<polyline fill="none" stroke="#bfbfbf" points="497,-777.5 772,-777.5 "/>
<text text-anchor="middle" x="634.5" y="-757.5" font-family="Helvetica,sans-Serif" font-size="20.00"> </text>
<polyline fill="none" stroke="#bfbfbf" points="497,-747.5 772,-747.5 "/>
<text text-anchor="middle" x="634.5" y="-727.5" font-family="Helvetica,sans-Serif" font-size="20.00"> </text>
</a>
</g>
</g>
<!-- Node3&#45;&gt;Node2 -->
<g id="edge2" class="edge">
<title>Node3&#45;&gt;Node2</title>
<path fill="none" stroke="#404040" d="M577.45,-717.49C512.99,-667.77 406.22,-585.41 322.9,-521.15"/>
<polygon fill="none" stroke="#404040" points="322.88,-521.13 315.68,-520.63 313.38,-513.8 320.57,-514.3 322.88,-521.13"/>
<text text-anchor="middle" x="616.5" y="-661" font-family="Helvetica,sans-Serif" font-size="20.00"> #veterinario</text>
</g>
<!-- Node4 -->
<g id="node4" class="node">
<title>Node4</title>
<g id="a_node4"><a xlink:title=" ">
<polygon fill="white" stroke="#bfbfbf" points="0,-717.5 0,-807.5 59,-807.5 59,-717.5 0,-717.5"/>
<text text-anchor="middle" x="29.5" y="-787.5" font-family="Helvetica,sans-Serif" font-size="20.00">bool</text>
<polyline fill="none" stroke="#bfbfbf" points="0,-777.5 59,-777.5 "/>
<text text-anchor="middle" x="29.5" y="-757.5" font-family="Helvetica,sans-Serif" font-size="20.00"> </text>
<polyline fill="none" stroke="#bfbfbf" points="0,-747.5 59,-747.5 "/>
<text text-anchor="middle" x="29.5" y="-727.5" font-family="Helvetica,sans-Serif" font-size="20.00"> </text>
</a>
</g>
</g>
<!-- Node4&#45;&gt;Node1 -->
<g id="edge6" class="edge">
<title>Node4&#45;&gt;Node1</title>
<path fill="none" stroke="#404040" d="M23.79,-717.37C13.17,-626.82 -6.13,-413.77 21.5,-238 22.83,-229.54 24.59,-220.9 26.66,-212.27"/>
<polygon fill="none" stroke="#404040" points="26.68,-212.15 24.28,-205.35 29.64,-200.52 32.04,-207.32 26.68,-212.15"/>
<text text-anchor="middle" x="51" y="-421.5" font-family="Helvetica,sans-Serif" font-size="20.00"> #voa</text>
</g>
<!-- Node4&#45;&gt;Node2 -->
<g id="edge3" class="edge">
<title>Node4&#45;&gt;Node2</title>
<path fill="none" stroke="#404040" d="M37.81,-717.45C43.49,-692.06 52.24,-659.94 64.5,-633 65.72,-630.31 72.76,-619.27 83.05,-603.6"/>
<polygon fill="none" stroke="#404040" points="83.25,-603.29 83.22,-596.08 89.86,-593.27 89.89,-600.48 83.25,-603.29"/>
<text text-anchor="middle" x="119" y="-661" font-family="Helvetica,sans-Serif" font-size="20.00"> #perigoso</text>
</g>
<!-- Node5 -->
<g id="node5" class="node">
<title>Node5</title>
<g id="a_node5"><a xlink:title=" ">
<polygon fill="white" stroke="#bfbfbf" points="137.5,-717.5 137.5,-807.5 211.5,-807.5 211.5,-717.5 137.5,-717.5"/>
<text text-anchor="middle" x="174.5" y="-787.5" font-family="Helvetica,sans-Serif" font-size="20.00">string</text>
<polyline fill="none" stroke="#bfbfbf" points="137.5,-777.5 211.5,-777.5 "/>
<text text-anchor="middle" x="174.5" y="-757.5" font-family="Helvetica,sans-Serif" font-size="20.00"> </text>
<polyline fill="none" stroke="#bfbfbf" points="137.5,-747.5 211.5,-747.5 "/>
<text text-anchor="middle" x="174.5" y="-727.5" font-family="Helvetica,sans-Serif" font-size="20.00"> </text>
</a>
</g>
</g>
<!-- Node5&#45;&gt;Node2 -->
<g id="edge4" class="edge">
<title>Node5&#45;&gt;Node2</title>
<path fill="none" stroke="#404040" d="M175.96,-717.45C176.93,-692.63 178.41,-661.06 180.5,-633 180.66,-630.91 180.81,-628.81 180.98,-626.7"/>
<polygon fill="none" stroke="#404040" points="181,-626.47 177.48,-620.17 181.95,-614.5 185.46,-620.8 181,-626.47"/>
<text text-anchor="middle" x="256.5" y="-683" font-family="Helvetica,sans-Serif" font-size="20.00"> #especie</text>
<text text-anchor="middle" x="256.5" y="-661" font-family="Helvetica,sans-Serif" font-size="20.00">#ameacadoPor</text>
<text text-anchor="middle" x="256.5" y="-639" font-family="Helvetica,sans-Serif" font-size="20.00">#nome</text>
</g>
<!-- Node6 -->
<g id="node6" class="node">
<title>Node6</title>
<g id="a_node6"><a xlink:title=" ">
<polygon fill="white" stroke="#bfbfbf" points="230,-717.5 230,-807.5 479,-807.5 479,-717.5 230,-717.5"/>
<text text-anchor="middle" x="354.5" y="-787.5" font-family="Helvetica,sans-Serif" font-size="20.00">shared_ptr&lt; Tratador &gt;</text>
<polyline fill="none" stroke="#bfbfbf" points="230,-777.5 479,-777.5 "/>
<text text-anchor="middle" x="354.5" y="-757.5" font-family="Helvetica,sans-Serif" font-size="20.00"> </text>
<polyline fill="none" stroke="#bfbfbf" points="230,-747.5 479,-747.5 "/>
<text text-anchor="middle" x="354.5" y="-727.5" font-family="Helvetica,sans-Serif" font-size="20.00"> </text>
</a>
</g>
</g>
<!-- Node6&#45;&gt;Node2 -->
<g id="edge5" class="edge">
<title>Node6&#45;&gt;Node2</title>
<path fill="none" stroke="#404040" d="M351.29,-717.22C348.39,-691.9 342.9,-659.92 332.5,-633 328.37,-622.31 323.65,-611.58 318.51,-600.94"/>
<polygon fill="none" stroke="#404040" points="318.35,-600.63 312.1,-597.04 313,-589.89 319.26,-593.47 318.35,-600.63"/>
<text text-anchor="middle" x="400" y="-661" font-family="Helvetica,sans-Serif" font-size="20.00"> #tratador</text>
</g>
</g>
</svg>
