<?xml version="1.0" encoding="UTF-8" standalone="no"?>
<!DOCTYPE svg PUBLIC "-//W3C//DTD SVG 1.1//EN"
 "http://www.w3.org/Graphics/SVG/1.1/DTD/svg11.dtd">
<!-- Generated by graphviz version 2.43.0 (0)
 -->
<!-- Title: Anfibio Pages: 1 -->
<svg width="785pt" height="882pt"
 viewBox="0.00 0.00 784.50 882.00" xmlns="http://www.w3.org/2000/svg" xmlns:xlink="http://www.w3.org/1999/xlink">
<g id="graph0" class="graph" transform="scale(1 1) rotate(0) translate(4 878)">
<title>Anfibio</title>
<polygon fill="white" stroke="transparent" points="-4,4 -4,-878 780.5,-878 780.5,4 -4,4"/>
<!-- Node1 -->
<g id="node1" class="node">
<title>Node1</title>
<g id="a_node1"><a xlink:title="Classificação base para Anfibios.">
<polygon fill="#bfbfbf" stroke="black" points="0,-0.5 0,-266.5 150,-266.5 150,-0.5 0,-0.5"/>
<text text-anchor="middle" x="75" y="-246.5" font-family="Helvetica,sans-Serif" font-size="20.00">Anfibio</text>
<polyline fill="none" stroke="black" points="0,-236.5 150,-236.5 "/>
<text text-anchor="middle" x="75" y="-216.5" font-family="Helvetica,sans-Serif" font-size="20.00"> </text>
<polyline fill="none" stroke="black" points="0,-206.5 150,-206.5 "/>
<text text-anchor="start" x="8" y="-186.5" font-family="Helvetica,sans-Serif" font-size="20.00">+ Anfibio()</text>
<text text-anchor="start" x="8" y="-164.5" font-family="Helvetica,sans-Serif" font-size="20.00">+ Anfibio()</text>
<text text-anchor="start" x="8" y="-142.5" font-family="Helvetica,sans-Serif" font-size="20.00">+ ~Anfibio()</text>
<text text-anchor="start" x="8" y="-120.5" font-family="Helvetica,sans-Serif" font-size="20.00">+ getCauda()</text>
<text text-anchor="start" x="8" y="-98.5" font-family="Helvetica,sans-Serif" font-size="20.00">+ setCauda()</text>
<text text-anchor="start" x="8" y="-76.5" font-family="Helvetica,sans-Serif" font-size="20.00">+ setCauda()</text>
<text text-anchor="start" x="8" y="-54.5" font-family="Helvetica,sans-Serif" font-size="20.00">+ getPata()</text>
<text text-anchor="start" x="8" y="-32.5" font-family="Helvetica,sans-Serif" font-size="20.00">+ setPata()</text>
<text text-anchor="start" x="8" y="-10.5" font-family="Helvetica,sans-Serif" font-size="20.00">+ setPata()</text>
</a>
</g>
</g>
<!-- Node2 -->
<g id="node2" class="node">
<title>Node2</title>
<g id="a_node2"><a xlink:href="classAnimal.html" target="_top" xlink:title="Implementação base para o cadastro de animais.">
<polygon fill="white" stroke="black" points="113.5,-304.5 113.5,-680.5 336.5,-680.5 336.5,-304.5 113.5,-304.5"/>
<text text-anchor="middle" x="225" y="-660.5" font-family="Helvetica,sans-Serif" font-size="20.00">Animal</text>
<polyline fill="none" stroke="black" points="113.5,-650.5 336.5,-650.5 "/>
<text text-anchor="middle" x="225" y="-630.5" font-family="Helvetica,sans-Serif" font-size="20.00"> </text>
<polyline fill="none" stroke="black" points="113.5,-620.5 336.5,-620.5 "/>
<text text-anchor="start" x="121.5" y="-600.5" font-family="Helvetica,sans-Serif" font-size="20.00">+ Animal()</text>
<text text-anchor="start" x="121.5" y="-578.5" font-family="Helvetica,sans-Serif" font-size="20.00">+ Animal()</text>
<text text-anchor="start" x="121.5" y="-556.5" font-family="Helvetica,sans-Serif" font-size="20.00">+ ~Animal()</text>
<text text-anchor="start" x="121.5" y="-534.5" font-family="Helvetica,sans-Serif" font-size="20.00">+ getNome()</text>
<text text-anchor="start" x="121.5" y="-512.5" font-family="Helvetica,sans-Serif" font-size="20.00">+ getEspecie()</text>
<text text-anchor="start" x="121.5" y="-490.5" font-family="Helvetica,sans-Serif" font-size="20.00">+ getAmeacadoPor()</text>
<text text-anchor="start" x="121.5" y="-468.5" font-family="Helvetica,sans-Serif" font-size="20.00">+ getVeterinario()</text>
<text text-anchor="start" x="121.5" y="-446.5" font-family="Helvetica,sans-Serif" font-size="20.00">+ getTratador()</text>
<text text-anchor="start" x="121.5" y="-424.5" font-family="Helvetica,sans-Serif" font-size="20.00">+ getPerigoso()</text>
<text text-anchor="start" x="121.5" y="-402.5" font-family="Helvetica,sans-Serif" font-size="20.00">+ setNome()</text>
<text text-anchor="start" x="121.5" y="-380.5" font-family="Helvetica,sans-Serif" font-size="20.00">e 13 mais...</text>
<text text-anchor="start" x="121.5" y="-358.5" font-family="Helvetica,sans-Serif" font-size="20.00">+ getClassificacao()</text>
<text text-anchor="start" x="121.5" y="-336.5" font-family="Helvetica,sans-Serif" font-size="20.00">+ getClasse()</text>
<text text-anchor="start" x="121.5" y="-314.5" font-family="Helvetica,sans-Serif" font-size="20.00">+ printOutDetails()</text>
</a>
</g>
</g>
<!-- Node2&#45;&gt;Node1 -->
<g id="edge1" class="edge">
<title>Node2&#45;&gt;Node1</title>
<path fill="none" stroke="midnightblue" d="M142.4,-294.91C138.43,-285.46 134.49,-276.09 130.62,-266.88"/>
<polygon fill="none" stroke="midnightblue" points="139.28,-296.51 146.38,-304.37 145.73,-293.8 139.28,-296.51"/>
</g>
<!-- Node3 -->
<g id="node3" class="node">
<title>Node3</title>
<g id="a_node3"><a xlink:title=" ">
<polygon fill="white" stroke="#bfbfbf" points="501.5,-783.5 501.5,-873.5 776.5,-873.5 776.5,-783.5 501.5,-783.5"/>
<text text-anchor="middle" x="639" y="-853.5" font-family="Helvetica,sans-Serif" font-size="20.00">shared_ptr&lt; Veterinario &gt;</text>
<polyline fill="none" stroke="#bfbfbf" points="501.5,-843.5 776.5,-843.5 "/>
<text text-anchor="middle" x="639" y="-823.5" font-family="Helvetica,sans-Serif" font-size="20.00"> </text>
<polyline fill="none" stroke="#bfbfbf" points="501.5,-813.5 776.5,-813.5 "/>
<text text-anchor="middle" x="639" y="-793.5" font-family="Helvetica,sans-Serif" font-size="20.00"> </text>
</a>
</g>
</g>
<!-- Node3&#45;&gt;Node2 -->
<g id="edge2" class="edge">
<title>Node3&#45;&gt;Node2</title>
<path fill="none" stroke="#404040" d="M584.45,-783.49C524.11,-734.81 424.98,-654.84 346.09,-591.19"/>
<polygon fill="none" stroke="#404040" points="345.91,-591.05 338.73,-590.39 336.57,-583.51 343.75,-584.17 345.91,-591.05"/>
<text text-anchor="middle" x="624" y="-727" font-family="Helvetica,sans-Serif" font-size="20.00"> #veterinario</text>
</g>
<!-- Node4 -->
<g id="node4" class="node">
<title>Node4</title>
<g id="a_node4"><a xlink:title=" ">
<polygon fill="white" stroke="#bfbfbf" points="4.5,-783.5 4.5,-873.5 63.5,-873.5 63.5,-783.5 4.5,-783.5"/>
<text text-anchor="middle" x="34" y="-853.5" font-family="Helvetica,sans-Serif" font-size="20.00">bool</text>
<polyline fill="none" stroke="#bfbfbf" points="4.5,-843.5 63.5,-843.5 "/>
<text text-anchor="middle" x="34" y="-823.5" font-family="Helvetica,sans-Serif" font-size="20.00"> </text>
<polyline fill="none" stroke="#bfbfbf" points="4.5,-813.5 63.5,-813.5 "/>
<text text-anchor="middle" x="34" y="-793.5" font-family="Helvetica,sans-Serif" font-size="20.00"> </text>
</a>
</g>
</g>
<!-- Node4&#45;&gt;Node1 -->
<g id="edge6" class="edge">
<title>Node4&#45;&gt;Node1</title>
<path fill="none" stroke="#404040" d="M28.73,-783.43C18.93,-693.01 1.05,-480.17 26,-304 27.2,-295.56 28.71,-286.94 30.46,-278.3"/>
<polygon fill="none" stroke="#404040" points="30.48,-278.24 27.82,-271.53 32.99,-266.5 35.64,-273.21 30.48,-278.24"/>
<text text-anchor="middle" x="65" y="-498.5" font-family="Helvetica,sans-Serif" font-size="20.00"> #pata</text>
<text text-anchor="middle" x="65" y="-476.5" font-family="Helvetica,sans-Serif" font-size="20.00">#cauda</text>
</g>
<!-- Node4&#45;&gt;Node2 -->
<g id="edge3" class="edge">
<title>Node4&#45;&gt;Node2</title>
<path fill="none" stroke="#404040" d="M37.2,-783.31C41.06,-756.63 49.52,-723.22 68,-699 77.66,-686.33 87.37,-691.89 99,-681 100.98,-679.15 102.94,-677.26 104.89,-675.34"/>
<polygon fill="none" stroke="#404040" points="104.93,-675.29 106.26,-668.21 113.32,-666.71 111.98,-673.8 104.93,-675.29"/>
<text text-anchor="middle" x="122.5" y="-727" font-family="Helvetica,sans-Serif" font-size="20.00"> #perigoso</text>
</g>
<!-- Node5 -->
<g id="node5" class="node">
<title>Node5</title>
<g id="a_node5"><a xlink:title=" ">
<polygon fill="white" stroke="#bfbfbf" points="142,-783.5 142,-873.5 216,-873.5 216,-783.5 142,-783.5"/>
<text text-anchor="middle" x="179" y="-853.5" font-family="Helvetica,sans-Serif" font-size="20.00">string</text>
<polyline fill="none" stroke="#bfbfbf" points="142,-843.5 216,-843.5 "/>
<text text-anchor="middle" x="179" y="-823.5" font-family="Helvetica,sans-Serif" font-size="20.00"> </text>
<polyline fill="none" stroke="#bfbfbf" points="142,-813.5 216,-813.5 "/>
<text text-anchor="middle" x="179" y="-793.5" font-family="Helvetica,sans-Serif" font-size="20.00"> </text>
</a>
</g>
</g>
<!-- Node5&#45;&gt;Node2 -->
<g id="edge4" class="edge">
<title>Node5&#45;&gt;Node2</title>
<path fill="none" stroke="#404040" d="M179.48,-783.36C180.14,-758.5 181.65,-726.94 185,-699 185.25,-696.92 185.51,-694.83 185.77,-692.74"/>
<polygon fill="none" stroke="#404040" points="185.8,-692.53 182.63,-686.05 187.39,-680.64 190.56,-687.11 185.8,-692.53"/>
<text text-anchor="middle" x="261" y="-749" font-family="Helvetica,sans-Serif" font-size="20.00"> #especie</text>
<text text-anchor="middle" x="261" y="-727" font-family="Helvetica,sans-Serif" font-size="20.00">#ameacadoPor</text>
<text text-anchor="middle" x="261" y="-705" font-family="Helvetica,sans-Serif" font-size="20.00">#nome</text>
</g>
<!-- Node6 -->
<g id="node6" class="node">
<title>Node6</title>
<g id="a_node6"><a xlink:title=" ">
<polygon fill="white" stroke="#bfbfbf" points="234.5,-783.5 234.5,-873.5 483.5,-873.5 483.5,-783.5 234.5,-783.5"/>
<text text-anchor="middle" x="359" y="-853.5" font-family="Helvetica,sans-Serif" font-size="20.00">shared_ptr&lt; Tratador &gt;</text>
<polyline fill="none" stroke="#bfbfbf" points="234.5,-843.5 483.5,-843.5 "/>
<text text-anchor="middle" x="359" y="-823.5" font-family="Helvetica,sans-Serif" font-size="20.00"> </text>
<polyline fill="none" stroke="#bfbfbf" points="234.5,-813.5 483.5,-813.5 "/>
<text text-anchor="middle" x="359" y="-793.5" font-family="Helvetica,sans-Serif" font-size="20.00"> </text>
</a>
</g>
</g>
<!-- Node6&#45;&gt;Node2 -->
<g id="edge5" class="edge">
<title>Node6&#45;&gt;Node2</title>
<path fill="none" stroke="#404040" d="M355.09,-783.48C351.96,-758.24 346.47,-726.26 337,-699 336.21,-696.73 335.4,-694.46 334.57,-692.19"/>
<polygon fill="none" stroke="#404040" points="334.5,-692 328.63,-687.82 330.23,-680.79 336.11,-684.97 334.5,-692"/>
<text text-anchor="middle" x="403.5" y="-727" font-family="Helvetica,sans-Serif" font-size="20.00"> #tratador</text>
</g>
</g>
</svg>
