<?xml version="1.0" encoding="UTF-8" standalone="no"?>
<!DOCTYPE svg PUBLIC "-//W3C//DTD SVG 1.1//EN"
 "http://www.w3.org/Graphics/SVG/1.1/DTD/svg11.dtd">
<!-- Generated by graphviz version 2.43.0 (0)
 -->
<!-- Title: ReptilExotico Pages: 1 -->
<svg width="707pt" height="1838pt"
 viewBox="0.00 0.00 706.80 1838.00" xmlns="http://www.w3.org/2000/svg" xmlns:xlink="http://www.w3.org/1999/xlink">
<g id="graph0" class="graph" transform="scale(1 1) rotate(0) translate(4 1834)">
<title>ReptilExotico</title>
<polygon fill="white" stroke="transparent" points="-4,4 -4,-1834 702.8,-1834 702.8,4 -4,4"/>
<!-- Node1 -->
<g id="node1" class="node">
<title>Node1</title>
<g id="a_node1"><a xlink:title="Implementação de animal com Classe e Categoria.">
<polygon fill="#bfbfbf" stroke="black" points="408.3,-0.5 408.3,-134.5 606.3,-134.5 606.3,-0.5 408.3,-0.5"/>
<text text-anchor="middle" x="507.3" y="-114.5" font-family="Helvetica,sans-Serif" font-size="20.00">ReptilExotico</text>
<polyline fill="none" stroke="black" points="408.3,-104.5 606.3,-104.5 "/>
<text text-anchor="middle" x="507.3" y="-84.5" font-family="Helvetica,sans-Serif" font-size="20.00"> </text>
<polyline fill="none" stroke="black" points="408.3,-74.5 606.3,-74.5 "/>
<text text-anchor="start" x="416.3" y="-54.5" font-family="Helvetica,sans-Serif" font-size="20.00">+ ReptilExotico()</text>
<text text-anchor="start" x="416.3" y="-32.5" font-family="Helvetica,sans-Serif" font-size="20.00">+ ReptilExotico()</text>
<text text-anchor="start" x="416.3" y="-10.5" font-family="Helvetica,sans-Serif" font-size="20.00">+ ~ReptilExotico()</text>
</a>
</g>
</g>
<!-- Node2 -->
<g id="node2" class="node">
<title>Node2</title>
<g id="a_node2"><a xlink:href="classReptil.html" target="_top" xlink:title="Classificação base para Repteis.">
<polygon fill="white" stroke="black" points="305.8,-172.5 305.8,-372.5 432.8,-372.5 432.8,-172.5 305.8,-172.5"/>
<text text-anchor="middle" x="369.3" y="-352.5" font-family="Helvetica,sans-Serif" font-size="20.00">Reptil</text>
<polyline fill="none" stroke="black" points="305.8,-342.5 432.8,-342.5 "/>
<text text-anchor="middle" x="369.3" y="-322.5" font-family="Helvetica,sans-Serif" font-size="20.00"> </text>
<polyline fill="none" stroke="black" points="305.8,-312.5 432.8,-312.5 "/>
<text text-anchor="start" x="313.8" y="-292.5" font-family="Helvetica,sans-Serif" font-size="20.00">+ Reptil()</text>
<text text-anchor="start" x="313.8" y="-270.5" font-family="Helvetica,sans-Serif" font-size="20.00">+ Reptil()</text>
<text text-anchor="start" x="313.8" y="-248.5" font-family="Helvetica,sans-Serif" font-size="20.00">+ ~Reptil()</text>
<text text-anchor="start" x="313.8" y="-226.5" font-family="Helvetica,sans-Serif" font-size="20.00">+ getPele()</text>
<text text-anchor="start" x="313.8" y="-204.5" font-family="Helvetica,sans-Serif" font-size="20.00">+ setPele()</text>
<text text-anchor="start" x="313.8" y="-182.5" font-family="Helvetica,sans-Serif" font-size="20.00">+ setPele()</text>
</a>
</g>
</g>
<!-- Node2&#45;&gt;Node1 -->
<g id="edge1" class="edge">
<title>Node2&#45;&gt;Node1</title>
<path fill="none" stroke="midnightblue" d="M438.7,-169.41C446.75,-157.57 454.79,-145.74 462.39,-134.57"/>
<polygon fill="none" stroke="midnightblue" points="435.57,-167.78 432.85,-178.02 441.36,-171.72 435.57,-167.78"/>
</g>
<!-- Node3 -->
<g id="node3" class="node">
<title>Node3</title>
<g id="a_node3"><a xlink:href="classAnimal.html" target="_top" xlink:title="Implementação base para o cadastro de animais.">
<polygon fill="white" stroke="black" points="257.8,-431.5 257.8,-741.5 480.8,-741.5 480.8,-431.5 257.8,-431.5"/>
<text text-anchor="middle" x="369.3" y="-721.5" font-family="Helvetica,sans-Serif" font-size="20.00">Animal</text>
<polyline fill="none" stroke="black" points="257.8,-711.5 480.8,-711.5 "/>
<text text-anchor="middle" x="369.3" y="-691.5" font-family="Helvetica,sans-Serif" font-size="20.00"> </text>
<polyline fill="none" stroke="black" points="257.8,-681.5 480.8,-681.5 "/>
<text text-anchor="start" x="265.8" y="-661.5" font-family="Helvetica,sans-Serif" font-size="20.00">+ Animal()</text>
<text text-anchor="start" x="265.8" y="-639.5" font-family="Helvetica,sans-Serif" font-size="20.00">+ Animal()</text>
<text text-anchor="start" x="265.8" y="-617.5" font-family="Helvetica,sans-Serif" font-size="20.00">+ ~Animal()</text>
<text text-anchor="start" x="265.8" y="-595.5" font-family="Helvetica,sans-Serif" font-size="20.00">+ getNome()</text>
<text text-anchor="start" x="265.8" y="-573.5" font-family="Helvetica,sans-Serif" font-size="20.00">+ getEspecie()</text>
<text text-anchor="start" x="265.8" y="-551.5" font-family="Helvetica,sans-Serif" font-size="20.00">+ getAmeacadoPor()</text>
<text text-anchor="start" x="265.8" y="-529.5" font-family="Helvetica,sans-Serif" font-size="20.00">+ getVeterinario()</text>
<text text-anchor="start" x="265.8" y="-507.5" font-family="Helvetica,sans-Serif" font-size="20.00">+ getTratador()</text>
<text text-anchor="start" x="265.8" y="-485.5" font-family="Helvetica,sans-Serif" font-size="20.00">+ getPerigoso()</text>
<text text-anchor="start" x="265.8" y="-463.5" font-family="Helvetica,sans-Serif" font-size="20.00">+ setNome()</text>
<text text-anchor="start" x="265.8" y="-441.5" font-family="Helvetica,sans-Serif" font-size="20.00">e 15 mais...</text>
</a>
</g>
</g>
<!-- Node3&#45;&gt;Node2 -->
<g id="edge2" class="edge">
<title>Node3&#45;&gt;Node2</title>
<path fill="none" stroke="midnightblue" d="M369.3,-421.04C369.3,-404.53 369.3,-388.15 369.3,-372.64"/>
<polygon fill="none" stroke="midnightblue" points="365.8,-421.33 369.3,-431.33 372.8,-421.33 365.8,-421.33"/>
</g>
<!-- Node4 -->
<g id="node4" class="node">
<title>Node4</title>
<g id="a_node4"><a xlink:href="classTratador.html" target="_top" xlink:title="Implementação dos tratadores.">
<polygon fill="white" stroke="black" points="89.3,-800.5 89.3,-1022.5 289.3,-1022.5 289.3,-800.5 89.3,-800.5"/>
<text text-anchor="middle" x="189.3" y="-1002.5" font-family="Helvetica,sans-Serif" font-size="20.00">Tratador</text>
<polyline fill="none" stroke="black" points="89.3,-992.5 289.3,-992.5 "/>
<text text-anchor="middle" x="189.3" y="-972.5" font-family="Helvetica,sans-Serif" font-size="20.00"> </text>
<polyline fill="none" stroke="black" points="89.3,-962.5 289.3,-962.5 "/>
<text text-anchor="start" x="97.3" y="-942.5" font-family="Helvetica,sans-Serif" font-size="20.00">+ Tratador()</text>
<text text-anchor="start" x="97.3" y="-920.5" font-family="Helvetica,sans-Serif" font-size="20.00">+ Tratador()</text>
<text text-anchor="start" x="97.3" y="-898.5" font-family="Helvetica,sans-Serif" font-size="20.00">+ ~Tratador()</text>
<text text-anchor="start" x="97.3" y="-876.5" font-family="Helvetica,sans-Serif" font-size="20.00">+ getUniforme()</text>
<text text-anchor="start" x="97.3" y="-854.5" font-family="Helvetica,sans-Serif" font-size="20.00">+ setUniforme()</text>
<text text-anchor="start" x="97.3" y="-832.5" font-family="Helvetica,sans-Serif" font-size="20.00">+ setUniforme()</text>
<text text-anchor="start" x="97.3" y="-810.5" font-family="Helvetica,sans-Serif" font-size="20.00">+ printOutDados()</text>
</a>
</g>
</g>
<!-- Node4&#45;&gt;Node3 -->
<g id="edge3" class="edge">
<title>Node4&#45;&gt;Node3</title>
<path fill="none" stroke="#404040" d="M240.17,-800.44C247.04,-786.7 254.18,-772.94 261.3,-760 262.7,-757.45 264.12,-754.89 265.56,-752.32"/>
<polygon fill="none" stroke="#404040" points="265.67,-752.13 265.15,-744.94 271.59,-741.69 272.11,-748.88 265.67,-752.13"/>
<text text-anchor="middle" x="312.8" y="-766" font-family="Helvetica,sans-Serif" font-size="20.00"> #tratador</text>
</g>
<!-- Node5 -->
<g id="node5" class="node">
<title>Node5</title>
<g id="a_node5"><a xlink:href="classPessoa.html" target="_top" xlink:title="Classe base dos funcionarios.">
<polygon fill="white" stroke="black" points="268.3,-1260.5 268.3,-1636.5 468.3,-1636.5 468.3,-1260.5 268.3,-1260.5"/>
<text text-anchor="middle" x="368.3" y="-1616.5" font-family="Helvetica,sans-Serif" font-size="20.00">Pessoa</text>
<polyline fill="none" stroke="black" points="268.3,-1606.5 468.3,-1606.5 "/>
<text text-anchor="middle" x="368.3" y="-1586.5" font-family="Helvetica,sans-Serif" font-size="20.00"> </text>
<polyline fill="none" stroke="black" points="268.3,-1576.5 468.3,-1576.5 "/>
<text text-anchor="start" x="276.3" y="-1556.5" font-family="Helvetica,sans-Serif" font-size="20.00">+ Pessoa()</text>
<text text-anchor="start" x="276.3" y="-1534.5" font-family="Helvetica,sans-Serif" font-size="20.00">+ Pessoa()</text>
<text text-anchor="start" x="276.3" y="-1512.5" font-family="Helvetica,sans-Serif" font-size="20.00">+ ~Pessoa()</text>
<text text-anchor="start" x="276.3" y="-1490.5" font-family="Helvetica,sans-Serif" font-size="20.00">+ getNome()</text>
<text text-anchor="start" x="276.3" y="-1468.5" font-family="Helvetica,sans-Serif" font-size="20.00">+ setNome()</text>
<text text-anchor="start" x="276.3" y="-1446.5" font-family="Helvetica,sans-Serif" font-size="20.00">+ setNome()</text>
<text text-anchor="start" x="276.3" y="-1424.5" font-family="Helvetica,sans-Serif" font-size="20.00">+ getTelefone()</text>
<text text-anchor="start" x="276.3" y="-1402.5" font-family="Helvetica,sans-Serif" font-size="20.00">+ setTelefone()</text>
<text text-anchor="start" x="276.3" y="-1380.5" font-family="Helvetica,sans-Serif" font-size="20.00">+ setTelefone()</text>
<text text-anchor="start" x="276.3" y="-1358.5" font-family="Helvetica,sans-Serif" font-size="20.00">+ getEmail()</text>
<text text-anchor="start" x="276.3" y="-1336.5" font-family="Helvetica,sans-Serif" font-size="20.00">+ setEmail()</text>
<text text-anchor="start" x="276.3" y="-1314.5" font-family="Helvetica,sans-Serif" font-size="20.00">+ setEmail()</text>
<text text-anchor="start" x="276.3" y="-1292.5" font-family="Helvetica,sans-Serif" font-size="20.00">+ printOutDados()</text>
<text text-anchor="start" x="276.3" y="-1270.5" font-family="Helvetica,sans-Serif" font-size="20.00">+ operator==()</text>
</a>
</g>
</g>
<!-- Node5&#45;&gt;Node4 -->
<g id="edge4" class="edge">
<title>Node5&#45;&gt;Node4</title>
<path fill="none" stroke="midnightblue" d="M357.89,-1250.38C348.61,-1181.65 331.72,-1105.6 301.3,-1041 297.83,-1033.64 293.82,-1026.37 289.41,-1019.27"/>
<polygon fill="none" stroke="midnightblue" points="354.44,-1251 359.2,-1260.46 361.38,-1250.09 354.44,-1251"/>
</g>
<!-- Node9 -->
<g id="node9" class="node">
<title>Node9</title>
<g id="a_node9"><a xlink:href="classVeterinario.html" target="_top" xlink:title="Implementação dos veterinarios.">
<polygon fill="white" stroke="black" points="307.3,-800.5 307.3,-1022.5 507.3,-1022.5 507.3,-800.5 307.3,-800.5"/>
<text text-anchor="middle" x="407.3" y="-1002.5" font-family="Helvetica,sans-Serif" font-size="20.00">Veterinario</text>
<polyline fill="none" stroke="black" points="307.3,-992.5 507.3,-992.5 "/>
<text text-anchor="middle" x="407.3" y="-972.5" font-family="Helvetica,sans-Serif" font-size="20.00"> </text>
<polyline fill="none" stroke="black" points="307.3,-962.5 507.3,-962.5 "/>
<text text-anchor="start" x="315.3" y="-942.5" font-family="Helvetica,sans-Serif" font-size="20.00">+ Veterinario()</text>
<text text-anchor="start" x="315.3" y="-920.5" font-family="Helvetica,sans-Serif" font-size="20.00">+ Veterinario()</text>
<text text-anchor="start" x="315.3" y="-898.5" font-family="Helvetica,sans-Serif" font-size="20.00">+ ~Veterinario()</text>
<text text-anchor="start" x="315.3" y="-876.5" font-family="Helvetica,sans-Serif" font-size="20.00">+ getCRMV()</text>
<text text-anchor="start" x="315.3" y="-854.5" font-family="Helvetica,sans-Serif" font-size="20.00">+ setCRMV()</text>
<text text-anchor="start" x="315.3" y="-832.5" font-family="Helvetica,sans-Serif" font-size="20.00">+ setCRMV()</text>
<text text-anchor="start" x="315.3" y="-810.5" font-family="Helvetica,sans-Serif" font-size="20.00">+ printOutDados()</text>
</a>
</g>
</g>
<!-- Node5&#45;&gt;Node9 -->
<g id="edge10" class="edge">
<title>Node5&#45;&gt;Node9</title>
<path fill="none" stroke="midnightblue" d="M382.69,-1250.09C388.29,-1173.3 394.49,-1088.23 399.27,-1022.69"/>
<polygon fill="none" stroke="midnightblue" points="379.18,-1250.15 381.94,-1260.38 386.16,-1250.66 379.18,-1250.15"/>
</g>
<!-- Node6 -->
<g id="node6" class="node">
<title>Node6</title>
<g id="a_node6"><a xlink:title=" ">
<polygon fill="white" stroke="#bfbfbf" points="411.3,-1739.5 411.3,-1829.5 485.3,-1829.5 485.3,-1739.5 411.3,-1739.5"/>
<text text-anchor="middle" x="448.3" y="-1809.5" font-family="Helvetica,sans-Serif" font-size="20.00">string</text>
<polyline fill="none" stroke="#bfbfbf" points="411.3,-1799.5 485.3,-1799.5 "/>
<text text-anchor="middle" x="448.3" y="-1779.5" font-family="Helvetica,sans-Serif" font-size="20.00"> </text>
<polyline fill="none" stroke="#bfbfbf" points="411.3,-1769.5 485.3,-1769.5 "/>
<text text-anchor="middle" x="448.3" y="-1749.5" font-family="Helvetica,sans-Serif" font-size="20.00"> </text>
</a>
</g>
</g>
<!-- Node6&#45;&gt;Node3 -->
<g id="edge8" class="edge">
<title>Node6&#45;&gt;Node3</title>
<path fill="none" stroke="#404040" d="M411.08,-1777C344.76,-1763.39 206.28,-1725.55 133.3,-1637 18.26,-1497.42 57.24,-1421.54 35.3,-1242 11.35,-1046 -48.63,-949.56 80.3,-800 129.46,-742.98 179.1,-783.62 247.51,-741.68"/>
<polygon fill="none" stroke="#404040" points="247.75,-741.52 250.53,-734.86 257.74,-734.87 254.96,-741.52 247.75,-741.52"/>
<text text-anchor="middle" x="111.3" y="-1158.5" font-family="Helvetica,sans-Serif" font-size="20.00"> #especie</text>
<text text-anchor="middle" x="111.3" y="-1136.5" font-family="Helvetica,sans-Serif" font-size="20.00">#ameacadoPor</text>
<text text-anchor="middle" x="111.3" y="-1114.5" font-family="Helvetica,sans-Serif" font-size="20.00">#nome</text>
</g>
<!-- Node6&#45;&gt;Node5 -->
<g id="edge5" class="edge">
<title>Node6&#45;&gt;Node5</title>
<path fill="none" stroke="#404040" d="M411.13,-1748.88C404.08,-1740.44 397.59,-1730.96 393.3,-1721 383.52,-1698.29 376.69,-1673.55 372.01,-1648.55"/>
<polygon fill="none" stroke="#404040" points="372,-1648.48 367.03,-1643.26 369.95,-1636.66 374.92,-1641.89 372,-1648.48"/>
<text text-anchor="middle" x="441.8" y="-1705" font-family="Helvetica,sans-Serif" font-size="20.00"> #email</text>
<text text-anchor="middle" x="441.8" y="-1683" font-family="Helvetica,sans-Serif" font-size="20.00">#nome</text>
<text text-anchor="middle" x="441.8" y="-1661" font-family="Helvetica,sans-Serif" font-size="20.00">#telefone</text>
</g>
<!-- Node6&#45;&gt;Node9 -->
<g id="edge11" class="edge">
<title>Node6&#45;&gt;Node9</title>
<path fill="none" stroke="#404040" d="M482.42,-1739.37C485.63,-1733.45 488.39,-1727.25 490.3,-1721 498.85,-1692.94 490.78,-1684.33 490.3,-1655 487.41,-1479.37 497.6,-1434.47 477.3,-1260 468.51,-1184.46 451.89,-1100.87 437.06,-1034.61"/>
<polygon fill="none" stroke="#404040" points="437.05,-1034.57 431.82,-1029.6 434.4,-1022.87 439.63,-1027.84 437.05,-1034.57"/>
<text text-anchor="middle" x="527.8" y="-1443.5" font-family="Helvetica,sans-Serif" font-size="20.00"> &#45;CRMV</text>
</g>
<!-- Node11 -->
<g id="node11" class="node">
<title>Node11</title>
<g id="a_node11"><a xlink:href="classExotico.html" target="_top" xlink:title="Umas das definições de categoria para Animal.">
<polygon fill="white" stroke="black" points="555.8,-1041.5 555.8,-1241.5 698.8,-1241.5 698.8,-1041.5 555.8,-1041.5"/>
<text text-anchor="middle" x="627.3" y="-1221.5" font-family="Helvetica,sans-Serif" font-size="20.00">Exotico</text>
<polyline fill="none" stroke="black" points="555.8,-1211.5 698.8,-1211.5 "/>
<text text-anchor="middle" x="627.3" y="-1191.5" font-family="Helvetica,sans-Serif" font-size="20.00"> </text>
<polyline fill="none" stroke="black" points="555.8,-1181.5 698.8,-1181.5 "/>
<text text-anchor="start" x="563.8" y="-1161.5" font-family="Helvetica,sans-Serif" font-size="20.00">+ Exotico()</text>
<text text-anchor="start" x="563.8" y="-1139.5" font-family="Helvetica,sans-Serif" font-size="20.00">+ Exotico()</text>
<text text-anchor="start" x="563.8" y="-1117.5" font-family="Helvetica,sans-Serif" font-size="20.00">+ ~Exotico()</text>
<text text-anchor="start" x="563.8" y="-1095.5" font-family="Helvetica,sans-Serif" font-size="20.00">+ getLocal()</text>
<text text-anchor="start" x="563.8" y="-1073.5" font-family="Helvetica,sans-Serif" font-size="20.00">+ setLocal()</text>
<text text-anchor="start" x="563.8" y="-1051.5" font-family="Helvetica,sans-Serif" font-size="20.00">+ setLocal()</text>
</a>
</g>
</g>
<!-- Node6&#45;&gt;Node11 -->
<g id="edge14" class="edge">
<title>Node6&#45;&gt;Node11</title>
<path fill="none" stroke="#404040" d="M485.44,-1756.03C517.71,-1729.63 562.2,-1686.52 581.3,-1637 629.45,-1512.16 636.13,-1356.95 633.92,-1254.07"/>
<polygon fill="none" stroke="#404040" points="633.91,-1253.79 629.76,-1247.89 633.61,-1241.79 637.76,-1247.69 633.91,-1253.79"/>
<text text-anchor="middle" x="605.8" y="-1683" font-family="Helvetica,sans-Serif" font-size="20.00"> #local</text>
</g>
<!-- Node7 -->
<g id="node7" class="node">
<title>Node7</title>
<g id="a_node7"><a xlink:title=" ">
<polygon fill="white" stroke="#bfbfbf" points="142.8,-1403.5 142.8,-1493.5 249.8,-1493.5 249.8,-1403.5 142.8,-1403.5"/>
<text text-anchor="middle" x="196.3" y="-1473.5" font-family="Helvetica,sans-Serif" font-size="20.00">Uniforme</text>
<polyline fill="none" stroke="#bfbfbf" points="142.8,-1463.5 249.8,-1463.5 "/>
<text text-anchor="middle" x="196.3" y="-1443.5" font-family="Helvetica,sans-Serif" font-size="20.00"> </text>
<polyline fill="none" stroke="#bfbfbf" points="142.8,-1433.5 249.8,-1433.5 "/>
<text text-anchor="middle" x="196.3" y="-1413.5" font-family="Helvetica,sans-Serif" font-size="20.00"> </text>
</a>
</g>
</g>
<!-- Node7&#45;&gt;Node4 -->
<g id="edge6" class="edge">
<title>Node7&#45;&gt;Node4</title>
<path fill="none" stroke="#404040" d="M195.72,-1403.26C194.68,-1323.35 192.44,-1152.33 190.9,-1034.86"/>
<polygon fill="none" stroke="#404040" points="190.9,-1034.6 186.82,-1028.65 190.74,-1022.6 194.82,-1028.55 190.9,-1034.6"/>
<text text-anchor="middle" x="245.8" y="-1136.5" font-family="Helvetica,sans-Serif" font-size="20.00"> &#45;uniforme</text>
</g>
<!-- Node8 -->
<g id="node8" class="node">
<title>Node8</title>
<g id="a_node8"><a xlink:title=" ">
<polygon fill="white" stroke="#bfbfbf" points="525.8,-866.5 525.8,-956.5 584.8,-956.5 584.8,-866.5 525.8,-866.5"/>
<text text-anchor="middle" x="555.3" y="-936.5" font-family="Helvetica,sans-Serif" font-size="20.00">bool</text>
<polyline fill="none" stroke="#bfbfbf" points="525.8,-926.5 584.8,-926.5 "/>
<text text-anchor="middle" x="555.3" y="-906.5" font-family="Helvetica,sans-Serif" font-size="20.00"> </text>
<polyline fill="none" stroke="#bfbfbf" points="525.8,-896.5 584.8,-896.5 "/>
<text text-anchor="middle" x="555.3" y="-876.5" font-family="Helvetica,sans-Serif" font-size="20.00"> </text>
</a>
</g>
</g>
<!-- Node8&#45;&gt;Node3 -->
<g id="edge7" class="edge">
<title>Node8&#45;&gt;Node3</title>
<path fill="none" stroke="#404040" d="M540.15,-866.26C533.09,-845.99 524.47,-821.71 516.3,-800 509.56,-782.08 509.73,-776.66 500.3,-760 496.32,-752.96 492.08,-745.89 487.66,-738.84"/>
<polygon fill="none" stroke="#404040" points="487.53,-738.64 480.92,-735.74 481.06,-728.53 487.66,-731.43 487.53,-738.64"/>
<text text-anchor="middle" x="564.8" y="-766" font-family="Helvetica,sans-Serif" font-size="20.00"> #perigoso</text>
</g>
<!-- Node9&#45;&gt;Node3 -->
<g id="edge9" class="edge">
<title>Node9&#45;&gt;Node3</title>
<path fill="none" stroke="#404040" d="M373.45,-800.18C372.22,-794.06 371.16,-787.97 370.3,-782 368.98,-772.83 367.94,-763.4 367.12,-753.86"/>
<polygon fill="none" stroke="#404040" points="367.1,-753.7 362.66,-748.02 366.2,-741.73 370.64,-747.42 367.1,-753.7"/>
<text text-anchor="middle" x="435.3" y="-766" font-family="Helvetica,sans-Serif" font-size="20.00"> #veterinario</text>
</g>
<!-- Node10 -->
<g id="node10" class="node">
<title>Node10</title>
<g id="a_node10"><a xlink:title=" ">
<polygon fill="white" stroke="#bfbfbf" points="182.8,-541.5 182.8,-631.5 239.8,-631.5 239.8,-541.5 182.8,-541.5"/>
<text text-anchor="middle" x="211.3" y="-611.5" font-family="Helvetica,sans-Serif" font-size="20.00">Pele</text>
<polyline fill="none" stroke="#bfbfbf" points="182.8,-601.5 239.8,-601.5 "/>
<text text-anchor="middle" x="211.3" y="-581.5" font-family="Helvetica,sans-Serif" font-size="20.00"> </text>
<polyline fill="none" stroke="#bfbfbf" points="182.8,-571.5 239.8,-571.5 "/>
<text text-anchor="middle" x="211.3" y="-551.5" font-family="Helvetica,sans-Serif" font-size="20.00"> </text>
</a>
</g>
</g>
<!-- Node10&#45;&gt;Node2 -->
<g id="edge12" class="edge">
<title>Node10&#45;&gt;Node2</title>
<path fill="none" stroke="#404040" d="M216.86,-541.23C222.03,-509.41 231.56,-466.1 248.3,-431 261.28,-403.78 279.51,-376.78 297.9,-353.02"/>
<polygon fill="none" stroke="#404040" points="298.06,-352.82 298.63,-345.63 305.49,-343.4 304.91,-350.59 298.06,-352.82"/>
<text text-anchor="middle" x="302.8" y="-397" font-family="Helvetica,sans-Serif" font-size="20.00"> #pele</text>
</g>
<!-- Node11&#45;&gt;Node1 -->
<g id="edge13" class="edge">
<title>Node11&#45;&gt;Node1</title>
<path fill="none" stroke="midnightblue" d="M635.9,-1031.09C640.93,-957.82 646.3,-859.19 646.3,-772 646.3,-772 646.3,-772 646.3,-271.5 646.3,-219.6 614.99,-171.24 582.09,-134.75"/>
<polygon fill="none" stroke="midnightblue" points="632.39,-1031.04 635.19,-1041.26 639.38,-1031.52 632.39,-1031.04"/>
</g>
</g>
</svg>
