<?xml version="1.0" encoding="UTF-8" standalone="no"?>
<!DOCTYPE svg PUBLIC "-//W3C//DTD SVG 1.1//EN"
 "http://www.w3.org/Graphics/SVG/1.1/DTD/svg11.dtd">
<!-- Generated by graphviz version 2.40.1 (20161225.0304)
 -->
<!-- Title: Domestico Pages: 1 -->
<svg width="644pt" height="1334pt"
 viewBox="0.00 0.00 643.56 1334.00" xmlns="http://www.w3.org/2000/svg" xmlns:xlink="http://www.w3.org/1999/xlink">
<g id="graph0" class="graph" transform="scale(1 1) rotate(0) translate(4 1330)">
<title>Domestico</title>
<polygon fill="#ffffff" stroke="transparent" points="-4,4 -4,-1330 639.558,-1330 639.558,4 -4,4"/>
<!-- Node6 -->
<g id="node1" class="node">
<title>Node6</title>
<polygon fill="#bfbfbf" stroke="#000000" points="409.058,-.5 409.058,-156.5 564.058,-156.5 564.058,-.5 409.058,-.5"/>
<text text-anchor="middle" x="486.558" y="-136.5" font-family="Helvetica,sans-Serif" font-size="20.00" fill="#000000">Domestico</text>
<polyline fill="none" stroke="#000000" points="409.058,-126.5 564.058,-126.5 "/>
<text text-anchor="middle" x="486.558" y="-106.5" font-family="Helvetica,sans-Serif" font-size="20.00" fill="#000000"> </text>
<polyline fill="none" stroke="#000000" points="409.058,-96.5 564.058,-96.5 "/>
<text text-anchor="start" x="417.058" y="-76.5" font-family="Helvetica,sans-Serif" font-size="20.00" fill="#000000">+ Domestico()</text>
<text text-anchor="start" x="417.058" y="-54.5" font-family="Helvetica,sans-Serif" font-size="20.00" fill="#000000">+ Domestico()</text>
<text text-anchor="start" x="417.058" y="-32.5" font-family="Helvetica,sans-Serif" font-size="20.00" fill="#000000">+ ~Domestico()</text>
<text text-anchor="start" x="417.058" y="-10.5" font-family="Helvetica,sans-Serif" font-size="20.00" fill="#000000">+ getAdestrado()</text>
</g>
<!-- Node7 -->
<g id="node2" class="node">
<title>Node7</title>
<g id="a_node2"><a xlink:href="classAnimal.html" target="_top" xlink:title="Implementação base para o cadastro de animais. ">
<polygon fill="#ffffff" stroke="#000000" points="327.058,-194.5 327.058,-548.5 512.058,-548.5 512.058,-194.5 327.058,-194.5"/>
<text text-anchor="middle" x="419.558" y="-528.5" font-family="Helvetica,sans-Serif" font-size="20.00" fill="#000000">Animal</text>
<polyline fill="none" stroke="#000000" points="327.058,-518.5 512.058,-518.5 "/>
<text text-anchor="middle" x="419.558" y="-498.5" font-family="Helvetica,sans-Serif" font-size="20.00" fill="#000000"> </text>
<polyline fill="none" stroke="#000000" points="327.058,-488.5 512.058,-488.5 "/>
<text text-anchor="start" x="335.058" y="-468.5" font-family="Helvetica,sans-Serif" font-size="20.00" fill="#000000">+ Animal()</text>
<text text-anchor="start" x="335.058" y="-446.5" font-family="Helvetica,sans-Serif" font-size="20.00" fill="#000000">+ Animal()</text>
<text text-anchor="start" x="335.058" y="-424.5" font-family="Helvetica,sans-Serif" font-size="20.00" fill="#000000">+ ~Animal()</text>
<text text-anchor="start" x="335.058" y="-402.5" font-family="Helvetica,sans-Serif" font-size="20.00" fill="#000000">+ getNome()</text>
<text text-anchor="start" x="335.058" y="-380.5" font-family="Helvetica,sans-Serif" font-size="20.00" fill="#000000">+ getEspecie()</text>
<text text-anchor="start" x="335.058" y="-358.5" font-family="Helvetica,sans-Serif" font-size="20.00" fill="#000000">+ getAmeacadoPor()</text>
<text text-anchor="start" x="335.058" y="-336.5" font-family="Helvetica,sans-Serif" font-size="20.00" fill="#000000">+ getVeterinario()</text>
<text text-anchor="start" x="335.058" y="-314.5" font-family="Helvetica,sans-Serif" font-size="20.00" fill="#000000">+ getTratador()</text>
<text text-anchor="start" x="335.058" y="-292.5" font-family="Helvetica,sans-Serif" font-size="20.00" fill="#000000">+ getPerigoso()</text>
<text text-anchor="start" x="335.058" y="-270.5" font-family="Helvetica,sans-Serif" font-size="20.00" fill="#000000">+ getClassificacao()</text>
<text text-anchor="start" x="335.058" y="-248.5" font-family="Helvetica,sans-Serif" font-size="20.00" fill="#000000">+ getClasse()</text>
<text text-anchor="start" x="335.058" y="-226.5" font-family="Helvetica,sans-Serif" font-size="20.00" fill="#000000">+ printOutDados()</text>
<text text-anchor="start" x="335.058" y="-204.5" font-family="Helvetica,sans-Serif" font-size="20.00" fill="#000000">+ operator==()</text>
</a>
</g>
</g>
<!-- Node7&#45;&gt;Node6 -->
<g id="edge1" class="edge">
<title>Node7&#45;&gt;Node6</title>
<path fill="none" stroke="#191970" d="M462.3627,-184.3094C464.5371,-174.8004 466.6547,-165.5397 468.6748,-156.7059"/>
<polygon fill="none" stroke="#191970" points="458.8951,-183.7727 460.0778,-194.3014 465.719,-185.3332 458.8951,-183.7727"/>
</g>
<!-- Node8 -->
<g id="node3" class="node">
<title>Node8</title>
<g id="a_node3"><a xlink:href="classTratador.html" target="_top" xlink:title="Implementação dos tratadores. ">
<polygon fill="#ffffff" stroke="#000000" points="227.558,-607.5 227.558,-785.5 391.558,-785.5 391.558,-607.5 227.558,-607.5"/>
<text text-anchor="middle" x="309.558" y="-765.5" font-family="Helvetica,sans-Serif" font-size="20.00" fill="#000000">Tratador</text>
<polyline fill="none" stroke="#000000" points="227.558,-755.5 391.558,-755.5 "/>
<text text-anchor="middle" x="309.558" y="-735.5" font-family="Helvetica,sans-Serif" font-size="20.00" fill="#000000"> </text>
<polyline fill="none" stroke="#000000" points="227.558,-725.5 391.558,-725.5 "/>
<text text-anchor="start" x="235.558" y="-705.5" font-family="Helvetica,sans-Serif" font-size="20.00" fill="#000000">+ Tratador()</text>
<text text-anchor="start" x="235.558" y="-683.5" font-family="Helvetica,sans-Serif" font-size="20.00" fill="#000000">+ Tratador()</text>
<text text-anchor="start" x="235.558" y="-661.5" font-family="Helvetica,sans-Serif" font-size="20.00" fill="#000000">+ ~Tratador()</text>
<text text-anchor="start" x="235.558" y="-639.5" font-family="Helvetica,sans-Serif" font-size="20.00" fill="#000000">+ getUniforme()</text>
<text text-anchor="start" x="235.558" y="-617.5" font-family="Helvetica,sans-Serif" font-size="20.00" fill="#000000">+ printOutDados()</text>
</a>
</g>
</g>
<!-- Node8&#45;&gt;Node7 -->
<g id="edge2" class="edge">
<title>Node8&#45;&gt;Node7</title>
<path fill="none" stroke="#404040" d="M315.892,-607.2387C318.0062,-593.608 320.8187,-579.8192 324.558,-567 325.2218,-564.7245 325.9101,-562.443 326.6215,-560.1572"/>
<polygon fill="none" stroke="#404040" points="326.638,-560.1065 324.698,-553.1612 330.3628,-548.6992 332.3028,-555.6444 326.638,-560.1065"/>
<text text-anchor="middle" x="365.058" y="-573" font-family="Helvetica,sans-Serif" font-size="20.00" fill="#000000"> #tratador</text>
</g>
<!-- Node9 -->
<g id="node4" class="node">
<title>Node9</title>
<g id="a_node4"><a xlink:href="classPessoa.html" target="_top" xlink:title="Classe base dos funcionarios. ">
<polygon fill="#ffffff" stroke="#000000" points="101.558,-888.5 101.558,-1132.5 265.558,-1132.5 265.558,-888.5 101.558,-888.5"/>
<text text-anchor="middle" x="183.558" y="-1112.5" font-family="Helvetica,sans-Serif" font-size="20.00" fill="#000000">Pessoa</text>
<polyline fill="none" stroke="#000000" points="101.558,-1102.5 265.558,-1102.5 "/>
<text text-anchor="middle" x="183.558" y="-1082.5" font-family="Helvetica,sans-Serif" font-size="20.00" fill="#000000"> </text>
<polyline fill="none" stroke="#000000" points="101.558,-1072.5 265.558,-1072.5 "/>
<text text-anchor="start" x="109.558" y="-1052.5" font-family="Helvetica,sans-Serif" font-size="20.00" fill="#000000">+ Pessoa()</text>
<text text-anchor="start" x="109.558" y="-1030.5" font-family="Helvetica,sans-Serif" font-size="20.00" fill="#000000">+ Pessoa()</text>
<text text-anchor="start" x="109.558" y="-1008.5" font-family="Helvetica,sans-Serif" font-size="20.00" fill="#000000">+ ~Pessoa()</text>
<text text-anchor="start" x="109.558" y="-986.5" font-family="Helvetica,sans-Serif" font-size="20.00" fill="#000000">+ getNome()</text>
<text text-anchor="start" x="109.558" y="-964.5" font-family="Helvetica,sans-Serif" font-size="20.00" fill="#000000">+ getTelefone()</text>
<text text-anchor="start" x="109.558" y="-942.5" font-family="Helvetica,sans-Serif" font-size="20.00" fill="#000000">+ getEmail()</text>
<text text-anchor="start" x="109.558" y="-920.5" font-family="Helvetica,sans-Serif" font-size="20.00" fill="#000000">+ printOutDados()</text>
<text text-anchor="start" x="109.558" y="-898.5" font-family="Helvetica,sans-Serif" font-size="20.00" fill="#000000">+ operator==()</text>
</a>
</g>
</g>
<!-- Node9&#45;&gt;Node8 -->
<g id="edge3" class="edge">
<title>Node9&#45;&gt;Node8</title>
<path fill="none" stroke="#191970" d="M236.5037,-878.556C249.0374,-847.3213 262.1161,-814.7284 273.6859,-785.8956"/>
<polygon fill="none" stroke="#191970" points="233.1096,-877.6161 232.6337,-888.2003 239.6061,-880.2231 233.1096,-877.6161"/>
</g>
<!-- Node13 -->
<g id="node8" class="node">
<title>Node13</title>
<g id="a_node8"><a xlink:href="classVeterinario.html" target="_top" xlink:title="Implementação dos veterinarios. ">
<polygon fill="#ffffff" stroke="#000000" points="45.558,-607.5 45.558,-785.5 209.558,-785.5 209.558,-607.5 45.558,-607.5"/>
<text text-anchor="middle" x="127.558" y="-765.5" font-family="Helvetica,sans-Serif" font-size="20.00" fill="#000000">Veterinario</text>
<polyline fill="none" stroke="#000000" points="45.558,-755.5 209.558,-755.5 "/>
<text text-anchor="middle" x="127.558" y="-735.5" font-family="Helvetica,sans-Serif" font-size="20.00" fill="#000000"> </text>
<polyline fill="none" stroke="#000000" points="45.558,-725.5 209.558,-725.5 "/>
<text text-anchor="start" x="53.558" y="-705.5" font-family="Helvetica,sans-Serif" font-size="20.00" fill="#000000">+ Veterinario()</text>
<text text-anchor="start" x="53.558" y="-683.5" font-family="Helvetica,sans-Serif" font-size="20.00" fill="#000000">+ Veterinario()</text>
<text text-anchor="start" x="53.558" y="-661.5" font-family="Helvetica,sans-Serif" font-size="20.00" fill="#000000">+ ~Veterinario()</text>
<text text-anchor="start" x="53.558" y="-639.5" font-family="Helvetica,sans-Serif" font-size="20.00" fill="#000000">+ getCRMV()</text>
<text text-anchor="start" x="53.558" y="-617.5" font-family="Helvetica,sans-Serif" font-size="20.00" fill="#000000">+ printOutDados()</text>
</a>
</g>
</g>
<!-- Node9&#45;&gt;Node13 -->
<g id="edge9" class="edge">
<title>Node9&#45;&gt;Node13</title>
<path fill="none" stroke="#191970" d="M159.9546,-878.152C154.406,-847.0404 148.6212,-814.6041 143.5012,-785.8956"/>
<polygon fill="none" stroke="#191970" points="156.5452,-878.9702 161.7466,-888.2003 163.4364,-877.7411 156.5452,-878.9702"/>
</g>
<!-- Node10 -->
<g id="node5" class="node">
<title>Node10</title>
<polygon fill="#ffffff" stroke="#bfbfbf" points="151.558,-1235.5 151.558,-1325.5 215.558,-1325.5 215.558,-1235.5 151.558,-1235.5"/>
<text text-anchor="middle" x="183.558" y="-1305.5" font-family="Helvetica,sans-Serif" font-size="20.00" fill="#000000">string</text>
<polyline fill="none" stroke="#bfbfbf" points="151.558,-1295.5 215.558,-1295.5 "/>
<text text-anchor="middle" x="183.558" y="-1275.5" font-family="Helvetica,sans-Serif" font-size="20.00" fill="#000000"> </text>
<polyline fill="none" stroke="#bfbfbf" points="151.558,-1265.5 215.558,-1265.5 "/>
<text text-anchor="middle" x="183.558" y="-1245.5" font-family="Helvetica,sans-Serif" font-size="20.00" fill="#000000"> </text>
</g>
<!-- Node10&#45;&gt;Node7 -->
<g id="edge7" class="edge">
<title>Node10&#45;&gt;Node7</title>
<path fill="none" stroke="#404040" d="M215.6483,-1267.7031C262.3318,-1247.16 347.442,-1201.9933 384.558,-1133 435.8002,-1037.7483 435.8757,-753.6929 429.2334,-560.7622"/>
<polygon fill="none" stroke="#404040" points="429.2334,-560.7588 425.0231,-554.9044 428.8078,-548.7663 433.0181,-554.6207 429.2334,-560.7588"/>
<text text-anchor="middle" x="493.058" y="-854" font-family="Helvetica,sans-Serif" font-size="20.00" fill="#000000"> #especie</text>
<text text-anchor="middle" x="493.058" y="-832" font-family="Helvetica,sans-Serif" font-size="20.00" fill="#000000">#ameacadoPor</text>
<text text-anchor="middle" x="493.058" y="-810" font-family="Helvetica,sans-Serif" font-size="20.00" fill="#000000">#nome</text>
</g>
<!-- Node10&#45;&gt;Node9 -->
<g id="edge4" class="edge">
<title>Node10&#45;&gt;Node9</title>
<path fill="none" stroke="#404040" d="M183.558,-1235.3081C183.558,-1210.172 183.558,-1177.4339 183.558,-1144.7541"/>
<polygon fill="none" stroke="#404040" points="183.5581,-1144.731 179.5581,-1138.731 183.558,-1132.731 187.5581,-1138.7309 183.5581,-1144.731"/>
<text text-anchor="middle" x="222.058" y="-1201" font-family="Helvetica,sans-Serif" font-size="20.00" fill="#000000"> #email</text>
<text text-anchor="middle" x="222.058" y="-1179" font-family="Helvetica,sans-Serif" font-size="20.00" fill="#000000">#nome</text>
<text text-anchor="middle" x="222.058" y="-1157" font-family="Helvetica,sans-Serif" font-size="20.00" fill="#000000">#telefone</text>
</g>
<!-- Node10&#45;&gt;Node13 -->
<g id="edge10" class="edge">
<title>Node10&#45;&gt;Node13</title>
<path fill="none" stroke="#404040" d="M151.5246,-1261.9277C113.4704,-1237.7894 51.9499,-1191.6955 26.558,-1133 -16.6756,-1033.0618 .3926,-993.6984 26.558,-888 34.2866,-856.7796 48.1327,-825.035 63.1433,-796.6047"/>
<polygon fill="none" stroke="#404040" points="63.2353,-796.4345 62.5705,-789.254 68.9429,-785.8787 69.6077,-793.0592 63.2353,-796.4345"/>
<text text-anchor="middle" x="59.558" y="-1005.5" font-family="Helvetica,sans-Serif" font-size="20.00" fill="#000000"> &#45;CRMV</text>
</g>
<!-- Node11 -->
<g id="node6" class="node">
<title>Node11</title>
<polygon fill="#ffffff" stroke="#bfbfbf" points="283.558,-965.5 283.558,-1055.5 375.558,-1055.5 375.558,-965.5 283.558,-965.5"/>
<text text-anchor="middle" x="329.558" y="-1035.5" font-family="Helvetica,sans-Serif" font-size="20.00" fill="#000000">Uniforme</text>
<polyline fill="none" stroke="#bfbfbf" points="283.558,-1025.5 375.558,-1025.5 "/>
<text text-anchor="middle" x="329.558" y="-1005.5" font-family="Helvetica,sans-Serif" font-size="20.00" fill="#000000"> </text>
<polyline fill="none" stroke="#bfbfbf" points="283.558,-995.5 375.558,-995.5 "/>
<text text-anchor="middle" x="329.558" y="-975.5" font-family="Helvetica,sans-Serif" font-size="20.00" fill="#000000"> </text>
</g>
<!-- Node11&#45;&gt;Node8 -->
<g id="edge5" class="edge">
<title>Node11&#45;&gt;Node8</title>
<path fill="none" stroke="#404040" d="M323.367,-965.353C319.8571,-937.8494 315.742,-901.9632 313.558,-870 311.9664,-846.7063 310.9719,-821.617 310.3588,-797.9536"/>
<polygon fill="none" stroke="#404040" points="310.3535,-797.7229 306.2137,-791.8185 310.0718,-785.7263 314.2115,-791.6307 310.3535,-797.7229"/>
<text text-anchor="middle" x="355.558" y="-832" font-family="Helvetica,sans-Serif" font-size="20.00" fill="#000000"> &#45;uniforme</text>
</g>
<!-- Node12 -->
<g id="node7" class="node">
<title>Node12</title>
<polygon fill="#ffffff" stroke="#bfbfbf" points="488.058,-651.5 488.058,-741.5 539.058,-741.5 539.058,-651.5 488.058,-651.5"/>
<text text-anchor="middle" x="513.558" y="-721.5" font-family="Helvetica,sans-Serif" font-size="20.00" fill="#000000">bool</text>
<polyline fill="none" stroke="#bfbfbf" points="488.058,-711.5 539.058,-711.5 "/>
<text text-anchor="middle" x="513.558" y="-691.5" font-family="Helvetica,sans-Serif" font-size="20.00" fill="#000000"> </text>
<polyline fill="none" stroke="#bfbfbf" points="488.058,-681.5 539.058,-681.5 "/>
<text text-anchor="middle" x="513.558" y="-661.5" font-family="Helvetica,sans-Serif" font-size="20.00" fill="#000000"> </text>
</g>
<!-- Node12&#45;&gt;Node6 -->
<g id="edge11" class="edge">
<title>Node12&#45;&gt;Node6</title>
<path fill="none" stroke="#404040" d="M526.9806,-651.4276C531.9992,-632.3558 537.0805,-609.7823 539.558,-589 540.7154,-579.291 539.8068,-576.7746 539.558,-567 535.3344,-401.061 548.4104,-357.6393 520.558,-194 519.1233,-185.5707 517.279,-176.8861 515.1926,-168.2432"/>
<polygon fill="none" stroke="#404040" points="515.1669,-168.1418 509.8131,-163.311 512.2132,-156.511 517.567,-161.3418 515.1669,-168.1418"/>
<text text-anchor="middle" x="587.058" y="-366.5" font-family="Helvetica,sans-Serif" font-size="20.00" fill="#000000"> #adestrado</text>
</g>
<!-- Node12&#45;&gt;Node7 -->
<g id="edge6" class="edge">
<title>Node12&#45;&gt;Node7</title>
<path fill="none" stroke="#404040" d="M487.8285,-658.2469C475.6255,-638.3829 461.9193,-613.2469 453.558,-589 450.3913,-579.8169 447.5183,-570.3134 444.9119,-560.6436"/>
<polygon fill="none" stroke="#404040" points="444.8491,-560.399 439.4818,-555.5831 441.8629,-548.7764 447.2302,-553.5923 444.8491,-560.399"/>
<text text-anchor="middle" x="496.558" y="-573" font-family="Helvetica,sans-Serif" font-size="20.00" fill="#000000"> #perigoso</text>
</g>
<!-- Node13&#45;&gt;Node7 -->
<g id="edge8" class="edge">
<title>Node13&#45;&gt;Node7</title>
<path fill="none" stroke="#404040" d="M182.0408,-607.4419C191.6816,-593.5092 202.0224,-579.5745 212.558,-567 244.3119,-529.101 282.8527,-490.9727 318.0294,-458.5798"/>
<polygon fill="none" stroke="#404040" points="318.0394,-458.5707 319.767,-451.5696 326.894,-450.4715 325.1664,-457.4726 318.0394,-458.5707"/>
<text text-anchor="middle" x="264.058" y="-573" font-family="Helvetica,sans-Serif" font-size="20.00" fill="#000000"> #veterinario</text>
</g>
</g>
</svg>
