<?xml version="1.0" encoding="UTF-8" standalone="no"?>
<!DOCTYPE svg PUBLIC "-//W3C//DTD SVG 1.1//EN"
 "http://www.w3.org/Graphics/SVG/1.1/DTD/svg11.dtd">
<!-- Generated by graphviz version 2.43.0 (0)
 -->
<!-- Title: Animal Pages: 1 -->
<svg width="2781pt" height="859pt"
 viewBox="0.00 0.00 2780.50 859.00" xmlns="http://www.w3.org/2000/svg" xmlns:xlink="http://www.w3.org/1999/xlink">
<g id="graph0" class="graph" transform="scale(1 1) rotate(0) translate(4 855)">
<title>Animal</title>
<polygon fill="white" stroke="transparent" points="-4,4 -4,-855 2776.5,-855 2776.5,4 -4,4"/>
<!-- Node1 -->
<g id="node1" class="node">
<title>Node1</title>
<g id="a_node1"><a xlink:title="Implementação base para o cadastro de animais.">
<polygon fill="#bfbfbf" stroke="black" points="1234,-386.5 1234,-850.5 1457,-850.5 1457,-386.5 1234,-386.5"/>
<text text-anchor="middle" x="1345.5" y="-830.5" font-family="Helvetica,sans-Serif" font-size="20.00">Animal</text>
<polyline fill="none" stroke="black" points="1234,-820.5 1457,-820.5 "/>
<text text-anchor="start" x="1242" y="-800.5" font-family="Helvetica,sans-Serif" font-size="20.00"># nome</text>
<text text-anchor="start" x="1242" y="-778.5" font-family="Helvetica,sans-Serif" font-size="20.00"># especie</text>
<text text-anchor="start" x="1242" y="-756.5" font-family="Helvetica,sans-Serif" font-size="20.00"># ameacadoPor</text>
<text text-anchor="start" x="1242" y="-734.5" font-family="Helvetica,sans-Serif" font-size="20.00"># veterinario</text>
<text text-anchor="start" x="1242" y="-712.5" font-family="Helvetica,sans-Serif" font-size="20.00"># tratador</text>
<text text-anchor="start" x="1242" y="-690.5" font-family="Helvetica,sans-Serif" font-size="20.00"># perigoso</text>
<polyline fill="none" stroke="black" points="1234,-680.5 1457,-680.5 "/>
<text text-anchor="start" x="1242" y="-660.5" font-family="Helvetica,sans-Serif" font-size="20.00">+ Animal()</text>
<text text-anchor="start" x="1242" y="-638.5" font-family="Helvetica,sans-Serif" font-size="20.00">+ Animal()</text>
<text text-anchor="start" x="1242" y="-616.5" font-family="Helvetica,sans-Serif" font-size="20.00">+ ~Animal()</text>
<text text-anchor="start" x="1242" y="-594.5" font-family="Helvetica,sans-Serif" font-size="20.00">+ getNome()</text>
<text text-anchor="start" x="1242" y="-572.5" font-family="Helvetica,sans-Serif" font-size="20.00">+ getEspecie()</text>
<text text-anchor="start" x="1242" y="-550.5" font-family="Helvetica,sans-Serif" font-size="20.00">+ getAmeacadoPor()</text>
<text text-anchor="start" x="1242" y="-528.5" font-family="Helvetica,sans-Serif" font-size="20.00">+ getVeterinario()</text>
<text text-anchor="start" x="1242" y="-506.5" font-family="Helvetica,sans-Serif" font-size="20.00">+ getTratador()</text>
<text text-anchor="start" x="1242" y="-484.5" font-family="Helvetica,sans-Serif" font-size="20.00">+ getPerigoso()</text>
<text text-anchor="start" x="1242" y="-462.5" font-family="Helvetica,sans-Serif" font-size="20.00">+ getClassificacao()</text>
<text text-anchor="start" x="1242" y="-440.5" font-family="Helvetica,sans-Serif" font-size="20.00">+ getClasse()</text>
<text text-anchor="start" x="1242" y="-418.5" font-family="Helvetica,sans-Serif" font-size="20.00">+ printOutDados()</text>
<text text-anchor="start" x="1242" y="-396.5" font-family="Helvetica,sans-Serif" font-size="20.00">+ operator==()</text>
</a>
</g>
</g>
<!-- Node2 -->
<g id="node2" class="node">
<title>Node2</title>
<g id="a_node2"><a xlink:href="classAnfibio.html" target="_top" xlink:title="Classificação base para Anfibios.">
<polygon fill="white" stroke="black" points="407.5,-171.5 407.5,-349.5 557.5,-349.5 557.5,-171.5 407.5,-171.5"/>
<text text-anchor="middle" x="482.5" y="-329.5" font-family="Helvetica,sans-Serif" font-size="20.00">Anfibio</text>
<polyline fill="none" stroke="black" points="407.5,-319.5 557.5,-319.5 "/>
<text text-anchor="start" x="415.5" y="-299.5" font-family="Helvetica,sans-Serif" font-size="20.00"># cauda</text>
<text text-anchor="start" x="415.5" y="-277.5" font-family="Helvetica,sans-Serif" font-size="20.00"># pata</text>
<polyline fill="none" stroke="black" points="407.5,-267.5 557.5,-267.5 "/>
<text text-anchor="start" x="415.5" y="-247.5" font-family="Helvetica,sans-Serif" font-size="20.00">+ Anfibio()</text>
<text text-anchor="start" x="415.5" y="-225.5" font-family="Helvetica,sans-Serif" font-size="20.00">+ ~Anfibio()</text>
<text text-anchor="start" x="415.5" y="-203.5" font-family="Helvetica,sans-Serif" font-size="20.00">+ getCauda()</text>
<text text-anchor="start" x="415.5" y="-181.5" font-family="Helvetica,sans-Serif" font-size="20.00">+ getPata()</text>
</a>
</g>
</g>
<!-- Node1&#45;&gt;Node2 -->
<g id="edge1" class="edge">
<title>Node1&#45;&gt;Node2</title>
<path fill="none" stroke="midnightblue" d="M1224.26,-567.49C1043.16,-492.78 707.34,-354.25 557.76,-292.55"/>
<polygon fill="none" stroke="midnightblue" points="1222.98,-570.75 1233.56,-571.32 1225.65,-564.28 1222.98,-570.75"/>
</g>
<!-- Node6 -->
<g id="node6" class="node">
<title>Node6</title>
<g id="a_node6"><a xlink:href="classAve.html" target="_top" xlink:title="Classificação base para Aves.">
<polygon fill="white" stroke="black" points="1069.5,-182.5 1069.5,-338.5 1191.5,-338.5 1191.5,-182.5 1069.5,-182.5"/>
<text text-anchor="middle" x="1130.5" y="-318.5" font-family="Helvetica,sans-Serif" font-size="20.00">Ave</text>
<polyline fill="none" stroke="black" points="1069.5,-308.5 1191.5,-308.5 "/>
<text text-anchor="start" x="1077.5" y="-288.5" font-family="Helvetica,sans-Serif" font-size="20.00"># voa</text>
<polyline fill="none" stroke="black" points="1069.5,-278.5 1191.5,-278.5 "/>
<text text-anchor="start" x="1077.5" y="-258.5" font-family="Helvetica,sans-Serif" font-size="20.00">+ Ave()</text>
<text text-anchor="start" x="1077.5" y="-236.5" font-family="Helvetica,sans-Serif" font-size="20.00">+ Ave()</text>
<text text-anchor="start" x="1077.5" y="-214.5" font-family="Helvetica,sans-Serif" font-size="20.00">+ ~Ave()</text>
<text text-anchor="start" x="1077.5" y="-192.5" font-family="Helvetica,sans-Serif" font-size="20.00">+ getVoa()</text>
</a>
</g>
</g>
<!-- Node1&#45;&gt;Node6 -->
<g id="edge5" class="edge">
<title>Node1&#45;&gt;Node6</title>
<path fill="none" stroke="midnightblue" d="M1228.51,-423.79C1210.32,-393.67 1192.5,-364.16 1177.15,-338.74"/>
<polygon fill="none" stroke="midnightblue" points="1225.74,-425.97 1233.91,-432.72 1231.73,-422.35 1225.74,-425.97"/>
</g>
<!-- Node10 -->
<g id="node10" class="node">
<title>Node10</title>
<g id="a_node10"><a xlink:href="classMamifero.html" target="_top" xlink:title="Classificação base para Mamiferos.">
<polygon fill="white" stroke="black" points="1511,-193.5 1511,-327.5 1690,-327.5 1690,-193.5 1511,-193.5"/>
<text text-anchor="middle" x="1600.5" y="-307.5" font-family="Helvetica,sans-Serif" font-size="20.00">Mamifero</text>
<polyline fill="none" stroke="black" points="1511,-297.5 1690,-297.5 "/>
<text text-anchor="start" x="1519" y="-277.5" font-family="Helvetica,sans-Serif" font-size="20.00"># gestacao</text>
<polyline fill="none" stroke="black" points="1511,-267.5 1690,-267.5 "/>
<text text-anchor="start" x="1519" y="-247.5" font-family="Helvetica,sans-Serif" font-size="20.00">+ Mamifero()</text>
<text text-anchor="start" x="1519" y="-225.5" font-family="Helvetica,sans-Serif" font-size="20.00">+ ~Mamifero()</text>
<text text-anchor="start" x="1519" y="-203.5" font-family="Helvetica,sans-Serif" font-size="20.00">+ getGestacao()</text>
</a>
</g>
</g>
<!-- Node1&#45;&gt;Node10 -->
<g id="edge9" class="edge">
<title>Node1&#45;&gt;Node10</title>
<path fill="none" stroke="midnightblue" d="M1463.08,-453.34C1494.86,-408.98 1527.47,-363.46 1552.94,-327.9"/>
<polygon fill="none" stroke="midnightblue" points="1460.14,-451.44 1457.16,-461.61 1465.83,-455.52 1460.14,-451.44"/>
</g>
<!-- Node14 -->
<g id="node14" class="node">
<title>Node14</title>
<g id="a_node14"><a xlink:href="classReptil.html" target="_top" xlink:title="Classificação base para Repteis.">
<polygon fill="white" stroke="black" points="2285,-182.5 2285,-338.5 2412,-338.5 2412,-182.5 2285,-182.5"/>
<text text-anchor="middle" x="2348.5" y="-318.5" font-family="Helvetica,sans-Serif" font-size="20.00">Reptil</text>
<polyline fill="none" stroke="black" points="2285,-308.5 2412,-308.5 "/>
<text text-anchor="start" x="2293" y="-288.5" font-family="Helvetica,sans-Serif" font-size="20.00"># pele</text>
<polyline fill="none" stroke="black" points="2285,-278.5 2412,-278.5 "/>
<text text-anchor="start" x="2293" y="-258.5" font-family="Helvetica,sans-Serif" font-size="20.00">+ Reptil()</text>
<text text-anchor="start" x="2293" y="-236.5" font-family="Helvetica,sans-Serif" font-size="20.00">+ Reptil()</text>
<text text-anchor="start" x="2293" y="-214.5" font-family="Helvetica,sans-Serif" font-size="20.00">+ ~Reptil()</text>
<text text-anchor="start" x="2293" y="-192.5" font-family="Helvetica,sans-Serif" font-size="20.00">+ getPele()</text>
</a>
</g>
</g>
<!-- Node1&#45;&gt;Node14 -->
<g id="edge13" class="edge">
<title>Node1&#45;&gt;Node14</title>
<path fill="none" stroke="midnightblue" d="M1466.89,-574.42C1681.48,-498.25 2120.66,-342.37 2284.76,-284.12"/>
<polygon fill="none" stroke="midnightblue" points="1465.41,-571.23 1457.15,-577.87 1467.75,-577.82 1465.41,-571.23"/>
</g>
<!-- Node3 -->
<g id="node3" class="node">
<title>Node3</title>
<g id="a_node3"><a xlink:href="classAnfibioDomestico.html" target="_top" xlink:title="Implementação de animal com Classe e Categoria.">
<polygon fill="white" stroke="black" points="0,-11.5 0,-123.5 245,-123.5 245,-11.5 0,-11.5"/>
<text text-anchor="middle" x="122.5" y="-103.5" font-family="Helvetica,sans-Serif" font-size="20.00">AnfibioDomestico</text>
<polyline fill="none" stroke="black" points="0,-93.5 245,-93.5 "/>
<text text-anchor="middle" x="122.5" y="-73.5" font-family="Helvetica,sans-Serif" font-size="20.00"> </text>
<polyline fill="none" stroke="black" points="0,-63.5 245,-63.5 "/>
<text text-anchor="start" x="8" y="-43.5" font-family="Helvetica,sans-Serif" font-size="20.00">+ AnfibioDomestico()</text>
<text text-anchor="start" x="8" y="-21.5" font-family="Helvetica,sans-Serif" font-size="20.00">+ ~AnfibioDomestico()</text>
</a>
</g>
</g>
<!-- Node2&#45;&gt;Node3 -->
<g id="edge2" class="edge">
<title>Node2&#45;&gt;Node3</title>
<path fill="none" stroke="midnightblue" d="M398.39,-214.87C347.06,-187.64 281.03,-152.61 226.44,-123.65"/>
<polygon fill="none" stroke="midnightblue" points="397,-218.1 407.47,-219.69 400.28,-211.91 397,-218.1"/>
</g>
<!-- Node4 -->
<g id="node4" class="node">
<title>Node4</title>
<g id="a_node4"><a xlink:href="classAnfibioExotico.html" target="_top" xlink:title="Implementação de animal com Classe e Categoria.">
<polygon fill="white" stroke="black" points="263.5,-11.5 263.5,-123.5 475.5,-123.5 475.5,-11.5 263.5,-11.5"/>
<text text-anchor="middle" x="369.5" y="-103.5" font-family="Helvetica,sans-Serif" font-size="20.00">AnfibioExotico</text>
<polyline fill="none" stroke="black" points="263.5,-93.5 475.5,-93.5 "/>
<text text-anchor="middle" x="369.5" y="-73.5" font-family="Helvetica,sans-Serif" font-size="20.00"> </text>
<polyline fill="none" stroke="black" points="263.5,-63.5 475.5,-63.5 "/>
<text text-anchor="start" x="271.5" y="-43.5" font-family="Helvetica,sans-Serif" font-size="20.00">+ AnfibioExotico()</text>
<text text-anchor="start" x="271.5" y="-21.5" font-family="Helvetica,sans-Serif" font-size="20.00">+ ~AnfibioExotico()</text>
</a>
</g>
</g>
<!-- Node2&#45;&gt;Node4 -->
<g id="edge3" class="edge">
<title>Node2&#45;&gt;Node4</title>
<path fill="none" stroke="midnightblue" d="M425.12,-162.51C417.22,-149.16 409.35,-135.86 402.12,-123.63"/>
<polygon fill="none" stroke="midnightblue" points="422.2,-164.44 430.3,-171.27 428.22,-160.88 422.2,-164.44"/>
</g>
<!-- Node5 -->
<g id="node5" class="node">
<title>Node5</title>
<g id="a_node5"><a xlink:href="classAnfibioNativo.html" target="_top" xlink:title="Implementação de animal com Classe e Categoria.">
<polygon fill="white" stroke="black" points="493,-11.5 493,-123.5 696,-123.5 696,-11.5 493,-11.5"/>
<text text-anchor="middle" x="594.5" y="-103.5" font-family="Helvetica,sans-Serif" font-size="20.00">AnfibioNativo</text>
<polyline fill="none" stroke="black" points="493,-93.5 696,-93.5 "/>
<text text-anchor="middle" x="594.5" y="-73.5" font-family="Helvetica,sans-Serif" font-size="20.00"> </text>
<polyline fill="none" stroke="black" points="493,-63.5 696,-63.5 "/>
<text text-anchor="start" x="501" y="-43.5" font-family="Helvetica,sans-Serif" font-size="20.00">+ AnfibioNativo()</text>
<text text-anchor="start" x="501" y="-21.5" font-family="Helvetica,sans-Serif" font-size="20.00">+ ~AnfibioNativo()</text>
</a>
</g>
</g>
<!-- Node2&#45;&gt;Node5 -->
<g id="edge4" class="edge">
<title>Node2&#45;&gt;Node5</title>
<path fill="none" stroke="midnightblue" d="M539.38,-162.51C547.2,-149.16 555,-135.86 562.17,-123.63"/>
<polygon fill="none" stroke="midnightblue" points="536.28,-160.87 534.24,-171.27 542.32,-164.41 536.28,-160.87"/>
</g>
<!-- Node7 -->
<g id="node7" class="node">
<title>Node7</title>
<g id="a_node7"><a xlink:href="classAveDomestica.html" target="_top" xlink:title="Implementação de animal com Classe e Categoria.">
<polygon fill="white" stroke="black" points="714,-0.5 714,-134.5 927,-134.5 927,-0.5 714,-0.5"/>
<text text-anchor="middle" x="820.5" y="-114.5" font-family="Helvetica,sans-Serif" font-size="20.00">AveDomestica</text>
<polyline fill="none" stroke="black" points="714,-104.5 927,-104.5 "/>
<text text-anchor="middle" x="820.5" y="-84.5" font-family="Helvetica,sans-Serif" font-size="20.00"> </text>
<polyline fill="none" stroke="black" points="714,-74.5 927,-74.5 "/>
<text text-anchor="start" x="722" y="-54.5" font-family="Helvetica,sans-Serif" font-size="20.00">+ AveDomestica()</text>
<text text-anchor="start" x="722" y="-32.5" font-family="Helvetica,sans-Serif" font-size="20.00">+ AveDomestica()</text>
<text text-anchor="start" x="722" y="-10.5" font-family="Helvetica,sans-Serif" font-size="20.00">+ ~AveDomestica()</text>
</a>
</g>
</g>
<!-- Node6&#45;&gt;Node7 -->
<g id="edge6" class="edge">
<title>Node6&#45;&gt;Node7</title>
<path fill="none" stroke="midnightblue" d="M1060.52,-216.38C1021.17,-192.14 971.25,-161.38 927.14,-134.2"/>
<polygon fill="none" stroke="midnightblue" points="1058.9,-219.5 1069.25,-221.76 1062.58,-213.54 1058.9,-219.5"/>
</g>
<!-- Node8 -->
<g id="node8" class="node">
<title>Node8</title>
<g id="a_node8"><a xlink:href="classAveExotica.html" target="_top" xlink:title="Implementação de animal com Classe e Categoria.">
<polygon fill="white" stroke="black" points="945,-11.5 945,-123.5 1124,-123.5 1124,-11.5 945,-11.5"/>
<text text-anchor="middle" x="1034.5" y="-103.5" font-family="Helvetica,sans-Serif" font-size="20.00">AveExotica</text>
<polyline fill="none" stroke="black" points="945,-93.5 1124,-93.5 "/>
<text text-anchor="middle" x="1034.5" y="-73.5" font-family="Helvetica,sans-Serif" font-size="20.00"> </text>
<polyline fill="none" stroke="black" points="945,-63.5 1124,-63.5 "/>
<text text-anchor="start" x="953" y="-43.5" font-family="Helvetica,sans-Serif" font-size="20.00">+ AveExotica()</text>
<text text-anchor="start" x="953" y="-21.5" font-family="Helvetica,sans-Serif" font-size="20.00">+ ~AveExotica()</text>
</a>
</g>
</g>
<!-- Node6&#45;&gt;Node8 -->
<g id="edge7" class="edge">
<title>Node6&#45;&gt;Node8</title>
<path fill="none" stroke="midnightblue" d="M1087.06,-173.08C1078.61,-156.27 1069.97,-139.08 1062.2,-123.62"/>
<polygon fill="none" stroke="midnightblue" points="1084.11,-175 1091.73,-182.36 1090.37,-171.86 1084.11,-175"/>
</g>
<!-- Node9 -->
<g id="node9" class="node">
<title>Node9</title>
<g id="a_node9"><a xlink:href="classAveNativa.html" target="_top" xlink:title="Implementação de animal com Classe e Categoria.">
<polygon fill="white" stroke="black" points="1142,-11.5 1142,-123.5 1313,-123.5 1313,-11.5 1142,-11.5"/>
<text text-anchor="middle" x="1227.5" y="-103.5" font-family="Helvetica,sans-Serif" font-size="20.00">AveNativa</text>
<polyline fill="none" stroke="black" points="1142,-93.5 1313,-93.5 "/>
<text text-anchor="middle" x="1227.5" y="-73.5" font-family="Helvetica,sans-Serif" font-size="20.00"> </text>
<polyline fill="none" stroke="black" points="1142,-63.5 1313,-63.5 "/>
<text text-anchor="start" x="1150" y="-43.5" font-family="Helvetica,sans-Serif" font-size="20.00">+ AveNativa()</text>
<text text-anchor="start" x="1150" y="-21.5" font-family="Helvetica,sans-Serif" font-size="20.00">+ ~AveNativa()</text>
</a>
</g>
</g>
<!-- Node6&#45;&gt;Node9 -->
<g id="edge8" class="edge">
<title>Node6&#45;&gt;Node9</title>
<path fill="none" stroke="midnightblue" d="M1174.39,-173.08C1182.93,-156.27 1191.66,-139.08 1199.51,-123.62"/>
<polygon fill="none" stroke="midnightblue" points="1171.08,-171.86 1169.67,-182.36 1177.32,-175.03 1171.08,-171.86"/>
</g>
<!-- Node11 -->
<g id="node11" class="node">
<title>Node11</title>
<g id="a_node11"><a xlink:href="classMamiferoDomestico.html" target="_top" xlink:title="Implementação de animal com Classe e Categoria.">
<polygon fill="white" stroke="black" points="1331,-11.5 1331,-123.5 1600,-123.5 1600,-11.5 1331,-11.5"/>
<text text-anchor="middle" x="1465.5" y="-103.5" font-family="Helvetica,sans-Serif" font-size="20.00">MamiferoDomestico</text>
<polyline fill="none" stroke="black" points="1331,-93.5 1600,-93.5 "/>
<text text-anchor="middle" x="1465.5" y="-73.5" font-family="Helvetica,sans-Serif" font-size="20.00"> </text>
<polyline fill="none" stroke="black" points="1331,-63.5 1600,-63.5 "/>
<text text-anchor="start" x="1339" y="-43.5" font-family="Helvetica,sans-Serif" font-size="20.00">+ MamiferoDomestico()</text>
<text text-anchor="start" x="1339" y="-21.5" font-family="Helvetica,sans-Serif" font-size="20.00">+ ~MamiferoDomestico()</text>
</a>
</g>
</g>
<!-- Node10&#45;&gt;Node11 -->
<g id="edge10" class="edge">
<title>Node10&#45;&gt;Node11</title>
<path fill="none" stroke="midnightblue" d="M1547.76,-184.88C1533.32,-164.45 1517.93,-142.69 1504.42,-123.57"/>
<polygon fill="none" stroke="midnightblue" points="1545.03,-187.09 1553.66,-193.23 1550.75,-183.05 1545.03,-187.09"/>
</g>
<!-- Node12 -->
<g id="node12" class="node">
<title>Node12</title>
<g id="a_node12"><a xlink:href="classMamiferoExotico.html" target="_top" xlink:title="Implementação de animal com Classe e Categoria.">
<polygon fill="white" stroke="black" points="1618,-11.5 1618,-123.5 1853,-123.5 1853,-11.5 1618,-11.5"/>
<text text-anchor="middle" x="1735.5" y="-103.5" font-family="Helvetica,sans-Serif" font-size="20.00">MamiferoExotico</text>
<polyline fill="none" stroke="black" points="1618,-93.5 1853,-93.5 "/>
<text text-anchor="middle" x="1735.5" y="-73.5" font-family="Helvetica,sans-Serif" font-size="20.00"> </text>
<polyline fill="none" stroke="black" points="1618,-63.5 1853,-63.5 "/>
<text text-anchor="start" x="1626" y="-43.5" font-family="Helvetica,sans-Serif" font-size="20.00">+ MamiferoExotico()</text>
<text text-anchor="start" x="1626" y="-21.5" font-family="Helvetica,sans-Serif" font-size="20.00">+ ~MamiferoExotico()</text>
</a>
</g>
</g>
<!-- Node10&#45;&gt;Node12 -->
<g id="edge11" class="edge">
<title>Node10&#45;&gt;Node12</title>
<path fill="none" stroke="midnightblue" d="M1653.24,-184.88C1667.68,-164.45 1683.07,-142.69 1696.58,-123.57"/>
<polygon fill="none" stroke="midnightblue" points="1650.25,-183.05 1647.34,-193.23 1655.97,-187.09 1650.25,-183.05"/>
</g>
<!-- Node13 -->
<g id="node13" class="node">
<title>Node13</title>
<g id="a_node13"><a xlink:href="classMamiferoNativo.html" target="_top" xlink:title="Implementação de animal com Classe e Categoria.">
<polygon fill="white" stroke="black" points="1871,-11.5 1871,-123.5 2098,-123.5 2098,-11.5 1871,-11.5"/>
<text text-anchor="middle" x="1984.5" y="-103.5" font-family="Helvetica,sans-Serif" font-size="20.00">MamiferoNativo</text>
<polyline fill="none" stroke="black" points="1871,-93.5 2098,-93.5 "/>
<text text-anchor="middle" x="1984.5" y="-73.5" font-family="Helvetica,sans-Serif" font-size="20.00"> </text>
<polyline fill="none" stroke="black" points="1871,-63.5 2098,-63.5 "/>
<text text-anchor="start" x="1879" y="-43.5" font-family="Helvetica,sans-Serif" font-size="20.00">+ MamiferoNativo()</text>
<text text-anchor="start" x="1879" y="-21.5" font-family="Helvetica,sans-Serif" font-size="20.00">+ ~MamiferoNativo()</text>
</a>
</g>
</g>
<!-- Node10&#45;&gt;Node13 -->
<g id="edge12" class="edge">
<title>Node10&#45;&gt;Node13</title>
<path fill="none" stroke="midnightblue" d="M1699.47,-213.73C1748.5,-190.69 1808.42,-161.99 1861.5,-135 1868.75,-131.31 1876.21,-127.45 1883.7,-123.53"/>
<polygon fill="none" stroke="midnightblue" points="1697.7,-210.69 1690.14,-218.11 1700.67,-217.03 1697.7,-210.69"/>
</g>
<!-- Node15 -->
<g id="node15" class="node">
<title>Node15</title>
<g id="a_node15"><a xlink:href="classReptilDomestico.html" target="_top" xlink:title="Implementação de animal com Classe e Categoria.">
<polygon fill="white" stroke="black" points="2116.5,-11.5 2116.5,-123.5 2348.5,-123.5 2348.5,-11.5 2116.5,-11.5"/>
<text text-anchor="middle" x="2232.5" y="-103.5" font-family="Helvetica,sans-Serif" font-size="20.00">ReptilDomestico</text>
<polyline fill="none" stroke="black" points="2116.5,-93.5 2348.5,-93.5 "/>
<text text-anchor="middle" x="2232.5" y="-73.5" font-family="Helvetica,sans-Serif" font-size="20.00"> </text>
<polyline fill="none" stroke="black" points="2116.5,-63.5 2348.5,-63.5 "/>
<text text-anchor="start" x="2124.5" y="-43.5" font-family="Helvetica,sans-Serif" font-size="20.00">+ ReptilDomestico()</text>
<text text-anchor="start" x="2124.5" y="-21.5" font-family="Helvetica,sans-Serif" font-size="20.00">+ ~ReptilDomestico()</text>
</a>
</g>
</g>
<!-- Node14&#45;&gt;Node15 -->
<g id="edge14" class="edge">
<title>Node14&#45;&gt;Node15</title>
<path fill="none" stroke="midnightblue" d="M2296.3,-173.54C2286,-156.58 2275.45,-139.22 2265.98,-123.62"/>
<polygon fill="none" stroke="midnightblue" points="2293.47,-175.63 2301.65,-182.36 2299.45,-172 2293.47,-175.63"/>
</g>
<!-- Node16 -->
<g id="node16" class="node">
<title>Node16</title>
<g id="a_node16"><a xlink:href="classReptilExotico.html" target="_top" xlink:title="Implementação de animal com Classe e Categoria.">
<polygon fill="white" stroke="black" points="2366.5,-11.5 2366.5,-123.5 2564.5,-123.5 2564.5,-11.5 2366.5,-11.5"/>
<text text-anchor="middle" x="2465.5" y="-103.5" font-family="Helvetica,sans-Serif" font-size="20.00">ReptilExotico</text>
<polyline fill="none" stroke="black" points="2366.5,-93.5 2564.5,-93.5 "/>
<text text-anchor="middle" x="2465.5" y="-73.5" font-family="Helvetica,sans-Serif" font-size="20.00"> </text>
<polyline fill="none" stroke="black" points="2366.5,-63.5 2564.5,-63.5 "/>
<text text-anchor="start" x="2374.5" y="-43.5" font-family="Helvetica,sans-Serif" font-size="20.00">+ ReptilExotico()</text>
<text text-anchor="start" x="2374.5" y="-21.5" font-family="Helvetica,sans-Serif" font-size="20.00">+ ~ReptilExotico()</text>
</a>
</g>
</g>
<!-- Node14&#45;&gt;Node16 -->
<g id="edge15" class="edge">
<title>Node14&#45;&gt;Node16</title>
<path fill="none" stroke="midnightblue" d="M2401.15,-173.54C2411.54,-156.58 2422.18,-139.22 2431.74,-123.62"/>
<polygon fill="none" stroke="midnightblue" points="2397.99,-172.01 2395.75,-182.36 2403.96,-175.66 2397.99,-172.01"/>
</g>
<!-- Node17 -->
<g id="node17" class="node">
<title>Node17</title>
<g id="a_node17"><a xlink:href="classReptilNativo.html" target="_top" xlink:title="Implementação de animal com Classe e Categoria.">
<polygon fill="white" stroke="black" points="2582.5,-11.5 2582.5,-123.5 2772.5,-123.5 2772.5,-11.5 2582.5,-11.5"/>
<text text-anchor="middle" x="2677.5" y="-103.5" font-family="Helvetica,sans-Serif" font-size="20.00">ReptilNativo</text>
<polyline fill="none" stroke="black" points="2582.5,-93.5 2772.5,-93.5 "/>
<text text-anchor="middle" x="2677.5" y="-73.5" font-family="Helvetica,sans-Serif" font-size="20.00"> </text>
<polyline fill="none" stroke="black" points="2582.5,-63.5 2772.5,-63.5 "/>
<text text-anchor="start" x="2590.5" y="-43.5" font-family="Helvetica,sans-Serif" font-size="20.00">+ ReptilNativo()</text>
<text text-anchor="start" x="2590.5" y="-21.5" font-family="Helvetica,sans-Serif" font-size="20.00">+ ~ReptilNativo()</text>
</a>
</g>
</g>
<!-- Node14&#45;&gt;Node17 -->
<g id="edge16" class="edge">
<title>Node14&#45;&gt;Node17</title>
<path fill="none" stroke="midnightblue" d="M2421.13,-220.83C2465.53,-196.81 2523.26,-164.92 2573.5,-135 2579.67,-131.33 2586,-127.48 2592.36,-123.56"/>
<polygon fill="none" stroke="midnightblue" points="2419.29,-217.85 2412.15,-225.68 2422.61,-224.01 2419.29,-217.85"/>
</g>
</g>
</svg>
