<?xml version="1.0" encoding="UTF-8" standalone="no"?>
<!DOCTYPE svg PUBLIC "-//W3C//DTD SVG 1.1//EN"
 "http://www.w3.org/Graphics/SVG/1.1/DTD/svg11.dtd">
<!-- Generated by graphviz version 2.40.1 (20161225.0304)
 -->
<!-- Title: Exotico Pages: 1 -->
<svg width="697pt" height="1334pt"
 viewBox="0.00 0.00 697.00 1334.00" xmlns="http://www.w3.org/2000/svg" xmlns:xlink="http://www.w3.org/1999/xlink">
<g id="graph0" class="graph" transform="scale(1 1) rotate(0) translate(4 1330)">
<title>Exotico</title>
<polygon fill="#ffffff" stroke="transparent" points="-4,4 -4,-1330 693,-1330 693,4 -4,4"/>
<!-- Node6 -->
<g id="node1" class="node">
<title>Node6</title>
<polygon fill="#bfbfbf" stroke="#000000" points="29,-.5 29,-156.5 143,-156.5 143,-.5 29,-.5"/>
<text text-anchor="middle" x="86" y="-136.5" font-family="Helvetica,sans-Serif" font-size="20.00" fill="#000000">Exotico</text>
<polyline fill="none" stroke="#000000" points="29,-126.5 143,-126.5 "/>
<text text-anchor="middle" x="86" y="-106.5" font-family="Helvetica,sans-Serif" font-size="20.00" fill="#000000"> </text>
<polyline fill="none" stroke="#000000" points="29,-96.5 143,-96.5 "/>
<text text-anchor="start" x="37" y="-76.5" font-family="Helvetica,sans-Serif" font-size="20.00" fill="#000000">+ Exotico()</text>
<text text-anchor="start" x="37" y="-54.5" font-family="Helvetica,sans-Serif" font-size="20.00" fill="#000000">+ Exotico()</text>
<text text-anchor="start" x="37" y="-32.5" font-family="Helvetica,sans-Serif" font-size="20.00" fill="#000000">+ ~Exotico()</text>
<text text-anchor="start" x="37" y="-10.5" font-family="Helvetica,sans-Serif" font-size="20.00" fill="#000000">+ getLocal()</text>
</g>
<!-- Node7 -->
<g id="node2" class="node">
<title>Node7</title>
<g id="a_node2"><a xlink:href="classAnimal.html" target="_top" xlink:title="Implementação base para o cadastro de animais. ">
<polygon fill="#ffffff" stroke="#000000" points="229.5,-194.5 229.5,-548.5 414.5,-548.5 414.5,-194.5 229.5,-194.5"/>
<text text-anchor="middle" x="322" y="-528.5" font-family="Helvetica,sans-Serif" font-size="20.00" fill="#000000">Animal</text>
<polyline fill="none" stroke="#000000" points="229.5,-518.5 414.5,-518.5 "/>
<text text-anchor="middle" x="322" y="-498.5" font-family="Helvetica,sans-Serif" font-size="20.00" fill="#000000"> </text>
<polyline fill="none" stroke="#000000" points="229.5,-488.5 414.5,-488.5 "/>
<text text-anchor="start" x="237.5" y="-468.5" font-family="Helvetica,sans-Serif" font-size="20.00" fill="#000000">+ Animal()</text>
<text text-anchor="start" x="237.5" y="-446.5" font-family="Helvetica,sans-Serif" font-size="20.00" fill="#000000">+ Animal()</text>
<text text-anchor="start" x="237.5" y="-424.5" font-family="Helvetica,sans-Serif" font-size="20.00" fill="#000000">+ ~Animal()</text>
<text text-anchor="start" x="237.5" y="-402.5" font-family="Helvetica,sans-Serif" font-size="20.00" fill="#000000">+ getNome()</text>
<text text-anchor="start" x="237.5" y="-380.5" font-family="Helvetica,sans-Serif" font-size="20.00" fill="#000000">+ getEspecie()</text>
<text text-anchor="start" x="237.5" y="-358.5" font-family="Helvetica,sans-Serif" font-size="20.00" fill="#000000">+ getAmeacadoPor()</text>
<text text-anchor="start" x="237.5" y="-336.5" font-family="Helvetica,sans-Serif" font-size="20.00" fill="#000000">+ getVeterinario()</text>
<text text-anchor="start" x="237.5" y="-314.5" font-family="Helvetica,sans-Serif" font-size="20.00" fill="#000000">+ getTratador()</text>
<text text-anchor="start" x="237.5" y="-292.5" font-family="Helvetica,sans-Serif" font-size="20.00" fill="#000000">+ getPerigoso()</text>
<text text-anchor="start" x="237.5" y="-270.5" font-family="Helvetica,sans-Serif" font-size="20.00" fill="#000000">+ getClassificacao()</text>
<text text-anchor="start" x="237.5" y="-248.5" font-family="Helvetica,sans-Serif" font-size="20.00" fill="#000000">+ getClasse()</text>
<text text-anchor="start" x="237.5" y="-226.5" font-family="Helvetica,sans-Serif" font-size="20.00" fill="#000000">+ printOutDados()</text>
<text text-anchor="start" x="237.5" y="-204.5" font-family="Helvetica,sans-Serif" font-size="20.00" fill="#000000">+ operator==()</text>
</a>
</g>
</g>
<!-- Node7&#45;&gt;Node6 -->
<g id="edge1" class="edge">
<title>Node7&#45;&gt;Node6</title>
<path fill="none" stroke="#191970" d="M222.902,-248.4673C195.7451,-214.7513 167.2168,-179.3327 143.2737,-149.6068"/>
<polygon fill="none" stroke="#191970" points="220.4052,-250.9472 229.4039,-256.5396 225.8568,-246.5562 220.4052,-250.9472"/>
</g>
<!-- Node8 -->
<g id="node3" class="node">
<title>Node8</title>
<g id="a_node3"><a xlink:href="classTratador.html" target="_top" xlink:title="Implementação dos tratadores. ">
<polygon fill="#ffffff" stroke="#000000" points="253,-607.5 253,-785.5 417,-785.5 417,-607.5 253,-607.5"/>
<text text-anchor="middle" x="335" y="-765.5" font-family="Helvetica,sans-Serif" font-size="20.00" fill="#000000">Tratador</text>
<polyline fill="none" stroke="#000000" points="253,-755.5 417,-755.5 "/>
<text text-anchor="middle" x="335" y="-735.5" font-family="Helvetica,sans-Serif" font-size="20.00" fill="#000000"> </text>
<polyline fill="none" stroke="#000000" points="253,-725.5 417,-725.5 "/>
<text text-anchor="start" x="261" y="-705.5" font-family="Helvetica,sans-Serif" font-size="20.00" fill="#000000">+ Tratador()</text>
<text text-anchor="start" x="261" y="-683.5" font-family="Helvetica,sans-Serif" font-size="20.00" fill="#000000">+ Tratador()</text>
<text text-anchor="start" x="261" y="-661.5" font-family="Helvetica,sans-Serif" font-size="20.00" fill="#000000">+ ~Tratador()</text>
<text text-anchor="start" x="261" y="-639.5" font-family="Helvetica,sans-Serif" font-size="20.00" fill="#000000">+ getUniforme()</text>
<text text-anchor="start" x="261" y="-617.5" font-family="Helvetica,sans-Serif" font-size="20.00" fill="#000000">+ printOutDados()</text>
</a>
</g>
</g>
<!-- Node8&#45;&gt;Node7 -->
<g id="edge2" class="edge">
<title>Node8&#45;&gt;Node7</title>
<path fill="none" stroke="#404040" d="M324.3141,-607.3987C323.7959,-601.1784 323.3476,-594.9993 323,-589 322.4663,-579.7891 322.0253,-570.3552 321.6642,-560.8246"/>
<polygon fill="none" stroke="#404040" points="321.6602,-560.7034 317.4568,-554.8441 321.2487,-548.7105 325.4521,-554.5698 321.6602,-560.7034"/>
<text text-anchor="middle" x="363.5" y="-573" font-family="Helvetica,sans-Serif" font-size="20.00" fill="#000000"> #tratador</text>
</g>
<!-- Node9 -->
<g id="node4" class="node">
<title>Node9</title>
<g id="a_node4"><a xlink:href="classPessoa.html" target="_top" xlink:title="Classe base dos funcionarios. ">
<polygon fill="#ffffff" stroke="#000000" points="155,-888.5 155,-1132.5 319,-1132.5 319,-888.5 155,-888.5"/>
<text text-anchor="middle" x="237" y="-1112.5" font-family="Helvetica,sans-Serif" font-size="20.00" fill="#000000">Pessoa</text>
<polyline fill="none" stroke="#000000" points="155,-1102.5 319,-1102.5 "/>
<text text-anchor="middle" x="237" y="-1082.5" font-family="Helvetica,sans-Serif" font-size="20.00" fill="#000000"> </text>
<polyline fill="none" stroke="#000000" points="155,-1072.5 319,-1072.5 "/>
<text text-anchor="start" x="163" y="-1052.5" font-family="Helvetica,sans-Serif" font-size="20.00" fill="#000000">+ Pessoa()</text>
<text text-anchor="start" x="163" y="-1030.5" font-family="Helvetica,sans-Serif" font-size="20.00" fill="#000000">+ Pessoa()</text>
<text text-anchor="start" x="163" y="-1008.5" font-family="Helvetica,sans-Serif" font-size="20.00" fill="#000000">+ ~Pessoa()</text>
<text text-anchor="start" x="163" y="-986.5" font-family="Helvetica,sans-Serif" font-size="20.00" fill="#000000">+ getNome()</text>
<text text-anchor="start" x="163" y="-964.5" font-family="Helvetica,sans-Serif" font-size="20.00" fill="#000000">+ getTelefone()</text>
<text text-anchor="start" x="163" y="-942.5" font-family="Helvetica,sans-Serif" font-size="20.00" fill="#000000">+ getEmail()</text>
<text text-anchor="start" x="163" y="-920.5" font-family="Helvetica,sans-Serif" font-size="20.00" fill="#000000">+ printOutDados()</text>
<text text-anchor="start" x="163" y="-898.5" font-family="Helvetica,sans-Serif" font-size="20.00" fill="#000000">+ operator==()</text>
</a>
</g>
</g>
<!-- Node9&#45;&gt;Node8 -->
<g id="edge3" class="edge">
<title>Node9&#45;&gt;Node8</title>
<path fill="none" stroke="#191970" d="M278.18,-878.556C287.9284,-847.3213 298.1007,-814.7284 307.0995,-785.8956"/>
<polygon fill="none" stroke="#191970" points="274.8083,-877.6116 275.17,-888.2003 281.4904,-879.6972 274.8083,-877.6116"/>
</g>
<!-- Node13 -->
<g id="node8" class="node">
<title>Node13</title>
<g id="a_node8"><a xlink:href="classVeterinario.html" target="_top" xlink:title="Implementação dos veterinarios. ">
<polygon fill="#ffffff" stroke="#000000" points="71,-607.5 71,-785.5 235,-785.5 235,-607.5 71,-607.5"/>
<text text-anchor="middle" x="153" y="-765.5" font-family="Helvetica,sans-Serif" font-size="20.00" fill="#000000">Veterinario</text>
<polyline fill="none" stroke="#000000" points="71,-755.5 235,-755.5 "/>
<text text-anchor="middle" x="153" y="-735.5" font-family="Helvetica,sans-Serif" font-size="20.00" fill="#000000"> </text>
<polyline fill="none" stroke="#000000" points="71,-725.5 235,-725.5 "/>
<text text-anchor="start" x="79" y="-705.5" font-family="Helvetica,sans-Serif" font-size="20.00" fill="#000000">+ Veterinario()</text>
<text text-anchor="start" x="79" y="-683.5" font-family="Helvetica,sans-Serif" font-size="20.00" fill="#000000">+ Veterinario()</text>
<text text-anchor="start" x="79" y="-661.5" font-family="Helvetica,sans-Serif" font-size="20.00" fill="#000000">+ ~Veterinario()</text>
<text text-anchor="start" x="79" y="-639.5" font-family="Helvetica,sans-Serif" font-size="20.00" fill="#000000">+ getCRMV()</text>
<text text-anchor="start" x="79" y="-617.5" font-family="Helvetica,sans-Serif" font-size="20.00" fill="#000000">+ printOutDados()</text>
</a>
</g>
</g>
<!-- Node9&#45;&gt;Node13 -->
<g id="edge9" class="edge">
<title>Node9&#45;&gt;Node13</title>
<path fill="none" stroke="#191970" d="M201.5948,-878.152C193.2719,-847.0404 184.5947,-814.6041 176.9147,-785.8956"/>
<polygon fill="none" stroke="#191970" points="198.3174,-879.4445 204.2829,-888.2003 205.0796,-877.6355 198.3174,-879.4445"/>
</g>
<!-- Node10 -->
<g id="node5" class="node">
<title>Node10</title>
<polygon fill="#ffffff" stroke="#bfbfbf" points="122,-1235.5 122,-1325.5 186,-1325.5 186,-1235.5 122,-1235.5"/>
<text text-anchor="middle" x="154" y="-1305.5" font-family="Helvetica,sans-Serif" font-size="20.00" fill="#000000">string</text>
<polyline fill="none" stroke="#bfbfbf" points="122,-1295.5 186,-1295.5 "/>
<text text-anchor="middle" x="154" y="-1275.5" font-family="Helvetica,sans-Serif" font-size="20.00" fill="#000000"> </text>
<polyline fill="none" stroke="#bfbfbf" points="122,-1265.5 186,-1265.5 "/>
<text text-anchor="middle" x="154" y="-1245.5" font-family="Helvetica,sans-Serif" font-size="20.00" fill="#000000"> </text>
</g>
<!-- Node10&#45;&gt;Node6 -->
<g id="edge11" class="edge">
<title>Node10&#45;&gt;Node6</title>
<path fill="none" stroke="#404040" d="M121.844,-1257.6141C108.134,-1246.5817 92.8358,-1232.4042 82,-1217 25.1855,-1136.232 0,-1109.249 0,-1010.5 0,-1010.5 0,-1010.5 0,-371.5 0,-301.1962 23.0779,-225.1045 45.3239,-168.0873"/>
<polygon fill="none" stroke="#404040" points="45.4651,-167.7323 43.967,-160.6785 49.9021,-156.5827 51.4001,-163.6365 45.4651,-167.7323"/>
<text text-anchor="middle" x="26.5" y="-691.5" font-family="Helvetica,sans-Serif" font-size="20.00" fill="#000000"> #local</text>
</g>
<!-- Node10&#45;&gt;Node7 -->
<g id="edge7" class="edge">
<title>Node10&#45;&gt;Node7</title>
<path fill="none" stroke="#404040" d="M186.143,-1273.7429C246.2142,-1259.3142 375.1032,-1219.5013 438,-1133 587.0327,-928.0368 600.7401,-802.4431 507,-567 489.4668,-522.9626 456.783,-483.1298 423.7077,-451.0834"/>
<polygon fill="none" stroke="#404040" points="423.5519,-450.9358 416.4454,-449.7119 414.8418,-442.6814 421.9483,-443.9052 423.5519,-450.9358"/>
<text text-anchor="middle" x="627.5" y="-854" font-family="Helvetica,sans-Serif" font-size="20.00" fill="#000000"> #especie</text>
<text text-anchor="middle" x="627.5" y="-832" font-family="Helvetica,sans-Serif" font-size="20.00" fill="#000000">#ameacadoPor</text>
<text text-anchor="middle" x="627.5" y="-810" font-family="Helvetica,sans-Serif" font-size="20.00" fill="#000000">#nome</text>
</g>
<!-- Node10&#45;&gt;Node9 -->
<g id="edge4" class="edge">
<title>Node10&#45;&gt;Node9</title>
<path fill="none" stroke="#404040" d="M167.8923,-1235.3081C175.6532,-1210.0618 185.7716,-1177.1466 195.8615,-1144.3241"/>
<polygon fill="none" stroke="#404040" points="195.8992,-1144.2012 193.8388,-1137.2907 199.4253,-1132.731 201.4857,-1139.6415 195.8992,-1144.2012"/>
<text text-anchor="middle" x="232.5" y="-1201" font-family="Helvetica,sans-Serif" font-size="20.00" fill="#000000"> #email</text>
<text text-anchor="middle" x="232.5" y="-1179" font-family="Helvetica,sans-Serif" font-size="20.00" fill="#000000">#nome</text>
<text text-anchor="middle" x="232.5" y="-1157" font-family="Helvetica,sans-Serif" font-size="20.00" fill="#000000">#telefone</text>
</g>
<!-- Node10&#45;&gt;Node13 -->
<g id="edge10" class="edge">
<title>Node10&#45;&gt;Node13</title>
<path fill="none" stroke="#404040" d="M124.4858,-1235.4643C107.8223,-1207.289 88.6476,-1169.5212 80,-1133 54.9107,-1027.041 60.2809,-995.0885 80,-888 85.6029,-857.5721 95.8222,-825.7202 106.8753,-796.9225"/>
<polygon fill="none" stroke="#404040" points="106.925,-796.7956 105.3955,-789.7486 111.3122,-785.6263 112.8417,-792.6733 106.925,-796.7956"/>
<text text-anchor="middle" x="113" y="-1005.5" font-family="Helvetica,sans-Serif" font-size="20.00" fill="#000000"> &#45;CRMV</text>
</g>
<!-- Node11 -->
<g id="node6" class="node">
<title>Node11</title>
<polygon fill="#ffffff" stroke="#bfbfbf" points="337,-965.5 337,-1055.5 429,-1055.5 429,-965.5 337,-965.5"/>
<text text-anchor="middle" x="383" y="-1035.5" font-family="Helvetica,sans-Serif" font-size="20.00" fill="#000000">Uniforme</text>
<polyline fill="none" stroke="#bfbfbf" points="337,-1025.5 429,-1025.5 "/>
<text text-anchor="middle" x="383" y="-1005.5" font-family="Helvetica,sans-Serif" font-size="20.00" fill="#000000"> </text>
<polyline fill="none" stroke="#bfbfbf" points="337,-995.5 429,-995.5 "/>
<text text-anchor="middle" x="383" y="-975.5" font-family="Helvetica,sans-Serif" font-size="20.00" fill="#000000"> </text>
</g>
<!-- Node11&#45;&gt;Node8 -->
<g id="edge5" class="edge">
<title>Node11&#45;&gt;Node8</title>
<path fill="none" stroke="#404040" d="M376.0717,-965.177C369.394,-921.4943 359.0607,-853.8968 350.4296,-797.4356"/>
<polygon fill="none" stroke="#404040" points="350.4291,-797.4312 345.5683,-792.1046 348.6156,-785.569 353.4764,-790.8957 350.4291,-797.4312"/>
<text text-anchor="middle" x="402" y="-832" font-family="Helvetica,sans-Serif" font-size="20.00" fill="#000000"> &#45;uniforme</text>
</g>
<!-- Node12 -->
<g id="node7" class="node">
<title>Node12</title>
<polygon fill="#ffffff" stroke="#bfbfbf" points="435.5,-651.5 435.5,-741.5 486.5,-741.5 486.5,-651.5 435.5,-651.5"/>
<text text-anchor="middle" x="461" y="-721.5" font-family="Helvetica,sans-Serif" font-size="20.00" fill="#000000">bool</text>
<polyline fill="none" stroke="#bfbfbf" points="435.5,-711.5 486.5,-711.5 "/>
<text text-anchor="middle" x="461" y="-691.5" font-family="Helvetica,sans-Serif" font-size="20.00" fill="#000000"> </text>
<polyline fill="none" stroke="#bfbfbf" points="435.5,-681.5 486.5,-681.5 "/>
<text text-anchor="middle" x="461" y="-661.5" font-family="Helvetica,sans-Serif" font-size="20.00" fill="#000000"> </text>
</g>
<!-- Node12&#45;&gt;Node7 -->
<g id="edge6" class="edge">
<title>Node12&#45;&gt;Node7</title>
<path fill="none" stroke="#404040" d="M443.7511,-651.276C438.21,-637.0542 431.961,-621.3255 426,-607 419.5824,-591.5773 412.822,-575.6382 405.9556,-559.6623"/>
<polygon fill="none" stroke="#404040" points="405.9382,-559.6219 399.8898,-555.6954 401.1879,-548.6021 407.2363,-552.5285 405.9382,-559.6219"/>
<text text-anchor="middle" x="460" y="-573" font-family="Helvetica,sans-Serif" font-size="20.00" fill="#000000"> #perigoso</text>
</g>
<!-- Node13&#45;&gt;Node7 -->
<g id="edge8" class="edge">
<title>Node13&#45;&gt;Node7</title>
<path fill="none" stroke="#404040" d="M194.8904,-607.3673C201.4996,-593.785 208.3486,-579.9767 215,-567 217.85,-561.4397 220.7662,-555.803 223.7289,-550.1216"/>
<polygon fill="none" stroke="#404040" points="223.9088,-549.7783 223.1507,-542.6071 229.4786,-539.1492 230.2367,-546.3204 223.9088,-549.7783"/>
<text text-anchor="middle" x="266.5" y="-573" font-family="Helvetica,sans-Serif" font-size="20.00" fill="#000000"> #veterinario</text>
</g>
</g>
</svg>
