<?xml version="1.0" encoding="UTF-8" standalone="no"?>
<!DOCTYPE svg PUBLIC "-//W3C//DTD SVG 1.1//EN"
 "http://www.w3.org/Graphics/SVG/1.1/DTD/svg11.dtd">
<!-- Generated by graphviz version 2.43.0 (0)
 -->
<!-- Title: Nativo Pages: 1 -->
<svg width="854pt" height="358pt"
 viewBox="0.00 0.00 853.50 358.00" xmlns="http://www.w3.org/2000/svg" xmlns:xlink="http://www.w3.org/1999/xlink">
<g id="graph0" class="graph" transform="scale(1 1) rotate(0) translate(4 354)">
<title>Nativo</title>
<polygon fill="white" stroke="transparent" points="-4,4 -4,-354 849.5,-354 849.5,4 -4,4"/>
<!-- Node1 -->
<g id="node1" class="node">
<title>Node1</title>
<g id="a_node1"><a xlink:title="Umas das definições de categoria para Animal.">
<polygon fill="#bfbfbf" stroke="black" points="333.5,-149.5 333.5,-349.5 495.5,-349.5 495.5,-149.5 333.5,-149.5"/>
<text text-anchor="middle" x="414.5" y="-329.5" font-family="Helvetica,sans-Serif" font-size="20.00">Nativo</text>
<polyline fill="none" stroke="black" points="333.5,-319.5 495.5,-319.5 "/>
<text text-anchor="start" x="341.5" y="-299.5" font-family="Helvetica,sans-Serif" font-size="20.00"># regiao</text>
<text text-anchor="start" x="341.5" y="-277.5" font-family="Helvetica,sans-Serif" font-size="20.00"># licenca</text>
<polyline fill="none" stroke="black" points="333.5,-267.5 495.5,-267.5 "/>
<text text-anchor="start" x="341.5" y="-247.5" font-family="Helvetica,sans-Serif" font-size="20.00">+ Nativo()</text>
<text text-anchor="start" x="341.5" y="-225.5" font-family="Helvetica,sans-Serif" font-size="20.00">+ Nativo()</text>
<text text-anchor="start" x="341.5" y="-203.5" font-family="Helvetica,sans-Serif" font-size="20.00">+ ~Nativo()</text>
<text text-anchor="start" x="341.5" y="-181.5" font-family="Helvetica,sans-Serif" font-size="20.00">+ getRegiao()</text>
<text text-anchor="start" x="341.5" y="-159.5" font-family="Helvetica,sans-Serif" font-size="20.00">+ getLicenca()</text>
</a>
</g>
</g>
<!-- Node2 -->
<g id="node2" class="node">
<title>Node2</title>
<g id="a_node2"><a xlink:href="classAnfibioNativo.html" target="_top" xlink:title="Implementação de animal com Classe e Categoria.">
<polygon fill="white" stroke="black" points="0,-0.5 0,-112.5 203,-112.5 203,-0.5 0,-0.5"/>
<text text-anchor="middle" x="101.5" y="-92.5" font-family="Helvetica,sans-Serif" font-size="20.00">AnfibioNativo</text>
<polyline fill="none" stroke="black" points="0,-82.5 203,-82.5 "/>
<text text-anchor="middle" x="101.5" y="-62.5" font-family="Helvetica,sans-Serif" font-size="20.00"> </text>
<polyline fill="none" stroke="black" points="0,-52.5 203,-52.5 "/>
<text text-anchor="start" x="8" y="-32.5" font-family="Helvetica,sans-Serif" font-size="20.00">+ AnfibioNativo()</text>
<text text-anchor="start" x="8" y="-10.5" font-family="Helvetica,sans-Serif" font-size="20.00">+ ~AnfibioNativo()</text>
</a>
</g>
</g>
<!-- Node1&#45;&gt;Node2 -->
<g id="edge1" class="edge">
<title>Node1&#45;&gt;Node2</title>
<path fill="none" stroke="midnightblue" d="M324.72,-193.71C283.03,-168.28 233.58,-138.1 191.83,-112.62"/>
<polygon fill="none" stroke="midnightblue" points="323.13,-196.84 333.49,-199.06 326.77,-190.87 323.13,-196.84"/>
</g>
<!-- Node3 -->
<g id="node3" class="node">
<title>Node3</title>
<g id="a_node3"><a xlink:href="classAveNativa.html" target="_top" xlink:title="Implementação de animal com Classe e Categoria.">
<polygon fill="white" stroke="black" points="221,-0.5 221,-112.5 392,-112.5 392,-0.5 221,-0.5"/>
<text text-anchor="middle" x="306.5" y="-92.5" font-family="Helvetica,sans-Serif" font-size="20.00">AveNativa</text>
<polyline fill="none" stroke="black" points="221,-82.5 392,-82.5 "/>
<text text-anchor="middle" x="306.5" y="-62.5" font-family="Helvetica,sans-Serif" font-size="20.00"> </text>
<polyline fill="none" stroke="black" points="221,-52.5 392,-52.5 "/>
<text text-anchor="start" x="229" y="-32.5" font-family="Helvetica,sans-Serif" font-size="20.00">+ AveNativa()</text>
<text text-anchor="start" x="229" y="-10.5" font-family="Helvetica,sans-Serif" font-size="20.00">+ ~AveNativa()</text>
</a>
</g>
</g>
<!-- Node1&#45;&gt;Node3 -->
<g id="edge2" class="edge">
<title>Node1&#45;&gt;Node3</title>
<path fill="none" stroke="midnightblue" d="M353.47,-140.57C348.08,-131.04 342.79,-121.68 337.81,-112.87"/>
<polygon fill="none" stroke="midnightblue" points="350.47,-142.38 358.44,-149.36 356.57,-138.94 350.47,-142.38"/>
</g>
<!-- Node4 -->
<g id="node4" class="node">
<title>Node4</title>
<g id="a_node4"><a xlink:href="classMamiferoNativo.html" target="_top" xlink:title="Implementação de animal com Classe e Categoria.">
<polygon fill="white" stroke="black" points="410,-0.5 410,-112.5 637,-112.5 637,-0.5 410,-0.5"/>
<text text-anchor="middle" x="523.5" y="-92.5" font-family="Helvetica,sans-Serif" font-size="20.00">MamiferoNativo</text>
<polyline fill="none" stroke="black" points="410,-82.5 637,-82.5 "/>
<text text-anchor="middle" x="523.5" y="-62.5" font-family="Helvetica,sans-Serif" font-size="20.00"> </text>
<polyline fill="none" stroke="black" points="410,-52.5 637,-52.5 "/>
<text text-anchor="start" x="418" y="-32.5" font-family="Helvetica,sans-Serif" font-size="20.00">+ MamiferoNativo()</text>
<text text-anchor="start" x="418" y="-10.5" font-family="Helvetica,sans-Serif" font-size="20.00">+ ~MamiferoNativo()</text>
</a>
</g>
</g>
<!-- Node1&#45;&gt;Node4 -->
<g id="edge3" class="edge">
<title>Node1&#45;&gt;Node4</title>
<path fill="none" stroke="midnightblue" d="M476.09,-140.57C481.53,-131.04 486.87,-121.68 491.9,-112.87"/>
<polygon fill="none" stroke="midnightblue" points="472.99,-138.94 471.08,-149.36 479.07,-142.41 472.99,-138.94"/>
</g>
<!-- Node5 -->
<g id="node5" class="node">
<title>Node5</title>
<g id="a_node5"><a xlink:href="classReptilNativo.html" target="_top" xlink:title="Implementação de animal com Classe e Categoria.">
<polygon fill="white" stroke="black" points="655.5,-0.5 655.5,-112.5 845.5,-112.5 845.5,-0.5 655.5,-0.5"/>
<text text-anchor="middle" x="750.5" y="-92.5" font-family="Helvetica,sans-Serif" font-size="20.00">ReptilNativo</text>
<polyline fill="none" stroke="black" points="655.5,-82.5 845.5,-82.5 "/>
<text text-anchor="middle" x="750.5" y="-62.5" font-family="Helvetica,sans-Serif" font-size="20.00"> </text>
<polyline fill="none" stroke="black" points="655.5,-52.5 845.5,-52.5 "/>
<text text-anchor="start" x="663.5" y="-32.5" font-family="Helvetica,sans-Serif" font-size="20.00">+ ReptilNativo()</text>
<text text-anchor="start" x="663.5" y="-10.5" font-family="Helvetica,sans-Serif" font-size="20.00">+ ~ReptilNativo()</text>
</a>
</g>
</g>
<!-- Node1&#45;&gt;Node5 -->
<g id="edge4" class="edge">
<title>Node1&#45;&gt;Node5</title>
<path fill="none" stroke="midnightblue" d="M504.71,-197.22C551.27,-170.76 608.06,-138.47 655.31,-111.61"/>
<polygon fill="none" stroke="midnightblue" points="502.8,-194.28 495.84,-202.26 506.26,-200.37 502.8,-194.28"/>
</g>
</g>
</svg>
