<?xml version="1.0" encoding="UTF-8" standalone="no"?>
<!DOCTYPE svg PUBLIC "-//W3C//DTD SVG 1.1//EN"
 "http://www.w3.org/Graphics/SVG/1.1/DTD/svg11.dtd">
<!-- Generated by graphviz version 2.40.1 (20161225.0304)
 -->
<!-- Title: AveExotica Pages: 1 -->
<svg width="274pt" height="771pt"
 viewBox="0.00 0.00 274.00 771.00" xmlns="http://www.w3.org/2000/svg" xmlns:xlink="http://www.w3.org/1999/xlink">
<g id="graph0" class="graph" transform="scale(1 1) rotate(0) translate(4 767)">
<title>AveExotica</title>
<polygon fill="#ffffff" stroke="transparent" points="-4,4 -4,-767 270,-767 270,4 -4,4"/>
<!-- Node0 -->
<g id="node1" class="node">
<title>Node0</title>
<polygon fill="#bfbfbf" stroke="#000000" points="41,-.5 41,-112.5 187,-112.5 187,-.5 41,-.5"/>
<text text-anchor="middle" x="114" y="-92.5" font-family="Helvetica,sans-Serif" font-size="20.00" fill="#000000">AveExotica</text>
<polyline fill="none" stroke="#000000" points="41,-82.5 187,-82.5 "/>
<text text-anchor="middle" x="114" y="-62.5" font-family="Helvetica,sans-Serif" font-size="20.00" fill="#000000"> </text>
<polyline fill="none" stroke="#000000" points="41,-52.5 187,-52.5 "/>
<text text-anchor="start" x="49" y="-32.5" font-family="Helvetica,sans-Serif" font-size="20.00" fill="#000000">+ AveExotica()</text>
<text text-anchor="start" x="49" y="-10.5" font-family="Helvetica,sans-Serif" font-size="20.00" fill="#000000">+ ~AveExotica()</text>
</g>
<!-- Node1 -->
<g id="node2" class="node">
<title>Node1</title>
<g id="a_node2"><a xlink:href="classAve.html" target="_top" xlink:title="Classificação base para Aves. ">
<polygon fill="#ffffff" stroke="#000000" points="0,-149.5 0,-305.5 102,-305.5 102,-149.5 0,-149.5"/>
<text text-anchor="middle" x="51" y="-285.5" font-family="Helvetica,sans-Serif" font-size="20.00" fill="#000000">Ave</text>
<polyline fill="none" stroke="#000000" points="0,-275.5 102,-275.5 "/>
<text text-anchor="start" x="8" y="-255.5" font-family="Helvetica,sans-Serif" font-size="20.00" fill="#000000"># voa</text>
<polyline fill="none" stroke="#000000" points="0,-245.5 102,-245.5 "/>
<text text-anchor="start" x="8" y="-225.5" font-family="Helvetica,sans-Serif" font-size="20.00" fill="#000000">+ Ave()</text>
<text text-anchor="start" x="8" y="-203.5" font-family="Helvetica,sans-Serif" font-size="20.00" fill="#000000">+ Ave()</text>
<text text-anchor="start" x="8" y="-181.5" font-family="Helvetica,sans-Serif" font-size="20.00" fill="#000000">+ ~Ave()</text>
<text text-anchor="start" x="8" y="-159.5" font-family="Helvetica,sans-Serif" font-size="20.00" fill="#000000">+ getVoa()</text>
</a>
</g>
</g>
<!-- Node1&#45;&gt;Node0 -->
<g id="edge1" class="edge">
<title>Node1&#45;&gt;Node0</title>
<path fill="none" stroke="#191970" d="M83.429,-139.4785C86.7988,-130.3318 90.1544,-121.2236 93.3415,-112.5732"/>
<polygon fill="none" stroke="#191970" points="80.0915,-138.4133 79.9186,-149.0067 86.6599,-140.8332 80.0915,-138.4133"/>
</g>
<!-- Node2 -->
<g id="node3" class="node">
<title>Node2</title>
<g id="a_node3"><a xlink:href="classExotico.html" target="_top" xlink:title="Umas das definições de categoria para Animal. ">
<polygon fill="#ffffff" stroke="#000000" points="120,-149.5 120,-305.5 234,-305.5 234,-149.5 120,-149.5"/>
<text text-anchor="middle" x="177" y="-285.5" font-family="Helvetica,sans-Serif" font-size="20.00" fill="#000000">Exotico</text>
<polyline fill="none" stroke="#000000" points="120,-275.5 234,-275.5 "/>
<text text-anchor="start" x="128" y="-255.5" font-family="Helvetica,sans-Serif" font-size="20.00" fill="#000000"># local</text>
<polyline fill="none" stroke="#000000" points="120,-245.5 234,-245.5 "/>
<text text-anchor="start" x="128" y="-225.5" font-family="Helvetica,sans-Serif" font-size="20.00" fill="#000000">+ Exotico()</text>
<text text-anchor="start" x="128" y="-203.5" font-family="Helvetica,sans-Serif" font-size="20.00" fill="#000000">+ Exotico()</text>
<text text-anchor="start" x="128" y="-181.5" font-family="Helvetica,sans-Serif" font-size="20.00" fill="#000000">+ ~Exotico()</text>
<text text-anchor="start" x="128" y="-159.5" font-family="Helvetica,sans-Serif" font-size="20.00" fill="#000000">+ getLocal()</text>
</a>
</g>
</g>
<!-- Node2&#45;&gt;Node0 -->
<g id="edge2" class="edge">
<title>Node2&#45;&gt;Node0</title>
<path fill="none" stroke="#191970" d="M144.571,-139.4785C141.2012,-130.3318 137.8456,-121.2236 134.6585,-112.5732"/>
<polygon fill="none" stroke="#191970" points="141.3401,-140.8332 148.0814,-149.0067 147.9085,-138.4133 141.3401,-140.8332"/>
</g>
<!-- Node3 -->
<g id="node4" class="node">
<title>Node3</title>
<g id="a_node4"><a xlink:href="classAnimal.html" target="_top" xlink:title="Implementação base para o cadastro de animais. ">
<polygon fill="#ffffff" stroke="#000000" points="88,-342.5 88,-762.5 266,-762.5 266,-342.5 88,-342.5"/>
<text text-anchor="middle" x="177" y="-742.5" font-family="Helvetica,sans-Serif" font-size="20.00" fill="#000000">Animal</text>
<polyline fill="none" stroke="#000000" points="88,-732.5 266,-732.5 "/>
<text text-anchor="start" x="96" y="-712.5" font-family="Helvetica,sans-Serif" font-size="20.00" fill="#000000"># nome</text>
<text text-anchor="start" x="96" y="-690.5" font-family="Helvetica,sans-Serif" font-size="20.00" fill="#000000"># especie</text>
<text text-anchor="start" x="96" y="-668.5" font-family="Helvetica,sans-Serif" font-size="20.00" fill="#000000"># veterinario</text>
<text text-anchor="start" x="96" y="-646.5" font-family="Helvetica,sans-Serif" font-size="20.00" fill="#000000"># tratador</text>
<text text-anchor="start" x="96" y="-624.5" font-family="Helvetica,sans-Serif" font-size="20.00" fill="#000000"># perigoso</text>
<polyline fill="none" stroke="#000000" points="88,-614.5 266,-614.5 "/>
<text text-anchor="start" x="96" y="-594.5" font-family="Helvetica,sans-Serif" font-size="20.00" fill="#000000">+ Animal()</text>
<text text-anchor="start" x="96" y="-572.5" font-family="Helvetica,sans-Serif" font-size="20.00" fill="#000000">+ Animal()</text>
<text text-anchor="start" x="96" y="-550.5" font-family="Helvetica,sans-Serif" font-size="20.00" fill="#000000">+ ~Animal()</text>
<text text-anchor="start" x="96" y="-528.5" font-family="Helvetica,sans-Serif" font-size="20.00" fill="#000000">+ getNome()</text>
<text text-anchor="start" x="96" y="-506.5" font-family="Helvetica,sans-Serif" font-size="20.00" fill="#000000">+ getEspecie()</text>
<text text-anchor="start" x="96" y="-484.5" font-family="Helvetica,sans-Serif" font-size="20.00" fill="#000000">+ getVeterinario()</text>
<text text-anchor="start" x="96" y="-462.5" font-family="Helvetica,sans-Serif" font-size="20.00" fill="#000000">+ getTratador()</text>
<text text-anchor="start" x="96" y="-440.5" font-family="Helvetica,sans-Serif" font-size="20.00" fill="#000000">+ getPerigoso()</text>
<text text-anchor="start" x="96" y="-418.5" font-family="Helvetica,sans-Serif" font-size="20.00" fill="#000000">+ getClassificacao()</text>
<text text-anchor="start" x="96" y="-396.5" font-family="Helvetica,sans-Serif" font-size="20.00" fill="#000000">+ getClasse()</text>
<text text-anchor="start" x="96" y="-374.5" font-family="Helvetica,sans-Serif" font-size="20.00" fill="#000000">+ printOutDados()</text>
<text text-anchor="start" x="96" y="-352.5" font-family="Helvetica,sans-Serif" font-size="20.00" fill="#000000">+ operator==()</text>
</a>
</g>
</g>
<!-- Node3&#45;&gt;Node2 -->
<g id="edge3" class="edge">
<title>Node3&#45;&gt;Node2</title>
<path fill="none" stroke="#191970" d="M177,-332.0665C177,-322.9314 177,-314.0773 177,-305.6428"/>
<polygon fill="none" stroke="#191970" points="173.5001,-332.0828 177,-342.0828 180.5001,-332.0829 173.5001,-332.0828"/>
</g>
</g>
</svg>
