<?xml version="1.0" encoding="UTF-8" standalone="no"?>
<!DOCTYPE svg PUBLIC "-//W3C//DTD SVG 1.1//EN"
 "http://www.w3.org/Graphics/SVG/1.1/DTD/svg11.dtd">
<!-- Generated by graphviz version 2.43.0 (0)
 -->
<!-- Title: MamiferoNativo Pages: 1 -->
<svg width="807pt" height="1575pt"
 viewBox="0.00 0.00 807.16 1575.00" xmlns="http://www.w3.org/2000/svg" xmlns:xlink="http://www.w3.org/1999/xlink">
<g id="graph0" class="graph" transform="scale(1 1) rotate(0) translate(4 1571)">
<title>MamiferoNativo</title>
<polygon fill="white" stroke="transparent" points="-4,4 -4,-1571 803.16,-1571 803.16,4 -4,4"/>
<!-- Node1 -->
<g id="node1" class="node">
<title>Node1</title>
<g id="a_node1"><a xlink:title="Implementação de animal com Classe e Categoria.">
<polygon fill="#bfbfbf" stroke="black" points="533.66,-0.5 533.66,-112.5 760.66,-112.5 760.66,-0.5 533.66,-0.5"/>
<text text-anchor="middle" x="647.16" y="-92.5" font-family="Helvetica,sans-Serif" font-size="20.00">MamiferoNativo</text>
<polyline fill="none" stroke="black" points="533.66,-82.5 760.66,-82.5 "/>
<text text-anchor="middle" x="647.16" y="-62.5" font-family="Helvetica,sans-Serif" font-size="20.00"> </text>
<polyline fill="none" stroke="black" points="533.66,-52.5 760.66,-52.5 "/>
<text text-anchor="start" x="541.66" y="-32.5" font-family="Helvetica,sans-Serif" font-size="20.00">+ MamiferoNativo()</text>
<text text-anchor="start" x="541.66" y="-10.5" font-family="Helvetica,sans-Serif" font-size="20.00">+ ~MamiferoNativo()</text>
</a>
</g>
</g>
<!-- Node2 -->
<g id="node2" class="node">
<title>Node2</title>
<g id="a_node2"><a xlink:href="classMamifero.html" target="_top" xlink:title="Classificação base para Mamiferos.">
<polygon fill="white" stroke="black" points="487.66,-150.5 487.66,-284.5 666.66,-284.5 666.66,-150.5 487.66,-150.5"/>
<text text-anchor="middle" x="577.16" y="-264.5" font-family="Helvetica,sans-Serif" font-size="20.00">Mamifero</text>
<polyline fill="none" stroke="black" points="487.66,-254.5 666.66,-254.5 "/>
<text text-anchor="middle" x="577.16" y="-234.5" font-family="Helvetica,sans-Serif" font-size="20.00"> </text>
<polyline fill="none" stroke="black" points="487.66,-224.5 666.66,-224.5 "/>
<text text-anchor="start" x="495.66" y="-204.5" font-family="Helvetica,sans-Serif" font-size="20.00">+ Mamifero()</text>
<text text-anchor="start" x="495.66" y="-182.5" font-family="Helvetica,sans-Serif" font-size="20.00">+ ~Mamifero()</text>
<text text-anchor="start" x="495.66" y="-160.5" font-family="Helvetica,sans-Serif" font-size="20.00">+ getGestacao()</text>
</a>
</g>
</g>
<!-- Node2&#45;&gt;Node1 -->
<g id="edge1" class="edge">
<title>Node2&#45;&gt;Node1</title>
<path fill="none" stroke="midnightblue" d="M610.38,-141.04C614.54,-131.59 618.74,-122.06 622.73,-112.99"/>
<polygon fill="none" stroke="midnightblue" points="607.06,-139.89 606.24,-150.45 613.47,-142.71 607.06,-139.89"/>
</g>
<!-- Node3 -->
<g id="node3" class="node">
<title>Node3</title>
<g id="a_node3"><a xlink:href="classAnimal.html" target="_top" xlink:title="Implementação base para o cadastro de animais.">
<polygon fill="white" stroke="black" points="215.66,-322.5 215.66,-676.5 438.66,-676.5 438.66,-322.5 215.66,-322.5"/>
<text text-anchor="middle" x="327.16" y="-656.5" font-family="Helvetica,sans-Serif" font-size="20.00">Animal</text>
<polyline fill="none" stroke="black" points="215.66,-646.5 438.66,-646.5 "/>
<text text-anchor="middle" x="327.16" y="-626.5" font-family="Helvetica,sans-Serif" font-size="20.00"> </text>
<polyline fill="none" stroke="black" points="215.66,-616.5 438.66,-616.5 "/>
<text text-anchor="start" x="223.66" y="-596.5" font-family="Helvetica,sans-Serif" font-size="20.00">+ Animal()</text>
<text text-anchor="start" x="223.66" y="-574.5" font-family="Helvetica,sans-Serif" font-size="20.00">+ Animal()</text>
<text text-anchor="start" x="223.66" y="-552.5" font-family="Helvetica,sans-Serif" font-size="20.00">+ ~Animal()</text>
<text text-anchor="start" x="223.66" y="-530.5" font-family="Helvetica,sans-Serif" font-size="20.00">+ getNome()</text>
<text text-anchor="start" x="223.66" y="-508.5" font-family="Helvetica,sans-Serif" font-size="20.00">+ getEspecie()</text>
<text text-anchor="start" x="223.66" y="-486.5" font-family="Helvetica,sans-Serif" font-size="20.00">+ getAmeacadoPor()</text>
<text text-anchor="start" x="223.66" y="-464.5" font-family="Helvetica,sans-Serif" font-size="20.00">+ getVeterinario()</text>
<text text-anchor="start" x="223.66" y="-442.5" font-family="Helvetica,sans-Serif" font-size="20.00">+ getTratador()</text>
<text text-anchor="start" x="223.66" y="-420.5" font-family="Helvetica,sans-Serif" font-size="20.00">+ getPerigoso()</text>
<text text-anchor="start" x="223.66" y="-398.5" font-family="Helvetica,sans-Serif" font-size="20.00">+ getClassificacao()</text>
<text text-anchor="start" x="223.66" y="-376.5" font-family="Helvetica,sans-Serif" font-size="20.00">+ getClasse()</text>
<text text-anchor="start" x="223.66" y="-354.5" font-family="Helvetica,sans-Serif" font-size="20.00">+ printOutDados()</text>
<text text-anchor="start" x="223.66" y="-332.5" font-family="Helvetica,sans-Serif" font-size="20.00">+ operator==()</text>
</a>
</g>
</g>
<!-- Node3&#45;&gt;Node2 -->
<g id="edge2" class="edge">
<title>Node3&#45;&gt;Node2</title>
<path fill="none" stroke="midnightblue" d="M445.73,-365.7C470.89,-337.52 496.39,-308.96 518.15,-284.58"/>
<polygon fill="none" stroke="midnightblue" points="443.05,-363.45 439,-373.24 448.27,-368.11 443.05,-363.45"/>
</g>
<!-- Node4 -->
<g id="node4" class="node">
<title>Node4</title>
<g id="a_node4"><a xlink:href="classTratador.html" target="_top" xlink:title="Implementação dos tratadores.">
<polygon fill="white" stroke="black" points="292.16,-735.5 292.16,-913.5 492.16,-913.5 492.16,-735.5 292.16,-735.5"/>
<text text-anchor="middle" x="392.16" y="-893.5" font-family="Helvetica,sans-Serif" font-size="20.00">Tratador</text>
<polyline fill="none" stroke="black" points="292.16,-883.5 492.16,-883.5 "/>
<text text-anchor="middle" x="392.16" y="-863.5" font-family="Helvetica,sans-Serif" font-size="20.00"> </text>
<polyline fill="none" stroke="black" points="292.16,-853.5 492.16,-853.5 "/>
<text text-anchor="start" x="300.16" y="-833.5" font-family="Helvetica,sans-Serif" font-size="20.00">+ Tratador()</text>
<text text-anchor="start" x="300.16" y="-811.5" font-family="Helvetica,sans-Serif" font-size="20.00">+ Tratador()</text>
<text text-anchor="start" x="300.16" y="-789.5" font-family="Helvetica,sans-Serif" font-size="20.00">+ ~Tratador()</text>
<text text-anchor="start" x="300.16" y="-767.5" font-family="Helvetica,sans-Serif" font-size="20.00">+ getUniforme()</text>
<text text-anchor="start" x="300.16" y="-745.5" font-family="Helvetica,sans-Serif" font-size="20.00">+ printOutDados()</text>
</a>
</g>
</g>
<!-- Node4&#45;&gt;Node3 -->
<g id="edge3" class="edge">
<title>Node4&#45;&gt;Node3</title>
<path fill="none" stroke="#404040" d="M334.54,-735.31C332.04,-729.26 329.87,-723.13 328.16,-717 325.61,-707.9 323.56,-698.5 321.92,-688.95"/>
<polygon fill="none" stroke="#404040" points="321.87,-688.64 317.01,-683.31 320.06,-676.78 324.92,-682.11 321.87,-688.64"/>
<text text-anchor="middle" x="379.66" y="-701" font-family="Helvetica,sans-Serif" font-size="20.00"> #tratador</text>
</g>
<!-- Node5 -->
<g id="node5" class="node">
<title>Node5</title>
<g id="a_node5"><a xlink:href="classPessoa.html" target="_top" xlink:title="Classe base dos funcionarios.">
<polygon fill="white" stroke="black" points="265.16,-1129.5 265.16,-1373.5 465.16,-1373.5 465.16,-1129.5 265.16,-1129.5"/>
<text text-anchor="middle" x="365.16" y="-1353.5" font-family="Helvetica,sans-Serif" font-size="20.00">Pessoa</text>
<polyline fill="none" stroke="black" points="265.16,-1343.5 465.16,-1343.5 "/>
<text text-anchor="middle" x="365.16" y="-1323.5" font-family="Helvetica,sans-Serif" font-size="20.00"> </text>
<polyline fill="none" stroke="black" points="265.16,-1313.5 465.16,-1313.5 "/>
<text text-anchor="start" x="273.16" y="-1293.5" font-family="Helvetica,sans-Serif" font-size="20.00">+ Pessoa()</text>
<text text-anchor="start" x="273.16" y="-1271.5" font-family="Helvetica,sans-Serif" font-size="20.00">+ Pessoa()</text>
<text text-anchor="start" x="273.16" y="-1249.5" font-family="Helvetica,sans-Serif" font-size="20.00">+ ~Pessoa()</text>
<text text-anchor="start" x="273.16" y="-1227.5" font-family="Helvetica,sans-Serif" font-size="20.00">+ getNome()</text>
<text text-anchor="start" x="273.16" y="-1205.5" font-family="Helvetica,sans-Serif" font-size="20.00">+ getTelefone()</text>
<text text-anchor="start" x="273.16" y="-1183.5" font-family="Helvetica,sans-Serif" font-size="20.00">+ getEmail()</text>
<text text-anchor="start" x="273.16" y="-1161.5" font-family="Helvetica,sans-Serif" font-size="20.00">+ printOutDados()</text>
<text text-anchor="start" x="273.16" y="-1139.5" font-family="Helvetica,sans-Serif" font-size="20.00">+ operator==()</text>
</a>
</g>
</g>
<!-- Node5&#45;&gt;Node4 -->
<g id="edge4" class="edge">
<title>Node5&#45;&gt;Node4</title>
<path fill="none" stroke="midnightblue" d="M373.51,-1119.11C377.74,-1052.39 382.78,-973.12 386.55,-913.78"/>
<polygon fill="none" stroke="midnightblue" points="370,-1119.08 372.86,-1129.28 376.99,-1119.52 370,-1119.08"/>
</g>
<!-- Node9 -->
<g id="node9" class="node">
<title>Node9</title>
<g id="a_node9"><a xlink:href="classVeterinario.html" target="_top" xlink:title="Implementação dos veterinarios.">
<polygon fill="white" stroke="black" points="74.16,-735.5 74.16,-913.5 274.16,-913.5 274.16,-735.5 74.16,-735.5"/>
<text text-anchor="middle" x="174.16" y="-893.5" font-family="Helvetica,sans-Serif" font-size="20.00">Veterinario</text>
<polyline fill="none" stroke="black" points="74.16,-883.5 274.16,-883.5 "/>
<text text-anchor="middle" x="174.16" y="-863.5" font-family="Helvetica,sans-Serif" font-size="20.00"> </text>
<polyline fill="none" stroke="black" points="74.16,-853.5 274.16,-853.5 "/>
<text text-anchor="start" x="82.16" y="-833.5" font-family="Helvetica,sans-Serif" font-size="20.00">+ Veterinario()</text>
<text text-anchor="start" x="82.16" y="-811.5" font-family="Helvetica,sans-Serif" font-size="20.00">+ Veterinario()</text>
<text text-anchor="start" x="82.16" y="-789.5" font-family="Helvetica,sans-Serif" font-size="20.00">+ ~Veterinario()</text>
<text text-anchor="start" x="82.16" y="-767.5" font-family="Helvetica,sans-Serif" font-size="20.00">+ getCRMV()</text>
<text text-anchor="start" x="82.16" y="-745.5" font-family="Helvetica,sans-Serif" font-size="20.00">+ printOutDados()</text>
</a>
</g>
</g>
<!-- Node5&#45;&gt;Node9 -->
<g id="edge10" class="edge">
<title>Node5&#45;&gt;Node9</title>
<path fill="none" stroke="midnightblue" d="M306.48,-1119.93C276.42,-1053.04 240.61,-973.37 213.83,-913.78"/>
<polygon fill="none" stroke="midnightblue" points="303.39,-1121.59 310.68,-1129.28 309.77,-1118.72 303.39,-1121.59"/>
</g>
<!-- Node6 -->
<g id="node6" class="node">
<title>Node6</title>
<g id="a_node6"><a xlink:title=" ">
<polygon fill="white" stroke="#bfbfbf" points="232.16,-1476.5 232.16,-1566.5 306.16,-1566.5 306.16,-1476.5 232.16,-1476.5"/>
<text text-anchor="middle" x="269.16" y="-1546.5" font-family="Helvetica,sans-Serif" font-size="20.00">string</text>
<polyline fill="none" stroke="#bfbfbf" points="232.16,-1536.5 306.16,-1536.5 "/>
<text text-anchor="middle" x="269.16" y="-1516.5" font-family="Helvetica,sans-Serif" font-size="20.00"> </text>
<polyline fill="none" stroke="#bfbfbf" points="232.16,-1506.5 306.16,-1506.5 "/>
<text text-anchor="middle" x="269.16" y="-1486.5" font-family="Helvetica,sans-Serif" font-size="20.00"> </text>
</a>
</g>
</g>
<!-- Node6&#45;&gt;Node3 -->
<g id="edge8" class="edge">
<title>Node6&#45;&gt;Node3</title>
<path fill="none" stroke="#404040" d="M231.82,-1497.83C216.33,-1487.14 199.02,-1473.35 186.16,-1458 27.84,-1269.04 -23.3,-1176.24 10.16,-932 22.49,-841.94 17.14,-812.19 65.16,-735 101.21,-677.05 155.73,-625 205.73,-584.74"/>
<polygon fill="none" stroke="#404040" points="205.94,-584.57 208.15,-577.7 215.33,-577.1 213.13,-583.97 205.94,-584.57"/>
<text text-anchor="middle" x="86.16" y="-1038.5" font-family="Helvetica,sans-Serif" font-size="20.00"> #especie</text>
<text text-anchor="middle" x="86.16" y="-1016.5" font-family="Helvetica,sans-Serif" font-size="20.00">#ameacadoPor</text>
<text text-anchor="middle" x="86.16" y="-994.5" font-family="Helvetica,sans-Serif" font-size="20.00">#nome</text>
</g>
<!-- Node6&#45;&gt;Node5 -->
<g id="edge5" class="edge">
<title>Node6&#45;&gt;Node5</title>
<path fill="none" stroke="#404040" d="M285.01,-1476.25C294.01,-1451.11 305.81,-1418.18 317.57,-1385.34"/>
<polygon fill="none" stroke="#404040" points="317.68,-1385.04 315.94,-1378.04 321.73,-1373.74 323.47,-1380.74 317.68,-1385.04"/>
<text text-anchor="middle" x="363.66" y="-1442" font-family="Helvetica,sans-Serif" font-size="20.00"> #email</text>
<text text-anchor="middle" x="363.66" y="-1420" font-family="Helvetica,sans-Serif" font-size="20.00">#nome</text>
<text text-anchor="middle" x="363.66" y="-1398" font-family="Helvetica,sans-Serif" font-size="20.00">#telefone</text>
</g>
<!-- Node6&#45;&gt;Node9 -->
<g id="edge11" class="edge">
<title>Node6&#45;&gt;Node9</title>
<path fill="none" stroke="#404040" d="M235.14,-1476.43C215.87,-1448.69 193.6,-1411.2 183.16,-1374 160.34,-1292.69 164.82,-1060.82 169.72,-926.01"/>
<polygon fill="none" stroke="#404040" points="169.73,-925.66 165.96,-919.52 170.18,-913.67 173.96,-919.82 169.73,-925.66"/>
<text text-anchor="middle" x="219.66" y="-1246.5" font-family="Helvetica,sans-Serif" font-size="20.00"> &#45;CRMV</text>
</g>
<!-- Node10 -->
<g id="node10" class="node">
<title>Node10</title>
<g id="a_node10"><a xlink:href="classNativo.html" target="_top" xlink:title="Umas das definições de categoria para Animal.">
<polygon fill="white" stroke="black" points="637.16,-932.5 637.16,-1110.5 799.16,-1110.5 799.16,-932.5 637.16,-932.5"/>
<text text-anchor="middle" x="718.16" y="-1090.5" font-family="Helvetica,sans-Serif" font-size="20.00">Nativo</text>
<polyline fill="none" stroke="black" points="637.16,-1080.5 799.16,-1080.5 "/>
<text text-anchor="middle" x="718.16" y="-1060.5" font-family="Helvetica,sans-Serif" font-size="20.00"> </text>
<polyline fill="none" stroke="black" points="637.16,-1050.5 799.16,-1050.5 "/>
<text text-anchor="start" x="645.16" y="-1030.5" font-family="Helvetica,sans-Serif" font-size="20.00">+ Nativo()</text>
<text text-anchor="start" x="645.16" y="-1008.5" font-family="Helvetica,sans-Serif" font-size="20.00">+ Nativo()</text>
<text text-anchor="start" x="645.16" y="-986.5" font-family="Helvetica,sans-Serif" font-size="20.00">+ ~Nativo()</text>
<text text-anchor="start" x="645.16" y="-964.5" font-family="Helvetica,sans-Serif" font-size="20.00">+ getRegiao()</text>
<text text-anchor="start" x="645.16" y="-942.5" font-family="Helvetica,sans-Serif" font-size="20.00">+ getLicenca()</text>
</a>
</g>
</g>
<!-- Node6&#45;&gt;Node10 -->
<g id="edge14" class="edge">
<title>Node6&#45;&gt;Node10</title>
<path fill="none" stroke="#404040" d="M306.41,-1514.22C374.38,-1500.81 518.9,-1463.06 599.16,-1374 662.1,-1304.15 691.95,-1199.71 705.99,-1122.81"/>
<polygon fill="none" stroke="#404040" points="706.04,-1122.53 703.13,-1115.93 708.11,-1110.71 711.01,-1117.31 706.04,-1122.53"/>
<text text-anchor="middle" x="626.66" y="-1431" font-family="Helvetica,sans-Serif" font-size="20.00"> #licenca</text>
<text text-anchor="middle" x="626.66" y="-1409" font-family="Helvetica,sans-Serif" font-size="20.00">#regiao</text>
</g>
<!-- Node7 -->
<g id="node7" class="node">
<title>Node7</title>
<g id="a_node7"><a xlink:title=" ">
<polygon fill="white" stroke="#bfbfbf" points="483.66,-1206.5 483.66,-1296.5 590.66,-1296.5 590.66,-1206.5 483.66,-1206.5"/>
<text text-anchor="middle" x="537.16" y="-1276.5" font-family="Helvetica,sans-Serif" font-size="20.00">Uniforme</text>
<polyline fill="none" stroke="#bfbfbf" points="483.66,-1266.5 590.66,-1266.5 "/>
<text text-anchor="middle" x="537.16" y="-1246.5" font-family="Helvetica,sans-Serif" font-size="20.00"> </text>
<polyline fill="none" stroke="#bfbfbf" points="483.66,-1236.5 590.66,-1236.5 "/>
<text text-anchor="middle" x="537.16" y="-1216.5" font-family="Helvetica,sans-Serif" font-size="20.00"> </text>
</a>
</g>
</g>
<!-- Node7&#45;&gt;Node4 -->
<g id="edge6" class="edge">
<title>Node7&#45;&gt;Node4</title>
<path fill="none" stroke="#404040" d="M522.05,-1206.22C499.5,-1140.13 456.45,-1013.94 426.1,-925"/>
<polygon fill="none" stroke="#404040" points="426.06,-924.88 420.34,-920.49 422.19,-913.52 427.91,-917.91 426.06,-924.88"/>
<text text-anchor="middle" x="537.66" y="-1016.5" font-family="Helvetica,sans-Serif" font-size="20.00"> &#45;uniforme</text>
</g>
<!-- Node8 -->
<g id="node8" class="node">
<title>Node8</title>
<g id="a_node8"><a xlink:title=" ">
<polygon fill="white" stroke="#bfbfbf" points="529.66,-779.5 529.66,-869.5 588.66,-869.5 588.66,-779.5 529.66,-779.5"/>
<text text-anchor="middle" x="559.16" y="-849.5" font-family="Helvetica,sans-Serif" font-size="20.00">bool</text>
<polyline fill="none" stroke="#bfbfbf" points="529.66,-839.5 588.66,-839.5 "/>
<text text-anchor="middle" x="559.16" y="-819.5" font-family="Helvetica,sans-Serif" font-size="20.00"> </text>
<polyline fill="none" stroke="#bfbfbf" points="529.66,-809.5 588.66,-809.5 "/>
<text text-anchor="middle" x="559.16" y="-789.5" font-family="Helvetica,sans-Serif" font-size="20.00"> </text>
</a>
</g>
</g>
<!-- Node8&#45;&gt;Node2 -->
<g id="edge12" class="edge">
<title>Node8&#45;&gt;Node2</title>
<path fill="none" stroke="#404040" d="M560.91,-779.46C561.64,-760.28 562.48,-737.53 563.16,-717 568.03,-568.46 572.67,-394.99 575.19,-296.8"/>
<polygon fill="none" stroke="#404040" points="575.19,-296.62 571.35,-290.52 575.5,-284.63 579.35,-290.73 575.19,-296.62"/>
<text text-anchor="middle" x="631.66" y="-494.5" font-family="Helvetica,sans-Serif" font-size="20.00"> #gestacao</text>
</g>
<!-- Node8&#45;&gt;Node3 -->
<g id="edge7" class="edge">
<title>Node8&#45;&gt;Node3</title>
<path fill="none" stroke="#404040" d="M537.56,-779.17C528.16,-763.52 515.89,-746.87 501.16,-735 483.74,-720.97 471.22,-731.46 454.16,-717 443.25,-707.76 433.05,-697.32 423.56,-686.16"/>
<polygon fill="none" stroke="#404040" points="423.35,-685.91 416.46,-683.8 415.75,-676.62 422.65,-678.73 423.35,-685.91"/>
<text text-anchor="middle" x="508.66" y="-701" font-family="Helvetica,sans-Serif" font-size="20.00"> #perigoso</text>
</g>
<!-- Node9&#45;&gt;Node3 -->
<g id="edge9" class="edge">
<title>Node9&#45;&gt;Node3</title>
<path fill="none" stroke="#404040" d="M179.32,-735.34C181.78,-721.55 185.26,-707.69 190.16,-695 195.53,-681.09 202.12,-667.24 209.46,-653.7"/>
<polygon fill="none" stroke="#404040" points="209.64,-653.39 209.08,-646.2 215.5,-642.92 216.06,-650.11 209.64,-653.39"/>
<text text-anchor="middle" x="255.16" y="-701" font-family="Helvetica,sans-Serif" font-size="20.00"> #veterinario</text>
</g>
<!-- Node10&#45;&gt;Node1 -->
<g id="edge13" class="edge">
<title>Node10&#45;&gt;Node1</title>
<path fill="none" stroke="midnightblue" d="M718.16,-922.2C718.16,-860.42 718.16,-779.05 718.16,-707 718.16,-707 718.16,-707 718.16,-216.5 718.16,-179.77 702.17,-142.09 685.36,-112.63"/>
<polygon fill="none" stroke="midnightblue" points="714.66,-922.33 718.16,-932.33 721.66,-922.33 714.66,-922.33"/>
</g>
</g>
</svg>
