<?xml version="1.0" encoding="UTF-8" standalone="no"?>
<!DOCTYPE svg PUBLIC "-//W3C//DTD SVG 1.1//EN"
 "http://www.w3.org/Graphics/SVG/1.1/DTD/svg11.dtd">
<!-- Generated by graphviz version 2.43.0 (0)
 -->
<!-- Title: AveDomestica Pages: 1 -->
<svg width="907pt" height="1882pt"
 viewBox="0.00 0.00 907.00 1882.00" xmlns="http://www.w3.org/2000/svg" xmlns:xlink="http://www.w3.org/1999/xlink">
<g id="graph0" class="graph" transform="scale(1 1) rotate(0) translate(4 1878)">
<title>AveDomestica</title>
<polygon fill="white" stroke="transparent" points="-4,4 -4,-1878 903,-1878 903,4 -4,4"/>
<!-- Node1 -->
<g id="node1" class="node">
<title>Node1</title>
<g id="a_node1"><a xlink:title="Implementação de animal com Classe e Categoria.">
<polygon fill="#bfbfbf" stroke="black" points="36.5,-0.5 36.5,-134.5 249.5,-134.5 249.5,-0.5 36.5,-0.5"/>
<text text-anchor="middle" x="143" y="-114.5" font-family="Helvetica,sans-Serif" font-size="20.00">AveDomestica</text>
<polyline fill="none" stroke="black" points="36.5,-104.5 249.5,-104.5 "/>
<text text-anchor="middle" x="143" y="-84.5" font-family="Helvetica,sans-Serif" font-size="20.00"> </text>
<polyline fill="none" stroke="black" points="36.5,-74.5 249.5,-74.5 "/>
<text text-anchor="start" x="44.5" y="-54.5" font-family="Helvetica,sans-Serif" font-size="20.00">+ AveDomestica()</text>
<text text-anchor="start" x="44.5" y="-32.5" font-family="Helvetica,sans-Serif" font-size="20.00">+ AveDomestica()</text>
<text text-anchor="start" x="44.5" y="-10.5" font-family="Helvetica,sans-Serif" font-size="20.00">+ ~AveDomestica()</text>
</a>
</g>
</g>
<!-- Node2 -->
<g id="node2" class="node">
<title>Node2</title>
<g id="a_node2"><a xlink:href="classAve.html" target="_top" xlink:title="Classificação base para Aves.">
<polygon fill="white" stroke="black" points="156,-172.5 156,-372.5 278,-372.5 278,-172.5 156,-172.5"/>
<text text-anchor="middle" x="217" y="-352.5" font-family="Helvetica,sans-Serif" font-size="20.00">Ave</text>
<polyline fill="none" stroke="black" points="156,-342.5 278,-342.5 "/>
<text text-anchor="middle" x="217" y="-322.5" font-family="Helvetica,sans-Serif" font-size="20.00"> </text>
<polyline fill="none" stroke="black" points="156,-312.5 278,-312.5 "/>
<text text-anchor="start" x="164" y="-292.5" font-family="Helvetica,sans-Serif" font-size="20.00">+ Ave()</text>
<text text-anchor="start" x="164" y="-270.5" font-family="Helvetica,sans-Serif" font-size="20.00">+ Ave()</text>
<text text-anchor="start" x="164" y="-248.5" font-family="Helvetica,sans-Serif" font-size="20.00">+ ~Ave()</text>
<text text-anchor="start" x="164" y="-226.5" font-family="Helvetica,sans-Serif" font-size="20.00">+ getVoa()</text>
<text text-anchor="start" x="164" y="-204.5" font-family="Helvetica,sans-Serif" font-size="20.00">+ setVoa()</text>
<text text-anchor="start" x="164" y="-182.5" font-family="Helvetica,sans-Serif" font-size="20.00">+ setVoa()</text>
</a>
</g>
</g>
<!-- Node2&#45;&gt;Node1 -->
<g id="edge1" class="edge">
<title>Node2&#45;&gt;Node1</title>
<path fill="none" stroke="midnightblue" d="M177.37,-162.8C173.89,-153.23 170.43,-143.75 167.13,-134.69"/>
<polygon fill="none" stroke="midnightblue" points="174.15,-164.18 180.87,-172.38 180.73,-161.78 174.15,-164.18"/>
</g>
<!-- Node3 -->
<g id="node3" class="node">
<title>Node3</title>
<g id="a_node3"><a xlink:href="classAnimal.html" target="_top" xlink:title="Implementação base para o cadastro de animais.">
<polygon fill="white" stroke="black" points="294.5,-610.5 294.5,-920.5 517.5,-920.5 517.5,-610.5 294.5,-610.5"/>
<text text-anchor="middle" x="406" y="-900.5" font-family="Helvetica,sans-Serif" font-size="20.00">Animal</text>
<polyline fill="none" stroke="black" points="294.5,-890.5 517.5,-890.5 "/>
<text text-anchor="middle" x="406" y="-870.5" font-family="Helvetica,sans-Serif" font-size="20.00"> </text>
<polyline fill="none" stroke="black" points="294.5,-860.5 517.5,-860.5 "/>
<text text-anchor="start" x="302.5" y="-840.5" font-family="Helvetica,sans-Serif" font-size="20.00">+ Animal()</text>
<text text-anchor="start" x="302.5" y="-818.5" font-family="Helvetica,sans-Serif" font-size="20.00">+ Animal()</text>
<text text-anchor="start" x="302.5" y="-796.5" font-family="Helvetica,sans-Serif" font-size="20.00">+ ~Animal()</text>
<text text-anchor="start" x="302.5" y="-774.5" font-family="Helvetica,sans-Serif" font-size="20.00">+ getNome()</text>
<text text-anchor="start" x="302.5" y="-752.5" font-family="Helvetica,sans-Serif" font-size="20.00">+ getEspecie()</text>
<text text-anchor="start" x="302.5" y="-730.5" font-family="Helvetica,sans-Serif" font-size="20.00">+ getAmeacadoPor()</text>
<text text-anchor="start" x="302.5" y="-708.5" font-family="Helvetica,sans-Serif" font-size="20.00">+ getVeterinario()</text>
<text text-anchor="start" x="302.5" y="-686.5" font-family="Helvetica,sans-Serif" font-size="20.00">+ getTratador()</text>
<text text-anchor="start" x="302.5" y="-664.5" font-family="Helvetica,sans-Serif" font-size="20.00">+ getPerigoso()</text>
<text text-anchor="start" x="302.5" y="-642.5" font-family="Helvetica,sans-Serif" font-size="20.00">+ setNome()</text>
<text text-anchor="start" x="302.5" y="-620.5" font-family="Helvetica,sans-Serif" font-size="20.00">e 15 mais...</text>
</a>
</g>
</g>
<!-- Node3&#45;&gt;Node2 -->
<g id="edge2" class="edge">
<title>Node3&#45;&gt;Node2</title>
<path fill="none" stroke="midnightblue" d="M343.01,-600.87C313.95,-525.37 280.4,-438.21 255.23,-372.81"/>
<polygon fill="none" stroke="midnightblue" points="339.86,-602.42 346.72,-610.49 346.39,-599.9 339.86,-602.42"/>
</g>
<!-- Node4 -->
<g id="node4" class="node">
<title>Node4</title>
<g id="a_node4"><a xlink:href="classTratador.html" target="_top" xlink:title="Implementação dos tratadores.">
<polygon fill="white" stroke="black" points="250,-979.5 250,-1201.5 450,-1201.5 450,-979.5 250,-979.5"/>
<text text-anchor="middle" x="350" y="-1181.5" font-family="Helvetica,sans-Serif" font-size="20.00">Tratador</text>
<polyline fill="none" stroke="black" points="250,-1171.5 450,-1171.5 "/>
<text text-anchor="middle" x="350" y="-1151.5" font-family="Helvetica,sans-Serif" font-size="20.00"> </text>
<polyline fill="none" stroke="black" points="250,-1141.5 450,-1141.5 "/>
<text text-anchor="start" x="258" y="-1121.5" font-family="Helvetica,sans-Serif" font-size="20.00">+ Tratador()</text>
<text text-anchor="start" x="258" y="-1099.5" font-family="Helvetica,sans-Serif" font-size="20.00">+ Tratador()</text>
<text text-anchor="start" x="258" y="-1077.5" font-family="Helvetica,sans-Serif" font-size="20.00">+ ~Tratador()</text>
<text text-anchor="start" x="258" y="-1055.5" font-family="Helvetica,sans-Serif" font-size="20.00">+ getUniforme()</text>
<text text-anchor="start" x="258" y="-1033.5" font-family="Helvetica,sans-Serif" font-size="20.00">+ setUniforme()</text>
<text text-anchor="start" x="258" y="-1011.5" font-family="Helvetica,sans-Serif" font-size="20.00">+ setUniforme()</text>
<text text-anchor="start" x="258" y="-989.5" font-family="Helvetica,sans-Serif" font-size="20.00">+ printOutDados()</text>
</a>
</g>
</g>
<!-- Node4&#45;&gt;Node3 -->
<g id="edge3" class="edge">
<title>Node4&#45;&gt;Node3</title>
<path fill="none" stroke="#404040" d="M369.12,-979.25C371.73,-964.17 374.46,-948.43 377.2,-932.64"/>
<polygon fill="none" stroke="#404040" points="377.24,-932.38 374.32,-925.79 379.29,-920.56 382.21,-927.15 377.24,-932.38"/>
<text text-anchor="middle" x="425.5" y="-945" font-family="Helvetica,sans-Serif" font-size="20.00"> #tratador</text>
</g>
<!-- Node5 -->
<g id="node5" class="node">
<title>Node5</title>
<g id="a_node5"><a xlink:href="classPessoa.html" target="_top" xlink:title="Classe base dos funcionarios.">
<polygon fill="white" stroke="black" points="359,-1304.5 359,-1680.5 559,-1680.5 559,-1304.5 359,-1304.5"/>
<text text-anchor="middle" x="459" y="-1660.5" font-family="Helvetica,sans-Serif" font-size="20.00">Pessoa</text>
<polyline fill="none" stroke="black" points="359,-1650.5 559,-1650.5 "/>
<text text-anchor="middle" x="459" y="-1630.5" font-family="Helvetica,sans-Serif" font-size="20.00"> </text>
<polyline fill="none" stroke="black" points="359,-1620.5 559,-1620.5 "/>
<text text-anchor="start" x="367" y="-1600.5" font-family="Helvetica,sans-Serif" font-size="20.00">+ Pessoa()</text>
<text text-anchor="start" x="367" y="-1578.5" font-family="Helvetica,sans-Serif" font-size="20.00">+ Pessoa()</text>
<text text-anchor="start" x="367" y="-1556.5" font-family="Helvetica,sans-Serif" font-size="20.00">+ ~Pessoa()</text>
<text text-anchor="start" x="367" y="-1534.5" font-family="Helvetica,sans-Serif" font-size="20.00">+ getNome()</text>
<text text-anchor="start" x="367" y="-1512.5" font-family="Helvetica,sans-Serif" font-size="20.00">+ setNome()</text>
<text text-anchor="start" x="367" y="-1490.5" font-family="Helvetica,sans-Serif" font-size="20.00">+ setNome()</text>
<text text-anchor="start" x="367" y="-1468.5" font-family="Helvetica,sans-Serif" font-size="20.00">+ getTelefone()</text>
<text text-anchor="start" x="367" y="-1446.5" font-family="Helvetica,sans-Serif" font-size="20.00">+ setTelefone()</text>
<text text-anchor="start" x="367" y="-1424.5" font-family="Helvetica,sans-Serif" font-size="20.00">+ setTelefone()</text>
<text text-anchor="start" x="367" y="-1402.5" font-family="Helvetica,sans-Serif" font-size="20.00">+ getEmail()</text>
<text text-anchor="start" x="367" y="-1380.5" font-family="Helvetica,sans-Serif" font-size="20.00">+ setEmail()</text>
<text text-anchor="start" x="367" y="-1358.5" font-family="Helvetica,sans-Serif" font-size="20.00">+ setEmail()</text>
<text text-anchor="start" x="367" y="-1336.5" font-family="Helvetica,sans-Serif" font-size="20.00">+ printOutDados()</text>
<text text-anchor="start" x="367" y="-1314.5" font-family="Helvetica,sans-Serif" font-size="20.00">+ operator==()</text>
</a>
</g>
</g>
<!-- Node5&#45;&gt;Node4 -->
<g id="edge4" class="edge">
<title>Node5&#45;&gt;Node4</title>
<path fill="none" stroke="midnightblue" d="M424.82,-1294.33C418.98,-1269.12 412.38,-1243.81 405,-1220 403.13,-1213.97 401.08,-1207.85 398.89,-1201.7"/>
<polygon fill="none" stroke="midnightblue" points="421.47,-1295.4 427.11,-1304.37 428.3,-1293.84 421.47,-1295.4"/>
</g>
<!-- Node9 -->
<g id="node9" class="node">
<title>Node9</title>
<g id="a_node9"><a xlink:href="classVeterinario.html" target="_top" xlink:title="Implementação dos veterinarios.">
<polygon fill="white" stroke="black" points="468,-979.5 468,-1201.5 668,-1201.5 668,-979.5 468,-979.5"/>
<text text-anchor="middle" x="568" y="-1181.5" font-family="Helvetica,sans-Serif" font-size="20.00">Veterinario</text>
<polyline fill="none" stroke="black" points="468,-1171.5 668,-1171.5 "/>
<text text-anchor="middle" x="568" y="-1151.5" font-family="Helvetica,sans-Serif" font-size="20.00"> </text>
<polyline fill="none" stroke="black" points="468,-1141.5 668,-1141.5 "/>
<text text-anchor="start" x="476" y="-1121.5" font-family="Helvetica,sans-Serif" font-size="20.00">+ Veterinario()</text>
<text text-anchor="start" x="476" y="-1099.5" font-family="Helvetica,sans-Serif" font-size="20.00">+ Veterinario()</text>
<text text-anchor="start" x="476" y="-1077.5" font-family="Helvetica,sans-Serif" font-size="20.00">+ ~Veterinario()</text>
<text text-anchor="start" x="476" y="-1055.5" font-family="Helvetica,sans-Serif" font-size="20.00">+ getCRMV()</text>
<text text-anchor="start" x="476" y="-1033.5" font-family="Helvetica,sans-Serif" font-size="20.00">+ setCRMV()</text>
<text text-anchor="start" x="476" y="-1011.5" font-family="Helvetica,sans-Serif" font-size="20.00">+ setCRMV()</text>
<text text-anchor="start" x="476" y="-989.5" font-family="Helvetica,sans-Serif" font-size="20.00">+ printOutDados()</text>
</a>
</g>
</g>
<!-- Node5&#45;&gt;Node9 -->
<g id="edge10" class="edge">
<title>Node5&#45;&gt;Node9</title>
<path fill="none" stroke="midnightblue" d="M512.69,-1294.48C521.39,-1262.55 530.12,-1230.51 537.99,-1201.63"/>
<polygon fill="none" stroke="midnightblue" points="509.24,-1293.81 509.99,-1304.38 516,-1295.65 509.24,-1293.81"/>
</g>
<!-- Node6 -->
<g id="node6" class="node">
<title>Node6</title>
<g id="a_node6"><a xlink:title=" ">
<polygon fill="white" stroke="#bfbfbf" points="558,-1783.5 558,-1873.5 632,-1873.5 632,-1783.5 558,-1783.5"/>
<text text-anchor="middle" x="595" y="-1853.5" font-family="Helvetica,sans-Serif" font-size="20.00">string</text>
<polyline fill="none" stroke="#bfbfbf" points="558,-1843.5 632,-1843.5 "/>
<text text-anchor="middle" x="595" y="-1823.5" font-family="Helvetica,sans-Serif" font-size="20.00"> </text>
<polyline fill="none" stroke="#bfbfbf" points="558,-1813.5 632,-1813.5 "/>
<text text-anchor="middle" x="595" y="-1793.5" font-family="Helvetica,sans-Serif" font-size="20.00"> </text>
</a>
</g>
</g>
<!-- Node6&#45;&gt;Node3 -->
<g id="edge8" class="edge">
<title>Node6&#45;&gt;Node3</title>
<path fill="none" stroke="#404040" d="M622.67,-1783.21C638.63,-1755.08 657.24,-1717.26 666,-1681 739.3,-1377.69 799.92,-1265.81 677,-979 648.39,-912.25 585.93,-861.01 528.18,-825.58"/>
<polygon fill="none" stroke="#404040" points="528.12,-825.55 520.92,-825.89 517.83,-819.37 525.04,-819.03 528.12,-825.55"/>
<text text-anchor="middle" x="823" y="-1270" font-family="Helvetica,sans-Serif" font-size="20.00"> #especie</text>
<text text-anchor="middle" x="823" y="-1248" font-family="Helvetica,sans-Serif" font-size="20.00">#ameacadoPor</text>
<text text-anchor="middle" x="823" y="-1226" font-family="Helvetica,sans-Serif" font-size="20.00">#nome</text>
</g>
<!-- Node6&#45;&gt;Node5 -->
<g id="edge5" class="edge">
<title>Node6&#45;&gt;Node5</title>
<path fill="none" stroke="#404040" d="M557.92,-1816.74C532.68,-1807.36 500.9,-1791.08 484,-1765 469.88,-1743.21 460.67,-1718.29 454.9,-1692.59"/>
<polygon fill="none" stroke="#404040" points="454.88,-1692.5 449.77,-1687.41 452.49,-1680.74 457.6,-1685.82 454.88,-1692.5"/>
<text text-anchor="middle" x="532.5" y="-1749" font-family="Helvetica,sans-Serif" font-size="20.00"> #email</text>
<text text-anchor="middle" x="532.5" y="-1727" font-family="Helvetica,sans-Serif" font-size="20.00">#nome</text>
<text text-anchor="middle" x="532.5" y="-1705" font-family="Helvetica,sans-Serif" font-size="20.00">#telefone</text>
</g>
<!-- Node6&#45;&gt;Node9 -->
<g id="edge11" class="edge">
<title>Node6&#45;&gt;Node9</title>
<path fill="none" stroke="#404040" d="M593.38,-1783.39C589.33,-1672.83 578.61,-1380.77 572.48,-1213.58"/>
<polygon fill="none" stroke="#404040" points="572.48,-1213.51 568.26,-1207.66 572.04,-1201.52 576.25,-1207.37 572.48,-1213.51"/>
<text text-anchor="middle" x="625.5" y="-1487.5" font-family="Helvetica,sans-Serif" font-size="20.00"> &#45;CRMV</text>
</g>
<!-- Node7 -->
<g id="node7" class="node">
<title>Node7</title>
<g id="a_node7"><a xlink:title=" ">
<polygon fill="white" stroke="#bfbfbf" points="233.5,-1447.5 233.5,-1537.5 340.5,-1537.5 340.5,-1447.5 233.5,-1447.5"/>
<text text-anchor="middle" x="287" y="-1517.5" font-family="Helvetica,sans-Serif" font-size="20.00">Uniforme</text>
<polyline fill="none" stroke="#bfbfbf" points="233.5,-1507.5 340.5,-1507.5 "/>
<text text-anchor="middle" x="287" y="-1487.5" font-family="Helvetica,sans-Serif" font-size="20.00"> </text>
<polyline fill="none" stroke="#bfbfbf" points="233.5,-1477.5 340.5,-1477.5 "/>
<text text-anchor="middle" x="287" y="-1457.5" font-family="Helvetica,sans-Serif" font-size="20.00"> </text>
</a>
</g>
</g>
<!-- Node7&#45;&gt;Node4 -->
<g id="edge6" class="edge">
<title>Node7&#45;&gt;Node4</title>
<path fill="none" stroke="#404040" d="M285.38,-1447.24C284.33,-1393.05 285.51,-1298.78 302,-1220 302.46,-1217.82 302.94,-1215.63 303.46,-1213.43"/>
<polygon fill="none" stroke="#404040" points="303.5,-1213.25 301.1,-1206.45 306.46,-1201.62 308.86,-1208.42 303.5,-1213.25"/>
<text text-anchor="middle" x="353.5" y="-1248" font-family="Helvetica,sans-Serif" font-size="20.00"> &#45;uniforme</text>
</g>
<!-- Node8 -->
<g id="node8" class="node">
<title>Node8</title>
<g id="a_node8"><a xlink:title=" ">
<polygon fill="white" stroke="#bfbfbf" points="172.5,-1045.5 172.5,-1135.5 231.5,-1135.5 231.5,-1045.5 172.5,-1045.5"/>
<text text-anchor="middle" x="202" y="-1115.5" font-family="Helvetica,sans-Serif" font-size="20.00">bool</text>
<polyline fill="none" stroke="#bfbfbf" points="172.5,-1105.5 231.5,-1105.5 "/>
<text text-anchor="middle" x="202" y="-1085.5" font-family="Helvetica,sans-Serif" font-size="20.00"> </text>
<polyline fill="none" stroke="#bfbfbf" points="172.5,-1075.5 231.5,-1075.5 "/>
<text text-anchor="middle" x="202" y="-1055.5" font-family="Helvetica,sans-Serif" font-size="20.00"> </text>
</a>
</g>
</g>
<!-- Node8&#45;&gt;Node2 -->
<g id="edge12" class="edge">
<title>Node8&#45;&gt;Node2</title>
<path fill="none" stroke="#404040" d="M202.81,-1045.34C205.09,-921.29 211.61,-566.88 214.96,-384.66"/>
<polygon fill="none" stroke="#404040" points="214.96,-384.64 211.07,-378.57 215.18,-372.65 219.07,-378.72 214.96,-384.64"/>
<text text-anchor="middle" x="239.5" y="-760.5" font-family="Helvetica,sans-Serif" font-size="20.00"> #voa</text>
</g>
<!-- Node8&#45;&gt;Node3 -->
<g id="edge7" class="edge">
<title>Node8&#45;&gt;Node3</title>
<path fill="none" stroke="#404040" d="M216.63,-1045.36C223.62,-1025.01 232.34,-1000.62 241,-979 248.25,-960.9 247.32,-954.61 259,-939 266.37,-929.16 271.41,-929.8 280,-921 281.91,-919.04 283.83,-917.05 285.75,-915.04"/>
<polygon fill="none" stroke="#404040" points="285.94,-914.83 287.13,-907.72 294.15,-906.08 292.96,-913.19 285.94,-914.83"/>
<text text-anchor="middle" x="313.5" y="-945" font-family="Helvetica,sans-Serif" font-size="20.00"> #perigoso</text>
</g>
<!-- Node10 -->
<g id="node10" class="node">
<title>Node10</title>
<g id="a_node10"><a xlink:href="classDomestico.html" target="_top" xlink:title="Umas das definições de categoria para Animal.">
<polygon fill="white" stroke="black" points="0,-391.5 0,-591.5 188,-591.5 188,-391.5 0,-391.5"/>
<text text-anchor="middle" x="94" y="-571.5" font-family="Helvetica,sans-Serif" font-size="20.00">Domestico</text>
<polyline fill="none" stroke="black" points="0,-561.5 188,-561.5 "/>
<text text-anchor="middle" x="94" y="-541.5" font-family="Helvetica,sans-Serif" font-size="20.00"> </text>
<polyline fill="none" stroke="black" points="0,-531.5 188,-531.5 "/>
<text text-anchor="start" x="8" y="-511.5" font-family="Helvetica,sans-Serif" font-size="20.00">+ Domestico()</text>
<text text-anchor="start" x="8" y="-489.5" font-family="Helvetica,sans-Serif" font-size="20.00">+ Domestico()</text>
<text text-anchor="start" x="8" y="-467.5" font-family="Helvetica,sans-Serif" font-size="20.00">+ ~Domestico()</text>
<text text-anchor="start" x="8" y="-445.5" font-family="Helvetica,sans-Serif" font-size="20.00">+ getAdestrado()</text>
<text text-anchor="start" x="8" y="-423.5" font-family="Helvetica,sans-Serif" font-size="20.00">+ setAdestrado()</text>
<text text-anchor="start" x="8" y="-401.5" font-family="Helvetica,sans-Serif" font-size="20.00">+ setAdestrado()</text>
</a>
</g>
</g>
<!-- Node8&#45;&gt;Node10 -->
<g id="edge14" class="edge">
<title>Node8&#45;&gt;Node10</title>
<path fill="none" stroke="#404040" d="M172.48,-1069.18C142.69,-1046.69 98.53,-1007.43 80,-961 33.96,-845.64 47.8,-701.3 66.48,-603.54"/>
<polygon fill="none" stroke="#404040" points="66.52,-603.33 63.75,-596.67 68.84,-591.56 71.6,-598.22 66.52,-603.33"/>
<text text-anchor="middle" x="141.5" y="-945" font-family="Helvetica,sans-Serif" font-size="20.00"> #adestrado</text>
</g>
<!-- Node9&#45;&gt;Node3 -->
<g id="edge9" class="edge">
<title>Node9&#45;&gt;Node3</title>
<path fill="none" stroke="#404040" d="M512.7,-979.25C504.99,-963.88 496.94,-947.82 488.86,-931.71"/>
<polygon fill="none" stroke="#404040" points="488.65,-931.28 482.38,-927.71 483.27,-920.56 489.53,-924.13 488.65,-931.28"/>
<text text-anchor="middle" x="566" y="-945" font-family="Helvetica,sans-Serif" font-size="20.00"> #veterinario</text>
</g>
<!-- Node10&#45;&gt;Node1 -->
<g id="edge13" class="edge">
<title>Node10&#45;&gt;Node1</title>
<path fill="none" stroke="midnightblue" d="M106.72,-380.93C115.79,-302.84 127.68,-200.43 135.33,-134.54"/>
<polygon fill="none" stroke="midnightblue" points="103.2,-380.96 105.52,-391.29 110.15,-381.76 103.2,-380.96"/>
</g>
</g>
</svg>
