<?xml version="1.0" encoding="UTF-8" standalone="no"?>
<!DOCTYPE svg PUBLIC "-//W3C//DTD SVG 1.1//EN"
 "http://www.w3.org/Graphics/SVG/1.1/DTD/svg11.dtd">
<!-- Generated by graphviz version 2.40.1 (20161225.0304)
 -->
<!-- Title: Ave Pages: 1 -->
<svg width="504pt" height="336pt"
 viewBox="0.00 0.00 503.50 336.00" xmlns="http://www.w3.org/2000/svg" xmlns:xlink="http://www.w3.org/1999/xlink">
<g id="graph0" class="graph" transform="scale(1 1) rotate(0) translate(4 332)">
<title>Ave</title>
<polygon fill="#ffffff" stroke="transparent" points="-4,4 -4,-332 499.5,-332 499.5,4 -4,4"/>
<!-- Node0 -->
<g id="node1" class="node">
<title>Node0</title>
<polygon fill="#bfbfbf" stroke="#000000" points="213.5,-171.5 213.5,-327.5 315.5,-327.5 315.5,-171.5 213.5,-171.5"/>
<text text-anchor="middle" x="264.5" y="-307.5" font-family="Helvetica,sans-Serif" font-size="20.00" fill="#000000">Ave</text>
<polyline fill="none" stroke="#000000" points="213.5,-297.5 315.5,-297.5 "/>
<text text-anchor="start" x="221.5" y="-277.5" font-family="Helvetica,sans-Serif" font-size="20.00" fill="#000000"># voa</text>
<polyline fill="none" stroke="#000000" points="213.5,-267.5 315.5,-267.5 "/>
<text text-anchor="start" x="221.5" y="-247.5" font-family="Helvetica,sans-Serif" font-size="20.00" fill="#000000">+ Ave()</text>
<text text-anchor="start" x="221.5" y="-225.5" font-family="Helvetica,sans-Serif" font-size="20.00" fill="#000000">+ Ave()</text>
<text text-anchor="start" x="221.5" y="-203.5" font-family="Helvetica,sans-Serif" font-size="20.00" fill="#000000">+ ~Ave()</text>
<text text-anchor="start" x="221.5" y="-181.5" font-family="Helvetica,sans-Serif" font-size="20.00" fill="#000000">+ getVoa()</text>
</g>
<!-- Node1 -->
<g id="node2" class="node">
<title>Node1</title>
<g id="a_node2"><a xlink:href="classAveDomestica.html" target="_top" xlink:title="Implementação de animal com Classe e Categoria. ">
<polygon fill="#ffffff" stroke="#000000" points="0,-.5 0,-134.5 173,-134.5 173,-.5 0,-.5"/>
<text text-anchor="middle" x="86.5" y="-114.5" font-family="Helvetica,sans-Serif" font-size="20.00" fill="#000000">AveDomestica</text>
<polyline fill="none" stroke="#000000" points="0,-104.5 173,-104.5 "/>
<text text-anchor="middle" x="86.5" y="-84.5" font-family="Helvetica,sans-Serif" font-size="20.00" fill="#000000"> </text>
<polyline fill="none" stroke="#000000" points="0,-74.5 173,-74.5 "/>
<text text-anchor="start" x="8" y="-54.5" font-family="Helvetica,sans-Serif" font-size="20.00" fill="#000000">+ AveDomestica()</text>
<text text-anchor="start" x="8" y="-32.5" font-family="Helvetica,sans-Serif" font-size="20.00" fill="#000000">+ AveDomestica()</text>
<text text-anchor="start" x="8" y="-10.5" font-family="Helvetica,sans-Serif" font-size="20.00" fill="#000000">+ ~AveDomestica()</text>
</a>
</g>
</g>
<!-- Node0&#45;&gt;Node1 -->
<g id="edge1" class="edge">
<title>Node0&#45;&gt;Node1</title>
<path fill="none" stroke="#191970" d="M206.201,-189.8909C188.9152,-172.2167 169.8686,-152.7421 152.1506,-134.6259"/>
<polygon fill="none" stroke="#191970" points="203.998,-192.6441 213.4923,-197.3461 209.0025,-187.7496 203.998,-192.6441"/>
</g>
<!-- Node2 -->
<g id="node3" class="node">
<title>Node2</title>
<g id="a_node3"><a xlink:href="classAveExotica.html" target="_top" xlink:title="Implementação de animal com Classe e Categoria. ">
<polygon fill="#ffffff" stroke="#000000" points="191.5,-11.5 191.5,-123.5 337.5,-123.5 337.5,-11.5 191.5,-11.5"/>
<text text-anchor="middle" x="264.5" y="-103.5" font-family="Helvetica,sans-Serif" font-size="20.00" fill="#000000">AveExotica</text>
<polyline fill="none" stroke="#000000" points="191.5,-93.5 337.5,-93.5 "/>
<text text-anchor="middle" x="264.5" y="-73.5" font-family="Helvetica,sans-Serif" font-size="20.00" fill="#000000"> </text>
<polyline fill="none" stroke="#000000" points="191.5,-63.5 337.5,-63.5 "/>
<text text-anchor="start" x="199.5" y="-43.5" font-family="Helvetica,sans-Serif" font-size="20.00" fill="#000000">+ AveExotica()</text>
<text text-anchor="start" x="199.5" y="-21.5" font-family="Helvetica,sans-Serif" font-size="20.00" fill="#000000">+ ~AveExotica()</text>
</a>
</g>
</g>
<!-- Node0&#45;&gt;Node2 -->
<g id="edge2" class="edge">
<title>Node0&#45;&gt;Node2</title>
<path fill="none" stroke="#191970" d="M264.5,-161.0862C264.5,-148.3593 264.5,-135.5648 264.5,-123.6997"/>
<polygon fill="none" stroke="#191970" points="261.0001,-161.2593 264.5,-171.2594 268.0001,-161.2594 261.0001,-161.2593"/>
</g>
<!-- Node3 -->
<g id="node4" class="node">
<title>Node3</title>
<g id="a_node4"><a xlink:href="classAveNativa.html" target="_top" xlink:title="Implementação de animal com Classe e Categoria. ">
<polygon fill="#ffffff" stroke="#000000" points="355.5,-11.5 355.5,-123.5 495.5,-123.5 495.5,-11.5 355.5,-11.5"/>
<text text-anchor="middle" x="425.5" y="-103.5" font-family="Helvetica,sans-Serif" font-size="20.00" fill="#000000">AveNativa</text>
<polyline fill="none" stroke="#000000" points="355.5,-93.5 495.5,-93.5 "/>
<text text-anchor="middle" x="425.5" y="-73.5" font-family="Helvetica,sans-Serif" font-size="20.00" fill="#000000"> </text>
<polyline fill="none" stroke="#000000" points="355.5,-63.5 495.5,-63.5 "/>
<text text-anchor="start" x="363.5" y="-43.5" font-family="Helvetica,sans-Serif" font-size="20.00" fill="#000000">+ AveNativa()</text>
<text text-anchor="start" x="363.5" y="-21.5" font-family="Helvetica,sans-Serif" font-size="20.00" fill="#000000">+ ~AveNativa()</text>
</a>
</g>
</g>
<!-- Node0&#45;&gt;Node3 -->
<g id="edge3" class="edge">
<title>Node0&#45;&gt;Node3</title>
<path fill="none" stroke="#191970" d="M322.2946,-184.167C339.8186,-164.3572 358.906,-142.7802 375.8462,-123.6304"/>
<polygon fill="none" stroke="#191970" points="319.6669,-181.855 315.6626,-191.664 324.9099,-186.493 319.6669,-181.855"/>
</g>
</g>
</svg>
