<?xml version="1.0" encoding="UTF-8" standalone="no"?>
<!DOCTYPE svg PUBLIC "-//W3C//DTD SVG 1.1//EN"
 "http://www.w3.org/Graphics/SVG/1.1/DTD/svg11.dtd">
<!-- Generated by graphviz version 2.40.1 (20161225.0304)
 -->
<!-- Title: Exotico Pages: 1 -->
<svg width="736pt" height="771pt"
 viewBox="0.00 0.00 735.50 771.00" xmlns="http://www.w3.org/2000/svg" xmlns:xlink="http://www.w3.org/1999/xlink">
<g id="graph0" class="graph" transform="scale(1 1) rotate(0) translate(4 767)">
<title>Exotico</title>
<polygon fill="#ffffff" stroke="transparent" points="-4,4 -4,-767 731.5,-767 731.5,4 -4,4"/>
<!-- Node0 -->
<g id="node1" class="node">
<title>Node0</title>
<polygon fill="#bfbfbf" stroke="#000000" points="300.5,-149.5 300.5,-305.5 414.5,-305.5 414.5,-149.5 300.5,-149.5"/>
<text text-anchor="middle" x="357.5" y="-285.5" font-family="Helvetica,sans-Serif" font-size="20.00" fill="#000000">Exotico</text>
<polyline fill="none" stroke="#000000" points="300.5,-275.5 414.5,-275.5 "/>
<text text-anchor="start" x="308.5" y="-255.5" font-family="Helvetica,sans-Serif" font-size="20.00" fill="#000000"># local</text>
<polyline fill="none" stroke="#000000" points="300.5,-245.5 414.5,-245.5 "/>
<text text-anchor="start" x="308.5" y="-225.5" font-family="Helvetica,sans-Serif" font-size="20.00" fill="#000000">+ Exotico()</text>
<text text-anchor="start" x="308.5" y="-203.5" font-family="Helvetica,sans-Serif" font-size="20.00" fill="#000000">+ Exotico()</text>
<text text-anchor="start" x="308.5" y="-181.5" font-family="Helvetica,sans-Serif" font-size="20.00" fill="#000000">+ ~Exotico()</text>
<text text-anchor="start" x="308.5" y="-159.5" font-family="Helvetica,sans-Serif" font-size="20.00" fill="#000000">+ getLocal()</text>
</g>
<!-- Node2 -->
<g id="node3" class="node">
<title>Node2</title>
<g id="a_node3"><a xlink:href="classAnfibioExotico.html" target="_top" xlink:title="Implementação de animal com Classe e Categoria. ">
<polygon fill="#ffffff" stroke="#000000" points="0,-.5 0,-112.5 173,-112.5 173,-.5 0,-.5"/>
<text text-anchor="middle" x="86.5" y="-92.5" font-family="Helvetica,sans-Serif" font-size="20.00" fill="#000000">AnfibioExotico</text>
<polyline fill="none" stroke="#000000" points="0,-82.5 173,-82.5 "/>
<text text-anchor="middle" x="86.5" y="-62.5" font-family="Helvetica,sans-Serif" font-size="20.00" fill="#000000"> </text>
<polyline fill="none" stroke="#000000" points="0,-52.5 173,-52.5 "/>
<text text-anchor="start" x="8" y="-32.5" font-family="Helvetica,sans-Serif" font-size="20.00" fill="#000000">+ AnfibioExotico()</text>
<text text-anchor="start" x="8" y="-10.5" font-family="Helvetica,sans-Serif" font-size="20.00" fill="#000000">+ ~AnfibioExotico()</text>
</a>
</g>
</g>
<!-- Node0&#45;&gt;Node2 -->
<g id="edge2" class="edge">
<title>Node0&#45;&gt;Node2</title>
<path fill="none" stroke="#191970" d="M291.5079,-185.8592C255.9144,-163.3999 211.5459,-135.4035 173.197,-111.2055"/>
<polygon fill="none" stroke="#191970" points="290.0341,-189.0678 300.359,-191.4442 293.7696,-183.1478 290.0341,-189.0678"/>
</g>
<!-- Node3 -->
<g id="node4" class="node">
<title>Node3</title>
<g id="a_node4"><a xlink:href="classAveExotica.html" target="_top" xlink:title="Implementação de animal com Classe e Categoria. ">
<polygon fill="#ffffff" stroke="#000000" points="191.5,-.5 191.5,-112.5 337.5,-112.5 337.5,-.5 191.5,-.5"/>
<text text-anchor="middle" x="264.5" y="-92.5" font-family="Helvetica,sans-Serif" font-size="20.00" fill="#000000">AveExotica</text>
<polyline fill="none" stroke="#000000" points="191.5,-82.5 337.5,-82.5 "/>
<text text-anchor="middle" x="264.5" y="-62.5" font-family="Helvetica,sans-Serif" font-size="20.00" fill="#000000"> </text>
<polyline fill="none" stroke="#000000" points="191.5,-52.5 337.5,-52.5 "/>
<text text-anchor="start" x="199.5" y="-32.5" font-family="Helvetica,sans-Serif" font-size="20.00" fill="#000000">+ AveExotica()</text>
<text text-anchor="start" x="199.5" y="-10.5" font-family="Helvetica,sans-Serif" font-size="20.00" fill="#000000">+ ~AveExotica()</text>
</a>
</g>
</g>
<!-- Node0&#45;&gt;Node3 -->
<g id="edge3" class="edge">
<title>Node0&#45;&gt;Node3</title>
<path fill="none" stroke="#191970" d="M309.9429,-140.0562C304.8628,-130.7155 299.7996,-121.4058 294.9959,-112.5732"/>
<polygon fill="none" stroke="#191970" points="306.9582,-141.894 314.8107,-149.0067 313.1076,-138.5496 306.9582,-141.894"/>
</g>
<!-- Node4 -->
<g id="node5" class="node">
<title>Node4</title>
<g id="a_node5"><a xlink:href="classMamiferoExotico.html" target="_top" xlink:title="Implementação de animal com Classe e Categoria. ">
<polygon fill="#ffffff" stroke="#000000" points="356,-.5 356,-112.5 547,-112.5 547,-.5 356,-.5"/>
<text text-anchor="middle" x="451.5" y="-92.5" font-family="Helvetica,sans-Serif" font-size="20.00" fill="#000000">MamiferoExotico</text>
<polyline fill="none" stroke="#000000" points="356,-82.5 547,-82.5 "/>
<text text-anchor="middle" x="451.5" y="-62.5" font-family="Helvetica,sans-Serif" font-size="20.00" fill="#000000"> </text>
<polyline fill="none" stroke="#000000" points="356,-52.5 547,-52.5 "/>
<text text-anchor="start" x="364" y="-32.5" font-family="Helvetica,sans-Serif" font-size="20.00" fill="#000000">+ MamiferoExotico()</text>
<text text-anchor="start" x="364" y="-10.5" font-family="Helvetica,sans-Serif" font-size="20.00" fill="#000000">+ ~MamiferoExotico()</text>
</a>
</g>
</g>
<!-- Node0&#45;&gt;Node4 -->
<g id="edge4" class="edge">
<title>Node0&#45;&gt;Node4</title>
<path fill="none" stroke="#191970" d="M405.5685,-140.0562C410.7032,-130.7155 415.8208,-121.4058 420.6761,-112.5732"/>
<polygon fill="none" stroke="#191970" points="402.3985,-138.5574 400.6484,-149.0067 408.5328,-141.9295 402.3985,-138.5574"/>
</g>
<!-- Node5 -->
<g id="node6" class="node">
<title>Node5</title>
<g id="a_node6"><a xlink:href="classReptilExotico.html" target="_top" xlink:title="Implementação de animal com Classe e Categoria. ">
<polygon fill="#ffffff" stroke="#000000" points="565.5,-.5 565.5,-112.5 727.5,-112.5 727.5,-.5 565.5,-.5"/>
<text text-anchor="middle" x="646.5" y="-92.5" font-family="Helvetica,sans-Serif" font-size="20.00" fill="#000000">ReptilExotico</text>
<polyline fill="none" stroke="#000000" points="565.5,-82.5 727.5,-82.5 "/>
<text text-anchor="middle" x="646.5" y="-62.5" font-family="Helvetica,sans-Serif" font-size="20.00" fill="#000000"> </text>
<polyline fill="none" stroke="#000000" points="565.5,-52.5 727.5,-52.5 "/>
<text text-anchor="start" x="573.5" y="-32.5" font-family="Helvetica,sans-Serif" font-size="20.00" fill="#000000">+ ReptilExotico()</text>
<text text-anchor="start" x="573.5" y="-10.5" font-family="Helvetica,sans-Serif" font-size="20.00" fill="#000000">+ ~ReptilExotico()</text>
</a>
</g>
</g>
<!-- Node0&#45;&gt;Node5 -->
<g id="edge5" class="edge">
<title>Node0&#45;&gt;Node5</title>
<path fill="none" stroke="#191970" d="M424.0059,-190.0818C462.8539,-168.0142 512.7001,-139.3358 556.5,-113 559.3459,-111.2888 562.2366,-109.5389 565.1517,-107.7642"/>
<polygon fill="none" stroke="#191970" points="421.8542,-187.2785 414.8835,-195.2572 425.3084,-193.3669 421.8542,-187.2785"/>
</g>
<!-- Node1 -->
<g id="node2" class="node">
<title>Node1</title>
<g id="a_node2"><a xlink:href="classAnimal.html" target="_top" xlink:title="Implementação base para o cadastro de animais. ">
<polygon fill="#ffffff" stroke="#000000" points="268.5,-342.5 268.5,-762.5 446.5,-762.5 446.5,-342.5 268.5,-342.5"/>
<text text-anchor="middle" x="357.5" y="-742.5" font-family="Helvetica,sans-Serif" font-size="20.00" fill="#000000">Animal</text>
<polyline fill="none" stroke="#000000" points="268.5,-732.5 446.5,-732.5 "/>
<text text-anchor="start" x="276.5" y="-712.5" font-family="Helvetica,sans-Serif" font-size="20.00" fill="#000000"># nome</text>
<text text-anchor="start" x="276.5" y="-690.5" font-family="Helvetica,sans-Serif" font-size="20.00" fill="#000000"># especie</text>
<text text-anchor="start" x="276.5" y="-668.5" font-family="Helvetica,sans-Serif" font-size="20.00" fill="#000000"># veterinario</text>
<text text-anchor="start" x="276.5" y="-646.5" font-family="Helvetica,sans-Serif" font-size="20.00" fill="#000000"># tratador</text>
<text text-anchor="start" x="276.5" y="-624.5" font-family="Helvetica,sans-Serif" font-size="20.00" fill="#000000"># perigoso</text>
<polyline fill="none" stroke="#000000" points="268.5,-614.5 446.5,-614.5 "/>
<text text-anchor="start" x="276.5" y="-594.5" font-family="Helvetica,sans-Serif" font-size="20.00" fill="#000000">+ Animal()</text>
<text text-anchor="start" x="276.5" y="-572.5" font-family="Helvetica,sans-Serif" font-size="20.00" fill="#000000">+ Animal()</text>
<text text-anchor="start" x="276.5" y="-550.5" font-family="Helvetica,sans-Serif" font-size="20.00" fill="#000000">+ ~Animal()</text>
<text text-anchor="start" x="276.5" y="-528.5" font-family="Helvetica,sans-Serif" font-size="20.00" fill="#000000">+ getNome()</text>
<text text-anchor="start" x="276.5" y="-506.5" font-family="Helvetica,sans-Serif" font-size="20.00" fill="#000000">+ getEspecie()</text>
<text text-anchor="start" x="276.5" y="-484.5" font-family="Helvetica,sans-Serif" font-size="20.00" fill="#000000">+ getVeterinario()</text>
<text text-anchor="start" x="276.5" y="-462.5" font-family="Helvetica,sans-Serif" font-size="20.00" fill="#000000">+ getTratador()</text>
<text text-anchor="start" x="276.5" y="-440.5" font-family="Helvetica,sans-Serif" font-size="20.00" fill="#000000">+ getPerigoso()</text>
<text text-anchor="start" x="276.5" y="-418.5" font-family="Helvetica,sans-Serif" font-size="20.00" fill="#000000">+ getClassificacao()</text>
<text text-anchor="start" x="276.5" y="-396.5" font-family="Helvetica,sans-Serif" font-size="20.00" fill="#000000">+ getClasse()</text>
<text text-anchor="start" x="276.5" y="-374.5" font-family="Helvetica,sans-Serif" font-size="20.00" fill="#000000">+ printOutDados()</text>
<text text-anchor="start" x="276.5" y="-352.5" font-family="Helvetica,sans-Serif" font-size="20.00" fill="#000000">+ operator==()</text>
</a>
</g>
</g>
<!-- Node1&#45;&gt;Node0 -->
<g id="edge1" class="edge">
<title>Node1&#45;&gt;Node0</title>
<path fill="none" stroke="#191970" d="M357.5,-332.0665C357.5,-322.9314 357.5,-314.0773 357.5,-305.6428"/>
<polygon fill="none" stroke="#191970" points="354.0001,-332.0828 357.5,-342.0828 361.0001,-332.0829 354.0001,-332.0828"/>
</g>
</g>
</svg>
