<?xml version="1.0" encoding="UTF-8" standalone="no"?>
<!DOCTYPE svg PUBLIC "-//W3C//DTD SVG 1.1//EN"
 "http://www.w3.org/Graphics/SVG/1.1/DTD/svg11.dtd">
<!-- Generated by graphviz version 2.43.0 (0)
 -->
<!-- Title: AnfibioDomestico Pages: 1 -->
<svg width="899pt" height="2036pt"
 viewBox="0.00 0.00 899.00 2036.00" xmlns="http://www.w3.org/2000/svg" xmlns:xlink="http://www.w3.org/1999/xlink">
<g id="graph0" class="graph" transform="scale(1 1) rotate(0) translate(4 2032)">
<title>AnfibioDomestico</title>
<polygon fill="white" stroke="transparent" points="-4,4 -4,-2032 895,-2032 895,4 -4,4"/>
<!-- Node1 -->
<g id="node1" class="node">
<title>Node1</title>
<g id="a_node1"><a xlink:title="Implementação de animal com Classe e Categoria.">
<polygon fill="#bfbfbf" stroke="black" points="15.5,-0.5 15.5,-134.5 260.5,-134.5 260.5,-0.5 15.5,-0.5"/>
<text text-anchor="middle" x="138" y="-114.5" font-family="Helvetica,sans-Serif" font-size="20.00">AnfibioDomestico</text>
<polyline fill="none" stroke="black" points="15.5,-104.5 260.5,-104.5 "/>
<text text-anchor="middle" x="138" y="-84.5" font-family="Helvetica,sans-Serif" font-size="20.00"> </text>
<polyline fill="none" stroke="black" points="15.5,-74.5 260.5,-74.5 "/>
<text text-anchor="start" x="23.5" y="-54.5" font-family="Helvetica,sans-Serif" font-size="20.00">+ AnfibioDomestico()</text>
<text text-anchor="start" x="23.5" y="-32.5" font-family="Helvetica,sans-Serif" font-size="20.00">+ AnfibioDomestico()</text>
<text text-anchor="start" x="23.5" y="-10.5" font-family="Helvetica,sans-Serif" font-size="20.00">+ ~AnfibioDomestico()</text>
</a>
</g>
</g>
<!-- Node2 -->
<g id="node2" class="node">
<title>Node2</title>
<g id="a_node2"><a xlink:href="classAnfibio.html" target="_top" xlink:title="Classificação base para Anfibios.">
<polygon fill="white" stroke="black" points="142,-172.5 142,-438.5 292,-438.5 292,-172.5 142,-172.5"/>
<text text-anchor="middle" x="217" y="-418.5" font-family="Helvetica,sans-Serif" font-size="20.00">Anfibio</text>
<polyline fill="none" stroke="black" points="142,-408.5 292,-408.5 "/>
<text text-anchor="middle" x="217" y="-388.5" font-family="Helvetica,sans-Serif" font-size="20.00"> </text>
<polyline fill="none" stroke="black" points="142,-378.5 292,-378.5 "/>
<text text-anchor="start" x="150" y="-358.5" font-family="Helvetica,sans-Serif" font-size="20.00">+ Anfibio()</text>
<text text-anchor="start" x="150" y="-336.5" font-family="Helvetica,sans-Serif" font-size="20.00">+ Anfibio()</text>
<text text-anchor="start" x="150" y="-314.5" font-family="Helvetica,sans-Serif" font-size="20.00">+ ~Anfibio()</text>
<text text-anchor="start" x="150" y="-292.5" font-family="Helvetica,sans-Serif" font-size="20.00">+ getCauda()</text>
<text text-anchor="start" x="150" y="-270.5" font-family="Helvetica,sans-Serif" font-size="20.00">+ setCauda()</text>
<text text-anchor="start" x="150" y="-248.5" font-family="Helvetica,sans-Serif" font-size="20.00">+ setCauda()</text>
<text text-anchor="start" x="150" y="-226.5" font-family="Helvetica,sans-Serif" font-size="20.00">+ getPata()</text>
<text text-anchor="start" x="150" y="-204.5" font-family="Helvetica,sans-Serif" font-size="20.00">+ setPata()</text>
<text text-anchor="start" x="150" y="-182.5" font-family="Helvetica,sans-Serif" font-size="20.00">+ setPata()</text>
</a>
</g>
</g>
<!-- Node2&#45;&gt;Node1 -->
<g id="edge1" class="edge">
<title>Node2&#45;&gt;Node1</title>
<path fill="none" stroke="midnightblue" d="M169.5,-162.62C166.27,-152.94 163.1,-143.49 160.1,-134.53"/>
<polygon fill="none" stroke="midnightblue" points="166.27,-163.98 172.77,-172.36 172.91,-161.76 166.27,-163.98"/>
</g>
<!-- Node3 -->
<g id="node3" class="node">
<title>Node3</title>
<g id="a_node3"><a xlink:href="classAnimal.html" target="_top" xlink:title="Implementação base para o cadastro de animais.">
<polygon fill="white" stroke="black" points="313.5,-676.5 313.5,-1052.5 536.5,-1052.5 536.5,-676.5 313.5,-676.5"/>
<text text-anchor="middle" x="425" y="-1032.5" font-family="Helvetica,sans-Serif" font-size="20.00">Animal</text>
<polyline fill="none" stroke="black" points="313.5,-1022.5 536.5,-1022.5 "/>
<text text-anchor="middle" x="425" y="-1002.5" font-family="Helvetica,sans-Serif" font-size="20.00"> </text>
<polyline fill="none" stroke="black" points="313.5,-992.5 536.5,-992.5 "/>
<text text-anchor="start" x="321.5" y="-972.5" font-family="Helvetica,sans-Serif" font-size="20.00">+ Animal()</text>
<text text-anchor="start" x="321.5" y="-950.5" font-family="Helvetica,sans-Serif" font-size="20.00">+ Animal()</text>
<text text-anchor="start" x="321.5" y="-928.5" font-family="Helvetica,sans-Serif" font-size="20.00">+ ~Animal()</text>
<text text-anchor="start" x="321.5" y="-906.5" font-family="Helvetica,sans-Serif" font-size="20.00">+ getNome()</text>
<text text-anchor="start" x="321.5" y="-884.5" font-family="Helvetica,sans-Serif" font-size="20.00">+ getEspecie()</text>
<text text-anchor="start" x="321.5" y="-862.5" font-family="Helvetica,sans-Serif" font-size="20.00">+ getAmeacadoPor()</text>
<text text-anchor="start" x="321.5" y="-840.5" font-family="Helvetica,sans-Serif" font-size="20.00">+ getVeterinario()</text>
<text text-anchor="start" x="321.5" y="-818.5" font-family="Helvetica,sans-Serif" font-size="20.00">+ getTratador()</text>
<text text-anchor="start" x="321.5" y="-796.5" font-family="Helvetica,sans-Serif" font-size="20.00">+ getPerigoso()</text>
<text text-anchor="start" x="321.5" y="-774.5" font-family="Helvetica,sans-Serif" font-size="20.00">+ setNome()</text>
<text text-anchor="start" x="321.5" y="-752.5" font-family="Helvetica,sans-Serif" font-size="20.00">e 13 mais...</text>
<text text-anchor="start" x="321.5" y="-730.5" font-family="Helvetica,sans-Serif" font-size="20.00">+ getClassificacao()</text>
<text text-anchor="start" x="321.5" y="-708.5" font-family="Helvetica,sans-Serif" font-size="20.00">+ getClasse()</text>
<text text-anchor="start" x="321.5" y="-686.5" font-family="Helvetica,sans-Serif" font-size="20.00">+ printOutDetails()</text>
</a>
</g>
</g>
<!-- Node3&#45;&gt;Node2 -->
<g id="edge2" class="edge">
<title>Node3&#45;&gt;Node2</title>
<path fill="none" stroke="midnightblue" d="M351.55,-666.82C323.3,-591.16 291.74,-506.65 266.29,-438.5"/>
<polygon fill="none" stroke="midnightblue" points="348.38,-668.33 355.16,-676.48 354.94,-665.88 348.38,-668.33"/>
</g>
<!-- Node4 -->
<g id="node4" class="node">
<title>Node4</title>
<g id="a_node4"><a xlink:href="classTratador.html" target="_top" xlink:title="Implementação dos tratadores.">
<polygon fill="white" stroke="black" points="250,-1111.5 250,-1333.5 450,-1333.5 450,-1111.5 250,-1111.5"/>
<text text-anchor="middle" x="350" y="-1313.5" font-family="Helvetica,sans-Serif" font-size="20.00">Tratador</text>
<polyline fill="none" stroke="black" points="250,-1303.5 450,-1303.5 "/>
<text text-anchor="middle" x="350" y="-1283.5" font-family="Helvetica,sans-Serif" font-size="20.00"> </text>
<polyline fill="none" stroke="black" points="250,-1273.5 450,-1273.5 "/>
<text text-anchor="start" x="258" y="-1253.5" font-family="Helvetica,sans-Serif" font-size="20.00">+ Tratador()</text>
<text text-anchor="start" x="258" y="-1231.5" font-family="Helvetica,sans-Serif" font-size="20.00">+ Tratador()</text>
<text text-anchor="start" x="258" y="-1209.5" font-family="Helvetica,sans-Serif" font-size="20.00">+ ~Tratador()</text>
<text text-anchor="start" x="258" y="-1187.5" font-family="Helvetica,sans-Serif" font-size="20.00">+ getUniforme()</text>
<text text-anchor="start" x="258" y="-1165.5" font-family="Helvetica,sans-Serif" font-size="20.00">+ setUniforme()</text>
<text text-anchor="start" x="258" y="-1143.5" font-family="Helvetica,sans-Serif" font-size="20.00">+ setUniforme()</text>
<text text-anchor="start" x="258" y="-1121.5" font-family="Helvetica,sans-Serif" font-size="20.00">+ printOutDados()</text>
</a>
</g>
</g>
<!-- Node4&#45;&gt;Node3 -->
<g id="edge3" class="edge">
<title>Node4&#45;&gt;Node3</title>
<path fill="none" stroke="#404040" d="M373.22,-1111.3C376.35,-1096.41 379.65,-1080.77 382.99,-1064.91"/>
<polygon fill="none" stroke="#404040" points="383.08,-1064.49 380.4,-1057.79 385.55,-1052.74 388.23,-1059.44 383.08,-1064.49"/>
<text text-anchor="middle" x="431.5" y="-1077" font-family="Helvetica,sans-Serif" font-size="20.00"> #tratador</text>
</g>
<!-- Node5 -->
<g id="node5" class="node">
<title>Node5</title>
<g id="a_node5"><a xlink:href="classPessoa.html" target="_top" xlink:title="Classe base dos funcionarios.">
<polygon fill="white" stroke="black" points="359,-1436.5 359,-1834.5 559,-1834.5 559,-1436.5 359,-1436.5"/>
<text text-anchor="middle" x="459" y="-1814.5" font-family="Helvetica,sans-Serif" font-size="20.00">Pessoa</text>
<polyline fill="none" stroke="black" points="359,-1804.5 559,-1804.5 "/>
<text text-anchor="middle" x="459" y="-1784.5" font-family="Helvetica,sans-Serif" font-size="20.00"> </text>
<polyline fill="none" stroke="black" points="359,-1774.5 559,-1774.5 "/>
<text text-anchor="start" x="367" y="-1754.5" font-family="Helvetica,sans-Serif" font-size="20.00">+ Pessoa()</text>
<text text-anchor="start" x="367" y="-1732.5" font-family="Helvetica,sans-Serif" font-size="20.00">+ Pessoa()</text>
<text text-anchor="start" x="367" y="-1710.5" font-family="Helvetica,sans-Serif" font-size="20.00">+ ~Pessoa()</text>
<text text-anchor="start" x="367" y="-1688.5" font-family="Helvetica,sans-Serif" font-size="20.00">+ getNome()</text>
<text text-anchor="start" x="367" y="-1666.5" font-family="Helvetica,sans-Serif" font-size="20.00">+ setNome()</text>
<text text-anchor="start" x="367" y="-1644.5" font-family="Helvetica,sans-Serif" font-size="20.00">+ setNome()</text>
<text text-anchor="start" x="367" y="-1622.5" font-family="Helvetica,sans-Serif" font-size="20.00">+ getTelefone()</text>
<text text-anchor="start" x="367" y="-1600.5" font-family="Helvetica,sans-Serif" font-size="20.00">+ setTelefone()</text>
<text text-anchor="start" x="367" y="-1578.5" font-family="Helvetica,sans-Serif" font-size="20.00">+ setTelefone()</text>
<text text-anchor="start" x="367" y="-1556.5" font-family="Helvetica,sans-Serif" font-size="20.00">+ getEmail()</text>
<text text-anchor="start" x="367" y="-1534.5" font-family="Helvetica,sans-Serif" font-size="20.00">+ setEmail()</text>
<text text-anchor="start" x="367" y="-1512.5" font-family="Helvetica,sans-Serif" font-size="20.00">+ setEmail()</text>
<text text-anchor="start" x="367" y="-1490.5" font-family="Helvetica,sans-Serif" font-size="20.00">+ printOutDados()</text>
<text text-anchor="start" x="367" y="-1468.5" font-family="Helvetica,sans-Serif" font-size="20.00">+ operator==()</text>
<text text-anchor="start" x="367" y="-1446.5" font-family="Helvetica,sans-Serif" font-size="20.00">+ operator==()</text>
</a>
</g>
</g>
<!-- Node5&#45;&gt;Node4 -->
<g id="edge4" class="edge">
<title>Node5&#45;&gt;Node4</title>
<path fill="none" stroke="midnightblue" d="M424.51,-1426.32C418.77,-1401.08 412.28,-1375.82 405,-1352 403.16,-1345.97 401.12,-1339.83 398.95,-1333.68"/>
<polygon fill="none" stroke="midnightblue" points="421.16,-1427.37 426.76,-1436.36 427.99,-1425.84 421.16,-1427.37"/>
</g>
<!-- Node9 -->
<g id="node9" class="node">
<title>Node9</title>
<g id="a_node9"><a xlink:href="classVeterinario.html" target="_top" xlink:title="Implementação dos veterinarios.">
<polygon fill="white" stroke="black" points="468,-1111.5 468,-1333.5 668,-1333.5 668,-1111.5 468,-1111.5"/>
<text text-anchor="middle" x="568" y="-1313.5" font-family="Helvetica,sans-Serif" font-size="20.00">Veterinario</text>
<polyline fill="none" stroke="black" points="468,-1303.5 668,-1303.5 "/>
<text text-anchor="middle" x="568" y="-1283.5" font-family="Helvetica,sans-Serif" font-size="20.00"> </text>
<polyline fill="none" stroke="black" points="468,-1273.5 668,-1273.5 "/>
<text text-anchor="start" x="476" y="-1253.5" font-family="Helvetica,sans-Serif" font-size="20.00">+ Veterinario()</text>
<text text-anchor="start" x="476" y="-1231.5" font-family="Helvetica,sans-Serif" font-size="20.00">+ Veterinario()</text>
<text text-anchor="start" x="476" y="-1209.5" font-family="Helvetica,sans-Serif" font-size="20.00">+ ~Veterinario()</text>
<text text-anchor="start" x="476" y="-1187.5" font-family="Helvetica,sans-Serif" font-size="20.00">+ getCRMV()</text>
<text text-anchor="start" x="476" y="-1165.5" font-family="Helvetica,sans-Serif" font-size="20.00">+ setCRMV()</text>
<text text-anchor="start" x="476" y="-1143.5" font-family="Helvetica,sans-Serif" font-size="20.00">+ setCRMV()</text>
<text text-anchor="start" x="476" y="-1121.5" font-family="Helvetica,sans-Serif" font-size="20.00">+ printOutDados()</text>
</a>
</g>
</g>
<!-- Node5&#45;&gt;Node9 -->
<g id="edge10" class="edge">
<title>Node5&#45;&gt;Node9</title>
<path fill="none" stroke="midnightblue" d="M514.22,-1426.29C522.71,-1394.28 531.18,-1362.35 538.79,-1333.62"/>
<polygon fill="none" stroke="midnightblue" points="510.76,-1425.66 511.58,-1436.22 517.53,-1427.45 510.76,-1425.66"/>
</g>
<!-- Node6 -->
<g id="node6" class="node">
<title>Node6</title>
<g id="a_node6"><a xlink:title=" ">
<polygon fill="white" stroke="#bfbfbf" points="558,-1937.5 558,-2027.5 632,-2027.5 632,-1937.5 558,-1937.5"/>
<text text-anchor="middle" x="595" y="-2007.5" font-family="Helvetica,sans-Serif" font-size="20.00">string</text>
<polyline fill="none" stroke="#bfbfbf" points="558,-1997.5 632,-1997.5 "/>
<text text-anchor="middle" x="595" y="-1977.5" font-family="Helvetica,sans-Serif" font-size="20.00"> </text>
<polyline fill="none" stroke="#bfbfbf" points="558,-1967.5 632,-1967.5 "/>
<text text-anchor="middle" x="595" y="-1947.5" font-family="Helvetica,sans-Serif" font-size="20.00"> </text>
</a>
</g>
</g>
<!-- Node6&#45;&gt;Node3 -->
<g id="edge8" class="edge">
<title>Node6&#45;&gt;Node3</title>
<path fill="none" stroke="#404040" d="M622.68,-1937.21C638.65,-1909.08 657.25,-1871.27 666,-1835 741.44,-1522.15 778.77,-1416.3 677,-1111 654.27,-1042.81 599.18,-985.43 546.29,-943.34"/>
<polygon fill="none" stroke="#404040" points="546.25,-943.31 539.06,-942.77 536.8,-935.92 543.99,-936.46 546.25,-943.31"/>
<text text-anchor="middle" x="815" y="-1402" font-family="Helvetica,sans-Serif" font-size="20.00"> #especie</text>
<text text-anchor="middle" x="815" y="-1380" font-family="Helvetica,sans-Serif" font-size="20.00">#ameacadoPor</text>
<text text-anchor="middle" x="815" y="-1358" font-family="Helvetica,sans-Serif" font-size="20.00">#nome</text>
</g>
<!-- Node6&#45;&gt;Node5 -->
<g id="edge5" class="edge">
<title>Node6&#45;&gt;Node5</title>
<path fill="none" stroke="#404040" d="M557.89,-1970.76C532.64,-1961.38 500.85,-1945.11 484,-1919 469.88,-1897.12 460.52,-1872.21 454.57,-1846.48"/>
<polygon fill="none" stroke="#404040" points="454.54,-1846.34 449.39,-1841.29 452.07,-1834.6 457.22,-1839.65 454.54,-1846.34"/>
<text text-anchor="middle" x="532.5" y="-1903" font-family="Helvetica,sans-Serif" font-size="20.00"> #email</text>
<text text-anchor="middle" x="532.5" y="-1881" font-family="Helvetica,sans-Serif" font-size="20.00">#nome</text>
<text text-anchor="middle" x="532.5" y="-1859" font-family="Helvetica,sans-Serif" font-size="20.00">#telefone</text>
</g>
<!-- Node6&#45;&gt;Node9 -->
<g id="edge11" class="edge">
<title>Node6&#45;&gt;Node9</title>
<path fill="none" stroke="#404040" d="M593.43,-1937.47C589.39,-1823.92 578.49,-1518.02 572.35,-1345.74"/>
<polygon fill="none" stroke="#404040" points="572.35,-1345.56 568.14,-1339.71 571.92,-1333.57 576.13,-1339.42 572.35,-1345.56"/>
<text text-anchor="middle" x="625.5" y="-1630.5" font-family="Helvetica,sans-Serif" font-size="20.00"> &#45;CRMV</text>
</g>
<!-- Node7 -->
<g id="node7" class="node">
<title>Node7</title>
<g id="a_node7"><a xlink:title=" ">
<polygon fill="white" stroke="#bfbfbf" points="233.5,-1590.5 233.5,-1680.5 340.5,-1680.5 340.5,-1590.5 233.5,-1590.5"/>
<text text-anchor="middle" x="287" y="-1660.5" font-family="Helvetica,sans-Serif" font-size="20.00">Uniforme</text>
<polyline fill="none" stroke="#bfbfbf" points="233.5,-1650.5 340.5,-1650.5 "/>
<text text-anchor="middle" x="287" y="-1630.5" font-family="Helvetica,sans-Serif" font-size="20.00"> </text>
<polyline fill="none" stroke="#bfbfbf" points="233.5,-1620.5 340.5,-1620.5 "/>
<text text-anchor="middle" x="287" y="-1600.5" font-family="Helvetica,sans-Serif" font-size="20.00"> </text>
</a>
</g>
</g>
<!-- Node7&#45;&gt;Node4 -->
<g id="edge6" class="edge">
<title>Node7&#45;&gt;Node4</title>
<path fill="none" stroke="#404040" d="M285.23,-1590.41C283.92,-1534.38 284.73,-1434.94 302,-1352 302.45,-1349.82 302.94,-1347.63 303.45,-1345.43"/>
<polygon fill="none" stroke="#404040" points="303.5,-1345.25 301.09,-1338.45 306.44,-1333.61 308.85,-1340.41 303.5,-1345.25"/>
<text text-anchor="middle" x="353.5" y="-1380" font-family="Helvetica,sans-Serif" font-size="20.00"> &#45;uniforme</text>
</g>
<!-- Node8 -->
<g id="node8" class="node">
<title>Node8</title>
<g id="a_node8"><a xlink:title=" ">
<polygon fill="white" stroke="#bfbfbf" points="172.5,-1177.5 172.5,-1267.5 231.5,-1267.5 231.5,-1177.5 172.5,-1177.5"/>
<text text-anchor="middle" x="202" y="-1247.5" font-family="Helvetica,sans-Serif" font-size="20.00">bool</text>
<polyline fill="none" stroke="#bfbfbf" points="172.5,-1237.5 231.5,-1237.5 "/>
<text text-anchor="middle" x="202" y="-1217.5" font-family="Helvetica,sans-Serif" font-size="20.00"> </text>
<polyline fill="none" stroke="#bfbfbf" points="172.5,-1207.5 231.5,-1207.5 "/>
<text text-anchor="middle" x="202" y="-1187.5" font-family="Helvetica,sans-Serif" font-size="20.00"> </text>
</a>
</g>
</g>
<!-- Node8&#45;&gt;Node2 -->
<g id="edge12" class="edge">
<title>Node8&#45;&gt;Node2</title>
<path fill="none" stroke="#404040" d="M202.72,-1177.37C204.85,-1047.54 211.16,-662.74 214.64,-450.7"/>
<polygon fill="none" stroke="#404040" points="214.64,-450.55 210.74,-444.49 214.84,-438.55 218.74,-444.62 214.64,-450.55"/>
<text text-anchor="middle" x="249" y="-870.5" font-family="Helvetica,sans-Serif" font-size="20.00"> #pata</text>
<text text-anchor="middle" x="249" y="-848.5" font-family="Helvetica,sans-Serif" font-size="20.00">#cauda</text>
</g>
<!-- Node8&#45;&gt;Node3 -->
<g id="edge7" class="edge">
<title>Node8&#45;&gt;Node3</title>
<path fill="none" stroke="#404040" d="M215.31,-1177.39C222.08,-1156.83 230.99,-1132.26 241,-1111 249.83,-1092.24 249.95,-1085.26 265,-1071 277.41,-1059.24 286.29,-1064.44 299,-1053 300.8,-1051.38 302.59,-1049.72 304.37,-1048.04"/>
<polygon fill="none" stroke="#404040" points="304.59,-1047.82 306.05,-1040.76 313.13,-1039.39 311.67,-1046.46 304.59,-1047.82"/>
<text text-anchor="middle" x="319.5" y="-1077" font-family="Helvetica,sans-Serif" font-size="20.00"> #perigoso</text>
</g>
<!-- Node10 -->
<g id="node10" class="node">
<title>Node10</title>
<g id="a_node10"><a xlink:href="classDomestico.html" target="_top" xlink:title="Umas das definições de categoria para Animal.">
<polygon fill="white" stroke="black" points="0,-457.5 0,-657.5 188,-657.5 188,-457.5 0,-457.5"/>
<text text-anchor="middle" x="94" y="-637.5" font-family="Helvetica,sans-Serif" font-size="20.00">Domestico</text>
<polyline fill="none" stroke="black" points="0,-627.5 188,-627.5 "/>
<text text-anchor="middle" x="94" y="-607.5" font-family="Helvetica,sans-Serif" font-size="20.00"> </text>
<polyline fill="none" stroke="black" points="0,-597.5 188,-597.5 "/>
<text text-anchor="start" x="8" y="-577.5" font-family="Helvetica,sans-Serif" font-size="20.00">+ Domestico()</text>
<text text-anchor="start" x="8" y="-555.5" font-family="Helvetica,sans-Serif" font-size="20.00">+ Domestico()</text>
<text text-anchor="start" x="8" y="-533.5" font-family="Helvetica,sans-Serif" font-size="20.00">+ ~Domestico()</text>
<text text-anchor="start" x="8" y="-511.5" font-family="Helvetica,sans-Serif" font-size="20.00">+ getAdestrado()</text>
<text text-anchor="start" x="8" y="-489.5" font-family="Helvetica,sans-Serif" font-size="20.00">+ setAdestrado()</text>
<text text-anchor="start" x="8" y="-467.5" font-family="Helvetica,sans-Serif" font-size="20.00">+ setAdestrado()</text>
</a>
</g>
</g>
<!-- Node8&#45;&gt;Node10 -->
<g id="edge14" class="edge">
<title>Node8&#45;&gt;Node10</title>
<path fill="none" stroke="#404040" d="M172.48,-1201.18C142.69,-1178.69 98.53,-1139.43 80,-1093 24.97,-955.12 44.16,-780.92 66.31,-669.59"/>
<polygon fill="none" stroke="#404040" points="66.34,-669.43 63.62,-662.75 68.74,-657.67 71.46,-664.35 66.34,-669.43"/>
<text text-anchor="middle" x="141.5" y="-1077" font-family="Helvetica,sans-Serif" font-size="20.00"> #adestrado</text>
</g>
<!-- Node9&#45;&gt;Node3 -->
<g id="edge9" class="edge">
<title>Node9&#45;&gt;Node3</title>
<path fill="none" stroke="#404040" d="M523.73,-1111.3C517.64,-1096.12 511.23,-1080.16 504.73,-1063.98"/>
<polygon fill="none" stroke="#404040" points="504.69,-1063.88 498.74,-1059.8 500.21,-1052.74 506.16,-1056.82 504.69,-1063.88"/>
<text text-anchor="middle" x="578" y="-1077" font-family="Helvetica,sans-Serif" font-size="20.00"> #veterinario</text>
</g>
<!-- Node10&#45;&gt;Node1 -->
<g id="edge13" class="edge">
<title>Node10&#45;&gt;Node1</title>
<path fill="none" stroke="midnightblue" d="M103.83,-447.42C112.49,-351.46 124.8,-214.89 132.04,-134.61"/>
<polygon fill="none" stroke="midnightblue" points="100.34,-447.18 102.93,-457.45 107.31,-447.81 100.34,-447.18"/>
</g>
</g>
</svg>
