<?xml version="1.0" encoding="UTF-8" standalone="no"?>
<!DOCTYPE svg PUBLIC "-//W3C//DTD SVG 1.1//EN"
 "http://www.w3.org/Graphics/SVG/1.1/DTD/svg11.dtd">
<!-- Generated by graphviz version 2.43.0 (0)
 -->
<!-- Title: ReptilExotico Pages: 1 -->
<!--zoomable 1596 -->
<svg id="main" version="1.1" xmlns="http://www.w3.org/2000/svg" xmlns:xlink="http://www.w3.org/1999/xlink" xml:space="preserve" onload="init(evt)">
<style type="text/css"><![CDATA[
.edge:hover path { stroke: red; }
.edge:hover polygon { stroke: red; fill: red; }
]]></style>
<script type="text/javascript"><![CDATA[
var edges = document.getElementsByTagName('g');
if (edges && edges.length) {
  for (var i=0;i<edges.length;i++) {
    if (edges[i].id.substr(0,4)=='edge') {
      edges[i].setAttribute('class','edge');
    }
  }
}
]]></script>
        <defs>
                <circle id="rim" cx="0" cy="0" r="7"/>
                <circle id="rim2" cx="0" cy="0" r="3.5"/>
                <g id="zoomPlus">
                        <use xlink:href="#rim" fill="#404040">
                                <set attributeName="fill" to="#808080" begin="zoomplus.mouseover" end="zoomplus.mouseout"/>
                        </use>
                        <path d="M-4,0h8M0,-4v8" fill="none" stroke="white" stroke-width="1.5" pointer-events="none"/>
                </g>
                <g id="zoomMin">
                        <use xlink:href="#rim" fill="#404040">
                                <set attributeName="fill" to="#808080" begin="zoomminus.mouseover" end="zoomminus.mouseout"/>
                        </use>
                        <path d="M-4,0h8" fill="none" stroke="white" stroke-width="1.5" pointer-events="none"/>
                </g>
                <g id="dirArrow">
                        <path fill="none" stroke="white" stroke-width="1.5" d="M0,-3.0v7 M-2.5,-0.5L0,-3.0L2.5,-0.5"/>
                </g>
               <g id="resetDef">
                       <use xlink:href="#rim2" fill="#404040">
                               <set attributeName="fill" to="#808080" begin="reset.mouseover" end="reset.mouseout"/>
                       </use>
               </g>
        </defs>

<script type="text/javascript">
var viewWidth = 700;
var viewHeight = 1596;
var sectionId = 'dynsection-1';
</script>
<script xlink:href="svgpan.js"/>
<svg id="graph" class="graph">
<g id="viewport">
<title>ReptilExotico</title>
<polygon fill="white" stroke="transparent" points="-4,4 -4,-1592 695.66,-1592 695.66,4 -4,4"/>
<!-- Node1 -->
<g id="node1" class="node">
<title>Node1</title>
<g id="a_node1"><a xlink:title="Implementação de animal com Classe e Categoria.">
<polygon fill="#bfbfbf" stroke="black" points="401.16,-0.5 401.16,-112.5 599.16,-112.5 599.16,-0.5 401.16,-0.5"/>
<text text-anchor="middle" x="500.16" y="-92.5" font-family="Helvetica,sans-Serif" font-size="20.00">ReptilExotico</text>
<polyline fill="none" stroke="black" points="401.16,-82.5 599.16,-82.5 "/>
<text text-anchor="middle" x="500.16" y="-62.5" font-family="Helvetica,sans-Serif" font-size="20.00"> </text>
<polyline fill="none" stroke="black" points="401.16,-52.5 599.16,-52.5 "/>
<text text-anchor="start" x="409.16" y="-32.5" font-family="Helvetica,sans-Serif" font-size="20.00">+ ReptilExotico()</text>
<text text-anchor="start" x="409.16" y="-10.5" font-family="Helvetica,sans-Serif" font-size="20.00">+ ~ReptilExotico()</text>
</a>
</g>
</g>
<!-- Node2 -->
<g id="node2" class="node">
<title>Node2</title>
<g id="a_node2"><a xlink:href="classReptil.html" target="_top" xlink:title="Classificação base para Repteis.">
<polygon fill="white" stroke="black" points="298.66,-150.5 298.66,-306.5 425.66,-306.5 425.66,-150.5 298.66,-150.5"/>
<text text-anchor="middle" x="362.16" y="-286.5" font-family="Helvetica,sans-Serif" font-size="20.00">Reptil</text>
<polyline fill="none" stroke="black" points="298.66,-276.5 425.66,-276.5 "/>
<text text-anchor="middle" x="362.16" y="-256.5" font-family="Helvetica,sans-Serif" font-size="20.00"> </text>
<polyline fill="none" stroke="black" points="298.66,-246.5 425.66,-246.5 "/>
<text text-anchor="start" x="306.66" y="-226.5" font-family="Helvetica,sans-Serif" font-size="20.00">+ Reptil()</text>
<text text-anchor="start" x="306.66" y="-204.5" font-family="Helvetica,sans-Serif" font-size="20.00">+ Reptil()</text>
<text text-anchor="start" x="306.66" y="-182.5" font-family="Helvetica,sans-Serif" font-size="20.00">+ ~Reptil()</text>
<text text-anchor="start" x="306.66" y="-160.5" font-family="Helvetica,sans-Serif" font-size="20.00">+ getPele()</text>
</a>
</g>
</g>
<!-- Node2&#45;&gt;Node1 -->
<g id="edge1" class="edge">
<title>Node2&#45;&gt;Node1</title>
<path fill="none" stroke="midnightblue" d="M431.21,-142.43C439.35,-132.41 447.48,-122.39 455.16,-112.93"/>
<polygon fill="none" stroke="midnightblue" points="428.28,-140.49 424.7,-150.46 433.72,-144.9 428.28,-140.49"/>
</g>
<!-- Node3 -->
<g id="node3" class="node">
<title>Node3</title>
<g id="a_node3"><a xlink:href="classAnimal.html" target="_top" xlink:title="Implementação base para o cadastro de animais.">
<polygon fill="white" stroke="black" points="250.66,-365.5 250.66,-719.5 473.66,-719.5 473.66,-365.5 250.66,-365.5"/>
<text text-anchor="middle" x="362.16" y="-699.5" font-family="Helvetica,sans-Serif" font-size="20.00">Animal</text>
<polyline fill="none" stroke="black" points="250.66,-689.5 473.66,-689.5 "/>
<text text-anchor="middle" x="362.16" y="-669.5" font-family="Helvetica,sans-Serif" font-size="20.00"> </text>
<polyline fill="none" stroke="black" points="250.66,-659.5 473.66,-659.5 "/>
<text text-anchor="start" x="258.66" y="-639.5" font-family="Helvetica,sans-Serif" font-size="20.00">+ Animal()</text>
<text text-anchor="start" x="258.66" y="-617.5" font-family="Helvetica,sans-Serif" font-size="20.00">+ Animal()</text>
<text text-anchor="start" x="258.66" y="-595.5" font-family="Helvetica,sans-Serif" font-size="20.00">+ ~Animal()</text>
<text text-anchor="start" x="258.66" y="-573.5" font-family="Helvetica,sans-Serif" font-size="20.00">+ getNome()</text>
<text text-anchor="start" x="258.66" y="-551.5" font-family="Helvetica,sans-Serif" font-size="20.00">+ getEspecie()</text>
<text text-anchor="start" x="258.66" y="-529.5" font-family="Helvetica,sans-Serif" font-size="20.00">+ getAmeacadoPor()</text>
<text text-anchor="start" x="258.66" y="-507.5" font-family="Helvetica,sans-Serif" font-size="20.00">+ getVeterinario()</text>
<text text-anchor="start" x="258.66" y="-485.5" font-family="Helvetica,sans-Serif" font-size="20.00">+ getTratador()</text>
<text text-anchor="start" x="258.66" y="-463.5" font-family="Helvetica,sans-Serif" font-size="20.00">+ getPerigoso()</text>
<text text-anchor="start" x="258.66" y="-441.5" font-family="Helvetica,sans-Serif" font-size="20.00">+ getClassificacao()</text>
<text text-anchor="start" x="258.66" y="-419.5" font-family="Helvetica,sans-Serif" font-size="20.00">+ getClasse()</text>
<text text-anchor="start" x="258.66" y="-397.5" font-family="Helvetica,sans-Serif" font-size="20.00">+ printOutDados()</text>
<text text-anchor="start" x="258.66" y="-375.5" font-family="Helvetica,sans-Serif" font-size="20.00">+ operator==()</text>
</a>
</g>
</g>
<!-- Node3&#45;&gt;Node2 -->
<g id="edge2" class="edge">
<title>Node3&#45;&gt;Node2</title>
<path fill="none" stroke="midnightblue" d="M362.16,-355.35C362.16,-338.29 362.16,-321.74 362.16,-306.55"/>
<polygon fill="none" stroke="midnightblue" points="358.66,-355.44 362.16,-365.44 365.66,-355.44 358.66,-355.44"/>
</g>
<!-- Node4 -->
<g id="node4" class="node">
<title>Node4</title>
<g id="a_node4"><a xlink:href="classTratador.html" target="_top" xlink:title="Implementação dos tratadores.">
<polygon fill="white" stroke="black" points="82.16,-778.5 82.16,-956.5 282.16,-956.5 282.16,-778.5 82.16,-778.5"/>
<text text-anchor="middle" x="182.16" y="-936.5" font-family="Helvetica,sans-Serif" font-size="20.00">Tratador</text>
<polyline fill="none" stroke="black" points="82.16,-926.5 282.16,-926.5 "/>
<text text-anchor="middle" x="182.16" y="-906.5" font-family="Helvetica,sans-Serif" font-size="20.00"> </text>
<polyline fill="none" stroke="black" points="82.16,-896.5 282.16,-896.5 "/>
<text text-anchor="start" x="90.16" y="-876.5" font-family="Helvetica,sans-Serif" font-size="20.00">+ Tratador()</text>
<text text-anchor="start" x="90.16" y="-854.5" font-family="Helvetica,sans-Serif" font-size="20.00">+ Tratador()</text>
<text text-anchor="start" x="90.16" y="-832.5" font-family="Helvetica,sans-Serif" font-size="20.00">+ ~Tratador()</text>
<text text-anchor="start" x="90.16" y="-810.5" font-family="Helvetica,sans-Serif" font-size="20.00">+ getUniforme()</text>
<text text-anchor="start" x="90.16" y="-788.5" font-family="Helvetica,sans-Serif" font-size="20.00">+ printOutDados()</text>
</a>
</g>
</g>
<!-- Node4&#45;&gt;Node3 -->
<g id="edge3" class="edge">
<title>Node4&#45;&gt;Node3</title>
<path fill="none" stroke="#404040" d="M231.34,-778.24C239.76,-763.15 248.77,-746.97 257.99,-730.43"/>
<polygon fill="none" stroke="#404040" points="258.23,-730 257.65,-722.81 264.07,-719.52 264.64,-726.71 258.23,-730"/>
<text text-anchor="middle" x="302.66" y="-744" font-family="Helvetica,sans-Serif" font-size="20.00"> #tratador</text>
</g>
<!-- Node5 -->
<g id="node5" class="node">
<title>Node5</title>
<g id="a_node5"><a xlink:href="classPessoa.html" target="_top" xlink:title="Classe base dos funcionarios.">
<polygon fill="white" stroke="black" points="261.16,-1150.5 261.16,-1394.5 461.16,-1394.5 461.16,-1150.5 261.16,-1150.5"/>
<text text-anchor="middle" x="361.16" y="-1374.5" font-family="Helvetica,sans-Serif" font-size="20.00">Pessoa</text>
<polyline fill="none" stroke="black" points="261.16,-1364.5 461.16,-1364.5 "/>
<text text-anchor="middle" x="361.16" y="-1344.5" font-family="Helvetica,sans-Serif" font-size="20.00"> </text>
<polyline fill="none" stroke="black" points="261.16,-1334.5 461.16,-1334.5 "/>
<text text-anchor="start" x="269.16" y="-1314.5" font-family="Helvetica,sans-Serif" font-size="20.00">+ Pessoa()</text>
<text text-anchor="start" x="269.16" y="-1292.5" font-family="Helvetica,sans-Serif" font-size="20.00">+ Pessoa()</text>
<text text-anchor="start" x="269.16" y="-1270.5" font-family="Helvetica,sans-Serif" font-size="20.00">+ ~Pessoa()</text>
<text text-anchor="start" x="269.16" y="-1248.5" font-family="Helvetica,sans-Serif" font-size="20.00">+ getNome()</text>
<text text-anchor="start" x="269.16" y="-1226.5" font-family="Helvetica,sans-Serif" font-size="20.00">+ getTelefone()</text>
<text text-anchor="start" x="269.16" y="-1204.5" font-family="Helvetica,sans-Serif" font-size="20.00">+ getEmail()</text>
<text text-anchor="start" x="269.16" y="-1182.5" font-family="Helvetica,sans-Serif" font-size="20.00">+ printOutDados()</text>
<text text-anchor="start" x="269.16" y="-1160.5" font-family="Helvetica,sans-Serif" font-size="20.00">+ operator==()</text>
</a>
</g>
</g>
<!-- Node5&#45;&gt;Node4 -->
<g id="edge4" class="edge">
<title>Node5&#45;&gt;Node4</title>
<path fill="none" stroke="midnightblue" d="M348.4,-1140.27C338.98,-1086.43 322.61,-1025.12 294.16,-975 290.58,-968.7 286.51,-962.54 282.1,-956.57"/>
<polygon fill="none" stroke="midnightblue" points="344.97,-1140.95 350.08,-1150.23 351.87,-1139.78 344.97,-1140.95"/>
</g>
<!-- Node9 -->
<g id="node9" class="node">
<title>Node9</title>
<g id="a_node9"><a xlink:href="classVeterinario.html" target="_top" xlink:title="Implementação dos veterinarios.">
<polygon fill="white" stroke="black" points="300.16,-778.5 300.16,-956.5 500.16,-956.5 500.16,-778.5 300.16,-778.5"/>
<text text-anchor="middle" x="400.16" y="-936.5" font-family="Helvetica,sans-Serif" font-size="20.00">Veterinario</text>
<polyline fill="none" stroke="black" points="300.16,-926.5 500.16,-926.5 "/>
<text text-anchor="middle" x="400.16" y="-906.5" font-family="Helvetica,sans-Serif" font-size="20.00"> </text>
<polyline fill="none" stroke="black" points="300.16,-896.5 500.16,-896.5 "/>
<text text-anchor="start" x="308.16" y="-876.5" font-family="Helvetica,sans-Serif" font-size="20.00">+ Veterinario()</text>
<text text-anchor="start" x="308.16" y="-854.5" font-family="Helvetica,sans-Serif" font-size="20.00">+ Veterinario()</text>
<text text-anchor="start" x="308.16" y="-832.5" font-family="Helvetica,sans-Serif" font-size="20.00">+ ~Veterinario()</text>
<text text-anchor="start" x="308.16" y="-810.5" font-family="Helvetica,sans-Serif" font-size="20.00">+ getCRMV()</text>
<text text-anchor="start" x="308.16" y="-788.5" font-family="Helvetica,sans-Serif" font-size="20.00">+ printOutDados()</text>
</a>
</g>
</g>
<!-- Node5&#45;&gt;Node9 -->
<g id="edge10" class="edge">
<title>Node5&#45;&gt;Node9</title>
<path fill="none" stroke="midnightblue" d="M373.85,-1140.35C379.68,-1080.14 386.43,-1010.34 391.64,-956.55"/>
<polygon fill="none" stroke="midnightblue" points="370.37,-1140.02 372.89,-1150.31 377.33,-1140.7 370.37,-1140.02"/>
</g>
<!-- Node6 -->
<g id="node6" class="node">
<title>Node6</title>
<g id="a_node6"><a xlink:title=" ">
<polygon fill="white" stroke="#bfbfbf" points="404.16,-1497.5 404.16,-1587.5 478.16,-1587.5 478.16,-1497.5 404.16,-1497.5"/>
<text text-anchor="middle" x="441.16" y="-1567.5" font-family="Helvetica,sans-Serif" font-size="20.00">string</text>
<polyline fill="none" stroke="#bfbfbf" points="404.16,-1557.5 478.16,-1557.5 "/>
<text text-anchor="middle" x="441.16" y="-1537.5" font-family="Helvetica,sans-Serif" font-size="20.00"> </text>
<polyline fill="none" stroke="#bfbfbf" points="404.16,-1527.5 478.16,-1527.5 "/>
<text text-anchor="middle" x="441.16" y="-1507.5" font-family="Helvetica,sans-Serif" font-size="20.00"> </text>
</a>
</g>
</g>
<!-- Node6&#45;&gt;Node3 -->
<g id="edge8" class="edge">
<title>Node6&#45;&gt;Node3</title>
<path fill="none" stroke="#404040" d="M404.14,-1533.97C339.07,-1518.88 203.74,-1478.93 126.16,-1395 41.49,-1303.4 50.29,-1254.76 28.16,-1132 0.02,-975.92 -32.78,-896.03 73.16,-778 123.45,-721.97 173.42,-763.55 240.32,-719.72"/>
<polygon fill="none" stroke="#404040" points="240.53,-719.57 243.11,-712.83 250.31,-712.61 247.74,-719.35 240.53,-719.57"/>
<text text-anchor="middle" x="104.16" y="-1070.5" font-family="Helvetica,sans-Serif" font-size="20.00"> #especie</text>
<text text-anchor="middle" x="104.16" y="-1048.5" font-family="Helvetica,sans-Serif" font-size="20.00">#ameacadoPor</text>
<text text-anchor="middle" x="104.16" y="-1026.5" font-family="Helvetica,sans-Serif" font-size="20.00">#nome</text>
</g>
<!-- Node6&#45;&gt;Node5 -->
<g id="edge5" class="edge">
<title>Node6&#45;&gt;Node5</title>
<path fill="none" stroke="#404040" d="M403.92,-1506.45C396.97,-1498.1 390.53,-1488.76 386.16,-1479 376.12,-1456.59 369.65,-1431.51 365.57,-1406.77"/>
<polygon fill="none" stroke="#404040" points="365.54,-1406.54 360.69,-1401.2 363.76,-1394.67 368.6,-1400.01 365.54,-1406.54"/>
<text text-anchor="middle" x="434.66" y="-1463" font-family="Helvetica,sans-Serif" font-size="20.00"> #email</text>
<text text-anchor="middle" x="434.66" y="-1441" font-family="Helvetica,sans-Serif" font-size="20.00">#nome</text>
<text text-anchor="middle" x="434.66" y="-1419" font-family="Helvetica,sans-Serif" font-size="20.00">#telefone</text>
</g>
<!-- Node6&#45;&gt;Node9 -->
<g id="edge11" class="edge">
<title>Node6&#45;&gt;Node9</title>
<path fill="none" stroke="#404040" d="M475.28,-1497.37C478.49,-1491.45 481.25,-1485.25 483.16,-1479 491.71,-1450.94 483.88,-1442.32 483.16,-1413 480.27,-1296 487.25,-1265.78 470.16,-1150 461.15,-1088.98 444.74,-1021.91 430.07,-968.54"/>
<polygon fill="none" stroke="#404040" points="429.99,-968.24 424.53,-963.53 426.77,-956.68 432.23,-961.39 429.99,-968.24"/>
<text text-anchor="middle" x="519.66" y="-1267.5" font-family="Helvetica,sans-Serif" font-size="20.00"> &#45;CRMV</text>
</g>
<!-- Node11 -->
<g id="node11" class="node">
<title>Node11</title>
<g id="a_node11"><a xlink:href="classExotico.html" target="_top" xlink:title="Umas das definições de categoria para Animal.">
<polygon fill="white" stroke="black" points="548.66,-975.5 548.66,-1131.5 691.66,-1131.5 691.66,-975.5 548.66,-975.5"/>
<text text-anchor="middle" x="620.16" y="-1111.5" font-family="Helvetica,sans-Serif" font-size="20.00">Exotico</text>
<polyline fill="none" stroke="black" points="548.66,-1101.5 691.66,-1101.5 "/>
<text text-anchor="middle" x="620.16" y="-1081.5" font-family="Helvetica,sans-Serif" font-size="20.00"> </text>
<polyline fill="none" stroke="black" points="548.66,-1071.5 691.66,-1071.5 "/>
<text text-anchor="start" x="556.66" y="-1051.5" font-family="Helvetica,sans-Serif" font-size="20.00">+ Exotico()</text>
<text text-anchor="start" x="556.66" y="-1029.5" font-family="Helvetica,sans-Serif" font-size="20.00">+ Exotico()</text>
<text text-anchor="start" x="556.66" y="-1007.5" font-family="Helvetica,sans-Serif" font-size="20.00">+ ~Exotico()</text>
<text text-anchor="start" x="556.66" y="-985.5" font-family="Helvetica,sans-Serif" font-size="20.00">+ getLocal()</text>
</a>
</g>
</g>
<!-- Node6&#45;&gt;Node11 -->
<g id="edge14" class="edge">
<title>Node6&#45;&gt;Node11</title>
<path fill="none" stroke="#404040" d="M478.43,-1513.32C510.33,-1486.74 554.17,-1443.79 574.16,-1395 607.23,-1314.29 617.53,-1214.69 620.28,-1144.12"/>
<polygon fill="none" stroke="#404040" points="620.29,-1143.72 616.5,-1137.59 620.7,-1131.73 624.49,-1137.86 620.29,-1143.72"/>
<text text-anchor="middle" x="598.66" y="-1441" font-family="Helvetica,sans-Serif" font-size="20.00"> #local</text>
</g>
<!-- Node7 -->
<g id="node7" class="node">
<title>Node7</title>
<g id="a_node7"><a xlink:title=" ">
<polygon fill="white" stroke="#bfbfbf" points="135.66,-1227.5 135.66,-1317.5 242.66,-1317.5 242.66,-1227.5 135.66,-1227.5"/>
<text text-anchor="middle" x="189.16" y="-1297.5" font-family="Helvetica,sans-Serif" font-size="20.00">Uniforme</text>
<polyline fill="none" stroke="#bfbfbf" points="135.66,-1287.5 242.66,-1287.5 "/>
<text text-anchor="middle" x="189.16" y="-1267.5" font-family="Helvetica,sans-Serif" font-size="20.00"> </text>
<polyline fill="none" stroke="#bfbfbf" points="135.66,-1257.5 242.66,-1257.5 "/>
<text text-anchor="middle" x="189.16" y="-1237.5" font-family="Helvetica,sans-Serif" font-size="20.00"> </text>
</a>
</g>
</g>
<!-- Node7&#45;&gt;Node4 -->
<g id="edge6" class="edge">
<title>Node7&#45;&gt;Node4</title>
<path fill="none" stroke="#404040" d="M188.39,-1227.22C187.32,-1165.5 185.34,-1051.89 183.9,-969.01"/>
<polygon fill="none" stroke="#404040" points="183.9,-968.76 179.8,-962.83 183.69,-956.76 187.8,-962.69 183.9,-968.76"/>
<text text-anchor="middle" x="238.66" y="-1048.5" font-family="Helvetica,sans-Serif" font-size="20.00"> &#45;uniforme</text>
</g>
<!-- Node8 -->
<g id="node8" class="node">
<title>Node8</title>
<g id="a_node8"><a xlink:title=" ">
<polygon fill="white" stroke="#bfbfbf" points="518.66,-822.5 518.66,-912.5 577.66,-912.5 577.66,-822.5 518.66,-822.5"/>
<text text-anchor="middle" x="548.16" y="-892.5" font-family="Helvetica,sans-Serif" font-size="20.00">bool</text>
<polyline fill="none" stroke="#bfbfbf" points="518.66,-882.5 577.66,-882.5 "/>
<text text-anchor="middle" x="548.16" y="-862.5" font-family="Helvetica,sans-Serif" font-size="20.00"> </text>
<polyline fill="none" stroke="#bfbfbf" points="518.66,-852.5 577.66,-852.5 "/>
<text text-anchor="middle" x="548.16" y="-832.5" font-family="Helvetica,sans-Serif" font-size="20.00"> </text>
</a>
</g>
</g>
<!-- Node8&#45;&gt;Node3 -->
<g id="edge7" class="edge">
<title>Node8&#45;&gt;Node3</title>
<path fill="none" stroke="#404040" d="M531.68,-822.41C521.65,-797.15 507.95,-765.17 493.16,-738 488.93,-730.23 484.47,-722.38 479.86,-714.52"/>
<polygon fill="none" stroke="#404040" points="479.85,-714.49 473.34,-711.38 473.71,-704.18 480.22,-707.29 479.85,-714.49"/>
<text text-anchor="middle" x="558.66" y="-744" font-family="Helvetica,sans-Serif" font-size="20.00"> #perigoso</text>
</g>
<!-- Node9&#45;&gt;Node3 -->
<g id="edge9" class="edge">
<title>Node9&#45;&gt;Node3</title>
<path fill="none" stroke="#404040" d="M367.1,-778.46C365.54,-772.27 364.2,-766.08 363.16,-760 361.59,-750.82 360.31,-741.38 359.29,-731.83"/>
<polygon fill="none" stroke="#404040" points="359.27,-731.63 354.71,-726.04 358.12,-719.68 362.68,-725.27 359.27,-731.63"/>
<text text-anchor="middle" x="428.16" y="-744" font-family="Helvetica,sans-Serif" font-size="20.00"> #veterinario</text>
</g>
<!-- Node10 -->
<g id="node10" class="node">
<title>Node10</title>
<g id="a_node10"><a xlink:title=" ">
<polygon fill="white" stroke="#bfbfbf" points="175.66,-497.5 175.66,-587.5 232.66,-587.5 232.66,-497.5 175.66,-497.5"/>
<text text-anchor="middle" x="204.16" y="-567.5" font-family="Helvetica,sans-Serif" font-size="20.00">Pele</text>
<polyline fill="none" stroke="#bfbfbf" points="175.66,-557.5 232.66,-557.5 "/>
<text text-anchor="middle" x="204.16" y="-537.5" font-family="Helvetica,sans-Serif" font-size="20.00"> </text>
<polyline fill="none" stroke="#bfbfbf" points="175.66,-527.5 232.66,-527.5 "/>
<text text-anchor="middle" x="204.16" y="-507.5" font-family="Helvetica,sans-Serif" font-size="20.00"> </text>
</a>
</g>
</g>
<!-- Node10&#45;&gt;Node2 -->
<g id="edge12" class="edge">
<title>Node10&#45;&gt;Node2</title>
<path fill="none" stroke="#404040" d="M207.04,-497.34C210.92,-460.31 219.98,-406.92 241.16,-365 253.67,-340.23 271.87,-316.49 290.38,-295.98"/>
<polygon fill="none" stroke="#404040" points="290.45,-295.91 291.59,-288.79 298.6,-287.1 297.46,-294.22 290.45,-295.91"/>
<text text-anchor="middle" x="297.66" y="-331" font-family="Helvetica,sans-Serif" font-size="20.00"> #pele</text>
</g>
<!-- Node11&#45;&gt;Node1 -->
<g id="edge13" class="edge">
<title>Node11&#45;&gt;Node1</title>
<path fill="none" stroke="midnightblue" d="M628.55,-965.24C633.64,-904.87 639.16,-822.62 639.16,-750 639.16,-750 639.16,-750 639.16,-227.5 639.16,-182.32 609.38,-142.54 577.38,-112.85"/>
<polygon fill="none" stroke="midnightblue" points="625.03,-965.24 627.67,-975.5 632.01,-965.83 625.03,-965.24"/>
</g>
</g>
</svg>
        <g id="navigator" transform="translate(0 0)" fill="#404254">
                <rect fill="#f2f5e9" fill-opacity="0.5" stroke="#606060" stroke-width=".5" x="0" y="0" width="60" height="60"/>
                <use id="zoomplus" xlink:href="#zoomPlus" x="17" y="9" onmousedown="handleZoom(evt,'in')"/>
                <use id="zoomminus" xlink:href="#zoomMin" x="42" y="9" onmousedown="handleZoom(evt,'out')"/>
                <use id="reset" xlink:href="#resetDef" x="30" y="36" onmousedown="handleReset()"/>
                <g id="arrowUp" xlink:href="#dirArrow" transform="translate(30 24)" onmousedown="handlePan(0,-1)">
                  <use xlink:href="#rim" fill="#404040">
                        <set attributeName="fill" to="#808080" begin="arrowUp.mouseover" end="arrowUp.mouseout"/>
                  </use>
                  <path fill="none" stroke="white" stroke-width="1.5" d="M0,-3.0v7 M-2.5,-0.5L0,-3.0L2.5,-0.5"/>
                </g>
                <g id="arrowRight" xlink:href="#dirArrow" transform="rotate(90) translate(36 -43)" onmousedown="handlePan(1,0)">
                  <use xlink:href="#rim" fill="#404040">
                        <set attributeName="fill" to="#808080" begin="arrowRight.mouseover" end="arrowRight.mouseout"/>
                  </use>
                  <path fill="none" stroke="white" stroke-width="1.5" d="M0,-3.0v7 M-2.5,-0.5L0,-3.0L2.5,-0.5"/>
                </g>
                <g id="arrowDown" xlink:href="#dirArrow" transform="rotate(180) translate(-30 -48)" onmousedown="handlePan(0,1)">
                  <use xlink:href="#rim" fill="#404040">
                        <set attributeName="fill" to="#808080" begin="arrowDown.mouseover" end="arrowDown.mouseout"/>
                  </use>
                  <path fill="none" stroke="white" stroke-width="1.5" d="M0,-3.0v7 M-2.5,-0.5L0,-3.0L2.5,-0.5"/>
                </g>
                <g id="arrowLeft" xlink:href="#dirArrow" transform="rotate(270) translate(-36 17)" onmousedown="handlePan(-1,0)">
                  <use xlink:href="#rim" fill="#404040">
                        <set attributeName="fill" to="#808080" begin="arrowLeft.mouseover" end="arrowLeft.mouseout"/>
                  </use>
                  <path fill="none" stroke="white" stroke-width="1.5" d="M0,-3.0v7 M-2.5,-0.5L0,-3.0L2.5,-0.5"/>
                </g>
        </g>
        <svg viewBox="0 0 15 15" width="100%" height="30px" preserveAspectRatio="xMaxYMin meet">
         <g id="arrow_out" transform="scale(0.3 0.3)">
          <a xlink:href="classReptilExotico__coll__graph_org.svg" target="_base">
           <rect id="button" ry="5" rx="5" y="6" x="6" height="38" width="38"
                fill="#f2f5e9" fill-opacity="0.5" stroke="#606060" stroke-width="1.0"/>
           <path id="arrow"
             d="M 11.500037,31.436501 C 11.940474,20.09759 22.043105,11.32322 32.158766,21.979434 L 37.068811,17.246167 C 37.068811,17.246167 37.088388,32 37.088388,32 L 22.160133,31.978069 C 22.160133,31.978069 26.997745,27.140456 26.997745,27.140456 C 18.528582,18.264221 13.291696,25.230495 11.500037,31.436501 z"
             style="fill:#404040;"/>
          </a>
         </g>
        </svg>
</svg>
