<?xml version="1.0" encoding="UTF-8" standalone="no"?>
<!DOCTYPE svg PUBLIC "-//W3C//DTD SVG 1.1//EN"
 "http://www.w3.org/Graphics/SVG/1.1/DTD/svg11.dtd">
<!-- Generated by graphviz version 2.43.0 (0)
 -->
<!-- Title: ReptilDomestico Pages: 1 -->
<svg width="796pt" height="1970pt"
 viewBox="0.00 0.00 795.88 1970.00" xmlns="http://www.w3.org/2000/svg" xmlns:xlink="http://www.w3.org/1999/xlink">
<g id="graph0" class="graph" transform="scale(1 1) rotate(0) translate(4 1966)">
<title>ReptilDomestico</title>
<polygon fill="white" stroke="transparent" points="-4,4 -4,-1966 791.88,-1966 791.88,4 -4,4"/>
<!-- Node1 -->
<g id="node1" class="node">
<title>Node1</title>
<g id="a_node1"><a xlink:title="Implementação de animal com Classe e Categoria.">
<polygon fill="#bfbfbf" stroke="black" points="495.88,-0.5 495.88,-134.5 727.88,-134.5 727.88,-0.5 495.88,-0.5"/>
<text text-anchor="middle" x="611.88" y="-114.5" font-family="Helvetica,sans-Serif" font-size="20.00">ReptilDomestico</text>
<polyline fill="none" stroke="black" points="495.88,-104.5 727.88,-104.5 "/>
<text text-anchor="middle" x="611.88" y="-84.5" font-family="Helvetica,sans-Serif" font-size="20.00"> </text>
<polyline fill="none" stroke="black" points="495.88,-74.5 727.88,-74.5 "/>
<text text-anchor="start" x="503.88" y="-54.5" font-family="Helvetica,sans-Serif" font-size="20.00">+ ReptilDomestico()</text>
<text text-anchor="start" x="503.88" y="-32.5" font-family="Helvetica,sans-Serif" font-size="20.00">+ ReptilDomestico()</text>
<text text-anchor="start" x="503.88" y="-10.5" font-family="Helvetica,sans-Serif" font-size="20.00">+ ~ReptilDomestico()</text>
</a>
</g>
</g>
<!-- Node2 -->
<g id="node2" class="node">
<title>Node2</title>
<g id="a_node2"><a xlink:href="classReptil.html" target="_top" xlink:title="Classificação base para Repteis.">
<polygon fill="white" stroke="black" points="466.38,-172.5 466.38,-372.5 593.38,-372.5 593.38,-172.5 466.38,-172.5"/>
<text text-anchor="middle" x="529.88" y="-352.5" font-family="Helvetica,sans-Serif" font-size="20.00">Reptil</text>
<polyline fill="none" stroke="black" points="466.38,-342.5 593.38,-342.5 "/>
<text text-anchor="middle" x="529.88" y="-322.5" font-family="Helvetica,sans-Serif" font-size="20.00"> </text>
<polyline fill="none" stroke="black" points="466.38,-312.5 593.38,-312.5 "/>
<text text-anchor="start" x="474.38" y="-292.5" font-family="Helvetica,sans-Serif" font-size="20.00">+ Reptil()</text>
<text text-anchor="start" x="474.38" y="-270.5" font-family="Helvetica,sans-Serif" font-size="20.00">+ Reptil()</text>
<text text-anchor="start" x="474.38" y="-248.5" font-family="Helvetica,sans-Serif" font-size="20.00">+ ~Reptil()</text>
<text text-anchor="start" x="474.38" y="-226.5" font-family="Helvetica,sans-Serif" font-size="20.00">+ getPele()</text>
<text text-anchor="start" x="474.38" y="-204.5" font-family="Helvetica,sans-Serif" font-size="20.00">+ setPele()</text>
<text text-anchor="start" x="474.38" y="-182.5" font-family="Helvetica,sans-Serif" font-size="20.00">+ setPele()</text>
</a>
</g>
</g>
<!-- Node2&#45;&gt;Node1 -->
<g id="edge1" class="edge">
<title>Node2&#45;&gt;Node1</title>
<path fill="none" stroke="midnightblue" d="M573.67,-163.09C577.58,-153.43 581.45,-143.84 585.14,-134.69"/>
<polygon fill="none" stroke="midnightblue" points="570.42,-161.8 569.92,-172.38 576.91,-164.42 570.42,-161.8"/>
</g>
<!-- Node3 -->
<g id="node3" class="node">
<title>Node3</title>
<g id="a_node3"><a xlink:href="classAnimal.html" target="_top" xlink:title="Implementação base para o cadastro de animais.">
<polygon fill="white" stroke="black" points="264.38,-610.5 264.38,-986.5 487.38,-986.5 487.38,-610.5 264.38,-610.5"/>
<text text-anchor="middle" x="375.88" y="-966.5" font-family="Helvetica,sans-Serif" font-size="20.00">Animal</text>
<polyline fill="none" stroke="black" points="264.38,-956.5 487.38,-956.5 "/>
<text text-anchor="middle" x="375.88" y="-936.5" font-family="Helvetica,sans-Serif" font-size="20.00"> </text>
<polyline fill="none" stroke="black" points="264.38,-926.5 487.38,-926.5 "/>
<text text-anchor="start" x="272.38" y="-906.5" font-family="Helvetica,sans-Serif" font-size="20.00">+ Animal()</text>
<text text-anchor="start" x="272.38" y="-884.5" font-family="Helvetica,sans-Serif" font-size="20.00">+ Animal()</text>
<text text-anchor="start" x="272.38" y="-862.5" font-family="Helvetica,sans-Serif" font-size="20.00">+ ~Animal()</text>
<text text-anchor="start" x="272.38" y="-840.5" font-family="Helvetica,sans-Serif" font-size="20.00">+ getNome()</text>
<text text-anchor="start" x="272.38" y="-818.5" font-family="Helvetica,sans-Serif" font-size="20.00">+ getEspecie()</text>
<text text-anchor="start" x="272.38" y="-796.5" font-family="Helvetica,sans-Serif" font-size="20.00">+ getAmeacadoPor()</text>
<text text-anchor="start" x="272.38" y="-774.5" font-family="Helvetica,sans-Serif" font-size="20.00">+ getVeterinario()</text>
<text text-anchor="start" x="272.38" y="-752.5" font-family="Helvetica,sans-Serif" font-size="20.00">+ getTratador()</text>
<text text-anchor="start" x="272.38" y="-730.5" font-family="Helvetica,sans-Serif" font-size="20.00">+ getPerigoso()</text>
<text text-anchor="start" x="272.38" y="-708.5" font-family="Helvetica,sans-Serif" font-size="20.00">+ setNome()</text>
<text text-anchor="start" x="272.38" y="-686.5" font-family="Helvetica,sans-Serif" font-size="20.00">e 13 mais...</text>
<text text-anchor="start" x="272.38" y="-664.5" font-family="Helvetica,sans-Serif" font-size="20.00">+ getClassificacao()</text>
<text text-anchor="start" x="272.38" y="-642.5" font-family="Helvetica,sans-Serif" font-size="20.00">+ getClasse()</text>
<text text-anchor="start" x="272.38" y="-620.5" font-family="Helvetica,sans-Serif" font-size="20.00">+ printOutDetails()</text>
</a>
</g>
</g>
<!-- Node3&#45;&gt;Node2 -->
<g id="edge2" class="edge">
<title>Node3&#45;&gt;Node2</title>
<path fill="none" stroke="midnightblue" d="M433.85,-600.26C456.67,-522.59 481.88,-436.83 500.74,-372.66"/>
<polygon fill="none" stroke="midnightblue" points="430.4,-599.59 430.93,-610.17 437.11,-601.57 430.4,-599.59"/>
</g>
<!-- Node4 -->
<g id="node4" class="node">
<title>Node4</title>
<g id="a_node4"><a xlink:href="classTratador.html" target="_top" xlink:title="Implementação dos tratadores.">
<polygon fill="white" stroke="black" points="275.88,-1045.5 275.88,-1267.5 475.88,-1267.5 475.88,-1045.5 275.88,-1045.5"/>
<text text-anchor="middle" x="375.88" y="-1247.5" font-family="Helvetica,sans-Serif" font-size="20.00">Tratador</text>
<polyline fill="none" stroke="black" points="275.88,-1237.5 475.88,-1237.5 "/>
<text text-anchor="middle" x="375.88" y="-1217.5" font-family="Helvetica,sans-Serif" font-size="20.00"> </text>
<polyline fill="none" stroke="black" points="275.88,-1207.5 475.88,-1207.5 "/>
<text text-anchor="start" x="283.88" y="-1187.5" font-family="Helvetica,sans-Serif" font-size="20.00">+ Tratador()</text>
<text text-anchor="start" x="283.88" y="-1165.5" font-family="Helvetica,sans-Serif" font-size="20.00">+ Tratador()</text>
<text text-anchor="start" x="283.88" y="-1143.5" font-family="Helvetica,sans-Serif" font-size="20.00">+ ~Tratador()</text>
<text text-anchor="start" x="283.88" y="-1121.5" font-family="Helvetica,sans-Serif" font-size="20.00">+ getUniforme()</text>
<text text-anchor="start" x="283.88" y="-1099.5" font-family="Helvetica,sans-Serif" font-size="20.00">+ setUniforme()</text>
<text text-anchor="start" x="283.88" y="-1077.5" font-family="Helvetica,sans-Serif" font-size="20.00">+ setUniforme()</text>
<text text-anchor="start" x="283.88" y="-1055.5" font-family="Helvetica,sans-Serif" font-size="20.00">+ printOutDados()</text>
</a>
</g>
</g>
<!-- Node4&#45;&gt;Node3 -->
<g id="edge3" class="edge">
<title>Node4&#45;&gt;Node3</title>
<path fill="none" stroke="#404040" d="M375.88,-1045.3C375.88,-1030.41 375.88,-1014.77 375.88,-998.91"/>
<polygon fill="none" stroke="#404040" points="375.88,-998.74 371.88,-992.74 375.88,-986.74 379.88,-992.74 375.88,-998.74"/>
<text text-anchor="middle" x="427.38" y="-1011" font-family="Helvetica,sans-Serif" font-size="20.00"> #tratador</text>
</g>
<!-- Node5 -->
<g id="node5" class="node">
<title>Node5</title>
<g id="a_node5"><a xlink:href="classPessoa.html" target="_top" xlink:title="Classe base dos funcionarios.">
<polygon fill="white" stroke="black" points="127.88,-1370.5 127.88,-1768.5 327.88,-1768.5 327.88,-1370.5 127.88,-1370.5"/>
<text text-anchor="middle" x="227.88" y="-1748.5" font-family="Helvetica,sans-Serif" font-size="20.00">Pessoa</text>
<polyline fill="none" stroke="black" points="127.88,-1738.5 327.88,-1738.5 "/>
<text text-anchor="middle" x="227.88" y="-1718.5" font-family="Helvetica,sans-Serif" font-size="20.00"> </text>
<polyline fill="none" stroke="black" points="127.88,-1708.5 327.88,-1708.5 "/>
<text text-anchor="start" x="135.88" y="-1688.5" font-family="Helvetica,sans-Serif" font-size="20.00">+ Pessoa()</text>
<text text-anchor="start" x="135.88" y="-1666.5" font-family="Helvetica,sans-Serif" font-size="20.00">+ Pessoa()</text>
<text text-anchor="start" x="135.88" y="-1644.5" font-family="Helvetica,sans-Serif" font-size="20.00">+ ~Pessoa()</text>
<text text-anchor="start" x="135.88" y="-1622.5" font-family="Helvetica,sans-Serif" font-size="20.00">+ getNome()</text>
<text text-anchor="start" x="135.88" y="-1600.5" font-family="Helvetica,sans-Serif" font-size="20.00">+ setNome()</text>
<text text-anchor="start" x="135.88" y="-1578.5" font-family="Helvetica,sans-Serif" font-size="20.00">+ setNome()</text>
<text text-anchor="start" x="135.88" y="-1556.5" font-family="Helvetica,sans-Serif" font-size="20.00">+ getTelefone()</text>
<text text-anchor="start" x="135.88" y="-1534.5" font-family="Helvetica,sans-Serif" font-size="20.00">+ setTelefone()</text>
<text text-anchor="start" x="135.88" y="-1512.5" font-family="Helvetica,sans-Serif" font-size="20.00">+ setTelefone()</text>
<text text-anchor="start" x="135.88" y="-1490.5" font-family="Helvetica,sans-Serif" font-size="20.00">+ getEmail()</text>
<text text-anchor="start" x="135.88" y="-1468.5" font-family="Helvetica,sans-Serif" font-size="20.00">+ setEmail()</text>
<text text-anchor="start" x="135.88" y="-1446.5" font-family="Helvetica,sans-Serif" font-size="20.00">+ setEmail()</text>
<text text-anchor="start" x="135.88" y="-1424.5" font-family="Helvetica,sans-Serif" font-size="20.00">+ printOutDados()</text>
<text text-anchor="start" x="135.88" y="-1402.5" font-family="Helvetica,sans-Serif" font-size="20.00">+ operator==()</text>
<text text-anchor="start" x="135.88" y="-1380.5" font-family="Helvetica,sans-Serif" font-size="20.00">+ operator==()</text>
</a>
</g>
</g>
<!-- Node5&#45;&gt;Node4 -->
<g id="edge4" class="edge">
<title>Node5&#45;&gt;Node4</title>
<path fill="none" stroke="midnightblue" d="M302.71,-1360.7C314.29,-1328.55 325.84,-1296.48 336.23,-1267.62"/>
<polygon fill="none" stroke="midnightblue" points="299.37,-1359.63 299.28,-1370.22 305.96,-1362 299.37,-1359.63"/>
</g>
<!-- Node9 -->
<g id="node9" class="node">
<title>Node9</title>
<g id="a_node9"><a xlink:href="classVeterinario.html" target="_top" xlink:title="Implementação dos veterinarios.">
<polygon fill="white" stroke="black" points="57.88,-1045.5 57.88,-1267.5 257.88,-1267.5 257.88,-1045.5 57.88,-1045.5"/>
<text text-anchor="middle" x="157.88" y="-1247.5" font-family="Helvetica,sans-Serif" font-size="20.00">Veterinario</text>
<polyline fill="none" stroke="black" points="57.88,-1237.5 257.88,-1237.5 "/>
<text text-anchor="middle" x="157.88" y="-1217.5" font-family="Helvetica,sans-Serif" font-size="20.00"> </text>
<polyline fill="none" stroke="black" points="57.88,-1207.5 257.88,-1207.5 "/>
<text text-anchor="start" x="65.88" y="-1187.5" font-family="Helvetica,sans-Serif" font-size="20.00">+ Veterinario()</text>
<text text-anchor="start" x="65.88" y="-1165.5" font-family="Helvetica,sans-Serif" font-size="20.00">+ Veterinario()</text>
<text text-anchor="start" x="65.88" y="-1143.5" font-family="Helvetica,sans-Serif" font-size="20.00">+ ~Veterinario()</text>
<text text-anchor="start" x="65.88" y="-1121.5" font-family="Helvetica,sans-Serif" font-size="20.00">+ getCRMV()</text>
<text text-anchor="start" x="65.88" y="-1099.5" font-family="Helvetica,sans-Serif" font-size="20.00">+ setCRMV()</text>
<text text-anchor="start" x="65.88" y="-1077.5" font-family="Helvetica,sans-Serif" font-size="20.00">+ setCRMV()</text>
<text text-anchor="start" x="65.88" y="-1055.5" font-family="Helvetica,sans-Serif" font-size="20.00">+ printOutDados()</text>
</a>
</g>
</g>
<!-- Node5&#45;&gt;Node9 -->
<g id="edge10" class="edge">
<title>Node5&#45;&gt;Node9</title>
<path fill="none" stroke="midnightblue" d="M192.42,-1360.29C186.97,-1328.28 181.53,-1296.35 176.64,-1267.62"/>
<polygon fill="none" stroke="midnightblue" points="188.98,-1360.95 194.11,-1370.22 195.88,-1359.78 188.98,-1360.95"/>
</g>
<!-- Node6 -->
<g id="node6" class="node">
<title>Node6</title>
<g id="a_node6"><a xlink:title=" ">
<polygon fill="white" stroke="#bfbfbf" points="190.88,-1871.5 190.88,-1961.5 264.88,-1961.5 264.88,-1871.5 190.88,-1871.5"/>
<text text-anchor="middle" x="227.88" y="-1941.5" font-family="Helvetica,sans-Serif" font-size="20.00">string</text>
<polyline fill="none" stroke="#bfbfbf" points="190.88,-1931.5 264.88,-1931.5 "/>
<text text-anchor="middle" x="227.88" y="-1911.5" font-family="Helvetica,sans-Serif" font-size="20.00"> </text>
<polyline fill="none" stroke="#bfbfbf" points="190.88,-1901.5 264.88,-1901.5 "/>
<text text-anchor="middle" x="227.88" y="-1881.5" font-family="Helvetica,sans-Serif" font-size="20.00"> </text>
</a>
</g>
</g>
<!-- Node6&#45;&gt;Node3 -->
<g id="edge8" class="edge">
<title>Node6&#45;&gt;Node3</title>
<path fill="none" stroke="#404040" d="M265.12,-1904.44C319.31,-1886.15 418.2,-1843.95 461.88,-1769 632.93,-1475.52 571.85,-1332.83 482.88,-1005 482.26,-1002.71 481.61,-1000.41 480.93,-998.11"/>
<polygon fill="none" stroke="#404040" points="480.91,-998.06 475.31,-993.53 477.33,-986.61 482.94,-991.14 480.91,-998.06"/>
<text text-anchor="middle" x="640.88" y="-1336" font-family="Helvetica,sans-Serif" font-size="20.00"> #especie</text>
<text text-anchor="middle" x="640.88" y="-1314" font-family="Helvetica,sans-Serif" font-size="20.00">#ameacadoPor</text>
<text text-anchor="middle" x="640.88" y="-1292" font-family="Helvetica,sans-Serif" font-size="20.00">#nome</text>
</g>
<!-- Node6&#45;&gt;Node5 -->
<g id="edge5" class="edge">
<title>Node6&#45;&gt;Node5</title>
<path fill="none" stroke="#404040" d="M227.88,-1871.46C227.88,-1847.16 227.88,-1815.03 227.88,-1780.8"/>
<polygon fill="none" stroke="#404040" points="227.88,-1780.62 223.88,-1774.62 227.88,-1768.62 231.88,-1774.62 227.88,-1780.62"/>
<text text-anchor="middle" x="276.38" y="-1837" font-family="Helvetica,sans-Serif" font-size="20.00"> #email</text>
<text text-anchor="middle" x="276.38" y="-1815" font-family="Helvetica,sans-Serif" font-size="20.00">#nome</text>
<text text-anchor="middle" x="276.38" y="-1793" font-family="Helvetica,sans-Serif" font-size="20.00">#telefone</text>
</g>
<!-- Node6&#45;&gt;Node9 -->
<g id="edge11" class="edge">
<title>Node6&#45;&gt;Node9</title>
<path fill="none" stroke="#404040" d="M190.53,-1898.27C146.56,-1875.65 75.75,-1831.38 45.88,-1769 -30.7,-1609.05 3.29,-1542.14 45.88,-1370 53.56,-1338.95 66.7,-1307.43 81.32,-1278.51"/>
<polygon fill="none" stroke="#404040" points="81.48,-1278.21 80.68,-1271.05 86.99,-1267.56 87.79,-1274.73 81.48,-1278.21"/>
<text text-anchor="middle" x="82.38" y="-1564.5" font-family="Helvetica,sans-Serif" font-size="20.00"> &#45;CRMV</text>
</g>
<!-- Node7 -->
<g id="node7" class="node">
<title>Node7</title>
<g id="a_node7"><a xlink:title=" ">
<polygon fill="white" stroke="#bfbfbf" points="346.38,-1524.5 346.38,-1614.5 453.38,-1614.5 453.38,-1524.5 346.38,-1524.5"/>
<text text-anchor="middle" x="399.88" y="-1594.5" font-family="Helvetica,sans-Serif" font-size="20.00">Uniforme</text>
<polyline fill="none" stroke="#bfbfbf" points="346.38,-1584.5 453.38,-1584.5 "/>
<text text-anchor="middle" x="399.88" y="-1564.5" font-family="Helvetica,sans-Serif" font-size="20.00"> </text>
<polyline fill="none" stroke="#bfbfbf" points="346.38,-1554.5 453.38,-1554.5 "/>
<text text-anchor="middle" x="399.88" y="-1534.5" font-family="Helvetica,sans-Serif" font-size="20.00"> </text>
</a>
</g>
</g>
<!-- Node7&#45;&gt;Node4 -->
<g id="edge6" class="edge">
<title>Node7&#45;&gt;Node4</title>
<path fill="none" stroke="#404040" d="M394.52,-1524.21C389.49,-1480.51 382.23,-1411.76 378.88,-1352 377.57,-1328.64 376.75,-1303.67 376.25,-1279.68"/>
<polygon fill="none" stroke="#404040" points="376.25,-1279.62 372.13,-1273.69 376.02,-1267.62 380.13,-1273.54 376.25,-1279.62"/>
<text text-anchor="middle" x="430.38" y="-1314" font-family="Helvetica,sans-Serif" font-size="20.00"> &#45;uniforme</text>
</g>
<!-- Node8 -->
<g id="node8" class="node">
<title>Node8</title>
<g id="a_node8"><a xlink:title=" ">
<polygon fill="white" stroke="#bfbfbf" points="585.38,-1111.5 585.38,-1201.5 644.38,-1201.5 644.38,-1111.5 585.38,-1111.5"/>
<text text-anchor="middle" x="614.88" y="-1181.5" font-family="Helvetica,sans-Serif" font-size="20.00">bool</text>
<polyline fill="none" stroke="#bfbfbf" points="585.38,-1171.5 644.38,-1171.5 "/>
<text text-anchor="middle" x="614.88" y="-1151.5" font-family="Helvetica,sans-Serif" font-size="20.00"> </text>
<polyline fill="none" stroke="#bfbfbf" points="585.38,-1141.5 644.38,-1141.5 "/>
<text text-anchor="middle" x="614.88" y="-1121.5" font-family="Helvetica,sans-Serif" font-size="20.00"> </text>
</a>
</g>
</g>
<!-- Node8&#45;&gt;Node3 -->
<g id="edge7" class="edge">
<title>Node8&#45;&gt;Node3</title>
<path fill="none" stroke="#404040" d="M591,-1111.34C573.01,-1080.03 546.59,-1037.91 517.88,-1005 509.8,-995.74 504.96,-996.26 496.88,-987 496.38,-986.43 495.89,-985.86 495.39,-985.28"/>
<polygon fill="none" stroke="#404040" points="495.13,-984.98 488.21,-982.97 487.4,-975.8 494.33,-977.81 495.13,-984.98"/>
<text text-anchor="middle" x="587.38" y="-1011" font-family="Helvetica,sans-Serif" font-size="20.00"> #perigoso</text>
</g>
<!-- Node11 -->
<g id="node11" class="node">
<title>Node11</title>
<g id="a_node11"><a xlink:href="classDomestico.html" target="_top" xlink:title="Umas das definições de categoria para Animal.">
<polygon fill="white" stroke="black" points="599.88,-391.5 599.88,-591.5 787.88,-591.5 787.88,-391.5 599.88,-391.5"/>
<text text-anchor="middle" x="693.88" y="-571.5" font-family="Helvetica,sans-Serif" font-size="20.00">Domestico</text>
<polyline fill="none" stroke="black" points="599.88,-561.5 787.88,-561.5 "/>
<text text-anchor="middle" x="693.88" y="-541.5" font-family="Helvetica,sans-Serif" font-size="20.00"> </text>
<polyline fill="none" stroke="black" points="599.88,-531.5 787.88,-531.5 "/>
<text text-anchor="start" x="607.88" y="-511.5" font-family="Helvetica,sans-Serif" font-size="20.00">+ Domestico()</text>
<text text-anchor="start" x="607.88" y="-489.5" font-family="Helvetica,sans-Serif" font-size="20.00">+ Domestico()</text>
<text text-anchor="start" x="607.88" y="-467.5" font-family="Helvetica,sans-Serif" font-size="20.00">+ ~Domestico()</text>
<text text-anchor="start" x="607.88" y="-445.5" font-family="Helvetica,sans-Serif" font-size="20.00">+ getAdestrado()</text>
<text text-anchor="start" x="607.88" y="-423.5" font-family="Helvetica,sans-Serif" font-size="20.00">+ setAdestrado()</text>
<text text-anchor="start" x="607.88" y="-401.5" font-family="Helvetica,sans-Serif" font-size="20.00">+ setAdestrado()</text>
</a>
</g>
</g>
<!-- Node8&#45;&gt;Node11 -->
<g id="edge14" class="edge">
<title>Node8&#45;&gt;Node11</title>
<path fill="none" stroke="#404040" d="M627.27,-1111.23C633.72,-1086.61 641.22,-1055.31 645.88,-1027 669.78,-881.83 682.46,-712.37 688.67,-603.83"/>
<polygon fill="none" stroke="#404040" points="688.68,-603.54 685.02,-597.33 689.35,-591.56 693.01,-597.78 688.68,-603.54"/>
<text text-anchor="middle" x="710.38" y="-1011" font-family="Helvetica,sans-Serif" font-size="20.00"> #adestrado</text>
</g>
<!-- Node9&#45;&gt;Node3 -->
<g id="edge9" class="edge">
<title>Node9&#45;&gt;Node3</title>
<path fill="none" stroke="#404040" d="M218.26,-1045.26C226.07,-1031.62 234.07,-1017.93 241.88,-1005 247.07,-996.42 252.43,-987.68 257.9,-978.88"/>
<polygon fill="none" stroke="#404040" points="258,-978.71 257.78,-971.5 264.36,-968.53 264.57,-975.74 258,-978.71"/>
<text text-anchor="middle" x="306.88" y="-1011" font-family="Helvetica,sans-Serif" font-size="20.00"> #veterinario</text>
</g>
<!-- Node10 -->
<g id="node10" class="node">
<title>Node10</title>
<g id="a_node10"><a xlink:title=" ">
<polygon fill="white" stroke="#bfbfbf" points="505.38,-753.5 505.38,-843.5 562.38,-843.5 562.38,-753.5 505.38,-753.5"/>
<text text-anchor="middle" x="533.88" y="-823.5" font-family="Helvetica,sans-Serif" font-size="20.00">Pele</text>
<polyline fill="none" stroke="#bfbfbf" points="505.38,-813.5 562.38,-813.5 "/>
<text text-anchor="middle" x="533.88" y="-793.5" font-family="Helvetica,sans-Serif" font-size="20.00"> </text>
<polyline fill="none" stroke="#bfbfbf" points="505.38,-783.5 562.38,-783.5 "/>
<text text-anchor="middle" x="533.88" y="-763.5" font-family="Helvetica,sans-Serif" font-size="20.00"> </text>
</a>
</g>
</g>
<!-- Node10&#45;&gt;Node2 -->
<g id="edge12" class="edge">
<title>Node10&#45;&gt;Node2</title>
<path fill="none" stroke="#404040" d="M531.67,-753.42C529.7,-711.82 526.96,-647.69 525.88,-592 524.14,-502.68 524.36,-480.32 525.88,-391 525.92,-388.93 525.95,-386.84 526,-384.74"/>
<polygon fill="none" stroke="#404040" points="526,-384.54 522.14,-378.45 526.27,-372.54 530.13,-378.63 526,-384.54"/>
<text text-anchor="middle" x="558.38" y="-486.5" font-family="Helvetica,sans-Serif" font-size="20.00"> #pele</text>
</g>
<!-- Node11&#45;&gt;Node1 -->
<g id="edge13" class="edge">
<title>Node11&#45;&gt;Node1</title>
<path fill="none" stroke="midnightblue" d="M672.68,-381.41C657.5,-303.26 637.54,-200.56 624.71,-134.54"/>
<polygon fill="none" stroke="midnightblue" points="669.26,-382.14 674.6,-391.29 676.13,-380.81 669.26,-382.14"/>
</g>
</g>
</svg>
