<?xml version="1.0" encoding="UTF-8" standalone="no"?>
<!DOCTYPE svg PUBLIC "-//W3C//DTD SVG 1.1//EN"
 "http://www.w3.org/Graphics/SVG/1.1/DTD/svg11.dtd">
<!-- Generated by graphviz version 2.40.1 (20161225.0304)
 -->
<!-- Title: Domestico Pages: 1 -->
<svg width="645pt" height="1290pt"
 viewBox="0.00 0.00 644.50 1290.00" xmlns="http://www.w3.org/2000/svg" xmlns:xlink="http://www.w3.org/1999/xlink">
<g id="graph0" class="graph" transform="scale(1 1) rotate(0) translate(4 1286)">
<title>Domestico</title>
<polygon fill="#ffffff" stroke="transparent" points="-4,4 -4,-1286 640.5003,-1286 640.5003,4 -4,4"/>
<!-- Node6 -->
<g id="node1" class="node">
<title>Node6</title>
<polygon fill="#bfbfbf" stroke="#000000" points="410.0003,-.5 410.0003,-156.5 565.0003,-156.5 565.0003,-.5 410.0003,-.5"/>
<text text-anchor="middle" x="487.5003" y="-136.5" font-family="Helvetica,sans-Serif" font-size="20.00" fill="#000000">Domestico</text>
<polyline fill="none" stroke="#000000" points="410.0003,-126.5 565.0003,-126.5 "/>
<text text-anchor="middle" x="487.5003" y="-106.5" font-family="Helvetica,sans-Serif" font-size="20.00" fill="#000000"> </text>
<polyline fill="none" stroke="#000000" points="410.0003,-96.5 565.0003,-96.5 "/>
<text text-anchor="start" x="418.0003" y="-76.5" font-family="Helvetica,sans-Serif" font-size="20.00" fill="#000000">+ Domestico()</text>
<text text-anchor="start" x="418.0003" y="-54.5" font-family="Helvetica,sans-Serif" font-size="20.00" fill="#000000">+ Domestico()</text>
<text text-anchor="start" x="418.0003" y="-32.5" font-family="Helvetica,sans-Serif" font-size="20.00" fill="#000000">+ ~Domestico()</text>
<text text-anchor="start" x="418.0003" y="-10.5" font-family="Helvetica,sans-Serif" font-size="20.00" fill="#000000">+ getAdestrado()</text>
</g>
<!-- Node7 -->
<g id="node2" class="node">
<title>Node7</title>
<g id="a_node2"><a xlink:href="classAnimal.html" target="_top" xlink:title="Implementação base para o cadastro de animais. ">
<polygon fill="#ffffff" stroke="#000000" points="331.5003,-194.5 331.5003,-526.5 509.5003,-526.5 509.5003,-194.5 331.5003,-194.5"/>
<text text-anchor="middle" x="420.5003" y="-506.5" font-family="Helvetica,sans-Serif" font-size="20.00" fill="#000000">Animal</text>
<polyline fill="none" stroke="#000000" points="331.5003,-496.5 509.5003,-496.5 "/>
<text text-anchor="middle" x="420.5003" y="-476.5" font-family="Helvetica,sans-Serif" font-size="20.00" fill="#000000"> </text>
<polyline fill="none" stroke="#000000" points="331.5003,-466.5 509.5003,-466.5 "/>
<text text-anchor="start" x="339.5003" y="-446.5" font-family="Helvetica,sans-Serif" font-size="20.00" fill="#000000">+ Animal()</text>
<text text-anchor="start" x="339.5003" y="-424.5" font-family="Helvetica,sans-Serif" font-size="20.00" fill="#000000">+ Animal()</text>
<text text-anchor="start" x="339.5003" y="-402.5" font-family="Helvetica,sans-Serif" font-size="20.00" fill="#000000">+ ~Animal()</text>
<text text-anchor="start" x="339.5003" y="-380.5" font-family="Helvetica,sans-Serif" font-size="20.00" fill="#000000">+ getNome()</text>
<text text-anchor="start" x="339.5003" y="-358.5" font-family="Helvetica,sans-Serif" font-size="20.00" fill="#000000">+ getEspecie()</text>
<text text-anchor="start" x="339.5003" y="-336.5" font-family="Helvetica,sans-Serif" font-size="20.00" fill="#000000">+ getVeterinario()</text>
<text text-anchor="start" x="339.5003" y="-314.5" font-family="Helvetica,sans-Serif" font-size="20.00" fill="#000000">+ getTratador()</text>
<text text-anchor="start" x="339.5003" y="-292.5" font-family="Helvetica,sans-Serif" font-size="20.00" fill="#000000">+ getPerigoso()</text>
<text text-anchor="start" x="339.5003" y="-270.5" font-family="Helvetica,sans-Serif" font-size="20.00" fill="#000000">+ getClassificacao()</text>
<text text-anchor="start" x="339.5003" y="-248.5" font-family="Helvetica,sans-Serif" font-size="20.00" fill="#000000">+ getClasse()</text>
<text text-anchor="start" x="339.5003" y="-226.5" font-family="Helvetica,sans-Serif" font-size="20.00" fill="#000000">+ printOutDados()</text>
<text text-anchor="start" x="339.5003" y="-204.5" font-family="Helvetica,sans-Serif" font-size="20.00" fill="#000000">+ operator==()</text>
</a>
</g>
</g>
<!-- Node7&#45;&gt;Node6 -->
<g id="edge1" class="edge">
<title>Node7&#45;&gt;Node6</title>
<path fill="none" stroke="#191970" d="M462.3378,-184.4077C464.6037,-174.8707 466.8152,-165.5625 468.9272,-156.6731"/>
<polygon fill="none" stroke="#191970" points="458.8651,-183.8827 459.9587,-194.421 465.6756,-185.5009 458.8651,-183.8827"/>
</g>
<!-- Node8 -->
<g id="node3" class="node">
<title>Node8</title>
<g id="a_node3"><a xlink:href="classTratador.html" target="_top" xlink:title="Implementação dos tratadores. ">
<polygon fill="#ffffff" stroke="#000000" points="228.5003,-585.5 228.5003,-763.5 392.5003,-763.5 392.5003,-585.5 228.5003,-585.5"/>
<text text-anchor="middle" x="310.5003" y="-743.5" font-family="Helvetica,sans-Serif" font-size="20.00" fill="#000000">Tratador</text>
<polyline fill="none" stroke="#000000" points="228.5003,-733.5 392.5003,-733.5 "/>
<text text-anchor="middle" x="310.5003" y="-713.5" font-family="Helvetica,sans-Serif" font-size="20.00" fill="#000000"> </text>
<polyline fill="none" stroke="#000000" points="228.5003,-703.5 392.5003,-703.5 "/>
<text text-anchor="start" x="236.5003" y="-683.5" font-family="Helvetica,sans-Serif" font-size="20.00" fill="#000000">+ Tratador()</text>
<text text-anchor="start" x="236.5003" y="-661.5" font-family="Helvetica,sans-Serif" font-size="20.00" fill="#000000">+ Tratador()</text>
<text text-anchor="start" x="236.5003" y="-639.5" font-family="Helvetica,sans-Serif" font-size="20.00" fill="#000000">+ ~Tratador()</text>
<text text-anchor="start" x="236.5003" y="-617.5" font-family="Helvetica,sans-Serif" font-size="20.00" fill="#000000">+ getUniforme()</text>
<text text-anchor="start" x="236.5003" y="-595.5" font-family="Helvetica,sans-Serif" font-size="20.00" fill="#000000">+ printOutDados()</text>
</a>
</g>
</g>
<!-- Node8&#45;&gt;Node7 -->
<g id="edge2" class="edge">
<title>Node8&#45;&gt;Node7</title>
<path fill="none" stroke="#404040" d="M316.5708,-585.1602C318.7203,-571.5401 321.6127,-557.775 325.5003,-545 326.1984,-542.7058 326.9245,-540.4061 327.6766,-538.1028"/>
<polygon fill="none" stroke="#404040" points="327.7419,-537.9127 325.9108,-530.938 331.6447,-526.5651 333.4758,-533.5398 327.7419,-537.9127"/>
<text text-anchor="middle" x="366.0003" y="-551" font-family="Helvetica,sans-Serif" font-size="20.00" fill="#000000"> #tratador</text>
</g>
<!-- Node9 -->
<g id="node4" class="node">
<title>Node9</title>
<g id="a_node4"><a xlink:href="classPessoa.html" target="_top" xlink:title="Classe base dos funcionarios. ">
<polygon fill="#ffffff" stroke="#000000" points="102.5003,-844.5 102.5003,-1088.5 266.5003,-1088.5 266.5003,-844.5 102.5003,-844.5"/>
<text text-anchor="middle" x="184.5003" y="-1068.5" font-family="Helvetica,sans-Serif" font-size="20.00" fill="#000000">Pessoa</text>
<polyline fill="none" stroke="#000000" points="102.5003,-1058.5 266.5003,-1058.5 "/>
<text text-anchor="middle" x="184.5003" y="-1038.5" font-family="Helvetica,sans-Serif" font-size="20.00" fill="#000000"> </text>
<polyline fill="none" stroke="#000000" points="102.5003,-1028.5 266.5003,-1028.5 "/>
<text text-anchor="start" x="110.5003" y="-1008.5" font-family="Helvetica,sans-Serif" font-size="20.00" fill="#000000">+ Pessoa()</text>
<text text-anchor="start" x="110.5003" y="-986.5" font-family="Helvetica,sans-Serif" font-size="20.00" fill="#000000">+ Pessoa()</text>
<text text-anchor="start" x="110.5003" y="-964.5" font-family="Helvetica,sans-Serif" font-size="20.00" fill="#000000">+ ~Pessoa()</text>
<text text-anchor="start" x="110.5003" y="-942.5" font-family="Helvetica,sans-Serif" font-size="20.00" fill="#000000">+ getNome()</text>
<text text-anchor="start" x="110.5003" y="-920.5" font-family="Helvetica,sans-Serif" font-size="20.00" fill="#000000">+ getTelefone()</text>
<text text-anchor="start" x="110.5003" y="-898.5" font-family="Helvetica,sans-Serif" font-size="20.00" fill="#000000">+ getEmail()</text>
<text text-anchor="start" x="110.5003" y="-876.5" font-family="Helvetica,sans-Serif" font-size="20.00" fill="#000000">+ printOutDados()</text>
<text text-anchor="start" x="110.5003" y="-854.5" font-family="Helvetica,sans-Serif" font-size="20.00" fill="#000000">+ operator==()</text>
</a>
</g>
</g>
<!-- Node9&#45;&gt;Node8 -->
<g id="edge3" class="edge">
<title>Node9&#45;&gt;Node8</title>
<path fill="none" stroke="#191970" d="M241.1865,-835.1318C251.6098,-810.9764 262.2658,-786.2813 271.9981,-763.7273"/>
<polygon fill="none" stroke="#191970" points="237.954,-833.7892 237.2055,-844.3576 244.3811,-836.5626 237.954,-833.7892"/>
</g>
<!-- Node13 -->
<g id="node8" class="node">
<title>Node13</title>
<g id="a_node8"><a xlink:href="classVeterinario.html" target="_top" xlink:title="Implementação dos veterinarios. ">
<polygon fill="#ffffff" stroke="#000000" points="46.5003,-585.5 46.5003,-763.5 210.5003,-763.5 210.5003,-585.5 46.5003,-585.5"/>
<text text-anchor="middle" x="128.5003" y="-743.5" font-family="Helvetica,sans-Serif" font-size="20.00" fill="#000000">Veterinario</text>
<polyline fill="none" stroke="#000000" points="46.5003,-733.5 210.5003,-733.5 "/>
<text text-anchor="middle" x="128.5003" y="-713.5" font-family="Helvetica,sans-Serif" font-size="20.00" fill="#000000"> </text>
<polyline fill="none" stroke="#000000" points="46.5003,-703.5 210.5003,-703.5 "/>
<text text-anchor="start" x="54.5003" y="-683.5" font-family="Helvetica,sans-Serif" font-size="20.00" fill="#000000">+ Veterinario()</text>
<text text-anchor="start" x="54.5003" y="-661.5" font-family="Helvetica,sans-Serif" font-size="20.00" fill="#000000">+ Veterinario()</text>
<text text-anchor="start" x="54.5003" y="-639.5" font-family="Helvetica,sans-Serif" font-size="20.00" fill="#000000">+ ~Veterinario()</text>
<text text-anchor="start" x="54.5003" y="-617.5" font-family="Helvetica,sans-Serif" font-size="20.00" fill="#000000">+ getCRMV()</text>
<text text-anchor="start" x="54.5003" y="-595.5" font-family="Helvetica,sans-Serif" font-size="20.00" fill="#000000">+ printOutDados()</text>
</a>
</g>
</g>
<!-- Node9&#45;&gt;Node13 -->
<g id="edge9" class="edge">
<title>Node9&#45;&gt;Node13</title>
<path fill="none" stroke="#191970" d="M159.1839,-834.4932C154.5904,-810.5414 149.8997,-786.0826 145.6123,-763.7273"/>
<polygon fill="none" stroke="#191970" points="155.7548,-835.1958 161.0757,-844.3576 162.6295,-833.8773 155.7548,-835.1958"/>
</g>
<!-- Node10 -->
<g id="node5" class="node">
<title>Node10</title>
<polygon fill="#ffffff" stroke="#bfbfbf" points="152.5003,-1191.5 152.5003,-1281.5 216.5003,-1281.5 216.5003,-1191.5 152.5003,-1191.5"/>
<text text-anchor="middle" x="184.5003" y="-1261.5" font-family="Helvetica,sans-Serif" font-size="20.00" fill="#000000">string</text>
<polyline fill="none" stroke="#bfbfbf" points="152.5003,-1251.5 216.5003,-1251.5 "/>
<text text-anchor="middle" x="184.5003" y="-1231.5" font-family="Helvetica,sans-Serif" font-size="20.00" fill="#000000"> </text>
<polyline fill="none" stroke="#bfbfbf" points="152.5003,-1221.5 216.5003,-1221.5 "/>
<text text-anchor="middle" x="184.5003" y="-1201.5" font-family="Helvetica,sans-Serif" font-size="20.00" fill="#000000"> </text>
</g>
<!-- Node10&#45;&gt;Node7 -->
<g id="edge7" class="edge">
<title>Node10&#45;&gt;Node7</title>
<path fill="none" stroke="#404040" d="M216.5905,-1223.7031C263.2741,-1203.16 348.3842,-1157.9933 385.5003,-1089 434.7712,-997.4124 435.2215,-723.4077 429.2179,-538.8008"/>
<polygon fill="none" stroke="#404040" points="429.2169,-538.7664 425.0175,-532.9042 428.8136,-526.7732 433.013,-532.6354 429.2169,-538.7664"/>
<text text-anchor="middle" x="470.5003" y="-810" font-family="Helvetica,sans-Serif" font-size="20.00" fill="#000000"> #especie</text>
<text text-anchor="middle" x="470.5003" y="-788" font-family="Helvetica,sans-Serif" font-size="20.00" fill="#000000">#nome</text>
</g>
<!-- Node10&#45;&gt;Node9 -->
<g id="edge4" class="edge">
<title>Node10&#45;&gt;Node9</title>
<path fill="none" stroke="#404040" d="M184.5003,-1191.3081C184.5003,-1166.172 184.5003,-1133.4339 184.5003,-1100.7541"/>
<polygon fill="none" stroke="#404040" points="184.5004,-1100.731 180.5003,-1094.731 184.5003,-1088.731 188.5003,-1094.7309 184.5004,-1100.731"/>
<text text-anchor="middle" x="223.0003" y="-1157" font-family="Helvetica,sans-Serif" font-size="20.00" fill="#000000"> #email</text>
<text text-anchor="middle" x="223.0003" y="-1135" font-family="Helvetica,sans-Serif" font-size="20.00" fill="#000000">#nome</text>
<text text-anchor="middle" x="223.0003" y="-1113" font-family="Helvetica,sans-Serif" font-size="20.00" fill="#000000">#telefone</text>
</g>
<!-- Node10&#45;&gt;Node13 -->
<g id="edge10" class="edge">
<title>Node10&#45;&gt;Node13</title>
<path fill="none" stroke="#404040" d="M152.4668,-1217.9277C114.4127,-1193.7894 52.8922,-1147.6955 27.5003,-1089 -15.7334,-989.0618 -1.4062,-948.9819 27.5003,-844 34.0647,-820.1593 44.958,-796.2862 57.2168,-774.2948"/>
<polygon fill="none" stroke="#404040" points="57.3506,-774.0619 56.8732,-766.8666 63.3315,-763.6585 63.8088,-770.8538 57.3506,-774.0619"/>
<text text-anchor="middle" x="60.5003" y="-961.5" font-family="Helvetica,sans-Serif" font-size="20.00" fill="#000000"> &#45;CRMV</text>
</g>
<!-- Node11 -->
<g id="node6" class="node">
<title>Node11</title>
<polygon fill="#ffffff" stroke="#bfbfbf" points="284.5003,-921.5 284.5003,-1011.5 376.5003,-1011.5 376.5003,-921.5 284.5003,-921.5"/>
<text text-anchor="middle" x="330.5003" y="-991.5" font-family="Helvetica,sans-Serif" font-size="20.00" fill="#000000">Uniforme</text>
<polyline fill="none" stroke="#bfbfbf" points="284.5003,-981.5 376.5003,-981.5 "/>
<text text-anchor="middle" x="330.5003" y="-961.5" font-family="Helvetica,sans-Serif" font-size="20.00" fill="#000000"> </text>
<polyline fill="none" stroke="#bfbfbf" points="284.5003,-951.5 376.5003,-951.5 "/>
<text text-anchor="middle" x="330.5003" y="-931.5" font-family="Helvetica,sans-Serif" font-size="20.00" fill="#000000"> </text>
</g>
<!-- Node11&#45;&gt;Node8 -->
<g id="edge5" class="edge">
<title>Node11&#45;&gt;Node8</title>
<path fill="none" stroke="#404040" d="M324.3477,-921.3503C320.8517,-893.8458 316.7377,-857.9595 314.5003,-826 313.3691,-809.8427 312.5507,-792.6958 311.96,-775.9694"/>
<polygon fill="none" stroke="#404040" points="311.9571,-775.8782 307.7651,-770.0107 311.5689,-763.8845 315.7609,-769.7519 311.9571,-775.8782"/>
<text text-anchor="middle" x="356.5003" y="-799" font-family="Helvetica,sans-Serif" font-size="20.00" fill="#000000"> &#45;uniforme</text>
</g>
<!-- Node12 -->
<g id="node7" class="node">
<title>Node12</title>
<polygon fill="#ffffff" stroke="#bfbfbf" points="489.0003,-629.5 489.0003,-719.5 540.0003,-719.5 540.0003,-629.5 489.0003,-629.5"/>
<text text-anchor="middle" x="514.5003" y="-699.5" font-family="Helvetica,sans-Serif" font-size="20.00" fill="#000000">bool</text>
<polyline fill="none" stroke="#bfbfbf" points="489.0003,-689.5 540.0003,-689.5 "/>
<text text-anchor="middle" x="514.5003" y="-669.5" font-family="Helvetica,sans-Serif" font-size="20.00" fill="#000000"> </text>
<polyline fill="none" stroke="#bfbfbf" points="489.0003,-659.5 540.0003,-659.5 "/>
<text text-anchor="middle" x="514.5003" y="-639.5" font-family="Helvetica,sans-Serif" font-size="20.00" fill="#000000"> </text>
</g>
<!-- Node12&#45;&gt;Node6 -->
<g id="edge11" class="edge">
<title>Node12&#45;&gt;Node6</title>
<path fill="none" stroke="#404040" d="M527.9228,-629.4276C532.9415,-610.3558 538.0228,-587.7823 540.5003,-567 541.6577,-557.291 540.8062,-554.773 540.5003,-545 535.609,-388.7704 543.7741,-348.2493 518.5003,-194 517.127,-185.6189 515.4011,-176.9672 513.4703,-168.3453"/>
<polygon fill="none" stroke="#404040" points="513.464,-168.3181 508.1998,-163.3898 510.7243,-156.635 515.9885,-161.5633 513.464,-168.3181"/>
<text text-anchor="middle" x="588.0003" y="-355.5" font-family="Helvetica,sans-Serif" font-size="20.00" fill="#000000"> #adestrado</text>
</g>
<!-- Node12&#45;&gt;Node7 -->
<g id="edge6" class="edge">
<title>Node12&#45;&gt;Node7</title>
<path fill="none" stroke="#404040" d="M488.854,-636.218C476.6722,-616.3467 462.9599,-591.2128 454.5003,-567 451.284,-557.7946 448.3684,-548.2497 445.7258,-538.5378"/>
<polygon fill="none" stroke="#404040" points="445.6477,-538.236 440.2699,-533.4319 442.636,-526.6201 448.0138,-531.4241 445.6477,-538.236"/>
<text text-anchor="middle" x="497.5003" y="-551" font-family="Helvetica,sans-Serif" font-size="20.00" fill="#000000"> #perigoso</text>
</g>
<!-- Node13&#45;&gt;Node7 -->
<g id="edge8" class="edge">
<title>Node13&#45;&gt;Node7</title>
<path fill="none" stroke="#404040" d="M182.6693,-585.1752C192.3492,-571.2757 202.7844,-557.4212 213.5003,-545 245.9029,-507.4406 285.7576,-470.2257 321.8155,-439.1632"/>
<polygon fill="none" stroke="#404040" points="322.2603,-438.7832 324.2231,-431.8443 331.3832,-430.9874 329.4203,-437.9262 322.2603,-438.7832"/>
<text text-anchor="middle" x="265.0003" y="-551" font-family="Helvetica,sans-Serif" font-size="20.00" fill="#000000"> #veterinario</text>
</g>
</g>
</svg>
