<?xml version="1.0" encoding="UTF-8" standalone="no"?>
<!DOCTYPE svg PUBLIC "-//W3C//DTD SVG 1.1//EN"
 "http://www.w3.org/Graphics/SVG/1.1/DTD/svg11.dtd">
<!-- Generated by graphviz version 2.43.0 (0)
 -->
<!-- Title: Animal Pages: 1 -->
<svg width="767pt" height="578pt"
 viewBox="0.00 0.00 767.00 578.00" xmlns="http://www.w3.org/2000/svg" xmlns:xlink="http://www.w3.org/1999/xlink">
<g id="graph0" class="graph" transform="scale(1 1) rotate(0) translate(4 574)">
<title>Animal</title>
<polygon fill="white" stroke="transparent" points="-4,4 -4,-574 763,-574 763,4 -4,4"/>
<!-- Node1 -->
<g id="node1" class="node">
<title>Node1</title>
<g id="a_node1"><a xlink:title="Implementação base para o cadastro de animais.">
<polygon fill="#bfbfbf" stroke="black" points="277,-0.5 277,-376.5 500,-376.5 500,-0.5 277,-0.5"/>
<text text-anchor="middle" x="388.5" y="-356.5" font-family="Helvetica,sans-Serif" font-size="20.00">Animal</text>
<polyline fill="none" stroke="black" points="277,-346.5 500,-346.5 "/>
<text text-anchor="middle" x="388.5" y="-326.5" font-family="Helvetica,sans-Serif" font-size="20.00"> </text>
<polyline fill="none" stroke="black" points="277,-316.5 500,-316.5 "/>
<text text-anchor="start" x="285" y="-296.5" font-family="Helvetica,sans-Serif" font-size="20.00">+ Animal()</text>
<text text-anchor="start" x="285" y="-274.5" font-family="Helvetica,sans-Serif" font-size="20.00">+ Animal()</text>
<text text-anchor="start" x="285" y="-252.5" font-family="Helvetica,sans-Serif" font-size="20.00">+ ~Animal()</text>
<text text-anchor="start" x="285" y="-230.5" font-family="Helvetica,sans-Serif" font-size="20.00">+ getNome()</text>
<text text-anchor="start" x="285" y="-208.5" font-family="Helvetica,sans-Serif" font-size="20.00">+ getEspecie()</text>
<text text-anchor="start" x="285" y="-186.5" font-family="Helvetica,sans-Serif" font-size="20.00">+ getAmeacadoPor()</text>
<text text-anchor="start" x="285" y="-164.5" font-family="Helvetica,sans-Serif" font-size="20.00">+ getVeterinario()</text>
<text text-anchor="start" x="285" y="-142.5" font-family="Helvetica,sans-Serif" font-size="20.00">+ getTratador()</text>
<text text-anchor="start" x="285" y="-120.5" font-family="Helvetica,sans-Serif" font-size="20.00">+ getPerigoso()</text>
<text text-anchor="start" x="285" y="-98.5" font-family="Helvetica,sans-Serif" font-size="20.00">+ setNome()</text>
<text text-anchor="start" x="285" y="-76.5" font-family="Helvetica,sans-Serif" font-size="20.00">e 13 mais...</text>
<text text-anchor="start" x="285" y="-54.5" font-family="Helvetica,sans-Serif" font-size="20.00">+ getClassificacao()</text>
<text text-anchor="start" x="285" y="-32.5" font-family="Helvetica,sans-Serif" font-size="20.00">+ getClasse()</text>
<text text-anchor="start" x="285" y="-10.5" font-family="Helvetica,sans-Serif" font-size="20.00">+ printOutDetails()</text>
</a>
</g>
</g>
<!-- Node2 -->
<g id="node2" class="node">
<title>Node2</title>
<g id="a_node2"><a xlink:title=" ">
<polygon fill="white" stroke="#bfbfbf" points="0,-479.5 0,-569.5 275,-569.5 275,-479.5 0,-479.5"/>
<text text-anchor="middle" x="137.5" y="-549.5" font-family="Helvetica,sans-Serif" font-size="20.00">shared_ptr&lt; Veterinario &gt;</text>
<polyline fill="none" stroke="#bfbfbf" points="0,-539.5 275,-539.5 "/>
<text text-anchor="middle" x="137.5" y="-519.5" font-family="Helvetica,sans-Serif" font-size="20.00"> </text>
<polyline fill="none" stroke="#bfbfbf" points="0,-509.5 275,-509.5 "/>
<text text-anchor="middle" x="137.5" y="-489.5" font-family="Helvetica,sans-Serif" font-size="20.00"> </text>
</a>
</g>
</g>
<!-- Node2&#45;&gt;Node1 -->
<g id="edge1" class="edge">
<title>Node2&#45;&gt;Node1</title>
<path fill="none" stroke="#404040" d="M148.5,-479.4C156.17,-453.54 168,-420.96 184.5,-395 207.55,-358.74 237.94,-323.79 268.21,-293.31"/>
<polygon fill="none" stroke="#404040" points="268.23,-293.29 269.66,-286.23 276.74,-284.83 275.3,-291.9 268.23,-293.29"/>
<text text-anchor="middle" x="249.5" y="-423" font-family="Helvetica,sans-Serif" font-size="20.00"> #veterinario</text>
</g>
<!-- Node3 -->
<g id="node3" class="node">
<title>Node3</title>
<g id="a_node3"><a xlink:title=" ">
<polygon fill="white" stroke="#bfbfbf" points="293,-479.5 293,-569.5 352,-569.5 352,-479.5 293,-479.5"/>
<text text-anchor="middle" x="322.5" y="-549.5" font-family="Helvetica,sans-Serif" font-size="20.00">bool</text>
<polyline fill="none" stroke="#bfbfbf" points="293,-539.5 352,-539.5 "/>
<text text-anchor="middle" x="322.5" y="-519.5" font-family="Helvetica,sans-Serif" font-size="20.00"> </text>
<polyline fill="none" stroke="#bfbfbf" points="293,-509.5 352,-509.5 "/>
<text text-anchor="middle" x="322.5" y="-489.5" font-family="Helvetica,sans-Serif" font-size="20.00"> </text>
</a>
</g>
</g>
<!-- Node3&#45;&gt;Node1 -->
<g id="edge2" class="edge">
<title>Node3&#45;&gt;Node1</title>
<path fill="none" stroke="#404040" d="M319.61,-479.22C318.79,-454.33 319.1,-422.76 323.5,-395 323.85,-392.81 324.21,-390.61 324.6,-388.4"/>
<polygon fill="none" stroke="#404040" points="324.61,-388.33 321.78,-381.7 326.81,-376.54 329.64,-383.17 324.61,-388.33"/>
<text text-anchor="middle" x="378" y="-423" font-family="Helvetica,sans-Serif" font-size="20.00"> #perigoso</text>
</g>
<!-- Node4 -->
<g id="node4" class="node">
<title>Node4</title>
<g id="a_node4"><a xlink:title=" ">
<polygon fill="white" stroke="#bfbfbf" points="417.5,-479.5 417.5,-569.5 491.5,-569.5 491.5,-479.5 417.5,-479.5"/>
<text text-anchor="middle" x="454.5" y="-549.5" font-family="Helvetica,sans-Serif" font-size="20.00">string</text>
<polyline fill="none" stroke="#bfbfbf" points="417.5,-539.5 491.5,-539.5 "/>
<text text-anchor="middle" x="454.5" y="-519.5" font-family="Helvetica,sans-Serif" font-size="20.00"> </text>
<polyline fill="none" stroke="#bfbfbf" points="417.5,-509.5 491.5,-509.5 "/>
<text text-anchor="middle" x="454.5" y="-489.5" font-family="Helvetica,sans-Serif" font-size="20.00"> </text>
</a>
</g>
</g>
<!-- Node4&#45;&gt;Node1 -->
<g id="edge3" class="edge">
<title>Node4&#45;&gt;Node1</title>
<path fill="none" stroke="#404040" d="M447.41,-479.41C443.31,-454.57 437.89,-423 432.5,-395 432.1,-392.94 431.7,-390.86 431.3,-388.78"/>
<polygon fill="none" stroke="#404040" points="431.25,-388.53 426.16,-383.41 428.93,-376.75 434.01,-381.87 431.25,-388.53"/>
<text text-anchor="middle" x="519.5" y="-445" font-family="Helvetica,sans-Serif" font-size="20.00"> #especie</text>
<text text-anchor="middle" x="519.5" y="-423" font-family="Helvetica,sans-Serif" font-size="20.00">#ameacadoPor</text>
<text text-anchor="middle" x="519.5" y="-401" font-family="Helvetica,sans-Serif" font-size="20.00">#nome</text>
</g>
<!-- Node5 -->
<g id="node5" class="node">
<title>Node5</title>
<g id="a_node5"><a xlink:title=" ">
<polygon fill="white" stroke="#bfbfbf" points="510,-479.5 510,-569.5 759,-569.5 759,-479.5 510,-479.5"/>
<text text-anchor="middle" x="634.5" y="-549.5" font-family="Helvetica,sans-Serif" font-size="20.00">shared_ptr&lt; Tratador &gt;</text>
<polyline fill="none" stroke="#bfbfbf" points="510,-539.5 759,-539.5 "/>
<text text-anchor="middle" x="634.5" y="-519.5" font-family="Helvetica,sans-Serif" font-size="20.00"> </text>
<polyline fill="none" stroke="#bfbfbf" points="510,-509.5 759,-509.5 "/>
<text text-anchor="middle" x="634.5" y="-489.5" font-family="Helvetica,sans-Serif" font-size="20.00"> </text>
</a>
</g>
</g>
<!-- Node5&#45;&gt;Node1 -->
<g id="edge4" class="edge">
<title>Node5&#45;&gt;Node1</title>
<path fill="none" stroke="#404040" d="M628.44,-479.28C623.47,-453.38 614.7,-420.8 599.5,-395 575.92,-354.96 542.49,-317.45 509.17,-285.72"/>
<polygon fill="none" stroke="#404040" points="509.01,-285.56 501.89,-284.38 500.25,-277.35 507.37,-278.54 509.01,-285.56"/>
<text text-anchor="middle" x="675" y="-423" font-family="Helvetica,sans-Serif" font-size="20.00"> #tratador</text>
</g>
</g>
</svg>
