<?xml version="1.0" encoding="UTF-8" standalone="no"?>
<!DOCTYPE svg PUBLIC "-//W3C//DTD SVG 1.1//EN"
 "http://www.w3.org/Graphics/SVG/1.1/DTD/svg11.dtd">
<!-- Generated by graphviz version 2.40.1 (20161225.0304)
 -->
<!-- Title: Legenda do Grafo Pages: 1 -->
<svg width="783pt" height="214pt"
 viewBox="0.00 0.00 783.00 214.00" xmlns="http://www.w3.org/2000/svg" xmlns:xlink="http://www.w3.org/1999/xlink">
<g id="graph0" class="graph" transform="scale(1 1) rotate(0) translate(4 210)">
<title>Legenda do Grafo</title>
<polygon fill="#ffffff" stroke="transparent" points="-4,4 -4,-210 779,-210 779,4 -4,4"/>
<!-- Node9 -->
<g id="node1" class="node">
<title>Node9</title>
<polygon fill="#bfbfbf" stroke="#000000" points="458.5,-30 368.5,-30 368.5,0 458.5,0 458.5,-30"/>
<text text-anchor="middle" x="413.5" y="-10" font-family="Helvetica,sans-Serif" font-size="20.00" fill="#000000">Inherited</text>
</g>
<!-- Node10 -->
<g id="node2" class="node">
<title>Node10</title>
<g id="a_node2"><a xlink:href="$classPublicBase.html" xlink:title="PublicBase">
<polygon fill="none" stroke="#000000" points="109,-118 0,-118 0,-88 109,-88 109,-118"/>
<text text-anchor="middle" x="54.5" y="-98" font-family="Helvetica,sans-Serif" font-size="20.00" fill="#000000">PublicBase</text>
</a>
</g>
</g>
<!-- Node10&#45;&gt;Node9 -->
<g id="edge1" class="edge">
<title>Node10&#45;&gt;Node9</title>
<path fill="none" stroke="#191970" d="M119.1279,-86.7501C163.1715,-75.7166 222.8267,-60.852 275.5,-48 306.4916,-40.4382 341.4418,-32.0823 368.415,-25.6708"/>
<polygon fill="#191970" stroke="#191970" points="118.2614,-83.3589 109.4124,-89.1852 119.9633,-90.1488 118.2614,-83.3589"/>
</g>
<!-- Node11 -->
<g id="node3" class="node">
<title>Node11</title>
<g id="a_node3"><a xlink:href="$classTruncated.html" xlink:title="Truncated">
<polygon fill="none" stroke="#ff0000" points="105,-206 4,-206 4,-176 105,-176 105,-206"/>
<text text-anchor="middle" x="54.5" y="-186" font-family="Helvetica,sans-Serif" font-size="20.00" fill="#000000">Truncated</text>
</a>
</g>
</g>
<!-- Node11&#45;&gt;Node10 -->
<g id="edge2" class="edge">
<title>Node11&#45;&gt;Node10</title>
<path fill="none" stroke="#191970" d="M54.5,-165.2993C54.5,-149.9949 54.5,-131.0964 54.5,-118.1528"/>
<polygon fill="#191970" stroke="#191970" points="51.0001,-165.6715 54.5,-175.6716 58.0001,-165.6716 51.0001,-165.6715"/>
</g>
<!-- Node13 -->
<g id="node4" class="node">
<title>Node13</title>
<g id="a_node4"><a xlink:href="$classProtectedBase.html" xlink:title="ProtectedBase">
<polygon fill="none" stroke="#000000" points="264,-118 127,-118 127,-88 264,-88 264,-118"/>
<text text-anchor="middle" x="195.5" y="-98" font-family="Helvetica,sans-Serif" font-size="20.00" fill="#000000">ProtectedBase</text>
</a>
</g>
</g>
<!-- Node13&#45;&gt;Node9 -->
<g id="edge3" class="edge">
<title>Node13&#45;&gt;Node9</title>
<path fill="none" stroke="#006400" d="M242.2556,-84.1262C282.2689,-67.974 339.1149,-45.027 376.1494,-30.0773"/>
<polygon fill="#006400" stroke="#006400" points="240.9384,-80.8834 232.9755,-87.8723 243.5587,-87.3745 240.9384,-80.8834"/>
</g>
<!-- Node14 -->
<g id="node5" class="node">
<title>Node14</title>
<g id="a_node5"><a xlink:href="$classPrivateBase.html" xlink:title="PrivateBase">
<polygon fill="none" stroke="#000000" points="398.5,-118 282.5,-118 282.5,-88 398.5,-88 398.5,-118"/>
<text text-anchor="middle" x="340.5" y="-98" font-family="Helvetica,sans-Serif" font-size="20.00" fill="#000000">PrivateBase</text>
</a>
</g>
</g>
<!-- Node14&#45;&gt;Node9 -->
<g id="edge4" class="edge">
<title>Node14&#45;&gt;Node9</title>
<path fill="none" stroke="#8b1a1a" d="M359.6331,-79.9354C372.6724,-64.2169 389.5673,-43.8504 400.9301,-30.1528"/>
<polygon fill="#8b1a1a" stroke="#8b1a1a" points="356.9065,-77.7404 353.2156,-87.6716 362.2941,-82.2096 356.9065,-77.7404"/>
</g>
<!-- Node15 -->
<g id="node6" class="node">
<title>Node15</title>
<polygon fill="none" stroke="#bfbfbf" points="558.5,-118 416.5,-118 416.5,-88 558.5,-88 558.5,-118"/>
<text text-anchor="middle" x="487.5" y="-98" font-family="Helvetica,sans-Serif" font-size="20.00" fill="#000000">Undocumented</text>
</g>
<!-- Node15&#45;&gt;Node9 -->
<g id="edge5" class="edge">
<title>Node15&#45;&gt;Node9</title>
<path fill="none" stroke="#191970" d="M468.1048,-79.9354C454.8869,-64.2169 437.7605,-43.8504 426.2421,-30.1528"/>
<polygon fill="#191970" stroke="#191970" points="465.4954,-82.2705 474.6102,-87.6716 470.8529,-77.7653 465.4954,-82.2705"/>
</g>
<!-- Node16 -->
<g id="node7" class="node">
<title>Node16</title>
<g id="a_node7"><a xlink:href="$classTempl.html" xlink:title="Templ&lt; int &gt;">
<polygon fill="none" stroke="#000000" points="698,-118 577,-118 577,-88 698,-88 698,-118"/>
<text text-anchor="middle" x="637.5" y="-98" font-family="Helvetica,sans-Serif" font-size="20.00" fill="#000000">Templ&lt; int &gt;</text>
</a>
</g>
</g>
<!-- Node16&#45;&gt;Node9 -->
<g id="edge6" class="edge">
<title>Node16&#45;&gt;Node9</title>
<path fill="none" stroke="#191970" d="M589.7192,-84.229C548.6238,-68.0843 490.1064,-45.0954 451.9697,-30.1131"/>
<polygon fill="#191970" stroke="#191970" points="588.6602,-87.5733 599.2475,-87.9722 591.2198,-81.058 588.6602,-87.5733"/>
</g>
<!-- Node17 -->
<g id="node8" class="node">
<title>Node17</title>
<g id="a_node8"><a xlink:href="$classTempl.html" xlink:title="Templ&lt; T &gt;">
<polygon fill="none" stroke="#000000" points="693.5,-206 581.5,-206 581.5,-176 693.5,-176 693.5,-206"/>
<text text-anchor="middle" x="637.5" y="-186" font-family="Helvetica,sans-Serif" font-size="20.00" fill="#000000">Templ&lt; T &gt;</text>
</a>
</g>
</g>
<!-- Node17&#45;&gt;Node16 -->
<g id="edge7" class="edge">
<title>Node17&#45;&gt;Node16</title>
<path fill="none" stroke="#ffa500" stroke-dasharray="5,2" d="M637.5,-165.2993C637.5,-149.9949 637.5,-131.0964 637.5,-118.1528"/>
<polygon fill="#ffa500" stroke="#ffa500" points="634.0001,-165.6715 637.5,-175.6716 641.0001,-165.6716 634.0001,-165.6715"/>
<text text-anchor="middle" x="664" y="-142" font-family="Helvetica,sans-Serif" font-size="20.00" fill="#000000">&lt; int &gt;</text>
</g>
<!-- Node18 -->
<g id="node9" class="node">
<title>Node18</title>
<g id="a_node9"><a xlink:href="$classUsed.html" xlink:title="Used">
<polygon fill="none" stroke="#000000" points="775,-118 716,-118 716,-88 775,-88 775,-118"/>
<text text-anchor="middle" x="745.5" y="-98" font-family="Helvetica,sans-Serif" font-size="20.00" fill="#000000">Used</text>
</a>
</g>
</g>
<!-- Node18&#45;&gt;Node9 -->
<g id="edge8" class="edge">
<title>Node18&#45;&gt;Node9</title>
<path fill="none" stroke="#9a32cd" stroke-dasharray="5,2" d="M705.9893,-87.7179C613.665,-58.632 514.7576,-36.1925 458.595,-24.2477"/>
<polygon fill="#9a32cd" stroke="#9a32cd" points="705.1737,-91.1313 715.7643,-90.8307 707.2978,-84.4613 705.1737,-91.1313"/>
<text text-anchor="middle" x="699.5" y="-54" font-family="Helvetica,sans-Serif" font-size="20.00" fill="#000000">m_usedClass</text>
</g>
</g>
</svg>
