<?xml version="1.0" encoding="UTF-8" standalone="no"?>
<!DOCTYPE svg PUBLIC "-//W3C//DTD SVG 1.1//EN"
 "http://www.w3.org/Graphics/SVG/1.1/DTD/svg11.dtd">
<!-- Generated by graphviz version 2.43.0 (0)
 -->
<!-- Title: Legenda do Grafo Pages: 1 -->
<svg width="900pt" height="214pt"
 viewBox="0.00 0.00 899.50 214.00" xmlns="http://www.w3.org/2000/svg" xmlns:xlink="http://www.w3.org/1999/xlink">
<g id="graph0" class="graph" transform="scale(1 1) rotate(0) translate(4 210)">
<title>Legenda do Grafo</title>
<polygon fill="white" stroke="transparent" points="-4,4 -4,-210 895.5,-210 895.5,4 -4,4"/>
<!-- Node9 -->
<g id="node1" class="node">
<title>Node9</title>
<polygon fill="#bfbfbf" stroke="black" points="525,-30 419,-30 419,0 525,0 525,-30"/>
<text text-anchor="middle" x="472" y="-10" font-family="Helvetica,sans-Serif" font-size="20.00">Inherited</text>
</g>
<!-- Node10 -->
<g id="node2" class="node">
<title>Node10</title>
<polygon fill="none" stroke="black" points="124,-118 0,-118 0,-88 124,-88 124,-118"/>
<text text-anchor="middle" x="62" y="-98" font-family="Helvetica,sans-Serif" font-size="20.00">PublicBase</text>
</g>
<!-- Node10&#45;&gt;Node9 -->
<g id="edge1" class="edge">
<title>Node10&#45;&gt;Node9</title>
<path fill="none" stroke="midnightblue" d="M133.92,-86.36C184.3,-75.46 253.22,-60.67 314,-48 348.93,-40.72 388.26,-32.75 418.94,-26.59"/>
<polygon fill="midnightblue" stroke="midnightblue" points="133.13,-82.95 124.1,-88.49 134.61,-89.8 133.13,-82.95"/>
</g>
<!-- Node11 -->
<g id="node3" class="node">
<title>Node11</title>
<polygon fill="none" stroke="red" points="119.5,-206 4.5,-206 4.5,-176 119.5,-176 119.5,-206"/>
<text text-anchor="middle" x="62" y="-186" font-family="Helvetica,sans-Serif" font-size="20.00">Truncated</text>
</g>
<!-- Node11&#45;&gt;Node10 -->
<g id="edge2" class="edge">
<title>Node11&#45;&gt;Node10</title>
<path fill="none" stroke="midnightblue" d="M62,-165.49C62,-150.2 62,-131.05 62,-118.22"/>
<polygon fill="midnightblue" stroke="midnightblue" points="58.5,-165.8 62,-175.8 65.5,-165.8 58.5,-165.8"/>
</g>
<!-- Node13 -->
<g id="node4" class="node">
<title>Node13</title>
<polygon fill="none" stroke="black" points="301.5,-118 142.5,-118 142.5,-88 301.5,-88 301.5,-118"/>
<text text-anchor="middle" x="222" y="-98" font-family="Helvetica,sans-Serif" font-size="20.00">ProtectedBase</text>
</g>
<!-- Node13&#45;&gt;Node9 -->
<g id="edge3" class="edge">
<title>Node13&#45;&gt;Node9</title>
<path fill="none" stroke="darkgreen" d="M272.35,-84.68C319.12,-68.59 387.9,-44.93 431.29,-30"/>
<polygon fill="darkgreen" stroke="darkgreen" points="271.04,-81.43 262.72,-87.99 273.32,-88.05 271.04,-81.43"/>
</g>
<!-- Node14 -->
<g id="node5" class="node">
<title>Node14</title>
<polygon fill="none" stroke="black" points="454,-118 320,-118 320,-88 454,-88 454,-118"/>
<text text-anchor="middle" x="387" y="-98" font-family="Helvetica,sans-Serif" font-size="20.00">PrivateBase</text>
</g>
<!-- Node14&#45;&gt;Node9 -->
<g id="edge4" class="edge">
<title>Node14&#45;&gt;Node9</title>
<path fill="none" stroke="#8b1a1a" d="M408.2,-80.55C423.74,-64.83 444.4,-43.92 457.94,-30.22"/>
<polygon fill="#8b1a1a" stroke="#8b1a1a" points="405.58,-78.23 401.04,-87.8 410.55,-83.15 405.58,-78.23"/>
</g>
<!-- Node15 -->
<g id="node6" class="node">
<title>Node15</title>
<polygon fill="none" stroke="#bfbfbf" points="642,-118 472,-118 472,-88 642,-88 642,-118"/>
<text text-anchor="middle" x="557" y="-98" font-family="Helvetica,sans-Serif" font-size="20.00">Undocumented</text>
</g>
<!-- Node15&#45;&gt;Node9 -->
<g id="edge5" class="edge">
<title>Node15&#45;&gt;Node9</title>
<path fill="none" stroke="midnightblue" d="M535.8,-80.55C520.26,-64.83 499.6,-43.92 486.06,-30.22"/>
<polygon fill="midnightblue" stroke="midnightblue" points="533.45,-83.15 542.96,-87.8 538.42,-78.23 533.45,-83.15"/>
</g>
<!-- Node16 -->
<g id="node7" class="node">
<title>Node16</title>
<polygon fill="none" stroke="black" points="806,-118 660,-118 660,-88 806,-88 806,-118"/>
<text text-anchor="middle" x="733" y="-98" font-family="Helvetica,sans-Serif" font-size="20.00">Templ&lt; int &gt;</text>
</g>
<!-- Node16&#45;&gt;Node9 -->
<g id="edge6" class="edge">
<title>Node16&#45;&gt;Node9</title>
<path fill="none" stroke="midnightblue" d="M680.74,-84.78C631.9,-68.69 559.9,-44.96 514.5,-30"/>
<polygon fill="midnightblue" stroke="midnightblue" points="679.89,-88.19 690.48,-87.99 682.08,-81.54 679.89,-88.19"/>
</g>
<!-- Node17 -->
<g id="node8" class="node">
<title>Node17</title>
<polygon fill="none" stroke="black" points="799,-206 667,-206 667,-176 799,-176 799,-206"/>
<text text-anchor="middle" x="733" y="-186" font-family="Helvetica,sans-Serif" font-size="20.00">Templ&lt; T &gt;</text>
</g>
<!-- Node17&#45;&gt;Node16 -->
<g id="edge7" class="edge">
<title>Node17&#45;&gt;Node16</title>
<path fill="none" stroke="orange" stroke-dasharray="5,2" d="M733,-165.49C733,-150.2 733,-131.05 733,-118.22"/>
<polygon fill="orange" stroke="orange" points="729.5,-165.8 733,-175.8 736.5,-165.8 729.5,-165.8"/>
<text text-anchor="middle" x="768.5" y="-142" font-family="Helvetica,sans-Serif" font-size="20.00">&lt; int &gt;</text>
</g>
<!-- Node18 -->
<g id="node9" class="node">
<title>Node18</title>
<polygon fill="none" stroke="black" points="891.5,-118 824.5,-118 824.5,-88 891.5,-88 891.5,-118"/>
<text text-anchor="middle" x="858" y="-98" font-family="Helvetica,sans-Serif" font-size="20.00">Used</text>
</g>
<!-- Node18&#45;&gt;Node9 -->
<g id="edge8" class="edge">
<title>Node18&#45;&gt;Node9</title>
<path fill="none" stroke="#9a32cd" stroke-dasharray="5,2" d="M814.53,-88.05C706.42,-59.54 590.77,-37.22 525.01,-25.29"/>
<polygon fill="#9a32cd" stroke="#9a32cd" points="813.74,-91.46 824.3,-90.65 815.54,-84.69 813.74,-91.46"/>
<text text-anchor="middle" x="805" y="-54" font-family="Helvetica,sans-Serif" font-size="20.00">m_usedClass</text>
</g>
</g>
</svg>
