<?xml version="1.0" encoding="UTF-8" standalone="no"?>
<!DOCTYPE svg PUBLIC "-//W3C//DTD SVG 1.1//EN"
 "http://www.w3.org/Graphics/SVG/1.1/DTD/svg11.dtd">
<!-- Generated by graphviz version 2.43.0 (0)
 -->
<!-- Title: Gráfico de Hierarquia de Classes Pages: 1 -->
<svg width="502pt" height="578pt"
 viewBox="0.00 0.00 502.00 578.00" xmlns="http://www.w3.org/2000/svg" xmlns:xlink="http://www.w3.org/1999/xlink">
<g id="graph0" class="graph" transform="scale(1 1) rotate(0) translate(4 574)">
<title>Gráfico de Hierarquia de Classes</title>
<polygon fill="white" stroke="transparent" points="-4,4 -4,-574 498,-574 498,4 -4,4"/>
<!-- Node24 -->
<g id="node1" class="node">
<title>Node24</title>
<g id="a_node1"><a xlink:href="classAnimal.html" target="_top" xlink:title="Implementação base para o cadastro de animais.">
<polygon fill="white" stroke="black" points="0,-257.5 0,-287.5 85,-287.5 85,-257.5 0,-257.5"/>
<text text-anchor="middle" x="42.5" y="-267.5" font-family="Helvetica,sans-Serif" font-size="20.00">Animal</text>
</a>
</g>
</g>
<!-- Node25 -->
<g id="node2" class="node">
<title>Node25</title>
<g id="a_node2"><a xlink:href="classAnfibio.html" target="_top" xlink:title="Classificação base para Anfibios.">
<polygon fill="white" stroke="black" points="139,-315.5 139,-345.5 225,-345.5 225,-315.5 139,-315.5"/>
<text text-anchor="middle" x="182" y="-325.5" font-family="Helvetica,sans-Serif" font-size="20.00">Anfibio</text>
</a>
</g>
</g>
<!-- Node24&#45;&gt;Node25 -->
<g id="edge1" class="edge">
<title>Node24&#45;&gt;Node25</title>
<path fill="none" stroke="midnightblue" d="M88.64,-291.54C107.08,-299.32 128.09,-308.18 145.41,-315.49"/>
<polygon fill="midnightblue" stroke="midnightblue" points="89.84,-288.25 79.27,-287.59 87.12,-294.7 89.84,-288.25"/>
</g>
<!-- Node26 -->
<g id="node6" class="node">
<title>Node26</title>
<g id="a_node6"><a xlink:href="classAve.html" target="_top" xlink:title="Classificação base para Aves.">
<polygon fill="white" stroke="black" points="155.5,-199.5 155.5,-229.5 208.5,-229.5 208.5,-199.5 155.5,-199.5"/>
<text text-anchor="middle" x="182" y="-209.5" font-family="Helvetica,sans-Serif" font-size="20.00">Ave</text>
</a>
</g>
</g>
<!-- Node24&#45;&gt;Node26 -->
<g id="edge5" class="edge">
<title>Node24&#45;&gt;Node26</title>
<path fill="none" stroke="midnightblue" d="M88.51,-253.51C110.7,-244.15 136.64,-233.21 155.4,-225.3"/>
<polygon fill="midnightblue" stroke="midnightblue" points="87.12,-250.3 79.27,-257.41 89.84,-256.75 87.12,-250.3"/>
</g>
<!-- Node27 -->
<g id="node10" class="node">
<title>Node27</title>
<g id="a_node10"><a xlink:href="classMamifero.html" target="_top" xlink:title="Classificação base para Mamiferos.">
<polygon fill="white" stroke="black" points="127.5,-74.5 127.5,-104.5 236.5,-104.5 236.5,-74.5 127.5,-74.5"/>
<text text-anchor="middle" x="182" y="-84.5" font-family="Helvetica,sans-Serif" font-size="20.00">Mamifero</text>
</a>
</g>
</g>
<!-- Node24&#45;&gt;Node27 -->
<g id="edge9" class="edge">
<title>Node24&#45;&gt;Node27</title>
<path fill="none" stroke="midnightblue" d="M54.16,-247.92C67.26,-219.44 91.42,-172.01 121,-137.5 131.76,-124.94 146.18,-113.29 158.18,-104.61"/>
<polygon fill="midnightblue" stroke="midnightblue" points="50.92,-246.6 50,-257.15 57.3,-249.47 50.92,-246.6"/>
</g>
<!-- Node28 -->
<g id="node14" class="node">
<title>Node28</title>
<g id="a_node14"><a xlink:href="classReptil.html" target="_top" xlink:title="Classificação base para Repteis.">
<polygon fill="white" stroke="black" points="146,-465.5 146,-495.5 218,-495.5 218,-465.5 146,-465.5"/>
<text text-anchor="middle" x="182" y="-475.5" font-family="Helvetica,sans-Serif" font-size="20.00">Reptil</text>
</a>
</g>
</g>
<!-- Node24&#45;&gt;Node28 -->
<g id="edge13" class="edge">
<title>Node24&#45;&gt;Node28</title>
<path fill="none" stroke="midnightblue" d="M52.31,-297.37C64.52,-329.68 88.76,-386.86 121,-428.5 131.97,-442.67 147.27,-455.86 159.68,-465.41"/>
<polygon fill="midnightblue" stroke="midnightblue" points="55.53,-295.98 48.78,-287.81 48.96,-298.4 55.53,-295.98"/>
</g>
<!-- Node19 -->
<g id="node3" class="node">
<title>Node19</title>
<g id="a_node3"><a xlink:href="classAnfibioDomestico.html" target="_top" xlink:title="Implementação de animal com Classe e Categoria.">
<polygon fill="white" stroke="black" points="291,-392.5 291,-422.5 482,-422.5 482,-392.5 291,-392.5"/>
<text text-anchor="middle" x="386.5" y="-402.5" font-family="Helvetica,sans-Serif" font-size="20.00">AnfibioDomestico</text>
</a>
</g>
</g>
<!-- Node25&#45;&gt;Node19 -->
<g id="edge2" class="edge">
<title>Node25&#45;&gt;Node19</title>
<path fill="none" stroke="midnightblue" d="M215.13,-351.25C233.28,-362.18 256.72,-375.04 279,-383.5 287.86,-386.87 297.32,-389.83 306.81,-392.43"/>
<polygon fill="midnightblue" stroke="midnightblue" points="216.52,-347.99 206.16,-345.74 212.85,-353.95 216.52,-347.99"/>
</g>
<!-- Node14 -->
<g id="node4" class="node">
<title>Node14</title>
<g id="a_node4"><a xlink:href="classAnfibioExotico.html" target="_top" xlink:title="Implementação de animal com Classe e Categoria.">
<polygon fill="white" stroke="black" points="307.5,-343.5 307.5,-373.5 465.5,-373.5 465.5,-343.5 307.5,-343.5"/>
<text text-anchor="middle" x="386.5" y="-353.5" font-family="Helvetica,sans-Serif" font-size="20.00">AnfibioExotico</text>
</a>
</g>
</g>
<!-- Node25&#45;&gt;Node14 -->
<g id="edge3" class="edge">
<title>Node25&#45;&gt;Node14</title>
<path fill="none" stroke="midnightblue" d="M235.5,-337.76C257.33,-340.78 283.12,-344.34 307.11,-347.66"/>
<polygon fill="midnightblue" stroke="midnightblue" points="235.84,-334.27 225.45,-336.37 234.88,-341.21 235.84,-334.27"/>
</g>
<!-- Node1 -->
<g id="node5" class="node">
<title>Node1</title>
<g id="a_node5"><a xlink:href="classAnfibioNativo.html" target="_top" xlink:title="Implementação de animal com Classe e Categoria.">
<polygon fill="white" stroke="black" points="312,-245.5 312,-275.5 461,-275.5 461,-245.5 312,-245.5"/>
<text text-anchor="middle" x="386.5" y="-255.5" font-family="Helvetica,sans-Serif" font-size="20.00">AnfibioNativo</text>
</a>
</g>
</g>
<!-- Node25&#45;&gt;Node1 -->
<g id="edge4" class="edge">
<title>Node25&#45;&gt;Node1</title>
<path fill="none" stroke="midnightblue" d="M220.59,-310.66C238.01,-302.05 259.2,-292.38 279,-285.5 289.67,-281.79 301.14,-278.46 312.45,-275.52"/>
<polygon fill="midnightblue" stroke="midnightblue" points="218.7,-307.69 211.33,-315.31 221.84,-313.95 218.7,-307.69"/>
</g>
<!-- Node20 -->
<g id="node7" class="node">
<title>Node20</title>
<g id="a_node7"><a xlink:href="classAveDomestica.html" target="_top" xlink:title="Implementação de animal com Classe e Categoria.">
<polygon fill="white" stroke="black" points="307,-294.5 307,-324.5 466,-324.5 466,-294.5 307,-294.5"/>
<text text-anchor="middle" x="386.5" y="-304.5" font-family="Helvetica,sans-Serif" font-size="20.00">AveDomestica</text>
</a>
</g>
</g>
<!-- Node26&#45;&gt;Node20 -->
<g id="edge6" class="edge">
<title>Node26&#45;&gt;Node20</title>
<path fill="none" stroke="midnightblue" d="M217.85,-229.81C226.44,-234.3 235.37,-239.61 243,-245.5 261.93,-260.12 258.36,-273.41 279,-285.5 287.59,-290.53 297.13,-294.5 306.88,-297.65"/>
<polygon fill="midnightblue" stroke="midnightblue" points="219.24,-226.6 208.73,-225.27 216.12,-232.86 219.24,-226.6"/>
</g>
<!-- Node15 -->
<g id="node8" class="node">
<title>Node15</title>
<g id="a_node8"><a xlink:href="classAveExotica.html" target="_top" xlink:title="Implementação de animal com Classe e Categoria.">
<polygon fill="white" stroke="black" points="324,-196.5 324,-226.5 449,-226.5 449,-196.5 324,-196.5"/>
<text text-anchor="middle" x="386.5" y="-206.5" font-family="Helvetica,sans-Serif" font-size="20.00">AveExotica</text>
</a>
</g>
</g>
<!-- Node26&#45;&gt;Node15 -->
<g id="edge7" class="edge">
<title>Node26&#45;&gt;Node15</title>
<path fill="none" stroke="midnightblue" d="M218.72,-213.97C247.69,-213.54 289.21,-212.93 323.58,-212.42"/>
<polygon fill="midnightblue" stroke="midnightblue" points="218.59,-210.47 208.65,-214.12 218.7,-217.47 218.59,-210.47"/>
</g>
<!-- Node2 -->
<g id="node9" class="node">
<title>Node2</title>
<g id="a_node9"><a xlink:href="classAveNativa.html" target="_top" xlink:title="Implementação de animal com Classe e Categoria.">
<polygon fill="white" stroke="black" points="328,-147.5 328,-177.5 445,-177.5 445,-147.5 328,-147.5"/>
<text text-anchor="middle" x="386.5" y="-157.5" font-family="Helvetica,sans-Serif" font-size="20.00">AveNativa</text>
</a>
</g>
</g>
<!-- Node26&#45;&gt;Node2 -->
<g id="edge8" class="edge">
<title>Node26&#45;&gt;Node2</title>
<path fill="none" stroke="midnightblue" d="M218.42,-204.14C236.49,-198.95 258.87,-192.69 279,-187.5 294.82,-183.42 312.02,-179.26 327.91,-175.54"/>
<polygon fill="midnightblue" stroke="midnightblue" points="217.23,-200.84 208.59,-206.98 219.17,-207.57 217.23,-200.84"/>
</g>
<!-- Node21 -->
<g id="node11" class="node">
<title>Node21</title>
<g id="a_node11"><a xlink:href="classMamiferoDomestico.html" target="_top" xlink:title="Implementação de animal com Classe e Categoria.">
<polygon fill="white" stroke="black" points="279,-98.5 279,-128.5 494,-128.5 494,-98.5 279,-98.5"/>
<text text-anchor="middle" x="386.5" y="-108.5" font-family="Helvetica,sans-Serif" font-size="20.00">MamiferoDomestico</text>
</a>
</g>
</g>
<!-- Node27&#45;&gt;Node21 -->
<g id="edge10" class="edge">
<title>Node27&#45;&gt;Node21</title>
<path fill="none" stroke="midnightblue" d="M246.72,-97.05C256.93,-98.26 267.73,-99.54 278.61,-100.83"/>
<polygon fill="midnightblue" stroke="midnightblue" points="247.08,-93.57 236.73,-95.87 246.25,-100.52 247.08,-93.57"/>
</g>
<!-- Node16 -->
<g id="node12" class="node">
<title>Node16</title>
<g id="a_node12"><a xlink:href="classMamiferoExotico.html" target="_top" xlink:title="Implementação de animal com Classe e Categoria.">
<polygon fill="white" stroke="black" points="296,-49.5 296,-79.5 477,-79.5 477,-49.5 296,-49.5"/>
<text text-anchor="middle" x="386.5" y="-59.5" font-family="Helvetica,sans-Serif" font-size="20.00">MamiferoExotico</text>
</a>
</g>
</g>
<!-- Node27&#45;&gt;Node16 -->
<g id="edge11" class="edge">
<title>Node27&#45;&gt;Node16</title>
<path fill="none" stroke="midnightblue" d="M246.76,-81.63C262.35,-79.7 279.32,-77.61 295.87,-75.57"/>
<polygon fill="midnightblue" stroke="midnightblue" points="246.23,-78.17 236.73,-82.87 247.09,-85.11 246.23,-78.17"/>
</g>
<!-- Node3 -->
<g id="node13" class="node">
<title>Node3</title>
<g id="a_node13"><a xlink:href="classMamiferoNativo.html" target="_top" xlink:title="Implementação de animal com Classe e Categoria.">
<polygon fill="white" stroke="black" points="300,-0.5 300,-30.5 473,-30.5 473,-0.5 300,-0.5"/>
<text text-anchor="middle" x="386.5" y="-10.5" font-family="Helvetica,sans-Serif" font-size="20.00">MamiferoNativo</text>
</a>
</g>
</g>
<!-- Node27&#45;&gt;Node3 -->
<g id="edge12" class="edge">
<title>Node27&#45;&gt;Node3</title>
<path fill="none" stroke="midnightblue" d="M216.78,-69.16C234.74,-59.06 257.51,-47.37 279,-39.5 288.17,-36.14 297.95,-33.17 307.74,-30.55"/>
<polygon fill="midnightblue" stroke="midnightblue" points="214.79,-66.27 207.85,-74.27 218.27,-72.34 214.79,-66.27"/>
</g>
<!-- Node22 -->
<g id="node15" class="node">
<title>Node22</title>
<g id="a_node15"><a xlink:href="classReptilDomestico.html" target="_top" xlink:title="Implementação de animal com Classe e Categoria.">
<polygon fill="white" stroke="black" points="297.5,-539.5 297.5,-569.5 475.5,-569.5 475.5,-539.5 297.5,-539.5"/>
<text text-anchor="middle" x="386.5" y="-549.5" font-family="Helvetica,sans-Serif" font-size="20.00">ReptilDomestico</text>
</a>
</g>
</g>
<!-- Node28&#45;&gt;Node22 -->
<g id="edge14" class="edge">
<title>Node28&#45;&gt;Node22</title>
<path fill="none" stroke="midnightblue" d="M216.78,-500.84C234.74,-510.94 257.51,-522.63 279,-530.5 288.17,-533.86 297.95,-536.83 307.74,-539.45"/>
<polygon fill="midnightblue" stroke="midnightblue" points="218.27,-497.66 207.85,-495.73 214.79,-503.73 218.27,-497.66"/>
</g>
<!-- Node17 -->
<g id="node16" class="node">
<title>Node17</title>
<g id="a_node16"><a xlink:href="classReptilExotico.html" target="_top" xlink:title="Implementação de animal com Classe e Categoria.">
<polygon fill="white" stroke="black" points="314.5,-490.5 314.5,-520.5 458.5,-520.5 458.5,-490.5 314.5,-490.5"/>
<text text-anchor="middle" x="386.5" y="-500.5" font-family="Helvetica,sans-Serif" font-size="20.00">ReptilExotico</text>
</a>
</g>
</g>
<!-- Node28&#45;&gt;Node17 -->
<g id="edge15" class="edge">
<title>Node28&#45;&gt;Node17</title>
<path fill="none" stroke="midnightblue" d="M228.3,-486.09C253.57,-489.21 285.61,-493.17 314.17,-496.69"/>
<polygon fill="midnightblue" stroke="midnightblue" points="228.63,-482.61 218.27,-484.85 227.77,-489.55 228.63,-482.61"/>
</g>
<!-- Node4 -->
<g id="node17" class="node">
<title>Node4</title>
<g id="a_node17"><a xlink:href="classReptilNativo.html" target="_top" xlink:title="Implementação de animal com Classe e Categoria.">
<polygon fill="white" stroke="black" points="318.5,-441.5 318.5,-471.5 454.5,-471.5 454.5,-441.5 318.5,-441.5"/>
<text text-anchor="middle" x="386.5" y="-451.5" font-family="Helvetica,sans-Serif" font-size="20.00">ReptilNativo</text>
</a>
</g>
</g>
<!-- Node28&#45;&gt;Node4 -->
<g id="edge16" class="edge">
<title>Node28&#45;&gt;Node4</title>
<path fill="none" stroke="midnightblue" d="M228.4,-475.12C254.89,-471.98 288.8,-467.96 318.33,-464.46"/>
<polygon fill="midnightblue" stroke="midnightblue" points="227.79,-471.67 218.27,-476.32 228.62,-478.62 227.79,-471.67"/>
</g>
<!-- Node18 -->
<g id="node18" class="node">
<title>Node18</title>
<g id="a_node18"><a xlink:href="classDomestico.html" target="_top" xlink:title="Umas das definições de categoria para Animal.">
<polygon fill="white" stroke="black" points="121,-388.5 121,-418.5 243,-418.5 243,-388.5 121,-388.5"/>
<text text-anchor="middle" x="182" y="-398.5" font-family="Helvetica,sans-Serif" font-size="20.00">Domestico</text>
</a>
</g>
</g>
<!-- Node18&#45;&gt;Node19 -->
<g id="edge17" class="edge">
<title>Node18&#45;&gt;Node19</title>
<path fill="none" stroke="midnightblue" d="M253.55,-404.89C265.53,-405.13 278.14,-405.38 290.62,-405.63"/>
<polygon fill="midnightblue" stroke="midnightblue" points="253.28,-401.39 243.21,-404.69 253.14,-408.39 253.28,-401.39"/>
</g>
<!-- Node18&#45;&gt;Node20 -->
<g id="edge18" class="edge">
<title>Node18&#45;&gt;Node20</title>
<path fill="none" stroke="midnightblue" d="M210.09,-382.2C233.13,-364.43 264.69,-341.01 279,-334.5 287.82,-330.49 297.35,-327.08 306.96,-324.2"/>
<polygon fill="midnightblue" stroke="midnightblue" points="207.79,-379.55 202.04,-388.45 212.08,-385.09 207.79,-379.55"/>
</g>
<!-- Node18&#45;&gt;Node21 -->
<g id="edge19" class="edge">
<title>Node18&#45;&gt;Node21</title>
<path fill="none" stroke="midnightblue" d="M218.16,-382.31C227.61,-374.97 236.9,-365.92 243,-355.5 292.63,-270.76 211.6,-208.92 279,-137.5 282.12,-134.19 285.59,-131.29 289.32,-128.76"/>
<polygon fill="midnightblue" stroke="midnightblue" points="215.92,-379.62 209.88,-388.33 220.03,-385.28 215.92,-379.62"/>
</g>
<!-- Node18&#45;&gt;Node22 -->
<g id="edge20" class="edge">
<title>Node18&#45;&gt;Node22</title>
<path fill="none" stroke="midnightblue" d="M211.97,-425.1C222.62,-434.01 234.22,-444.95 243,-456.5 265.13,-485.62 250.33,-507.79 279,-530.5 284.57,-534.91 290.8,-538.55 297.36,-541.54"/>
<polygon fill="midnightblue" stroke="midnightblue" points="214.04,-422.27 204.06,-418.7 209.64,-427.71 214.04,-422.27"/>
</g>
<!-- Node13 -->
<g id="node19" class="node">
<title>Node13</title>
<g id="a_node19"><a xlink:href="classExotico.html" target="_top" xlink:title="Umas das definições de categoria para Animal.">
<polygon fill="white" stroke="black" points="137.5,-254.5 137.5,-284.5 226.5,-284.5 226.5,-254.5 137.5,-254.5"/>
<text text-anchor="middle" x="182" y="-264.5" font-family="Helvetica,sans-Serif" font-size="20.00">Exotico</text>
</a>
</g>
</g>
<!-- Node13&#45;&gt;Node14 -->
<g id="edge21" class="edge">
<title>Node13&#45;&gt;Node14</title>
<path fill="none" stroke="midnightblue" d="M217.4,-289.83C225.88,-295.08 234.87,-300.85 243,-306.5 259.65,-318.06 260.67,-325.84 279,-334.5 287.91,-338.71 297.6,-342.2 307.37,-345.09"/>
<polygon fill="midnightblue" stroke="midnightblue" points="219.15,-286.8 208.79,-284.56 215.5,-292.77 219.15,-286.8"/>
</g>
<!-- Node13&#45;&gt;Node15 -->
<g id="edge22" class="edge">
<title>Node13&#45;&gt;Node15</title>
<path fill="none" stroke="midnightblue" d="M233.64,-251.03C248.19,-246.01 264.14,-240.79 279,-236.5 293.42,-232.34 309.08,-228.37 323.84,-224.86"/>
<polygon fill="midnightblue" stroke="midnightblue" points="232.11,-247.85 223.82,-254.45 234.42,-254.46 232.11,-247.85"/>
</g>
<!-- Node13&#45;&gt;Node16 -->
<g id="edge23" class="edge">
<title>Node13&#45;&gt;Node16</title>
<path fill="none" stroke="midnightblue" d="M233.69,-248.64C237.14,-245.92 240.31,-242.89 243,-239.5 285.88,-185.45 229.91,-136.98 279,-88.5 283.99,-83.57 289.76,-79.57 295.99,-76.32"/>
<polygon fill="midnightblue" stroke="midnightblue" points="231.5,-245.89 225.2,-254.41 235.44,-251.68 231.5,-245.89"/>
</g>
<!-- Node13&#45;&gt;Node17 -->
<g id="edge24" class="edge">
<title>Node13&#45;&gt;Node17</title>
<path fill="none" stroke="midnightblue" d="M226.69,-290.36C232.91,-294.93 238.66,-300.3 243,-306.5 288.53,-371.56 223.38,-424.83 279,-481.5 288.56,-491.24 301.16,-497.4 314.35,-501.22"/>
<polygon fill="midnightblue" stroke="midnightblue" points="228.27,-287.21 218,-284.61 224.41,-293.05 228.27,-287.21"/>
</g>
<!-- Node0 -->
<g id="node20" class="node">
<title>Node0</title>
<g id="a_node20"><a xlink:href="classNativo.html" target="_top" xlink:title="Umas das definições de categoria para Animal.">
<polygon fill="white" stroke="black" points="142,-147.5 142,-177.5 222,-177.5 222,-147.5 142,-147.5"/>
<text text-anchor="middle" x="182" y="-157.5" font-family="Helvetica,sans-Serif" font-size="20.00">Nativo</text>
</a>
</g>
</g>
<!-- Node0&#45;&gt;Node1 -->
<g id="edge25" class="edge">
<title>Node0&#45;&gt;Node1</title>
<path fill="none" stroke="midnightblue" d="M230.9,-182.27C235.15,-184.78 239.26,-187.53 243,-190.5 263.32,-206.66 257.06,-222.62 279,-236.5 288.93,-242.78 300.3,-247.43 311.82,-250.87"/>
<polygon fill="midnightblue" stroke="midnightblue" points="232.48,-179.14 222.02,-177.43 229.13,-185.29 232.48,-179.14"/>
</g>
<!-- Node0&#45;&gt;Node2 -->
<g id="edge26" class="edge">
<title>Node0&#45;&gt;Node2</title>
<path fill="none" stroke="midnightblue" d="M232.29,-162.5C261.11,-162.5 297.63,-162.5 327.79,-162.5"/>
<polygon fill="midnightblue" stroke="midnightblue" points="232.04,-159 222.04,-162.5 232.04,-166 232.04,-159"/>
</g>
<!-- Node0&#45;&gt;Node3 -->
<g id="edge27" class="edge">
<title>Node0&#45;&gt;Node3</title>
<path fill="none" stroke="midnightblue" d="M214.11,-141.27C224.19,-133.37 234.85,-123.8 243,-113.5 265.69,-84.82 250.33,-62.21 279,-39.5 285.24,-34.56 292.3,-30.59 299.74,-27.41"/>
<polygon fill="midnightblue" stroke="midnightblue" points="211.74,-138.68 205.86,-147.5 215.95,-144.27 211.74,-138.68"/>
</g>
<!-- Node0&#45;&gt;Node4 -->
<g id="edge28" class="edge">
<title>Node0&#45;&gt;Node4</title>
<path fill="none" stroke="midnightblue" d="M230.89,-179.13C235.51,-182.31 239.69,-186.07 243,-190.5 308.02,-277.66 205.01,-352.82 279,-432.5 289.32,-443.61 303.59,-450.12 318.33,-453.82"/>
<polygon fill="midnightblue" stroke="midnightblue" points="232.61,-176.08 222.22,-174.02 229.06,-182.11 232.61,-176.08"/>
</g>
</g>
</svg>
