<?xml version="1.0" encoding="UTF-8" standalone="no"?>
<!DOCTYPE svg PUBLIC "-//W3C//DTD SVG 1.1//EN"
 "http://www.w3.org/Graphics/SVG/1.1/DTD/svg11.dtd">
<!-- Generated by graphviz version 2.43.0 (0)
 -->
<!-- Title: Gráfico de Hierarquia de Classes Pages: 1 -->
<svg width="253pt" height="88pt"
 viewBox="0.00 0.00 253.00 88.00" xmlns="http://www.w3.org/2000/svg" xmlns:xlink="http://www.w3.org/1999/xlink">
<g id="graph0" class="graph" transform="scale(1 1) rotate(0) translate(4 84)">
<title>Gráfico de Hierarquia de Classes</title>
<polygon fill="white" stroke="transparent" points="-4,4 -4,-84 249,-84 249,4 -4,4"/>
<!-- Node0 -->
<g id="node1" class="node">
<title>Node0</title>
<g id="a_node1"><a xlink:href="classPessoa.html" target="_top" xlink:title="Classe base dos funcionarios.">
<polygon fill="white" stroke="black" points="0,-24.5 0,-54.5 85,-54.5 85,-24.5 0,-24.5"/>
<text text-anchor="middle" x="42.5" y="-34.5" font-family="Helvetica,sans-Serif" font-size="20.00">Pessoa</text>
</a>
</g>
</g>
<!-- Node1 -->
<g id="node2" class="node">
<title>Node1</title>
<g id="a_node2"><a xlink:href="classTratador.html" target="_top" xlink:title="Implementação dos tratadores.">
<polygon fill="white" stroke="black" points="134,-49.5 134,-79.5 232,-79.5 232,-49.5 134,-49.5"/>
<text text-anchor="middle" x="183" y="-59.5" font-family="Helvetica,sans-Serif" font-size="20.00">Tratador</text>
</a>
</g>
</g>
<!-- Node0&#45;&gt;Node1 -->
<g id="edge1" class="edge">
<title>Node0&#45;&gt;Node1</title>
<path fill="none" stroke="midnightblue" d="M94.99,-48.79C107.65,-51.08 121.15,-53.52 133.66,-55.77"/>
<polygon fill="midnightblue" stroke="midnightblue" points="95.52,-45.33 85.05,-47 94.27,-52.22 95.52,-45.33"/>
</g>
<!-- Node2 -->
<g id="node3" class="node">
<title>Node2</title>
<g id="a_node3"><a xlink:href="classVeterinario.html" target="_top" xlink:title="Implementação dos veterinarios.">
<polygon fill="white" stroke="black" points="121,-0.5 121,-30.5 245,-30.5 245,-0.5 121,-0.5"/>
<text text-anchor="middle" x="183" y="-10.5" font-family="Helvetica,sans-Serif" font-size="20.00">Veterinario</text>
</a>
</g>
</g>
<!-- Node0&#45;&gt;Node2 -->
<g id="edge2" class="edge">
<title>Node0&#45;&gt;Node2</title>
<path fill="none" stroke="midnightblue" d="M95.05,-30.57C103.43,-29.11 112.18,-27.6 120.76,-26.11"/>
<polygon fill="midnightblue" stroke="midnightblue" points="94.31,-27.14 85.05,-32.3 95.51,-34.04 94.31,-27.14"/>
</g>
</g>
</svg>
