<?xml version="1.0" encoding="UTF-8" standalone="no"?>
<!DOCTYPE svg PUBLIC "-//W3C//DTD SVG 1.1//EN"
 "http://www.w3.org/Graphics/SVG/1.1/DTD/svg11.dtd">
<!-- Generated by graphviz version 2.43.0 (0)
 -->
<!-- Title: DadosAnimal Pages: 1 -->
<!--zoomable 1052 -->
<svg id="main" version="1.1" xmlns="http://www.w3.org/2000/svg" xmlns:xlink="http://www.w3.org/1999/xlink" xml:space="preserve" onload="init(evt)">
<style type="text/css"><![CDATA[
.edge:hover path { stroke: red; }
.edge:hover polygon { stroke: red; fill: red; }
]]></style>
<script type="text/javascript"><![CDATA[
var edges = document.getElementsByTagName('g');
if (edges && edges.length) {
  for (var i=0;i<edges.length;i++) {
    if (edges[i].id.substr(0,4)=='edge') {
      edges[i].setAttribute('class','edge');
    }
  }
}
]]></script>
        <defs>
                <circle id="rim" cx="0" cy="0" r="7"/>
                <circle id="rim2" cx="0" cy="0" r="3.5"/>
                <g id="zoomPlus">
                        <use xlink:href="#rim" fill="#404040">
                                <set attributeName="fill" to="#808080" begin="zoomplus.mouseover" end="zoomplus.mouseout"/>
                        </use>
                        <path d="M-4,0h8M0,-4v8" fill="none" stroke="white" stroke-width="1.5" pointer-events="none"/>
                </g>
                <g id="zoomMin">
                        <use xlink:href="#rim" fill="#404040">
                                <set attributeName="fill" to="#808080" begin="zoomminus.mouseover" end="zoomminus.mouseout"/>
                        </use>
                        <path d="M-4,0h8" fill="none" stroke="white" stroke-width="1.5" pointer-events="none"/>
                </g>
                <g id="dirArrow">
                        <path fill="none" stroke="white" stroke-width="1.5" d="M0,-3.0v7 M-2.5,-0.5L0,-3.0L2.5,-0.5"/>
                </g>
               <g id="resetDef">
                       <use xlink:href="#rim2" fill="#404040">
                               <set attributeName="fill" to="#808080" begin="reset.mouseover" end="reset.mouseout"/>
                       </use>
               </g>
        </defs>

<script type="text/javascript">
var viewWidth = 746;
var viewHeight = 1052;
var sectionId = 'dynsection-0';
</script>
<script xlink:href="svgpan.js"/>
<svg id="graph" class="graph">
<g id="viewport">
<title>DadosAnimal</title>
<polygon fill="white" stroke="transparent" points="-4,4 -4,-1048 741.79,-1048 741.79,4 -4,4"/>
<!-- Node1 -->
<g id="node1" class="node">
<title>Node1</title>
<g id="a_node1"><a xlink:title="Coringa para tipos de todos os animais.">
<polygon fill="#bfbfbf" stroke="black" points="306.79,-0.5 306.79,-90.5 454.79,-90.5 454.79,-0.5 306.79,-0.5"/>
<text text-anchor="middle" x="380.79" y="-70.5" font-family="Helvetica,sans-Serif" font-size="20.00">DadosAnimal</text>
<polyline fill="none" stroke="black" points="306.79,-60.5 454.79,-60.5 "/>
<text text-anchor="middle" x="380.79" y="-40.5" font-family="Helvetica,sans-Serif" font-size="20.00"> </text>
<polyline fill="none" stroke="black" points="306.79,-30.5 454.79,-30.5 "/>
<text text-anchor="middle" x="380.79" y="-10.5" font-family="Helvetica,sans-Serif" font-size="20.00"> </text>
</a>
</g>
</g>
<!-- Node2 -->
<g id="node2" class="node">
<title>Node2</title>
<g id="a_node2"><a xlink:href="classTratador.html" target="_top" xlink:title="Implementação dos tratadores.">
<polygon fill="white" stroke="black" points="280.79,-259.5 280.79,-437.5 480.79,-437.5 480.79,-259.5 280.79,-259.5"/>
<text text-anchor="middle" x="380.79" y="-417.5" font-family="Helvetica,sans-Serif" font-size="20.00">Tratador</text>
<polyline fill="none" stroke="black" points="280.79,-407.5 480.79,-407.5 "/>
<text text-anchor="middle" x="380.79" y="-387.5" font-family="Helvetica,sans-Serif" font-size="20.00"> </text>
<polyline fill="none" stroke="black" points="280.79,-377.5 480.79,-377.5 "/>
<text text-anchor="start" x="288.79" y="-357.5" font-family="Helvetica,sans-Serif" font-size="20.00">+ Tratador()</text>
<text text-anchor="start" x="288.79" y="-335.5" font-family="Helvetica,sans-Serif" font-size="20.00">+ Tratador()</text>
<text text-anchor="start" x="288.79" y="-313.5" font-family="Helvetica,sans-Serif" font-size="20.00">+ ~Tratador()</text>
<text text-anchor="start" x="288.79" y="-291.5" font-family="Helvetica,sans-Serif" font-size="20.00">+ getUniforme()</text>
<text text-anchor="start" x="288.79" y="-269.5" font-family="Helvetica,sans-Serif" font-size="20.00">+ printOutDados()</text>
</a>
</g>
</g>
<!-- Node2&#45;&gt;Node1 -->
<g id="edge1" class="edge">
<title>Node2&#45;&gt;Node1</title>
<path fill="none" stroke="#404040" d="M380.79,-259.22C380.79,-208.75 380.79,-146.94 380.79,-102.99"/>
<polygon fill="none" stroke="#404040" points="380.79,-102.8 376.79,-96.8 380.79,-90.8 384.79,-96.8 380.79,-102.8"/>
<text text-anchor="middle" x="432.29" y="-170" font-family="Helvetica,sans-Serif" font-size="20.00"> +tratador</text>
</g>
<!-- Node3 -->
<g id="node3" class="node">
<title>Node3</title>
<g id="a_node3"><a xlink:href="classPessoa.html" target="_top" xlink:title="Classe base dos funcionarios.">
<polygon fill="white" stroke="black" points="253.79,-606.5 253.79,-850.5 453.79,-850.5 453.79,-606.5 253.79,-606.5"/>
<text text-anchor="middle" x="353.79" y="-830.5" font-family="Helvetica,sans-Serif" font-size="20.00">Pessoa</text>
<polyline fill="none" stroke="black" points="253.79,-820.5 453.79,-820.5 "/>
<text text-anchor="middle" x="353.79" y="-800.5" font-family="Helvetica,sans-Serif" font-size="20.00"> </text>
<polyline fill="none" stroke="black" points="253.79,-790.5 453.79,-790.5 "/>
<text text-anchor="start" x="261.79" y="-770.5" font-family="Helvetica,sans-Serif" font-size="20.00">+ Pessoa()</text>
<text text-anchor="start" x="261.79" y="-748.5" font-family="Helvetica,sans-Serif" font-size="20.00">+ Pessoa()</text>
<text text-anchor="start" x="261.79" y="-726.5" font-family="Helvetica,sans-Serif" font-size="20.00">+ ~Pessoa()</text>
<text text-anchor="start" x="261.79" y="-704.5" font-family="Helvetica,sans-Serif" font-size="20.00">+ getNome()</text>
<text text-anchor="start" x="261.79" y="-682.5" font-family="Helvetica,sans-Serif" font-size="20.00">+ getTelefone()</text>
<text text-anchor="start" x="261.79" y="-660.5" font-family="Helvetica,sans-Serif" font-size="20.00">+ getEmail()</text>
<text text-anchor="start" x="261.79" y="-638.5" font-family="Helvetica,sans-Serif" font-size="20.00">+ printOutDados()</text>
<text text-anchor="start" x="261.79" y="-616.5" font-family="Helvetica,sans-Serif" font-size="20.00">+ operator==()</text>
</a>
</g>
</g>
<!-- Node3&#45;&gt;Node2 -->
<g id="edge2" class="edge">
<title>Node3&#45;&gt;Node2</title>
<path fill="none" stroke="midnightblue" d="M363.16,-596.28C366.91,-543.83 371.12,-484.81 374.49,-437.64"/>
<polygon fill="none" stroke="midnightblue" points="359.66,-596.11 362.44,-606.34 366.65,-596.61 359.66,-596.11"/>
</g>
<!-- Node8 -->
<g id="node8" class="node">
<title>Node8</title>
<g id="a_node8"><a xlink:href="classVeterinario.html" target="_top" xlink:title="Implementação dos veterinarios.">
<polygon fill="white" stroke="black" points="62.79,-259.5 62.79,-437.5 262.79,-437.5 262.79,-259.5 62.79,-259.5"/>
<text text-anchor="middle" x="162.79" y="-417.5" font-family="Helvetica,sans-Serif" font-size="20.00">Veterinario</text>
<polyline fill="none" stroke="black" points="62.79,-407.5 262.79,-407.5 "/>
<text text-anchor="middle" x="162.79" y="-387.5" font-family="Helvetica,sans-Serif" font-size="20.00"> </text>
<polyline fill="none" stroke="black" points="62.79,-377.5 262.79,-377.5 "/>
<text text-anchor="start" x="70.79" y="-357.5" font-family="Helvetica,sans-Serif" font-size="20.00">+ Veterinario()</text>
<text text-anchor="start" x="70.79" y="-335.5" font-family="Helvetica,sans-Serif" font-size="20.00">+ Veterinario()</text>
<text text-anchor="start" x="70.79" y="-313.5" font-family="Helvetica,sans-Serif" font-size="20.00">+ ~Veterinario()</text>
<text text-anchor="start" x="70.79" y="-291.5" font-family="Helvetica,sans-Serif" font-size="20.00">+ getCRMV()</text>
<text text-anchor="start" x="70.79" y="-269.5" font-family="Helvetica,sans-Serif" font-size="20.00">+ printOutDados()</text>
</a>
</g>
</g>
<!-- Node3&#45;&gt;Node8 -->
<g id="edge9" class="edge">
<title>Node3&#45;&gt;Node8</title>
<path fill="none" stroke="midnightblue" d="M287.98,-597.26C261.35,-544.57 231.31,-485.1 207.32,-437.64"/>
<polygon fill="none" stroke="midnightblue" points="284.93,-598.99 292.57,-606.34 291.18,-595.83 284.93,-598.99"/>
</g>
<!-- Node4 -->
<g id="node4" class="node">
<title>Node4</title>
<g id="a_node4"><a xlink:title=" ">
<polygon fill="white" stroke="#bfbfbf" points="125.79,-953.5 125.79,-1043.5 199.79,-1043.5 199.79,-953.5 125.79,-953.5"/>
<text text-anchor="middle" x="162.79" y="-1023.5" font-family="Helvetica,sans-Serif" font-size="20.00">string</text>
<polyline fill="none" stroke="#bfbfbf" points="125.79,-1013.5 199.79,-1013.5 "/>
<text text-anchor="middle" x="162.79" y="-993.5" font-family="Helvetica,sans-Serif" font-size="20.00"> </text>
<polyline fill="none" stroke="#bfbfbf" points="125.79,-983.5 199.79,-983.5 "/>
<text text-anchor="middle" x="162.79" y="-963.5" font-family="Helvetica,sans-Serif" font-size="20.00"> </text>
</a>
</g>
</g>
<!-- Node4&#45;&gt;Node1 -->
<g id="edge6" class="edge">
<title>Node4&#45;&gt;Node1</title>
<path fill="none" stroke="#404040" d="M139.77,-953.31C102.95,-879.87 32.36,-726.98 6.79,-588 -3.83,-530.3 -0.07,-514.26 6.79,-456 26.9,-285.05 35.57,-204.49 178.79,-109 213.38,-85.94 256.89,-71.05 294.67,-61.62"/>
<polygon fill="none" stroke="#404040" points="295.04,-61.53 299.95,-56.24 306.71,-58.74 301.8,-64.02 295.04,-61.53"/>
<text text-anchor="middle" x="82.79" y="-572" font-family="Helvetica,sans-Serif" font-size="20.00"> +regiao</text>
<text text-anchor="middle" x="82.79" y="-550" font-family="Helvetica,sans-Serif" font-size="20.00">+nome</text>
<text text-anchor="middle" x="82.79" y="-528" font-family="Helvetica,sans-Serif" font-size="20.00">+local</text>
<text text-anchor="middle" x="82.79" y="-506" font-family="Helvetica,sans-Serif" font-size="20.00">+licenca</text>
<text text-anchor="middle" x="82.79" y="-484" font-family="Helvetica,sans-Serif" font-size="20.00">+ameacadoPor</text>
<text text-anchor="middle" x="82.79" y="-462" font-family="Helvetica,sans-Serif" font-size="20.00">+especie</text>
</g>
<!-- Node4&#45;&gt;Node3 -->
<g id="edge3" class="edge">
<title>Node4&#45;&gt;Node3</title>
<path fill="none" stroke="#404040" d="M194.33,-953.25C212.55,-927.67 236.53,-894.03 260.34,-860.62"/>
<polygon fill="none" stroke="#404040" points="260.42,-860.51 260.64,-853.3 267.38,-850.74 267.16,-857.95 260.42,-860.51"/>
<text text-anchor="middle" x="300.29" y="-919" font-family="Helvetica,sans-Serif" font-size="20.00"> #email</text>
<text text-anchor="middle" x="300.29" y="-897" font-family="Helvetica,sans-Serif" font-size="20.00">#nome</text>
<text text-anchor="middle" x="300.29" y="-875" font-family="Helvetica,sans-Serif" font-size="20.00">#telefone</text>
</g>
<!-- Node4&#45;&gt;Node8 -->
<g id="edge10" class="edge">
<title>Node4&#45;&gt;Node8</title>
<path fill="none" stroke="#404040" d="M162.79,-953.47C162.79,-850.78 162.79,-593.28 162.79,-449.88"/>
<polygon fill="none" stroke="#404040" points="162.79,-449.64 158.79,-443.64 162.79,-437.64 166.79,-443.64 162.79,-449.64"/>
<text text-anchor="middle" x="199.29" y="-723.5" font-family="Helvetica,sans-Serif" font-size="20.00"> &#45;CRMV</text>
</g>
<!-- Node5 -->
<g id="node5" class="node">
<title>Node5</title>
<g id="a_node5"><a xlink:title=" ">
<polygon fill="white" stroke="#bfbfbf" points="472.29,-683.5 472.29,-773.5 579.29,-773.5 579.29,-683.5 472.29,-683.5"/>
<text text-anchor="middle" x="525.79" y="-753.5" font-family="Helvetica,sans-Serif" font-size="20.00">Uniforme</text>
<polyline fill="none" stroke="#bfbfbf" points="472.29,-743.5 579.29,-743.5 "/>
<text text-anchor="middle" x="525.79" y="-723.5" font-family="Helvetica,sans-Serif" font-size="20.00"> </text>
<polyline fill="none" stroke="#bfbfbf" points="472.29,-713.5 579.29,-713.5 "/>
<text text-anchor="middle" x="525.79" y="-693.5" font-family="Helvetica,sans-Serif" font-size="20.00"> </text>
</a>
</g>
</g>
<!-- Node5&#45;&gt;Node2 -->
<g id="edge4" class="edge">
<title>Node5&#45;&gt;Node2</title>
<path fill="none" stroke="#404040" d="M508.87,-683.4C486.98,-626.34 448.21,-525.26 419.04,-449.22"/>
<polygon fill="none" stroke="#404040" points="418.92,-448.92 413.04,-444.75 414.63,-437.71 420.51,-441.88 418.92,-448.92"/>
<text text-anchor="middle" x="521.29" y="-517" font-family="Helvetica,sans-Serif" font-size="20.00"> &#45;uniforme</text>
</g>
<!-- Node6 -->
<g id="node6" class="node">
<title>Node6</title>
<g id="a_node6"><a xlink:title=" ">
<polygon fill="white" stroke="#bfbfbf" points="499.29,-303.5 499.29,-393.5 558.29,-393.5 558.29,-303.5 499.29,-303.5"/>
<text text-anchor="middle" x="528.79" y="-373.5" font-family="Helvetica,sans-Serif" font-size="20.00">bool</text>
<polyline fill="none" stroke="#bfbfbf" points="499.29,-363.5 558.29,-363.5 "/>
<text text-anchor="middle" x="528.79" y="-343.5" font-family="Helvetica,sans-Serif" font-size="20.00"> </text>
<polyline fill="none" stroke="#bfbfbf" points="499.29,-333.5 558.29,-333.5 "/>
<text text-anchor="middle" x="528.79" y="-313.5" font-family="Helvetica,sans-Serif" font-size="20.00"> </text>
</a>
</g>
</g>
<!-- Node6&#45;&gt;Node1 -->
<g id="edge5" class="edge">
<title>Node6&#45;&gt;Node1</title>
<path fill="none" stroke="#404040" d="M523.26,-303.44C514.85,-238.94 498.69,-124.73 487.79,-109 481.53,-99.98 473.52,-92.07 464.69,-85.18"/>
<polygon fill="none" stroke="#404040" points="464.6,-85.11 457.39,-84.87 454.85,-78.12 462.05,-78.37 464.6,-85.11"/>
<text text-anchor="middle" x="572.29" y="-225" font-family="Helvetica,sans-Serif" font-size="20.00"> +gestacao</text>
<text text-anchor="middle" x="572.29" y="-203" font-family="Helvetica,sans-Serif" font-size="20.00">+cauda</text>
<text text-anchor="middle" x="572.29" y="-181" font-family="Helvetica,sans-Serif" font-size="20.00">+perigoso</text>
<text text-anchor="middle" x="572.29" y="-159" font-family="Helvetica,sans-Serif" font-size="20.00">+pata</text>
<text text-anchor="middle" x="572.29" y="-137" font-family="Helvetica,sans-Serif" font-size="20.00">+voa</text>
<text text-anchor="middle" x="572.29" y="-115" font-family="Helvetica,sans-Serif" font-size="20.00">+adestrado</text>
</g>
<!-- Node7 -->
<g id="node7" class="node">
<title>Node7</title>
<g id="a_node7"><a xlink:title=" ">
<polygon fill="white" stroke="#bfbfbf" points="629.29,-303.5 629.29,-393.5 686.29,-393.5 686.29,-303.5 629.29,-303.5"/>
<text text-anchor="middle" x="657.79" y="-373.5" font-family="Helvetica,sans-Serif" font-size="20.00">Pele</text>
<polyline fill="none" stroke="#bfbfbf" points="629.29,-363.5 686.29,-363.5 "/>
<text text-anchor="middle" x="657.79" y="-343.5" font-family="Helvetica,sans-Serif" font-size="20.00"> </text>
<polyline fill="none" stroke="#bfbfbf" points="629.29,-333.5 686.29,-333.5 "/>
<text text-anchor="middle" x="657.79" y="-313.5" font-family="Helvetica,sans-Serif" font-size="20.00"> </text>
</a>
</g>
</g>
<!-- Node7&#45;&gt;Node1 -->
<g id="edge7" class="edge">
<title>Node7&#45;&gt;Node1</title>
<path fill="none" stroke="#404040" d="M667.33,-303.41C675.97,-250.63 681.17,-162.66 634.79,-109 612.84,-83.61 531.57,-66.71 466.79,-56.95"/>
<polygon fill="none" stroke="#404040" points="466.78,-56.95 460.26,-60.04 454.91,-55.21 461.42,-52.12 466.78,-56.95"/>
<text text-anchor="middle" x="705.29" y="-170" font-family="Helvetica,sans-Serif" font-size="20.00"> +pele</text>
</g>
<!-- Node8&#45;&gt;Node1 -->
<g id="edge8" class="edge">
<title>Node8&#45;&gt;Node1</title>
<path fill="none" stroke="#404040" d="M176.48,-259.47C188.04,-210.25 209.04,-150.63 246.79,-109 260.13,-94.28 277.65,-82.76 295.6,-73.83"/>
<polygon fill="none" stroke="#404040" points="295.62,-73.82 299.37,-67.65 306.49,-68.74 302.75,-74.9 295.62,-73.82"/>
<text text-anchor="middle" x="311.79" y="-170" font-family="Helvetica,sans-Serif" font-size="20.00"> +veterinario</text>
</g>
</g>
</svg>
        <g id="navigator" transform="translate(0 0)" fill="#404254">
                <rect fill="#f2f5e9" fill-opacity="0.5" stroke="#606060" stroke-width=".5" x="0" y="0" width="60" height="60"/>
                <use id="zoomplus" xlink:href="#zoomPlus" x="17" y="9" onmousedown="handleZoom(evt,'in')"/>
                <use id="zoomminus" xlink:href="#zoomMin" x="42" y="9" onmousedown="handleZoom(evt,'out')"/>
                <use id="reset" xlink:href="#resetDef" x="30" y="36" onmousedown="handleReset()"/>
                <g id="arrowUp" xlink:href="#dirArrow" transform="translate(30 24)" onmousedown="handlePan(0,-1)">
                  <use xlink:href="#rim" fill="#404040">
                        <set attributeName="fill" to="#808080" begin="arrowUp.mouseover" end="arrowUp.mouseout"/>
                  </use>
                  <path fill="none" stroke="white" stroke-width="1.5" d="M0,-3.0v7 M-2.5,-0.5L0,-3.0L2.5,-0.5"/>
                </g>
                <g id="arrowRight" xlink:href="#dirArrow" transform="rotate(90) translate(36 -43)" onmousedown="handlePan(1,0)">
                  <use xlink:href="#rim" fill="#404040">
                        <set attributeName="fill" to="#808080" begin="arrowRight.mouseover" end="arrowRight.mouseout"/>
                  </use>
                  <path fill="none" stroke="white" stroke-width="1.5" d="M0,-3.0v7 M-2.5,-0.5L0,-3.0L2.5,-0.5"/>
                </g>
                <g id="arrowDown" xlink:href="#dirArrow" transform="rotate(180) translate(-30 -48)" onmousedown="handlePan(0,1)">
                  <use xlink:href="#rim" fill="#404040">
                        <set attributeName="fill" to="#808080" begin="arrowDown.mouseover" end="arrowDown.mouseout"/>
                  </use>
                  <path fill="none" stroke="white" stroke-width="1.5" d="M0,-3.0v7 M-2.5,-0.5L0,-3.0L2.5,-0.5"/>
                </g>
                <g id="arrowLeft" xlink:href="#dirArrow" transform="rotate(270) translate(-36 17)" onmousedown="handlePan(-1,0)">
                  <use xlink:href="#rim" fill="#404040">
                        <set attributeName="fill" to="#808080" begin="arrowLeft.mouseover" end="arrowLeft.mouseout"/>
                  </use>
                  <path fill="none" stroke="white" stroke-width="1.5" d="M0,-3.0v7 M-2.5,-0.5L0,-3.0L2.5,-0.5"/>
                </g>
        </g>
        <svg viewBox="0 0 15 15" width="100%" height="30px" preserveAspectRatio="xMaxYMin meet">
         <g id="arrow_out" transform="scale(0.3 0.3)">
          <a xlink:href="structDadosAnimal__coll__graph_org.svg" target="_base">
           <rect id="button" ry="5" rx="5" y="6" x="6" height="38" width="38"
                fill="#f2f5e9" fill-opacity="0.5" stroke="#606060" stroke-width="1.0"/>
           <path id="arrow"
             d="M 11.500037,31.436501 C 11.940474,20.09759 22.043105,11.32322 32.158766,21.979434 L 37.068811,17.246167 C 37.068811,17.246167 37.088388,32 37.088388,32 L 22.160133,31.978069 C 22.160133,31.978069 26.997745,27.140456 26.997745,27.140456 C 18.528582,18.264221 13.291696,25.230495 11.500037,31.436501 z"
             style="fill:#404040;"/>
          </a>
         </g>
        </svg>
</svg>
