<?xml version="1.0" encoding="UTF-8" standalone="no"?>
<!DOCTYPE svg PUBLIC "-//W3C//DTD SVG 1.1//EN"
 "http://www.w3.org/Graphics/SVG/1.1/DTD/svg11.dtd">
<!-- Generated by graphviz version 2.40.1 (20161225.0304)
 -->
<!-- Title: DadosAnimal Pages: 1 -->
<svg width="626pt" height="1052pt"
 viewBox="0.00 0.00 626.22 1052.00" xmlns="http://www.w3.org/2000/svg" xmlns:xlink="http://www.w3.org/1999/xlink">
<g id="graph0" class="graph" transform="scale(1 1) rotate(0) translate(4 1048)">
<title>DadosAnimal</title>
<polygon fill="#ffffff" stroke="transparent" points="-4,4 -4,-1048 622.2232,-1048 622.2232,4 -4,4"/>
<!-- Node1 -->
<g id="node1" class="node">
<title>Node1</title>
<polygon fill="#bfbfbf" stroke="#000000" points="259.2232,-.5 259.2232,-90.5 385.2232,-90.5 385.2232,-.5 259.2232,-.5"/>
<text text-anchor="middle" x="322.2232" y="-70.5" font-family="Helvetica,sans-Serif" font-size="20.00" fill="#000000">DadosAnimal</text>
<polyline fill="none" stroke="#000000" points="259.2232,-60.5 385.2232,-60.5 "/>
<text text-anchor="middle" x="322.2232" y="-40.5" font-family="Helvetica,sans-Serif" font-size="20.00" fill="#000000"> </text>
<polyline fill="none" stroke="#000000" points="259.2232,-30.5 385.2232,-30.5 "/>
<text text-anchor="middle" x="322.2232" y="-10.5" font-family="Helvetica,sans-Serif" font-size="20.00" fill="#000000"> </text>
</g>
<!-- Node2 -->
<g id="node2" class="node">
<title>Node2</title>
<g id="a_node2"><a xlink:href="classTratador.html" target="_top" xlink:title="Implementação dos tratadores. ">
<polygon fill="#ffffff" stroke="#000000" points="240.2232,-259.5 240.2232,-437.5 404.2232,-437.5 404.2232,-259.5 240.2232,-259.5"/>
<text text-anchor="middle" x="322.2232" y="-417.5" font-family="Helvetica,sans-Serif" font-size="20.00" fill="#000000">Tratador</text>
<polyline fill="none" stroke="#000000" points="240.2232,-407.5 404.2232,-407.5 "/>
<text text-anchor="middle" x="322.2232" y="-387.5" font-family="Helvetica,sans-Serif" font-size="20.00" fill="#000000"> </text>
<polyline fill="none" stroke="#000000" points="240.2232,-377.5 404.2232,-377.5 "/>
<text text-anchor="start" x="248.2232" y="-357.5" font-family="Helvetica,sans-Serif" font-size="20.00" fill="#000000">+ Tratador()</text>
<text text-anchor="start" x="248.2232" y="-335.5" font-family="Helvetica,sans-Serif" font-size="20.00" fill="#000000">+ Tratador()</text>
<text text-anchor="start" x="248.2232" y="-313.5" font-family="Helvetica,sans-Serif" font-size="20.00" fill="#000000">+ ~Tratador()</text>
<text text-anchor="start" x="248.2232" y="-291.5" font-family="Helvetica,sans-Serif" font-size="20.00" fill="#000000">+ getUniforme()</text>
<text text-anchor="start" x="248.2232" y="-269.5" font-family="Helvetica,sans-Serif" font-size="20.00" fill="#000000">+ printOutDados()</text>
</a>
</g>
</g>
<!-- Node2&#45;&gt;Node1 -->
<g id="edge1" class="edge">
<title>Node2&#45;&gt;Node1</title>
<path fill="none" stroke="#404040" d="M322.2232,-259.2288C322.2232,-208.7552 322.2232,-147.128 322.2232,-103.0413"/>
<polygon fill="none" stroke="#404040" points="322.2233,-102.811 318.2233,-96.811 322.2232,-90.811 326.2233,-96.8109 322.2233,-102.811"/>
<text text-anchor="middle" x="362.7232" y="-170" font-family="Helvetica,sans-Serif" font-size="20.00" fill="#000000"> +tratador</text>
</g>
<!-- Node3 -->
<g id="node3" class="node">
<title>Node3</title>
<g id="a_node3"><a xlink:href="classPessoa.html" target="_top" xlink:title="Classe base dos funcionarios. ">
<polygon fill="#ffffff" stroke="#000000" points="224.2232,-606.5 224.2232,-850.5 388.2232,-850.5 388.2232,-606.5 224.2232,-606.5"/>
<text text-anchor="middle" x="306.2232" y="-830.5" font-family="Helvetica,sans-Serif" font-size="20.00" fill="#000000">Pessoa</text>
<polyline fill="none" stroke="#000000" points="224.2232,-820.5 388.2232,-820.5 "/>
<text text-anchor="middle" x="306.2232" y="-800.5" font-family="Helvetica,sans-Serif" font-size="20.00" fill="#000000"> </text>
<polyline fill="none" stroke="#000000" points="224.2232,-790.5 388.2232,-790.5 "/>
<text text-anchor="start" x="232.2232" y="-770.5" font-family="Helvetica,sans-Serif" font-size="20.00" fill="#000000">+ Pessoa()</text>
<text text-anchor="start" x="232.2232" y="-748.5" font-family="Helvetica,sans-Serif" font-size="20.00" fill="#000000">+ Pessoa()</text>
<text text-anchor="start" x="232.2232" y="-726.5" font-family="Helvetica,sans-Serif" font-size="20.00" fill="#000000">+ ~Pessoa()</text>
<text text-anchor="start" x="232.2232" y="-704.5" font-family="Helvetica,sans-Serif" font-size="20.00" fill="#000000">+ getNome()</text>
<text text-anchor="start" x="232.2232" y="-682.5" font-family="Helvetica,sans-Serif" font-size="20.00" fill="#000000">+ getTelefone()</text>
<text text-anchor="start" x="232.2232" y="-660.5" font-family="Helvetica,sans-Serif" font-size="20.00" fill="#000000">+ getEmail()</text>
<text text-anchor="start" x="232.2232" y="-638.5" font-family="Helvetica,sans-Serif" font-size="20.00" fill="#000000">+ printOutDados()</text>
<text text-anchor="start" x="232.2232" y="-616.5" font-family="Helvetica,sans-Serif" font-size="20.00" fill="#000000">+ operator==()</text>
</a>
</g>
</g>
<!-- Node3&#45;&gt;Node2 -->
<g id="edge2" class="edge">
<title>Node3&#45;&gt;Node2</title>
<path fill="none" stroke="#191970" d="M311.7865,-596.3714C313.997,-543.8724 316.4819,-484.8566 318.4724,-437.5833"/>
<polygon fill="none" stroke="#191970" points="308.2866,-596.2974 311.3628,-606.4358 315.2804,-596.592 308.2866,-596.2974"/>
</g>
<!-- Node8 -->
<g id="node8" class="node">
<title>Node8</title>
<g id="a_node8"><a xlink:href="classVeterinario.html" target="_top" xlink:title="Implementação dos veterinarios. ">
<polygon fill="#ffffff" stroke="#000000" points="58.2232,-259.5 58.2232,-437.5 222.2232,-437.5 222.2232,-259.5 58.2232,-259.5"/>
<text text-anchor="middle" x="140.2232" y="-417.5" font-family="Helvetica,sans-Serif" font-size="20.00" fill="#000000">Veterinario</text>
<polyline fill="none" stroke="#000000" points="58.2232,-407.5 222.2232,-407.5 "/>
<text text-anchor="middle" x="140.2232" y="-387.5" font-family="Helvetica,sans-Serif" font-size="20.00" fill="#000000"> </text>
<polyline fill="none" stroke="#000000" points="58.2232,-377.5 222.2232,-377.5 "/>
<text text-anchor="start" x="66.2232" y="-357.5" font-family="Helvetica,sans-Serif" font-size="20.00" fill="#000000">+ Veterinario()</text>
<text text-anchor="start" x="66.2232" y="-335.5" font-family="Helvetica,sans-Serif" font-size="20.00" fill="#000000">+ Veterinario()</text>
<text text-anchor="start" x="66.2232" y="-313.5" font-family="Helvetica,sans-Serif" font-size="20.00" fill="#000000">+ ~Veterinario()</text>
<text text-anchor="start" x="66.2232" y="-291.5" font-family="Helvetica,sans-Serif" font-size="20.00" fill="#000000">+ getCRMV()</text>
<text text-anchor="start" x="66.2232" y="-269.5" font-family="Helvetica,sans-Serif" font-size="20.00" fill="#000000">+ printOutDados()</text>
</a>
</g>
</g>
<!-- Node3&#45;&gt;Node8 -->
<g id="edge9" class="edge">
<title>Node3&#45;&gt;Node8</title>
<path fill="none" stroke="#191970" d="M248.7898,-597.0259C225.7846,-544.3634 199.8754,-485.0531 179.1386,-437.5833"/>
<polygon fill="none" stroke="#191970" points="245.69,-598.6732 252.9005,-606.4358 252.1046,-595.8709 245.69,-598.6732"/>
</g>
<!-- Node4 -->
<g id="node4" class="node">
<title>Node4</title>
<polygon fill="#ffffff" stroke="#bfbfbf" points="108.2232,-953.5 108.2232,-1043.5 172.2232,-1043.5 172.2232,-953.5 108.2232,-953.5"/>
<text text-anchor="middle" x="140.2232" y="-1023.5" font-family="Helvetica,sans-Serif" font-size="20.00" fill="#000000">string</text>
<polyline fill="none" stroke="#bfbfbf" points="108.2232,-1013.5 172.2232,-1013.5 "/>
<text text-anchor="middle" x="140.2232" y="-993.5" font-family="Helvetica,sans-Serif" font-size="20.00" fill="#000000"> </text>
<polyline fill="none" stroke="#bfbfbf" points="108.2232,-983.5 172.2232,-983.5 "/>
<text text-anchor="middle" x="140.2232" y="-963.5" font-family="Helvetica,sans-Serif" font-size="20.00" fill="#000000"> </text>
</g>
<!-- Node4&#45;&gt;Node1 -->
<g id="edge6" class="edge">
<title>Node4&#45;&gt;Node1</title>
<path fill="none" stroke="#404040" d="M121.3388,-953.3815C91.2972,-878.8994 33.9056,-724.8289 13.2232,-588 -8.7612,-442.5571 -7.4801,-394.7265 49.2232,-259 80.5931,-183.9124 89.9721,-158.9402 154.2232,-109 181.4013,-87.8754 216.3811,-73.1615 247.3797,-63.2576"/>
<polygon fill="none" stroke="#404040" points="247.5646,-63.2011 252.1336,-57.6222 259.0407,-59.694 254.4717,-65.2729 247.5646,-63.2011"/>
<text text-anchor="middle" x="74.7232" y="-572" font-family="Helvetica,sans-Serif" font-size="20.00" fill="#000000"> +regiao</text>
<text text-anchor="middle" x="74.7232" y="-550" font-family="Helvetica,sans-Serif" font-size="20.00" fill="#000000">+nome</text>
<text text-anchor="middle" x="74.7232" y="-528" font-family="Helvetica,sans-Serif" font-size="20.00" fill="#000000">+local</text>
<text text-anchor="middle" x="74.7232" y="-506" font-family="Helvetica,sans-Serif" font-size="20.00" fill="#000000">+licenca</text>
<text text-anchor="middle" x="74.7232" y="-484" font-family="Helvetica,sans-Serif" font-size="20.00" fill="#000000">+ameacadoPor</text>
<text text-anchor="middle" x="74.7232" y="-462" font-family="Helvetica,sans-Serif" font-size="20.00" fill="#000000">+especie</text>
</g>
<!-- Node4&#45;&gt;Node3 -->
<g id="edge3" class="edge">
<title>Node4&#45;&gt;Node3</title>
<path fill="none" stroke="#404040" d="M168.0079,-953.3081C183.733,-927.7311 204.2975,-894.2829 224.7392,-861.0342"/>
<polygon fill="none" stroke="#404040" points="224.7888,-860.9535 224.5238,-853.7472 231.0738,-850.731 231.3388,-857.9372 224.7888,-860.9535"/>
<text text-anchor="middle" x="256.7232" y="-919" font-family="Helvetica,sans-Serif" font-size="20.00" fill="#000000"> #email</text>
<text text-anchor="middle" x="256.7232" y="-897" font-family="Helvetica,sans-Serif" font-size="20.00" fill="#000000">#nome</text>
<text text-anchor="middle" x="256.7232" y="-875" font-family="Helvetica,sans-Serif" font-size="20.00" fill="#000000">#telefone</text>
</g>
<!-- Node4&#45;&gt;Node8 -->
<g id="edge10" class="edge">
<title>Node4&#45;&gt;Node8</title>
<path fill="none" stroke="#404040" d="M140.2232,-953.3093C140.2232,-849.8026 140.2232,-593.4446 140.2232,-449.9329"/>
<polygon fill="none" stroke="#404040" points="140.2233,-449.6788 136.2233,-443.6788 140.2232,-437.6788 144.2233,-443.6787 140.2233,-449.6788"/>
<text text-anchor="middle" x="173.2232" y="-723.5" font-family="Helvetica,sans-Serif" font-size="20.00" fill="#000000"> &#45;CRMV</text>
</g>
<!-- Node5 -->
<g id="node5" class="node">
<title>Node5</title>
<polygon fill="#ffffff" stroke="#bfbfbf" points="406.2232,-683.5 406.2232,-773.5 498.2232,-773.5 498.2232,-683.5 406.2232,-683.5"/>
<text text-anchor="middle" x="452.2232" y="-753.5" font-family="Helvetica,sans-Serif" font-size="20.00" fill="#000000">Uniforme</text>
<polyline fill="none" stroke="#bfbfbf" points="406.2232,-743.5 498.2232,-743.5 "/>
<text text-anchor="middle" x="452.2232" y="-723.5" font-family="Helvetica,sans-Serif" font-size="20.00" fill="#000000"> </text>
<polyline fill="none" stroke="#bfbfbf" points="406.2232,-713.5 498.2232,-713.5 "/>
<text text-anchor="middle" x="452.2232" y="-693.5" font-family="Helvetica,sans-Serif" font-size="20.00" fill="#000000"> </text>
</g>
<!-- Node5&#45;&gt;Node2 -->
<g id="edge4" class="edge">
<title>Node5&#45;&gt;Node2</title>
<path fill="none" stroke="#404040" d="M436.8,-683.4168C417.1603,-626.0083 382.6535,-525.1425 356.6264,-449.0632"/>
<polygon fill="none" stroke="#404040" points="356.5727,-448.9058 350.8458,-444.5236 352.6883,-437.5519 358.4152,-441.9341 356.5727,-448.9058"/>
<text text-anchor="middle" x="444.2232" y="-517" font-family="Helvetica,sans-Serif" font-size="20.00" fill="#000000"> &#45;uniforme</text>
</g>
<!-- Node6 -->
<g id="node6" class="node">
<title>Node6</title>
<polygon fill="#ffffff" stroke="#bfbfbf" points="422.7232,-303.5 422.7232,-393.5 473.7232,-393.5 473.7232,-303.5 422.7232,-303.5"/>
<text text-anchor="middle" x="448.2232" y="-373.5" font-family="Helvetica,sans-Serif" font-size="20.00" fill="#000000">bool</text>
<polyline fill="none" stroke="#bfbfbf" points="422.7232,-363.5 473.7232,-363.5 "/>
<text text-anchor="middle" x="448.2232" y="-343.5" font-family="Helvetica,sans-Serif" font-size="20.00" fill="#000000"> </text>
<polyline fill="none" stroke="#bfbfbf" points="422.7232,-333.5 473.7232,-333.5 "/>
<text text-anchor="middle" x="448.2232" y="-313.5" font-family="Helvetica,sans-Serif" font-size="20.00" fill="#000000"> </text>
</g>
<!-- Node6&#45;&gt;Node1 -->
<g id="edge5" class="edge">
<title>Node6&#45;&gt;Node1</title>
<path fill="none" stroke="#404040" d="M444.4888,-303.2502C438.8541,-243.1425 426.7167,-140.8401 407.2232,-109 403.5263,-102.9616 399.0233,-97.3049 394.0396,-92.0514"/>
<polygon fill="none" stroke="#404040" points="393.9008,-91.9177 386.8041,-90.6378 385.2561,-83.5948 392.3528,-84.8747 393.9008,-91.9177"/>
<text text-anchor="middle" x="483.7232" y="-225" font-family="Helvetica,sans-Serif" font-size="20.00" fill="#000000"> +gestacao</text>
<text text-anchor="middle" x="483.7232" y="-203" font-family="Helvetica,sans-Serif" font-size="20.00" fill="#000000">+cauda</text>
<text text-anchor="middle" x="483.7232" y="-181" font-family="Helvetica,sans-Serif" font-size="20.00" fill="#000000">+perigoso</text>
<text text-anchor="middle" x="483.7232" y="-159" font-family="Helvetica,sans-Serif" font-size="20.00" fill="#000000">+pata</text>
<text text-anchor="middle" x="483.7232" y="-137" font-family="Helvetica,sans-Serif" font-size="20.00" fill="#000000">+voa</text>
<text text-anchor="middle" x="483.7232" y="-115" font-family="Helvetica,sans-Serif" font-size="20.00" fill="#000000">+adestrado</text>
</g>
<!-- Node7 -->
<g id="node7" class="node">
<title>Node7</title>
<polygon fill="#ffffff" stroke="#bfbfbf" points="526.7232,-303.5 526.7232,-393.5 579.7232,-393.5 579.7232,-303.5 526.7232,-303.5"/>
<text text-anchor="middle" x="553.2232" y="-373.5" font-family="Helvetica,sans-Serif" font-size="20.00" fill="#000000">Pele</text>
<polyline fill="none" stroke="#bfbfbf" points="526.7232,-363.5 579.7232,-363.5 "/>
<text text-anchor="middle" x="553.2232" y="-343.5" font-family="Helvetica,sans-Serif" font-size="20.00" fill="#000000"> </text>
<polyline fill="none" stroke="#bfbfbf" points="526.7232,-333.5 579.7232,-333.5 "/>
<text text-anchor="middle" x="553.2232" y="-313.5" font-family="Helvetica,sans-Serif" font-size="20.00" fill="#000000"> </text>
</g>
<!-- Node7&#45;&gt;Node1 -->
<g id="edge7" class="edge">
<title>Node7&#45;&gt;Node1</title>
<path fill="none" stroke="#404040" d="M562.772,-303.2726C571.108,-250.5578 575.7981,-163.7048 531.2232,-109 513.9998,-87.8625 450.1814,-70.4358 397.5485,-59.2204"/>
<polygon fill="none" stroke="#404040" points="397.2292,-59.1542 390.5411,-61.8504 385.48,-56.7138 392.1681,-54.0175 397.2292,-59.1542"/>
<text text-anchor="middle" x="593.2232" y="-170" font-family="Helvetica,sans-Serif" font-size="20.00" fill="#000000"> +pele</text>
</g>
<!-- Node8&#45;&gt;Node1 -->
<g id="edge8" class="edge">
<title>Node8&#45;&gt;Node1</title>
<path fill="none" stroke="#404040" d="M152.25,-259.2509C162.459,-210.7451 181.1599,-152.0538 215.2232,-109 224.333,-97.4858 236.1481,-87.6095 248.5898,-79.313"/>
<polygon fill="none" stroke="#404040" points="248.9679,-79.0765 251.9344,-72.5038 259.1425,-72.7142 256.176,-79.2869 248.9679,-79.0765"/>
<text text-anchor="middle" x="266.7232" y="-170" font-family="Helvetica,sans-Serif" font-size="20.00" fill="#000000"> +veterinario</text>
</g>
</g>
</svg>
