<?xml version="1.0" encoding="UTF-8" standalone="no"?>
<!DOCTYPE svg PUBLIC "-//W3C//DTD SVG 1.1//EN"
 "http://www.w3.org/Graphics/SVG/1.1/DTD/svg11.dtd">
<!-- Generated by graphviz version 2.40.1 (20161225.0304)
 -->
<!-- Title: MamiferoExotico Pages: 1 -->
<svg width="745pt" height="1574pt"
 viewBox="0.00 0.00 744.94 1574.00" xmlns="http://www.w3.org/2000/svg" xmlns:xlink="http://www.w3.org/1999/xlink">
<g id="graph0" class="graph" transform="scale(1 1) rotate(0) translate(4 1570)">
<title>MamiferoExotico</title>
<polygon fill="#ffffff" stroke="transparent" points="-4,4 -4,-1570 740.944,-1570 740.944,4 -4,4"/>
<!-- Node4 -->
<g id="node1" class="node">
<title>Node4</title>
<polygon fill="#bfbfbf" stroke="#000000" points="58.444,-.5 58.444,-112.5 249.444,-112.5 249.444,-.5 58.444,-.5"/>
<text text-anchor="middle" x="153.944" y="-92.5" font-family="Helvetica,sans-Serif" font-size="20.00" fill="#000000">MamiferoExotico</text>
<polyline fill="none" stroke="#000000" points="58.444,-82.5 249.444,-82.5 "/>
<text text-anchor="middle" x="153.944" y="-62.5" font-family="Helvetica,sans-Serif" font-size="20.00" fill="#000000"> </text>
<polyline fill="none" stroke="#000000" points="58.444,-52.5 249.444,-52.5 "/>
<text text-anchor="start" x="66.444" y="-32.5" font-family="Helvetica,sans-Serif" font-size="20.00" fill="#000000">+ MamiferoExotico()</text>
<text text-anchor="start" x="66.444" y="-10.5" font-family="Helvetica,sans-Serif" font-size="20.00" fill="#000000">+ ~MamiferoExotico()</text>
</g>
<!-- Node5 -->
<g id="node2" class="node">
<title>Node5</title>
<g id="a_node2"><a xlink:href="classMamifero.html" target="_top" xlink:title="Classificação base para Mamiferos. ">
<polygon fill="#ffffff" stroke="#000000" points="35.444,-325.5 35.444,-459.5 182.444,-459.5 182.444,-325.5 35.444,-325.5"/>
<text text-anchor="middle" x="108.944" y="-439.5" font-family="Helvetica,sans-Serif" font-size="20.00" fill="#000000">Mamifero</text>
<polyline fill="none" stroke="#000000" points="35.444,-429.5 182.444,-429.5 "/>
<text text-anchor="middle" x="108.944" y="-409.5" font-family="Helvetica,sans-Serif" font-size="20.00" fill="#000000"> </text>
<polyline fill="none" stroke="#000000" points="35.444,-399.5 182.444,-399.5 "/>
<text text-anchor="start" x="43.444" y="-379.5" font-family="Helvetica,sans-Serif" font-size="20.00" fill="#000000">+ Mamifero()</text>
<text text-anchor="start" x="43.444" y="-357.5" font-family="Helvetica,sans-Serif" font-size="20.00" fill="#000000">+ ~Mamifero()</text>
<text text-anchor="start" x="43.444" y="-335.5" font-family="Helvetica,sans-Serif" font-size="20.00" fill="#000000">+ getGestacao()</text>
</a>
</g>
</g>
<!-- Node5&#45;&gt;Node4 -->
<g id="edge1" class="edge">
<title>Node5&#45;&gt;Node4</title>
<path fill="none" stroke="#191970" d="M119.2947,-315.2151C127.5742,-253.3947 138.9887,-168.1665 146.4167,-112.7041"/>
<polygon fill="none" stroke="#191970" points="115.8008,-314.9368 117.9423,-325.3129 122.7388,-315.8661 115.8008,-314.9368"/>
</g>
<!-- Node6 -->
<g id="node3" class="node">
<title>Node6</title>
<polygon fill="#ffffff" stroke="#bfbfbf" points="22.444,-913.5 22.444,-1003.5 73.444,-1003.5 73.444,-913.5 22.444,-913.5"/>
<text text-anchor="middle" x="47.944" y="-983.5" font-family="Helvetica,sans-Serif" font-size="20.00" fill="#000000">bool</text>
<polyline fill="none" stroke="#bfbfbf" points="22.444,-973.5 73.444,-973.5 "/>
<text text-anchor="middle" x="47.944" y="-953.5" font-family="Helvetica,sans-Serif" font-size="20.00" fill="#000000"> </text>
<polyline fill="none" stroke="#bfbfbf" points="22.444,-943.5 73.444,-943.5 "/>
<text text-anchor="middle" x="47.944" y="-923.5" font-family="Helvetica,sans-Serif" font-size="20.00" fill="#000000"> </text>
</g>
<!-- Node6&#45;&gt;Node5 -->
<g id="edge2" class="edge">
<title>Node6&#45;&gt;Node5</title>
<path fill="none" stroke="#404040" d="M22.4099,-917.9853C9.4552,-893.03 -2.832,-859.9832 .944,-829 16.4745,-701.5694 56.6151,-557.7433 83.3412,-471.1645"/>
<polygon fill="none" stroke="#404040" points="83.3753,-471.0546 81.337,-464.1376 86.9379,-459.5956 88.9763,-466.5127 83.3753,-471.0546"/>
<text text-anchor="middle" x="45.444" y="-835" font-family="Helvetica,sans-Serif" font-size="20.00" fill="#000000"> #gestacao</text>
</g>
<!-- Node8 -->
<g id="node5" class="node">
<title>Node8</title>
<g id="a_node5"><a xlink:href="classAnimal.html" target="_top" xlink:title="Implementação base para o cadastro de animais. ">
<polygon fill="#ffffff" stroke="#000000" points="170.944,-478.5 170.944,-810.5 348.944,-810.5 348.944,-478.5 170.944,-478.5"/>
<text text-anchor="middle" x="259.944" y="-790.5" font-family="Helvetica,sans-Serif" font-size="20.00" fill="#000000">Animal</text>
<polyline fill="none" stroke="#000000" points="170.944,-780.5 348.944,-780.5 "/>
<text text-anchor="middle" x="259.944" y="-760.5" font-family="Helvetica,sans-Serif" font-size="20.00" fill="#000000"> </text>
<polyline fill="none" stroke="#000000" points="170.944,-750.5 348.944,-750.5 "/>
<text text-anchor="start" x="178.944" y="-730.5" font-family="Helvetica,sans-Serif" font-size="20.00" fill="#000000">+ Animal()</text>
<text text-anchor="start" x="178.944" y="-708.5" font-family="Helvetica,sans-Serif" font-size="20.00" fill="#000000">+ Animal()</text>
<text text-anchor="start" x="178.944" y="-686.5" font-family="Helvetica,sans-Serif" font-size="20.00" fill="#000000">+ ~Animal()</text>
<text text-anchor="start" x="178.944" y="-664.5" font-family="Helvetica,sans-Serif" font-size="20.00" fill="#000000">+ getNome()</text>
<text text-anchor="start" x="178.944" y="-642.5" font-family="Helvetica,sans-Serif" font-size="20.00" fill="#000000">+ getEspecie()</text>
<text text-anchor="start" x="178.944" y="-620.5" font-family="Helvetica,sans-Serif" font-size="20.00" fill="#000000">+ getVeterinario()</text>
<text text-anchor="start" x="178.944" y="-598.5" font-family="Helvetica,sans-Serif" font-size="20.00" fill="#000000">+ getTratador()</text>
<text text-anchor="start" x="178.944" y="-576.5" font-family="Helvetica,sans-Serif" font-size="20.00" fill="#000000">+ getPerigoso()</text>
<text text-anchor="start" x="178.944" y="-554.5" font-family="Helvetica,sans-Serif" font-size="20.00" fill="#000000">+ getClassificacao()</text>
<text text-anchor="start" x="178.944" y="-532.5" font-family="Helvetica,sans-Serif" font-size="20.00" fill="#000000">+ getClasse()</text>
<text text-anchor="start" x="178.944" y="-510.5" font-family="Helvetica,sans-Serif" font-size="20.00" fill="#000000">+ printOutDados()</text>
<text text-anchor="start" x="178.944" y="-488.5" font-family="Helvetica,sans-Serif" font-size="20.00" fill="#000000">+ operator==()</text>
</a>
</g>
</g>
<!-- Node6&#45;&gt;Node8 -->
<g id="edge9" class="edge">
<title>Node6&#45;&gt;Node8</title>
<path fill="none" stroke="#404040" d="M64.1027,-913.4696C74.1923,-887.8169 88.3958,-855.5905 104.944,-829 121.8002,-801.9146 142.3677,-774.5944 162.9399,-749.5826"/>
<polygon fill="none" stroke="#404040" points="163.142,-749.3396 163.9045,-742.169 170.8169,-740.1149 170.0544,-747.2856 163.142,-749.3396"/>
<text text-anchor="middle" x="147.944" y="-835" font-family="Helvetica,sans-Serif" font-size="20.00" fill="#000000"> #perigoso</text>
</g>
<!-- Node7 -->
<g id="node4" class="node">
<title>Node7</title>
<g id="a_node4"><a xlink:href="classExotico.html" target="_top" xlink:title="Umas das definições de categoria para Animal. ">
<polygon fill="#ffffff" stroke="#000000" points="202.944,-150.5 202.944,-306.5 316.944,-306.5 316.944,-150.5 202.944,-150.5"/>
<text text-anchor="middle" x="259.944" y="-286.5" font-family="Helvetica,sans-Serif" font-size="20.00" fill="#000000">Exotico</text>
<polyline fill="none" stroke="#000000" points="202.944,-276.5 316.944,-276.5 "/>
<text text-anchor="middle" x="259.944" y="-256.5" font-family="Helvetica,sans-Serif" font-size="20.00" fill="#000000"> </text>
<polyline fill="none" stroke="#000000" points="202.944,-246.5 316.944,-246.5 "/>
<text text-anchor="start" x="210.944" y="-226.5" font-family="Helvetica,sans-Serif" font-size="20.00" fill="#000000">+ Exotico()</text>
<text text-anchor="start" x="210.944" y="-204.5" font-family="Helvetica,sans-Serif" font-size="20.00" fill="#000000">+ Exotico()</text>
<text text-anchor="start" x="210.944" y="-182.5" font-family="Helvetica,sans-Serif" font-size="20.00" fill="#000000">+ ~Exotico()</text>
<text text-anchor="start" x="210.944" y="-160.5" font-family="Helvetica,sans-Serif" font-size="20.00" fill="#000000">+ getLocal()</text>
</a>
</g>
</g>
<!-- Node7&#45;&gt;Node4 -->
<g id="edge3" class="edge">
<title>Node7&#45;&gt;Node4</title>
<path fill="none" stroke="#191970" d="M206.4223,-141.6534C200.3515,-131.8026 194.2897,-121.9667 188.5558,-112.6626"/>
<polygon fill="none" stroke="#191970" points="203.5254,-143.6241 211.7516,-150.301 209.4847,-139.9515 203.5254,-143.6241"/>
</g>
<!-- Node8&#45;&gt;Node7 -->
<g id="edge4" class="edge">
<title>Node8&#45;&gt;Node7</title>
<path fill="none" stroke="#191970" d="M259.944,-468.1752C259.944,-411.7962 259.944,-352.238 259.944,-306.5957"/>
<polygon fill="none" stroke="#191970" points="256.4441,-468.2923 259.944,-478.2923 263.4441,-468.2924 256.4441,-468.2923"/>
</g>
<!-- Node9 -->
<g id="node6" class="node">
<title>Node9</title>
<g id="a_node6"><a xlink:href="classTratador.html" target="_top" xlink:title="Implementação dos tratadores. ">
<polygon fill="#ffffff" stroke="#000000" points="414.944,-869.5 414.944,-1047.5 578.944,-1047.5 578.944,-869.5 414.944,-869.5"/>
<text text-anchor="middle" x="496.944" y="-1027.5" font-family="Helvetica,sans-Serif" font-size="20.00" fill="#000000">Tratador</text>
<polyline fill="none" stroke="#000000" points="414.944,-1017.5 578.944,-1017.5 "/>
<text text-anchor="middle" x="496.944" y="-997.5" font-family="Helvetica,sans-Serif" font-size="20.00" fill="#000000"> </text>
<polyline fill="none" stroke="#000000" points="414.944,-987.5 578.944,-987.5 "/>
<text text-anchor="start" x="422.944" y="-967.5" font-family="Helvetica,sans-Serif" font-size="20.00" fill="#000000">+ Tratador()</text>
<text text-anchor="start" x="422.944" y="-945.5" font-family="Helvetica,sans-Serif" font-size="20.00" fill="#000000">+ Tratador()</text>
<text text-anchor="start" x="422.944" y="-923.5" font-family="Helvetica,sans-Serif" font-size="20.00" fill="#000000">+ ~Tratador()</text>
<text text-anchor="start" x="422.944" y="-901.5" font-family="Helvetica,sans-Serif" font-size="20.00" fill="#000000">+ getUniforme()</text>
<text text-anchor="start" x="422.944" y="-879.5" font-family="Helvetica,sans-Serif" font-size="20.00" fill="#000000">+ printOutDados()</text>
</a>
</g>
</g>
<!-- Node9&#45;&gt;Node8 -->
<g id="edge5" class="edge">
<title>Node9&#45;&gt;Node8</title>
<path fill="none" stroke="#404040" d="M432.8405,-869.4098C422.9007,-855.8217 412.6967,-842.0005 402.944,-829 388.038,-809.1301 372.0724,-788.1985 356.4089,-767.8526"/>
<polygon fill="none" stroke="#404040" points="356.3222,-767.7401 349.4909,-765.4308 348.9952,-758.2367 355.8265,-760.5461 356.3222,-767.7401"/>
<text text-anchor="middle" x="458.444" y="-835" font-family="Helvetica,sans-Serif" font-size="20.00" fill="#000000"> #tratador</text>
</g>
<!-- Node10 -->
<g id="node7" class="node">
<title>Node10</title>
<g id="a_node7"><a xlink:href="classPessoa.html" target="_top" xlink:title="Classe base dos funcionarios. ">
<polygon fill="#ffffff" stroke="#000000" points="381.944,-1128.5 381.944,-1372.5 545.944,-1372.5 545.944,-1128.5 381.944,-1128.5"/>
<text text-anchor="middle" x="463.944" y="-1352.5" font-family="Helvetica,sans-Serif" font-size="20.00" fill="#000000">Pessoa</text>
<polyline fill="none" stroke="#000000" points="381.944,-1342.5 545.944,-1342.5 "/>
<text text-anchor="middle" x="463.944" y="-1322.5" font-family="Helvetica,sans-Serif" font-size="20.00" fill="#000000"> </text>
<polyline fill="none" stroke="#000000" points="381.944,-1312.5 545.944,-1312.5 "/>
<text text-anchor="start" x="389.944" y="-1292.5" font-family="Helvetica,sans-Serif" font-size="20.00" fill="#000000">+ Pessoa()</text>
<text text-anchor="start" x="389.944" y="-1270.5" font-family="Helvetica,sans-Serif" font-size="20.00" fill="#000000">+ Pessoa()</text>
<text text-anchor="start" x="389.944" y="-1248.5" font-family="Helvetica,sans-Serif" font-size="20.00" fill="#000000">+ ~Pessoa()</text>
<text text-anchor="start" x="389.944" y="-1226.5" font-family="Helvetica,sans-Serif" font-size="20.00" fill="#000000">+ getNome()</text>
<text text-anchor="start" x="389.944" y="-1204.5" font-family="Helvetica,sans-Serif" font-size="20.00" fill="#000000">+ getTelefone()</text>
<text text-anchor="start" x="389.944" y="-1182.5" font-family="Helvetica,sans-Serif" font-size="20.00" fill="#000000">+ getEmail()</text>
<text text-anchor="start" x="389.944" y="-1160.5" font-family="Helvetica,sans-Serif" font-size="20.00" fill="#000000">+ printOutDados()</text>
<text text-anchor="start" x="389.944" y="-1138.5" font-family="Helvetica,sans-Serif" font-size="20.00" fill="#000000">+ operator==()</text>
</a>
</g>
</g>
<!-- Node10&#45;&gt;Node9 -->
<g id="edge6" class="edge">
<title>Node10&#45;&gt;Node9</title>
<path fill="none" stroke="#191970" d="M478.8987,-1118.1738C481.594,-1094.324 484.3449,-1069.9833 486.8601,-1047.7273"/>
<polygon fill="none" stroke="#191970" points="475.393,-1118.0278 477.7478,-1128.3576 482.3487,-1118.8139 475.393,-1118.0278"/>
</g>
<!-- Node13 -->
<g id="node10" class="node">
<title>Node13</title>
<g id="a_node10"><a xlink:href="classVeterinario.html" target="_top" xlink:title="Implementação dos veterinarios. ">
<polygon fill="#ffffff" stroke="#000000" points="232.944,-869.5 232.944,-1047.5 396.944,-1047.5 396.944,-869.5 232.944,-869.5"/>
<text text-anchor="middle" x="314.944" y="-1027.5" font-family="Helvetica,sans-Serif" font-size="20.00" fill="#000000">Veterinario</text>
<polyline fill="none" stroke="#000000" points="232.944,-1017.5 396.944,-1017.5 "/>
<text text-anchor="middle" x="314.944" y="-997.5" font-family="Helvetica,sans-Serif" font-size="20.00" fill="#000000"> </text>
<polyline fill="none" stroke="#000000" points="232.944,-987.5 396.944,-987.5 "/>
<text text-anchor="start" x="240.944" y="-967.5" font-family="Helvetica,sans-Serif" font-size="20.00" fill="#000000">+ Veterinario()</text>
<text text-anchor="start" x="240.944" y="-945.5" font-family="Helvetica,sans-Serif" font-size="20.00" fill="#000000">+ Veterinario()</text>
<text text-anchor="start" x="240.944" y="-923.5" font-family="Helvetica,sans-Serif" font-size="20.00" fill="#000000">+ ~Veterinario()</text>
<text text-anchor="start" x="240.944" y="-901.5" font-family="Helvetica,sans-Serif" font-size="20.00" fill="#000000">+ getCRMV()</text>
<text text-anchor="start" x="240.944" y="-879.5" font-family="Helvetica,sans-Serif" font-size="20.00" fill="#000000">+ printOutDados()</text>
</a>
</g>
</g>
<!-- Node10&#45;&gt;Node13 -->
<g id="edge12" class="edge">
<title>Node10&#45;&gt;Node13</title>
<path fill="none" stroke="#191970" d="M396.9102,-1119.1318C384.5844,-1094.9764 371.9831,-1070.2813 360.4744,-1047.7273"/>
<polygon fill="none" stroke="#191970" points="393.9551,-1121.0411 401.6179,-1128.3576 400.1903,-1117.8594 393.9551,-1121.0411"/>
</g>
<!-- Node11 -->
<g id="node8" class="node">
<title>Node11</title>
<polygon fill="#ffffff" stroke="#bfbfbf" points="348.944,-1475.5 348.944,-1565.5 412.944,-1565.5 412.944,-1475.5 348.944,-1475.5"/>
<text text-anchor="middle" x="380.944" y="-1545.5" font-family="Helvetica,sans-Serif" font-size="20.00" fill="#000000">string</text>
<polyline fill="none" stroke="#bfbfbf" points="348.944,-1535.5 412.944,-1535.5 "/>
<text text-anchor="middle" x="380.944" y="-1515.5" font-family="Helvetica,sans-Serif" font-size="20.00" fill="#000000"> </text>
<polyline fill="none" stroke="#bfbfbf" points="348.944,-1505.5 412.944,-1505.5 "/>
<text text-anchor="middle" x="380.944" y="-1485.5" font-family="Helvetica,sans-Serif" font-size="20.00" fill="#000000"> </text>
</g>
<!-- Node11&#45;&gt;Node7 -->
<g id="edge14" class="edge">
<title>Node11&#45;&gt;Node7</title>
<path fill="none" stroke="#404040" d="M413.1809,-1513.8108C473.4106,-1499.4966 602.5561,-1459.869 664.944,-1373 697.083,-1328.2497 683.944,-1305.5954 683.944,-1250.5 683.944,-1250.5 683.944,-1250.5 683.944,-644.5 683.944,-447.6935 448.3079,-313.1288 328.3613,-257.3798"/>
<polygon fill="none" stroke="#404040" points="328.0356,-257.2306 320.9147,-258.3673 317.1265,-252.2313 324.2475,-251.0946 328.0356,-257.2306"/>
<text text-anchor="middle" x="710.444" y="-953.5" font-family="Helvetica,sans-Serif" font-size="20.00" fill="#000000"> #local</text>
</g>
<!-- Node11&#45;&gt;Node8 -->
<g id="edge10" class="edge">
<title>Node11&#45;&gt;Node8</title>
<path fill="none" stroke="#404040" d="M348.7291,-1498.7182C334.6703,-1487.7142 319.1086,-1473.2497 308.944,-1457 224.0848,-1321.3392 234.4731,-1268.5605 212.944,-1110 200.0926,-1015.35 208.9652,-909.4323 222.3155,-822.5703"/>
<polygon fill="none" stroke="#404040" points="222.3155,-822.57 219.298,-816.0205 224.1831,-810.7162 227.2006,-817.2656 222.3155,-822.57"/>
<text text-anchor="middle" x="251.944" y="-1094" font-family="Helvetica,sans-Serif" font-size="20.00" fill="#000000"> #especie</text>
<text text-anchor="middle" x="251.944" y="-1072" font-family="Helvetica,sans-Serif" font-size="20.00" fill="#000000">#nome</text>
</g>
<!-- Node11&#45;&gt;Node10 -->
<g id="edge7" class="edge">
<title>Node11&#45;&gt;Node10</title>
<path fill="none" stroke="#404040" d="M394.8363,-1475.3081C402.5972,-1450.0618 412.7156,-1417.1466 422.8055,-1384.3241"/>
<polygon fill="none" stroke="#404040" points="422.8432,-1384.2012 420.7828,-1377.2907 426.3693,-1372.731 428.4297,-1379.6415 422.8432,-1384.2012"/>
<text text-anchor="middle" x="458.444" y="-1441" font-family="Helvetica,sans-Serif" font-size="20.00" fill="#000000"> #email</text>
<text text-anchor="middle" x="458.444" y="-1419" font-family="Helvetica,sans-Serif" font-size="20.00" fill="#000000">#nome</text>
<text text-anchor="middle" x="458.444" y="-1397" font-family="Helvetica,sans-Serif" font-size="20.00" fill="#000000">#telefone</text>
</g>
<!-- Node11&#45;&gt;Node13 -->
<g id="edge13" class="edge">
<title>Node11&#45;&gt;Node13</title>
<path fill="none" stroke="#404040" d="M351.4298,-1475.4643C334.7663,-1447.289 315.5916,-1409.5212 306.944,-1373 282.1418,-1268.2535 289.0488,-1144.428 299.0808,-1059.5645"/>
<polygon fill="none" stroke="#404040" points="299.088,-1059.505 295.8472,-1053.0631 300.5471,-1047.594 303.7879,-1054.0358 299.088,-1059.505"/>
<text text-anchor="middle" x="339.944" y="-1245.5" font-family="Helvetica,sans-Serif" font-size="20.00" fill="#000000"> &#45;CRMV</text>
</g>
<!-- Node12 -->
<g id="node9" class="node">
<title>Node12</title>
<polygon fill="#ffffff" stroke="#bfbfbf" points="563.944,-1205.5 563.944,-1295.5 655.944,-1295.5 655.944,-1205.5 563.944,-1205.5"/>
<text text-anchor="middle" x="609.944" y="-1275.5" font-family="Helvetica,sans-Serif" font-size="20.00" fill="#000000">Uniforme</text>
<polyline fill="none" stroke="#bfbfbf" points="563.944,-1265.5 655.944,-1265.5 "/>
<text text-anchor="middle" x="609.944" y="-1245.5" font-family="Helvetica,sans-Serif" font-size="20.00" fill="#000000"> </text>
<polyline fill="none" stroke="#bfbfbf" points="563.944,-1235.5 655.944,-1235.5 "/>
<text text-anchor="middle" x="609.944" y="-1215.5" font-family="Helvetica,sans-Serif" font-size="20.00" fill="#000000"> </text>
</g>
<!-- Node12&#45;&gt;Node9 -->
<g id="edge8" class="edge">
<title>Node12&#45;&gt;Node9</title>
<path fill="none" stroke="#404040" d="M592.4117,-1205.1954C577.3725,-1166.3328 555.1512,-1108.9115 535.9307,-1059.2443"/>
<polygon fill="none" stroke="#404040" points="535.8295,-1058.9826 529.9336,-1054.8307 531.4986,-1047.7914 537.3944,-1051.9434 535.8295,-1058.9826"/>
<text text-anchor="middle" x="594.944" y="-1083" font-family="Helvetica,sans-Serif" font-size="20.00" fill="#000000"> &#45;uniforme</text>
</g>
<!-- Node13&#45;&gt;Node8 -->
<g id="edge11" class="edge">
<title>Node13&#45;&gt;Node8</title>
<path fill="none" stroke="#404040" d="M299.3303,-869.3601C296.7236,-854.4783 293.9405,-838.5892 291.1045,-822.3982"/>
<polygon fill="none" stroke="#404040" points="291.1024,-822.3854 286.1271,-817.1656 289.0319,-810.5654 294.0071,-815.7852 291.1024,-822.3854"/>
<text text-anchor="middle" x="347.444" y="-835" font-family="Helvetica,sans-Serif" font-size="20.00" fill="#000000"> #veterinario</text>
</g>
</g>
</svg>
