<?xml version="1.0" encoding="UTF-8" standalone="no"?>
<!DOCTYPE svg PUBLIC "-//W3C//DTD SVG 1.1//EN"
 "http://www.w3.org/Graphics/SVG/1.1/DTD/svg11.dtd">
<!-- Generated by graphviz version 2.40.1 (20161225.0304)
 -->
<!-- Title: Animal Pages: 1 -->
<svg width="2305pt" height="793pt"
 viewBox="0.00 0.00 2305.00 793.00" xmlns="http://www.w3.org/2000/svg" xmlns:xlink="http://www.w3.org/1999/xlink">
<g id="graph0" class="graph" transform="scale(1 1) rotate(0) translate(4 789)">
<title>Animal</title>
<polygon fill="#ffffff" stroke="transparent" points="-4,4 -4,-789 2301,-789 2301,4 -4,4"/>
<!-- Node0 -->
<g id="node1" class="node">
<title>Node0</title>
<polygon fill="#bfbfbf" stroke="#000000" points="1119.5,-364.5 1119.5,-784.5 1297.5,-784.5 1297.5,-364.5 1119.5,-364.5"/>
<text text-anchor="middle" x="1208.5" y="-764.5" font-family="Helvetica,sans-Serif" font-size="20.00" fill="#000000">Animal</text>
<polyline fill="none" stroke="#000000" points="1119.5,-754.5 1297.5,-754.5 "/>
<text text-anchor="start" x="1127.5" y="-734.5" font-family="Helvetica,sans-Serif" font-size="20.00" fill="#000000"># nome</text>
<text text-anchor="start" x="1127.5" y="-712.5" font-family="Helvetica,sans-Serif" font-size="20.00" fill="#000000"># especie</text>
<text text-anchor="start" x="1127.5" y="-690.5" font-family="Helvetica,sans-Serif" font-size="20.00" fill="#000000"># veterinario</text>
<text text-anchor="start" x="1127.5" y="-668.5" font-family="Helvetica,sans-Serif" font-size="20.00" fill="#000000"># tratador</text>
<text text-anchor="start" x="1127.5" y="-646.5" font-family="Helvetica,sans-Serif" font-size="20.00" fill="#000000"># perigoso</text>
<polyline fill="none" stroke="#000000" points="1119.5,-636.5 1297.5,-636.5 "/>
<text text-anchor="start" x="1127.5" y="-616.5" font-family="Helvetica,sans-Serif" font-size="20.00" fill="#000000">+ Animal()</text>
<text text-anchor="start" x="1127.5" y="-594.5" font-family="Helvetica,sans-Serif" font-size="20.00" fill="#000000">+ Animal()</text>
<text text-anchor="start" x="1127.5" y="-572.5" font-family="Helvetica,sans-Serif" font-size="20.00" fill="#000000">+ ~Animal()</text>
<text text-anchor="start" x="1127.5" y="-550.5" font-family="Helvetica,sans-Serif" font-size="20.00" fill="#000000">+ getNome()</text>
<text text-anchor="start" x="1127.5" y="-528.5" font-family="Helvetica,sans-Serif" font-size="20.00" fill="#000000">+ getEspecie()</text>
<text text-anchor="start" x="1127.5" y="-506.5" font-family="Helvetica,sans-Serif" font-size="20.00" fill="#000000">+ getVeterinario()</text>
<text text-anchor="start" x="1127.5" y="-484.5" font-family="Helvetica,sans-Serif" font-size="20.00" fill="#000000">+ getTratador()</text>
<text text-anchor="start" x="1127.5" y="-462.5" font-family="Helvetica,sans-Serif" font-size="20.00" fill="#000000">+ getPerigoso()</text>
<text text-anchor="start" x="1127.5" y="-440.5" font-family="Helvetica,sans-Serif" font-size="20.00" fill="#000000">+ getClassificacao()</text>
<text text-anchor="start" x="1127.5" y="-418.5" font-family="Helvetica,sans-Serif" font-size="20.00" fill="#000000">+ getClasse()</text>
<text text-anchor="start" x="1127.5" y="-396.5" font-family="Helvetica,sans-Serif" font-size="20.00" fill="#000000">+ printOutDados()</text>
<text text-anchor="start" x="1127.5" y="-374.5" font-family="Helvetica,sans-Serif" font-size="20.00" fill="#000000">+ operator==()</text>
</g>
<!-- Node1 -->
<g id="node2" class="node">
<title>Node1</title>
<g id="a_node2"><a xlink:href="classDomestico.html" target="_top" xlink:title="Umas das definições de categoria para Animal. ">
<polygon fill="#ffffff" stroke="#000000" points="440,-171.5 440,-327.5 595,-327.5 595,-171.5 440,-171.5"/>
<text text-anchor="middle" x="517.5" y="-307.5" font-family="Helvetica,sans-Serif" font-size="20.00" fill="#000000">Domestico</text>
<polyline fill="none" stroke="#000000" points="440,-297.5 595,-297.5 "/>
<text text-anchor="start" x="448" y="-277.5" font-family="Helvetica,sans-Serif" font-size="20.00" fill="#000000"># adestrado</text>
<polyline fill="none" stroke="#000000" points="440,-267.5 595,-267.5 "/>
<text text-anchor="start" x="448" y="-247.5" font-family="Helvetica,sans-Serif" font-size="20.00" fill="#000000">+ Domestico()</text>
<text text-anchor="start" x="448" y="-225.5" font-family="Helvetica,sans-Serif" font-size="20.00" fill="#000000">+ Domestico()</text>
<text text-anchor="start" x="448" y="-203.5" font-family="Helvetica,sans-Serif" font-size="20.00" fill="#000000">+ ~Domestico()</text>
<text text-anchor="start" x="448" y="-181.5" font-family="Helvetica,sans-Serif" font-size="20.00" fill="#000000">+ getAdestrado()</text>
</a>
</g>
</g>
<!-- Node0&#45;&gt;Node1 -->
<g id="edge1" class="edge">
<title>Node0&#45;&gt;Node1</title>
<path fill="none" stroke="#191970" d="M1109.8434,-528.0986C971.1401,-462.8618 721.3522,-345.3784 595.0793,-285.9881"/>
<polygon fill="none" stroke="#191970" points="1108.6869,-531.4224 1119.2256,-532.5113 1111.6662,-525.088 1108.6869,-531.4224"/>
</g>
<!-- Node6 -->
<g id="node7" class="node">
<title>Node6</title>
<g id="a_node7"><a xlink:href="classExotico.html" target="_top" xlink:title="Umas das definições de categoria para Animal. ">
<polygon fill="#ffffff" stroke="#000000" points="1151.5,-171.5 1151.5,-327.5 1265.5,-327.5 1265.5,-171.5 1151.5,-171.5"/>
<text text-anchor="middle" x="1208.5" y="-307.5" font-family="Helvetica,sans-Serif" font-size="20.00" fill="#000000">Exotico</text>
<polyline fill="none" stroke="#000000" points="1151.5,-297.5 1265.5,-297.5 "/>
<text text-anchor="start" x="1159.5" y="-277.5" font-family="Helvetica,sans-Serif" font-size="20.00" fill="#000000"># local</text>
<polyline fill="none" stroke="#000000" points="1151.5,-267.5 1265.5,-267.5 "/>
<text text-anchor="start" x="1159.5" y="-247.5" font-family="Helvetica,sans-Serif" font-size="20.00" fill="#000000">+ Exotico()</text>
<text text-anchor="start" x="1159.5" y="-225.5" font-family="Helvetica,sans-Serif" font-size="20.00" fill="#000000">+ Exotico()</text>
<text text-anchor="start" x="1159.5" y="-203.5" font-family="Helvetica,sans-Serif" font-size="20.00" fill="#000000">+ ~Exotico()</text>
<text text-anchor="start" x="1159.5" y="-181.5" font-family="Helvetica,sans-Serif" font-size="20.00" fill="#000000">+ getLocal()</text>
</a>
</g>
</g>
<!-- Node0&#45;&gt;Node6 -->
<g id="edge6" class="edge">
<title>Node0&#45;&gt;Node6</title>
<path fill="none" stroke="#191970" d="M1208.5,-354.0665C1208.5,-344.9314 1208.5,-336.0773 1208.5,-327.6428"/>
<polygon fill="none" stroke="#191970" points="1205.0001,-354.0828 1208.5,-364.0828 1212.0001,-354.0829 1205.0001,-354.0828"/>
</g>
<!-- Node11 -->
<g id="node12" class="node">
<title>Node11</title>
<g id="a_node12"><a xlink:href="classNativo.html" target="_top" xlink:title="Umas das definições de categoria para Animal. ">
<polygon fill="#ffffff" stroke="#000000" points="1787,-171.5 1787,-327.5 1914,-327.5 1914,-171.5 1787,-171.5"/>
<text text-anchor="middle" x="1850.5" y="-307.5" font-family="Helvetica,sans-Serif" font-size="20.00" fill="#000000">Nativo</text>
<polyline fill="none" stroke="#000000" points="1787,-297.5 1914,-297.5 "/>
<text text-anchor="start" x="1795" y="-277.5" font-family="Helvetica,sans-Serif" font-size="20.00" fill="#000000"># regiao</text>
<polyline fill="none" stroke="#000000" points="1787,-267.5 1914,-267.5 "/>
<text text-anchor="start" x="1795" y="-247.5" font-family="Helvetica,sans-Serif" font-size="20.00" fill="#000000">+ Nativo()</text>
<text text-anchor="start" x="1795" y="-225.5" font-family="Helvetica,sans-Serif" font-size="20.00" fill="#000000">+ Nativo()</text>
<text text-anchor="start" x="1795" y="-203.5" font-family="Helvetica,sans-Serif" font-size="20.00" fill="#000000">+ ~Nativo()</text>
<text text-anchor="start" x="1795" y="-181.5" font-family="Helvetica,sans-Serif" font-size="20.00" fill="#000000">+ getRegiao()</text>
</a>
</g>
</g>
<!-- Node0&#45;&gt;Node11 -->
<g id="edge11" class="edge">
<title>Node0&#45;&gt;Node11</title>
<path fill="none" stroke="#191970" d="M1306.7896,-524.7428C1440.0356,-457.2896 1674.2329,-338.7318 1786.6971,-281.799"/>
<polygon fill="none" stroke="#191970" points="1305.1085,-521.6709 1297.7673,-529.3101 1308.2701,-527.9162 1305.1085,-521.6709"/>
</g>
<!-- Node2 -->
<g id="node3" class="node">
<title>Node2</title>
<g id="a_node3"><a xlink:href="classAnfibioDomestico.html" target="_top" xlink:title="Implementação de animal com Classe e Categoria. ">
<polygon fill="#ffffff" stroke="#000000" points="0,-11.5 0,-123.5 199,-123.5 199,-11.5 0,-11.5"/>
<text text-anchor="middle" x="99.5" y="-103.5" font-family="Helvetica,sans-Serif" font-size="20.00" fill="#000000">AnfibioDomestico</text>
<polyline fill="none" stroke="#000000" points="0,-93.5 199,-93.5 "/>
<text text-anchor="middle" x="99.5" y="-73.5" font-family="Helvetica,sans-Serif" font-size="20.00" fill="#000000"> </text>
<polyline fill="none" stroke="#000000" points="0,-63.5 199,-63.5 "/>
<text text-anchor="start" x="8" y="-43.5" font-family="Helvetica,sans-Serif" font-size="20.00" fill="#000000">+ AnfibioDomestico()</text>
<text text-anchor="start" x="8" y="-21.5" font-family="Helvetica,sans-Serif" font-size="20.00" fill="#000000">+ ~AnfibioDomestico()</text>
</a>
</g>
</g>
<!-- Node1&#45;&gt;Node2 -->
<g id="edge2" class="edge">
<title>Node1&#45;&gt;Node2</title>
<path fill="none" stroke="#191970" d="M430.3322,-222.6269C367.095,-201.8635 280.2513,-170.7014 207.5,-135 200.3541,-131.4933 193.0823,-127.638 185.8612,-123.6015"/>
<polygon fill="none" stroke="#191970" points="429.2868,-225.9673 439.8793,-225.7415 431.4579,-219.3125 429.2868,-225.9673"/>
</g>
<!-- Node3 -->
<g id="node4" class="node">
<title>Node3</title>
<g id="a_node4"><a xlink:href="classAveDomestica.html" target="_top" xlink:title="Implementação de animal com Classe e Categoria. ">
<polygon fill="#ffffff" stroke="#000000" points="217,-.5 217,-134.5 390,-134.5 390,-.5 217,-.5"/>
<text text-anchor="middle" x="303.5" y="-114.5" font-family="Helvetica,sans-Serif" font-size="20.00" fill="#000000">AveDomestica</text>
<polyline fill="none" stroke="#000000" points="217,-104.5 390,-104.5 "/>
<text text-anchor="middle" x="303.5" y="-84.5" font-family="Helvetica,sans-Serif" font-size="20.00" fill="#000000"> </text>
<polyline fill="none" stroke="#000000" points="217,-74.5 390,-74.5 "/>
<text text-anchor="start" x="225" y="-54.5" font-family="Helvetica,sans-Serif" font-size="20.00" fill="#000000">+ AveDomestica()</text>
<text text-anchor="start" x="225" y="-32.5" font-family="Helvetica,sans-Serif" font-size="20.00" fill="#000000">+ AveDomestica()</text>
<text text-anchor="start" x="225" y="-10.5" font-family="Helvetica,sans-Serif" font-size="20.00" fill="#000000">+ ~AveDomestica()</text>
</a>
</g>
</g>
<!-- Node1&#45;&gt;Node3 -->
<g id="edge3" class="edge">
<title>Node1&#45;&gt;Node3</title>
<path fill="none" stroke="#191970" d="M431.9965,-176.7821C415.6903,-162.9142 398.6895,-148.4555 382.5943,-134.7671"/>
<polygon fill="none" stroke="#191970" points="430.0534,-179.7241 439.9385,-183.5365 434.5884,-174.3917 430.0534,-179.7241"/>
</g>
<!-- Node4 -->
<g id="node5" class="node">
<title>Node4</title>
<g id="a_node5"><a xlink:href="classMamiferoDomestico.html" target="_top" xlink:title="Implementação de animal com Classe e Categoria. ">
<polygon fill="#ffffff" stroke="#000000" points="408.5,-11.5 408.5,-123.5 626.5,-123.5 626.5,-11.5 408.5,-11.5"/>
<text text-anchor="middle" x="517.5" y="-103.5" font-family="Helvetica,sans-Serif" font-size="20.00" fill="#000000">MamiferoDomestico</text>
<polyline fill="none" stroke="#000000" points="408.5,-93.5 626.5,-93.5 "/>
<text text-anchor="middle" x="517.5" y="-73.5" font-family="Helvetica,sans-Serif" font-size="20.00" fill="#000000"> </text>
<polyline fill="none" stroke="#000000" points="408.5,-63.5 626.5,-63.5 "/>
<text text-anchor="start" x="416.5" y="-43.5" font-family="Helvetica,sans-Serif" font-size="20.00" fill="#000000">+ MamiferoDomestico()</text>
<text text-anchor="start" x="416.5" y="-21.5" font-family="Helvetica,sans-Serif" font-size="20.00" fill="#000000">+ ~MamiferoDomestico()</text>
</a>
</g>
</g>
<!-- Node1&#45;&gt;Node4 -->
<g id="edge4" class="edge">
<title>Node1&#45;&gt;Node4</title>
<path fill="none" stroke="#191970" d="M517.5,-161.0862C517.5,-148.3593 517.5,-135.5648 517.5,-123.6997"/>
<polygon fill="none" stroke="#191970" points="514.0001,-161.2593 517.5,-171.2594 521.0001,-161.2594 514.0001,-161.2593"/>
</g>
<!-- Node5 -->
<g id="node6" class="node">
<title>Node5</title>
<g id="a_node6"><a xlink:href="classReptilDomestico.html" target="_top" xlink:title="Implementação de animal com Classe e Categoria. ">
<polygon fill="#ffffff" stroke="#000000" points="644.5,-11.5 644.5,-123.5 832.5,-123.5 832.5,-11.5 644.5,-11.5"/>
<text text-anchor="middle" x="738.5" y="-103.5" font-family="Helvetica,sans-Serif" font-size="20.00" fill="#000000">ReptilDomestico</text>
<polyline fill="none" stroke="#000000" points="644.5,-93.5 832.5,-93.5 "/>
<text text-anchor="middle" x="738.5" y="-73.5" font-family="Helvetica,sans-Serif" font-size="20.00" fill="#000000"> </text>
<polyline fill="none" stroke="#000000" points="644.5,-63.5 832.5,-63.5 "/>
<text text-anchor="start" x="652.5" y="-43.5" font-family="Helvetica,sans-Serif" font-size="20.00" fill="#000000">+ ReptilDomestico()</text>
<text text-anchor="start" x="652.5" y="-21.5" font-family="Helvetica,sans-Serif" font-size="20.00" fill="#000000">+ ~ReptilDomestico()</text>
</a>
</g>
</g>
<!-- Node1&#45;&gt;Node5 -->
<g id="edge5" class="edge">
<title>Node1&#45;&gt;Node5</title>
<path fill="none" stroke="#191970" d="M602.9308,-179.1452C625.2419,-160.7714 648.9923,-141.2122 670.2781,-123.6828"/>
<polygon fill="none" stroke="#191970" points="600.5999,-176.5307 595.1056,-185.5895 605.0499,-181.9342 600.5999,-176.5307"/>
</g>
<!-- Node7 -->
<g id="node8" class="node">
<title>Node7</title>
<g id="a_node8"><a xlink:href="classAnfibioExotico.html" target="_top" xlink:title="Implementação de animal com Classe e Categoria. ">
<polygon fill="#ffffff" stroke="#000000" points="851,-11.5 851,-123.5 1024,-123.5 1024,-11.5 851,-11.5"/>
<text text-anchor="middle" x="937.5" y="-103.5" font-family="Helvetica,sans-Serif" font-size="20.00" fill="#000000">AnfibioExotico</text>
<polyline fill="none" stroke="#000000" points="851,-93.5 1024,-93.5 "/>
<text text-anchor="middle" x="937.5" y="-73.5" font-family="Helvetica,sans-Serif" font-size="20.00" fill="#000000"> </text>
<polyline fill="none" stroke="#000000" points="851,-63.5 1024,-63.5 "/>
<text text-anchor="start" x="859" y="-43.5" font-family="Helvetica,sans-Serif" font-size="20.00" fill="#000000">+ AnfibioExotico()</text>
<text text-anchor="start" x="859" y="-21.5" font-family="Helvetica,sans-Serif" font-size="20.00" fill="#000000">+ ~AnfibioExotico()</text>
</a>
</g>
</g>
<!-- Node6&#45;&gt;Node7 -->
<g id="edge7" class="edge">
<title>Node6&#45;&gt;Node7</title>
<path fill="none" stroke="#191970" d="M1142.7843,-207.2433C1109.8096,-185.8525 1069.3549,-159.325 1033.5,-135 1028.0204,-131.2825 1022.3849,-127.421 1016.7213,-123.5119"/>
<polygon fill="none" stroke="#191970" points="1141.141,-210.349 1151.4366,-212.8495 1144.9475,-204.4744 1141.141,-210.349"/>
</g>
<!-- Node8 -->
<g id="node9" class="node">
<title>Node8</title>
<g id="a_node9"><a xlink:href="classAveExotica.html" target="_top" xlink:title="Implementação de animal com Classe e Categoria. ">
<polygon fill="#ffffff" stroke="#000000" points="1042.5,-11.5 1042.5,-123.5 1188.5,-123.5 1188.5,-11.5 1042.5,-11.5"/>
<text text-anchor="middle" x="1115.5" y="-103.5" font-family="Helvetica,sans-Serif" font-size="20.00" fill="#000000">AveExotica</text>
<polyline fill="none" stroke="#000000" points="1042.5,-93.5 1188.5,-93.5 "/>
<text text-anchor="middle" x="1115.5" y="-73.5" font-family="Helvetica,sans-Serif" font-size="20.00" fill="#000000"> </text>
<polyline fill="none" stroke="#000000" points="1042.5,-63.5 1188.5,-63.5 "/>
<text text-anchor="start" x="1050.5" y="-43.5" font-family="Helvetica,sans-Serif" font-size="20.00" fill="#000000">+ AveExotica()</text>
<text text-anchor="start" x="1050.5" y="-21.5" font-family="Helvetica,sans-Serif" font-size="20.00" fill="#000000">+ ~AveExotica()</text>
</a>
</g>
</g>
<!-- Node6&#45;&gt;Node8 -->
<g id="edge8" class="edge">
<title>Node6&#45;&gt;Node8</title>
<path fill="none" stroke="#191970" d="M1163.9009,-162.22C1157.207,-149.1201 1150.4605,-135.9173 1144.2174,-123.6997"/>
<polygon fill="none" stroke="#191970" points="1160.8529,-163.9472 1168.5199,-171.2594 1167.0863,-160.762 1160.8529,-163.9472"/>
</g>
<!-- Node9 -->
<g id="node10" class="node">
<title>Node9</title>
<g id="a_node10"><a xlink:href="classMamiferoExotico.html" target="_top" xlink:title="Implementação de animal com Classe e Categoria. ">
<polygon fill="#ffffff" stroke="#000000" points="1207,-11.5 1207,-123.5 1398,-123.5 1398,-11.5 1207,-11.5"/>
<text text-anchor="middle" x="1302.5" y="-103.5" font-family="Helvetica,sans-Serif" font-size="20.00" fill="#000000">MamiferoExotico</text>
<polyline fill="none" stroke="#000000" points="1207,-93.5 1398,-93.5 "/>
<text text-anchor="middle" x="1302.5" y="-73.5" font-family="Helvetica,sans-Serif" font-size="20.00" fill="#000000"> </text>
<polyline fill="none" stroke="#000000" points="1207,-63.5 1398,-63.5 "/>
<text text-anchor="start" x="1215" y="-43.5" font-family="Helvetica,sans-Serif" font-size="20.00" fill="#000000">+ MamiferoExotico()</text>
<text text-anchor="start" x="1215" y="-21.5" font-family="Helvetica,sans-Serif" font-size="20.00" fill="#000000">+ ~MamiferoExotico()</text>
</a>
</g>
</g>
<!-- Node6&#45;&gt;Node9 -->
<g id="edge9" class="edge">
<title>Node6&#45;&gt;Node9</title>
<path fill="none" stroke="#191970" d="M1253.5787,-162.22C1260.3445,-149.1201 1267.1636,-135.9173 1273.4738,-123.6997"/>
<polygon fill="none" stroke="#191970" points="1250.3892,-160.7683 1248.91,-171.2594 1256.6087,-163.9806 1250.3892,-160.7683"/>
</g>
<!-- Node10 -->
<g id="node11" class="node">
<title>Node10</title>
<g id="a_node11"><a xlink:href="classReptilExotico.html" target="_top" xlink:title="Implementação de animal com Classe e Categoria. ">
<polygon fill="#ffffff" stroke="#000000" points="1416.5,-11.5 1416.5,-123.5 1578.5,-123.5 1578.5,-11.5 1416.5,-11.5"/>
<text text-anchor="middle" x="1497.5" y="-103.5" font-family="Helvetica,sans-Serif" font-size="20.00" fill="#000000">ReptilExotico</text>
<polyline fill="none" stroke="#000000" points="1416.5,-93.5 1578.5,-93.5 "/>
<text text-anchor="middle" x="1497.5" y="-73.5" font-family="Helvetica,sans-Serif" font-size="20.00" fill="#000000"> </text>
<polyline fill="none" stroke="#000000" points="1416.5,-63.5 1578.5,-63.5 "/>
<text text-anchor="start" x="1424.5" y="-43.5" font-family="Helvetica,sans-Serif" font-size="20.00" fill="#000000">+ ReptilExotico()</text>
<text text-anchor="start" x="1424.5" y="-21.5" font-family="Helvetica,sans-Serif" font-size="20.00" fill="#000000">+ ~ReptilExotico()</text>
</a>
</g>
</g>
<!-- Node6&#45;&gt;Node10 -->
<g id="edge10" class="edge">
<title>Node6&#45;&gt;Node10</title>
<path fill="none" stroke="#191970" d="M1275.0178,-213.5271C1313.9908,-191.8386 1363.7928,-163.0568 1406.5,-135 1412.0074,-131.3819 1417.6317,-127.5548 1423.2481,-123.6354"/>
<polygon fill="none" stroke="#191970" points="1272.9115,-210.6928 1265.8625,-218.6025 1276.3055,-216.815 1272.9115,-210.6928"/>
</g>
<!-- Node12 -->
<g id="node13" class="node">
<title>Node12</title>
<g id="a_node13"><a xlink:href="classAnfibioNativo.html" target="_top" xlink:title="Implementação de animal com Classe e Categoria. ">
<polygon fill="#ffffff" stroke="#000000" points="1596.5,-11.5 1596.5,-123.5 1762.5,-123.5 1762.5,-11.5 1596.5,-11.5"/>
<text text-anchor="middle" x="1679.5" y="-103.5" font-family="Helvetica,sans-Serif" font-size="20.00" fill="#000000">AnfibioNativo</text>
<polyline fill="none" stroke="#000000" points="1596.5,-93.5 1762.5,-93.5 "/>
<text text-anchor="middle" x="1679.5" y="-73.5" font-family="Helvetica,sans-Serif" font-size="20.00" fill="#000000"> </text>
<polyline fill="none" stroke="#000000" points="1596.5,-63.5 1762.5,-63.5 "/>
<text text-anchor="start" x="1604.5" y="-43.5" font-family="Helvetica,sans-Serif" font-size="20.00" fill="#000000">+ AnfibioNativo()</text>
<text text-anchor="start" x="1604.5" y="-21.5" font-family="Helvetica,sans-Serif" font-size="20.00" fill="#000000">+ ~AnfibioNativo()</text>
</a>
</g>
</g>
<!-- Node11&#45;&gt;Node12 -->
<g id="edge12" class="edge">
<title>Node11&#45;&gt;Node12</title>
<path fill="none" stroke="#191970" d="M1779.6106,-174.0505C1763.7836,-157.2053 1747.2682,-139.6276 1732.3213,-123.7191"/>
<polygon fill="none" stroke="#191970" points="1777.4277,-176.8386 1786.8259,-181.7299 1782.5292,-172.0454 1777.4277,-176.8386"/>
</g>
<!-- Node13 -->
<g id="node14" class="node">
<title>Node13</title>
<g id="a_node14"><a xlink:href="classAveNativa.html" target="_top" xlink:title="Implementação de animal com Classe e Categoria. ">
<polygon fill="#ffffff" stroke="#000000" points="1780.5,-11.5 1780.5,-123.5 1920.5,-123.5 1920.5,-11.5 1780.5,-11.5"/>
<text text-anchor="middle" x="1850.5" y="-103.5" font-family="Helvetica,sans-Serif" font-size="20.00" fill="#000000">AveNativa</text>
<polyline fill="none" stroke="#000000" points="1780.5,-93.5 1920.5,-93.5 "/>
<text text-anchor="middle" x="1850.5" y="-73.5" font-family="Helvetica,sans-Serif" font-size="20.00" fill="#000000"> </text>
<polyline fill="none" stroke="#000000" points="1780.5,-63.5 1920.5,-63.5 "/>
<text text-anchor="start" x="1788.5" y="-43.5" font-family="Helvetica,sans-Serif" font-size="20.00" fill="#000000">+ AveNativa()</text>
<text text-anchor="start" x="1788.5" y="-21.5" font-family="Helvetica,sans-Serif" font-size="20.00" fill="#000000">+ ~AveNativa()</text>
</a>
</g>
</g>
<!-- Node11&#45;&gt;Node13 -->
<g id="edge13" class="edge">
<title>Node11&#45;&gt;Node13</title>
<path fill="none" stroke="#191970" d="M1850.5,-161.0862C1850.5,-148.3593 1850.5,-135.5648 1850.5,-123.6997"/>
<polygon fill="none" stroke="#191970" points="1847.0001,-161.2593 1850.5,-171.2594 1854.0001,-161.2594 1847.0001,-161.2593"/>
</g>
<!-- Node14 -->
<g id="node15" class="node">
<title>Node14</title>
<g id="a_node15"><a xlink:href="classMamiferoNativo.html" target="_top" xlink:title="Implementação de animal com Classe e Categoria. ">
<polygon fill="#ffffff" stroke="#000000" points="1939,-11.5 1939,-123.5 2124,-123.5 2124,-11.5 1939,-11.5"/>
<text text-anchor="middle" x="2031.5" y="-103.5" font-family="Helvetica,sans-Serif" font-size="20.00" fill="#000000">MamiferoNativo</text>
<polyline fill="none" stroke="#000000" points="1939,-93.5 2124,-93.5 "/>
<text text-anchor="middle" x="2031.5" y="-73.5" font-family="Helvetica,sans-Serif" font-size="20.00" fill="#000000"> </text>
<polyline fill="none" stroke="#000000" points="1939,-63.5 2124,-63.5 "/>
<text text-anchor="start" x="1947" y="-43.5" font-family="Helvetica,sans-Serif" font-size="20.00" fill="#000000">+ MamiferoNativo()</text>
<text text-anchor="start" x="1947" y="-21.5" font-family="Helvetica,sans-Serif" font-size="20.00" fill="#000000">+ ~MamiferoNativo()</text>
</a>
</g>
</g>
<!-- Node11&#45;&gt;Node14 -->
<g id="edge14" class="edge">
<title>Node11&#45;&gt;Node14</title>
<path fill="none" stroke="#191970" d="M1921.187,-178.4225C1939.2504,-160.2593 1958.4212,-140.9826 1975.6259,-123.6828"/>
<polygon fill="none" stroke="#191970" points="1918.6292,-176.0309 1914.0593,-185.5895 1923.5926,-180.967 1918.6292,-176.0309"/>
</g>
<!-- Node15 -->
<g id="node16" class="node">
<title>Node15</title>
<g id="a_node16"><a xlink:href="classReptilNativo.html" target="_top" xlink:title="Implementação de animal com Classe e Categoria. ">
<polygon fill="#ffffff" stroke="#000000" points="2142,-11.5 2142,-123.5 2297,-123.5 2297,-11.5 2142,-11.5"/>
<text text-anchor="middle" x="2219.5" y="-103.5" font-family="Helvetica,sans-Serif" font-size="20.00" fill="#000000">ReptilNativo</text>
<polyline fill="none" stroke="#000000" points="2142,-93.5 2297,-93.5 "/>
<text text-anchor="middle" x="2219.5" y="-73.5" font-family="Helvetica,sans-Serif" font-size="20.00" fill="#000000"> </text>
<polyline fill="none" stroke="#000000" points="2142,-63.5 2297,-63.5 "/>
<text text-anchor="start" x="2150" y="-43.5" font-family="Helvetica,sans-Serif" font-size="20.00" fill="#000000">+ ReptilNativo()</text>
<text text-anchor="start" x="2150" y="-21.5" font-family="Helvetica,sans-Serif" font-size="20.00" fill="#000000">+ ~ReptilNativo()</text>
</a>
</g>
</g>
<!-- Node11&#45;&gt;Node15 -->
<g id="edge15" class="edge">
<title>Node11&#45;&gt;Node15</title>
<path fill="none" stroke="#191970" d="M1923.6988,-226.2632C1982.4348,-206.1354 2065.9422,-174.127 2133.5,-135 2139.4128,-131.5755 2145.3633,-127.7793 2151.224,-123.7837"/>
<polygon fill="none" stroke="#191970" points="1922.4703,-222.984 1914.1266,-229.5134 1924.721,-229.6123 1922.4703,-222.984"/>
</g>
</g>
</svg>
