<?xml version="1.0" encoding="UTF-8" standalone="no"?>
<!DOCTYPE svg PUBLIC "-//W3C//DTD SVG 1.1//EN"
 "http://www.w3.org/Graphics/SVG/1.1/DTD/svg11.dtd">
<!-- Generated by graphviz version 2.40.1 (20161225.0304)
 -->
<!-- Title: AveDomestica Pages: 1 -->
<svg width="679pt" height="1618pt"
 viewBox="0.00 0.00 678.50 1618.00" xmlns="http://www.w3.org/2000/svg" xmlns:xlink="http://www.w3.org/1999/xlink">
<g id="graph0" class="graph" transform="scale(1 1) rotate(0) translate(4 1614)">
<title>AveDomestica</title>
<polygon fill="#ffffff" stroke="transparent" points="-4,4 -4,-1614 674.5,-1614 674.5,4 -4,4"/>
<!-- Node4 -->
<g id="node1" class="node">
<title>Node4</title>
<polygon fill="#bfbfbf" stroke="#000000" points="0,-.5 0,-134.5 173,-134.5 173,-.5 0,-.5"/>
<text text-anchor="middle" x="86.5" y="-114.5" font-family="Helvetica,sans-Serif" font-size="20.00" fill="#000000">AveDomestica</text>
<polyline fill="none" stroke="#000000" points="0,-104.5 173,-104.5 "/>
<text text-anchor="middle" x="86.5" y="-84.5" font-family="Helvetica,sans-Serif" font-size="20.00" fill="#000000"> </text>
<polyline fill="none" stroke="#000000" points="0,-74.5 173,-74.5 "/>
<text text-anchor="start" x="8" y="-54.5" font-family="Helvetica,sans-Serif" font-size="20.00" fill="#000000">+ AveDomestica()</text>
<text text-anchor="start" x="8" y="-32.5" font-family="Helvetica,sans-Serif" font-size="20.00" fill="#000000">+ AveDomestica()</text>
<text text-anchor="start" x="8" y="-10.5" font-family="Helvetica,sans-Serif" font-size="20.00" fill="#000000">+ ~AveDomestica()</text>
</g>
<!-- Node5 -->
<g id="node2" class="node">
<title>Node5</title>
<g id="a_node2"><a xlink:href="classAve.html" target="_top" xlink:title="Classificação base para Aves. ">
<polygon fill="#ffffff" stroke="#000000" points="23.5,-347.5 23.5,-503.5 125.5,-503.5 125.5,-347.5 23.5,-347.5"/>
<text text-anchor="middle" x="74.5" y="-483.5" font-family="Helvetica,sans-Serif" font-size="20.00" fill="#000000">Ave</text>
<polyline fill="none" stroke="#000000" points="23.5,-473.5 125.5,-473.5 "/>
<text text-anchor="middle" x="74.5" y="-453.5" font-family="Helvetica,sans-Serif" font-size="20.00" fill="#000000"> </text>
<polyline fill="none" stroke="#000000" points="23.5,-443.5 125.5,-443.5 "/>
<text text-anchor="start" x="31.5" y="-423.5" font-family="Helvetica,sans-Serif" font-size="20.00" fill="#000000">+ Ave()</text>
<text text-anchor="start" x="31.5" y="-401.5" font-family="Helvetica,sans-Serif" font-size="20.00" fill="#000000">+ Ave()</text>
<text text-anchor="start" x="31.5" y="-379.5" font-family="Helvetica,sans-Serif" font-size="20.00" fill="#000000">+ ~Ave()</text>
<text text-anchor="start" x="31.5" y="-357.5" font-family="Helvetica,sans-Serif" font-size="20.00" fill="#000000">+ getVoa()</text>
</a>
</g>
</g>
<!-- Node5&#45;&gt;Node4 -->
<g id="edge1" class="edge">
<title>Node5&#45;&gt;Node4</title>
<path fill="none" stroke="#191970" d="M77.4625,-337.1179C79.5608,-274.5204 82.3322,-191.8408 84.2501,-134.6212"/>
<polygon fill="none" stroke="#191970" points="73.9557,-337.2661 77.1186,-347.3778 80.9518,-337.5007 73.9557,-337.2661"/>
</g>
<!-- Node6 -->
<g id="node3" class="node">
<title>Node6</title>
<polygon fill="#ffffff" stroke="#bfbfbf" points="115,-957.5 115,-1047.5 166,-1047.5 166,-957.5 115,-957.5"/>
<text text-anchor="middle" x="140.5" y="-1027.5" font-family="Helvetica,sans-Serif" font-size="20.00" fill="#000000">bool</text>
<polyline fill="none" stroke="#bfbfbf" points="115,-1017.5 166,-1017.5 "/>
<text text-anchor="middle" x="140.5" y="-997.5" font-family="Helvetica,sans-Serif" font-size="20.00" fill="#000000"> </text>
<polyline fill="none" stroke="#bfbfbf" points="115,-987.5 166,-987.5 "/>
<text text-anchor="middle" x="140.5" y="-967.5" font-family="Helvetica,sans-Serif" font-size="20.00" fill="#000000"> </text>
</g>
<!-- Node6&#45;&gt;Node5 -->
<g id="edge2" class="edge">
<title>Node6&#45;&gt;Node5</title>
<path fill="none" stroke="#404040" d="M114.9987,-966.5879C102.2999,-946.5412 88.2465,-920.5221 81.5,-895 47.586,-766.7031 53.9726,-611.7268 63.1197,-515.8788"/>
<polygon fill="none" stroke="#404040" points="63.1221,-515.8533 59.7333,-509.4881 64.3055,-503.9118 67.6943,-510.277 63.1221,-515.8533"/>
<text text-anchor="middle" x="104" y="-879" font-family="Helvetica,sans-Serif" font-size="20.00" fill="#000000"> #voa</text>
</g>
<!-- Node7 -->
<g id="node4" class="node">
<title>Node7</title>
<g id="a_node4"><a xlink:href="classDomestico.html" target="_top" xlink:title="Umas das definições de categoria para Animal. ">
<polygon fill="#ffffff" stroke="#000000" points="103,-172.5 103,-328.5 258,-328.5 258,-172.5 103,-172.5"/>
<text text-anchor="middle" x="180.5" y="-308.5" font-family="Helvetica,sans-Serif" font-size="20.00" fill="#000000">Domestico</text>
<polyline fill="none" stroke="#000000" points="103,-298.5 258,-298.5 "/>
<text text-anchor="middle" x="180.5" y="-278.5" font-family="Helvetica,sans-Serif" font-size="20.00" fill="#000000"> </text>
<polyline fill="none" stroke="#000000" points="103,-268.5 258,-268.5 "/>
<text text-anchor="start" x="111" y="-248.5" font-family="Helvetica,sans-Serif" font-size="20.00" fill="#000000">+ Domestico()</text>
<text text-anchor="start" x="111" y="-226.5" font-family="Helvetica,sans-Serif" font-size="20.00" fill="#000000">+ Domestico()</text>
<text text-anchor="start" x="111" y="-204.5" font-family="Helvetica,sans-Serif" font-size="20.00" fill="#000000">+ ~Domestico()</text>
<text text-anchor="start" x="111" y="-182.5" font-family="Helvetica,sans-Serif" font-size="20.00" fill="#000000">+ getAdestrado()</text>
</a>
</g>
</g>
<!-- Node6&#45;&gt;Node7 -->
<g id="edge14" class="edge">
<title>Node6&#45;&gt;Node7</title>
<path fill="none" stroke="#404040" d="M139.919,-957.3926C139.1383,-872.2031 138.9015,-681.8438 149.5,-522 153.5184,-461.3948 161.2709,-393.5037 168.0175,-340.772"/>
<polygon fill="none" stroke="#404040" points="168.0349,-340.6369 164.8372,-334.1736 169.5735,-328.736 172.7712,-335.1993 168.0349,-340.6369"/>
<text text-anchor="middle" x="198" y="-683.5" font-family="Helvetica,sans-Serif" font-size="20.00" fill="#000000"> #adestrado</text>
</g>
<!-- Node8 -->
<g id="node5" class="node">
<title>Node8</title>
<g id="a_node5"><a xlink:href="classAnimal.html" target="_top" xlink:title="Implementação base para o cadastro de animais. ">
<polygon fill="#ffffff" stroke="#000000" points="255.5,-522.5 255.5,-854.5 433.5,-854.5 433.5,-522.5 255.5,-522.5"/>
<text text-anchor="middle" x="344.5" y="-834.5" font-family="Helvetica,sans-Serif" font-size="20.00" fill="#000000">Animal</text>
<polyline fill="none" stroke="#000000" points="255.5,-824.5 433.5,-824.5 "/>
<text text-anchor="middle" x="344.5" y="-804.5" font-family="Helvetica,sans-Serif" font-size="20.00" fill="#000000"> </text>
<polyline fill="none" stroke="#000000" points="255.5,-794.5 433.5,-794.5 "/>
<text text-anchor="start" x="263.5" y="-774.5" font-family="Helvetica,sans-Serif" font-size="20.00" fill="#000000">+ Animal()</text>
<text text-anchor="start" x="263.5" y="-752.5" font-family="Helvetica,sans-Serif" font-size="20.00" fill="#000000">+ Animal()</text>
<text text-anchor="start" x="263.5" y="-730.5" font-family="Helvetica,sans-Serif" font-size="20.00" fill="#000000">+ ~Animal()</text>
<text text-anchor="start" x="263.5" y="-708.5" font-family="Helvetica,sans-Serif" font-size="20.00" fill="#000000">+ getNome()</text>
<text text-anchor="start" x="263.5" y="-686.5" font-family="Helvetica,sans-Serif" font-size="20.00" fill="#000000">+ getEspecie()</text>
<text text-anchor="start" x="263.5" y="-664.5" font-family="Helvetica,sans-Serif" font-size="20.00" fill="#000000">+ getVeterinario()</text>
<text text-anchor="start" x="263.5" y="-642.5" font-family="Helvetica,sans-Serif" font-size="20.00" fill="#000000">+ getTratador()</text>
<text text-anchor="start" x="263.5" y="-620.5" font-family="Helvetica,sans-Serif" font-size="20.00" fill="#000000">+ getPerigoso()</text>
<text text-anchor="start" x="263.5" y="-598.5" font-family="Helvetica,sans-Serif" font-size="20.00" fill="#000000">+ getClassificacao()</text>
<text text-anchor="start" x="263.5" y="-576.5" font-family="Helvetica,sans-Serif" font-size="20.00" fill="#000000">+ getClasse()</text>
<text text-anchor="start" x="263.5" y="-554.5" font-family="Helvetica,sans-Serif" font-size="20.00" fill="#000000">+ printOutDados()</text>
<text text-anchor="start" x="263.5" y="-532.5" font-family="Helvetica,sans-Serif" font-size="20.00" fill="#000000">+ operator==()</text>
</a>
</g>
</g>
<!-- Node6&#45;&gt;Node8 -->
<g id="edge9" class="edge">
<title>Node6&#45;&gt;Node8</title>
<path fill="none" stroke="#404040" d="M141.3422,-957.3484C144.252,-929.5335 152.5381,-895.0875 174.5,-873 196.2404,-851.1352 216.7616,-873.4046 241.5,-855 242.9914,-853.8905 244.466,-852.7523 245.924,-851.5874"/>
<polygon fill="none" stroke="#404040" points="246.2031,-851.3476 248.1472,-844.4034 255.3049,-843.5271 253.3608,-850.4713 246.2031,-851.3476"/>
<text text-anchor="middle" x="217.5" y="-879" font-family="Helvetica,sans-Serif" font-size="20.00" fill="#000000"> #perigoso</text>
</g>
<!-- Node7&#45;&gt;Node4 -->
<g id="edge3" class="edge">
<title>Node7&#45;&gt;Node4</title>
<path fill="none" stroke="#191970" d="M135.6621,-163.2091C130.7416,-153.6299 125.7895,-143.9891 121.022,-134.7077"/>
<polygon fill="none" stroke="#191970" points="132.6804,-165.0648 140.3629,-172.3607 138.907,-161.8664 132.6804,-165.0648"/>
</g>
<!-- Node8&#45;&gt;Node7 -->
<g id="edge4" class="edge">
<title>Node8&#45;&gt;Node7</title>
<path fill="none" stroke="#191970" d="M278.7445,-512.8848C254.7833,-448.8906 228.8942,-379.7478 209.7102,-328.5127"/>
<polygon fill="none" stroke="#191970" points="275.4804,-514.1487 282.2648,-522.2864 282.0359,-511.6941 275.4804,-514.1487"/>
</g>
<!-- Node9 -->
<g id="node6" class="node">
<title>Node9</title>
<g id="a_node6"><a xlink:href="classTratador.html" target="_top" xlink:title="Implementação dos tratadores. ">
<polygon fill="#ffffff" stroke="#000000" points="302.5,-913.5 302.5,-1091.5 466.5,-1091.5 466.5,-913.5 302.5,-913.5"/>
<text text-anchor="middle" x="384.5" y="-1071.5" font-family="Helvetica,sans-Serif" font-size="20.00" fill="#000000">Tratador</text>
<polyline fill="none" stroke="#000000" points="302.5,-1061.5 466.5,-1061.5 "/>
<text text-anchor="middle" x="384.5" y="-1041.5" font-family="Helvetica,sans-Serif" font-size="20.00" fill="#000000"> </text>
<polyline fill="none" stroke="#000000" points="302.5,-1031.5 466.5,-1031.5 "/>
<text text-anchor="start" x="310.5" y="-1011.5" font-family="Helvetica,sans-Serif" font-size="20.00" fill="#000000">+ Tratador()</text>
<text text-anchor="start" x="310.5" y="-989.5" font-family="Helvetica,sans-Serif" font-size="20.00" fill="#000000">+ Tratador()</text>
<text text-anchor="start" x="310.5" y="-967.5" font-family="Helvetica,sans-Serif" font-size="20.00" fill="#000000">+ ~Tratador()</text>
<text text-anchor="start" x="310.5" y="-945.5" font-family="Helvetica,sans-Serif" font-size="20.00" fill="#000000">+ getUniforme()</text>
<text text-anchor="start" x="310.5" y="-923.5" font-family="Helvetica,sans-Serif" font-size="20.00" fill="#000000">+ printOutDados()</text>
</a>
</g>
</g>
<!-- Node9&#45;&gt;Node8 -->
<g id="edge5" class="edge">
<title>Node9&#45;&gt;Node8</title>
<path fill="none" stroke="#404040" d="M373.1446,-913.3601C371.2672,-898.6228 369.264,-882.8976 367.2223,-866.8697"/>
<polygon fill="none" stroke="#404040" points="367.1713,-866.4692 362.4451,-861.0228 365.6548,-854.5654 370.381,-860.0118 367.1713,-866.4692"/>
<text text-anchor="middle" x="411" y="-879" font-family="Helvetica,sans-Serif" font-size="20.00" fill="#000000"> #tratador</text>
</g>
<!-- Node10 -->
<g id="node7" class="node">
<title>Node10</title>
<g id="a_node7"><a xlink:href="classPessoa.html" target="_top" xlink:title="Classe base dos funcionarios. ">
<polygon fill="#ffffff" stroke="#000000" points="425.5,-1172.5 425.5,-1416.5 589.5,-1416.5 589.5,-1172.5 425.5,-1172.5"/>
<text text-anchor="middle" x="507.5" y="-1396.5" font-family="Helvetica,sans-Serif" font-size="20.00" fill="#000000">Pessoa</text>
<polyline fill="none" stroke="#000000" points="425.5,-1386.5 589.5,-1386.5 "/>
<text text-anchor="middle" x="507.5" y="-1366.5" font-family="Helvetica,sans-Serif" font-size="20.00" fill="#000000"> </text>
<polyline fill="none" stroke="#000000" points="425.5,-1356.5 589.5,-1356.5 "/>
<text text-anchor="start" x="433.5" y="-1336.5" font-family="Helvetica,sans-Serif" font-size="20.00" fill="#000000">+ Pessoa()</text>
<text text-anchor="start" x="433.5" y="-1314.5" font-family="Helvetica,sans-Serif" font-size="20.00" fill="#000000">+ Pessoa()</text>
<text text-anchor="start" x="433.5" y="-1292.5" font-family="Helvetica,sans-Serif" font-size="20.00" fill="#000000">+ ~Pessoa()</text>
<text text-anchor="start" x="433.5" y="-1270.5" font-family="Helvetica,sans-Serif" font-size="20.00" fill="#000000">+ getNome()</text>
<text text-anchor="start" x="433.5" y="-1248.5" font-family="Helvetica,sans-Serif" font-size="20.00" fill="#000000">+ getTelefone()</text>
<text text-anchor="start" x="433.5" y="-1226.5" font-family="Helvetica,sans-Serif" font-size="20.00" fill="#000000">+ getEmail()</text>
<text text-anchor="start" x="433.5" y="-1204.5" font-family="Helvetica,sans-Serif" font-size="20.00" fill="#000000">+ printOutDados()</text>
<text text-anchor="start" x="433.5" y="-1182.5" font-family="Helvetica,sans-Serif" font-size="20.00" fill="#000000">+ operator==()</text>
</a>
</g>
</g>
<!-- Node10&#45;&gt;Node9 -->
<g id="edge6" class="edge">
<title>Node10&#45;&gt;Node9</title>
<path fill="none" stroke="#191970" d="M483.6359,-1162.0839C478.4032,-1144.1825 472.0911,-1126.3628 464.5,-1110 461.6608,-1103.88 458.4382,-1097.767 454.9555,-1091.738"/>
<polygon fill="none" stroke="#191970" points="480.3561,-1163.3501 486.4332,-1172.0288 487.0946,-1161.4546 480.3561,-1163.3501"/>
</g>
<!-- Node13 -->
<g id="node10" class="node">
<title>Node13</title>
<g id="a_node10"><a xlink:href="classVeterinario.html" target="_top" xlink:title="Implementação dos veterinarios. ">
<polygon fill="#ffffff" stroke="#000000" points="484.5,-913.5 484.5,-1091.5 648.5,-1091.5 648.5,-913.5 484.5,-913.5"/>
<text text-anchor="middle" x="566.5" y="-1071.5" font-family="Helvetica,sans-Serif" font-size="20.00" fill="#000000">Veterinario</text>
<polyline fill="none" stroke="#000000" points="484.5,-1061.5 648.5,-1061.5 "/>
<text text-anchor="middle" x="566.5" y="-1041.5" font-family="Helvetica,sans-Serif" font-size="20.00" fill="#000000"> </text>
<polyline fill="none" stroke="#000000" points="484.5,-1031.5 648.5,-1031.5 "/>
<text text-anchor="start" x="492.5" y="-1011.5" font-family="Helvetica,sans-Serif" font-size="20.00" fill="#000000">+ Veterinario()</text>
<text text-anchor="start" x="492.5" y="-989.5" font-family="Helvetica,sans-Serif" font-size="20.00" fill="#000000">+ Veterinario()</text>
<text text-anchor="start" x="492.5" y="-967.5" font-family="Helvetica,sans-Serif" font-size="20.00" fill="#000000">+ ~Veterinario()</text>
<text text-anchor="start" x="492.5" y="-945.5" font-family="Helvetica,sans-Serif" font-size="20.00" fill="#000000">+ getCRMV()</text>
<text text-anchor="start" x="492.5" y="-923.5" font-family="Helvetica,sans-Serif" font-size="20.00" fill="#000000">+ printOutDados()</text>
</a>
</g>
</g>
<!-- Node10&#45;&gt;Node13 -->
<g id="edge12" class="edge">
<title>Node10&#45;&gt;Node13</title>
<path fill="none" stroke="#191970" d="M534.1726,-1162.4932C539.0122,-1138.5414 543.9542,-1114.0826 548.4712,-1091.7273"/>
<polygon fill="none" stroke="#191970" points="530.7294,-1161.8625 532.1795,-1172.3576 537.5907,-1163.2489 530.7294,-1161.8625"/>
</g>
<!-- Node11 -->
<g id="node8" class="node">
<title>Node11</title>
<polygon fill="#ffffff" stroke="#bfbfbf" points="475.5,-1519.5 475.5,-1609.5 539.5,-1609.5 539.5,-1519.5 475.5,-1519.5"/>
<text text-anchor="middle" x="507.5" y="-1589.5" font-family="Helvetica,sans-Serif" font-size="20.00" fill="#000000">string</text>
<polyline fill="none" stroke="#bfbfbf" points="475.5,-1579.5 539.5,-1579.5 "/>
<text text-anchor="middle" x="507.5" y="-1559.5" font-family="Helvetica,sans-Serif" font-size="20.00" fill="#000000"> </text>
<polyline fill="none" stroke="#bfbfbf" points="475.5,-1549.5 539.5,-1549.5 "/>
<text text-anchor="middle" x="507.5" y="-1529.5" font-family="Helvetica,sans-Serif" font-size="20.00" fill="#000000"> </text>
</g>
<!-- Node11&#45;&gt;Node8 -->
<g id="edge10" class="edge">
<title>Node11&#45;&gt;Node8</title>
<path fill="none" stroke="#404040" d="M475.477,-1551.6668C428.8793,-1531.0773 343.8773,-1485.8521 306.5,-1417 214.4123,-1247.3671 245.4377,-1021.5158 285.6278,-866.5041"/>
<polygon fill="none" stroke="#404040" points="285.7242,-866.1384 283.3872,-859.3165 288.7856,-854.5354 291.1225,-861.3574 285.7242,-866.1384"/>
<text text-anchor="middle" x="286.5" y="-1138" font-family="Helvetica,sans-Serif" font-size="20.00" fill="#000000"> #especie</text>
<text text-anchor="middle" x="286.5" y="-1116" font-family="Helvetica,sans-Serif" font-size="20.00" fill="#000000">#nome</text>
</g>
<!-- Node11&#45;&gt;Node10 -->
<g id="edge7" class="edge">
<title>Node11&#45;&gt;Node10</title>
<path fill="none" stroke="#404040" d="M507.5,-1519.3081C507.5,-1494.172 507.5,-1461.4339 507.5,-1428.7541"/>
<polygon fill="none" stroke="#404040" points="507.5001,-1428.731 503.5,-1422.731 507.5,-1416.731 511.5,-1422.7309 507.5001,-1428.731"/>
<text text-anchor="middle" x="546" y="-1485" font-family="Helvetica,sans-Serif" font-size="20.00" fill="#000000"> #email</text>
<text text-anchor="middle" x="546" y="-1463" font-family="Helvetica,sans-Serif" font-size="20.00" fill="#000000">#nome</text>
<text text-anchor="middle" x="546" y="-1441" font-family="Helvetica,sans-Serif" font-size="20.00" fill="#000000">#telefone</text>
</g>
<!-- Node11&#45;&gt;Node13 -->
<g id="edge13" class="edge">
<title>Node11&#45;&gt;Node13</title>
<path fill="none" stroke="#404040" d="M539.5929,-1547.7025C557.0405,-1536.8117 577.2905,-1520.9367 588.5,-1501 606.9263,-1468.228 596.2739,-1454.531 598.5,-1417 604.9473,-1308.3022 608.6443,-1280.4153 598.5,-1172 596.4189,-1149.7586 592.8337,-1126.0876 588.7976,-1103.7084"/>
<polygon fill="none" stroke="#404040" points="588.7741,-1103.5817 583.7462,-1098.4125 586.5839,-1091.7832 591.6118,-1096.9524 588.7741,-1103.5817"/>
<text text-anchor="middle" x="637.5" y="-1289.5" font-family="Helvetica,sans-Serif" font-size="20.00" fill="#000000"> &#45;CRMV</text>
</g>
<!-- Node12 -->
<g id="node9" class="node">
<title>Node12</title>
<polygon fill="#ffffff" stroke="#bfbfbf" points="315.5,-1249.5 315.5,-1339.5 407.5,-1339.5 407.5,-1249.5 315.5,-1249.5"/>
<text text-anchor="middle" x="361.5" y="-1319.5" font-family="Helvetica,sans-Serif" font-size="20.00" fill="#000000">Uniforme</text>
<polyline fill="none" stroke="#bfbfbf" points="315.5,-1309.5 407.5,-1309.5 "/>
<text text-anchor="middle" x="361.5" y="-1289.5" font-family="Helvetica,sans-Serif" font-size="20.00" fill="#000000"> </text>
<polyline fill="none" stroke="#bfbfbf" points="315.5,-1279.5 407.5,-1279.5 "/>
<text text-anchor="middle" x="361.5" y="-1259.5" font-family="Helvetica,sans-Serif" font-size="20.00" fill="#000000"> </text>
</g>
<!-- Node12&#45;&gt;Node9 -->
<g id="edge8" class="edge">
<title>Node12&#45;&gt;Node9</title>
<path fill="none" stroke="#404040" d="M365.0685,-1249.1954C368.1167,-1210.4965 372.6145,-1153.3947 376.5152,-1103.872"/>
<polygon fill="none" stroke="#404040" points="376.5244,-1103.7543 373.0079,-1097.4587 377.4668,-1091.7914 380.9832,-1098.087 376.5244,-1103.7543"/>
<text text-anchor="middle" x="418.5" y="-1127" font-family="Helvetica,sans-Serif" font-size="20.00" fill="#000000"> &#45;uniforme</text>
</g>
<!-- Node13&#45;&gt;Node8 -->
<g id="edge11" class="edge">
<title>Node13&#45;&gt;Node8</title>
<path fill="none" stroke="#404040" d="M503.4775,-913.3601C483.9562,-885.7489 461.9833,-854.6701 440.7442,-824.6292"/>
<polygon fill="none" stroke="#404040" points="440.5017,-824.2862 433.7718,-821.6962 433.5741,-814.4878 440.3041,-817.0778 440.5017,-824.2862"/>
<text text-anchor="middle" x="539" y="-879" font-family="Helvetica,sans-Serif" font-size="20.00" fill="#000000"> #veterinario</text>
</g>
</g>
</svg>
