<?xml version="1.0" encoding="UTF-8" standalone="no"?>
<!DOCTYPE svg PUBLIC "-//W3C//DTD SVG 1.1//EN"
 "http://www.w3.org/Graphics/SVG/1.1/DTD/svg11.dtd">
<!-- Generated by graphviz version 2.40.1 (20161225.0304)
 -->
<!-- Title: Mamifero Pages: 1 -->
<svg width="639pt" height="292pt"
 viewBox="0.00 0.00 638.50 292.00" xmlns="http://www.w3.org/2000/svg" xmlns:xlink="http://www.w3.org/1999/xlink">
<g id="graph0" class="graph" transform="scale(1 1) rotate(0) translate(4 288)">
<title>Mamifero</title>
<polygon fill="#ffffff" stroke="transparent" points="-4,4 -4,-288 634.5,-288 634.5,4 -4,4"/>
<!-- Node0 -->
<g id="node1" class="node">
<title>Node0</title>
<polygon fill="#bfbfbf" stroke="#000000" points="258.5,-149.5 258.5,-283.5 405.5,-283.5 405.5,-149.5 258.5,-149.5"/>
<text text-anchor="middle" x="332" y="-263.5" font-family="Helvetica,sans-Serif" font-size="20.00" fill="#000000">Mamifero</text>
<polyline fill="none" stroke="#000000" points="258.5,-253.5 405.5,-253.5 "/>
<text text-anchor="start" x="266.5" y="-233.5" font-family="Helvetica,sans-Serif" font-size="20.00" fill="#000000"># gestacao</text>
<polyline fill="none" stroke="#000000" points="258.5,-223.5 405.5,-223.5 "/>
<text text-anchor="start" x="266.5" y="-203.5" font-family="Helvetica,sans-Serif" font-size="20.00" fill="#000000">+ Mamifero()</text>
<text text-anchor="start" x="266.5" y="-181.5" font-family="Helvetica,sans-Serif" font-size="20.00" fill="#000000">+ ~Mamifero()</text>
<text text-anchor="start" x="266.5" y="-159.5" font-family="Helvetica,sans-Serif" font-size="20.00" fill="#000000">+ getGestacao()</text>
</g>
<!-- Node1 -->
<g id="node2" class="node">
<title>Node1</title>
<g id="a_node2"><a xlink:href="classMamiferoDomestico.html" target="_top" xlink:title="Implementação de animal com Classe e Categoria. ">
<polygon fill="#ffffff" stroke="#000000" points="0,-.5 0,-112.5 218,-112.5 218,-.5 0,-.5"/>
<text text-anchor="middle" x="109" y="-92.5" font-family="Helvetica,sans-Serif" font-size="20.00" fill="#000000">MamiferoDomestico</text>
<polyline fill="none" stroke="#000000" points="0,-82.5 218,-82.5 "/>
<text text-anchor="middle" x="109" y="-62.5" font-family="Helvetica,sans-Serif" font-size="20.00" fill="#000000"> </text>
<polyline fill="none" stroke="#000000" points="0,-52.5 218,-52.5 "/>
<text text-anchor="start" x="8" y="-32.5" font-family="Helvetica,sans-Serif" font-size="20.00" fill="#000000">+ MamiferoDomestico()</text>
<text text-anchor="start" x="8" y="-10.5" font-family="Helvetica,sans-Serif" font-size="20.00" fill="#000000">+ ~MamiferoDomestico()</text>
</a>
</g>
</g>
<!-- Node0&#45;&gt;Node1 -->
<g id="edge1" class="edge">
<title>Node0&#45;&gt;Node1</title>
<path fill="none" stroke="#191970" d="M249.9699,-157.6443C229.4458,-142.9185 207.4865,-127.163 187.1561,-112.5761"/>
<polygon fill="none" stroke="#191970" points="248.198,-160.6807 258.3634,-163.6666 252.2788,-154.9932 248.198,-160.6807"/>
</g>
<!-- Node2 -->
<g id="node3" class="node">
<title>Node2</title>
<g id="a_node3"><a xlink:href="classMamiferoExotico.html" target="_top" xlink:title="Implementação de animal com Classe e Categoria. ">
<polygon fill="#ffffff" stroke="#000000" points="236.5,-.5 236.5,-112.5 427.5,-112.5 427.5,-.5 236.5,-.5"/>
<text text-anchor="middle" x="332" y="-92.5" font-family="Helvetica,sans-Serif" font-size="20.00" fill="#000000">MamiferoExotico</text>
<polyline fill="none" stroke="#000000" points="236.5,-82.5 427.5,-82.5 "/>
<text text-anchor="middle" x="332" y="-62.5" font-family="Helvetica,sans-Serif" font-size="20.00" fill="#000000"> </text>
<polyline fill="none" stroke="#000000" points="236.5,-52.5 427.5,-52.5 "/>
<text text-anchor="start" x="244.5" y="-32.5" font-family="Helvetica,sans-Serif" font-size="20.00" fill="#000000">+ MamiferoExotico()</text>
<text text-anchor="start" x="244.5" y="-10.5" font-family="Helvetica,sans-Serif" font-size="20.00" fill="#000000">+ ~MamiferoExotico()</text>
</a>
</g>
</g>
<!-- Node0&#45;&gt;Node2 -->
<g id="edge2" class="edge">
<title>Node0&#45;&gt;Node2</title>
<path fill="none" stroke="#191970" d="M332,-139.0957C332,-130.1895 332,-121.2403 332,-112.6903"/>
<polygon fill="none" stroke="#191970" points="328.5001,-139.1093 332,-149.1093 335.5001,-139.1094 328.5001,-139.1093"/>
</g>
<!-- Node3 -->
<g id="node4" class="node">
<title>Node3</title>
<g id="a_node4"><a xlink:href="classMamiferoNativo.html" target="_top" xlink:title="Implementação de animal com Classe e Categoria. ">
<polygon fill="#ffffff" stroke="#000000" points="445.5,-.5 445.5,-112.5 630.5,-112.5 630.5,-.5 445.5,-.5"/>
<text text-anchor="middle" x="538" y="-92.5" font-family="Helvetica,sans-Serif" font-size="20.00" fill="#000000">MamiferoNativo</text>
<polyline fill="none" stroke="#000000" points="445.5,-82.5 630.5,-82.5 "/>
<text text-anchor="middle" x="538" y="-62.5" font-family="Helvetica,sans-Serif" font-size="20.00" fill="#000000"> </text>
<polyline fill="none" stroke="#000000" points="445.5,-52.5 630.5,-52.5 "/>
<text text-anchor="start" x="453.5" y="-32.5" font-family="Helvetica,sans-Serif" font-size="20.00" fill="#000000">+ MamiferoNativo()</text>
<text text-anchor="start" x="453.5" y="-10.5" font-family="Helvetica,sans-Serif" font-size="20.00" fill="#000000">+ ~MamiferoNativo()</text>
</a>
</g>
</g>
<!-- Node0&#45;&gt;Node3 -->
<g id="edge3" class="edge">
<title>Node0&#45;&gt;Node3</title>
<path fill="none" stroke="#191970" d="M414.1017,-152.7317C431.184,-139.4639 449.0669,-125.5743 465.7624,-112.6069"/>
<polygon fill="none" stroke="#191970" points="411.5396,-150.2899 405.7889,-159.1883 415.8335,-155.8183 411.5396,-150.2899"/>
</g>
</g>
</svg>
