<?xml version="1.0" encoding="UTF-8" standalone="no"?>
<!DOCTYPE svg PUBLIC "-//W3C//DTD SVG 1.1//EN"
 "http://www.w3.org/Graphics/SVG/1.1/DTD/svg11.dtd">
<!-- Generated by graphviz version 2.40.1 (20161225.0304)
 -->
<!-- Title: Nativo Pages: 1 -->
<svg width="663pt" height="1290pt"
 viewBox="0.00 0.00 663.00 1290.00" xmlns="http://www.w3.org/2000/svg" xmlns:xlink="http://www.w3.org/1999/xlink">
<g id="graph0" class="graph" transform="scale(1 1) rotate(0) translate(4 1286)">
<title>Nativo</title>
<polygon fill="#ffffff" stroke="transparent" points="-4,4 -4,-1286 659,-1286 659,4 -4,4"/>
<!-- Node6 -->
<g id="node1" class="node">
<title>Node6</title>
<polygon fill="#bfbfbf" stroke="#000000" points="26.5,-.5 26.5,-156.5 153.5,-156.5 153.5,-.5 26.5,-.5"/>
<text text-anchor="middle" x="90" y="-136.5" font-family="Helvetica,sans-Serif" font-size="20.00" fill="#000000">Nativo</text>
<polyline fill="none" stroke="#000000" points="26.5,-126.5 153.5,-126.5 "/>
<text text-anchor="middle" x="90" y="-106.5" font-family="Helvetica,sans-Serif" font-size="20.00" fill="#000000"> </text>
<polyline fill="none" stroke="#000000" points="26.5,-96.5 153.5,-96.5 "/>
<text text-anchor="start" x="34.5" y="-76.5" font-family="Helvetica,sans-Serif" font-size="20.00" fill="#000000">+ Nativo()</text>
<text text-anchor="start" x="34.5" y="-54.5" font-family="Helvetica,sans-Serif" font-size="20.00" fill="#000000">+ Nativo()</text>
<text text-anchor="start" x="34.5" y="-32.5" font-family="Helvetica,sans-Serif" font-size="20.00" fill="#000000">+ ~Nativo()</text>
<text text-anchor="start" x="34.5" y="-10.5" font-family="Helvetica,sans-Serif" font-size="20.00" fill="#000000">+ getRegiao()</text>
</g>
<!-- Node7 -->
<g id="node2" class="node">
<title>Node7</title>
<g id="a_node2"><a xlink:href="classAnimal.html" target="_top" xlink:title="Implementação base para o cadastro de animais. ">
<polygon fill="#ffffff" stroke="#000000" points="247,-194.5 247,-526.5 425,-526.5 425,-194.5 247,-194.5"/>
<text text-anchor="middle" x="336" y="-506.5" font-family="Helvetica,sans-Serif" font-size="20.00" fill="#000000">Animal</text>
<polyline fill="none" stroke="#000000" points="247,-496.5 425,-496.5 "/>
<text text-anchor="middle" x="336" y="-476.5" font-family="Helvetica,sans-Serif" font-size="20.00" fill="#000000"> </text>
<polyline fill="none" stroke="#000000" points="247,-466.5 425,-466.5 "/>
<text text-anchor="start" x="255" y="-446.5" font-family="Helvetica,sans-Serif" font-size="20.00" fill="#000000">+ Animal()</text>
<text text-anchor="start" x="255" y="-424.5" font-family="Helvetica,sans-Serif" font-size="20.00" fill="#000000">+ Animal()</text>
<text text-anchor="start" x="255" y="-402.5" font-family="Helvetica,sans-Serif" font-size="20.00" fill="#000000">+ ~Animal()</text>
<text text-anchor="start" x="255" y="-380.5" font-family="Helvetica,sans-Serif" font-size="20.00" fill="#000000">+ getNome()</text>
<text text-anchor="start" x="255" y="-358.5" font-family="Helvetica,sans-Serif" font-size="20.00" fill="#000000">+ getEspecie()</text>
<text text-anchor="start" x="255" y="-336.5" font-family="Helvetica,sans-Serif" font-size="20.00" fill="#000000">+ getVeterinario()</text>
<text text-anchor="start" x="255" y="-314.5" font-family="Helvetica,sans-Serif" font-size="20.00" fill="#000000">+ getTratador()</text>
<text text-anchor="start" x="255" y="-292.5" font-family="Helvetica,sans-Serif" font-size="20.00" fill="#000000">+ getPerigoso()</text>
<text text-anchor="start" x="255" y="-270.5" font-family="Helvetica,sans-Serif" font-size="20.00" fill="#000000">+ getClassificacao()</text>
<text text-anchor="start" x="255" y="-248.5" font-family="Helvetica,sans-Serif" font-size="20.00" fill="#000000">+ getClasse()</text>
<text text-anchor="start" x="255" y="-226.5" font-family="Helvetica,sans-Serif" font-size="20.00" fill="#000000">+ printOutDados()</text>
<text text-anchor="start" x="255" y="-204.5" font-family="Helvetica,sans-Serif" font-size="20.00" fill="#000000">+ operator==()</text>
</a>
</g>
</g>
<!-- Node7&#45;&gt;Node6 -->
<g id="edge1" class="edge">
<title>Node7&#45;&gt;Node6</title>
<path fill="none" stroke="#191970" d="M239.9354,-250.3772C211.0428,-217.2564 180.0651,-181.7453 153.8111,-151.6494"/>
<polygon fill="none" stroke="#191970" points="237.6293,-253.0579 246.8405,-258.2928 242.9043,-248.4563 237.6293,-253.0579"/>
</g>
<!-- Node8 -->
<g id="node3" class="node">
<title>Node8</title>
<g id="a_node3"><a xlink:href="classTratador.html" target="_top" xlink:title="Implementação dos tratadores. ">
<polygon fill="#ffffff" stroke="#000000" points="267,-585.5 267,-763.5 431,-763.5 431,-585.5 267,-585.5"/>
<text text-anchor="middle" x="349" y="-743.5" font-family="Helvetica,sans-Serif" font-size="20.00" fill="#000000">Tratador</text>
<polyline fill="none" stroke="#000000" points="267,-733.5 431,-733.5 "/>
<text text-anchor="middle" x="349" y="-713.5" font-family="Helvetica,sans-Serif" font-size="20.00" fill="#000000"> </text>
<polyline fill="none" stroke="#000000" points="267,-703.5 431,-703.5 "/>
<text text-anchor="start" x="275" y="-683.5" font-family="Helvetica,sans-Serif" font-size="20.00" fill="#000000">+ Tratador()</text>
<text text-anchor="start" x="275" y="-661.5" font-family="Helvetica,sans-Serif" font-size="20.00" fill="#000000">+ Tratador()</text>
<text text-anchor="start" x="275" y="-639.5" font-family="Helvetica,sans-Serif" font-size="20.00" fill="#000000">+ ~Tratador()</text>
<text text-anchor="start" x="275" y="-617.5" font-family="Helvetica,sans-Serif" font-size="20.00" fill="#000000">+ getUniforme()</text>
<text text-anchor="start" x="275" y="-595.5" font-family="Helvetica,sans-Serif" font-size="20.00" fill="#000000">+ printOutDados()</text>
</a>
</g>
</g>
<!-- Node8&#45;&gt;Node7 -->
<g id="edge2" class="edge">
<title>Node8&#45;&gt;Node7</title>
<path fill="none" stroke="#404040" d="M338.3158,-585.3986C337.7972,-579.1783 337.3484,-572.9992 337,-567 336.4629,-557.7517 336.0241,-548.2665 335.6692,-538.6865"/>
<polygon fill="none" stroke="#404040" points="335.6632,-538.5051 331.4655,-532.6417 335.2633,-526.5118 339.4611,-532.3752 335.6632,-538.5051"/>
<text text-anchor="middle" x="377.5" y="-551" font-family="Helvetica,sans-Serif" font-size="20.00" fill="#000000"> #tratador</text>
</g>
<!-- Node9 -->
<g id="node4" class="node">
<title>Node9</title>
<g id="a_node4"><a xlink:href="classPessoa.html" target="_top" xlink:title="Classe base dos funcionarios. ">
<polygon fill="#ffffff" stroke="#000000" points="162,-844.5 162,-1088.5 326,-1088.5 326,-844.5 162,-844.5"/>
<text text-anchor="middle" x="244" y="-1068.5" font-family="Helvetica,sans-Serif" font-size="20.00" fill="#000000">Pessoa</text>
<polyline fill="none" stroke="#000000" points="162,-1058.5 326,-1058.5 "/>
<text text-anchor="middle" x="244" y="-1038.5" font-family="Helvetica,sans-Serif" font-size="20.00" fill="#000000"> </text>
<polyline fill="none" stroke="#000000" points="162,-1028.5 326,-1028.5 "/>
<text text-anchor="start" x="170" y="-1008.5" font-family="Helvetica,sans-Serif" font-size="20.00" fill="#000000">+ Pessoa()</text>
<text text-anchor="start" x="170" y="-986.5" font-family="Helvetica,sans-Serif" font-size="20.00" fill="#000000">+ Pessoa()</text>
<text text-anchor="start" x="170" y="-964.5" font-family="Helvetica,sans-Serif" font-size="20.00" fill="#000000">+ ~Pessoa()</text>
<text text-anchor="start" x="170" y="-942.5" font-family="Helvetica,sans-Serif" font-size="20.00" fill="#000000">+ getNome()</text>
<text text-anchor="start" x="170" y="-920.5" font-family="Helvetica,sans-Serif" font-size="20.00" fill="#000000">+ getTelefone()</text>
<text text-anchor="start" x="170" y="-898.5" font-family="Helvetica,sans-Serif" font-size="20.00" fill="#000000">+ getEmail()</text>
<text text-anchor="start" x="170" y="-876.5" font-family="Helvetica,sans-Serif" font-size="20.00" fill="#000000">+ printOutDados()</text>
<text text-anchor="start" x="170" y="-854.5" font-family="Helvetica,sans-Serif" font-size="20.00" fill="#000000">+ operator==()</text>
</a>
</g>
</g>
<!-- Node9&#45;&gt;Node8 -->
<g id="edge3" class="edge">
<title>Node9&#45;&gt;Node8</title>
<path fill="none" stroke="#191970" d="M291.3534,-834.8126C300.0028,-810.7589 308.8404,-786.182 316.9148,-763.7273"/>
<polygon fill="none" stroke="#191970" points="288.0114,-833.7632 287.9211,-844.3576 294.5984,-836.1318 288.0114,-833.7632"/>
</g>
<!-- Node13 -->
<g id="node8" class="node">
<title>Node13</title>
<g id="a_node8"><a xlink:href="classVeterinario.html" target="_top" xlink:title="Implementação dos veterinarios. ">
<polygon fill="#ffffff" stroke="#000000" points="85,-585.5 85,-763.5 249,-763.5 249,-585.5 85,-585.5"/>
<text text-anchor="middle" x="167" y="-743.5" font-family="Helvetica,sans-Serif" font-size="20.00" fill="#000000">Veterinario</text>
<polyline fill="none" stroke="#000000" points="85,-733.5 249,-733.5 "/>
<text text-anchor="middle" x="167" y="-713.5" font-family="Helvetica,sans-Serif" font-size="20.00" fill="#000000"> </text>
<polyline fill="none" stroke="#000000" points="85,-703.5 249,-703.5 "/>
<text text-anchor="start" x="93" y="-683.5" font-family="Helvetica,sans-Serif" font-size="20.00" fill="#000000">+ Veterinario()</text>
<text text-anchor="start" x="93" y="-661.5" font-family="Helvetica,sans-Serif" font-size="20.00" fill="#000000">+ Veterinario()</text>
<text text-anchor="start" x="93" y="-639.5" font-family="Helvetica,sans-Serif" font-size="20.00" fill="#000000">+ ~Veterinario()</text>
<text text-anchor="start" x="93" y="-617.5" font-family="Helvetica,sans-Serif" font-size="20.00" fill="#000000">+ getCRMV()</text>
<text text-anchor="start" x="93" y="-595.5" font-family="Helvetica,sans-Serif" font-size="20.00" fill="#000000">+ printOutDados()</text>
</a>
</g>
</g>
<!-- Node9&#45;&gt;Node13 -->
<g id="edge9" class="edge">
<title>Node9&#45;&gt;Node13</title>
<path fill="none" stroke="#191970" d="M209.19,-834.4932C202.8739,-810.5414 196.4242,-786.0826 190.5291,-763.7273"/>
<polygon fill="none" stroke="#191970" points="205.857,-835.5806 211.7912,-844.3576 212.6256,-833.7957 205.857,-835.5806"/>
</g>
<!-- Node10 -->
<g id="node5" class="node">
<title>Node10</title>
<polygon fill="#ffffff" stroke="#bfbfbf" points="129,-1191.5 129,-1281.5 193,-1281.5 193,-1191.5 129,-1191.5"/>
<text text-anchor="middle" x="161" y="-1261.5" font-family="Helvetica,sans-Serif" font-size="20.00" fill="#000000">string</text>
<polyline fill="none" stroke="#bfbfbf" points="129,-1251.5 193,-1251.5 "/>
<text text-anchor="middle" x="161" y="-1231.5" font-family="Helvetica,sans-Serif" font-size="20.00" fill="#000000"> </text>
<polyline fill="none" stroke="#bfbfbf" points="129,-1221.5 193,-1221.5 "/>
<text text-anchor="middle" x="161" y="-1201.5" font-family="Helvetica,sans-Serif" font-size="20.00" fill="#000000"> </text>
</g>
<!-- Node10&#45;&gt;Node6 -->
<g id="edge11" class="edge">
<title>Node10&#45;&gt;Node6</title>
<path fill="none" stroke="#404040" d="M128.6883,-1213.1715C115.1108,-1202.1541 99.9596,-1188.1109 89,-1173 30.3242,-1092.0991 0,-1066.439 0,-966.5 0,-966.5 0,-966.5 0,-360.5 0,-293.8098 23.1264,-222.2691 45.9331,-167.9321"/>
<polygon fill="none" stroke="#404040" points="46.0598,-167.6361 44.7465,-160.5456 50.7865,-156.6062 52.0998,-163.6967 46.0598,-167.6361"/>
<text text-anchor="middle" x="33.5" y="-669.5" font-family="Helvetica,sans-Serif" font-size="20.00" fill="#000000"> #regiao</text>
</g>
<!-- Node10&#45;&gt;Node7 -->
<g id="edge7" class="edge">
<title>Node10&#45;&gt;Node7</title>
<path fill="none" stroke="#404040" d="M193.3569,-1229.4411C253.2018,-1214.6032 380.9036,-1174.269 445,-1089 591.7245,-893.8088 615.9031,-770.4104 522,-545 503.6158,-500.8696 468.9734,-461.8753 434.5222,-431.2388"/>
<polygon fill="none" stroke="#404040" points="434.361,-431.0988 427.2083,-430.1829 425.3027,-423.2281 432.4554,-424.144 434.361,-431.0988"/>
<text text-anchor="middle" x="616" y="-810" font-family="Helvetica,sans-Serif" font-size="20.00" fill="#000000"> #especie</text>
<text text-anchor="middle" x="616" y="-788" font-family="Helvetica,sans-Serif" font-size="20.00" fill="#000000">#nome</text>
</g>
<!-- Node10&#45;&gt;Node9 -->
<g id="edge4" class="edge">
<title>Node10&#45;&gt;Node9</title>
<path fill="none" stroke="#404040" d="M174.8923,-1191.3081C182.6532,-1166.0618 192.7716,-1133.1466 202.8615,-1100.3241"/>
<polygon fill="none" stroke="#404040" points="202.8992,-1100.2012 200.8388,-1093.2907 206.4253,-1088.731 208.4857,-1095.6415 202.8992,-1100.2012"/>
<text text-anchor="middle" x="239.5" y="-1157" font-family="Helvetica,sans-Serif" font-size="20.00" fill="#000000"> #email</text>
<text text-anchor="middle" x="239.5" y="-1135" font-family="Helvetica,sans-Serif" font-size="20.00" fill="#000000">#nome</text>
<text text-anchor="middle" x="239.5" y="-1113" font-family="Helvetica,sans-Serif" font-size="20.00" fill="#000000">#telefone</text>
</g>
<!-- Node10&#45;&gt;Node13 -->
<g id="edge10" class="edge">
<title>Node10&#45;&gt;Node13</title>
<path fill="none" stroke="#404040" d="M131.4858,-1191.4643C114.8223,-1163.289 95.6476,-1125.5212 87,-1089 61.9107,-983.041 63.1852,-950.2528 87,-844 92.2054,-820.7756 100.9668,-796.9856 110.8274,-774.849"/>
<polygon fill="none" stroke="#404040" points="110.9015,-774.6874 109.7691,-767.5658 115.9075,-763.7814 117.0398,-770.9031 110.9015,-774.6874"/>
<text text-anchor="middle" x="120" y="-961.5" font-family="Helvetica,sans-Serif" font-size="20.00" fill="#000000"> &#45;CRMV</text>
</g>
<!-- Node11 -->
<g id="node6" class="node">
<title>Node11</title>
<polygon fill="#ffffff" stroke="#bfbfbf" points="344,-921.5 344,-1011.5 436,-1011.5 436,-921.5 344,-921.5"/>
<text text-anchor="middle" x="390" y="-991.5" font-family="Helvetica,sans-Serif" font-size="20.00" fill="#000000">Uniforme</text>
<polyline fill="none" stroke="#bfbfbf" points="344,-981.5 436,-981.5 "/>
<text text-anchor="middle" x="390" y="-961.5" font-family="Helvetica,sans-Serif" font-size="20.00" fill="#000000"> </text>
<polyline fill="none" stroke="#bfbfbf" points="344,-951.5 436,-951.5 "/>
<text text-anchor="middle" x="390" y="-931.5" font-family="Helvetica,sans-Serif" font-size="20.00" fill="#000000"> </text>
</g>
<!-- Node11&#45;&gt;Node8 -->
<g id="edge5" class="edge">
<title>Node11&#45;&gt;Node8</title>
<path fill="none" stroke="#404040" d="M383.6387,-921.1954C378.205,-882.4965 370.1873,-825.3947 363.2337,-775.872"/>
<polygon fill="none" stroke="#404040" points="363.2061,-775.6748 358.4107,-770.2893 361.5375,-763.7914 366.333,-769.1769 363.2061,-775.6748"/>
<text text-anchor="middle" x="411" y="-799" font-family="Helvetica,sans-Serif" font-size="20.00" fill="#000000"> &#45;uniforme</text>
</g>
<!-- Node12 -->
<g id="node7" class="node">
<title>Node12</title>
<polygon fill="#ffffff" stroke="#bfbfbf" points="449.5,-629.5 449.5,-719.5 500.5,-719.5 500.5,-629.5 449.5,-629.5"/>
<text text-anchor="middle" x="475" y="-699.5" font-family="Helvetica,sans-Serif" font-size="20.00" fill="#000000">bool</text>
<polyline fill="none" stroke="#bfbfbf" points="449.5,-689.5 500.5,-689.5 "/>
<text text-anchor="middle" x="475" y="-669.5" font-family="Helvetica,sans-Serif" font-size="20.00" fill="#000000"> </text>
<polyline fill="none" stroke="#bfbfbf" points="449.5,-659.5 500.5,-659.5 "/>
<text text-anchor="middle" x="475" y="-639.5" font-family="Helvetica,sans-Serif" font-size="20.00" fill="#000000"> </text>
</g>
<!-- Node12&#45;&gt;Node7 -->
<g id="edge6" class="edge">
<title>Node12&#45;&gt;Node7</title>
<path fill="none" stroke="#404040" d="M457.9073,-629.2102C452.3735,-614.9853 446.0894,-599.2713 440,-585 433.4255,-569.5917 426.4404,-553.6677 419.3225,-537.7429"/>
<polygon fill="none" stroke="#404040" points="419.2908,-537.672 413.1846,-533.836 414.3769,-526.7242 420.4831,-530.5602 419.2908,-537.672"/>
<text text-anchor="middle" x="475" y="-551" font-family="Helvetica,sans-Serif" font-size="20.00" fill="#000000"> #perigoso</text>
</g>
<!-- Node13&#45;&gt;Node7 -->
<g id="edge8" class="edge">
<title>Node13&#45;&gt;Node7</title>
<path fill="none" stroke="#404040" d="M208.6045,-585.2185C215.2524,-571.6564 222.1885,-557.8933 229,-545 232.8796,-537.6565 236.9007,-530.1835 241.0088,-522.66"/>
<polygon fill="none" stroke="#404040" points="241.0889,-522.5143 240.4736,-515.3295 246.869,-511.9981 247.4844,-519.1829 241.0889,-522.5143"/>
<text text-anchor="middle" x="280.5" y="-551" font-family="Helvetica,sans-Serif" font-size="20.00" fill="#000000"> #veterinario</text>
</g>
</g>
</svg>
