<?xml version="1.0" encoding="UTF-8" standalone="no"?>
<!DOCTYPE svg PUBLIC "-//W3C//DTD SVG 1.1//EN"
 "http://www.w3.org/Graphics/SVG/1.1/DTD/svg11.dtd">
<!-- Generated by graphviz version 2.40.1 (20161225.0304)
 -->
<!-- Title: ReptilDomestico Pages: 1 -->
<svg width="720pt" height="1461pt"
 viewBox="0.00 0.00 720.00 1461.00" xmlns="http://www.w3.org/2000/svg" xmlns:xlink="http://www.w3.org/1999/xlink">
<g id="graph0" class="graph" transform="scale(1 1) rotate(0) translate(4 1457)">
<title>ReptilDomestico</title>
<polygon fill="#ffffff" stroke="transparent" points="-4,4 -4,-1457 716,-1457 716,4 -4,4"/>
<!-- Node4 -->
<g id="node1" class="node">
<title>Node4</title>
<polygon fill="#bfbfbf" stroke="#000000" points="33,-.5 33,-112.5 221,-112.5 221,-.5 33,-.5"/>
<text text-anchor="middle" x="127" y="-92.5" font-family="Helvetica,sans-Serif" font-size="20.00" fill="#000000">ReptilDomestico</text>
<polyline fill="none" stroke="#000000" points="33,-82.5 221,-82.5 "/>
<text text-anchor="middle" x="127" y="-62.5" font-family="Helvetica,sans-Serif" font-size="20.00" fill="#000000"> </text>
<polyline fill="none" stroke="#000000" points="33,-52.5 221,-52.5 "/>
<text text-anchor="start" x="41" y="-32.5" font-family="Helvetica,sans-Serif" font-size="20.00" fill="#000000">+ ReptilDomestico()</text>
<text text-anchor="start" x="41" y="-10.5" font-family="Helvetica,sans-Serif" font-size="20.00" fill="#000000">+ ~ReptilDomestico()</text>
</g>
<!-- Node5 -->
<g id="node2" class="node">
<title>Node5</title>
<g id="a_node2"><a xlink:href="classReptil.html" target="_top" xlink:title="Classificação base para Repteis. ">
<polygon fill="#ffffff" stroke="#000000" points="0,-150.5 0,-306.5 106,-306.5 106,-150.5 0,-150.5"/>
<text text-anchor="middle" x="53" y="-286.5" font-family="Helvetica,sans-Serif" font-size="20.00" fill="#000000">Reptil</text>
<polyline fill="none" stroke="#000000" points="0,-276.5 106,-276.5 "/>
<text text-anchor="middle" x="53" y="-256.5" font-family="Helvetica,sans-Serif" font-size="20.00" fill="#000000"> </text>
<polyline fill="none" stroke="#000000" points="0,-246.5 106,-246.5 "/>
<text text-anchor="start" x="8" y="-226.5" font-family="Helvetica,sans-Serif" font-size="20.00" fill="#000000">+ Reptil()</text>
<text text-anchor="start" x="8" y="-204.5" font-family="Helvetica,sans-Serif" font-size="20.00" fill="#000000">+ Reptil()</text>
<text text-anchor="start" x="8" y="-182.5" font-family="Helvetica,sans-Serif" font-size="20.00" fill="#000000">+ ~Reptil()</text>
<text text-anchor="start" x="8" y="-160.5" font-family="Helvetica,sans-Serif" font-size="20.00" fill="#000000">+ getPele()</text>
</a>
</g>
</g>
<!-- Node5&#45;&gt;Node4 -->
<g id="edge1" class="edge">
<title>Node5&#45;&gt;Node4</title>
<path fill="none" stroke="#191970" d="M90.6211,-141.0564C94.7732,-131.4055 98.915,-121.7787 102.837,-112.6626"/>
<polygon fill="none" stroke="#191970" points="87.3808,-139.7318 86.6438,-150.301 93.811,-142.4983 87.3808,-139.7318"/>
</g>
<!-- Node6 -->
<g id="node3" class="node">
<title>Node6</title>
<polygon fill="#ffffff" stroke="#bfbfbf" points="26.5,-486.5 26.5,-576.5 79.5,-576.5 79.5,-486.5 26.5,-486.5"/>
<text text-anchor="middle" x="53" y="-556.5" font-family="Helvetica,sans-Serif" font-size="20.00" fill="#000000">Pele</text>
<polyline fill="none" stroke="#bfbfbf" points="26.5,-546.5 79.5,-546.5 "/>
<text text-anchor="middle" x="53" y="-526.5" font-family="Helvetica,sans-Serif" font-size="20.00" fill="#000000"> </text>
<polyline fill="none" stroke="#bfbfbf" points="26.5,-516.5 79.5,-516.5 "/>
<text text-anchor="middle" x="53" y="-496.5" font-family="Helvetica,sans-Serif" font-size="20.00" fill="#000000"> </text>
</g>
<!-- Node6&#45;&gt;Node5 -->
<g id="edge2" class="edge">
<title>Node6&#45;&gt;Node5</title>
<path fill="none" stroke="#404040" d="M53,-486.465C53,-442.478 53,-374.279 53,-319.0494"/>
<polygon fill="none" stroke="#404040" points="53.0001,-318.757 49,-312.757 53,-306.757 57,-312.757 53.0001,-318.757"/>
<text text-anchor="middle" x="78" y="-331" font-family="Helvetica,sans-Serif" font-size="20.00" fill="#000000"> #pele</text>
</g>
<!-- Node7 -->
<g id="node4" class="node">
<title>Node7</title>
<g id="a_node4"><a xlink:href="classDomestico.html" target="_top" xlink:title="Umas das definições de categoria para Animal. ">
<polygon fill="#ffffff" stroke="#000000" points="124.5,-150.5 124.5,-306.5 279.5,-306.5 279.5,-150.5 124.5,-150.5"/>
<text text-anchor="middle" x="202" y="-286.5" font-family="Helvetica,sans-Serif" font-size="20.00" fill="#000000">Domestico</text>
<polyline fill="none" stroke="#000000" points="124.5,-276.5 279.5,-276.5 "/>
<text text-anchor="middle" x="202" y="-256.5" font-family="Helvetica,sans-Serif" font-size="20.00" fill="#000000"> </text>
<polyline fill="none" stroke="#000000" points="124.5,-246.5 279.5,-246.5 "/>
<text text-anchor="start" x="132.5" y="-226.5" font-family="Helvetica,sans-Serif" font-size="20.00" fill="#000000">+ Domestico()</text>
<text text-anchor="start" x="132.5" y="-204.5" font-family="Helvetica,sans-Serif" font-size="20.00" fill="#000000">+ Domestico()</text>
<text text-anchor="start" x="132.5" y="-182.5" font-family="Helvetica,sans-Serif" font-size="20.00" fill="#000000">+ ~Domestico()</text>
<text text-anchor="start" x="132.5" y="-160.5" font-family="Helvetica,sans-Serif" font-size="20.00" fill="#000000">+ getAdestrado()</text>
</a>
</g>
</g>
<!-- Node7&#45;&gt;Node4 -->
<g id="edge3" class="edge">
<title>Node7&#45;&gt;Node4</title>
<path fill="none" stroke="#191970" d="M163.8705,-141.0564C159.6623,-131.4055 155.4646,-121.7787 151.4895,-112.6626"/>
<polygon fill="none" stroke="#191970" points="160.6963,-142.5335 167.9016,-150.301 167.1128,-139.7356 160.6963,-142.5335"/>
</g>
<!-- Node8 -->
<g id="node5" class="node">
<title>Node8</title>
<g id="a_node5"><a xlink:href="classAnimal.html" target="_top" xlink:title="Implementação base para o cadastro de animais. ">
<polygon fill="#ffffff" stroke="#000000" points="290,-365.5 290,-697.5 468,-697.5 468,-365.5 290,-365.5"/>
<text text-anchor="middle" x="379" y="-677.5" font-family="Helvetica,sans-Serif" font-size="20.00" fill="#000000">Animal</text>
<polyline fill="none" stroke="#000000" points="290,-667.5 468,-667.5 "/>
<text text-anchor="middle" x="379" y="-647.5" font-family="Helvetica,sans-Serif" font-size="20.00" fill="#000000"> </text>
<polyline fill="none" stroke="#000000" points="290,-637.5 468,-637.5 "/>
<text text-anchor="start" x="298" y="-617.5" font-family="Helvetica,sans-Serif" font-size="20.00" fill="#000000">+ Animal()</text>
<text text-anchor="start" x="298" y="-595.5" font-family="Helvetica,sans-Serif" font-size="20.00" fill="#000000">+ Animal()</text>
<text text-anchor="start" x="298" y="-573.5" font-family="Helvetica,sans-Serif" font-size="20.00" fill="#000000">+ ~Animal()</text>
<text text-anchor="start" x="298" y="-551.5" font-family="Helvetica,sans-Serif" font-size="20.00" fill="#000000">+ getNome()</text>
<text text-anchor="start" x="298" y="-529.5" font-family="Helvetica,sans-Serif" font-size="20.00" fill="#000000">+ getEspecie()</text>
<text text-anchor="start" x="298" y="-507.5" font-family="Helvetica,sans-Serif" font-size="20.00" fill="#000000">+ getVeterinario()</text>
<text text-anchor="start" x="298" y="-485.5" font-family="Helvetica,sans-Serif" font-size="20.00" fill="#000000">+ getTratador()</text>
<text text-anchor="start" x="298" y="-463.5" font-family="Helvetica,sans-Serif" font-size="20.00" fill="#000000">+ getPerigoso()</text>
<text text-anchor="start" x="298" y="-441.5" font-family="Helvetica,sans-Serif" font-size="20.00" fill="#000000">+ getClassificacao()</text>
<text text-anchor="start" x="298" y="-419.5" font-family="Helvetica,sans-Serif" font-size="20.00" fill="#000000">+ getClasse()</text>
<text text-anchor="start" x="298" y="-397.5" font-family="Helvetica,sans-Serif" font-size="20.00" fill="#000000">+ printOutDados()</text>
<text text-anchor="start" x="298" y="-375.5" font-family="Helvetica,sans-Serif" font-size="20.00" fill="#000000">+ operator==()</text>
</a>
</g>
</g>
<!-- Node8&#45;&gt;Node7 -->
<g id="edge4" class="edge">
<title>Node8&#45;&gt;Node7</title>
<path fill="none" stroke="#191970" d="M284.8398,-370.3104C271.9433,-348.2335 259.2078,-326.4321 247.7347,-306.7916"/>
<polygon fill="none" stroke="#191970" points="281.9152,-372.243 289.9814,-379.1123 287.9595,-368.7122 281.9152,-372.243"/>
</g>
<!-- Node9 -->
<g id="node6" class="node">
<title>Node9</title>
<g id="a_node6"><a xlink:href="classTratador.html" target="_top" xlink:title="Implementação dos tratadores. ">
<polygon fill="#ffffff" stroke="#000000" points="401,-756.5 401,-934.5 565,-934.5 565,-756.5 401,-756.5"/>
<text text-anchor="middle" x="483" y="-914.5" font-family="Helvetica,sans-Serif" font-size="20.00" fill="#000000">Tratador</text>
<polyline fill="none" stroke="#000000" points="401,-904.5 565,-904.5 "/>
<text text-anchor="middle" x="483" y="-884.5" font-family="Helvetica,sans-Serif" font-size="20.00" fill="#000000"> </text>
<polyline fill="none" stroke="#000000" points="401,-874.5 565,-874.5 "/>
<text text-anchor="start" x="409" y="-854.5" font-family="Helvetica,sans-Serif" font-size="20.00" fill="#000000">+ Tratador()</text>
<text text-anchor="start" x="409" y="-832.5" font-family="Helvetica,sans-Serif" font-size="20.00" fill="#000000">+ Tratador()</text>
<text text-anchor="start" x="409" y="-810.5" font-family="Helvetica,sans-Serif" font-size="20.00" fill="#000000">+ ~Tratador()</text>
<text text-anchor="start" x="409" y="-788.5" font-family="Helvetica,sans-Serif" font-size="20.00" fill="#000000">+ getUniforme()</text>
<text text-anchor="start" x="409" y="-766.5" font-family="Helvetica,sans-Serif" font-size="20.00" fill="#000000">+ printOutDados()</text>
</a>
</g>
</g>
<!-- Node9&#45;&gt;Node8 -->
<g id="edge5" class="edge">
<title>Node9&#45;&gt;Node8</title>
<path fill="none" stroke="#404040" d="M453.476,-756.3601C448.547,-741.4783 443.2843,-725.5892 437.9217,-709.3982"/>
<polygon fill="none" stroke="#404040" points="437.7756,-708.9568 432.0919,-704.5188 434.0025,-697.5654 439.6862,-702.0034 437.7756,-708.9568"/>
<text text-anchor="middle" x="486.5" y="-722" font-family="Helvetica,sans-Serif" font-size="20.00" fill="#000000"> #tratador</text>
</g>
<!-- Node10 -->
<g id="node7" class="node">
<title>Node10</title>
<g id="a_node7"><a xlink:href="classPessoa.html" target="_top" xlink:title="Classe base dos funcionarios. ">
<polygon fill="#ffffff" stroke="#000000" points="275,-1015.5 275,-1259.5 439,-1259.5 439,-1015.5 275,-1015.5"/>
<text text-anchor="middle" x="357" y="-1239.5" font-family="Helvetica,sans-Serif" font-size="20.00" fill="#000000">Pessoa</text>
<polyline fill="none" stroke="#000000" points="275,-1229.5 439,-1229.5 "/>
<text text-anchor="middle" x="357" y="-1209.5" font-family="Helvetica,sans-Serif" font-size="20.00" fill="#000000"> </text>
<polyline fill="none" stroke="#000000" points="275,-1199.5 439,-1199.5 "/>
<text text-anchor="start" x="283" y="-1179.5" font-family="Helvetica,sans-Serif" font-size="20.00" fill="#000000">+ Pessoa()</text>
<text text-anchor="start" x="283" y="-1157.5" font-family="Helvetica,sans-Serif" font-size="20.00" fill="#000000">+ Pessoa()</text>
<text text-anchor="start" x="283" y="-1135.5" font-family="Helvetica,sans-Serif" font-size="20.00" fill="#000000">+ ~Pessoa()</text>
<text text-anchor="start" x="283" y="-1113.5" font-family="Helvetica,sans-Serif" font-size="20.00" fill="#000000">+ getNome()</text>
<text text-anchor="start" x="283" y="-1091.5" font-family="Helvetica,sans-Serif" font-size="20.00" fill="#000000">+ getTelefone()</text>
<text text-anchor="start" x="283" y="-1069.5" font-family="Helvetica,sans-Serif" font-size="20.00" fill="#000000">+ getEmail()</text>
<text text-anchor="start" x="283" y="-1047.5" font-family="Helvetica,sans-Serif" font-size="20.00" fill="#000000">+ printOutDados()</text>
<text text-anchor="start" x="283" y="-1025.5" font-family="Helvetica,sans-Serif" font-size="20.00" fill="#000000">+ operator==()</text>
</a>
</g>
</g>
<!-- Node10&#45;&gt;Node9 -->
<g id="edge6" class="edge">
<title>Node10&#45;&gt;Node9</title>
<path fill="none" stroke="#191970" d="M413.6863,-1006.1318C424.1095,-981.9764 434.7656,-957.2813 444.4978,-934.7273"/>
<polygon fill="none" stroke="#191970" points="410.4537,-1004.7892 409.7053,-1015.3576 416.8809,-1007.5626 410.4537,-1004.7892"/>
</g>
<!-- Node14 -->
<g id="node11" class="node">
<title>Node14</title>
<g id="a_node11"><a xlink:href="classVeterinario.html" target="_top" xlink:title="Implementação dos veterinarios. ">
<polygon fill="#ffffff" stroke="#000000" points="219,-756.5 219,-934.5 383,-934.5 383,-756.5 219,-756.5"/>
<text text-anchor="middle" x="301" y="-914.5" font-family="Helvetica,sans-Serif" font-size="20.00" fill="#000000">Veterinario</text>
<polyline fill="none" stroke="#000000" points="219,-904.5 383,-904.5 "/>
<text text-anchor="middle" x="301" y="-884.5" font-family="Helvetica,sans-Serif" font-size="20.00" fill="#000000"> </text>
<polyline fill="none" stroke="#000000" points="219,-874.5 383,-874.5 "/>
<text text-anchor="start" x="227" y="-854.5" font-family="Helvetica,sans-Serif" font-size="20.00" fill="#000000">+ Veterinario()</text>
<text text-anchor="start" x="227" y="-832.5" font-family="Helvetica,sans-Serif" font-size="20.00" fill="#000000">+ Veterinario()</text>
<text text-anchor="start" x="227" y="-810.5" font-family="Helvetica,sans-Serif" font-size="20.00" fill="#000000">+ ~Veterinario()</text>
<text text-anchor="start" x="227" y="-788.5" font-family="Helvetica,sans-Serif" font-size="20.00" fill="#000000">+ getCRMV()</text>
<text text-anchor="start" x="227" y="-766.5" font-family="Helvetica,sans-Serif" font-size="20.00" fill="#000000">+ printOutDados()</text>
</a>
</g>
</g>
<!-- Node10&#45;&gt;Node14 -->
<g id="edge12" class="edge">
<title>Node10&#45;&gt;Node14</title>
<path fill="none" stroke="#191970" d="M331.6836,-1005.4932C327.0901,-981.5414 322.3994,-957.0826 318.1121,-934.7273"/>
<polygon fill="none" stroke="#191970" points="328.2545,-1006.1958 333.5754,-1015.3576 335.1292,-1004.8773 328.2545,-1006.1958"/>
</g>
<!-- Node11 -->
<g id="node8" class="node">
<title>Node11</title>
<polygon fill="#ffffff" stroke="#bfbfbf" points="325,-1362.5 325,-1452.5 389,-1452.5 389,-1362.5 325,-1362.5"/>
<text text-anchor="middle" x="357" y="-1432.5" font-family="Helvetica,sans-Serif" font-size="20.00" fill="#000000">string</text>
<polyline fill="none" stroke="#bfbfbf" points="325,-1422.5 389,-1422.5 "/>
<text text-anchor="middle" x="357" y="-1402.5" font-family="Helvetica,sans-Serif" font-size="20.00" fill="#000000"> </text>
<polyline fill="none" stroke="#bfbfbf" points="325,-1392.5 389,-1392.5 "/>
<text text-anchor="middle" x="357" y="-1372.5" font-family="Helvetica,sans-Serif" font-size="20.00" fill="#000000"> </text>
</g>
<!-- Node11&#45;&gt;Node8 -->
<g id="edge10" class="edge">
<title>Node11&#45;&gt;Node8</title>
<path fill="none" stroke="#404040" d="M389.0902,-1394.7031C435.7738,-1374.16 520.884,-1328.9933 558,-1260 664.176,-1062.6343 652.4447,-965.9357 574,-756 553.9664,-702.3857 514.7129,-653.1042 476.6438,-614.458"/>
<polygon fill="none" stroke="#404040" points="476.5331,-614.3476 469.4599,-612.9438 468.0354,-605.8748 475.1085,-607.2786 476.5331,-614.3476"/>
<text text-anchor="middle" x="673" y="-981" font-family="Helvetica,sans-Serif" font-size="20.00" fill="#000000"> #especie</text>
<text text-anchor="middle" x="673" y="-959" font-family="Helvetica,sans-Serif" font-size="20.00" fill="#000000">#nome</text>
</g>
<!-- Node11&#45;&gt;Node10 -->
<g id="edge7" class="edge">
<title>Node11&#45;&gt;Node10</title>
<path fill="none" stroke="#404040" d="M357,-1362.3081C357,-1337.172 357,-1304.4339 357,-1271.7541"/>
<polygon fill="none" stroke="#404040" points="357.0001,-1271.731 353,-1265.731 357,-1259.731 361,-1265.7309 357.0001,-1271.731"/>
<text text-anchor="middle" x="395.5" y="-1328" font-family="Helvetica,sans-Serif" font-size="20.00" fill="#000000"> #email</text>
<text text-anchor="middle" x="395.5" y="-1306" font-family="Helvetica,sans-Serif" font-size="20.00" fill="#000000">#nome</text>
<text text-anchor="middle" x="395.5" y="-1284" font-family="Helvetica,sans-Serif" font-size="20.00" fill="#000000">#telefone</text>
</g>
<!-- Node11&#45;&gt;Node14 -->
<g id="edge13" class="edge">
<title>Node11&#45;&gt;Node14</title>
<path fill="none" stroke="#404040" d="M324.9666,-1388.9277C286.9124,-1364.7894 225.3919,-1318.6955 200,-1260 156.7664,-1160.0618 171.0936,-1119.9819 200,-1015 206.5645,-991.1593 217.4577,-967.2862 229.7165,-945.2948"/>
<polygon fill="none" stroke="#404040" points="229.8504,-945.0619 229.373,-937.8666 235.8312,-934.6585 236.3086,-941.8538 229.8504,-945.0619"/>
<text text-anchor="middle" x="233" y="-1132.5" font-family="Helvetica,sans-Serif" font-size="20.00" fill="#000000"> &#45;CRMV</text>
</g>
<!-- Node12 -->
<g id="node9" class="node">
<title>Node12</title>
<polygon fill="#ffffff" stroke="#bfbfbf" points="457,-1092.5 457,-1182.5 549,-1182.5 549,-1092.5 457,-1092.5"/>
<text text-anchor="middle" x="503" y="-1162.5" font-family="Helvetica,sans-Serif" font-size="20.00" fill="#000000">Uniforme</text>
<polyline fill="none" stroke="#bfbfbf" points="457,-1152.5 549,-1152.5 "/>
<text text-anchor="middle" x="503" y="-1132.5" font-family="Helvetica,sans-Serif" font-size="20.00" fill="#000000"> </text>
<polyline fill="none" stroke="#bfbfbf" points="457,-1122.5 549,-1122.5 "/>
<text text-anchor="middle" x="503" y="-1102.5" font-family="Helvetica,sans-Serif" font-size="20.00" fill="#000000"> </text>
</g>
<!-- Node12&#45;&gt;Node9 -->
<g id="edge8" class="edge">
<title>Node12&#45;&gt;Node9</title>
<path fill="none" stroke="#404040" d="M496.8475,-1092.3503C493.3515,-1064.8458 489.2374,-1028.9595 487,-997 485.8689,-980.8427 485.0504,-963.6958 484.4597,-946.9694"/>
<polygon fill="none" stroke="#404040" points="484.4569,-946.8782 480.2648,-941.0107 484.0686,-934.8845 488.2607,-940.7519 484.4569,-946.8782"/>
<text text-anchor="middle" x="529" y="-970" font-family="Helvetica,sans-Serif" font-size="20.00" fill="#000000"> &#45;uniforme</text>
</g>
<!-- Node13 -->
<g id="node10" class="node">
<title>Node13</title>
<polygon fill="#ffffff" stroke="#bfbfbf" points="149.5,-800.5 149.5,-890.5 200.5,-890.5 200.5,-800.5 149.5,-800.5"/>
<text text-anchor="middle" x="175" y="-870.5" font-family="Helvetica,sans-Serif" font-size="20.00" fill="#000000">bool</text>
<polyline fill="none" stroke="#bfbfbf" points="149.5,-860.5 200.5,-860.5 "/>
<text text-anchor="middle" x="175" y="-840.5" font-family="Helvetica,sans-Serif" font-size="20.00" fill="#000000"> </text>
<polyline fill="none" stroke="#bfbfbf" points="149.5,-830.5 200.5,-830.5 "/>
<text text-anchor="middle" x="175" y="-810.5" font-family="Helvetica,sans-Serif" font-size="20.00" fill="#000000"> </text>
</g>
<!-- Node13&#45;&gt;Node7 -->
<g id="edge14" class="edge">
<title>Node13&#45;&gt;Node7</title>
<path fill="none" stroke="#404040" d="M174.158,-800.3741C172.9422,-715.1539 172.0094,-524.7454 184,-365 185.1223,-350.0476 186.7754,-334.2269 188.6318,-318.8613"/>
<polygon fill="none" stroke="#404040" points="188.6684,-318.5685 185.4441,-312.1184 190.1579,-306.6613 193.3822,-313.1114 188.6684,-318.5685"/>
<text text-anchor="middle" x="232.5" y="-526.5" font-family="Helvetica,sans-Serif" font-size="20.00" fill="#000000"> #adestrado</text>
</g>
<!-- Node13&#45;&gt;Node8 -->
<g id="edge9" class="edge">
<title>Node13&#45;&gt;Node8</title>
<path fill="none" stroke="#404040" d="M190.2375,-800.4062C195.7669,-785.899 202.5162,-769.9718 210,-756 220.2464,-736.8708 221.4196,-730.0002 238,-716 252.2785,-703.9435 262.0692,-710.4566 276,-698 277.8053,-696.3857 279.59,-694.7323 281.3536,-693.0432"/>
<polygon fill="none" stroke="#404040" points="281.5523,-692.8427 282.9321,-685.7648 289.9963,-684.3163 288.6164,-691.3941 281.5523,-692.8427"/>
<text text-anchor="middle" x="281" y="-722" font-family="Helvetica,sans-Serif" font-size="20.00" fill="#000000"> #perigoso</text>
</g>
<!-- Node14&#45;&gt;Node8 -->
<g id="edge11" class="edge">
<title>Node14&#45;&gt;Node8</title>
<path fill="none" stroke="#404040" d="M323.143,-756.3601C326.8398,-741.4783 330.7868,-725.5892 334.8087,-709.3982"/>
<polygon fill="none" stroke="#404040" points="334.855,-709.2114 332.4195,-702.4241 337.7481,-697.5654 340.1836,-704.3528 334.855,-709.2114"/>
<text text-anchor="middle" x="384.5" y="-722" font-family="Helvetica,sans-Serif" font-size="20.00" fill="#000000"> #veterinario</text>
</g>
</g>
</svg>
