<?xml version="1.0" encoding="UTF-8" standalone="no"?>
<!DOCTYPE svg PUBLIC "-//W3C//DTD SVG 1.1//EN"
 "http://www.w3.org/Graphics/SVG/1.1/DTD/svg11.dtd">
<!-- Generated by graphviz version 2.40.1 (20161225.0304)
 -->
<!-- Title: Animal Pages: 1 -->
<!--zoomable 1096 -->
<svg id="main" version="1.1" xmlns="http://www.w3.org/2000/svg" xmlns:xlink="http://www.w3.org/1999/xlink" xml:space="preserve" onload="init(evt)">
<style type="text/css"><![CDATA[
.edge:hover path { stroke: red; }
.edge:hover polygon { stroke: red; fill: red; }
]]></style>
<script type="text/javascript"><![CDATA[
var edges = document.getElementsByTagName('g');
if (edges && edges.length) {
  for (var i=0;i<edges.length;i++) {
    if (edges[i].id.substr(0,4)=='edge') {
      edges[i].setAttribute('class','edge');
    }
  }
}
]]></script>
        <defs>
                <circle id="rim" cx="0" cy="0" r="7"/>
                <circle id="rim2" cx="0" cy="0" r="3.5"/>
                <g id="zoomPlus">
                        <use xlink:href="#rim" fill="#404040">
                                <set attributeName="fill" to="#808080" begin="zoomplus.mouseover" end="zoomplus.mouseout"/>
                        </use>
                        <path d="M-4,0h8M0,-4v8" fill="none" stroke="white" stroke-width="1.5" pointer-events="none"/>
                </g>
                <g id="zoomMin">
                        <use xlink:href="#rim" fill="#404040">
                                <set attributeName="fill" to="#808080" begin="zoomminus.mouseover" end="zoomminus.mouseout"/>
                        </use>
                        <path d="M-4,0h8" fill="none" stroke="white" stroke-width="1.5" pointer-events="none"/>
                </g>
                <g id="dirArrow">
                        <path fill="none" stroke="white" stroke-width="1.5" d="M0,-3.0v7 M-2.5,-0.5L0,-3.0L2.5,-0.5"/>
                </g>
               <g id="resetDef">
                       <use xlink:href="#rim2" fill="#404040">
                               <set attributeName="fill" to="#808080" begin="reset.mouseover" end="reset.mouseout"/>
                       </use>
               </g>
        </defs>

<script type="text/javascript">
var viewWidth = 479;
var viewHeight = 1096;
var sectionId = 'dynsection-1';
</script>
<script xlink:href="svgpan.js"/>
<svg id="graph" class="graph">
<g id="viewport">
<title>Animal</title>
<polygon fill="#ffffff" stroke="transparent" points="-4,4 -4,-1092 474.5224,-1092 474.5224,4 -4,4"/>
<!-- Node16 -->
<g id="node1" class="node">
<title>Node16</title>
<polygon fill="#bfbfbf" stroke="#000000" points="139.5224,-.5 139.5224,-332.5 317.5224,-332.5 317.5224,-.5 139.5224,-.5"/>
<text text-anchor="middle" x="228.5224" y="-312.5" font-family="Helvetica,sans-Serif" font-size="20.00" fill="#000000">Animal</text>
<polyline fill="none" stroke="#000000" points="139.5224,-302.5 317.5224,-302.5 "/>
<text text-anchor="middle" x="228.5224" y="-282.5" font-family="Helvetica,sans-Serif" font-size="20.00" fill="#000000"> </text>
<polyline fill="none" stroke="#000000" points="139.5224,-272.5 317.5224,-272.5 "/>
<text text-anchor="start" x="147.5224" y="-252.5" font-family="Helvetica,sans-Serif" font-size="20.00" fill="#000000">+ Animal()</text>
<text text-anchor="start" x="147.5224" y="-230.5" font-family="Helvetica,sans-Serif" font-size="20.00" fill="#000000">+ Animal()</text>
<text text-anchor="start" x="147.5224" y="-208.5" font-family="Helvetica,sans-Serif" font-size="20.00" fill="#000000">+ ~Animal()</text>
<text text-anchor="start" x="147.5224" y="-186.5" font-family="Helvetica,sans-Serif" font-size="20.00" fill="#000000">+ getNome()</text>
<text text-anchor="start" x="147.5224" y="-164.5" font-family="Helvetica,sans-Serif" font-size="20.00" fill="#000000">+ getEspecie()</text>
<text text-anchor="start" x="147.5224" y="-142.5" font-family="Helvetica,sans-Serif" font-size="20.00" fill="#000000">+ getVeterinario()</text>
<text text-anchor="start" x="147.5224" y="-120.5" font-family="Helvetica,sans-Serif" font-size="20.00" fill="#000000">+ getTratador()</text>
<text text-anchor="start" x="147.5224" y="-98.5" font-family="Helvetica,sans-Serif" font-size="20.00" fill="#000000">+ getPerigoso()</text>
<text text-anchor="start" x="147.5224" y="-76.5" font-family="Helvetica,sans-Serif" font-size="20.00" fill="#000000">+ getClassificacao()</text>
<text text-anchor="start" x="147.5224" y="-54.5" font-family="Helvetica,sans-Serif" font-size="20.00" fill="#000000">+ getClasse()</text>
<text text-anchor="start" x="147.5224" y="-32.5" font-family="Helvetica,sans-Serif" font-size="20.00" fill="#000000">+ printOutDados()</text>
<text text-anchor="start" x="147.5224" y="-10.5" font-family="Helvetica,sans-Serif" font-size="20.00" fill="#000000">+ operator==()</text>
</g>
<!-- Node17 -->
<g id="node2" class="node">
<title>Node17</title>
<g id="a_node2"><a xlink:href="classTratador.html" target="_top" xlink:title="Implementação dos tratadores. ">
<polygon fill="#ffffff" stroke="#000000" points="223.5224,-391.5 223.5224,-569.5 387.5224,-569.5 387.5224,-391.5 223.5224,-391.5"/>
<text text-anchor="middle" x="305.5224" y="-549.5" font-family="Helvetica,sans-Serif" font-size="20.00" fill="#000000">Tratador</text>
<polyline fill="none" stroke="#000000" points="223.5224,-539.5 387.5224,-539.5 "/>
<text text-anchor="middle" x="305.5224" y="-519.5" font-family="Helvetica,sans-Serif" font-size="20.00" fill="#000000"> </text>
<polyline fill="none" stroke="#000000" points="223.5224,-509.5 387.5224,-509.5 "/>
<text text-anchor="start" x="231.5224" y="-489.5" font-family="Helvetica,sans-Serif" font-size="20.00" fill="#000000">+ Tratador()</text>
<text text-anchor="start" x="231.5224" y="-467.5" font-family="Helvetica,sans-Serif" font-size="20.00" fill="#000000">+ Tratador()</text>
<text text-anchor="start" x="231.5224" y="-445.5" font-family="Helvetica,sans-Serif" font-size="20.00" fill="#000000">+ ~Tratador()</text>
<text text-anchor="start" x="231.5224" y="-423.5" font-family="Helvetica,sans-Serif" font-size="20.00" fill="#000000">+ getUniforme()</text>
<text text-anchor="start" x="231.5224" y="-401.5" font-family="Helvetica,sans-Serif" font-size="20.00" fill="#000000">+ printOutDados()</text>
</a>
</g>
</g>
<!-- Node17&#45;&gt;Node16 -->
<g id="edge1" class="edge">
<title>Node17&#45;&gt;Node16</title>
<path fill="none" stroke="#404040" d="M283.6633,-391.3601C280.0139,-376.4783 276.1176,-360.5892 272.1472,-344.3982"/>
<polygon fill="none" stroke="#404040" points="272.1035,-344.2201 266.7896,-339.3454 269.2455,-332.5654 274.5594,-337.44 272.1035,-344.2201"/>
<text text-anchor="middle" x="318.0224" y="-357" font-family="Helvetica,sans-Serif" font-size="20.00" fill="#000000"> #tratador</text>
</g>
<!-- Node18 -->
<g id="node3" class="node">
<title>Node18</title>
<g id="a_node3"><a xlink:href="classPessoa.html" target="_top" xlink:title="Classe base dos funcionarios. ">
<polygon fill="#ffffff" stroke="#000000" points="190.5224,-650.5 190.5224,-894.5 354.5224,-894.5 354.5224,-650.5 190.5224,-650.5"/>
<text text-anchor="middle" x="272.5224" y="-874.5" font-family="Helvetica,sans-Serif" font-size="20.00" fill="#000000">Pessoa</text>
<polyline fill="none" stroke="#000000" points="190.5224,-864.5 354.5224,-864.5 "/>
<text text-anchor="middle" x="272.5224" y="-844.5" font-family="Helvetica,sans-Serif" font-size="20.00" fill="#000000"> </text>
<polyline fill="none" stroke="#000000" points="190.5224,-834.5 354.5224,-834.5 "/>
<text text-anchor="start" x="198.5224" y="-814.5" font-family="Helvetica,sans-Serif" font-size="20.00" fill="#000000">+ Pessoa()</text>
<text text-anchor="start" x="198.5224" y="-792.5" font-family="Helvetica,sans-Serif" font-size="20.00" fill="#000000">+ Pessoa()</text>
<text text-anchor="start" x="198.5224" y="-770.5" font-family="Helvetica,sans-Serif" font-size="20.00" fill="#000000">+ ~Pessoa()</text>
<text text-anchor="start" x="198.5224" y="-748.5" font-family="Helvetica,sans-Serif" font-size="20.00" fill="#000000">+ getNome()</text>
<text text-anchor="start" x="198.5224" y="-726.5" font-family="Helvetica,sans-Serif" font-size="20.00" fill="#000000">+ getTelefone()</text>
<text text-anchor="start" x="198.5224" y="-704.5" font-family="Helvetica,sans-Serif" font-size="20.00" fill="#000000">+ getEmail()</text>
<text text-anchor="start" x="198.5224" y="-682.5" font-family="Helvetica,sans-Serif" font-size="20.00" fill="#000000">+ printOutDados()</text>
<text text-anchor="start" x="198.5224" y="-660.5" font-family="Helvetica,sans-Serif" font-size="20.00" fill="#000000">+ operator==()</text>
</a>
</g>
</g>
<!-- Node18&#45;&gt;Node17 -->
<g id="edge2" class="edge">
<title>Node18&#45;&gt;Node17</title>
<path fill="none" stroke="#191970" d="M287.4771,-640.1738C290.1725,-616.324 292.9233,-591.9833 295.4385,-569.7273"/>
<polygon fill="none" stroke="#191970" points="283.9714,-640.0278 286.3262,-650.3576 290.9271,-640.8139 283.9714,-640.0278"/>
</g>
<!-- Node22 -->
<g id="node7" class="node">
<title>Node22</title>
<g id="a_node7"><a xlink:href="classVeterinario.html" target="_top" xlink:title="Implementação dos veterinarios. ">
<polygon fill="#ffffff" stroke="#000000" points="41.5224,-391.5 41.5224,-569.5 205.5224,-569.5 205.5224,-391.5 41.5224,-391.5"/>
<text text-anchor="middle" x="123.5224" y="-549.5" font-family="Helvetica,sans-Serif" font-size="20.00" fill="#000000">Veterinario</text>
<polyline fill="none" stroke="#000000" points="41.5224,-539.5 205.5224,-539.5 "/>
<text text-anchor="middle" x="123.5224" y="-519.5" font-family="Helvetica,sans-Serif" font-size="20.00" fill="#000000"> </text>
<polyline fill="none" stroke="#000000" points="41.5224,-509.5 205.5224,-509.5 "/>
<text text-anchor="start" x="49.5224" y="-489.5" font-family="Helvetica,sans-Serif" font-size="20.00" fill="#000000">+ Veterinario()</text>
<text text-anchor="start" x="49.5224" y="-467.5" font-family="Helvetica,sans-Serif" font-size="20.00" fill="#000000">+ Veterinario()</text>
<text text-anchor="start" x="49.5224" y="-445.5" font-family="Helvetica,sans-Serif" font-size="20.00" fill="#000000">+ ~Veterinario()</text>
<text text-anchor="start" x="49.5224" y="-423.5" font-family="Helvetica,sans-Serif" font-size="20.00" fill="#000000">+ getCRMV()</text>
<text text-anchor="start" x="49.5224" y="-401.5" font-family="Helvetica,sans-Serif" font-size="20.00" fill="#000000">+ printOutDados()</text>
</a>
</g>
</g>
<!-- Node18&#45;&gt;Node22 -->
<g id="edge8" class="edge">
<title>Node18&#45;&gt;Node22</title>
<path fill="none" stroke="#191970" d="M205.4887,-641.1318C193.1628,-616.9764 180.5615,-592.2813 169.0528,-569.7273"/>
<polygon fill="none" stroke="#191970" points="202.5335,-643.0411 210.1964,-650.3576 208.7687,-639.8594 202.5335,-643.0411"/>
</g>
<!-- Node19 -->
<g id="node4" class="node">
<title>Node19</title>
<polygon fill="#ffffff" stroke="#bfbfbf" points="74.5224,-997.5 74.5224,-1087.5 138.5224,-1087.5 138.5224,-997.5 74.5224,-997.5"/>
<text text-anchor="middle" x="106.5224" y="-1067.5" font-family="Helvetica,sans-Serif" font-size="20.00" fill="#000000">string</text>
<polyline fill="none" stroke="#bfbfbf" points="74.5224,-1057.5 138.5224,-1057.5 "/>
<text text-anchor="middle" x="106.5224" y="-1037.5" font-family="Helvetica,sans-Serif" font-size="20.00" fill="#000000"> </text>
<polyline fill="none" stroke="#bfbfbf" points="74.5224,-1027.5 138.5224,-1027.5 "/>
<text text-anchor="middle" x="106.5224" y="-1007.5" font-family="Helvetica,sans-Serif" font-size="20.00" fill="#000000"> </text>
</g>
<!-- Node19&#45;&gt;Node16 -->
<g id="edge6" class="edge">
<title>Node19&#45;&gt;Node16</title>
<path fill="none" stroke="#404040" d="M87.57,-997.31C44.9862,-888.858 -48.4369,-606.8311 32.5224,-391 52.7105,-337.1802 92.2899,-287.7922 130.6278,-249.1256"/>
<polygon fill="none" stroke="#404040" points="130.7706,-248.9841 132.2183,-241.9198 139.2961,-240.5392 137.8483,-247.6035 130.7706,-248.9841"/>
<text text-anchor="middle" x="41.5224" y="-616" font-family="Helvetica,sans-Serif" font-size="20.00" fill="#000000"> #especie</text>
<text text-anchor="middle" x="41.5224" y="-594" font-family="Helvetica,sans-Serif" font-size="20.00" fill="#000000">#nome</text>
</g>
<!-- Node19&#45;&gt;Node18 -->
<g id="edge3" class="edge">
<title>Node19&#45;&gt;Node18</title>
<path fill="none" stroke="#404040" d="M134.3071,-997.3081C150.0322,-971.7311 170.5967,-938.2829 191.0385,-905.0342"/>
<polygon fill="none" stroke="#404040" points="191.088,-904.9535 190.823,-897.7472 197.373,-894.731 197.638,-901.9372 191.088,-904.9535"/>
<text text-anchor="middle" x="223.0224" y="-963" font-family="Helvetica,sans-Serif" font-size="20.00" fill="#000000"> #email</text>
<text text-anchor="middle" x="223.0224" y="-941" font-family="Helvetica,sans-Serif" font-size="20.00" fill="#000000">#nome</text>
<text text-anchor="middle" x="223.0224" y="-919" font-family="Helvetica,sans-Serif" font-size="20.00" fill="#000000">#telefone</text>
</g>
<!-- Node19&#45;&gt;Node22 -->
<g id="edge9" class="edge">
<title>Node19&#45;&gt;Node22</title>
<path fill="none" stroke="#404040" d="M107.2005,-997.4579C108.3791,-924.475 111.1103,-775.8488 115.5224,-650 116.2932,-628.0153 117.295,-604.4346 118.3274,-582.0595"/>
<polygon fill="none" stroke="#404040" points="118.3414,-581.7576 114.6265,-575.577 118.9028,-569.7707 122.6178,-575.9513 118.3414,-581.7576"/>
<text text-anchor="middle" x="148.5224" y="-767.5" font-family="Helvetica,sans-Serif" font-size="20.00" fill="#000000"> &#45;CRMV</text>
</g>
<!-- Node20 -->
<g id="node5" class="node">
<title>Node20</title>
<polygon fill="#ffffff" stroke="#bfbfbf" points="372.5224,-727.5 372.5224,-817.5 464.5224,-817.5 464.5224,-727.5 372.5224,-727.5"/>
<text text-anchor="middle" x="418.5224" y="-797.5" font-family="Helvetica,sans-Serif" font-size="20.00" fill="#000000">Uniforme</text>
<polyline fill="none" stroke="#bfbfbf" points="372.5224,-787.5 464.5224,-787.5 "/>
<text text-anchor="middle" x="418.5224" y="-767.5" font-family="Helvetica,sans-Serif" font-size="20.00" fill="#000000"> </text>
<polyline fill="none" stroke="#bfbfbf" points="372.5224,-757.5 464.5224,-757.5 "/>
<text text-anchor="middle" x="418.5224" y="-737.5" font-family="Helvetica,sans-Serif" font-size="20.00" fill="#000000"> </text>
</g>
<!-- Node20&#45;&gt;Node17 -->
<g id="edge4" class="edge">
<title>Node20&#45;&gt;Node17</title>
<path fill="none" stroke="#404040" d="M400.9902,-727.1954C385.9509,-688.3328 363.7296,-630.9115 344.5091,-581.2443"/>
<polygon fill="none" stroke="#404040" points="344.4079,-580.9826 338.512,-576.8307 340.077,-569.7914 345.9729,-573.9434 344.4079,-580.9826"/>
<text text-anchor="middle" x="403.5224" y="-605" font-family="Helvetica,sans-Serif" font-size="20.00" fill="#000000"> &#45;uniforme</text>
</g>
<!-- Node21 -->
<g id="node6" class="node">
<title>Node21</title>
<polygon fill="#ffffff" stroke="#bfbfbf" points="406.0224,-435.5 406.0224,-525.5 457.0224,-525.5 457.0224,-435.5 406.0224,-435.5"/>
<text text-anchor="middle" x="431.5224" y="-505.5" font-family="Helvetica,sans-Serif" font-size="20.00" fill="#000000">bool</text>
<polyline fill="none" stroke="#bfbfbf" points="406.0224,-495.5 457.0224,-495.5 "/>
<text text-anchor="middle" x="431.5224" y="-475.5" font-family="Helvetica,sans-Serif" font-size="20.00" fill="#000000"> </text>
<polyline fill="none" stroke="#bfbfbf" points="406.0224,-465.5 457.0224,-465.5 "/>
<text text-anchor="middle" x="431.5224" y="-445.5" font-family="Helvetica,sans-Serif" font-size="20.00" fill="#000000"> </text>
</g>
<!-- Node21&#45;&gt;Node16 -->
<g id="edge5" class="edge">
<title>Node21&#45;&gt;Node16</title>
<path fill="none" stroke="#404040" d="M416.5466,-435.2634C411.033,-420.7475 404.2268,-404.8514 396.5224,-391 376.0623,-354.2157 350.2582,-316.669 325.054,-283.0713"/>
<polygon fill="none" stroke="#404040" points="324.8559,-282.8097 318.0453,-280.4399 317.6133,-273.2417 324.4239,-275.6115 324.8559,-282.8097"/>
<text text-anchor="middle" x="427.5224" y="-357" font-family="Helvetica,sans-Serif" font-size="20.00" fill="#000000"> #perigoso</text>
</g>
<!-- Node22&#45;&gt;Node16 -->
<g id="edge7" class="edge">
<title>Node22&#45;&gt;Node16</title>
<path fill="none" stroke="#404040" d="M153.0884,-391.3175C157.5812,-377.8064 162.1691,-364.0321 166.5224,-351 167.2342,-348.8691 167.9509,-346.7245 168.6716,-344.5683"/>
<polygon fill="none" stroke="#404040" points="168.7549,-344.3191 166.8646,-337.3601 172.5612,-332.9387 174.4515,-339.8976 168.7549,-344.3191"/>
<text text-anchor="middle" x="218.0224" y="-357" font-family="Helvetica,sans-Serif" font-size="20.00" fill="#000000"> #veterinario</text>
</g>
</g>
</svg>
        <g id="navigator" transform="translate(0 0)" fill="#404254">
                <rect fill="#f2f5e9" fill-opacity="0.5" stroke="#606060" stroke-width=".5" x="0" y="0" width="60" height="60"/>
                <use id="zoomplus" xlink:href="#zoomPlus" x="17" y="9" onmousedown="handleZoom(evt,'in')"/>
                <use id="zoomminus" xlink:href="#zoomMin" x="42" y="9" onmousedown="handleZoom(evt,'out')"/>
                <use id="reset" xlink:href="#resetDef" x="30" y="36" onmousedown="handleReset()"/>
                <g id="arrowUp" xlink:href="#dirArrow" transform="translate(30 24)" onmousedown="handlePan(0,-1)">
                  <use xlink:href="#rim" fill="#404040">
                        <set attributeName="fill" to="#808080" begin="arrowUp.mouseover" end="arrowUp.mouseout"/>
                  </use>
                  <path fill="none" stroke="white" stroke-width="1.5" d="M0,-3.0v7 M-2.5,-0.5L0,-3.0L2.5,-0.5"/>
                </g>
                <g id="arrowRight" xlink:href="#dirArrow" transform="rotate(90) translate(36 -43)" onmousedown="handlePan(1,0)">
                  <use xlink:href="#rim" fill="#404040">
                        <set attributeName="fill" to="#808080" begin="arrowRight.mouseover" end="arrowRight.mouseout"/>
                  </use>
                  <path fill="none" stroke="white" stroke-width="1.5" d="M0,-3.0v7 M-2.5,-0.5L0,-3.0L2.5,-0.5"/>
                </g>
                <g id="arrowDown" xlink:href="#dirArrow" transform="rotate(180) translate(-30 -48)" onmousedown="handlePan(0,1)">
                  <use xlink:href="#rim" fill="#404040">
                        <set attributeName="fill" to="#808080" begin="arrowDown.mouseover" end="arrowDown.mouseout"/>
                  </use>
                  <path fill="none" stroke="white" stroke-width="1.5" d="M0,-3.0v7 M-2.5,-0.5L0,-3.0L2.5,-0.5"/>
                </g>
                <g id="arrowLeft" xlink:href="#dirArrow" transform="rotate(270) translate(-36 17)" onmousedown="handlePan(-1,0)">
                  <use xlink:href="#rim" fill="#404040">
                        <set attributeName="fill" to="#808080" begin="arrowLeft.mouseover" end="arrowLeft.mouseout"/>
                  </use>
                  <path fill="none" stroke="white" stroke-width="1.5" d="M0,-3.0v7 M-2.5,-0.5L0,-3.0L2.5,-0.5"/>
                </g>
        </g>
        <svg viewBox="0 0 15 15" width="100%" height="30px" preserveAspectRatio="xMaxYMin meet">
         <g id="arrow_out" transform="scale(0.3 0.3)">
          <a xlink:href="classAnimal__coll__graph_org.svg" target="_base">
           <rect id="button" ry="5" rx="5" y="6" x="6" height="38" width="38"
                fill="#f2f5e9" fill-opacity="0.5" stroke="#606060" stroke-width="1.0"/>
           <path id="arrow"
             d="M 11.500037,31.436501 C 11.940474,20.09759 22.043105,11.32322 32.158766,21.979434 L 37.068811,17.246167 C 37.068811,17.246167 37.088388,32 37.088388,32 L 22.160133,31.978069 C 22.160133,31.978069 26.997745,27.140456 26.997745,27.140456 C 18.528582,18.264221 13.291696,25.230495 11.500037,31.436501 z"
             style="fill:#404040;"/>
          </a>
         </g>
        </svg>
</svg>
