<?xml version="1.0" encoding="UTF-8" standalone="no"?>
<!DOCTYPE svg PUBLIC "-//W3C//DTD SVG 1.1//EN"
 "http://www.w3.org/Graphics/SVG/1.1/DTD/svg11.dtd">
<!-- Generated by graphviz version 2.40.1 (20161225.0304)
 -->
<!-- Title: Nativo Pages: 1 -->
<svg width="709pt" height="771pt"
 viewBox="0.00 0.00 708.50 771.00" xmlns="http://www.w3.org/2000/svg" xmlns:xlink="http://www.w3.org/1999/xlink">
<g id="graph0" class="graph" transform="scale(1 1) rotate(0) translate(4 767)">
<title>Nativo</title>
<polygon fill="#ffffff" stroke="transparent" points="-4,4 -4,-767 704.5,-767 704.5,4 -4,4"/>
<!-- Node0 -->
<g id="node1" class="node">
<title>Node0</title>
<polygon fill="#bfbfbf" stroke="#000000" points="280.5,-149.5 280.5,-305.5 407.5,-305.5 407.5,-149.5 280.5,-149.5"/>
<text text-anchor="middle" x="344" y="-285.5" font-family="Helvetica,sans-Serif" font-size="20.00" fill="#000000">Nativo</text>
<polyline fill="none" stroke="#000000" points="280.5,-275.5 407.5,-275.5 "/>
<text text-anchor="start" x="288.5" y="-255.5" font-family="Helvetica,sans-Serif" font-size="20.00" fill="#000000"># regiao</text>
<polyline fill="none" stroke="#000000" points="280.5,-245.5 407.5,-245.5 "/>
<text text-anchor="start" x="288.5" y="-225.5" font-family="Helvetica,sans-Serif" font-size="20.00" fill="#000000">+ Nativo()</text>
<text text-anchor="start" x="288.5" y="-203.5" font-family="Helvetica,sans-Serif" font-size="20.00" fill="#000000">+ Nativo()</text>
<text text-anchor="start" x="288.5" y="-181.5" font-family="Helvetica,sans-Serif" font-size="20.00" fill="#000000">+ ~Nativo()</text>
<text text-anchor="start" x="288.5" y="-159.5" font-family="Helvetica,sans-Serif" font-size="20.00" fill="#000000">+ getRegiao()</text>
</g>
<!-- Node2 -->
<g id="node3" class="node">
<title>Node2</title>
<g id="a_node3"><a xlink:href="classAnfibioNativo.html" target="_top" xlink:title="Implementação de animal com Classe e Categoria. ">
<polygon fill="#ffffff" stroke="#000000" points="0,-.5 0,-112.5 166,-112.5 166,-.5 0,-.5"/>
<text text-anchor="middle" x="83" y="-92.5" font-family="Helvetica,sans-Serif" font-size="20.00" fill="#000000">AnfibioNativo</text>
<polyline fill="none" stroke="#000000" points="0,-82.5 166,-82.5 "/>
<text text-anchor="middle" x="83" y="-62.5" font-family="Helvetica,sans-Serif" font-size="20.00" fill="#000000"> </text>
<polyline fill="none" stroke="#000000" points="0,-52.5 166,-52.5 "/>
<text text-anchor="start" x="8" y="-32.5" font-family="Helvetica,sans-Serif" font-size="20.00" fill="#000000">+ AnfibioNativo()</text>
<text text-anchor="start" x="8" y="-10.5" font-family="Helvetica,sans-Serif" font-size="20.00" fill="#000000">+ ~AnfibioNativo()</text>
</a>
</g>
</g>
<!-- Node0&#45;&gt;Node2 -->
<g id="edge2" class="edge">
<title>Node0&#45;&gt;Node2</title>
<path fill="none" stroke="#191970" d="M271.8554,-180.2329C239.0799,-158.7592 200.1196,-133.2335 166.1229,-110.9598"/>
<polygon fill="none" stroke="#191970" points="270.2032,-183.3347 280.486,-185.8874 274.0394,-177.4794 270.2032,-183.3347"/>
</g>
<!-- Node3 -->
<g id="node4" class="node">
<title>Node3</title>
<g id="a_node4"><a xlink:href="classAveNativa.html" target="_top" xlink:title="Implementação de animal com Classe e Categoria. ">
<polygon fill="#ffffff" stroke="#000000" points="184,-.5 184,-112.5 324,-112.5 324,-.5 184,-.5"/>
<text text-anchor="middle" x="254" y="-92.5" font-family="Helvetica,sans-Serif" font-size="20.00" fill="#000000">AveNativa</text>
<polyline fill="none" stroke="#000000" points="184,-82.5 324,-82.5 "/>
<text text-anchor="middle" x="254" y="-62.5" font-family="Helvetica,sans-Serif" font-size="20.00" fill="#000000"> </text>
<polyline fill="none" stroke="#000000" points="184,-52.5 324,-52.5 "/>
<text text-anchor="start" x="192" y="-32.5" font-family="Helvetica,sans-Serif" font-size="20.00" fill="#000000">+ AveNativa()</text>
<text text-anchor="start" x="192" y="-10.5" font-family="Helvetica,sans-Serif" font-size="20.00" fill="#000000">+ ~AveNativa()</text>
</a>
</g>
</g>
<!-- Node0&#45;&gt;Node3 -->
<g id="edge3" class="edge">
<title>Node0&#45;&gt;Node3</title>
<path fill="none" stroke="#191970" d="M297.977,-140.0562C293.0608,-130.7155 288.1609,-121.4058 283.5122,-112.5732"/>
<polygon fill="none" stroke="#191970" points="294.933,-141.7876 302.6877,-149.0067 301.1274,-138.5274 294.933,-141.7876"/>
</g>
<!-- Node4 -->
<g id="node5" class="node">
<title>Node4</title>
<g id="a_node5"><a xlink:href="classMamiferoNativo.html" target="_top" xlink:title="Implementação de animal com Classe e Categoria. ">
<polygon fill="#ffffff" stroke="#000000" points="342.5,-.5 342.5,-112.5 527.5,-112.5 527.5,-.5 342.5,-.5"/>
<text text-anchor="middle" x="435" y="-92.5" font-family="Helvetica,sans-Serif" font-size="20.00" fill="#000000">MamiferoNativo</text>
<polyline fill="none" stroke="#000000" points="342.5,-82.5 527.5,-82.5 "/>
<text text-anchor="middle" x="435" y="-62.5" font-family="Helvetica,sans-Serif" font-size="20.00" fill="#000000"> </text>
<polyline fill="none" stroke="#000000" points="342.5,-52.5 527.5,-52.5 "/>
<text text-anchor="start" x="350.5" y="-32.5" font-family="Helvetica,sans-Serif" font-size="20.00" fill="#000000">+ MamiferoNativo()</text>
<text text-anchor="start" x="350.5" y="-10.5" font-family="Helvetica,sans-Serif" font-size="20.00" fill="#000000">+ ~MamiferoNativo()</text>
</a>
</g>
</g>
<!-- Node0&#45;&gt;Node4 -->
<g id="edge4" class="edge">
<title>Node0&#45;&gt;Node4</title>
<path fill="none" stroke="#191970" d="M390.5344,-140.0562C395.5052,-130.7155 400.4595,-121.4058 405.1599,-112.5732"/>
<polygon fill="none" stroke="#191970" points="387.3795,-138.5346 385.7713,-149.0067 393.5589,-141.8231 387.3795,-138.5346"/>
</g>
<!-- Node5 -->
<g id="node6" class="node">
<title>Node5</title>
<g id="a_node6"><a xlink:href="classReptilNativo.html" target="_top" xlink:title="Implementação de animal com Classe e Categoria. ">
<polygon fill="#ffffff" stroke="#000000" points="545.5,-.5 545.5,-112.5 700.5,-112.5 700.5,-.5 545.5,-.5"/>
<text text-anchor="middle" x="623" y="-92.5" font-family="Helvetica,sans-Serif" font-size="20.00" fill="#000000">ReptilNativo</text>
<polyline fill="none" stroke="#000000" points="545.5,-82.5 700.5,-82.5 "/>
<text text-anchor="middle" x="623" y="-62.5" font-family="Helvetica,sans-Serif" font-size="20.00" fill="#000000"> </text>
<polyline fill="none" stroke="#000000" points="545.5,-52.5 700.5,-52.5 "/>
<text text-anchor="start" x="553.5" y="-32.5" font-family="Helvetica,sans-Serif" font-size="20.00" fill="#000000">+ ReptilNativo()</text>
<text text-anchor="start" x="553.5" y="-10.5" font-family="Helvetica,sans-Serif" font-size="20.00" fill="#000000">+ ~ReptilNativo()</text>
</a>
</g>
</g>
<!-- Node0&#45;&gt;Node5 -->
<g id="edge5" class="edge">
<title>Node0&#45;&gt;Node5</title>
<path fill="none" stroke="#191970" d="M416.9488,-185.2834C453.2692,-163.9959 497.7048,-137.5463 537,-113 539.7272,-111.2964 542.4961,-109.553 545.2873,-107.7839"/>
<polygon fill="none" stroke="#191970" points="414.7609,-182.5085 407.8978,-190.58 418.2963,-188.5501 414.7609,-182.5085"/>
</g>
<!-- Node1 -->
<g id="node2" class="node">
<title>Node1</title>
<g id="a_node2"><a xlink:href="classAnimal.html" target="_top" xlink:title="Implementação base para o cadastro de animais. ">
<polygon fill="#ffffff" stroke="#000000" points="255,-342.5 255,-762.5 433,-762.5 433,-342.5 255,-342.5"/>
<text text-anchor="middle" x="344" y="-742.5" font-family="Helvetica,sans-Serif" font-size="20.00" fill="#000000">Animal</text>
<polyline fill="none" stroke="#000000" points="255,-732.5 433,-732.5 "/>
<text text-anchor="start" x="263" y="-712.5" font-family="Helvetica,sans-Serif" font-size="20.00" fill="#000000"># nome</text>
<text text-anchor="start" x="263" y="-690.5" font-family="Helvetica,sans-Serif" font-size="20.00" fill="#000000"># especie</text>
<text text-anchor="start" x="263" y="-668.5" font-family="Helvetica,sans-Serif" font-size="20.00" fill="#000000"># veterinario</text>
<text text-anchor="start" x="263" y="-646.5" font-family="Helvetica,sans-Serif" font-size="20.00" fill="#000000"># tratador</text>
<text text-anchor="start" x="263" y="-624.5" font-family="Helvetica,sans-Serif" font-size="20.00" fill="#000000"># perigoso</text>
<polyline fill="none" stroke="#000000" points="255,-614.5 433,-614.5 "/>
<text text-anchor="start" x="263" y="-594.5" font-family="Helvetica,sans-Serif" font-size="20.00" fill="#000000">+ Animal()</text>
<text text-anchor="start" x="263" y="-572.5" font-family="Helvetica,sans-Serif" font-size="20.00" fill="#000000">+ Animal()</text>
<text text-anchor="start" x="263" y="-550.5" font-family="Helvetica,sans-Serif" font-size="20.00" fill="#000000">+ ~Animal()</text>
<text text-anchor="start" x="263" y="-528.5" font-family="Helvetica,sans-Serif" font-size="20.00" fill="#000000">+ getNome()</text>
<text text-anchor="start" x="263" y="-506.5" font-family="Helvetica,sans-Serif" font-size="20.00" fill="#000000">+ getEspecie()</text>
<text text-anchor="start" x="263" y="-484.5" font-family="Helvetica,sans-Serif" font-size="20.00" fill="#000000">+ getVeterinario()</text>
<text text-anchor="start" x="263" y="-462.5" font-family="Helvetica,sans-Serif" font-size="20.00" fill="#000000">+ getTratador()</text>
<text text-anchor="start" x="263" y="-440.5" font-family="Helvetica,sans-Serif" font-size="20.00" fill="#000000">+ getPerigoso()</text>
<text text-anchor="start" x="263" y="-418.5" font-family="Helvetica,sans-Serif" font-size="20.00" fill="#000000">+ getClassificacao()</text>
<text text-anchor="start" x="263" y="-396.5" font-family="Helvetica,sans-Serif" font-size="20.00" fill="#000000">+ getClasse()</text>
<text text-anchor="start" x="263" y="-374.5" font-family="Helvetica,sans-Serif" font-size="20.00" fill="#000000">+ printOutDados()</text>
<text text-anchor="start" x="263" y="-352.5" font-family="Helvetica,sans-Serif" font-size="20.00" fill="#000000">+ operator==()</text>
</a>
</g>
</g>
<!-- Node1&#45;&gt;Node0 -->
<g id="edge1" class="edge">
<title>Node1&#45;&gt;Node0</title>
<path fill="none" stroke="#191970" d="M344,-332.0665C344,-322.9314 344,-314.0773 344,-305.6428"/>
<polygon fill="none" stroke="#191970" points="340.5001,-332.0828 344,-342.0828 347.5001,-332.0829 340.5001,-332.0828"/>
</g>
</g>
</svg>
