<?xml version="1.0" encoding="UTF-8" standalone="no"?>
<!DOCTYPE svg PUBLIC "-//W3C//DTD SVG 1.1//EN"
 "http://www.w3.org/Graphics/SVG/1.1/DTD/svg11.dtd">
<!-- Generated by graphviz version 2.40.1 (20161225.0304)
 -->
<!-- Title: AnfibioNativo Pages: 1 -->
<svg width="303pt" height="793pt"
 viewBox="0.00 0.00 303.00 793.00" xmlns="http://www.w3.org/2000/svg" xmlns:xlink="http://www.w3.org/1999/xlink">
<g id="graph0" class="graph" transform="scale(1 1) rotate(0) translate(4 789)">
<title>AnfibioNativo</title>
<polygon fill="#ffffff" stroke="transparent" points="-4,4 -4,-789 299,-789 299,4 -4,4"/>
<!-- Node0 -->
<g id="node1" class="node">
<title>Node0</title>
<polygon fill="#bfbfbf" stroke="#000000" points="51,-.5 51,-112.5 217,-112.5 217,-.5 51,-.5"/>
<text text-anchor="middle" x="134" y="-92.5" font-family="Helvetica,sans-Serif" font-size="20.00" fill="#000000">AnfibioNativo</text>
<polyline fill="none" stroke="#000000" points="51,-82.5 217,-82.5 "/>
<text text-anchor="middle" x="134" y="-62.5" font-family="Helvetica,sans-Serif" font-size="20.00" fill="#000000"> </text>
<polyline fill="none" stroke="#000000" points="51,-52.5 217,-52.5 "/>
<text text-anchor="start" x="59" y="-32.5" font-family="Helvetica,sans-Serif" font-size="20.00" fill="#000000">+ AnfibioNativo()</text>
<text text-anchor="start" x="59" y="-10.5" font-family="Helvetica,sans-Serif" font-size="20.00" fill="#000000">+ ~AnfibioNativo()</text>
</g>
<!-- Node1 -->
<g id="node2" class="node">
<title>Node1</title>
<g id="a_node2"><a xlink:href="classAnfibio.html" target="_top" xlink:title="Classificação base para Anfibios. ">
<polygon fill="#ffffff" stroke="#000000" points="0,-149.5 0,-327.5 124,-327.5 124,-149.5 0,-149.5"/>
<text text-anchor="middle" x="62" y="-307.5" font-family="Helvetica,sans-Serif" font-size="20.00" fill="#000000">Anfibio</text>
<polyline fill="none" stroke="#000000" points="0,-297.5 124,-297.5 "/>
<text text-anchor="start" x="8" y="-277.5" font-family="Helvetica,sans-Serif" font-size="20.00" fill="#000000"># cauda</text>
<text text-anchor="start" x="8" y="-255.5" font-family="Helvetica,sans-Serif" font-size="20.00" fill="#000000"># pata</text>
<polyline fill="none" stroke="#000000" points="0,-245.5 124,-245.5 "/>
<text text-anchor="start" x="8" y="-225.5" font-family="Helvetica,sans-Serif" font-size="20.00" fill="#000000">+ Anfibio()</text>
<text text-anchor="start" x="8" y="-203.5" font-family="Helvetica,sans-Serif" font-size="20.00" fill="#000000">+ ~Anfibio()</text>
<text text-anchor="start" x="8" y="-181.5" font-family="Helvetica,sans-Serif" font-size="20.00" fill="#000000">+ getCauda()</text>
<text text-anchor="start" x="8" y="-159.5" font-family="Helvetica,sans-Serif" font-size="20.00" fill="#000000">+ getPata()</text>
</a>
</g>
</g>
<!-- Node1&#45;&gt;Node0 -->
<g id="edge1" class="edge">
<title>Node1&#45;&gt;Node0</title>
<path fill="none" stroke="#191970" d="M100.9739,-139.9828C104.6777,-130.6202 108.3393,-121.3646 111.8003,-112.6158"/>
<polygon fill="none" stroke="#191970" points="97.6859,-138.7797 97.2618,-149.3661 104.1951,-141.3548 97.6859,-138.7797"/>
</g>
<!-- Node2 -->
<g id="node3" class="node">
<title>Node2</title>
<g id="a_node3"><a xlink:href="classNativo.html" target="_top" xlink:title="Umas das definições de categoria para Animal. ">
<polygon fill="#ffffff" stroke="#000000" points="142.5,-160.5 142.5,-316.5 269.5,-316.5 269.5,-160.5 142.5,-160.5"/>
<text text-anchor="middle" x="206" y="-296.5" font-family="Helvetica,sans-Serif" font-size="20.00" fill="#000000">Nativo</text>
<polyline fill="none" stroke="#000000" points="142.5,-286.5 269.5,-286.5 "/>
<text text-anchor="start" x="150.5" y="-266.5" font-family="Helvetica,sans-Serif" font-size="20.00" fill="#000000"># regiao</text>
<polyline fill="none" stroke="#000000" points="142.5,-256.5 269.5,-256.5 "/>
<text text-anchor="start" x="150.5" y="-236.5" font-family="Helvetica,sans-Serif" font-size="20.00" fill="#000000">+ Nativo()</text>
<text text-anchor="start" x="150.5" y="-214.5" font-family="Helvetica,sans-Serif" font-size="20.00" fill="#000000">+ Nativo()</text>
<text text-anchor="start" x="150.5" y="-192.5" font-family="Helvetica,sans-Serif" font-size="20.00" fill="#000000">+ ~Nativo()</text>
<text text-anchor="start" x="150.5" y="-170.5" font-family="Helvetica,sans-Serif" font-size="20.00" fill="#000000">+ getRegiao()</text>
</a>
</g>
</g>
<!-- Node2&#45;&gt;Node0 -->
<g id="edge2" class="edge">
<title>Node2&#45;&gt;Node0</title>
<path fill="none" stroke="#191970" d="M171.3222,-150.8421C166.1889,-137.8663 161.0197,-124.7998 156.2329,-112.6997"/>
<polygon fill="none" stroke="#191970" points="168.1144,-152.2481 175.0477,-160.2594 174.6235,-149.673 168.1144,-152.2481"/>
</g>
<!-- Node3 -->
<g id="node4" class="node">
<title>Node3</title>
<g id="a_node4"><a xlink:href="classAnimal.html" target="_top" xlink:title="Implementação base para o cadastro de animais. ">
<polygon fill="#ffffff" stroke="#000000" points="117,-364.5 117,-784.5 295,-784.5 295,-364.5 117,-364.5"/>
<text text-anchor="middle" x="206" y="-764.5" font-family="Helvetica,sans-Serif" font-size="20.00" fill="#000000">Animal</text>
<polyline fill="none" stroke="#000000" points="117,-754.5 295,-754.5 "/>
<text text-anchor="start" x="125" y="-734.5" font-family="Helvetica,sans-Serif" font-size="20.00" fill="#000000"># nome</text>
<text text-anchor="start" x="125" y="-712.5" font-family="Helvetica,sans-Serif" font-size="20.00" fill="#000000"># especie</text>
<text text-anchor="start" x="125" y="-690.5" font-family="Helvetica,sans-Serif" font-size="20.00" fill="#000000"># veterinario</text>
<text text-anchor="start" x="125" y="-668.5" font-family="Helvetica,sans-Serif" font-size="20.00" fill="#000000"># tratador</text>
<text text-anchor="start" x="125" y="-646.5" font-family="Helvetica,sans-Serif" font-size="20.00" fill="#000000"># perigoso</text>
<polyline fill="none" stroke="#000000" points="117,-636.5 295,-636.5 "/>
<text text-anchor="start" x="125" y="-616.5" font-family="Helvetica,sans-Serif" font-size="20.00" fill="#000000">+ Animal()</text>
<text text-anchor="start" x="125" y="-594.5" font-family="Helvetica,sans-Serif" font-size="20.00" fill="#000000">+ Animal()</text>
<text text-anchor="start" x="125" y="-572.5" font-family="Helvetica,sans-Serif" font-size="20.00" fill="#000000">+ ~Animal()</text>
<text text-anchor="start" x="125" y="-550.5" font-family="Helvetica,sans-Serif" font-size="20.00" fill="#000000">+ getNome()</text>
<text text-anchor="start" x="125" y="-528.5" font-family="Helvetica,sans-Serif" font-size="20.00" fill="#000000">+ getEspecie()</text>
<text text-anchor="start" x="125" y="-506.5" font-family="Helvetica,sans-Serif" font-size="20.00" fill="#000000">+ getVeterinario()</text>
<text text-anchor="start" x="125" y="-484.5" font-family="Helvetica,sans-Serif" font-size="20.00" fill="#000000">+ getTratador()</text>
<text text-anchor="start" x="125" y="-462.5" font-family="Helvetica,sans-Serif" font-size="20.00" fill="#000000">+ getPerigoso()</text>
<text text-anchor="start" x="125" y="-440.5" font-family="Helvetica,sans-Serif" font-size="20.00" fill="#000000">+ getClassificacao()</text>
<text text-anchor="start" x="125" y="-418.5" font-family="Helvetica,sans-Serif" font-size="20.00" fill="#000000">+ getClasse()</text>
<text text-anchor="start" x="125" y="-396.5" font-family="Helvetica,sans-Serif" font-size="20.00" fill="#000000">+ printOutDados()</text>
<text text-anchor="start" x="125" y="-374.5" font-family="Helvetica,sans-Serif" font-size="20.00" fill="#000000">+ operator==()</text>
</a>
</g>
</g>
<!-- Node3&#45;&gt;Node2 -->
<g id="edge3" class="edge">
<title>Node3&#45;&gt;Node2</title>
<path fill="none" stroke="#191970" d="M206,-354.017C206,-340.9544 206,-328.3624 206,-316.6032"/>
<polygon fill="none" stroke="#191970" points="202.5001,-354.0918 206,-364.0918 209.5001,-354.0918 202.5001,-354.0918"/>
</g>
</g>
</svg>
