<?xml version="1.0" encoding="UTF-8" standalone="no"?>
<!DOCTYPE svg PUBLIC "-//W3C//DTD SVG 1.1//EN"
 "http://www.w3.org/Graphics/SVG/1.1/DTD/svg11.dtd">
<!-- Generated by graphviz version 2.40.1 (20161225.0304)
 -->
<!-- Title: Veterinario Pages: 1 -->
<svg width="291pt" height="662pt"
 viewBox="0.00 0.00 291.00 662.00" xmlns="http://www.w3.org/2000/svg" xmlns:xlink="http://www.w3.org/1999/xlink">
<g id="graph0" class="graph" transform="scale(1 1) rotate(0) translate(4 658)">
<title>Veterinario</title>
<polygon fill="#ffffff" stroke="transparent" points="-4,4 -4,-658 287,-658 287,4 -4,4"/>
<!-- Node2 -->
<g id="node1" class="node">
<title>Node2</title>
<polygon fill="#bfbfbf" stroke="#000000" points="0,-.5 0,-178.5 164,-178.5 164,-.5 0,-.5"/>
<text text-anchor="middle" x="82" y="-158.5" font-family="Helvetica,sans-Serif" font-size="20.00" fill="#000000">Veterinario</text>
<polyline fill="none" stroke="#000000" points="0,-148.5 164,-148.5 "/>
<text text-anchor="middle" x="82" y="-128.5" font-family="Helvetica,sans-Serif" font-size="20.00" fill="#000000"> </text>
<polyline fill="none" stroke="#000000" points="0,-118.5 164,-118.5 "/>
<text text-anchor="start" x="8" y="-98.5" font-family="Helvetica,sans-Serif" font-size="20.00" fill="#000000">+ Veterinario()</text>
<text text-anchor="start" x="8" y="-76.5" font-family="Helvetica,sans-Serif" font-size="20.00" fill="#000000">+ Veterinario()</text>
<text text-anchor="start" x="8" y="-54.5" font-family="Helvetica,sans-Serif" font-size="20.00" fill="#000000">+ ~Veterinario()</text>
<text text-anchor="start" x="8" y="-32.5" font-family="Helvetica,sans-Serif" font-size="20.00" fill="#000000">+ getCRMV()</text>
<text text-anchor="start" x="8" y="-10.5" font-family="Helvetica,sans-Serif" font-size="20.00" fill="#000000">+ printOutDados()</text>
</g>
<!-- Node3 -->
<g id="node2" class="node">
<title>Node3</title>
<g id="a_node2"><a xlink:href="classPessoa.html" target="_top" xlink:title="Classe base dos funcionarios. ">
<polygon fill="#ffffff" stroke="#000000" points="119,-216.5 119,-460.5 283,-460.5 283,-216.5 119,-216.5"/>
<text text-anchor="middle" x="201" y="-440.5" font-family="Helvetica,sans-Serif" font-size="20.00" fill="#000000">Pessoa</text>
<polyline fill="none" stroke="#000000" points="119,-430.5 283,-430.5 "/>
<text text-anchor="middle" x="201" y="-410.5" font-family="Helvetica,sans-Serif" font-size="20.00" fill="#000000"> </text>
<polyline fill="none" stroke="#000000" points="119,-400.5 283,-400.5 "/>
<text text-anchor="start" x="127" y="-380.5" font-family="Helvetica,sans-Serif" font-size="20.00" fill="#000000">+ Pessoa()</text>
<text text-anchor="start" x="127" y="-358.5" font-family="Helvetica,sans-Serif" font-size="20.00" fill="#000000">+ Pessoa()</text>
<text text-anchor="start" x="127" y="-336.5" font-family="Helvetica,sans-Serif" font-size="20.00" fill="#000000">+ ~Pessoa()</text>
<text text-anchor="start" x="127" y="-314.5" font-family="Helvetica,sans-Serif" font-size="20.00" fill="#000000">+ getNome()</text>
<text text-anchor="start" x="127" y="-292.5" font-family="Helvetica,sans-Serif" font-size="20.00" fill="#000000">+ getTelefone()</text>
<text text-anchor="start" x="127" y="-270.5" font-family="Helvetica,sans-Serif" font-size="20.00" fill="#000000">+ getEmail()</text>
<text text-anchor="start" x="127" y="-248.5" font-family="Helvetica,sans-Serif" font-size="20.00" fill="#000000">+ printOutDados()</text>
<text text-anchor="start" x="127" y="-226.5" font-family="Helvetica,sans-Serif" font-size="20.00" fill="#000000">+ operator==()</text>
</a>
</g>
</g>
<!-- Node3&#45;&gt;Node2 -->
<g id="edge1" class="edge">
<title>Node3&#45;&gt;Node2</title>
<path fill="none" stroke="#191970" d="M138.1481,-206.9864C133.5661,-197.3987 129.0106,-187.8667 124.5908,-178.6187"/>
<polygon fill="none" stroke="#191970" points="135.0759,-208.675 142.5459,-216.1884 141.3917,-205.6566 135.0759,-208.675"/>
</g>
<!-- Node4 -->
<g id="node3" class="node">
<title>Node4</title>
<polygon fill="#ffffff" stroke="#bfbfbf" points="19,-563.5 19,-653.5 83,-653.5 83,-563.5 19,-563.5"/>
<text text-anchor="middle" x="51" y="-633.5" font-family="Helvetica,sans-Serif" font-size="20.00" fill="#000000">string</text>
<polyline fill="none" stroke="#bfbfbf" points="19,-623.5 83,-623.5 "/>
<text text-anchor="middle" x="51" y="-603.5" font-family="Helvetica,sans-Serif" font-size="20.00" fill="#000000"> </text>
<polyline fill="none" stroke="#bfbfbf" points="19,-593.5 83,-593.5 "/>
<text text-anchor="middle" x="51" y="-573.5" font-family="Helvetica,sans-Serif" font-size="20.00" fill="#000000"> </text>
</g>
<!-- Node4&#45;&gt;Node2 -->
<g id="edge3" class="edge">
<title>Node4&#45;&gt;Node2</title>
<path fill="none" stroke="#404040" d="M45.4532,-563.4594C37.4873,-490.1698 25.6684,-340.7437 44,-216 45.2378,-207.5772 46.9157,-198.937 48.8801,-190.3195"/>
<polygon fill="none" stroke="#404040" points="48.8928,-190.2669 46.4201,-183.4929 51.7219,-178.6051 54.1946,-185.379 48.8928,-190.2669"/>
<text text-anchor="middle" x="77" y="-333.5" font-family="Helvetica,sans-Serif" font-size="20.00" fill="#000000"> &#45;CRMV</text>
</g>
<!-- Node4&#45;&gt;Node3 -->
<g id="edge2" class="edge">
<title>Node4&#45;&gt;Node3</title>
<path fill="none" stroke="#404040" d="M76.1066,-563.3081C90.2548,-537.8413 108.7383,-504.5711 127.131,-471.4641"/>
<polygon fill="none" stroke="#404040" points="127.2661,-471.2209 126.6834,-464.0333 133.0939,-460.731 133.6767,-467.9185 127.2661,-471.2209"/>
<text text-anchor="middle" x="159.5" y="-529" font-family="Helvetica,sans-Serif" font-size="20.00" fill="#000000"> #email</text>
<text text-anchor="middle" x="159.5" y="-507" font-family="Helvetica,sans-Serif" font-size="20.00" fill="#000000">#nome</text>
<text text-anchor="middle" x="159.5" y="-485" font-family="Helvetica,sans-Serif" font-size="20.00" fill="#000000">#telefone</text>
</g>
</g>
</svg>
