<?xml version="1.0" encoding="UTF-8" standalone="no"?>
<!DOCTYPE svg PUBLIC "-//W3C//DTD SVG 1.1//EN"
 "http://www.w3.org/Graphics/SVG/1.1/DTD/svg11.dtd">
<!-- Generated by graphviz version 2.40.1 (20161225.0304)
 -->
<!-- Title: AveExotica Pages: 1 -->
<svg width="718pt" height="1596pt"
 viewBox="0.00 0.00 718.00 1596.00" xmlns="http://www.w3.org/2000/svg" xmlns:xlink="http://www.w3.org/1999/xlink">
<g id="graph0" class="graph" transform="scale(1 1) rotate(0) translate(4 1592)">
<title>AveExotica</title>
<polygon fill="#ffffff" stroke="transparent" points="-4,4 -4,-1592 714,-1592 714,4 -4,4"/>
<!-- Node4 -->
<g id="node1" class="node">
<title>Node4</title>
<polygon fill="#bfbfbf" stroke="#000000" points="66,-.5 66,-112.5 212,-112.5 212,-.5 66,-.5"/>
<text text-anchor="middle" x="139" y="-92.5" font-family="Helvetica,sans-Serif" font-size="20.00" fill="#000000">AveExotica</text>
<polyline fill="none" stroke="#000000" points="66,-82.5 212,-82.5 "/>
<text text-anchor="middle" x="139" y="-62.5" font-family="Helvetica,sans-Serif" font-size="20.00" fill="#000000"> </text>
<polyline fill="none" stroke="#000000" points="66,-52.5 212,-52.5 "/>
<text text-anchor="start" x="74" y="-32.5" font-family="Helvetica,sans-Serif" font-size="20.00" fill="#000000">+ AveExotica()</text>
<text text-anchor="start" x="74" y="-10.5" font-family="Helvetica,sans-Serif" font-size="20.00" fill="#000000">+ ~AveExotica()</text>
</g>
<!-- Node5 -->
<g id="node2" class="node">
<title>Node5</title>
<g id="a_node2"><a xlink:href="classAve.html" target="_top" xlink:title="Classificação base para Aves. ">
<polygon fill="#ffffff" stroke="#000000" points="0,-325.5 0,-481.5 102,-481.5 102,-325.5 0,-325.5"/>
<text text-anchor="middle" x="51" y="-461.5" font-family="Helvetica,sans-Serif" font-size="20.00" fill="#000000">Ave</text>
<polyline fill="none" stroke="#000000" points="0,-451.5 102,-451.5 "/>
<text text-anchor="middle" x="51" y="-431.5" font-family="Helvetica,sans-Serif" font-size="20.00" fill="#000000"> </text>
<polyline fill="none" stroke="#000000" points="0,-421.5 102,-421.5 "/>
<text text-anchor="start" x="8" y="-401.5" font-family="Helvetica,sans-Serif" font-size="20.00" fill="#000000">+ Ave()</text>
<text text-anchor="start" x="8" y="-379.5" font-family="Helvetica,sans-Serif" font-size="20.00" fill="#000000">+ Ave()</text>
<text text-anchor="start" x="8" y="-357.5" font-family="Helvetica,sans-Serif" font-size="20.00" fill="#000000">+ ~Ave()</text>
<text text-anchor="start" x="8" y="-335.5" font-family="Helvetica,sans-Serif" font-size="20.00" fill="#000000">+ getVoa()</text>
</a>
</g>
</g>
<!-- Node5&#45;&gt;Node4 -->
<g id="edge1" class="edge">
<title>Node5&#45;&gt;Node4</title>
<path fill="none" stroke="#191970" d="M73.4051,-315.1524C89.5601,-251.4504 110.8795,-167.3841 124.7607,-112.6481"/>
<polygon fill="none" stroke="#191970" points="69.9243,-314.6402 70.8586,-325.1938 76.7095,-316.361 69.9243,-314.6402"/>
</g>
<!-- Node6 -->
<g id="node3" class="node">
<title>Node6</title>
<polygon fill="#ffffff" stroke="#bfbfbf" points="17.5,-935.5 17.5,-1025.5 68.5,-1025.5 68.5,-935.5 17.5,-935.5"/>
<text text-anchor="middle" x="43" y="-1005.5" font-family="Helvetica,sans-Serif" font-size="20.00" fill="#000000">bool</text>
<polyline fill="none" stroke="#bfbfbf" points="17.5,-995.5 68.5,-995.5 "/>
<text text-anchor="middle" x="43" y="-975.5" font-family="Helvetica,sans-Serif" font-size="20.00" fill="#000000"> </text>
<polyline fill="none" stroke="#bfbfbf" points="17.5,-965.5 68.5,-965.5 "/>
<text text-anchor="middle" x="43" y="-945.5" font-family="Helvetica,sans-Serif" font-size="20.00" fill="#000000"> </text>
</g>
<!-- Node6&#45;&gt;Node5 -->
<g id="edge2" class="edge">
<title>Node6&#45;&gt;Node5</title>
<path fill="none" stroke="#404040" d="M31.1229,-935.3342C26.6829,-916.2474 22.1884,-893.6879 20,-873 18.9714,-863.2765 19.6619,-860.7719 20,-851 24.2861,-727.1068 35.228,-584.2652 42.8912,-493.9425"/>
<polygon fill="none" stroke="#404040" points="42.9047,-493.7837 39.4299,-487.465 43.9262,-481.8272 47.4009,-488.146 42.9047,-493.7837"/>
<text text-anchor="middle" x="42.5" y="-857" font-family="Helvetica,sans-Serif" font-size="20.00" fill="#000000"> #voa</text>
</g>
<!-- Node8 -->
<g id="node5" class="node">
<title>Node8</title>
<g id="a_node5"><a xlink:href="classAnimal.html" target="_top" xlink:title="Implementação base para o cadastro de animais. ">
<polygon fill="#ffffff" stroke="#000000" points="144,-500.5 144,-832.5 322,-832.5 322,-500.5 144,-500.5"/>
<text text-anchor="middle" x="233" y="-812.5" font-family="Helvetica,sans-Serif" font-size="20.00" fill="#000000">Animal</text>
<polyline fill="none" stroke="#000000" points="144,-802.5 322,-802.5 "/>
<text text-anchor="middle" x="233" y="-782.5" font-family="Helvetica,sans-Serif" font-size="20.00" fill="#000000"> </text>
<polyline fill="none" stroke="#000000" points="144,-772.5 322,-772.5 "/>
<text text-anchor="start" x="152" y="-752.5" font-family="Helvetica,sans-Serif" font-size="20.00" fill="#000000">+ Animal()</text>
<text text-anchor="start" x="152" y="-730.5" font-family="Helvetica,sans-Serif" font-size="20.00" fill="#000000">+ Animal()</text>
<text text-anchor="start" x="152" y="-708.5" font-family="Helvetica,sans-Serif" font-size="20.00" fill="#000000">+ ~Animal()</text>
<text text-anchor="start" x="152" y="-686.5" font-family="Helvetica,sans-Serif" font-size="20.00" fill="#000000">+ getNome()</text>
<text text-anchor="start" x="152" y="-664.5" font-family="Helvetica,sans-Serif" font-size="20.00" fill="#000000">+ getEspecie()</text>
<text text-anchor="start" x="152" y="-642.5" font-family="Helvetica,sans-Serif" font-size="20.00" fill="#000000">+ getVeterinario()</text>
<text text-anchor="start" x="152" y="-620.5" font-family="Helvetica,sans-Serif" font-size="20.00" fill="#000000">+ getTratador()</text>
<text text-anchor="start" x="152" y="-598.5" font-family="Helvetica,sans-Serif" font-size="20.00" fill="#000000">+ getPerigoso()</text>
<text text-anchor="start" x="152" y="-576.5" font-family="Helvetica,sans-Serif" font-size="20.00" fill="#000000">+ getClassificacao()</text>
<text text-anchor="start" x="152" y="-554.5" font-family="Helvetica,sans-Serif" font-size="20.00" fill="#000000">+ getClasse()</text>
<text text-anchor="start" x="152" y="-532.5" font-family="Helvetica,sans-Serif" font-size="20.00" fill="#000000">+ printOutDados()</text>
<text text-anchor="start" x="152" y="-510.5" font-family="Helvetica,sans-Serif" font-size="20.00" fill="#000000">+ operator==()</text>
</a>
</g>
</g>
<!-- Node6&#45;&gt;Node8 -->
<g id="edge9" class="edge">
<title>Node6&#45;&gt;Node8</title>
<path fill="none" stroke="#404040" d="M50.2113,-935.265C55.5171,-909.5452 64.2526,-877.3199 78,-851 93.5248,-821.2772 114.5236,-792.0794 136.0464,-765.9918"/>
<polygon fill="none" stroke="#404040" points="136.2761,-765.718 137.0692,-758.5506 143.9903,-756.5261 143.1972,-763.6935 136.2761,-765.718"/>
<text text-anchor="middle" x="121" y="-857" font-family="Helvetica,sans-Serif" font-size="20.00" fill="#000000"> #perigoso</text>
</g>
<!-- Node7 -->
<g id="node4" class="node">
<title>Node7</title>
<g id="a_node4"><a xlink:href="classExotico.html" target="_top" xlink:title="Umas das definições de categoria para Animal. ">
<polygon fill="#ffffff" stroke="#000000" points="176,-150.5 176,-306.5 290,-306.5 290,-150.5 176,-150.5"/>
<text text-anchor="middle" x="233" y="-286.5" font-family="Helvetica,sans-Serif" font-size="20.00" fill="#000000">Exotico</text>
<polyline fill="none" stroke="#000000" points="176,-276.5 290,-276.5 "/>
<text text-anchor="middle" x="233" y="-256.5" font-family="Helvetica,sans-Serif" font-size="20.00" fill="#000000"> </text>
<polyline fill="none" stroke="#000000" points="176,-246.5 290,-246.5 "/>
<text text-anchor="start" x="184" y="-226.5" font-family="Helvetica,sans-Serif" font-size="20.00" fill="#000000">+ Exotico()</text>
<text text-anchor="start" x="184" y="-204.5" font-family="Helvetica,sans-Serif" font-size="20.00" fill="#000000">+ Exotico()</text>
<text text-anchor="start" x="184" y="-182.5" font-family="Helvetica,sans-Serif" font-size="20.00" fill="#000000">+ ~Exotico()</text>
<text text-anchor="start" x="184" y="-160.5" font-family="Helvetica,sans-Serif" font-size="20.00" fill="#000000">+ getLocal()</text>
</a>
</g>
</g>
<!-- Node7&#45;&gt;Node4 -->
<g id="edge3" class="edge">
<title>Node7&#45;&gt;Node4</title>
<path fill="none" stroke="#191970" d="M185.3742,-141.3549C180.0452,-131.604 174.7269,-121.8727 169.6935,-112.6626"/>
<polygon fill="none" stroke="#191970" points="182.3963,-143.2044 190.2633,-150.301 188.5389,-139.8474 182.3963,-143.2044"/>
</g>
<!-- Node8&#45;&gt;Node7 -->
<g id="edge4" class="edge">
<title>Node8&#45;&gt;Node7</title>
<path fill="none" stroke="#191970" d="M233,-490.0977C233,-426.3242 233,-357.5378 233,-306.5127"/>
<polygon fill="none" stroke="#191970" points="229.5001,-490.2864 233,-500.2864 236.5001,-490.2865 229.5001,-490.2864"/>
</g>
<!-- Node9 -->
<g id="node6" class="node">
<title>Node9</title>
<g id="a_node6"><a xlink:href="classTratador.html" target="_top" xlink:title="Implementação dos tratadores. ">
<polygon fill="#ffffff" stroke="#000000" points="388,-891.5 388,-1069.5 552,-1069.5 552,-891.5 388,-891.5"/>
<text text-anchor="middle" x="470" y="-1049.5" font-family="Helvetica,sans-Serif" font-size="20.00" fill="#000000">Tratador</text>
<polyline fill="none" stroke="#000000" points="388,-1039.5 552,-1039.5 "/>
<text text-anchor="middle" x="470" y="-1019.5" font-family="Helvetica,sans-Serif" font-size="20.00" fill="#000000"> </text>
<polyline fill="none" stroke="#000000" points="388,-1009.5 552,-1009.5 "/>
<text text-anchor="start" x="396" y="-989.5" font-family="Helvetica,sans-Serif" font-size="20.00" fill="#000000">+ Tratador()</text>
<text text-anchor="start" x="396" y="-967.5" font-family="Helvetica,sans-Serif" font-size="20.00" fill="#000000">+ Tratador()</text>
<text text-anchor="start" x="396" y="-945.5" font-family="Helvetica,sans-Serif" font-size="20.00" fill="#000000">+ ~Tratador()</text>
<text text-anchor="start" x="396" y="-923.5" font-family="Helvetica,sans-Serif" font-size="20.00" fill="#000000">+ getUniforme()</text>
<text text-anchor="start" x="396" y="-901.5" font-family="Helvetica,sans-Serif" font-size="20.00" fill="#000000">+ printOutDados()</text>
</a>
</g>
</g>
<!-- Node9&#45;&gt;Node8 -->
<g id="edge5" class="edge">
<title>Node9&#45;&gt;Node8</title>
<path fill="none" stroke="#404040" d="M405.8965,-891.4098C395.9567,-877.8217 385.7527,-864.0005 376,-851 361.094,-831.1301 345.1284,-810.1985 329.4649,-789.8526"/>
<polygon fill="none" stroke="#404040" points="329.3782,-789.7401 322.5469,-787.4308 322.0512,-780.2367 328.8825,-782.5461 329.3782,-789.7401"/>
<text text-anchor="middle" x="431.5" y="-857" font-family="Helvetica,sans-Serif" font-size="20.00" fill="#000000"> #tratador</text>
</g>
<!-- Node10 -->
<g id="node7" class="node">
<title>Node10</title>
<g id="a_node7"><a xlink:href="classPessoa.html" target="_top" xlink:title="Classe base dos funcionarios. ">
<polygon fill="#ffffff" stroke="#000000" points="355,-1150.5 355,-1394.5 519,-1394.5 519,-1150.5 355,-1150.5"/>
<text text-anchor="middle" x="437" y="-1374.5" font-family="Helvetica,sans-Serif" font-size="20.00" fill="#000000">Pessoa</text>
<polyline fill="none" stroke="#000000" points="355,-1364.5 519,-1364.5 "/>
<text text-anchor="middle" x="437" y="-1344.5" font-family="Helvetica,sans-Serif" font-size="20.00" fill="#000000"> </text>
<polyline fill="none" stroke="#000000" points="355,-1334.5 519,-1334.5 "/>
<text text-anchor="start" x="363" y="-1314.5" font-family="Helvetica,sans-Serif" font-size="20.00" fill="#000000">+ Pessoa()</text>
<text text-anchor="start" x="363" y="-1292.5" font-family="Helvetica,sans-Serif" font-size="20.00" fill="#000000">+ Pessoa()</text>
<text text-anchor="start" x="363" y="-1270.5" font-family="Helvetica,sans-Serif" font-size="20.00" fill="#000000">+ ~Pessoa()</text>
<text text-anchor="start" x="363" y="-1248.5" font-family="Helvetica,sans-Serif" font-size="20.00" fill="#000000">+ getNome()</text>
<text text-anchor="start" x="363" y="-1226.5" font-family="Helvetica,sans-Serif" font-size="20.00" fill="#000000">+ getTelefone()</text>
<text text-anchor="start" x="363" y="-1204.5" font-family="Helvetica,sans-Serif" font-size="20.00" fill="#000000">+ getEmail()</text>
<text text-anchor="start" x="363" y="-1182.5" font-family="Helvetica,sans-Serif" font-size="20.00" fill="#000000">+ printOutDados()</text>
<text text-anchor="start" x="363" y="-1160.5" font-family="Helvetica,sans-Serif" font-size="20.00" fill="#000000">+ operator==()</text>
</a>
</g>
</g>
<!-- Node10&#45;&gt;Node9 -->
<g id="edge6" class="edge">
<title>Node10&#45;&gt;Node9</title>
<path fill="none" stroke="#191970" d="M451.9547,-1140.1738C454.65,-1116.324 457.4009,-1091.9833 459.9161,-1069.7273"/>
<polygon fill="none" stroke="#191970" points="448.449,-1140.0278 450.8038,-1150.3576 455.4047,-1140.8139 448.449,-1140.0278"/>
</g>
<!-- Node13 -->
<g id="node10" class="node">
<title>Node13</title>
<g id="a_node10"><a xlink:href="classVeterinario.html" target="_top" xlink:title="Implementação dos veterinarios. ">
<polygon fill="#ffffff" stroke="#000000" points="206,-891.5 206,-1069.5 370,-1069.5 370,-891.5 206,-891.5"/>
<text text-anchor="middle" x="288" y="-1049.5" font-family="Helvetica,sans-Serif" font-size="20.00" fill="#000000">Veterinario</text>
<polyline fill="none" stroke="#000000" points="206,-1039.5 370,-1039.5 "/>
<text text-anchor="middle" x="288" y="-1019.5" font-family="Helvetica,sans-Serif" font-size="20.00" fill="#000000"> </text>
<polyline fill="none" stroke="#000000" points="206,-1009.5 370,-1009.5 "/>
<text text-anchor="start" x="214" y="-989.5" font-family="Helvetica,sans-Serif" font-size="20.00" fill="#000000">+ Veterinario()</text>
<text text-anchor="start" x="214" y="-967.5" font-family="Helvetica,sans-Serif" font-size="20.00" fill="#000000">+ Veterinario()</text>
<text text-anchor="start" x="214" y="-945.5" font-family="Helvetica,sans-Serif" font-size="20.00" fill="#000000">+ ~Veterinario()</text>
<text text-anchor="start" x="214" y="-923.5" font-family="Helvetica,sans-Serif" font-size="20.00" fill="#000000">+ getCRMV()</text>
<text text-anchor="start" x="214" y="-901.5" font-family="Helvetica,sans-Serif" font-size="20.00" fill="#000000">+ printOutDados()</text>
</a>
</g>
</g>
<!-- Node10&#45;&gt;Node13 -->
<g id="edge12" class="edge">
<title>Node10&#45;&gt;Node13</title>
<path fill="none" stroke="#191970" d="M369.9662,-1141.1318C357.6404,-1116.9764 345.0391,-1092.2813 333.5304,-1069.7273"/>
<polygon fill="none" stroke="#191970" points="367.0111,-1143.0411 374.6739,-1150.3576 373.2462,-1139.8594 367.0111,-1143.0411"/>
</g>
<!-- Node11 -->
<g id="node8" class="node">
<title>Node11</title>
<polygon fill="#ffffff" stroke="#bfbfbf" points="322,-1497.5 322,-1587.5 386,-1587.5 386,-1497.5 322,-1497.5"/>
<text text-anchor="middle" x="354" y="-1567.5" font-family="Helvetica,sans-Serif" font-size="20.00" fill="#000000">string</text>
<polyline fill="none" stroke="#bfbfbf" points="322,-1557.5 386,-1557.5 "/>
<text text-anchor="middle" x="354" y="-1537.5" font-family="Helvetica,sans-Serif" font-size="20.00" fill="#000000"> </text>
<polyline fill="none" stroke="#bfbfbf" points="322,-1527.5 386,-1527.5 "/>
<text text-anchor="middle" x="354" y="-1507.5" font-family="Helvetica,sans-Serif" font-size="20.00" fill="#000000"> </text>
</g>
<!-- Node11&#45;&gt;Node7 -->
<g id="edge14" class="edge">
<title>Node11&#45;&gt;Node7</title>
<path fill="none" stroke="#404040" d="M386.2369,-1535.8108C446.4666,-1521.4966 575.6121,-1481.869 638,-1395 670.139,-1350.2497 657,-1327.5954 657,-1272.5 657,-1272.5 657,-1272.5 657,-666.5 657,-464.318 420.8886,-319.979 301.0549,-259.7424"/>
<polygon fill="none" stroke="#404040" points="300.932,-259.6815 293.7793,-260.5977 290.1825,-254.3476 297.3352,-253.4314 300.932,-259.6815"/>
<text text-anchor="middle" x="683.5" y="-975.5" font-family="Helvetica,sans-Serif" font-size="20.00" fill="#000000"> #local</text>
</g>
<!-- Node11&#45;&gt;Node8 -->
<g id="edge10" class="edge">
<title>Node11&#45;&gt;Node8</title>
<path fill="none" stroke="#404040" d="M321.7851,-1520.7182C307.7263,-1509.7142 292.1646,-1495.2497 282,-1479 197.1408,-1343.3392 207.5291,-1290.5605 186,-1132 173.1486,-1037.35 182.0212,-931.4323 195.3715,-844.5703"/>
<polygon fill="none" stroke="#404040" points="195.3715,-844.57 192.354,-838.0205 197.2391,-832.7162 200.2566,-839.2656 195.3715,-844.57"/>
<text text-anchor="middle" x="225" y="-1116" font-family="Helvetica,sans-Serif" font-size="20.00" fill="#000000"> #especie</text>
<text text-anchor="middle" x="225" y="-1094" font-family="Helvetica,sans-Serif" font-size="20.00" fill="#000000">#nome</text>
</g>
<!-- Node11&#45;&gt;Node10 -->
<g id="edge7" class="edge">
<title>Node11&#45;&gt;Node10</title>
<path fill="none" stroke="#404040" d="M367.8923,-1497.3081C375.6532,-1472.0618 385.7716,-1439.1466 395.8615,-1406.3241"/>
<polygon fill="none" stroke="#404040" points="395.8992,-1406.2012 393.8388,-1399.2907 399.4253,-1394.731 401.4857,-1401.6415 395.8992,-1406.2012"/>
<text text-anchor="middle" x="431.5" y="-1463" font-family="Helvetica,sans-Serif" font-size="20.00" fill="#000000"> #email</text>
<text text-anchor="middle" x="431.5" y="-1441" font-family="Helvetica,sans-Serif" font-size="20.00" fill="#000000">#nome</text>
<text text-anchor="middle" x="431.5" y="-1419" font-family="Helvetica,sans-Serif" font-size="20.00" fill="#000000">#telefone</text>
</g>
<!-- Node11&#45;&gt;Node13 -->
<g id="edge13" class="edge">
<title>Node11&#45;&gt;Node13</title>
<path fill="none" stroke="#404040" d="M324.4858,-1497.4643C307.8223,-1469.289 288.6476,-1431.5212 280,-1395 255.1978,-1290.2535 262.1048,-1166.428 272.1368,-1081.5645"/>
<polygon fill="none" stroke="#404040" points="272.144,-1081.505 268.9032,-1075.0631 273.6031,-1069.594 276.8439,-1076.0358 272.144,-1081.505"/>
<text text-anchor="middle" x="313" y="-1267.5" font-family="Helvetica,sans-Serif" font-size="20.00" fill="#000000"> &#45;CRMV</text>
</g>
<!-- Node12 -->
<g id="node9" class="node">
<title>Node12</title>
<polygon fill="#ffffff" stroke="#bfbfbf" points="537,-1227.5 537,-1317.5 629,-1317.5 629,-1227.5 537,-1227.5"/>
<text text-anchor="middle" x="583" y="-1297.5" font-family="Helvetica,sans-Serif" font-size="20.00" fill="#000000">Uniforme</text>
<polyline fill="none" stroke="#bfbfbf" points="537,-1287.5 629,-1287.5 "/>
<text text-anchor="middle" x="583" y="-1267.5" font-family="Helvetica,sans-Serif" font-size="20.00" fill="#000000"> </text>
<polyline fill="none" stroke="#bfbfbf" points="537,-1257.5 629,-1257.5 "/>
<text text-anchor="middle" x="583" y="-1237.5" font-family="Helvetica,sans-Serif" font-size="20.00" fill="#000000"> </text>
</g>
<!-- Node12&#45;&gt;Node9 -->
<g id="edge8" class="edge">
<title>Node12&#45;&gt;Node9</title>
<path fill="none" stroke="#404040" d="M565.4677,-1227.1954C550.4285,-1188.3328 528.2072,-1130.9115 508.9866,-1081.2443"/>
<polygon fill="none" stroke="#404040" points="508.8855,-1080.9826 502.9896,-1076.8307 504.5545,-1069.7914 510.4504,-1073.9434 508.8855,-1080.9826"/>
<text text-anchor="middle" x="568" y="-1105" font-family="Helvetica,sans-Serif" font-size="20.00" fill="#000000"> &#45;uniforme</text>
</g>
<!-- Node13&#45;&gt;Node8 -->
<g id="edge11" class="edge">
<title>Node13&#45;&gt;Node8</title>
<path fill="none" stroke="#404040" d="M272.3863,-891.3601C269.7796,-876.4783 266.9965,-860.5892 264.1605,-844.3982"/>
<polygon fill="none" stroke="#404040" points="264.1584,-844.3854 259.1831,-839.1656 262.0879,-832.5654 267.0631,-837.7852 264.1584,-844.3854"/>
<text text-anchor="middle" x="320.5" y="-857" font-family="Helvetica,sans-Serif" font-size="20.00" fill="#000000"> #veterinario</text>
</g>
</g>
</svg>
