<?xml version="1.0" encoding="UTF-8" standalone="no"?>
<!DOCTYPE svg PUBLIC "-//W3C//DTD SVG 1.1//EN"
 "http://www.w3.org/Graphics/SVG/1.1/DTD/svg11.dtd">
<!-- Generated by graphviz version 2.40.1 (20161225.0304)
 -->
<!-- Title: MamiferoNativo Pages: 1 -->
<svg width="781pt" height="1574pt"
 viewBox="0.00 0.00 780.50 1574.00" xmlns="http://www.w3.org/2000/svg" xmlns:xlink="http://www.w3.org/1999/xlink">
<g id="graph0" class="graph" transform="scale(1 1) rotate(0) translate(4 1570)">
<title>MamiferoNativo</title>
<polygon fill="#ffffff" stroke="transparent" points="-4,4 -4,-1570 776.5,-1570 776.5,4 -4,4"/>
<!-- Node4 -->
<g id="node1" class="node">
<title>Node4</title>
<polygon fill="#bfbfbf" stroke="#000000" points="79,-.5 79,-112.5 264,-112.5 264,-.5 79,-.5"/>
<text text-anchor="middle" x="171.5" y="-92.5" font-family="Helvetica,sans-Serif" font-size="20.00" fill="#000000">MamiferoNativo</text>
<polyline fill="none" stroke="#000000" points="79,-82.5 264,-82.5 "/>
<text text-anchor="middle" x="171.5" y="-62.5" font-family="Helvetica,sans-Serif" font-size="20.00" fill="#000000"> </text>
<polyline fill="none" stroke="#000000" points="79,-52.5 264,-52.5 "/>
<text text-anchor="start" x="87" y="-32.5" font-family="Helvetica,sans-Serif" font-size="20.00" fill="#000000">+ MamiferoNativo()</text>
<text text-anchor="start" x="87" y="-10.5" font-family="Helvetica,sans-Serif" font-size="20.00" fill="#000000">+ ~MamiferoNativo()</text>
</g>
<!-- Node5 -->
<g id="node2" class="node">
<title>Node5</title>
<g id="a_node2"><a xlink:href="classMamifero.html" target="_top" xlink:title="Classificação base para Mamiferos. ">
<polygon fill="#ffffff" stroke="#000000" points="0,-325.5 0,-459.5 147,-459.5 147,-325.5 0,-325.5"/>
<text text-anchor="middle" x="73.5" y="-439.5" font-family="Helvetica,sans-Serif" font-size="20.00" fill="#000000">Mamifero</text>
<polyline fill="none" stroke="#000000" points="0,-429.5 147,-429.5 "/>
<text text-anchor="middle" x="73.5" y="-409.5" font-family="Helvetica,sans-Serif" font-size="20.00" fill="#000000"> </text>
<polyline fill="none" stroke="#000000" points="0,-399.5 147,-399.5 "/>
<text text-anchor="start" x="8" y="-379.5" font-family="Helvetica,sans-Serif" font-size="20.00" fill="#000000">+ Mamifero()</text>
<text text-anchor="start" x="8" y="-357.5" font-family="Helvetica,sans-Serif" font-size="20.00" fill="#000000">+ ~Mamifero()</text>
<text text-anchor="start" x="8" y="-335.5" font-family="Helvetica,sans-Serif" font-size="20.00" fill="#000000">+ getGestacao()</text>
</a>
</g>
</g>
<!-- Node5&#45;&gt;Node4 -->
<g id="edge1" class="edge">
<title>Node5&#45;&gt;Node4</title>
<path fill="none" stroke="#191970" d="M95.93,-315.5972C113.9698,-253.7463 138.8973,-168.2808 155.1071,-112.7041"/>
<polygon fill="none" stroke="#191970" points="92.5363,-314.7329 93.0962,-325.3129 99.2563,-316.693 92.5363,-314.7329"/>
</g>
<!-- Node6 -->
<g id="node3" class="node">
<title>Node6</title>
<polygon fill="#ffffff" stroke="#bfbfbf" points="44,-913.5 44,-1003.5 95,-1003.5 95,-913.5 44,-913.5"/>
<text text-anchor="middle" x="69.5" y="-983.5" font-family="Helvetica,sans-Serif" font-size="20.00" fill="#000000">bool</text>
<polyline fill="none" stroke="#bfbfbf" points="44,-973.5 95,-973.5 "/>
<text text-anchor="middle" x="69.5" y="-953.5" font-family="Helvetica,sans-Serif" font-size="20.00" fill="#000000"> </text>
<polyline fill="none" stroke="#bfbfbf" points="44,-943.5 95,-943.5 "/>
<text text-anchor="middle" x="69.5" y="-923.5" font-family="Helvetica,sans-Serif" font-size="20.00" fill="#000000"> </text>
</g>
<!-- Node6&#45;&gt;Node5 -->
<g id="edge2" class="edge">
<title>Node6&#45;&gt;Node5</title>
<path fill="none" stroke="#404040" d="M44.8011,-913.3221C35.9023,-894.6137 26.9598,-872.3336 22.5,-851 -5.0156,-719.3788 25.4949,-563.1952 49.7563,-471.2773"/>
<polygon fill="none" stroke="#404040" points="49.7888,-471.1564 47.4842,-464.3234 52.9052,-459.5681 55.2098,-466.4011 49.7888,-471.1564"/>
<text text-anchor="middle" x="67" y="-835" font-family="Helvetica,sans-Serif" font-size="20.00" fill="#000000"> #gestacao</text>
</g>
<!-- Node8 -->
<g id="node5" class="node">
<title>Node8</title>
<g id="a_node5"><a xlink:href="classAnimal.html" target="_top" xlink:title="Implementação base para o cadastro de animais. ">
<polygon fill="#ffffff" stroke="#000000" points="192.5,-478.5 192.5,-810.5 370.5,-810.5 370.5,-478.5 192.5,-478.5"/>
<text text-anchor="middle" x="281.5" y="-790.5" font-family="Helvetica,sans-Serif" font-size="20.00" fill="#000000">Animal</text>
<polyline fill="none" stroke="#000000" points="192.5,-780.5 370.5,-780.5 "/>
<text text-anchor="middle" x="281.5" y="-760.5" font-family="Helvetica,sans-Serif" font-size="20.00" fill="#000000"> </text>
<polyline fill="none" stroke="#000000" points="192.5,-750.5 370.5,-750.5 "/>
<text text-anchor="start" x="200.5" y="-730.5" font-family="Helvetica,sans-Serif" font-size="20.00" fill="#000000">+ Animal()</text>
<text text-anchor="start" x="200.5" y="-708.5" font-family="Helvetica,sans-Serif" font-size="20.00" fill="#000000">+ Animal()</text>
<text text-anchor="start" x="200.5" y="-686.5" font-family="Helvetica,sans-Serif" font-size="20.00" fill="#000000">+ ~Animal()</text>
<text text-anchor="start" x="200.5" y="-664.5" font-family="Helvetica,sans-Serif" font-size="20.00" fill="#000000">+ getNome()</text>
<text text-anchor="start" x="200.5" y="-642.5" font-family="Helvetica,sans-Serif" font-size="20.00" fill="#000000">+ getEspecie()</text>
<text text-anchor="start" x="200.5" y="-620.5" font-family="Helvetica,sans-Serif" font-size="20.00" fill="#000000">+ getVeterinario()</text>
<text text-anchor="start" x="200.5" y="-598.5" font-family="Helvetica,sans-Serif" font-size="20.00" fill="#000000">+ getTratador()</text>
<text text-anchor="start" x="200.5" y="-576.5" font-family="Helvetica,sans-Serif" font-size="20.00" fill="#000000">+ getPerigoso()</text>
<text text-anchor="start" x="200.5" y="-554.5" font-family="Helvetica,sans-Serif" font-size="20.00" fill="#000000">+ getClassificacao()</text>
<text text-anchor="start" x="200.5" y="-532.5" font-family="Helvetica,sans-Serif" font-size="20.00" fill="#000000">+ getClasse()</text>
<text text-anchor="start" x="200.5" y="-510.5" font-family="Helvetica,sans-Serif" font-size="20.00" fill="#000000">+ printOutDados()</text>
<text text-anchor="start" x="200.5" y="-488.5" font-family="Helvetica,sans-Serif" font-size="20.00" fill="#000000">+ operator==()</text>
</a>
</g>
</g>
<!-- Node6&#45;&gt;Node8 -->
<g id="edge9" class="edge">
<title>Node6&#45;&gt;Node8</title>
<path fill="none" stroke="#404040" d="M85.6587,-913.4696C95.7483,-887.8169 109.9518,-855.5905 126.5,-829 143.3561,-801.9146 163.9237,-774.5944 184.4959,-749.5826"/>
<polygon fill="none" stroke="#404040" points="184.698,-749.3396 185.4605,-742.169 192.3729,-740.1149 191.6104,-747.2856 184.698,-749.3396"/>
<text text-anchor="middle" x="169.5" y="-835" font-family="Helvetica,sans-Serif" font-size="20.00" fill="#000000"> #perigoso</text>
</g>
<!-- Node7 -->
<g id="node4" class="node">
<title>Node7</title>
<g id="a_node4"><a xlink:href="classNativo.html" target="_top" xlink:title="Umas das definições de categoria para Animal. ">
<polygon fill="#ffffff" stroke="#000000" points="218,-150.5 218,-306.5 345,-306.5 345,-150.5 218,-150.5"/>
<text text-anchor="middle" x="281.5" y="-286.5" font-family="Helvetica,sans-Serif" font-size="20.00" fill="#000000">Nativo</text>
<polyline fill="none" stroke="#000000" points="218,-276.5 345,-276.5 "/>
<text text-anchor="middle" x="281.5" y="-256.5" font-family="Helvetica,sans-Serif" font-size="20.00" fill="#000000"> </text>
<polyline fill="none" stroke="#000000" points="218,-246.5 345,-246.5 "/>
<text text-anchor="start" x="226" y="-226.5" font-family="Helvetica,sans-Serif" font-size="20.00" fill="#000000">+ Nativo()</text>
<text text-anchor="start" x="226" y="-204.5" font-family="Helvetica,sans-Serif" font-size="20.00" fill="#000000">+ Nativo()</text>
<text text-anchor="start" x="226" y="-182.5" font-family="Helvetica,sans-Serif" font-size="20.00" fill="#000000">+ ~Nativo()</text>
<text text-anchor="start" x="226" y="-160.5" font-family="Helvetica,sans-Serif" font-size="20.00" fill="#000000">+ getRegiao()</text>
</a>
</g>
</g>
<!-- Node7&#45;&gt;Node4 -->
<g id="edge3" class="edge">
<title>Node7&#45;&gt;Node4</title>
<path fill="none" stroke="#191970" d="M225.9586,-141.6534C219.6587,-131.8026 213.3682,-121.9667 207.4179,-112.6626"/>
<polygon fill="none" stroke="#191970" points="223.1526,-143.7622 231.489,-150.301 229.0498,-139.9908 223.1526,-143.7622"/>
</g>
<!-- Node8&#45;&gt;Node7 -->
<g id="edge4" class="edge">
<title>Node8&#45;&gt;Node7</title>
<path fill="none" stroke="#191970" d="M281.5,-468.1752C281.5,-411.7962 281.5,-352.238 281.5,-306.5957"/>
<polygon fill="none" stroke="#191970" points="278.0001,-468.2923 281.5,-478.2923 285.0001,-468.2924 278.0001,-468.2923"/>
</g>
<!-- Node9 -->
<g id="node6" class="node">
<title>Node9</title>
<g id="a_node6"><a xlink:href="classTratador.html" target="_top" xlink:title="Implementação dos tratadores. ">
<polygon fill="#ffffff" stroke="#000000" points="436.5,-869.5 436.5,-1047.5 600.5,-1047.5 600.5,-869.5 436.5,-869.5"/>
<text text-anchor="middle" x="518.5" y="-1027.5" font-family="Helvetica,sans-Serif" font-size="20.00" fill="#000000">Tratador</text>
<polyline fill="none" stroke="#000000" points="436.5,-1017.5 600.5,-1017.5 "/>
<text text-anchor="middle" x="518.5" y="-997.5" font-family="Helvetica,sans-Serif" font-size="20.00" fill="#000000"> </text>
<polyline fill="none" stroke="#000000" points="436.5,-987.5 600.5,-987.5 "/>
<text text-anchor="start" x="444.5" y="-967.5" font-family="Helvetica,sans-Serif" font-size="20.00" fill="#000000">+ Tratador()</text>
<text text-anchor="start" x="444.5" y="-945.5" font-family="Helvetica,sans-Serif" font-size="20.00" fill="#000000">+ Tratador()</text>
<text text-anchor="start" x="444.5" y="-923.5" font-family="Helvetica,sans-Serif" font-size="20.00" fill="#000000">+ ~Tratador()</text>
<text text-anchor="start" x="444.5" y="-901.5" font-family="Helvetica,sans-Serif" font-size="20.00" fill="#000000">+ getUniforme()</text>
<text text-anchor="start" x="444.5" y="-879.5" font-family="Helvetica,sans-Serif" font-size="20.00" fill="#000000">+ printOutDados()</text>
</a>
</g>
</g>
<!-- Node9&#45;&gt;Node8 -->
<g id="edge5" class="edge">
<title>Node9&#45;&gt;Node8</title>
<path fill="none" stroke="#404040" d="M454.3965,-869.4098C444.4567,-855.8217 434.2527,-842.0005 424.5,-829 409.594,-809.1301 393.6284,-788.1985 377.9649,-767.8526"/>
<polygon fill="none" stroke="#404040" points="377.8782,-767.7401 371.0469,-765.4308 370.5512,-758.2367 377.3825,-760.5461 377.8782,-767.7401"/>
<text text-anchor="middle" x="480" y="-835" font-family="Helvetica,sans-Serif" font-size="20.00" fill="#000000"> #tratador</text>
</g>
<!-- Node10 -->
<g id="node7" class="node">
<title>Node10</title>
<g id="a_node7"><a xlink:href="classPessoa.html" target="_top" xlink:title="Classe base dos funcionarios. ">
<polygon fill="#ffffff" stroke="#000000" points="403.5,-1128.5 403.5,-1372.5 567.5,-1372.5 567.5,-1128.5 403.5,-1128.5"/>
<text text-anchor="middle" x="485.5" y="-1352.5" font-family="Helvetica,sans-Serif" font-size="20.00" fill="#000000">Pessoa</text>
<polyline fill="none" stroke="#000000" points="403.5,-1342.5 567.5,-1342.5 "/>
<text text-anchor="middle" x="485.5" y="-1322.5" font-family="Helvetica,sans-Serif" font-size="20.00" fill="#000000"> </text>
<polyline fill="none" stroke="#000000" points="403.5,-1312.5 567.5,-1312.5 "/>
<text text-anchor="start" x="411.5" y="-1292.5" font-family="Helvetica,sans-Serif" font-size="20.00" fill="#000000">+ Pessoa()</text>
<text text-anchor="start" x="411.5" y="-1270.5" font-family="Helvetica,sans-Serif" font-size="20.00" fill="#000000">+ Pessoa()</text>
<text text-anchor="start" x="411.5" y="-1248.5" font-family="Helvetica,sans-Serif" font-size="20.00" fill="#000000">+ ~Pessoa()</text>
<text text-anchor="start" x="411.5" y="-1226.5" font-family="Helvetica,sans-Serif" font-size="20.00" fill="#000000">+ getNome()</text>
<text text-anchor="start" x="411.5" y="-1204.5" font-family="Helvetica,sans-Serif" font-size="20.00" fill="#000000">+ getTelefone()</text>
<text text-anchor="start" x="411.5" y="-1182.5" font-family="Helvetica,sans-Serif" font-size="20.00" fill="#000000">+ getEmail()</text>
<text text-anchor="start" x="411.5" y="-1160.5" font-family="Helvetica,sans-Serif" font-size="20.00" fill="#000000">+ printOutDados()</text>
<text text-anchor="start" x="411.5" y="-1138.5" font-family="Helvetica,sans-Serif" font-size="20.00" fill="#000000">+ operator==()</text>
</a>
</g>
</g>
<!-- Node10&#45;&gt;Node9 -->
<g id="edge6" class="edge">
<title>Node10&#45;&gt;Node9</title>
<path fill="none" stroke="#191970" d="M500.4547,-1118.1738C503.15,-1094.324 505.9009,-1069.9833 508.4161,-1047.7273"/>
<polygon fill="none" stroke="#191970" points="496.949,-1118.0278 499.3038,-1128.3576 503.9047,-1118.8139 496.949,-1118.0278"/>
</g>
<!-- Node13 -->
<g id="node10" class="node">
<title>Node13</title>
<g id="a_node10"><a xlink:href="classVeterinario.html" target="_top" xlink:title="Implementação dos veterinarios. ">
<polygon fill="#ffffff" stroke="#000000" points="254.5,-869.5 254.5,-1047.5 418.5,-1047.5 418.5,-869.5 254.5,-869.5"/>
<text text-anchor="middle" x="336.5" y="-1027.5" font-family="Helvetica,sans-Serif" font-size="20.00" fill="#000000">Veterinario</text>
<polyline fill="none" stroke="#000000" points="254.5,-1017.5 418.5,-1017.5 "/>
<text text-anchor="middle" x="336.5" y="-997.5" font-family="Helvetica,sans-Serif" font-size="20.00" fill="#000000"> </text>
<polyline fill="none" stroke="#000000" points="254.5,-987.5 418.5,-987.5 "/>
<text text-anchor="start" x="262.5" y="-967.5" font-family="Helvetica,sans-Serif" font-size="20.00" fill="#000000">+ Veterinario()</text>
<text text-anchor="start" x="262.5" y="-945.5" font-family="Helvetica,sans-Serif" font-size="20.00" fill="#000000">+ Veterinario()</text>
<text text-anchor="start" x="262.5" y="-923.5" font-family="Helvetica,sans-Serif" font-size="20.00" fill="#000000">+ ~Veterinario()</text>
<text text-anchor="start" x="262.5" y="-901.5" font-family="Helvetica,sans-Serif" font-size="20.00" fill="#000000">+ getCRMV()</text>
<text text-anchor="start" x="262.5" y="-879.5" font-family="Helvetica,sans-Serif" font-size="20.00" fill="#000000">+ printOutDados()</text>
</a>
</g>
</g>
<!-- Node10&#45;&gt;Node13 -->
<g id="edge12" class="edge">
<title>Node10&#45;&gt;Node13</title>
<path fill="none" stroke="#191970" d="M418.4662,-1119.1318C406.1404,-1094.9764 393.5391,-1070.2813 382.0304,-1047.7273"/>
<polygon fill="none" stroke="#191970" points="415.5111,-1121.0411 423.1739,-1128.3576 421.7462,-1117.8594 415.5111,-1121.0411"/>
</g>
<!-- Node11 -->
<g id="node8" class="node">
<title>Node11</title>
<polygon fill="#ffffff" stroke="#bfbfbf" points="370.5,-1475.5 370.5,-1565.5 434.5,-1565.5 434.5,-1475.5 370.5,-1475.5"/>
<text text-anchor="middle" x="402.5" y="-1545.5" font-family="Helvetica,sans-Serif" font-size="20.00" fill="#000000">string</text>
<polyline fill="none" stroke="#bfbfbf" points="370.5,-1535.5 434.5,-1535.5 "/>
<text text-anchor="middle" x="402.5" y="-1515.5" font-family="Helvetica,sans-Serif" font-size="20.00" fill="#000000"> </text>
<polyline fill="none" stroke="#bfbfbf" points="370.5,-1505.5 434.5,-1505.5 "/>
<text text-anchor="middle" x="402.5" y="-1485.5" font-family="Helvetica,sans-Serif" font-size="20.00" fill="#000000"> </text>
</g>
<!-- Node11&#45;&gt;Node7 -->
<g id="edge14" class="edge">
<title>Node11&#45;&gt;Node7</title>
<path fill="none" stroke="#404040" d="M434.7369,-1513.8108C494.9666,-1499.4966 624.1121,-1459.869 686.5,-1373 718.639,-1328.2497 705.5,-1305.5954 705.5,-1250.5 705.5,-1250.5 705.5,-1250.5 705.5,-644.5 705.5,-451.2452 478.2921,-318.006 356.5222,-260.475"/>
<polygon fill="none" stroke="#404040" points="356.3131,-260.3776 349.185,-261.4688 345.4362,-255.3087 352.5642,-254.2175 356.3131,-260.3776"/>
<text text-anchor="middle" x="739" y="-953.5" font-family="Helvetica,sans-Serif" font-size="20.00" fill="#000000"> #regiao</text>
</g>
<!-- Node11&#45;&gt;Node8 -->
<g id="edge10" class="edge">
<title>Node11&#45;&gt;Node8</title>
<path fill="none" stroke="#404040" d="M370.2851,-1498.7182C356.2263,-1487.7142 340.6646,-1473.2497 330.5,-1457 245.6408,-1321.3392 256.0291,-1268.5605 234.5,-1110 221.6486,-1015.35 230.5212,-909.4323 243.8715,-822.5703"/>
<polygon fill="none" stroke="#404040" points="243.8715,-822.57 240.854,-816.0205 245.7391,-810.7162 248.7566,-817.2656 243.8715,-822.57"/>
<text text-anchor="middle" x="273.5" y="-1094" font-family="Helvetica,sans-Serif" font-size="20.00" fill="#000000"> #especie</text>
<text text-anchor="middle" x="273.5" y="-1072" font-family="Helvetica,sans-Serif" font-size="20.00" fill="#000000">#nome</text>
</g>
<!-- Node11&#45;&gt;Node10 -->
<g id="edge7" class="edge">
<title>Node11&#45;&gt;Node10</title>
<path fill="none" stroke="#404040" d="M416.3923,-1475.3081C424.1532,-1450.0618 434.2716,-1417.1466 444.3615,-1384.3241"/>
<polygon fill="none" stroke="#404040" points="444.3992,-1384.2012 442.3388,-1377.2907 447.9253,-1372.731 449.9857,-1379.6415 444.3992,-1384.2012"/>
<text text-anchor="middle" x="480" y="-1441" font-family="Helvetica,sans-Serif" font-size="20.00" fill="#000000"> #email</text>
<text text-anchor="middle" x="480" y="-1419" font-family="Helvetica,sans-Serif" font-size="20.00" fill="#000000">#nome</text>
<text text-anchor="middle" x="480" y="-1397" font-family="Helvetica,sans-Serif" font-size="20.00" fill="#000000">#telefone</text>
</g>
<!-- Node11&#45;&gt;Node13 -->
<g id="edge13" class="edge">
<title>Node11&#45;&gt;Node13</title>
<path fill="none" stroke="#404040" d="M372.9858,-1475.4643C356.3223,-1447.289 337.1476,-1409.5212 328.5,-1373 303.6978,-1268.2535 310.6048,-1144.428 320.6368,-1059.5645"/>
<polygon fill="none" stroke="#404040" points="320.644,-1059.505 317.4032,-1053.0631 322.1031,-1047.594 325.3439,-1054.0358 320.644,-1059.505"/>
<text text-anchor="middle" x="361.5" y="-1245.5" font-family="Helvetica,sans-Serif" font-size="20.00" fill="#000000"> &#45;CRMV</text>
</g>
<!-- Node12 -->
<g id="node9" class="node">
<title>Node12</title>
<polygon fill="#ffffff" stroke="#bfbfbf" points="585.5,-1205.5 585.5,-1295.5 677.5,-1295.5 677.5,-1205.5 585.5,-1205.5"/>
<text text-anchor="middle" x="631.5" y="-1275.5" font-family="Helvetica,sans-Serif" font-size="20.00" fill="#000000">Uniforme</text>
<polyline fill="none" stroke="#bfbfbf" points="585.5,-1265.5 677.5,-1265.5 "/>
<text text-anchor="middle" x="631.5" y="-1245.5" font-family="Helvetica,sans-Serif" font-size="20.00" fill="#000000"> </text>
<polyline fill="none" stroke="#bfbfbf" points="585.5,-1235.5 677.5,-1235.5 "/>
<text text-anchor="middle" x="631.5" y="-1215.5" font-family="Helvetica,sans-Serif" font-size="20.00" fill="#000000"> </text>
</g>
<!-- Node12&#45;&gt;Node9 -->
<g id="edge8" class="edge">
<title>Node12&#45;&gt;Node9</title>
<path fill="none" stroke="#404040" d="M613.9677,-1205.1954C598.9285,-1166.3328 576.7072,-1108.9115 557.4866,-1059.2443"/>
<polygon fill="none" stroke="#404040" points="557.3855,-1058.9826 551.4896,-1054.8307 553.0545,-1047.7914 558.9504,-1051.9434 557.3855,-1058.9826"/>
<text text-anchor="middle" x="616.5" y="-1083" font-family="Helvetica,sans-Serif" font-size="20.00" fill="#000000"> &#45;uniforme</text>
</g>
<!-- Node13&#45;&gt;Node8 -->
<g id="edge11" class="edge">
<title>Node13&#45;&gt;Node8</title>
<path fill="none" stroke="#404040" d="M320.8863,-869.3601C318.2796,-854.4783 315.4965,-838.5892 312.6605,-822.3982"/>
<polygon fill="none" stroke="#404040" points="312.6584,-822.3854 307.6831,-817.1656 310.5879,-810.5654 315.5631,-815.7852 312.6584,-822.3854"/>
<text text-anchor="middle" x="369" y="-835" font-family="Helvetica,sans-Serif" font-size="20.00" fill="#000000"> #veterinario</text>
</g>
</g>
</svg>
