<?xml version="1.0" encoding="UTF-8" standalone="no"?>
<!DOCTYPE svg PUBLIC "-//W3C//DTD SVG 1.1//EN"
 "http://www.w3.org/Graphics/SVG/1.1/DTD/svg11.dtd">
<!-- Generated by graphviz version 2.40.1 (20161225.0304)
 -->
<!-- Title: ReptilExotico Pages: 1 -->
<svg width="623pt" height="1461pt"
 viewBox="0.00 0.00 622.88 1461.00" xmlns="http://www.w3.org/2000/svg" xmlns:xlink="http://www.w3.org/1999/xlink">
<g id="graph0" class="graph" transform="scale(1 1) rotate(0) translate(4 1457)">
<title>ReptilExotico</title>
<polygon fill="#ffffff" stroke="transparent" points="-4,4 -4,-1457 618.8758,-1457 618.8758,4 -4,4"/>
<!-- Node4 -->
<g id="node1" class="node">
<title>Node4</title>
<polygon fill="#bfbfbf" stroke="#000000" points="204.8758,-.5 204.8758,-112.5 366.8758,-112.5 366.8758,-.5 204.8758,-.5"/>
<text text-anchor="middle" x="285.8758" y="-92.5" font-family="Helvetica,sans-Serif" font-size="20.00" fill="#000000">ReptilExotico</text>
<polyline fill="none" stroke="#000000" points="204.8758,-82.5 366.8758,-82.5 "/>
<text text-anchor="middle" x="285.8758" y="-62.5" font-family="Helvetica,sans-Serif" font-size="20.00" fill="#000000"> </text>
<polyline fill="none" stroke="#000000" points="204.8758,-52.5 366.8758,-52.5 "/>
<text text-anchor="start" x="212.8758" y="-32.5" font-family="Helvetica,sans-Serif" font-size="20.00" fill="#000000">+ ReptilExotico()</text>
<text text-anchor="start" x="212.8758" y="-10.5" font-family="Helvetica,sans-Serif" font-size="20.00" fill="#000000">+ ~ReptilExotico()</text>
</g>
<!-- Node5 -->
<g id="node2" class="node">
<title>Node5</title>
<g id="a_node2"><a xlink:href="classReptil.html" target="_top" xlink:title="Classificação base para Repteis. ">
<polygon fill="#ffffff" stroke="#000000" points="169.8758,-150.5 169.8758,-306.5 275.8758,-306.5 275.8758,-150.5 169.8758,-150.5"/>
<text text-anchor="middle" x="222.8758" y="-286.5" font-family="Helvetica,sans-Serif" font-size="20.00" fill="#000000">Reptil</text>
<polyline fill="none" stroke="#000000" points="169.8758,-276.5 275.8758,-276.5 "/>
<text text-anchor="middle" x="222.8758" y="-256.5" font-family="Helvetica,sans-Serif" font-size="20.00" fill="#000000"> </text>
<polyline fill="none" stroke="#000000" points="169.8758,-246.5 275.8758,-246.5 "/>
<text text-anchor="start" x="177.8758" y="-226.5" font-family="Helvetica,sans-Serif" font-size="20.00" fill="#000000">+ Reptil()</text>
<text text-anchor="start" x="177.8758" y="-204.5" font-family="Helvetica,sans-Serif" font-size="20.00" fill="#000000">+ Reptil()</text>
<text text-anchor="start" x="177.8758" y="-182.5" font-family="Helvetica,sans-Serif" font-size="20.00" fill="#000000">+ ~Reptil()</text>
<text text-anchor="start" x="177.8758" y="-160.5" font-family="Helvetica,sans-Serif" font-size="20.00" fill="#000000">+ getPele()</text>
</a>
</g>
</g>
<!-- Node5&#45;&gt;Node4 -->
<g id="edge1" class="edge">
<title>Node5&#45;&gt;Node4</title>
<path fill="none" stroke="#191970" d="M255.0139,-140.758C258.5122,-131.207 262,-121.6847 265.3046,-112.6626"/>
<polygon fill="none" stroke="#191970" points="251.6714,-139.7073 251.5185,-150.301 258.2444,-142.1148 251.6714,-139.7073"/>
</g>
<!-- Node6 -->
<g id="node3" class="node">
<title>Node6</title>
<polygon fill="#ffffff" stroke="#bfbfbf" points="193.3758,-486.5 193.3758,-576.5 246.3758,-576.5 246.3758,-486.5 193.3758,-486.5"/>
<text text-anchor="middle" x="219.8758" y="-556.5" font-family="Helvetica,sans-Serif" font-size="20.00" fill="#000000">Pele</text>
<polyline fill="none" stroke="#bfbfbf" points="193.3758,-546.5 246.3758,-546.5 "/>
<text text-anchor="middle" x="219.8758" y="-526.5" font-family="Helvetica,sans-Serif" font-size="20.00" fill="#000000"> </text>
<polyline fill="none" stroke="#bfbfbf" points="193.3758,-516.5 246.3758,-516.5 "/>
<text text-anchor="middle" x="219.8758" y="-496.5" font-family="Helvetica,sans-Serif" font-size="20.00" fill="#000000"> </text>
</g>
<!-- Node6&#45;&gt;Node5 -->
<g id="edge2" class="edge">
<title>Node6&#45;&gt;Node5</title>
<path fill="none" stroke="#404040" d="M220.3217,-486.465C220.7572,-442.478 221.4325,-374.279 221.9793,-319.0494"/>
<polygon fill="none" stroke="#404040" points="221.9821,-318.7564 218.0417,-312.7171 222.101,-306.757 226.0413,-312.7963 221.9821,-318.7564"/>
<text text-anchor="middle" x="247.8758" y="-331" font-family="Helvetica,sans-Serif" font-size="20.00" fill="#000000"> #pele</text>
</g>
<!-- Node7 -->
<g id="node4" class="node">
<title>Node7</title>
<g id="a_node4"><a xlink:href="classExotico.html" target="_top" xlink:title="Umas das definições de categoria para Animal. ">
<polygon fill="#ffffff" stroke="#000000" points="296.8758,-150.5 296.8758,-306.5 410.8758,-306.5 410.8758,-150.5 296.8758,-150.5"/>
<text text-anchor="middle" x="353.8758" y="-286.5" font-family="Helvetica,sans-Serif" font-size="20.00" fill="#000000">Exotico</text>
<polyline fill="none" stroke="#000000" points="296.8758,-276.5 410.8758,-276.5 "/>
<text text-anchor="middle" x="353.8758" y="-256.5" font-family="Helvetica,sans-Serif" font-size="20.00" fill="#000000"> </text>
<polyline fill="none" stroke="#000000" points="296.8758,-246.5 410.8758,-246.5 "/>
<text text-anchor="start" x="304.8758" y="-226.5" font-family="Helvetica,sans-Serif" font-size="20.00" fill="#000000">+ Exotico()</text>
<text text-anchor="start" x="304.8758" y="-204.5" font-family="Helvetica,sans-Serif" font-size="20.00" fill="#000000">+ Exotico()</text>
<text text-anchor="start" x="304.8758" y="-182.5" font-family="Helvetica,sans-Serif" font-size="20.00" fill="#000000">+ ~Exotico()</text>
<text text-anchor="start" x="304.8758" y="-160.5" font-family="Helvetica,sans-Serif" font-size="20.00" fill="#000000">+ getLocal()</text>
</a>
</g>
</g>
<!-- Node7&#45;&gt;Node4 -->
<g id="edge3" class="edge">
<title>Node7&#45;&gt;Node4</title>
<path fill="none" stroke="#191970" d="M319.1871,-140.758C315.4111,-131.207 311.6465,-121.6847 308.0796,-112.6626"/>
<polygon fill="none" stroke="#191970" points="316.0284,-142.2882 322.9599,-150.301 322.5381,-139.7146 316.0284,-142.2882"/>
</g>
<!-- Node8 -->
<g id="node5" class="node">
<title>Node8</title>
<g id="a_node5"><a xlink:href="classAnimal.html" target="_top" xlink:title="Implementação base para o cadastro de animais. ">
<polygon fill="#ffffff" stroke="#000000" points="264.8758,-365.5 264.8758,-697.5 442.8758,-697.5 442.8758,-365.5 264.8758,-365.5"/>
<text text-anchor="middle" x="353.8758" y="-677.5" font-family="Helvetica,sans-Serif" font-size="20.00" fill="#000000">Animal</text>
<polyline fill="none" stroke="#000000" points="264.8758,-667.5 442.8758,-667.5 "/>
<text text-anchor="middle" x="353.8758" y="-647.5" font-family="Helvetica,sans-Serif" font-size="20.00" fill="#000000"> </text>
<polyline fill="none" stroke="#000000" points="264.8758,-637.5 442.8758,-637.5 "/>
<text text-anchor="start" x="272.8758" y="-617.5" font-family="Helvetica,sans-Serif" font-size="20.00" fill="#000000">+ Animal()</text>
<text text-anchor="start" x="272.8758" y="-595.5" font-family="Helvetica,sans-Serif" font-size="20.00" fill="#000000">+ Animal()</text>
<text text-anchor="start" x="272.8758" y="-573.5" font-family="Helvetica,sans-Serif" font-size="20.00" fill="#000000">+ ~Animal()</text>
<text text-anchor="start" x="272.8758" y="-551.5" font-family="Helvetica,sans-Serif" font-size="20.00" fill="#000000">+ getNome()</text>
<text text-anchor="start" x="272.8758" y="-529.5" font-family="Helvetica,sans-Serif" font-size="20.00" fill="#000000">+ getEspecie()</text>
<text text-anchor="start" x="272.8758" y="-507.5" font-family="Helvetica,sans-Serif" font-size="20.00" fill="#000000">+ getVeterinario()</text>
<text text-anchor="start" x="272.8758" y="-485.5" font-family="Helvetica,sans-Serif" font-size="20.00" fill="#000000">+ getTratador()</text>
<text text-anchor="start" x="272.8758" y="-463.5" font-family="Helvetica,sans-Serif" font-size="20.00" fill="#000000">+ getPerigoso()</text>
<text text-anchor="start" x="272.8758" y="-441.5" font-family="Helvetica,sans-Serif" font-size="20.00" fill="#000000">+ getClassificacao()</text>
<text text-anchor="start" x="272.8758" y="-419.5" font-family="Helvetica,sans-Serif" font-size="20.00" fill="#000000">+ getClasse()</text>
<text text-anchor="start" x="272.8758" y="-397.5" font-family="Helvetica,sans-Serif" font-size="20.00" fill="#000000">+ printOutDados()</text>
<text text-anchor="start" x="272.8758" y="-375.5" font-family="Helvetica,sans-Serif" font-size="20.00" fill="#000000">+ operator==()</text>
</a>
</g>
</g>
<!-- Node8&#45;&gt;Node7 -->
<g id="edge4" class="edge">
<title>Node8&#45;&gt;Node7</title>
<path fill="none" stroke="#191970" d="M353.8758,-355.3681C353.8758,-338.4465 353.8758,-321.9463 353.8758,-306.7424"/>
<polygon fill="none" stroke="#191970" points="350.3759,-355.3733 353.8758,-365.3733 357.3759,-355.3733 350.3759,-355.3733"/>
</g>
<!-- Node9 -->
<g id="node6" class="node">
<title>Node9</title>
<g id="a_node6"><a xlink:href="classTratador.html" target="_top" xlink:title="Implementação dos tratadores. ">
<polygon fill="#ffffff" stroke="#000000" points="271.8758,-756.5 271.8758,-934.5 435.8758,-934.5 435.8758,-756.5 271.8758,-756.5"/>
<text text-anchor="middle" x="353.8758" y="-914.5" font-family="Helvetica,sans-Serif" font-size="20.00" fill="#000000">Tratador</text>
<polyline fill="none" stroke="#000000" points="271.8758,-904.5 435.8758,-904.5 "/>
<text text-anchor="middle" x="353.8758" y="-884.5" font-family="Helvetica,sans-Serif" font-size="20.00" fill="#000000"> </text>
<polyline fill="none" stroke="#000000" points="271.8758,-874.5 435.8758,-874.5 "/>
<text text-anchor="start" x="279.8758" y="-854.5" font-family="Helvetica,sans-Serif" font-size="20.00" fill="#000000">+ Tratador()</text>
<text text-anchor="start" x="279.8758" y="-832.5" font-family="Helvetica,sans-Serif" font-size="20.00" fill="#000000">+ Tratador()</text>
<text text-anchor="start" x="279.8758" y="-810.5" font-family="Helvetica,sans-Serif" font-size="20.00" fill="#000000">+ ~Tratador()</text>
<text text-anchor="start" x="279.8758" y="-788.5" font-family="Helvetica,sans-Serif" font-size="20.00" fill="#000000">+ getUniforme()</text>
<text text-anchor="start" x="279.8758" y="-766.5" font-family="Helvetica,sans-Serif" font-size="20.00" fill="#000000">+ printOutDados()</text>
</a>
</g>
</g>
<!-- Node9&#45;&gt;Node8 -->
<g id="edge5" class="edge">
<title>Node9&#45;&gt;Node8</title>
<path fill="none" stroke="#404040" d="M353.8758,-756.3601C353.8758,-741.6228 353.8758,-725.8976 353.8758,-709.8697"/>
<polygon fill="none" stroke="#404040" points="353.8759,-709.5654 349.8759,-703.5654 353.8758,-697.5654 357.8759,-703.5653 353.8759,-709.5654"/>
<text text-anchor="middle" x="394.3758" y="-722" font-family="Helvetica,sans-Serif" font-size="20.00" fill="#000000"> #tratador</text>
</g>
<!-- Node10 -->
<g id="node7" class="node">
<title>Node10</title>
<g id="a_node7"><a xlink:href="classPessoa.html" target="_top" xlink:title="Classe base dos funcionarios. ">
<polygon fill="#ffffff" stroke="#000000" points="238.8758,-1015.5 238.8758,-1259.5 402.8758,-1259.5 402.8758,-1015.5 238.8758,-1015.5"/>
<text text-anchor="middle" x="320.8758" y="-1239.5" font-family="Helvetica,sans-Serif" font-size="20.00" fill="#000000">Pessoa</text>
<polyline fill="none" stroke="#000000" points="238.8758,-1229.5 402.8758,-1229.5 "/>
<text text-anchor="middle" x="320.8758" y="-1209.5" font-family="Helvetica,sans-Serif" font-size="20.00" fill="#000000"> </text>
<polyline fill="none" stroke="#000000" points="238.8758,-1199.5 402.8758,-1199.5 "/>
<text text-anchor="start" x="246.8758" y="-1179.5" font-family="Helvetica,sans-Serif" font-size="20.00" fill="#000000">+ Pessoa()</text>
<text text-anchor="start" x="246.8758" y="-1157.5" font-family="Helvetica,sans-Serif" font-size="20.00" fill="#000000">+ Pessoa()</text>
<text text-anchor="start" x="246.8758" y="-1135.5" font-family="Helvetica,sans-Serif" font-size="20.00" fill="#000000">+ ~Pessoa()</text>
<text text-anchor="start" x="246.8758" y="-1113.5" font-family="Helvetica,sans-Serif" font-size="20.00" fill="#000000">+ getNome()</text>
<text text-anchor="start" x="246.8758" y="-1091.5" font-family="Helvetica,sans-Serif" font-size="20.00" fill="#000000">+ getTelefone()</text>
<text text-anchor="start" x="246.8758" y="-1069.5" font-family="Helvetica,sans-Serif" font-size="20.00" fill="#000000">+ getEmail()</text>
<text text-anchor="start" x="246.8758" y="-1047.5" font-family="Helvetica,sans-Serif" font-size="20.00" fill="#000000">+ printOutDados()</text>
<text text-anchor="start" x="246.8758" y="-1025.5" font-family="Helvetica,sans-Serif" font-size="20.00" fill="#000000">+ operator==()</text>
</a>
</g>
</g>
<!-- Node10&#45;&gt;Node9 -->
<g id="edge6" class="edge">
<title>Node10&#45;&gt;Node9</title>
<path fill="none" stroke="#191970" d="M335.8305,-1005.1738C338.5258,-981.324 341.2767,-956.9833 343.7919,-934.7273"/>
<polygon fill="none" stroke="#191970" points="332.3248,-1005.0278 334.6796,-1015.3576 339.2805,-1005.8139 332.3248,-1005.0278"/>
</g>
<!-- Node14 -->
<g id="node11" class="node">
<title>Node14</title>
<g id="a_node11"><a xlink:href="classVeterinario.html" target="_top" xlink:title="Implementação dos veterinarios. ">
<polygon fill="#ffffff" stroke="#000000" points="89.8758,-756.5 89.8758,-934.5 253.8758,-934.5 253.8758,-756.5 89.8758,-756.5"/>
<text text-anchor="middle" x="171.8758" y="-914.5" font-family="Helvetica,sans-Serif" font-size="20.00" fill="#000000">Veterinario</text>
<polyline fill="none" stroke="#000000" points="89.8758,-904.5 253.8758,-904.5 "/>
<text text-anchor="middle" x="171.8758" y="-884.5" font-family="Helvetica,sans-Serif" font-size="20.00" fill="#000000"> </text>
<polyline fill="none" stroke="#000000" points="89.8758,-874.5 253.8758,-874.5 "/>
<text text-anchor="start" x="97.8758" y="-854.5" font-family="Helvetica,sans-Serif" font-size="20.00" fill="#000000">+ Veterinario()</text>
<text text-anchor="start" x="97.8758" y="-832.5" font-family="Helvetica,sans-Serif" font-size="20.00" fill="#000000">+ Veterinario()</text>
<text text-anchor="start" x="97.8758" y="-810.5" font-family="Helvetica,sans-Serif" font-size="20.00" fill="#000000">+ ~Veterinario()</text>
<text text-anchor="start" x="97.8758" y="-788.5" font-family="Helvetica,sans-Serif" font-size="20.00" fill="#000000">+ getCRMV()</text>
<text text-anchor="start" x="97.8758" y="-766.5" font-family="Helvetica,sans-Serif" font-size="20.00" fill="#000000">+ printOutDados()</text>
</a>
</g>
</g>
<!-- Node10&#45;&gt;Node14 -->
<g id="edge12" class="edge">
<title>Node10&#45;&gt;Node14</title>
<path fill="none" stroke="#191970" d="M253.8421,-1006.1318C241.5162,-981.9764 228.9149,-957.2813 217.4062,-934.7273"/>
<polygon fill="none" stroke="#191970" points="250.8869,-1008.0411 258.5497,-1015.3576 257.1221,-1004.8594 250.8869,-1008.0411"/>
</g>
<!-- Node11 -->
<g id="node8" class="node">
<title>Node11</title>
<polygon fill="#ffffff" stroke="#bfbfbf" points="205.8758,-1362.5 205.8758,-1452.5 269.8758,-1452.5 269.8758,-1362.5 205.8758,-1362.5"/>
<text text-anchor="middle" x="237.8758" y="-1432.5" font-family="Helvetica,sans-Serif" font-size="20.00" fill="#000000">string</text>
<polyline fill="none" stroke="#bfbfbf" points="205.8758,-1422.5 269.8758,-1422.5 "/>
<text text-anchor="middle" x="237.8758" y="-1402.5" font-family="Helvetica,sans-Serif" font-size="20.00" fill="#000000"> </text>
<polyline fill="none" stroke="#bfbfbf" points="205.8758,-1392.5 269.8758,-1392.5 "/>
<text text-anchor="middle" x="237.8758" y="-1372.5" font-family="Helvetica,sans-Serif" font-size="20.00" fill="#000000"> </text>
</g>
<!-- Node11&#45;&gt;Node7 -->
<g id="edge14" class="edge">
<title>Node11&#45;&gt;Node7</title>
<path fill="none" stroke="#404040" d="M270.2257,-1399.45C328.918,-1383.1938 453.2136,-1340.9099 521.8758,-1260 558.934,-1216.3315 561.8758,-1194.7734 561.8758,-1137.5 561.8758,-1137.5 561.8758,-1137.5 561.8758,-531.5 561.8758,-429.6917 481.073,-337.0851 420.1926,-281.7598"/>
<polygon fill="none" stroke="#404040" points="419.9375,-281.532 412.798,-280.5183 410.9878,-273.538 418.1274,-274.5518 419.9375,-281.532"/>
<text text-anchor="middle" x="588.3758" y="-840.5" font-family="Helvetica,sans-Serif" font-size="20.00" fill="#000000"> #local</text>
</g>
<!-- Node11&#45;&gt;Node8 -->
<g id="edge10" class="edge">
<title>Node11&#45;&gt;Node8</title>
<path fill="none" stroke="#404040" d="M205.6609,-1385.7182C191.6022,-1374.7142 176.0404,-1360.2497 165.8758,-1344 25.8453,-1120.139 -79.4302,-965.8196 80.8758,-756 130.3649,-691.2253 191.3913,-749.1337 254.8758,-698 255.0886,-697.8286 255.3011,-697.6566 255.5132,-697.484"/>
<polygon fill="none" stroke="#404040" points="255.7876,-697.244 257.6696,-690.2828 264.8192,-689.3427 262.9371,-696.3039 255.7876,-697.244"/>
<text text-anchor="middle" x="40.8758" y="-981" font-family="Helvetica,sans-Serif" font-size="20.00" fill="#000000"> #especie</text>
<text text-anchor="middle" x="40.8758" y="-959" font-family="Helvetica,sans-Serif" font-size="20.00" fill="#000000">#nome</text>
</g>
<!-- Node11&#45;&gt;Node10 -->
<g id="edge7" class="edge">
<title>Node11&#45;&gt;Node10</title>
<path fill="none" stroke="#404040" d="M251.7682,-1362.3081C259.529,-1337.0618 269.6474,-1304.1466 279.7373,-1271.3241"/>
<polygon fill="none" stroke="#404040" points="279.775,-1271.2012 277.7146,-1264.2907 283.3011,-1259.731 285.3615,-1266.6415 279.775,-1271.2012"/>
<text text-anchor="middle" x="315.3758" y="-1328" font-family="Helvetica,sans-Serif" font-size="20.00" fill="#000000"> #email</text>
<text text-anchor="middle" x="315.3758" y="-1306" font-family="Helvetica,sans-Serif" font-size="20.00" fill="#000000">#nome</text>
<text text-anchor="middle" x="315.3758" y="-1284" font-family="Helvetica,sans-Serif" font-size="20.00" fill="#000000">#telefone</text>
</g>
<!-- Node11&#45;&gt;Node14 -->
<g id="edge13" class="edge">
<title>Node11&#45;&gt;Node14</title>
<path fill="none" stroke="#404040" d="M208.3616,-1362.4643C191.6981,-1334.289 172.5234,-1296.5212 163.8758,-1260 139.0736,-1155.2535 145.9807,-1031.428 156.0126,-946.5645"/>
<polygon fill="none" stroke="#404040" points="156.0198,-946.505 152.779,-940.0631 157.4789,-934.594 160.7197,-941.0358 156.0198,-946.505"/>
<text text-anchor="middle" x="196.8758" y="-1132.5" font-family="Helvetica,sans-Serif" font-size="20.00" fill="#000000"> &#45;CRMV</text>
</g>
<!-- Node12 -->
<g id="node9" class="node">
<title>Node12</title>
<polygon fill="#ffffff" stroke="#bfbfbf" points="420.8758,-1092.5 420.8758,-1182.5 512.8758,-1182.5 512.8758,-1092.5 420.8758,-1092.5"/>
<text text-anchor="middle" x="466.8758" y="-1162.5" font-family="Helvetica,sans-Serif" font-size="20.00" fill="#000000">Uniforme</text>
<polyline fill="none" stroke="#bfbfbf" points="420.8758,-1152.5 512.8758,-1152.5 "/>
<text text-anchor="middle" x="466.8758" y="-1132.5" font-family="Helvetica,sans-Serif" font-size="20.00" fill="#000000"> </text>
<polyline fill="none" stroke="#bfbfbf" points="420.8758,-1122.5 512.8758,-1122.5 "/>
<text text-anchor="middle" x="466.8758" y="-1102.5" font-family="Helvetica,sans-Serif" font-size="20.00" fill="#000000"> </text>
</g>
<!-- Node12&#45;&gt;Node9 -->
<g id="edge8" class="edge">
<title>Node12&#45;&gt;Node9</title>
<path fill="none" stroke="#404040" d="M449.3436,-1092.1954C434.3043,-1053.3328 412.083,-995.9115 392.8625,-946.2443"/>
<polygon fill="none" stroke="#404040" points="392.7613,-945.9826 386.8654,-941.8307 388.4304,-934.7914 394.3262,-938.9434 392.7613,-945.9826"/>
<text text-anchor="middle" x="451.8758" y="-970" font-family="Helvetica,sans-Serif" font-size="20.00" fill="#000000"> &#45;uniforme</text>
</g>
<!-- Node13 -->
<g id="node10" class="node">
<title>Node13</title>
<polygon fill="#ffffff" stroke="#bfbfbf" points="454.3758,-800.5 454.3758,-890.5 505.3758,-890.5 505.3758,-800.5 454.3758,-800.5"/>
<text text-anchor="middle" x="479.8758" y="-870.5" font-family="Helvetica,sans-Serif" font-size="20.00" fill="#000000">bool</text>
<polyline fill="none" stroke="#bfbfbf" points="454.3758,-860.5 505.3758,-860.5 "/>
<text text-anchor="middle" x="479.8758" y="-840.5" font-family="Helvetica,sans-Serif" font-size="20.00" fill="#000000"> </text>
<polyline fill="none" stroke="#bfbfbf" points="454.3758,-830.5 505.3758,-830.5 "/>
<text text-anchor="middle" x="479.8758" y="-810.5" font-family="Helvetica,sans-Serif" font-size="20.00" fill="#000000"> </text>
</g>
<!-- Node13&#45;&gt;Node8 -->
<g id="edge9" class="edge">
<title>Node13&#45;&gt;Node8</title>
<path fill="none" stroke="#404040" d="M467.1008,-800.3714C459.6174,-775.2639 449.5553,-743.6021 438.8758,-716 437.9562,-713.6231 437.0207,-711.2334 436.0711,-708.8335"/>
<polygon fill="none" stroke="#404040" points="436.0058,-708.671 430.0563,-704.5962 431.5294,-697.5372 437.4789,-701.6119 436.0058,-708.671"/>
<text text-anchor="middle" x="488.8758" y="-722" font-family="Helvetica,sans-Serif" font-size="20.00" fill="#000000"> #perigoso</text>
</g>
<!-- Node14&#45;&gt;Node8 -->
<g id="edge11" class="edge">
<title>Node14&#45;&gt;Node8</title>
<path fill="none" stroke="#404040" d="M223.5108,-756.3275C231.3379,-742.815 239.3199,-729.0377 246.8758,-716 250.7139,-709.3774 254.6299,-702.6213 258.5861,-695.7965"/>
<polygon fill="none" stroke="#404040" points="258.8123,-695.4062 258.3609,-688.2092 264.8307,-685.0245 265.2821,-692.2214 258.8123,-695.4062"/>
<text text-anchor="middle" x="298.3758" y="-722" font-family="Helvetica,sans-Serif" font-size="20.00" fill="#000000"> #veterinario</text>
</g>
</g>
</svg>
