<?xml version="1.0" encoding="UTF-8" standalone="no"?>
<!DOCTYPE svg PUBLIC "-//W3C//DTD SVG 1.1//EN"
 "http://www.w3.org/Graphics/SVG/1.1/DTD/svg11.dtd">
<!-- Generated by graphviz version 2.40.1 (20161225.0304)
 -->
<!-- Title: AveNativa Pages: 1 -->
<svg width="281pt" height="771pt"
 viewBox="0.00 0.00 281.00 771.00" xmlns="http://www.w3.org/2000/svg" xmlns:xlink="http://www.w3.org/1999/xlink">
<g id="graph0" class="graph" transform="scale(1 1) rotate(0) translate(4 767)">
<title>AveNativa</title>
<polygon fill="#ffffff" stroke="transparent" points="-4,4 -4,-767 277,-767 277,4 -4,4"/>
<!-- Node0 -->
<g id="node1" class="node">
<title>Node0</title>
<polygon fill="#bfbfbf" stroke="#000000" points="47,-.5 47,-112.5 187,-112.5 187,-.5 47,-.5"/>
<text text-anchor="middle" x="117" y="-92.5" font-family="Helvetica,sans-Serif" font-size="20.00" fill="#000000">AveNativa</text>
<polyline fill="none" stroke="#000000" points="47,-82.5 187,-82.5 "/>
<text text-anchor="middle" x="117" y="-62.5" font-family="Helvetica,sans-Serif" font-size="20.00" fill="#000000"> </text>
<polyline fill="none" stroke="#000000" points="47,-52.5 187,-52.5 "/>
<text text-anchor="start" x="55" y="-32.5" font-family="Helvetica,sans-Serif" font-size="20.00" fill="#000000">+ AveNativa()</text>
<text text-anchor="start" x="55" y="-10.5" font-family="Helvetica,sans-Serif" font-size="20.00" fill="#000000">+ ~AveNativa()</text>
</g>
<!-- Node1 -->
<g id="node2" class="node">
<title>Node1</title>
<g id="a_node2"><a xlink:href="classAve.html" target="_top" xlink:title="Classificação base para Aves. ">
<polygon fill="#ffffff" stroke="#000000" points="0,-149.5 0,-305.5 102,-305.5 102,-149.5 0,-149.5"/>
<text text-anchor="middle" x="51" y="-285.5" font-family="Helvetica,sans-Serif" font-size="20.00" fill="#000000">Ave</text>
<polyline fill="none" stroke="#000000" points="0,-275.5 102,-275.5 "/>
<text text-anchor="start" x="8" y="-255.5" font-family="Helvetica,sans-Serif" font-size="20.00" fill="#000000"># voa</text>
<polyline fill="none" stroke="#000000" points="0,-245.5 102,-245.5 "/>
<text text-anchor="start" x="8" y="-225.5" font-family="Helvetica,sans-Serif" font-size="20.00" fill="#000000">+ Ave()</text>
<text text-anchor="start" x="8" y="-203.5" font-family="Helvetica,sans-Serif" font-size="20.00" fill="#000000">+ Ave()</text>
<text text-anchor="start" x="8" y="-181.5" font-family="Helvetica,sans-Serif" font-size="20.00" fill="#000000">+ ~Ave()</text>
<text text-anchor="start" x="8" y="-159.5" font-family="Helvetica,sans-Serif" font-size="20.00" fill="#000000">+ getVoa()</text>
</a>
</g>
</g>
<!-- Node1&#45;&gt;Node0 -->
<g id="edge1" class="edge">
<title>Node1&#45;&gt;Node0</title>
<path fill="none" stroke="#191970" d="M84.9732,-139.4785C88.5035,-130.3318 92.0189,-121.2236 95.3577,-112.5732"/>
<polygon fill="none" stroke="#191970" points="81.6313,-138.4172 81.2957,-149.0067 88.1617,-140.9377 81.6313,-138.4172"/>
</g>
<!-- Node2 -->
<g id="node3" class="node">
<title>Node2</title>
<g id="a_node3"><a xlink:href="classNativo.html" target="_top" xlink:title="Umas das definições de categoria para Animal. ">
<polygon fill="#ffffff" stroke="#000000" points="120.5,-149.5 120.5,-305.5 247.5,-305.5 247.5,-149.5 120.5,-149.5"/>
<text text-anchor="middle" x="184" y="-285.5" font-family="Helvetica,sans-Serif" font-size="20.00" fill="#000000">Nativo</text>
<polyline fill="none" stroke="#000000" points="120.5,-275.5 247.5,-275.5 "/>
<text text-anchor="start" x="128.5" y="-255.5" font-family="Helvetica,sans-Serif" font-size="20.00" fill="#000000"># regiao</text>
<polyline fill="none" stroke="#000000" points="120.5,-245.5 247.5,-245.5 "/>
<text text-anchor="start" x="128.5" y="-225.5" font-family="Helvetica,sans-Serif" font-size="20.00" fill="#000000">+ Nativo()</text>
<text text-anchor="start" x="128.5" y="-203.5" font-family="Helvetica,sans-Serif" font-size="20.00" fill="#000000">+ Nativo()</text>
<text text-anchor="start" x="128.5" y="-181.5" font-family="Helvetica,sans-Serif" font-size="20.00" fill="#000000">+ ~Nativo()</text>
<text text-anchor="start" x="128.5" y="-159.5" font-family="Helvetica,sans-Serif" font-size="20.00" fill="#000000">+ getRegiao()</text>
</a>
</g>
</g>
<!-- Node2&#45;&gt;Node0 -->
<g id="edge2" class="edge">
<title>Node2&#45;&gt;Node0</title>
<path fill="none" stroke="#191970" d="M149.512,-139.4785C145.9283,-130.3318 142.3596,-121.2236 138.9702,-112.5732"/>
<polygon fill="none" stroke="#191970" points="146.3384,-140.9727 153.2453,-149.0067 152.8559,-138.419 146.3384,-140.9727"/>
</g>
<!-- Node3 -->
<g id="node4" class="node">
<title>Node3</title>
<g id="a_node4"><a xlink:href="classAnimal.html" target="_top" xlink:title="Implementação base para o cadastro de animais. ">
<polygon fill="#ffffff" stroke="#000000" points="95,-342.5 95,-762.5 273,-762.5 273,-342.5 95,-342.5"/>
<text text-anchor="middle" x="184" y="-742.5" font-family="Helvetica,sans-Serif" font-size="20.00" fill="#000000">Animal</text>
<polyline fill="none" stroke="#000000" points="95,-732.5 273,-732.5 "/>
<text text-anchor="start" x="103" y="-712.5" font-family="Helvetica,sans-Serif" font-size="20.00" fill="#000000"># nome</text>
<text text-anchor="start" x="103" y="-690.5" font-family="Helvetica,sans-Serif" font-size="20.00" fill="#000000"># especie</text>
<text text-anchor="start" x="103" y="-668.5" font-family="Helvetica,sans-Serif" font-size="20.00" fill="#000000"># veterinario</text>
<text text-anchor="start" x="103" y="-646.5" font-family="Helvetica,sans-Serif" font-size="20.00" fill="#000000"># tratador</text>
<text text-anchor="start" x="103" y="-624.5" font-family="Helvetica,sans-Serif" font-size="20.00" fill="#000000"># perigoso</text>
<polyline fill="none" stroke="#000000" points="95,-614.5 273,-614.5 "/>
<text text-anchor="start" x="103" y="-594.5" font-family="Helvetica,sans-Serif" font-size="20.00" fill="#000000">+ Animal()</text>
<text text-anchor="start" x="103" y="-572.5" font-family="Helvetica,sans-Serif" font-size="20.00" fill="#000000">+ Animal()</text>
<text text-anchor="start" x="103" y="-550.5" font-family="Helvetica,sans-Serif" font-size="20.00" fill="#000000">+ ~Animal()</text>
<text text-anchor="start" x="103" y="-528.5" font-family="Helvetica,sans-Serif" font-size="20.00" fill="#000000">+ getNome()</text>
<text text-anchor="start" x="103" y="-506.5" font-family="Helvetica,sans-Serif" font-size="20.00" fill="#000000">+ getEspecie()</text>
<text text-anchor="start" x="103" y="-484.5" font-family="Helvetica,sans-Serif" font-size="20.00" fill="#000000">+ getVeterinario()</text>
<text text-anchor="start" x="103" y="-462.5" font-family="Helvetica,sans-Serif" font-size="20.00" fill="#000000">+ getTratador()</text>
<text text-anchor="start" x="103" y="-440.5" font-family="Helvetica,sans-Serif" font-size="20.00" fill="#000000">+ getPerigoso()</text>
<text text-anchor="start" x="103" y="-418.5" font-family="Helvetica,sans-Serif" font-size="20.00" fill="#000000">+ getClassificacao()</text>
<text text-anchor="start" x="103" y="-396.5" font-family="Helvetica,sans-Serif" font-size="20.00" fill="#000000">+ getClasse()</text>
<text text-anchor="start" x="103" y="-374.5" font-family="Helvetica,sans-Serif" font-size="20.00" fill="#000000">+ printOutDados()</text>
<text text-anchor="start" x="103" y="-352.5" font-family="Helvetica,sans-Serif" font-size="20.00" fill="#000000">+ operator==()</text>
</a>
</g>
</g>
<!-- Node3&#45;&gt;Node2 -->
<g id="edge3" class="edge">
<title>Node3&#45;&gt;Node2</title>
<path fill="none" stroke="#191970" d="M184,-332.0665C184,-322.9314 184,-314.0773 184,-305.6428"/>
<polygon fill="none" stroke="#191970" points="180.5001,-332.0828 184,-342.0828 187.5001,-332.0829 180.5001,-332.0828"/>
</g>
</g>
</svg>
