<?xml version="1.0" encoding="UTF-8" standalone="no"?>
<!DOCTYPE svg PUBLIC "-//W3C//DTD SVG 1.1//EN"
 "http://www.w3.org/Graphics/SVG/1.1/DTD/svg11.dtd">
<!-- Generated by graphviz version 2.40.1 (20161225.0304)
 -->
<!-- Title: ReptilDomestico Pages: 1 -->
<svg width="299pt" height="771pt"
 viewBox="0.00 0.00 299.00 771.00" xmlns="http://www.w3.org/2000/svg" xmlns:xlink="http://www.w3.org/1999/xlink">
<g id="graph0" class="graph" transform="scale(1 1) rotate(0) translate(4 767)">
<title>ReptilDomestico</title>
<polygon fill="#ffffff" stroke="transparent" points="-4,4 -4,-767 295,-767 295,4 -4,4"/>
<!-- Node0 -->
<g id="node1" class="node">
<title>Node0</title>
<polygon fill="#bfbfbf" stroke="#000000" points="33,-.5 33,-112.5 221,-112.5 221,-.5 33,-.5"/>
<text text-anchor="middle" x="127" y="-92.5" font-family="Helvetica,sans-Serif" font-size="20.00" fill="#000000">ReptilDomestico</text>
<polyline fill="none" stroke="#000000" points="33,-82.5 221,-82.5 "/>
<text text-anchor="middle" x="127" y="-62.5" font-family="Helvetica,sans-Serif" font-size="20.00" fill="#000000"> </text>
<polyline fill="none" stroke="#000000" points="33,-52.5 221,-52.5 "/>
<text text-anchor="start" x="41" y="-32.5" font-family="Helvetica,sans-Serif" font-size="20.00" fill="#000000">+ ReptilDomestico()</text>
<text text-anchor="start" x="41" y="-10.5" font-family="Helvetica,sans-Serif" font-size="20.00" fill="#000000">+ ~ReptilDomestico()</text>
</g>
<!-- Node1 -->
<g id="node2" class="node">
<title>Node1</title>
<g id="a_node2"><a xlink:href="classReptil.html" target="_top" xlink:title="Classificação base para Repteis. ">
<polygon fill="#ffffff" stroke="#000000" points="0,-149.5 0,-305.5 106,-305.5 106,-149.5 0,-149.5"/>
<text text-anchor="middle" x="53" y="-285.5" font-family="Helvetica,sans-Serif" font-size="20.00" fill="#000000">Reptil</text>
<polyline fill="none" stroke="#000000" points="0,-275.5 106,-275.5 "/>
<text text-anchor="start" x="8" y="-255.5" font-family="Helvetica,sans-Serif" font-size="20.00" fill="#000000"># pele</text>
<polyline fill="none" stroke="#000000" points="0,-245.5 106,-245.5 "/>
<text text-anchor="start" x="8" y="-225.5" font-family="Helvetica,sans-Serif" font-size="20.00" fill="#000000">+ Reptil()</text>
<text text-anchor="start" x="8" y="-203.5" font-family="Helvetica,sans-Serif" font-size="20.00" fill="#000000">+ Reptil()</text>
<text text-anchor="start" x="8" y="-181.5" font-family="Helvetica,sans-Serif" font-size="20.00" fill="#000000">+ ~Reptil()</text>
<text text-anchor="start" x="8" y="-159.5" font-family="Helvetica,sans-Serif" font-size="20.00" fill="#000000">+ getPele()</text>
</a>
</g>
</g>
<!-- Node1&#45;&gt;Node0 -->
<g id="edge1" class="edge">
<title>Node1&#45;&gt;Node0</title>
<path fill="none" stroke="#191970" d="M90.9662,-139.7674C94.9664,-130.5236 98.9515,-121.3147 102.7344,-112.5732"/>
<polygon fill="none" stroke="#191970" points="87.7274,-138.4391 86.9679,-149.0067 94.1516,-141.2192 87.7274,-138.4391"/>
</g>
<!-- Node2 -->
<g id="node3" class="node">
<title>Node2</title>
<g id="a_node3"><a xlink:href="classDomestico.html" target="_top" xlink:title="Umas das definições de categoria para Animal. ">
<polygon fill="#ffffff" stroke="#000000" points="124.5,-149.5 124.5,-305.5 279.5,-305.5 279.5,-149.5 124.5,-149.5"/>
<text text-anchor="middle" x="202" y="-285.5" font-family="Helvetica,sans-Serif" font-size="20.00" fill="#000000">Domestico</text>
<polyline fill="none" stroke="#000000" points="124.5,-275.5 279.5,-275.5 "/>
<text text-anchor="start" x="132.5" y="-255.5" font-family="Helvetica,sans-Serif" font-size="20.00" fill="#000000"># adestrado</text>
<polyline fill="none" stroke="#000000" points="124.5,-245.5 279.5,-245.5 "/>
<text text-anchor="start" x="132.5" y="-225.5" font-family="Helvetica,sans-Serif" font-size="20.00" fill="#000000">+ Domestico()</text>
<text text-anchor="start" x="132.5" y="-203.5" font-family="Helvetica,sans-Serif" font-size="20.00" fill="#000000">+ Domestico()</text>
<text text-anchor="start" x="132.5" y="-181.5" font-family="Helvetica,sans-Serif" font-size="20.00" fill="#000000">+ ~Domestico()</text>
<text text-anchor="start" x="132.5" y="-159.5" font-family="Helvetica,sans-Serif" font-size="20.00" fill="#000000">+ getAdestrado()</text>
</a>
</g>
</g>
<!-- Node2&#45;&gt;Node0 -->
<g id="edge2" class="edge">
<title>Node2&#45;&gt;Node0</title>
<path fill="none" stroke="#191970" d="M163.5208,-139.7674C159.4665,-130.5236 155.4275,-121.3147 151.5935,-112.5732"/>
<polygon fill="none" stroke="#191970" points="160.3512,-141.2546 167.5731,-149.0067 166.7617,-138.443 160.3512,-141.2546"/>
</g>
<!-- Node3 -->
<g id="node4" class="node">
<title>Node3</title>
<g id="a_node4"><a xlink:href="classAnimal.html" target="_top" xlink:title="Implementação base para o cadastro de animais. ">
<polygon fill="#ffffff" stroke="#000000" points="113,-342.5 113,-762.5 291,-762.5 291,-342.5 113,-342.5"/>
<text text-anchor="middle" x="202" y="-742.5" font-family="Helvetica,sans-Serif" font-size="20.00" fill="#000000">Animal</text>
<polyline fill="none" stroke="#000000" points="113,-732.5 291,-732.5 "/>
<text text-anchor="start" x="121" y="-712.5" font-family="Helvetica,sans-Serif" font-size="20.00" fill="#000000"># nome</text>
<text text-anchor="start" x="121" y="-690.5" font-family="Helvetica,sans-Serif" font-size="20.00" fill="#000000"># especie</text>
<text text-anchor="start" x="121" y="-668.5" font-family="Helvetica,sans-Serif" font-size="20.00" fill="#000000"># veterinario</text>
<text text-anchor="start" x="121" y="-646.5" font-family="Helvetica,sans-Serif" font-size="20.00" fill="#000000"># tratador</text>
<text text-anchor="start" x="121" y="-624.5" font-family="Helvetica,sans-Serif" font-size="20.00" fill="#000000"># perigoso</text>
<polyline fill="none" stroke="#000000" points="113,-614.5 291,-614.5 "/>
<text text-anchor="start" x="121" y="-594.5" font-family="Helvetica,sans-Serif" font-size="20.00" fill="#000000">+ Animal()</text>
<text text-anchor="start" x="121" y="-572.5" font-family="Helvetica,sans-Serif" font-size="20.00" fill="#000000">+ Animal()</text>
<text text-anchor="start" x="121" y="-550.5" font-family="Helvetica,sans-Serif" font-size="20.00" fill="#000000">+ ~Animal()</text>
<text text-anchor="start" x="121" y="-528.5" font-family="Helvetica,sans-Serif" font-size="20.00" fill="#000000">+ getNome()</text>
<text text-anchor="start" x="121" y="-506.5" font-family="Helvetica,sans-Serif" font-size="20.00" fill="#000000">+ getEspecie()</text>
<text text-anchor="start" x="121" y="-484.5" font-family="Helvetica,sans-Serif" font-size="20.00" fill="#000000">+ getVeterinario()</text>
<text text-anchor="start" x="121" y="-462.5" font-family="Helvetica,sans-Serif" font-size="20.00" fill="#000000">+ getTratador()</text>
<text text-anchor="start" x="121" y="-440.5" font-family="Helvetica,sans-Serif" font-size="20.00" fill="#000000">+ getPerigoso()</text>
<text text-anchor="start" x="121" y="-418.5" font-family="Helvetica,sans-Serif" font-size="20.00" fill="#000000">+ getClassificacao()</text>
<text text-anchor="start" x="121" y="-396.5" font-family="Helvetica,sans-Serif" font-size="20.00" fill="#000000">+ getClasse()</text>
<text text-anchor="start" x="121" y="-374.5" font-family="Helvetica,sans-Serif" font-size="20.00" fill="#000000">+ printOutDados()</text>
<text text-anchor="start" x="121" y="-352.5" font-family="Helvetica,sans-Serif" font-size="20.00" fill="#000000">+ operator==()</text>
</a>
</g>
</g>
<!-- Node3&#45;&gt;Node2 -->
<g id="edge3" class="edge">
<title>Node3&#45;&gt;Node2</title>
<path fill="none" stroke="#191970" d="M202,-332.0665C202,-322.9314 202,-314.0773 202,-305.6428"/>
<polygon fill="none" stroke="#191970" points="198.5001,-332.0828 202,-342.0828 205.5001,-332.0829 198.5001,-332.0828"/>
</g>
</g>
</svg>
