<?xml version="1.0" encoding="UTF-8" standalone="no"?>
<!DOCTYPE svg PUBLIC "-//W3C//DTD SVG 1.1//EN"
 "http://www.w3.org/Graphics/SVG/1.1/DTD/svg11.dtd">
<!-- Generated by graphviz version 2.40.1 (20161225.0304)
 -->
<!-- Title: Mamifero Pages: 1 -->
<svg width="171pt" height="292pt"
 viewBox="0.00 0.00 170.50 292.00" xmlns="http://www.w3.org/2000/svg" xmlns:xlink="http://www.w3.org/1999/xlink">
<g id="graph0" class="graph" transform="scale(1 1) rotate(0) translate(4 288)">
<title>Mamifero</title>
<polygon fill="#ffffff" stroke="transparent" points="-4,4 -4,-288 166.5,-288 166.5,4 -4,4"/>
<!-- Node4 -->
<g id="node1" class="node">
<title>Node4</title>
<polygon fill="#bfbfbf" stroke="#000000" points="0,-.5 0,-134.5 147,-134.5 147,-.5 0,-.5"/>
<text text-anchor="middle" x="73.5" y="-114.5" font-family="Helvetica,sans-Serif" font-size="20.00" fill="#000000">Mamifero</text>
<polyline fill="none" stroke="#000000" points="0,-104.5 147,-104.5 "/>
<text text-anchor="middle" x="73.5" y="-84.5" font-family="Helvetica,sans-Serif" font-size="20.00" fill="#000000"> </text>
<polyline fill="none" stroke="#000000" points="0,-74.5 147,-74.5 "/>
<text text-anchor="start" x="8" y="-54.5" font-family="Helvetica,sans-Serif" font-size="20.00" fill="#000000">+ Mamifero()</text>
<text text-anchor="start" x="8" y="-32.5" font-family="Helvetica,sans-Serif" font-size="20.00" fill="#000000">+ ~Mamifero()</text>
<text text-anchor="start" x="8" y="-10.5" font-family="Helvetica,sans-Serif" font-size="20.00" fill="#000000">+ getGestacao()</text>
</g>
<!-- Node5 -->
<g id="node2" class="node">
<title>Node5</title>
<polygon fill="#ffffff" stroke="#bfbfbf" points="48,-193.5 48,-283.5 99,-283.5 99,-193.5 48,-193.5"/>
<text text-anchor="middle" x="73.5" y="-263.5" font-family="Helvetica,sans-Serif" font-size="20.00" fill="#000000">bool</text>
<polyline fill="none" stroke="#bfbfbf" points="48,-253.5 99,-253.5 "/>
<text text-anchor="middle" x="73.5" y="-233.5" font-family="Helvetica,sans-Serif" font-size="20.00" fill="#000000"> </text>
<polyline fill="none" stroke="#bfbfbf" points="48,-223.5 99,-223.5 "/>
<text text-anchor="middle" x="73.5" y="-203.5" font-family="Helvetica,sans-Serif" font-size="20.00" fill="#000000"> </text>
</g>
<!-- Node5&#45;&gt;Node4 -->
<g id="edge1" class="edge">
<title>Node5&#45;&gt;Node4</title>
<path fill="none" stroke="#404040" d="M73.5,-193.1241C73.5,-178.8529 73.5,-162.6529 73.5,-146.7433"/>
<polygon fill="none" stroke="#404040" points="73.5001,-146.6705 69.5,-140.6706 73.5,-134.6705 77.5,-140.6705 73.5001,-146.6705"/>
<text text-anchor="middle" x="118" y="-159" font-family="Helvetica,sans-Serif" font-size="20.00" fill="#000000"> #gestacao</text>
</g>
</g>
</svg>
