<?xml version="1.0" encoding="UTF-8" standalone="no"?>
<!DOCTYPE svg PUBLIC "-//W3C//DTD SVG 1.1//EN"
 "http://www.w3.org/Graphics/SVG/1.1/DTD/svg11.dtd">
<!-- Generated by graphviz version 2.40.1 (20161225.0304)
 -->
<!-- Title: AnfibioDomestico Pages: 1 -->
<svg width="703pt" height="1618pt"
 viewBox="0.00 0.00 702.50 1618.00" xmlns="http://www.w3.org/2000/svg" xmlns:xlink="http://www.w3.org/1999/xlink">
<g id="graph0" class="graph" transform="scale(1 1) rotate(0) translate(4 1614)">
<title>AnfibioDomestico</title>
<polygon fill="#ffffff" stroke="transparent" points="-4,4 -4,-1614 698.5,-1614 698.5,4 -4,4"/>
<!-- Node4 -->
<g id="node1" class="node">
<title>Node4</title>
<polygon fill="#bfbfbf" stroke="#000000" points="0,-.5 0,-112.5 199,-112.5 199,-.5 0,-.5"/>
<text text-anchor="middle" x="99.5" y="-92.5" font-family="Helvetica,sans-Serif" font-size="20.00" fill="#000000">AnfibioDomestico</text>
<polyline fill="none" stroke="#000000" points="0,-82.5 199,-82.5 "/>
<text text-anchor="middle" x="99.5" y="-62.5" font-family="Helvetica,sans-Serif" font-size="20.00" fill="#000000"> </text>
<polyline fill="none" stroke="#000000" points="0,-52.5 199,-52.5 "/>
<text text-anchor="start" x="8" y="-32.5" font-family="Helvetica,sans-Serif" font-size="20.00" fill="#000000">+ AnfibioDomestico()</text>
<text text-anchor="start" x="8" y="-10.5" font-family="Helvetica,sans-Serif" font-size="20.00" fill="#000000">+ ~AnfibioDomestico()</text>
</g>
<!-- Node5 -->
<g id="node2" class="node">
<title>Node5</title>
<g id="a_node2"><a xlink:href="classAnfibio.html" target="_top" xlink:title="Classificação base para Anfibios. ">
<polygon fill="#ffffff" stroke="#000000" points="25.5,-325.5 25.5,-481.5 149.5,-481.5 149.5,-325.5 25.5,-325.5"/>
<text text-anchor="middle" x="87.5" y="-461.5" font-family="Helvetica,sans-Serif" font-size="20.00" fill="#000000">Anfibio</text>
<polyline fill="none" stroke="#000000" points="25.5,-451.5 149.5,-451.5 "/>
<text text-anchor="middle" x="87.5" y="-431.5" font-family="Helvetica,sans-Serif" font-size="20.00" fill="#000000"> </text>
<polyline fill="none" stroke="#000000" points="25.5,-421.5 149.5,-421.5 "/>
<text text-anchor="start" x="33.5" y="-401.5" font-family="Helvetica,sans-Serif" font-size="20.00" fill="#000000">+ Anfibio()</text>
<text text-anchor="start" x="33.5" y="-379.5" font-family="Helvetica,sans-Serif" font-size="20.00" fill="#000000">+ ~Anfibio()</text>
<text text-anchor="start" x="33.5" y="-357.5" font-family="Helvetica,sans-Serif" font-size="20.00" fill="#000000">+ getCauda()</text>
<text text-anchor="start" x="33.5" y="-335.5" font-family="Helvetica,sans-Serif" font-size="20.00" fill="#000000">+ getPata()</text>
</a>
</g>
</g>
<!-- Node5&#45;&gt;Node4 -->
<g id="edge1" class="edge">
<title>Node5&#45;&gt;Node4</title>
<path fill="none" stroke="#191970" d="M90.5552,-315.1524C92.7582,-251.4504 95.6654,-167.3841 97.5583,-112.6481"/>
<polygon fill="none" stroke="#191970" points="87.0558,-315.0787 90.208,-325.1938 94.0516,-315.3207 87.0558,-315.0787"/>
</g>
<!-- Node6 -->
<g id="node3" class="node">
<title>Node6</title>
<polygon fill="#ffffff" stroke="#bfbfbf" points="139,-957.5 139,-1047.5 190,-1047.5 190,-957.5 139,-957.5"/>
<text text-anchor="middle" x="164.5" y="-1027.5" font-family="Helvetica,sans-Serif" font-size="20.00" fill="#000000">bool</text>
<polyline fill="none" stroke="#bfbfbf" points="139,-1017.5 190,-1017.5 "/>
<text text-anchor="middle" x="164.5" y="-997.5" font-family="Helvetica,sans-Serif" font-size="20.00" fill="#000000"> </text>
<polyline fill="none" stroke="#bfbfbf" points="139,-987.5 190,-987.5 "/>
<text text-anchor="middle" x="164.5" y="-967.5" font-family="Helvetica,sans-Serif" font-size="20.00" fill="#000000"> </text>
</g>
<!-- Node6&#45;&gt;Node5 -->
<g id="edge2" class="edge">
<title>Node6&#45;&gt;Node5</title>
<path fill="none" stroke="#404040" d="M138.9303,-975.8606C121.2626,-955.513 99.2535,-925.8071 89.5,-895 46.8688,-760.347 58.5294,-594.3469 72.0972,-493.8275"/>
<polygon fill="none" stroke="#404040" points="72.1029,-493.7855 68.9685,-487.2912 73.7577,-481.9001 76.8921,-488.3944 72.1029,-493.7855"/>
<text text-anchor="middle" x="120" y="-879" font-family="Helvetica,sans-Serif" font-size="20.00" fill="#000000"> #pata</text>
<text text-anchor="middle" x="120" y="-857" font-family="Helvetica,sans-Serif" font-size="20.00" fill="#000000">#cauda</text>
</g>
<!-- Node7 -->
<g id="node4" class="node">
<title>Node7</title>
<g id="a_node4"><a xlink:href="classDomestico.html" target="_top" xlink:title="Umas das definições de categoria para Animal. ">
<polygon fill="#ffffff" stroke="#000000" points="116,-150.5 116,-306.5 271,-306.5 271,-150.5 116,-150.5"/>
<text text-anchor="middle" x="193.5" y="-286.5" font-family="Helvetica,sans-Serif" font-size="20.00" fill="#000000">Domestico</text>
<polyline fill="none" stroke="#000000" points="116,-276.5 271,-276.5 "/>
<text text-anchor="middle" x="193.5" y="-256.5" font-family="Helvetica,sans-Serif" font-size="20.00" fill="#000000"> </text>
<polyline fill="none" stroke="#000000" points="116,-246.5 271,-246.5 "/>
<text text-anchor="start" x="124" y="-226.5" font-family="Helvetica,sans-Serif" font-size="20.00" fill="#000000">+ Domestico()</text>
<text text-anchor="start" x="124" y="-204.5" font-family="Helvetica,sans-Serif" font-size="20.00" fill="#000000">+ Domestico()</text>
<text text-anchor="start" x="124" y="-182.5" font-family="Helvetica,sans-Serif" font-size="20.00" fill="#000000">+ ~Domestico()</text>
<text text-anchor="start" x="124" y="-160.5" font-family="Helvetica,sans-Serif" font-size="20.00" fill="#000000">+ getAdestrado()</text>
</a>
</g>
</g>
<!-- Node6&#45;&gt;Node7 -->
<g id="edge14" class="edge">
<title>Node6&#45;&gt;Node7</title>
<path fill="none" stroke="#404040" d="M164.4676,-957.4293C164.5903,-869.4431 165.7835,-668.6592 173.5,-500 176.2706,-439.444 181.2852,-371.4164 185.5999,-318.6043"/>
<polygon fill="none" stroke="#404040" points="185.6076,-318.5101 182.1143,-312.2016 186.594,-306.5507 190.0873,-312.8592 185.6076,-318.5101"/>
<text text-anchor="middle" x="222" y="-661.5" font-family="Helvetica,sans-Serif" font-size="20.00" fill="#000000"> #adestrado</text>
</g>
<!-- Node8 -->
<g id="node5" class="node">
<title>Node8</title>
<g id="a_node5"><a xlink:href="classAnimal.html" target="_top" xlink:title="Implementação base para o cadastro de animais. ">
<polygon fill="#ffffff" stroke="#000000" points="279.5,-500.5 279.5,-832.5 457.5,-832.5 457.5,-500.5 279.5,-500.5"/>
<text text-anchor="middle" x="368.5" y="-812.5" font-family="Helvetica,sans-Serif" font-size="20.00" fill="#000000">Animal</text>
<polyline fill="none" stroke="#000000" points="279.5,-802.5 457.5,-802.5 "/>
<text text-anchor="middle" x="368.5" y="-782.5" font-family="Helvetica,sans-Serif" font-size="20.00" fill="#000000"> </text>
<polyline fill="none" stroke="#000000" points="279.5,-772.5 457.5,-772.5 "/>
<text text-anchor="start" x="287.5" y="-752.5" font-family="Helvetica,sans-Serif" font-size="20.00" fill="#000000">+ Animal()</text>
<text text-anchor="start" x="287.5" y="-730.5" font-family="Helvetica,sans-Serif" font-size="20.00" fill="#000000">+ Animal()</text>
<text text-anchor="start" x="287.5" y="-708.5" font-family="Helvetica,sans-Serif" font-size="20.00" fill="#000000">+ ~Animal()</text>
<text text-anchor="start" x="287.5" y="-686.5" font-family="Helvetica,sans-Serif" font-size="20.00" fill="#000000">+ getNome()</text>
<text text-anchor="start" x="287.5" y="-664.5" font-family="Helvetica,sans-Serif" font-size="20.00" fill="#000000">+ getEspecie()</text>
<text text-anchor="start" x="287.5" y="-642.5" font-family="Helvetica,sans-Serif" font-size="20.00" fill="#000000">+ getVeterinario()</text>
<text text-anchor="start" x="287.5" y="-620.5" font-family="Helvetica,sans-Serif" font-size="20.00" fill="#000000">+ getTratador()</text>
<text text-anchor="start" x="287.5" y="-598.5" font-family="Helvetica,sans-Serif" font-size="20.00" fill="#000000">+ getPerigoso()</text>
<text text-anchor="start" x="287.5" y="-576.5" font-family="Helvetica,sans-Serif" font-size="20.00" fill="#000000">+ getClassificacao()</text>
<text text-anchor="start" x="287.5" y="-554.5" font-family="Helvetica,sans-Serif" font-size="20.00" fill="#000000">+ getClasse()</text>
<text text-anchor="start" x="287.5" y="-532.5" font-family="Helvetica,sans-Serif" font-size="20.00" fill="#000000">+ printOutDados()</text>
<text text-anchor="start" x="287.5" y="-510.5" font-family="Helvetica,sans-Serif" font-size="20.00" fill="#000000">+ operator==()</text>
</a>
</g>
</g>
<!-- Node6&#45;&gt;Node8 -->
<g id="edge9" class="edge">
<title>Node6&#45;&gt;Node8</title>
<path fill="none" stroke="#404040" d="M169.448,-957.4027C174.6251,-918.4354 184.0389,-866.077 198.5,-851 219.8435,-828.7475 240.7616,-851.4046 265.5,-833 266.9914,-831.8905 268.466,-830.7523 269.924,-829.5874"/>
<polygon fill="none" stroke="#404040" points="270.2031,-829.3476 272.1472,-822.4034 279.3049,-821.5271 277.3608,-828.4713 270.2031,-829.3476"/>
<text text-anchor="middle" x="241.5" y="-868" font-family="Helvetica,sans-Serif" font-size="20.00" fill="#000000"> #perigoso</text>
</g>
<!-- Node7&#45;&gt;Node4 -->
<g id="edge3" class="edge">
<title>Node7&#45;&gt;Node4</title>
<path fill="none" stroke="#191970" d="M145.8742,-141.3549C140.5452,-131.604 135.2269,-121.8727 130.1935,-112.6626"/>
<polygon fill="none" stroke="#191970" points="142.8963,-143.2044 150.7633,-150.301 149.0389,-139.8474 142.8963,-143.2044"/>
</g>
<!-- Node8&#45;&gt;Node7 -->
<g id="edge4" class="edge">
<title>Node8&#45;&gt;Node7</title>
<path fill="none" stroke="#191970" d="M298.3341,-490.8848C272.7657,-426.8906 245.1401,-357.7478 224.6695,-306.5127"/>
<polygon fill="none" stroke="#191970" points="295.13,-492.2988 302.0905,-500.2864 301.6303,-489.7016 295.13,-492.2988"/>
</g>
<!-- Node9 -->
<g id="node6" class="node">
<title>Node9</title>
<g id="a_node6"><a xlink:href="classTratador.html" target="_top" xlink:title="Implementação dos tratadores. ">
<polygon fill="#ffffff" stroke="#000000" points="326.5,-913.5 326.5,-1091.5 490.5,-1091.5 490.5,-913.5 326.5,-913.5"/>
<text text-anchor="middle" x="408.5" y="-1071.5" font-family="Helvetica,sans-Serif" font-size="20.00" fill="#000000">Tratador</text>
<polyline fill="none" stroke="#000000" points="326.5,-1061.5 490.5,-1061.5 "/>
<text text-anchor="middle" x="408.5" y="-1041.5" font-family="Helvetica,sans-Serif" font-size="20.00" fill="#000000"> </text>
<polyline fill="none" stroke="#000000" points="326.5,-1031.5 490.5,-1031.5 "/>
<text text-anchor="start" x="334.5" y="-1011.5" font-family="Helvetica,sans-Serif" font-size="20.00" fill="#000000">+ Tratador()</text>
<text text-anchor="start" x="334.5" y="-989.5" font-family="Helvetica,sans-Serif" font-size="20.00" fill="#000000">+ Tratador()</text>
<text text-anchor="start" x="334.5" y="-967.5" font-family="Helvetica,sans-Serif" font-size="20.00" fill="#000000">+ ~Tratador()</text>
<text text-anchor="start" x="334.5" y="-945.5" font-family="Helvetica,sans-Serif" font-size="20.00" fill="#000000">+ getUniforme()</text>
<text text-anchor="start" x="334.5" y="-923.5" font-family="Helvetica,sans-Serif" font-size="20.00" fill="#000000">+ printOutDados()</text>
</a>
</g>
</g>
<!-- Node9&#45;&gt;Node8 -->
<g id="edge5" class="edge">
<title>Node9&#45;&gt;Node8</title>
<path fill="none" stroke="#404040" d="M397.8858,-913.3403C395.3514,-892.0516 392.557,-868.5786 389.7297,-844.8292"/>
<polygon fill="none" stroke="#404040" points="389.7136,-844.6932 385.0323,-839.2082 388.2949,-832.7774 392.9762,-838.2624 389.7136,-844.6932"/>
<text text-anchor="middle" x="437" y="-868" font-family="Helvetica,sans-Serif" font-size="20.00" fill="#000000"> #tratador</text>
</g>
<!-- Node10 -->
<g id="node7" class="node">
<title>Node10</title>
<g id="a_node7"><a xlink:href="classPessoa.html" target="_top" xlink:title="Classe base dos funcionarios. ">
<polygon fill="#ffffff" stroke="#000000" points="449.5,-1172.5 449.5,-1416.5 613.5,-1416.5 613.5,-1172.5 449.5,-1172.5"/>
<text text-anchor="middle" x="531.5" y="-1396.5" font-family="Helvetica,sans-Serif" font-size="20.00" fill="#000000">Pessoa</text>
<polyline fill="none" stroke="#000000" points="449.5,-1386.5 613.5,-1386.5 "/>
<text text-anchor="middle" x="531.5" y="-1366.5" font-family="Helvetica,sans-Serif" font-size="20.00" fill="#000000"> </text>
<polyline fill="none" stroke="#000000" points="449.5,-1356.5 613.5,-1356.5 "/>
<text text-anchor="start" x="457.5" y="-1336.5" font-family="Helvetica,sans-Serif" font-size="20.00" fill="#000000">+ Pessoa()</text>
<text text-anchor="start" x="457.5" y="-1314.5" font-family="Helvetica,sans-Serif" font-size="20.00" fill="#000000">+ Pessoa()</text>
<text text-anchor="start" x="457.5" y="-1292.5" font-family="Helvetica,sans-Serif" font-size="20.00" fill="#000000">+ ~Pessoa()</text>
<text text-anchor="start" x="457.5" y="-1270.5" font-family="Helvetica,sans-Serif" font-size="20.00" fill="#000000">+ getNome()</text>
<text text-anchor="start" x="457.5" y="-1248.5" font-family="Helvetica,sans-Serif" font-size="20.00" fill="#000000">+ getTelefone()</text>
<text text-anchor="start" x="457.5" y="-1226.5" font-family="Helvetica,sans-Serif" font-size="20.00" fill="#000000">+ getEmail()</text>
<text text-anchor="start" x="457.5" y="-1204.5" font-family="Helvetica,sans-Serif" font-size="20.00" fill="#000000">+ printOutDados()</text>
<text text-anchor="start" x="457.5" y="-1182.5" font-family="Helvetica,sans-Serif" font-size="20.00" fill="#000000">+ operator==()</text>
</a>
</g>
</g>
<!-- Node10&#45;&gt;Node9 -->
<g id="edge6" class="edge">
<title>Node10&#45;&gt;Node9</title>
<path fill="none" stroke="#191970" d="M507.6359,-1162.0839C502.4032,-1144.1825 496.0911,-1126.3628 488.5,-1110 485.6608,-1103.88 482.4382,-1097.767 478.9555,-1091.738"/>
<polygon fill="none" stroke="#191970" points="504.3561,-1163.3501 510.4332,-1172.0288 511.0946,-1161.4546 504.3561,-1163.3501"/>
</g>
<!-- Node13 -->
<g id="node10" class="node">
<title>Node13</title>
<g id="a_node10"><a xlink:href="classVeterinario.html" target="_top" xlink:title="Implementação dos veterinarios. ">
<polygon fill="#ffffff" stroke="#000000" points="508.5,-913.5 508.5,-1091.5 672.5,-1091.5 672.5,-913.5 508.5,-913.5"/>
<text text-anchor="middle" x="590.5" y="-1071.5" font-family="Helvetica,sans-Serif" font-size="20.00" fill="#000000">Veterinario</text>
<polyline fill="none" stroke="#000000" points="508.5,-1061.5 672.5,-1061.5 "/>
<text text-anchor="middle" x="590.5" y="-1041.5" font-family="Helvetica,sans-Serif" font-size="20.00" fill="#000000"> </text>
<polyline fill="none" stroke="#000000" points="508.5,-1031.5 672.5,-1031.5 "/>
<text text-anchor="start" x="516.5" y="-1011.5" font-family="Helvetica,sans-Serif" font-size="20.00" fill="#000000">+ Veterinario()</text>
<text text-anchor="start" x="516.5" y="-989.5" font-family="Helvetica,sans-Serif" font-size="20.00" fill="#000000">+ Veterinario()</text>
<text text-anchor="start" x="516.5" y="-967.5" font-family="Helvetica,sans-Serif" font-size="20.00" fill="#000000">+ ~Veterinario()</text>
<text text-anchor="start" x="516.5" y="-945.5" font-family="Helvetica,sans-Serif" font-size="20.00" fill="#000000">+ getCRMV()</text>
<text text-anchor="start" x="516.5" y="-923.5" font-family="Helvetica,sans-Serif" font-size="20.00" fill="#000000">+ printOutDados()</text>
</a>
</g>
</g>
<!-- Node10&#45;&gt;Node13 -->
<g id="edge12" class="edge">
<title>Node10&#45;&gt;Node13</title>
<path fill="none" stroke="#191970" d="M558.1726,-1162.4932C563.0122,-1138.5414 567.9542,-1114.0826 572.4712,-1091.7273"/>
<polygon fill="none" stroke="#191970" points="554.7294,-1161.8625 556.1795,-1172.3576 561.5907,-1163.2489 554.7294,-1161.8625"/>
</g>
<!-- Node11 -->
<g id="node8" class="node">
<title>Node11</title>
<polygon fill="#ffffff" stroke="#bfbfbf" points="499.5,-1519.5 499.5,-1609.5 563.5,-1609.5 563.5,-1519.5 499.5,-1519.5"/>
<text text-anchor="middle" x="531.5" y="-1589.5" font-family="Helvetica,sans-Serif" font-size="20.00" fill="#000000">string</text>
<polyline fill="none" stroke="#bfbfbf" points="499.5,-1579.5 563.5,-1579.5 "/>
<text text-anchor="middle" x="531.5" y="-1559.5" font-family="Helvetica,sans-Serif" font-size="20.00" fill="#000000"> </text>
<polyline fill="none" stroke="#bfbfbf" points="499.5,-1549.5 563.5,-1549.5 "/>
<text text-anchor="middle" x="531.5" y="-1529.5" font-family="Helvetica,sans-Serif" font-size="20.00" fill="#000000"> </text>
</g>
<!-- Node11&#45;&gt;Node8 -->
<g id="edge10" class="edge">
<title>Node11&#45;&gt;Node8</title>
<path fill="none" stroke="#404040" d="M499.477,-1551.6668C452.8793,-1531.0773 367.8773,-1485.8521 330.5,-1417 234.557,-1240.2652 267.9291,-1004.2692 309.674,-844.4514"/>
<polygon fill="none" stroke="#404040" points="309.7417,-844.1963 307.4157,-837.3706 312.8218,-832.5983 315.1477,-839.4241 309.7417,-844.1963"/>
<text text-anchor="middle" x="308.5" y="-1138" font-family="Helvetica,sans-Serif" font-size="20.00" fill="#000000"> #especie</text>
<text text-anchor="middle" x="308.5" y="-1116" font-family="Helvetica,sans-Serif" font-size="20.00" fill="#000000">#nome</text>
</g>
<!-- Node11&#45;&gt;Node10 -->
<g id="edge7" class="edge">
<title>Node11&#45;&gt;Node10</title>
<path fill="none" stroke="#404040" d="M531.5,-1519.3081C531.5,-1494.172 531.5,-1461.4339 531.5,-1428.7541"/>
<polygon fill="none" stroke="#404040" points="531.5001,-1428.731 527.5,-1422.731 531.5,-1416.731 535.5,-1422.7309 531.5001,-1428.731"/>
<text text-anchor="middle" x="570" y="-1485" font-family="Helvetica,sans-Serif" font-size="20.00" fill="#000000"> #email</text>
<text text-anchor="middle" x="570" y="-1463" font-family="Helvetica,sans-Serif" font-size="20.00" fill="#000000">#nome</text>
<text text-anchor="middle" x="570" y="-1441" font-family="Helvetica,sans-Serif" font-size="20.00" fill="#000000">#telefone</text>
</g>
<!-- Node11&#45;&gt;Node13 -->
<g id="edge13" class="edge">
<title>Node11&#45;&gt;Node13</title>
<path fill="none" stroke="#404040" d="M563.5929,-1547.7025C581.0405,-1536.8117 601.2905,-1520.9367 612.5,-1501 630.9263,-1468.228 620.2739,-1454.531 622.5,-1417 628.9473,-1308.3022 632.6443,-1280.4153 622.5,-1172 620.4189,-1149.7586 616.8337,-1126.0876 612.7976,-1103.7084"/>
<polygon fill="none" stroke="#404040" points="612.7741,-1103.5817 607.7462,-1098.4125 610.5839,-1091.7832 615.6118,-1096.9524 612.7741,-1103.5817"/>
<text text-anchor="middle" x="661.5" y="-1289.5" font-family="Helvetica,sans-Serif" font-size="20.00" fill="#000000"> &#45;CRMV</text>
</g>
<!-- Node12 -->
<g id="node9" class="node">
<title>Node12</title>
<polygon fill="#ffffff" stroke="#bfbfbf" points="339.5,-1249.5 339.5,-1339.5 431.5,-1339.5 431.5,-1249.5 339.5,-1249.5"/>
<text text-anchor="middle" x="385.5" y="-1319.5" font-family="Helvetica,sans-Serif" font-size="20.00" fill="#000000">Uniforme</text>
<polyline fill="none" stroke="#bfbfbf" points="339.5,-1309.5 431.5,-1309.5 "/>
<text text-anchor="middle" x="385.5" y="-1289.5" font-family="Helvetica,sans-Serif" font-size="20.00" fill="#000000"> </text>
<polyline fill="none" stroke="#bfbfbf" points="339.5,-1279.5 431.5,-1279.5 "/>
<text text-anchor="middle" x="385.5" y="-1259.5" font-family="Helvetica,sans-Serif" font-size="20.00" fill="#000000"> </text>
</g>
<!-- Node12&#45;&gt;Node9 -->
<g id="edge8" class="edge">
<title>Node12&#45;&gt;Node9</title>
<path fill="none" stroke="#404040" d="M389.0685,-1249.1954C392.1167,-1210.4965 396.6145,-1153.3947 400.5152,-1103.872"/>
<polygon fill="none" stroke="#404040" points="400.5244,-1103.7543 397.0079,-1097.4587 401.4668,-1091.7914 404.9832,-1098.087 400.5244,-1103.7543"/>
<text text-anchor="middle" x="442.5" y="-1127" font-family="Helvetica,sans-Serif" font-size="20.00" fill="#000000"> &#45;uniforme</text>
</g>
<!-- Node13&#45;&gt;Node8 -->
<g id="edge11" class="edge">
<title>Node13&#45;&gt;Node8</title>
<path fill="none" stroke="#404040" d="M531.5909,-913.3403C510.9557,-882.1086 487.2142,-846.1756 464.3471,-811.5659"/>
<polygon fill="none" stroke="#404040" points="464.2199,-811.3732 457.5749,-808.5723 457.6047,-801.3612 464.2496,-804.1622 464.2199,-811.3732"/>
<text text-anchor="middle" x="570" y="-868" font-family="Helvetica,sans-Serif" font-size="20.00" fill="#000000"> #veterinario</text>
</g>
</g>
</svg>
