<?xml version="1.0" encoding="UTF-8" standalone="no"?>
<!DOCTYPE svg PUBLIC "-//W3C//DTD SVG 1.1//EN"
 "http://www.w3.org/Graphics/SVG/1.1/DTD/svg11.dtd">
<!-- Generated by graphviz version 2.40.1 (20161225.0304)
 -->
<!-- Title: Gráfico de Hierarquia de Classes Pages: 1 -->
<svg width="227pt" height="88pt"
 viewBox="0.00 0.00 227.00 88.00" xmlns="http://www.w3.org/2000/svg" xmlns:xlink="http://www.w3.org/1999/xlink">
<g id="graph0" class="graph" transform="scale(1 1) rotate(0) translate(4 84)">
<title>Gráfico de Hierarquia de Classes</title>
<polygon fill="#ffffff" stroke="transparent" points="-4,4 -4,-84 223,-84 223,4 -4,4"/>
<!-- Node0 -->
<g id="node1" class="node">
<title>Node0</title>
<g id="a_node1"><a xlink:href="classPessoa.html" target="_top" xlink:title="Classe base dos funcionarios. ">
<polygon fill="#ffffff" stroke="#000000" points="0,-24.5 0,-54.5 76,-54.5 76,-24.5 0,-24.5"/>
<text text-anchor="middle" x="38" y="-34.5" font-family="Helvetica,sans-Serif" font-size="20.00" fill="#000000">Pessoa</text>
</a>
</g>
</g>
<!-- Node1 -->
<g id="node2" class="node">
<title>Node1</title>
<g id="a_node2"><a xlink:href="classTratador.html" target="_top" xlink:title="Implementação dos tratadores. ">
<polygon fill="#ffffff" stroke="#000000" points="121.5,-49.5 121.5,-79.5 209.5,-79.5 209.5,-49.5 121.5,-49.5"/>
<text text-anchor="middle" x="165.5" y="-59.5" font-family="Helvetica,sans-Serif" font-size="20.00" fill="#000000">Tratador</text>
</a>
</g>
</g>
<!-- Node0&#45;&gt;Node1 -->
<g id="edge1" class="edge">
<title>Node0&#45;&gt;Node1</title>
<path fill="none" stroke="#191970" d="M86.1971,-48.9504C97.7723,-51.2201 110.076,-53.6325 121.4516,-55.8631"/>
<polygon fill="#191970" stroke="#191970" points="86.7408,-45.4904 76.2542,-47.0008 85.3939,-52.3596 86.7408,-45.4904"/>
</g>
<!-- Node2 -->
<g id="node3" class="node">
<title>Node2</title>
<g id="a_node3"><a xlink:href="classVeterinario.html" target="_top" xlink:title="Implementação dos veterinarios. ">
<polygon fill="#ffffff" stroke="#000000" points="112,-.5 112,-30.5 219,-30.5 219,-.5 112,-.5"/>
<text text-anchor="middle" x="165.5" y="-10.5" font-family="Helvetica,sans-Serif" font-size="20.00" fill="#000000">Veterinario</text>
</a>
</g>
</g>
<!-- Node0&#45;&gt;Node2 -->
<g id="edge2" class="edge">
<title>Node0&#45;&gt;Node2</title>
<path fill="none" stroke="#191970" d="M86.1935,-30.4283C94.5297,-28.8591 103.2439,-27.2188 111.7172,-25.6238"/>
<polygon fill="#191970" stroke="#191970" points="85.4341,-27.0097 76.2542,-32.2992 86.7291,-33.8889 85.4341,-27.0097"/>
</g>
</g>
</svg>
