<?xml version="1.0" encoding="UTF-8" standalone="no"?>
<!DOCTYPE svg PUBLIC "-//W3C//DTD SVG 1.1//EN"
 "http://www.w3.org/Graphics/SVG/1.1/DTD/svg11.dtd">
<!-- Generated by graphviz version 2.40.1 (20161225.0304)
 -->
<!-- Title: Gráfico de Hierarquia de Classes Pages: 1 -->
<svg width="437pt" height="578pt"
 viewBox="0.00 0.00 437.00 578.00" xmlns="http://www.w3.org/2000/svg" xmlns:xlink="http://www.w3.org/1999/xlink">
<g id="graph0" class="graph" transform="scale(1 1) rotate(0) translate(4 574)">
<title>Gráfico de Hierarquia de Classes</title>
<polygon fill="#ffffff" stroke="transparent" points="-4,4 -4,-574 433,-574 433,4 -4,4"/>
<!-- Node27 -->
<g id="node1" class="node">
<title>Node27</title>
<g id="a_node1"><a xlink:href="classAnfibio.html" target="_top" xlink:title="Classificação base para Anfibios. ">
<polygon fill="#ffffff" stroke="#000000" points="124,-441.5 124,-471.5 199,-471.5 199,-441.5 124,-441.5"/>
<text text-anchor="middle" x="161.5" y="-451.5" font-family="Helvetica,sans-Serif" font-size="20.00" fill="#000000">Anfibio</text>
</a>
</g>
</g>
<!-- Node22 -->
<g id="node2" class="node">
<title>Node22</title>
<g id="a_node2"><a xlink:href="classAnfibioDomestico.html" target="_top" xlink:title="Implementação de animal com Classe e Categoria. ">
<polygon fill="#ffffff" stroke="#000000" points="258.5,-539.5 258.5,-569.5 419.5,-569.5 419.5,-539.5 258.5,-539.5"/>
<text text-anchor="middle" x="339" y="-549.5" font-family="Helvetica,sans-Serif" font-size="20.00" fill="#000000">AnfibioDomestico</text>
</a>
</g>
</g>
<!-- Node27&#45;&gt;Node22 -->
<g id="edge1" class="edge">
<title>Node27&#45;&gt;Node22</title>
<path fill="none" stroke="#191970" d="M182.225,-478.7016C198.8152,-495.233 223.4611,-517.1619 249,-530.5 255.5936,-533.9436 262.7235,-536.9246 269.9841,-539.498"/>
<polygon fill="#191970" stroke="#191970" points="184.6968,-476.2232 175.1951,-471.5361 179.7,-481.1255 184.6968,-476.2232"/>
</g>
<!-- Node24 -->
<g id="node3" class="node">
<title>Node24</title>
<g id="a_node3"><a xlink:href="classAnfibioExotico.html" target="_top" xlink:title="Implementação de animal com Classe e Categoria. ">
<polygon fill="#ffffff" stroke="#000000" points="271.5,-441.5 271.5,-471.5 406.5,-471.5 406.5,-441.5 271.5,-441.5"/>
<text text-anchor="middle" x="339" y="-451.5" font-family="Helvetica,sans-Serif" font-size="20.00" fill="#000000">AnfibioExotico</text>
</a>
</g>
</g>
<!-- Node27&#45;&gt;Node24 -->
<g id="edge2" class="edge">
<title>Node27&#45;&gt;Node24</title>
<path fill="none" stroke="#191970" d="M209.3619,-456.5C228.4059,-456.5 250.6644,-456.5 271.3093,-456.5"/>
<polygon fill="#191970" stroke="#191970" points="209.1432,-453.0001 199.1432,-456.5 209.1432,-460.0001 209.1432,-453.0001"/>
</g>
<!-- Node26 -->
<g id="node4" class="node">
<title>Node26</title>
<g id="a_node4"><a xlink:href="classAnfibioNativo.html" target="_top" xlink:title="Implementação de animal com Classe e Categoria. ">
<polygon fill="#ffffff" stroke="#000000" points="275,-392.5 275,-422.5 403,-422.5 403,-392.5 275,-392.5"/>
<text text-anchor="middle" x="339" y="-402.5" font-family="Helvetica,sans-Serif" font-size="20.00" fill="#000000">AnfibioNativo</text>
</a>
</g>
</g>
<!-- Node27&#45;&gt;Node26 -->
<g id="edge3" class="edge">
<title>Node27&#45;&gt;Node26</title>
<path fill="none" stroke="#191970" d="M208.8081,-443.4403C232.1234,-437.004 260.3592,-429.2093 284.5681,-422.5263"/>
<polygon fill="#191970" stroke="#191970" points="207.8512,-440.0734 199.1432,-446.1084 209.714,-446.8211 207.8512,-440.0734"/>
</g>
<!-- Node20 -->
<g id="node5" class="node">
<title>Node20</title>
<g id="a_node5"><a xlink:href="classAnimal.html" target="_top" xlink:title="Implementação base para o cadastro de animais. ">
<polygon fill="#ffffff" stroke="#000000" points="0,-245.5 0,-275.5 74,-275.5 74,-245.5 0,-245.5"/>
<text text-anchor="middle" x="37" y="-255.5" font-family="Helvetica,sans-Serif" font-size="20.00" fill="#000000">Animal</text>
</a>
</g>
</g>
<!-- Node21 -->
<g id="node6" class="node">
<title>Node21</title>
<g id="a_node6"><a xlink:href="classDomestico.html" target="_top" xlink:title="Umas das definições de categoria para Animal. ">
<polygon fill="#ffffff" stroke="#000000" points="110,-343.5 110,-373.5 213,-373.5 213,-343.5 110,-343.5"/>
<text text-anchor="middle" x="161.5" y="-353.5" font-family="Helvetica,sans-Serif" font-size="20.00" fill="#000000">Domestico</text>
</a>
</g>
</g>
<!-- Node20&#45;&gt;Node21 -->
<g id="edge4" class="edge">
<title>Node20&#45;&gt;Node21</title>
<path fill="none" stroke="#191970" d="M55.7654,-283.4608C69.5531,-299.2763 89.4026,-319.9765 110,-334.5 114.5951,-337.7401 119.6972,-340.7271 124.8525,-343.4132"/>
<polygon fill="#191970" stroke="#191970" points="58.2904,-281.0279 49.136,-275.6942 52.9662,-285.5725 58.2904,-281.0279"/>
</g>
<!-- Node23 -->
<g id="node10" class="node">
<title>Node23</title>
<g id="a_node10"><a xlink:href="classExotico.html" target="_top" xlink:title="Umas das definições de categoria para Animal. ">
<polygon fill="#ffffff" stroke="#000000" points="123,-245.5 123,-275.5 200,-275.5 200,-245.5 123,-245.5"/>
<text text-anchor="middle" x="161.5" y="-255.5" font-family="Helvetica,sans-Serif" font-size="20.00" fill="#000000">Exotico</text>
</a>
</g>
</g>
<!-- Node20&#45;&gt;Node23 -->
<g id="edge9" class="edge">
<title>Node20&#45;&gt;Node23</title>
<path fill="none" stroke="#191970" d="M84.387,-260.5C97.0346,-260.5 110.5516,-260.5 122.6794,-260.5"/>
<polygon fill="#191970" stroke="#191970" points="84.0171,-257.0001 74.017,-260.5 84.017,-264.0001 84.0171,-257.0001"/>
</g>
<!-- Node25 -->
<g id="node14" class="node">
<title>Node25</title>
<g id="a_node14"><a xlink:href="classNativo.html" target="_top" xlink:title="Umas das definições de categoria para Animal. ">
<polygon fill="#ffffff" stroke="#000000" points="126.5,-147.5 126.5,-177.5 196.5,-177.5 196.5,-147.5 126.5,-147.5"/>
<text text-anchor="middle" x="161.5" y="-157.5" font-family="Helvetica,sans-Serif" font-size="20.00" fill="#000000">Nativo</text>
</a>
</g>
</g>
<!-- Node20&#45;&gt;Node25 -->
<g id="edge14" class="edge">
<title>Node20&#45;&gt;Node25</title>
<path fill="none" stroke="#191970" d="M56.1469,-237.6819C69.9826,-222.1712 89.7328,-201.9281 110,-187.5 115.1009,-183.8687 120.8101,-180.5106 126.5194,-177.5112"/>
<polygon fill="#191970" stroke="#191970" points="53.4281,-235.4741 49.4795,-245.3057 58.6973,-240.0823 53.4281,-235.4741"/>
</g>
<!-- Node21&#45;&gt;Node22 -->
<g id="edge5" class="edge">
<title>Node21&#45;&gt;Node22</title>
<path fill="none" stroke="#191970" d="M180.0176,-381.782C190.6337,-395.8861 203.6621,-414.5645 213,-432.5 234.4281,-473.6573 214.724,-499.2232 249,-530.5 252.703,-533.879 256.829,-536.7916 261.2211,-539.3012"/>
<polygon fill="#191970" stroke="#191970" points="182.6361,-379.4449 173.7738,-373.6388 177.0811,-383.7042 182.6361,-379.4449"/>
</g>
<!-- Node17 -->
<g id="node7" class="node">
<title>Node17</title>
<g id="a_node7"><a xlink:href="classAveDomestica.html" target="_top" xlink:title="Implementação de animal com Classe e Categoria. ">
<polygon fill="#ffffff" stroke="#000000" points="271.5,-490.5 271.5,-520.5 406.5,-520.5 406.5,-490.5 271.5,-490.5"/>
<text text-anchor="middle" x="339" y="-500.5" font-family="Helvetica,sans-Serif" font-size="20.00" fill="#000000">AveDomestica</text>
</a>
</g>
</g>
<!-- Node21&#45;&gt;Node17 -->
<g id="edge6" class="edge">
<title>Node21&#45;&gt;Node17</title>
<path fill="none" stroke="#191970" d="M178.0033,-382.1224C202.6664,-417.3644 246.5312,-479.7872 249,-481.5 255.7761,-486.2011 263.4243,-489.9817 271.3282,-493.0218"/>
<polygon fill="#191970" stroke="#191970" points="180.7832,-379.9902 172.1836,-373.8017 175.047,-384.0023 180.7832,-379.9902"/>
</g>
<!-- Node11 -->
<g id="node8" class="node">
<title>Node11</title>
<g id="a_node8"><a xlink:href="classMamiferoDomestico.html" target="_top" xlink:title="Implementação de animal com Classe e Categoria. ">
<polygon fill="#ffffff" stroke="#000000" points="249,-343.5 249,-373.5 429,-373.5 429,-343.5 249,-343.5"/>
<text text-anchor="middle" x="339" y="-353.5" font-family="Helvetica,sans-Serif" font-size="20.00" fill="#000000">MamiferoDomestico</text>
</a>
</g>
</g>
<!-- Node21&#45;&gt;Node11 -->
<g id="edge7" class="edge">
<title>Node21&#45;&gt;Node11</title>
<path fill="none" stroke="#191970" d="M223.4779,-358.5C231.6595,-358.5 240.1759,-358.5 248.7113,-358.5"/>
<polygon fill="#191970" stroke="#191970" points="223.3175,-355.0001 213.3175,-358.5 223.3175,-362.0001 223.3175,-355.0001"/>
</g>
<!-- Node1 -->
<g id="node9" class="node">
<title>Node1</title>
<g id="a_node9"><a xlink:href="classReptilDomestico.html" target="_top" xlink:title="Implementação de animal com Classe e Categoria. ">
<polygon fill="#ffffff" stroke="#000000" points="263.5,-196.5 263.5,-226.5 414.5,-226.5 414.5,-196.5 263.5,-196.5"/>
<text text-anchor="middle" x="339" y="-206.5" font-family="Helvetica,sans-Serif" font-size="20.00" fill="#000000">ReptilDomestico</text>
</a>
</g>
</g>
<!-- Node21&#45;&gt;Node1 -->
<g id="edge8" class="edge">
<title>Node21&#45;&gt;Node1</title>
<path fill="none" stroke="#191970" d="M210.2212,-337.2754C211.1889,-336.3847 212.1175,-335.4599 213,-334.5 244.4033,-300.3398 214.8862,-267.9537 249,-236.5 253.292,-232.5427 258.1567,-229.2039 263.3481,-226.3881"/>
<polygon fill="#191970" stroke="#191970" points="207.9654,-334.5945 202.1558,-343.4545 212.2226,-340.1512 207.9654,-334.5945"/>
</g>
<!-- Node23&#45;&gt;Node24 -->
<g id="edge10" class="edge">
<title>Node23&#45;&gt;Node24</title>
<path fill="none" stroke="#191970" d="M208.2227,-280.4803C209.9477,-282.0388 211.5537,-283.7098 213,-285.5 255.27,-337.823 201.9255,-384.4538 249,-432.5 255.2245,-438.853 262.9286,-443.5839 271.1892,-447.0966"/>
<polygon fill="#191970" stroke="#191970" points="210.1274,-277.5342 200.0239,-274.3452 205.9335,-283.1388 210.1274,-277.5342"/>
</g>
<!-- Node18 -->
<g id="node11" class="node">
<title>Node18</title>
<g id="a_node11"><a xlink:href="classAveExotica.html" target="_top" xlink:title="Implementação de animal com Classe e Categoria. ">
<polygon fill="#ffffff" stroke="#000000" points="284.5,-294.5 284.5,-324.5 393.5,-324.5 393.5,-294.5 284.5,-294.5"/>
<text text-anchor="middle" x="339" y="-304.5" font-family="Helvetica,sans-Serif" font-size="20.00" fill="#000000">AveExotica</text>
</a>
</g>
</g>
<!-- Node23&#45;&gt;Node18 -->
<g id="edge11" class="edge">
<title>Node23&#45;&gt;Node18</title>
<path fill="none" stroke="#191970" d="M210.1216,-274.5572C222.7674,-278.1679 236.3827,-282.0155 249,-285.5 260.3789,-288.6425 272.5865,-291.9443 284.225,-295.0591"/>
<polygon fill="#191970" stroke="#191970" points="210.8025,-271.1116 200.2253,-271.7237 208.8756,-277.8412 210.8025,-271.1116"/>
</g>
<!-- Node12 -->
<g id="node12" class="node">
<title>Node12</title>
<g id="a_node12"><a xlink:href="classMamiferoExotico.html" target="_top" xlink:title="Implementação de animal com Classe e Categoria. ">
<polygon fill="#ffffff" stroke="#000000" points="262,-245.5 262,-275.5 416,-275.5 416,-245.5 262,-245.5"/>
<text text-anchor="middle" x="339" y="-255.5" font-family="Helvetica,sans-Serif" font-size="20.00" fill="#000000">MamiferoExotico</text>
</a>
</g>
</g>
<!-- Node23&#45;&gt;Node12 -->
<g id="edge12" class="edge">
<title>Node23&#45;&gt;Node12</title>
<path fill="none" stroke="#191970" d="M210.1736,-260.5C226.1585,-260.5 244.3389,-260.5 261.9002,-260.5"/>
<polygon fill="#191970" stroke="#191970" points="210.0149,-257.0001 200.0149,-260.5 210.0148,-264.0001 210.0149,-257.0001"/>
</g>
<!-- Node2 -->
<g id="node13" class="node">
<title>Node2</title>
<g id="a_node13"><a xlink:href="classReptilExotico.html" target="_top" xlink:title="Implementação de animal com Classe e Categoria. ">
<polygon fill="#ffffff" stroke="#000000" points="276.5,-98.5 276.5,-128.5 401.5,-128.5 401.5,-98.5 276.5,-98.5"/>
<text text-anchor="middle" x="339" y="-108.5" font-family="Helvetica,sans-Serif" font-size="20.00" fill="#000000">ReptilExotico</text>
</a>
</g>
</g>
<!-- Node23&#45;&gt;Node2 -->
<g id="edge13" class="edge">
<title>Node23&#45;&gt;Node2</title>
<path fill="none" stroke="#191970" d="M208.5591,-240.7407C210.1338,-239.41 211.6231,-237.9978 213,-236.5 244.4033,-202.3398 214.8862,-169.9537 249,-138.5 256.7495,-131.3548 266.3658,-126.2263 276.4015,-122.5511"/>
<polygon fill="#191970" stroke="#191970" points="206.236,-238.0972 200.0995,-246.734 210.2826,-243.809 206.236,-238.0972"/>
</g>
<!-- Node25&#45;&gt;Node26 -->
<g id="edge15" class="edge">
<title>Node25&#45;&gt;Node26</title>
<path fill="none" stroke="#191970" d="M205.0255,-179.5239C208.0118,-181.869 210.7305,-184.5162 213,-187.5 266.6185,-257.994 188.8932,-318.4499 249,-383.5 256.0236,-391.1013 265.1605,-396.4019 274.9149,-400.0772"/>
<polygon fill="#191970" stroke="#191970" points="206.8991,-176.5671 196.6204,-173.9984 203.0538,-182.4163 206.8991,-176.5671"/>
</g>
<!-- Node19 -->
<g id="node15" class="node">
<title>Node19</title>
<g id="a_node15"><a xlink:href="classAveNativa.html" target="_top" xlink:title="Implementação de animal com Classe e Categoria. ">
<polygon fill="#ffffff" stroke="#000000" points="288,-147.5 288,-177.5 390,-177.5 390,-147.5 288,-147.5"/>
<text text-anchor="middle" x="339" y="-157.5" font-family="Helvetica,sans-Serif" font-size="20.00" fill="#000000">AveNativa</text>
</a>
</g>
</g>
<!-- Node25&#45;&gt;Node19 -->
<g id="edge16" class="edge">
<title>Node25&#45;&gt;Node19</title>
<path fill="none" stroke="#191970" d="M206.7747,-162.5C231.5209,-162.5 262.256,-162.5 287.8643,-162.5"/>
<polygon fill="#191970" stroke="#191970" points="206.5683,-159.0001 196.5683,-162.5 206.5683,-166.0001 206.5683,-159.0001"/>
</g>
<!-- Node13 -->
<g id="node16" class="node">
<title>Node13</title>
<g id="a_node16"><a xlink:href="classMamiferoNativo.html" target="_top" xlink:title="Implementação de animal com Classe e Categoria. ">
<polygon fill="#ffffff" stroke="#000000" points="265.5,-49.5 265.5,-79.5 412.5,-79.5 412.5,-49.5 265.5,-49.5"/>
<text text-anchor="middle" x="339" y="-59.5" font-family="Helvetica,sans-Serif" font-size="20.00" fill="#000000">MamiferoNativo</text>
</a>
</g>
</g>
<!-- Node25&#45;&gt;Node13 -->
<g id="edge17" class="edge">
<title>Node25&#45;&gt;Node13</title>
<path fill="none" stroke="#191970" d="M205.4584,-143.9892C208.1041,-142.2794 210.6444,-140.4498 213,-138.5 234.094,-121.0394 226.457,-104.0448 249,-88.5 254.0588,-85.0116 259.5989,-82.03 265.3658,-79.4816"/>
<polygon fill="#191970" stroke="#191970" points="203.6402,-140.9976 196.7465,-149.043 207.1527,-147.0526 203.6402,-140.9976"/>
</g>
<!-- Node3 -->
<g id="node17" class="node">
<title>Node3</title>
<g id="a_node17"><a xlink:href="classReptilNativo.html" target="_top" xlink:title="Implementação de animal com Classe e Categoria. ">
<polygon fill="#ffffff" stroke="#000000" points="280,-.5 280,-30.5 398,-30.5 398,-.5 280,-.5"/>
<text text-anchor="middle" x="339" y="-10.5" font-family="Helvetica,sans-Serif" font-size="20.00" fill="#000000">ReptilNativo</text>
</a>
</g>
</g>
<!-- Node25&#45;&gt;Node3 -->
<g id="edge18" class="edge">
<title>Node25&#45;&gt;Node3</title>
<path fill="none" stroke="#191970" d="M205.4044,-145.2362C208.1619,-143.212 210.7343,-140.9728 213,-138.5 244.6293,-103.9806 214.4673,-71.1147 249,-39.5 257.5878,-31.6379 268.4641,-26.2998 279.6623,-22.6878"/>
<polygon fill="#191970" stroke="#191970" points="203.32,-142.4117 196.6978,-150.6819 207.032,-148.3464 203.32,-142.4117"/>
</g>
<!-- Node16 -->
<g id="node18" class="node">
<title>Node16</title>
<g id="a_node18"><a xlink:href="classAve.html" target="_top" xlink:title="Classificação base para Aves. ">
<polygon fill="#ffffff" stroke="#000000" points="137,-294.5 137,-324.5 186,-324.5 186,-294.5 137,-294.5"/>
<text text-anchor="middle" x="161.5" y="-304.5" font-family="Helvetica,sans-Serif" font-size="20.00" fill="#000000">Ave</text>
</a>
</g>
</g>
<!-- Node16&#45;&gt;Node17 -->
<g id="edge19" class="edge">
<title>Node16&#45;&gt;Node17</title>
<path fill="none" stroke="#191970" d="M195.3209,-320.6332C201.9665,-324.1626 208.3196,-328.7065 213,-334.5 255.27,-386.823 201.9255,-433.4538 249,-481.5 255.2245,-487.853 262.9286,-492.5839 271.1892,-496.0966"/>
<polygon fill="#191970" stroke="#191970" points="196.7535,-317.4396 186.2071,-316.427 193.8201,-323.7954 196.7535,-317.4396"/>
</g>
<!-- Node16&#45;&gt;Node18 -->
<g id="edge20" class="edge">
<title>Node16&#45;&gt;Node18</title>
<path fill="none" stroke="#191970" d="M196.2978,-309.5C221.3229,-309.5 255.5709,-309.5 284.2428,-309.5"/>
<polygon fill="#191970" stroke="#191970" points="196.1806,-306.0001 186.1806,-309.5 196.1806,-313.0001 196.1806,-306.0001"/>
</g>
<!-- Node16&#45;&gt;Node19 -->
<g id="edge21" class="edge">
<title>Node16&#45;&gt;Node19</title>
<path fill="none" stroke="#191970" d="M195.4711,-298.3083C201.9202,-294.9799 208.1559,-290.7694 213,-285.5 244.4033,-251.3398 214.8862,-218.9537 249,-187.5 259.6108,-177.7166 273.7217,-171.7141 287.6164,-168.046"/>
<polygon fill="#191970" stroke="#191970" points="193.6852,-295.2741 186.0068,-302.5743 196.5617,-301.6557 193.6852,-295.2741"/>
</g>
<!-- Node10 -->
<g id="node19" class="node">
<title>Node10</title>
<g id="a_node19"><a xlink:href="classMamifero.html" target="_top" xlink:title="Classificação base para Mamiferos. ">
<polygon fill="#ffffff" stroke="#000000" points="114.5,-196.5 114.5,-226.5 208.5,-226.5 208.5,-196.5 114.5,-196.5"/>
<text text-anchor="middle" x="161.5" y="-206.5" font-family="Helvetica,sans-Serif" font-size="20.00" fill="#000000">Mamifero</text>
</a>
</g>
</g>
<!-- Node10&#45;&gt;Node11 -->
<g id="edge22" class="edge">
<title>Node10&#45;&gt;Node11</title>
<path fill="none" stroke="#191970" d="M209.1879,-232.7319C210.5315,-233.9274 211.8081,-235.1826 213,-236.5 244.1318,-270.9078 214.724,-303.2232 249,-334.5 252.703,-337.879 256.829,-340.7916 261.2211,-343.3012"/>
<polygon fill="#191970" stroke="#191970" points="210.9881,-229.7078 200.883,-226.5239 206.797,-235.3145 210.9881,-229.7078"/>
</g>
<!-- Node10&#45;&gt;Node12 -->
<g id="edge23" class="edge">
<title>Node10&#45;&gt;Node12</title>
<path fill="none" stroke="#191970" d="M218.3304,-227.8952C228.5327,-230.7935 239.0751,-233.7591 249,-236.5 259.5995,-239.4272 270.9181,-242.4927 281.826,-245.4165"/>
<polygon fill="#191970" stroke="#191970" points="219.2606,-224.521 208.6842,-225.1466 217.3423,-231.253 219.2606,-224.521"/>
</g>
<!-- Node10&#45;&gt;Node13 -->
<g id="edge24" class="edge">
<title>Node10&#45;&gt;Node13</title>
<path fill="none" stroke="#191970" d="M210.2254,-190.2793C211.1919,-189.3875 212.1191,-188.4614 213,-187.5 244.6293,-152.9806 214.4673,-120.1147 249,-88.5 253.771,-84.1322 259.2483,-80.5433 265.0947,-77.5967"/>
<polygon fill="#191970" stroke="#191970" points="207.9685,-187.5995 202.167,-196.4648 212.2307,-193.1523 207.9685,-187.5995"/>
</g>
<!-- Node0 -->
<g id="node20" class="node">
<title>Node0</title>
<g id="a_node20"><a xlink:href="classReptil.html" target="_top" xlink:title="Classificação base para Repteis. ">
<polygon fill="#ffffff" stroke="#000000" points="129,-98.5 129,-128.5 194,-128.5 194,-98.5 129,-98.5"/>
<text text-anchor="middle" x="161.5" y="-108.5" font-family="Helvetica,sans-Serif" font-size="20.00" fill="#000000">Reptil</text>
</a>
</g>
</g>
<!-- Node0&#45;&gt;Node1 -->
<g id="edge25" class="edge">
<title>Node0&#45;&gt;Node1</title>
<path fill="none" stroke="#191970" d="M202.9744,-131.3491C206.5094,-133.5406 209.9096,-135.9257 213,-138.5 233.7634,-155.7961 226.6795,-172.2663 249,-187.5 254.0755,-190.9641 259.6273,-193.9285 265.4021,-196.4654"/>
<polygon fill="#191970" stroke="#191970" points="204.4409,-128.1582 194.0097,-126.3033 201.0074,-134.2584 204.4409,-128.1582"/>
</g>
<!-- Node0&#45;&gt;Node2 -->
<g id="edge26" class="edge">
<title>Node0&#45;&gt;Node2</title>
<path fill="none" stroke="#191970" d="M204.2414,-113.5C225.8847,-113.5 252.5737,-113.5 276.4748,-113.5"/>
<polygon fill="#191970" stroke="#191970" points="204.0563,-110.0001 194.0562,-113.5 204.0562,-117.0001 204.0563,-110.0001"/>
</g>
<!-- Node0&#45;&gt;Node3 -->
<g id="edge27" class="edge">
<title>Node0&#45;&gt;Node3</title>
<path fill="none" stroke="#191970" d="M182.225,-91.2984C198.8152,-74.767 223.4611,-52.8381 249,-39.5 258.6037,-34.4843 269.3452,-30.4501 279.971,-27.2272"/>
<polygon fill="#191970" stroke="#191970" points="179.7,-88.8745 175.1951,-98.4639 184.6968,-93.7768 179.7,-88.8745"/>
</g>
</g>
</svg>
