<?xml version="1.0" encoding="UTF-8" standalone="no"?>
<!DOCTYPE svg PUBLIC "-//W3C//DTD SVG 1.1//EN"
 "http://www.w3.org/Graphics/SVG/1.1/DTD/svg11.dtd">
<!-- Generated by graphviz version 2.40.1 (20161225.0304)
 -->
<!-- Title: DadosAnimal Pages: 1 -->
<svg width="606pt" height="1008pt"
 viewBox="0.00 0.00 606.47 1008.00" xmlns="http://www.w3.org/2000/svg" xmlns:xlink="http://www.w3.org/1999/xlink">
<g id="graph0" class="graph" transform="scale(1 1) rotate(0) translate(4 1004)">
<title>DadosAnimal</title>
<polygon fill="#ffffff" stroke="transparent" points="-4,4 -4,-1004 602.4702,-1004 602.4702,4 -4,4"/>
<!-- Node1 -->
<g id="node1" class="node">
<title>Node1</title>
<polygon fill="#bfbfbf" stroke="#000000" points="239.4702,-.5 239.4702,-90.5 365.4702,-90.5 365.4702,-.5 239.4702,-.5"/>
<text text-anchor="middle" x="302.4702" y="-70.5" font-family="Helvetica,sans-Serif" font-size="20.00" fill="#000000">DadosAnimal</text>
<polyline fill="none" stroke="#000000" points="239.4702,-60.5 365.4702,-60.5 "/>
<text text-anchor="middle" x="302.4702" y="-40.5" font-family="Helvetica,sans-Serif" font-size="20.00" fill="#000000"> </text>
<polyline fill="none" stroke="#000000" points="239.4702,-30.5 365.4702,-30.5 "/>
<text text-anchor="middle" x="302.4702" y="-10.5" font-family="Helvetica,sans-Serif" font-size="20.00" fill="#000000"> </text>
</g>
<!-- Node2 -->
<g id="node2" class="node">
<title>Node2</title>
<g id="a_node2"><a xlink:href="classTratador.html" target="_top" xlink:title="Implementação dos tratadores. ">
<polygon fill="#ffffff" stroke="#000000" points="220.4702,-259.5 220.4702,-437.5 384.4702,-437.5 384.4702,-259.5 220.4702,-259.5"/>
<text text-anchor="middle" x="302.4702" y="-417.5" font-family="Helvetica,sans-Serif" font-size="20.00" fill="#000000">Tratador</text>
<polyline fill="none" stroke="#000000" points="220.4702,-407.5 384.4702,-407.5 "/>
<text text-anchor="middle" x="302.4702" y="-387.5" font-family="Helvetica,sans-Serif" font-size="20.00" fill="#000000"> </text>
<polyline fill="none" stroke="#000000" points="220.4702,-377.5 384.4702,-377.5 "/>
<text text-anchor="start" x="228.4702" y="-357.5" font-family="Helvetica,sans-Serif" font-size="20.00" fill="#000000">+ Tratador()</text>
<text text-anchor="start" x="228.4702" y="-335.5" font-family="Helvetica,sans-Serif" font-size="20.00" fill="#000000">+ Tratador()</text>
<text text-anchor="start" x="228.4702" y="-313.5" font-family="Helvetica,sans-Serif" font-size="20.00" fill="#000000">+ ~Tratador()</text>
<text text-anchor="start" x="228.4702" y="-291.5" font-family="Helvetica,sans-Serif" font-size="20.00" fill="#000000">+ getUniforme()</text>
<text text-anchor="start" x="228.4702" y="-269.5" font-family="Helvetica,sans-Serif" font-size="20.00" fill="#000000">+ printOutDados()</text>
</a>
</g>
</g>
<!-- Node2&#45;&gt;Node1 -->
<g id="edge1" class="edge">
<title>Node2&#45;&gt;Node1</title>
<path fill="none" stroke="#404040" d="M302.4702,-259.2288C302.4702,-208.7552 302.4702,-147.128 302.4702,-103.0413"/>
<polygon fill="none" stroke="#404040" points="302.4703,-102.811 298.4703,-96.811 302.4702,-90.811 306.4703,-96.8109 302.4703,-102.811"/>
<text text-anchor="middle" x="342.9702" y="-170" font-family="Helvetica,sans-Serif" font-size="20.00" fill="#000000"> +tratador</text>
</g>
<!-- Node3 -->
<g id="node3" class="node">
<title>Node3</title>
<g id="a_node3"><a xlink:href="classPessoa.html" target="_top" xlink:title="Classe base dos funcionarios. ">
<polygon fill="#ffffff" stroke="#000000" points="182.4702,-562.5 182.4702,-806.5 346.4702,-806.5 346.4702,-562.5 182.4702,-562.5"/>
<text text-anchor="middle" x="264.4702" y="-786.5" font-family="Helvetica,sans-Serif" font-size="20.00" fill="#000000">Pessoa</text>
<polyline fill="none" stroke="#000000" points="182.4702,-776.5 346.4702,-776.5 "/>
<text text-anchor="middle" x="264.4702" y="-756.5" font-family="Helvetica,sans-Serif" font-size="20.00" fill="#000000"> </text>
<polyline fill="none" stroke="#000000" points="182.4702,-746.5 346.4702,-746.5 "/>
<text text-anchor="start" x="190.4702" y="-726.5" font-family="Helvetica,sans-Serif" font-size="20.00" fill="#000000">+ Pessoa()</text>
<text text-anchor="start" x="190.4702" y="-704.5" font-family="Helvetica,sans-Serif" font-size="20.00" fill="#000000">+ Pessoa()</text>
<text text-anchor="start" x="190.4702" y="-682.5" font-family="Helvetica,sans-Serif" font-size="20.00" fill="#000000">+ ~Pessoa()</text>
<text text-anchor="start" x="190.4702" y="-660.5" font-family="Helvetica,sans-Serif" font-size="20.00" fill="#000000">+ getNome()</text>
<text text-anchor="start" x="190.4702" y="-638.5" font-family="Helvetica,sans-Serif" font-size="20.00" fill="#000000">+ getTelefone()</text>
<text text-anchor="start" x="190.4702" y="-616.5" font-family="Helvetica,sans-Serif" font-size="20.00" fill="#000000">+ getEmail()</text>
<text text-anchor="start" x="190.4702" y="-594.5" font-family="Helvetica,sans-Serif" font-size="20.00" fill="#000000">+ printOutDados()</text>
<text text-anchor="start" x="190.4702" y="-572.5" font-family="Helvetica,sans-Serif" font-size="20.00" fill="#000000">+ operator==()</text>
</a>
</g>
</g>
<!-- Node3&#45;&gt;Node2 -->
<g id="edge2" class="edge">
<title>Node3&#45;&gt;Node2</title>
<path fill="none" stroke="#191970" d="M279.4513,-552.0359C283.7872,-513.6978 288.4156,-472.7722 292.3767,-437.7483"/>
<polygon fill="none" stroke="#191970" points="275.9426,-551.9158 278.2966,-562.2458 282.8983,-552.7025 275.9426,-551.9158"/>
</g>
<!-- Node8 -->
<g id="node8" class="node">
<title>Node8</title>
<g id="a_node8"><a xlink:href="classVeterinario.html" target="_top" xlink:title="Implementação dos veterinarios. ">
<polygon fill="#ffffff" stroke="#000000" points="38.4702,-259.5 38.4702,-437.5 202.4702,-437.5 202.4702,-259.5 38.4702,-259.5"/>
<text text-anchor="middle" x="120.4702" y="-417.5" font-family="Helvetica,sans-Serif" font-size="20.00" fill="#000000">Veterinario</text>
<polyline fill="none" stroke="#000000" points="38.4702,-407.5 202.4702,-407.5 "/>
<text text-anchor="middle" x="120.4702" y="-387.5" font-family="Helvetica,sans-Serif" font-size="20.00" fill="#000000"> </text>
<polyline fill="none" stroke="#000000" points="38.4702,-377.5 202.4702,-377.5 "/>
<text text-anchor="start" x="46.4702" y="-357.5" font-family="Helvetica,sans-Serif" font-size="20.00" fill="#000000">+ Veterinario()</text>
<text text-anchor="start" x="46.4702" y="-335.5" font-family="Helvetica,sans-Serif" font-size="20.00" fill="#000000">+ Veterinario()</text>
<text text-anchor="start" x="46.4702" y="-313.5" font-family="Helvetica,sans-Serif" font-size="20.00" fill="#000000">+ ~Veterinario()</text>
<text text-anchor="start" x="46.4702" y="-291.5" font-family="Helvetica,sans-Serif" font-size="20.00" fill="#000000">+ getCRMV()</text>
<text text-anchor="start" x="46.4702" y="-269.5" font-family="Helvetica,sans-Serif" font-size="20.00" fill="#000000">+ printOutDados()</text>
</a>
</g>
</g>
<!-- Node3&#45;&gt;Node8 -->
<g id="edge9" class="edge">
<title>Node3&#45;&gt;Node8</title>
<path fill="none" stroke="#191970" d="M208.1192,-553.0142C191.568,-514.3948 173.8575,-473.0702 158.7195,-437.7483"/>
<polygon fill="none" stroke="#191970" points="204.9193,-554.4331 212.0756,-562.2458 211.3533,-551.6756 204.9193,-554.4331"/>
</g>
<!-- Node4 -->
<g id="node4" class="node">
<title>Node4</title>
<polygon fill="#ffffff" stroke="#bfbfbf" points="66.4702,-909.5 66.4702,-999.5 130.4702,-999.5 130.4702,-909.5 66.4702,-909.5"/>
<text text-anchor="middle" x="98.4702" y="-979.5" font-family="Helvetica,sans-Serif" font-size="20.00" fill="#000000">string</text>
<polyline fill="none" stroke="#bfbfbf" points="66.4702,-969.5 130.4702,-969.5 "/>
<text text-anchor="middle" x="98.4702" y="-949.5" font-family="Helvetica,sans-Serif" font-size="20.00" fill="#000000"> </text>
<polyline fill="none" stroke="#bfbfbf" points="66.4702,-939.5 130.4702,-939.5 "/>
<text text-anchor="middle" x="98.4702" y="-919.5" font-family="Helvetica,sans-Serif" font-size="20.00" fill="#000000"> </text>
</g>
<!-- Node4&#45;&gt;Node1 -->
<g id="edge6" class="edge">
<title>Node4&#45;&gt;Node1</title>
<path fill="none" stroke="#404040" d="M81.8746,-909.2912C43.0536,-796.5571 -44.9477,-495.0808 29.4702,-259 53.9354,-181.3876 70.2191,-158.9402 134.4702,-109 161.6483,-87.8754 196.6281,-73.1615 227.6267,-63.2576"/>
<polygon fill="none" stroke="#404040" points="227.8116,-63.2011 232.3806,-57.6222 239.2877,-59.694 234.7187,-65.2729 227.8116,-63.2011"/>
<text text-anchor="middle" x="39.9702" y="-528" font-family="Helvetica,sans-Serif" font-size="20.00" fill="#000000"> +regiao</text>
<text text-anchor="middle" x="39.9702" y="-506" font-family="Helvetica,sans-Serif" font-size="20.00" fill="#000000">+nome</text>
<text text-anchor="middle" x="39.9702" y="-484" font-family="Helvetica,sans-Serif" font-size="20.00" fill="#000000">+local</text>
<text text-anchor="middle" x="39.9702" y="-462" font-family="Helvetica,sans-Serif" font-size="20.00" fill="#000000">+especie</text>
</g>
<!-- Node4&#45;&gt;Node3 -->
<g id="edge3" class="edge">
<title>Node4&#45;&gt;Node3</title>
<path fill="none" stroke="#404040" d="M126.2549,-909.3081C141.98,-883.7311 162.5445,-850.2829 182.9863,-817.0342"/>
<polygon fill="none" stroke="#404040" points="183.0358,-816.9535 182.7708,-809.7472 189.3208,-806.731 189.5858,-813.9372 183.0358,-816.9535"/>
<text text-anchor="middle" x="214.9702" y="-875" font-family="Helvetica,sans-Serif" font-size="20.00" fill="#000000"> #email</text>
<text text-anchor="middle" x="214.9702" y="-853" font-family="Helvetica,sans-Serif" font-size="20.00" fill="#000000">#nome</text>
<text text-anchor="middle" x="214.9702" y="-831" font-family="Helvetica,sans-Serif" font-size="20.00" fill="#000000">#telefone</text>
</g>
<!-- Node4&#45;&gt;Node8 -->
<g id="edge10" class="edge">
<title>Node4&#45;&gt;Node8</title>
<path fill="none" stroke="#404040" d="M98.9487,-909.4502C99.8488,-836.4566 102.1992,-687.8157 107.4702,-562 109.0032,-525.4092 111.2844,-485.3251 113.5098,-449.8698"/>
<polygon fill="none" stroke="#404040" points="113.5325,-449.5111 109.921,-443.2695 114.2933,-437.5352 117.9049,-443.7767 113.5325,-449.5111"/>
<text text-anchor="middle" x="140.4702" y="-679.5" font-family="Helvetica,sans-Serif" font-size="20.00" fill="#000000"> &#45;CRMV</text>
</g>
<!-- Node5 -->
<g id="node5" class="node">
<title>Node5</title>
<polygon fill="#ffffff" stroke="#bfbfbf" points="364.4702,-639.5 364.4702,-729.5 456.4702,-729.5 456.4702,-639.5 364.4702,-639.5"/>
<text text-anchor="middle" x="410.4702" y="-709.5" font-family="Helvetica,sans-Serif" font-size="20.00" fill="#000000">Uniforme</text>
<polyline fill="none" stroke="#bfbfbf" points="364.4702,-699.5 456.4702,-699.5 "/>
<text text-anchor="middle" x="410.4702" y="-679.5" font-family="Helvetica,sans-Serif" font-size="20.00" fill="#000000"> </text>
<polyline fill="none" stroke="#bfbfbf" points="364.4702,-669.5 456.4702,-669.5 "/>
<text text-anchor="middle" x="410.4702" y="-649.5" font-family="Helvetica,sans-Serif" font-size="20.00" fill="#000000"> </text>
</g>
<!-- Node5&#45;&gt;Node2 -->
<g id="edge4" class="edge">
<title>Node5&#45;&gt;Node2</title>
<path fill="none" stroke="#404040" d="M395.9049,-639.1855C380.3485,-590.7881 355.1917,-512.5224 334.8988,-449.3888"/>
<polygon fill="none" stroke="#404040" points="334.8418,-449.2114 329.1976,-444.7233 331.1696,-437.787 336.8138,-442.2752 334.8418,-449.2114"/>
<text text-anchor="middle" x="404.4702" y="-495" font-family="Helvetica,sans-Serif" font-size="20.00" fill="#000000"> &#45;uniforme</text>
</g>
<!-- Node6 -->
<g id="node6" class="node">
<title>Node6</title>
<polygon fill="#ffffff" stroke="#bfbfbf" points="402.9702,-303.5 402.9702,-393.5 453.9702,-393.5 453.9702,-303.5 402.9702,-303.5"/>
<text text-anchor="middle" x="428.4702" y="-373.5" font-family="Helvetica,sans-Serif" font-size="20.00" fill="#000000">bool</text>
<polyline fill="none" stroke="#bfbfbf" points="402.9702,-363.5 453.9702,-363.5 "/>
<text text-anchor="middle" x="428.4702" y="-343.5" font-family="Helvetica,sans-Serif" font-size="20.00" fill="#000000"> </text>
<polyline fill="none" stroke="#bfbfbf" points="402.9702,-333.5 453.9702,-333.5 "/>
<text text-anchor="middle" x="428.4702" y="-313.5" font-family="Helvetica,sans-Serif" font-size="20.00" fill="#000000"> </text>
</g>
<!-- Node6&#45;&gt;Node1 -->
<g id="edge5" class="edge">
<title>Node6&#45;&gt;Node1</title>
<path fill="none" stroke="#404040" d="M424.7358,-303.2502C419.1011,-243.1425 406.9637,-140.8401 387.4702,-109 383.7733,-102.9616 379.2703,-97.3049 374.2867,-92.0514"/>
<polygon fill="none" stroke="#404040" points="374.1478,-91.9177 367.0511,-90.6378 365.5031,-83.5948 372.5998,-84.8747 374.1478,-91.9177"/>
<text text-anchor="middle" x="463.9702" y="-225" font-family="Helvetica,sans-Serif" font-size="20.00" fill="#000000"> +gestacao</text>
<text text-anchor="middle" x="463.9702" y="-203" font-family="Helvetica,sans-Serif" font-size="20.00" fill="#000000">+cauda</text>
<text text-anchor="middle" x="463.9702" y="-181" font-family="Helvetica,sans-Serif" font-size="20.00" fill="#000000">+perigoso</text>
<text text-anchor="middle" x="463.9702" y="-159" font-family="Helvetica,sans-Serif" font-size="20.00" fill="#000000">+pata</text>
<text text-anchor="middle" x="463.9702" y="-137" font-family="Helvetica,sans-Serif" font-size="20.00" fill="#000000">+voa</text>
<text text-anchor="middle" x="463.9702" y="-115" font-family="Helvetica,sans-Serif" font-size="20.00" fill="#000000">+adestrado</text>
</g>
<!-- Node7 -->
<g id="node7" class="node">
<title>Node7</title>
<polygon fill="#ffffff" stroke="#bfbfbf" points="506.9702,-303.5 506.9702,-393.5 559.9702,-393.5 559.9702,-303.5 506.9702,-303.5"/>
<text text-anchor="middle" x="533.4702" y="-373.5" font-family="Helvetica,sans-Serif" font-size="20.00" fill="#000000">Pele</text>
<polyline fill="none" stroke="#bfbfbf" points="506.9702,-363.5 559.9702,-363.5 "/>
<text text-anchor="middle" x="533.4702" y="-343.5" font-family="Helvetica,sans-Serif" font-size="20.00" fill="#000000"> </text>
<polyline fill="none" stroke="#bfbfbf" points="506.9702,-333.5 559.9702,-333.5 "/>
<text text-anchor="middle" x="533.4702" y="-313.5" font-family="Helvetica,sans-Serif" font-size="20.00" fill="#000000"> </text>
</g>
<!-- Node7&#45;&gt;Node1 -->
<g id="edge7" class="edge">
<title>Node7&#45;&gt;Node1</title>
<path fill="none" stroke="#404040" d="M543.019,-303.2726C551.355,-250.5578 556.0451,-163.7048 511.4702,-109 494.2469,-87.8625 430.4284,-70.4358 377.7955,-59.2204"/>
<polygon fill="none" stroke="#404040" points="377.4762,-59.1542 370.7882,-61.8504 365.727,-56.7138 372.4151,-54.0175 377.4762,-59.1542"/>
<text text-anchor="middle" x="573.4702" y="-170" font-family="Helvetica,sans-Serif" font-size="20.00" fill="#000000"> +pele</text>
</g>
<!-- Node8&#45;&gt;Node1 -->
<g id="edge8" class="edge">
<title>Node8&#45;&gt;Node1</title>
<path fill="none" stroke="#404040" d="M132.497,-259.2509C142.706,-210.7451 161.4069,-152.0538 195.4702,-109 204.5801,-97.4858 216.3951,-87.6095 228.8368,-79.313"/>
<polygon fill="none" stroke="#404040" points="229.215,-79.0765 232.1815,-72.5038 239.3895,-72.7142 236.423,-79.2869 229.215,-79.0765"/>
<text text-anchor="middle" x="246.9702" y="-170" font-family="Helvetica,sans-Serif" font-size="20.00" fill="#000000"> +veterinario</text>
</g>
</g>
</svg>
